<svg id="Layer_1" enable-background="new 0 0 100 100" viewBox="0 0 100 100" xmlns="http://www.w3.org/2000/svg" xmlns:xlink="http://www.w3.org/1999/xlink"><linearGradient id="SVGID_1_" gradientTransform="matrix(1.281 -5.115 -5.115 -1.281 122.189 757.698)" gradientUnits="userSpaceOnUse" x1="129.227" x2="130.227" y1="46.923" y2="46.923"><stop offset="0" stop-color="#e4804e"/><stop offset=".0676" stop-color="#e4804e"/><stop offset=".9576" stop-color="#eb5500"/><stop offset="1" stop-color="#eb5500"/></linearGradient><linearGradient id="lg1"><stop offset="0" stop-color="#00135d"/><stop offset=".0325" stop-color="#00135d"/><stop offset=".9325" stop-color="#002885"/><stop offset="1" stop-color="#002885"/></linearGradient><linearGradient id="SVGID_2_" gradientTransform="matrix(13.58 0 0 -13.58 7953.397 -2474.345)" gradientUnits="userSpaceOnUse" x1="-582.523" x2="-581.523" xlink:href="#lg1" y1="-184.885" y2="-184.885"/><linearGradient id="SVGID_3_" gradientTransform="matrix(16.56 0 0 -16.56 9293.726 -3833.136)" gradientUnits="userSpaceOnUse" x1="-558.674" x2="-557.674" xlink:href="#lg1" y1="-232.591" y2="-232.591"/><linearGradient id="SVGID_4_" gradientTransform="matrix(7.864 0 0 -7.864 5388.846 95.627)" gradientUnits="userSpaceOnUse" x1="-678.913" x2="-677.913" y1="7.77" y2="7.77"><stop offset="0" stop-color="#00135d"/><stop offset=".0325" stop-color="#00135d"/><stop offset=".9325" stop-color="#002182"/><stop offset="1" stop-color="#002182"/></linearGradient><path d="m55.46 38.652c.604 2.679-.357 7.018-1.322 10.004-.369 1.143-1.554.925-2.227.786-1.14-2.985 1.191-12.315 1.748-13.279.867.079 1.516 1.222 1.801 2.489z" fill="#c90629"/><path d="m51.911 49.442-.025-.006c-.356-.077-.758-.691-.809-1.133-.293-2.489-.2-10.485 1.652-11.838.33-.241.642-.331.93-.303-.556.965-2.888 10.295-1.748 13.28z" fill="#920117"/><path d="m54.737 49.308s5.015 8.262 4.675 8.819c-.34.558-1.091.647-1.572.098-.48-.551-4.98-5.933-5.352-7.963-.371-2.032 1.6-1.858 2.249-.954z" fill="#e4804e"/><path d="m58.835 56.187c-.075.157-.075.157-.075.157s-.329.49-.715.902c-1.506-1.578-5.007-5.376-6.063-7.637-.266-.569-.377-1.429-.381-2.442.96-.481 2.601.814 2.915 1.331.383.629.383.629.383.629s4.01 6.903 3.936 7.06z" fill="#c90629"/><path d="m58.045 57.246c-.271.288-.569.537-.802.547 0 0-6.843-8.361-6.15-10.033.122-.299.299-.487.508-.593.004 1.014.115 1.873.381 2.442 1.056 2.261 4.557 6.059 6.063 7.637z" fill="#920117"/><path d="m60.151 58.017.256.102s1.853 1.558 1.775 1.862c-.076.306-.523 1.934-.9 1.907-.376-.026-.966-.21-1.281-.51-.314-.301-.048-.687.039-.798.086-.11 1.035.242 1.035.242l.182-.672s-1.259-.234-1.415-.764c-.156-.528.309-1.369.309-1.369z" fill="#c76311"/><path d="m60.773 61.704s-.425.728-.708.576c-.283-.153-.762-.967-.645-1.215s.152-.369.324-.328c.173.041.368.376.368.376z" fill="#c76311"/><path d="m60.001 61.941s-.207.386-.481.214c-.273-.172-.441-1.043-.29-1.398.15-.355.436.168.436.168z" fill="#c76311"/><path d="m59.486 61.912s-.19.279-.338.144c-.147-.136-.279-1.128-.141-1.242.139-.114.346.163.346.163z" fill="#c76311"/><path d="m59.294 60.815s-.648-.221-.864-.568c-.216-.349-.107-.829-.107-.829l1.872 1.264-.271.394z" fill="#c76311"/><path d="m60.012 58.955s-.161.342.397.7c.558.357 1.138.992.605 1.366-.532.375-1.192-.411-1.479-.698s-1.332-.401-1.551-.941c-.219-.539.098-2 .76-2.061.768-.071 1.739.648 1.663.797-.074.144-.395.837-.395.837z" fill="#e4804e"/><path d="m51.332 82.574c.072-.003-.193-1.416.845-1.445s4.046 1.823 4.046 1.823l.428 1.5s-1.954.561-2.051.541c-.098-.019-3.268-2.419-3.268-2.419z" fill="#e4804e"/><path d="m50.789 76.245s.45 5.223.599 6c.148.778 2.552.256 2.602-.182s.818-5.953.704-6.056c-.115-.102-3.826-.346-3.905.238z" fill="#e4804e"/><path d="m51.206 83.645s-.312.053-.2.566c.11.514.588.622 1.309.779.722.156 2.198.914 2.817.967s1.778.029 2.684-.477c.904-.506 1.107-1.048 1.002-1.43-.105-.381-.578-.429-.578-.429s-5.859.774-7.034.024z" fill="#903f23"/><path d="m51.108 84.097s-.149-1.491.279-1.852c0 0 .616.693 1.16.46s.926-.084.938.134c.011.217-.616 1.307-.714 1.861 0 0-1.406-.303-1.663-.603z" fill="#ffc72d"/><path d="m53.236 83.178s1.066.755 1.633.726c.566-.029 1.404-.664 1.354-.951 0 0 2.104.472 2.202.744.099.273-2.248 1.893-3.357 1.708s-2.296-.704-2.296-.704-.004-1.246.464-1.523z" fill="#ffc72d"/><path d="m53.521 81.598s-.729.225-1.017 1.219c0 0 .014.495.572.309 0 0 .875-1.202 1.583-1.069.001-.001-.313-.647-1.138-.459z" fill="#ffc72d"/><path d="m41.666 82.754s.211 1.67.359 1.814c.148.145 1.693-.087 1.736-.089l.629-1.053-.197-.673h-2.527z" fill="#e4804e"/><path d="m40.995 76.9s.449 5.223.599 6c.148.778 2.551.256 2.601-.182.051-.438.818-5.952.704-6.056-.114-.101-3.825-.347-3.904.238z" fill="#e4804e"/><path d="m40.972 85.477s.089-1.012 1.189-1.166c1.101-.155 1.975-.004 2.294.312.318.316.526.834.526.834l-.35.624-2.429.203z" fill="#ffc72d"/><path d="m40.972 85.477s2.27.832 4.01-.021c0 0 .135.658-.214.94-.349.281-2.768.273-3.474.061-.706-.213-.322-.98-.322-.98z" fill="#903f23"/><path d="m41.753 83.184s.311 1.183.441 1.197c.131.015 1.575-.064 1.575-.064l.147-1.244.692.376.372 2.008-4.017-.117.532-2.077z" fill="#ffc72d"/><path d="m41.594 82.9s-.297.067-.21.476c.071.339 2.501-.292 3.238.538l-.134-.709s-1.134-.8-2.894-.305z" fill="#ffc72d"/><path d="m53.444 79.377c1.005-.052 2.117-.195 3.381-.492-.047.642-.075 1.033-.075 1.033s-1.56-.075-3.461.07c-.225-.166-.445-.363-.657-.59.263 0 .533-.007.812-.021z" fill="#007d93"/><path d="m53.682 77.672c.975-.05 2.05-.186 3.266-.464-.016.203-.028.4-.042.588-2.044.51-3.681.603-5.106.547-.147-.22-.29-.452-.428-.697.713.048 1.474.069 2.31.026z" fill="#007d93"/><path d="m53.92 75.968c.942-.049 1.979-.178 3.149-.438-.013.199-.028.396-.041.589-2.591.632-4.525.593-6.211.435-.105-.229-.207-.467-.306-.712 1.024.109 2.13.191 3.409.126z" fill="#007d93"/><path d="m57.604 67.812c.007.137-.23 3.489-.457 6.631-3.027.72-5.154.521-7.041.309-.261-.768-.491-1.586-.688-2.44-.921-3.987-3.088-.557-3.843-3.838-.657-2.861.788-9.097 1.169-10.646l9.086.437c-.001-.001 1.761 9.287 1.774 9.547z" fill="#007d93"/><g fill="#0e515c"><path d="m38.307 74.069c.351-3.45.628-5.18.794-6.007 0 0-.657-6.184.325-10.587l6.328.304-.013.011c-.26.014-3.182 6.478-2.197 9.16.186.506.279 1.254.317 2.13l.007.163c.01.292.014.598.013.913v.144.031l-.003.221-.004.253-.004.183-.001.051c-.003.101-.005.201-.008.303v.014c-.005.124-.009.248-.013.373l-.008.224-.007.152c-.004.103-.009.205-.013.308-.008.154-.014.308-.021.461-.009.182-.018.362-.027.543-.006.124-.013.248-.02.37-.008.155-.017.31-.024.463l-.014.266-.009.178c-2.099-.041-4.234-.397-5.398-.625z"/><path d="m43.632 76.4c-2.108-.023-4.281-.379-5.492-.612v-.001c.023-.231.043-.457.065-.676 1.215.236 3.33.583 5.451.624l-.002.062-.009.201-.007.182z"/><path d="m43.668 78.104c-2.145.008-4.402-.353-5.682-.596v-.001c.02-.231.039-.455.059-.676 1.267.243 3.435.59 5.58.61l.004.136c.002.091.007.177.014.257l.008.101z"/><path d="m45.856 74.599-.155.018.064-.181.096-.255.049-.124.098-.237.051-.113.045-.101.022-.046c.045-.096.091-.185.139-.27.082-.147.168-.277.255-.387l.034-.04.092-.098.025-.023.042-.036.055-.043.006-.004.032-.021.06-.032.096-.039.042-.012.024-.004c.164-.026.339.027.523.181l.078.068.072.072.05.055.044.051.016.021.046.06.041.056.004.008.057.084c.057.091.108.187.156.289l.038.082.079.194.044.118c.044.13.087.266.124.405.025.094.05.188.073.285-.849-.071-1.701-.092-2.617.019z"/><path d="m48.844 76.341c-1.055-.11-2.089-.177-3.225-.037-.156.019-.316.035-.477.049.067-.217.138-.438.206-.66.215-.015.427-.035.635-.062.932-.114 1.817-.073 2.715.013l.015.072c.019.092.036.183.057.274v.003c.02.093.04.186.061.279z"/><path d="m49.434 78.138-.051-.007c-1.332-.151-2.59-.296-4.002-.123-.28.034-.57.058-.865.074.046-.095.091-.198.137-.311l.06-.149.075-.203c.324-.019.646-.045.958-.083 1.167-.143 2.26-.044 3.397.084l.04.112.042.116c.035.095.073.188.114.281l.042.093z"/><path d="m51.557 80.185c-2.583.393-3.584-.51-6.691-.177-3.106.334-7.051-.419-7.051-.419.029-.355.057-.7.085-1.035 1.718.325 4.95.811 7.607.486 1.29-.157 2.489-.02 3.758.124.31.036.624.072.947.105l-.1-.108.101.108.001.001.144.141.135.121.118.097.197.145.122.08.14.085.068.04c.09.051.185.1.282.144z"/></g><path d="m44.787 77.419-.075.203-.06.149c-.046.112-.091.216-.137.311-.279.016-.562.022-.848.022l-.018-.169-.008-.101c-.007-.08-.012-.166-.014-.257l-.004-.136c.393.004.781-.003 1.164-.022z" fill="#166775"/><path d="m45.348 75.692c-.068.223-.139.443-.206.66-.489.039-.997.053-1.51.048l.006-.22.007-.182.009-.201.002-.062c.569.01 1.138-.002 1.692-.043z" fill="#166775"/><path d="m49.858 74.723c-.468-.053-.926-.104-1.386-.143-.023-.097-.048-.191-.073-.285-.037-.14-.08-.275-.124-.405l-.044-.118-.079-.194-.038-.082c-.048-.103-.1-.198-.156-.289l-.057-.084-.004-.008-.041-.056-.046-.06-.016-.021-.044-.051-.05-.055-.072-.072-.078-.068c-.185-.153-.359-.207-.523-.181l-.024.004-.042.012-.096.039-.06.032-.032.021-.006.004-.055.043-.042.036-.025.023-.092.098-.034.04c-.087.109-.173.239-.255.387-.048.085-.094.174-.139.27l-.022.046-.045.101-.051.113-.098.237-.049.124-.096.255-.064.181c-.638.068-1.315.09-1.996.076l.009-.178.014-.266c.008-.153.017-.308.024-.463.007-.122.014-.246.02-.37.01-.181.019-.36.027-.543.008-.153.014-.307.021-.461.005-.103.009-.205.013-.308l.007-.152.008-.224c.006-.125.01-.249.013-.373v-.014c.004-.102.007-.202.008-.303l.001-.051.004-.183.004-.253.003-.221v-.031-.144c.001-.316-.003-.621-.013-.913l-.007-.162c-.037-.876-.131-1.624-.317-2.13-.984-2.683 1.938-9.147 2.197-9.16l.013-.011.989.048c-.381 1.549-1.826 7.784-1.169 10.646.755 3.281 2.922-.15 3.843 3.838.197.854.428 1.673.688 2.44z" fill="#166775"/><path d="m48.844 76.342-.015-.069c-.021-.094-.041-.187-.061-.279v-.004c-.021-.092-.038-.183-.057-.274l-.015-.072c.346.033.691.071 1.044.112.252.029.508.058.77.086.099.245.2.482.306.712-.411-.037-.809-.083-1.196-.127-.261-.03-.519-.06-.776-.085z" fill="#166775"/><path d="m50.112 79.161.101.109h-.001z" fill="#166775"/><path d="m51.799 78.343c-.851-.033-1.623-.121-2.364-.205h-.001l-.054-.115-.042-.093c-.041-.094-.079-.187-.114-.281l-.042-.116-.04-.112c.12.012.241.026.361.04.595.069 1.211.14 1.868.186.138.244.28.476.428.696z" fill="#166775"/><path d="m53.289 79.988c-.557.045-1.145.106-1.733.196l-.136-.062c-.098-.044-.192-.093-.282-.144l-.068-.04-.14-.085-.122-.08-.197-.145-.118-.097-.135-.121-.144-.141c.75.076 1.542.135 2.417.129l.001-.001c.212.228.432.425.657.591z" fill="#166775"/><path d="m57.146 74.442c-.025.367-.052.732-.078 1.088-1.169.26-2.206.389-3.149.438-1.279.065-2.385-.017-3.409-.126l-.015-.038-.09-.227c-.035-.09-.069-.181-.103-.271-.068-.181-.134-.366-.198-.555 1.888.213 4.015.411 7.042-.309z" fill="#ffc72d"/><path d="m43.705 74.692c-.01.188-.021.373-.028.555-.008.166-.016.329-.021.488-2.121-.041-4.236-.388-5.451-.624.035-.364.069-.711.102-1.042 1.164.228 3.299.584 5.398.623z" fill="#fca239"/><path d="m45.701 74.616-.029.083-.062.179c-.089.267-.176.54-.263.814-.554.041-1.123.053-1.692.043.006-.159.015-.322.021-.488.008-.182.019-.367.028-.555.682.014 1.359-.007 1.997-.076z" fill="#ffbe00"/><path d="m48.697 75.644c-.897-.086-1.783-.127-2.715-.013-.208.026-.42.047-.635.062.087-.274.174-.548.263-.814l.062-.179.029-.083.155-.018c.916-.11 1.768-.09 2.616-.019l.045.197c.039.172.075.349.112.529l.045.23z" fill="#fca239"/><path d="m50.511 75.842c-.262-.028-.518-.057-.77-.086-.353-.041-.698-.079-1.044-.112l-.022-.106-.045-.23c-.037-.181-.073-.357-.112-.529l-.045-.197c.46.038.918.09 1.386.143l.247.028c.064.188.13.374.198.555.033.091.067.182.103.271l.09.227z" fill="#ffbe00"/><path d="m57.027 76.119c-.029.379-.055.745-.08 1.089-1.216.278-2.291.414-3.266.464-.836.043-1.597.022-2.31-.026-.193-.341-.379-.706-.555-1.092 1.686.158 3.621.197 6.211-.435z" fill="#ffc72d"/><path d="m43.632 76.4c-.011.385-.015.736-.007 1.042-2.146-.021-4.313-.367-5.58-.61.032-.361.065-.709.095-1.044 1.211.233 3.383.589 5.492.612z" fill="#fca239"/><path d="m45.142 76.353c-.119.38-.237.742-.354 1.066-.383.02-.772.026-1.162.023-.008-.306-.004-.657.007-1.042.512.005 1.019-.008 1.509-.047z" fill="#ffbe00"/><path d="m49.142 77.42c-1.137-.128-2.229-.227-3.397-.084-.311.038-.634.064-.958.083.117-.324.235-.687.354-1.066.161-.014.321-.029.477-.049 1.136-.14 2.17-.073 3.225.037v.001l.05.211.035.14.036.141.036.129c.043.153.09.307.142.457z" fill="#fca239"/><path d="m51.371 77.646c-.657-.046-1.273-.116-1.868-.186-.12-.014-.241-.028-.361-.04-.052-.15-.099-.304-.142-.457l-.035-.13-.036-.141-.035-.14-.05-.211c.257.025.516.056.776.085.388.044.785.09 1.196.127.176.386.362.752.555 1.093z" fill="#ffbe00"/><path d="m56.905 77.796c-.03.411-.058.779-.08 1.089-1.264.297-2.376.44-3.381.492-.279.014-.55.021-.812.021l-.108-.116-.107-.121-.067-.081-.115-.14-.046-.059-.046-.061-.087-.115-.064-.088c-.064-.089-.129-.181-.191-.275 1.424.056 3.06-.036 5.104-.546z" fill="#ffc72d"/><path d="m50.212 79.27c-.323-.033-.638-.069-.947-.105-1.268-.144-2.468-.281-3.758-.124-2.657.324-5.89-.161-7.607-.486.028-.359.058-.707.087-1.045 1.279.243 3.537.604 5.682.596l.01.072.01.066.015.079.016.063.01.038.016.051.015.046.022.05.021.038.063.075.029.019.026.01.014.003.084-.008.042-.02c.104-.053.205-.164.304-.324l.031-.051.121-.23c.295-.017.585-.04.865-.074 1.412-.173 2.67-.028 4.002.123l.051.007.027.055.066.128c.081.151.169.298.268.44l.074.102.012.016.076.1.036.044.072.086.047.054z" fill="#fca239"/><path d="m44.516 78.082-.121.23-.031.051c-.099.16-.199.272-.304.324l-.042.02-.084.008-.014-.003-.026-.01-.029-.019-.063-.075-.022-.038-.022-.05-.015-.046-.016-.051-.01-.038-.016-.063-.015-.079-.01-.066-.01-.072c.287-.001.57-.007.85-.023z" fill="#ffbe00"/><path d="m52.631 79.399c-.875.006-1.667-.053-2.417-.129l-.001-.001-.101-.108-.047-.054-.072-.086-.036-.044-.076-.1-.012-.016-.074-.102c-.099-.142-.187-.288-.268-.44l-.066-.128-.026-.055c.741.084 1.514.172 2.364.205.062.095.127.187.191.275l.064.088.087.115.046.061.046.059.115.14.067.081.107.121z" fill="#ffbe00"/><path d="m49.435 78.138.026.054-.027-.054z" fill="#ffc72d"/><path d="m50.112 79.161.101.109h-.001z" fill="#ffc72d"/><path d="m52.632 79.398-.001.001-.108-.117z" fill="#ffc72d"/><path d="m49.671 38.463c-2.553.736-4.235-1.515-5.024-2.953 1.735-.553 4.416-.702 6.639.397.177 1.084-.121 2.119-1.615 2.556z" fill="#e4804e"/><path d="m50.64 30.095-4.426-.051s.276 2.003-.233 4.092c-.147.596-.361 1.21-.666 1.777 0 0 2.527 2.057 5.48.732 0 0-.239-.725-.363-1.953-.119-1.14-.142-2.74.208-4.597z" fill="url(#SVGID_1_)"/><path d="m55.522 59.802c-.377.164-.741.312-1.094.443-2.716.253-4.672-.073-6.855-.626-2.515-.637-1.039-4.427-1.979-5.533-.938-1.106 2.146-2.146.168-3.085-1.979-.939-1.273-2.951-.906-3.789.369-.839-.703-.805-2.312-2.214-1.61-1.408-.997-7.267-.997-7.267.985-1.39 2.093-1.814 2.093-1.814.077-.042.165-.085.258-.126l.002-.001c.22-.104.473-.198.746-.28.116.214.254.446.41.683l.114.169c.082.117.168.235.259.354l.103.129c.089.108.18.215.276.318l.115.124.246.239.098.088.06.051.102.085.069.055.107.08c.311.228.65.416 1.02.544.604.209 1.285.255 2.045.036.156-.046.299-.098.429-.156.132-.059.25-.122.356-.191l.223-.163c.618-.525.732-1.273.606-2.047.29.143.571.305.84.493-.389.381-.531.943.009 1.77 1.436 2.192 2.08 8.06 1.301 10.92-.689 2.525 1.92 4.645 2.088 10.711z" fill="#c90629"/><path d="m56.269 58.595c0 .356-.014.661-.039.892-.242.112-.478.217-.707.315-.168-6.065-2.777-8.186-2.088-10.713.779-2.86.135-8.729-1.301-10.92-.54-.826-.397-1.389-.009-1.77l.063.044v-.003c.698.5 1.069.779 1.565 1.615.989 1.649.853 4.009.819 6.7-.008.467-.011.939-.004 1.425.021 1.759.166 3.624.737 5.503.725 2.383.971 5.248.964 6.912z" fill="#ff2148"/><path d="m54.429 60.245c-2.307.867-4.094 1.099-5.949 1.003-3.37-.521-5.398-1.076-6.681-2.604-1.689-2.015.976-8.45-.455-13.26-1.398-4.706.134-7.527.2-7.648l.003-.004s-.613 5.858.997 7.267c1.609 1.409 2.682 1.375 2.312 2.214-.367.838-1.072 2.85.906 3.789 1.979.938-1.106 1.979-.168 3.085.939 1.107-.536 4.896 1.979 5.533 2.184.552 4.14.878 6.856.625z" fill="#95011e"/><path d="m45.617 60.907.005-.149-.004-.001-.005.151c-2.921-.476-4.78-1.503-6.402-2.302-.015-.263-.02-.534-.011-.816.086-2.709 1.137-6.313.97-11.288-.017-.553-.051-1.122-.101-1.708-.303-3.539.533-5.734 1.475-7.058-.066.121-1.599 2.942-.2 7.648 1.431 4.81-1.234 11.245.455 13.26 1.282 1.528 3.311 2.084 6.681 2.604-.914-.047-1.845-.173-2.863-.341z" fill="#920117"/><path d="m44.754 39.046c-.098 2.744-2.13 6.696-3.823 9.339-.647 1.012-1.737.5-2.354.194-.343-3.177 4.284-11.607 5.067-12.398.819.298 1.157 1.566 1.11 2.865z" fill="#c90629"/><path d="m38.577 48.579-.022-.012c-.325-.166-.557-.861-.494-1.302.351-2.481 2.473-10.191 4.608-11.028.381-.149.704-.156.976-.057-.784.792-5.411 9.222-5.068 12.399z" fill="#920117"/><path d="m53.349 54.956-.039-.18c-.111-.151-.343-.469-.36-.476-.022-.008-1.54-.633-1.723-.551-.759.343-3.155 1.126-3.419 1.836-.018.046.16.206.387.354.291.192.564.276.842.253.35-.029 1.215-.678 1.271-.708l.003-.001.519.403s-.482.308-.342.528l.007.009c.119.146.565-.196.767-.365-.072.172-.121.333-.077.388l.026.031c.094.101.167.092.305-.006.053-.037.158-.179.274-.347v.004l.014.107v.003l.045.047.038.009c.245-.001.771-.884.711-1.155l-.062-.137-.113-.082c.143.018.344.061.412.148.11.143-.089.311.154.488l.003.002c.193.142.315-.375.357-.602zm-2.011.934-.246-.917.433.561c-.001-.001-.095.164-.187.356z" fill="#e4804e"/><path d="m42.181 48.129s7.144 6.51 6.976 7.14c-.169.631-.864.93-1.481.538-.616-.392-6.452-4.284-7.382-6.128-.93-1.843 1.01-2.234 1.887-1.55z" fill="#e4804e"/><path d="m48.055 53.57c-.027.172-.027.172-.027.172s-.178.563-.432 1.067c-1.89-1.088-6.321-3.743-7.973-5.613-.416-.471-.766-1.265-1.056-2.235.785-.733 2.726.046 3.173.454.544.494.544.494.544.494s5.797 5.49 5.771 5.661z" fill="#c90629"/><path d="m47.596 54.81c-.179.353-.395.677-.614.752 0 0-8.926-6.089-8.734-7.889.034-.321.149-.552.32-.712.29.971.64 1.765 1.056 2.235 1.65 1.87 6.082 4.526 7.972 5.614z" fill="#920117"/><path d="m56.186 37.7-.1.251c-.175.307-.526.636-.834.888l.089.617.32 2.243c-1.2-.303-2.953-.839-4.025-1.594-1.755-1.235-.325-1.561.455-2.08.78-.52-3.186-.13-6.76-1.82-3.575-1.691-1.95-2.925-1.95-2.925l-.765-2.107 12.595 4.122s1.104 1.755.975 2.405z" fill="url(#SVGID_2_)"/><path d="m55.991 44.005s-8.971-5.59-13.131-7.67-2.145-5.785-2.145-5.785l1.9.623.765 2.107s-1.625 1.234 1.95 2.925c3.574 1.69 7.54 1.3 6.76 1.82s-2.21.845-.455 2.08c1.072.755 2.825 1.291 4.025 1.594z" fill="#000028"/><path d="m55.252 38.839.089.617c-.938-.245-2.187-.858-1.333-.896.889-.037 1.754-.441 2.078-.609-.175.307-.526.636-.834.888z" fill="#000028"/><path d="m53.68 34.872c-.501.069-1.047.101-1.641.093-8.58-.13-9.056-7.021-8.883-7.973.037-.208.385-.671.904-1.27-.044 2.822.691 9.03 9.019 9.156.205.004.405.002.601-.006z" fill="#c45900"/><path d="m53.68 34.872c-.195.008-.396.01-.601.007-8.327-.126-9.062-6.334-9.019-9.156.765-.88 1.903-2.051 2.979-3.126 1.548-1.542 2.963-2.885 2.963-2.885s-.297-2.564.146-2.467c1.671.368 6.212.509 8.06 2.427.097.099-.016 5.197.417 6.062.404.808 1.783 8.221-4.945 9.138z" fill="#e4804e"/><path d="m44.657 30.456c-.129.116-.279.213-.453.293-.248.114-.506.173-.764.183l-.247-.003c-.781-.054-1.549-.504-2.081-1.06-.939-.984-1.215-2.263-.7-3.255.438-.843 1.211-1.134 2.233-.846l.106.032c.523.168.994.46 1.38.835.614.6 1.013 1.412 1.066 2.281.042.672-.139 1.188-.54 1.54z" fill="#e4804e"/><path d="m42.351 26.757s-.895-.276-.71.104c.184.382 1.185.053 1.685 1.369 0 0-.855.303-.579 1.04s1.276.5 1.276.408c0-.093-.97.048-.899-.531.07-.579.982-.456 1.062-.526.078-.07-.616-1.649-1.835-1.864z" fill="#942411"/><path d="m58.433 20.666c-.06.416-.124.741-.124.741-.19-.221-.389-.432-.593-.631-1.526-1.504-3.286-2.414-3.349-2.445l-.002-.001.898-.222c.619.375 1.596 1.026 2.519 1.894.221.21.441.432.651.664z" fill="#1d78a0"/><path d="m58.433 20.666c-1.083-1.201-2.401-2.093-3.169-2.558l.685-.169s-.326-.28-1.316-.191h-.001c-.683.061-1.68.3-3.103.928-1.923.848-4.221 3.162-5.924 5.173.166-.602.018-.813-1.444-1.1-1.657-.325.976-1.853 1.268-3.998.293-2.145-2.989 1.138-3.412-.26-.189-.629.252-1.608.796-2.495 3.095-2.626 7.175-3.211 10.839-2.023 2.803.909 4.658 4.528 4.833 5.093.097.324.025 1.043-.052 1.6z" fill="url(#SVGID_3_)"/><path d="m51.271 36.358c-2.99.032-6.85-.924-8.93-3.403-2.295-2.734-4.913-8.177-2.505-13.142.12-.25.254-.5.402-.746.733-1.229 1.604-2.249 2.573-3.07-.544.887-.985 1.866-.796 2.495.423 1.397 3.705-1.885 3.412.26-.292 2.145-2.925 3.673-1.268 3.998 1.462.286 1.61.497 1.444 1.1-1.04 1.229-1.857 2.344-2.231 2.942-.126.2-.202.342-.22.41-.163.618-.91 4.681 2.372 6.501 1.216.673 2.774 1.289 4.419 1.583l.001.001c.42.457.863.826 1.327 1.071z" fill="#000028"/><path d="m57.716 20.776c-2.983-.789-5.978-.612-7.057-.511 1.143-.798 2.39-1.484 3.706-1.936l.002.001c.063.032 1.822.942 3.349 2.446z" fill="#95000a"/><path d="m57.766 32.751c-.36.467-.754.862-1.172 1.193-3.31 2.646-8.166 1.366-11.068-.241-3.282-1.82-2.535-5.883-2.372-6.501.018-.068.094-.21.22-.41.374-.599 1.191-1.714 2.231-2.942l.096-.11.131-.153c.132-.153.267-.309.405-.464l.14-.155c.094-.104.188-.208.283-.312s.192-.208.29-.311c.373-.397.759-.787 1.151-1.16l.172-.162c.114-.108.23-.214.346-.316l.156-.138.097-.084.193-.167c.198-.168.396-.329.594-.479.121-.094.24-.184.361-.271l.012-.008.191-.134.193-.13.067-.044.002-.002.149-.095c.102-.062.201-.122.302-.18l.056-.031.16-.085c.126-.066.252-.128.376-.183 1.423-.628 2.42-.867 3.103-.928h.001c.99-.09 1.316.191 1.316.191l-.685.169-.898.222c-1.316.451-2.563 1.138-3.706 1.936-4.122 2.878-6.91 7.207-6.91 7.207s-.518 4.08 2.914 5.937c.729.394 1.42.704 2.076.942 4.656 1.695 7.516-.197 8.589-1.162l.004-.004c.22-.197.364-.356.434-.435z" fill="#007fc8"/><path d="m57.79 32.721.02-.024c-.026.055-.88 1.806-3.184 3.021-.746.394-1.955.627-3.355.641-.464-.245-.906-.614-1.325-1.071 2.28.407 4.726.194 6.648-1.343.418-.331.812-.727 1.172-1.193z" fill="url(#SVGID_4_)"/><path d="m55.087 28.47c-.494-.145-.672.029-.679.036l-.031.033.032.031c.215.21.778.231.783.231l.167-.123c.018-.123-.201-.187-.272-.208z" fill="#951a00"/><path d="m56.846 27.692c-.062-.294-.3-.556-.71-.78-.639-.35-.445-1.437-.421-1.56l.009-.044-.178-.035-.015.075c-.195.894-.027 1.536.471 1.809.33.181.527.386.57.593.028.136-.01.273-.114.408-.247.319-.852.604-.857.606l-.2.094.607-.021.026-.008c.241-.097.47-.274.646-.5.154-.199.211-.419.166-.637z" fill="#951a00"/><path d="m49.617 25.023s1.221-1.403 2.429-.807c1.209.596 1.249 1.879 1.249 1.879s-.831 1.079-2.235.669c-1.192-.347-1.443-1.741-1.443-1.741z" fill="#fff"/><path d="m52.75 25.516c-.044.716-.583 1.267-1.203 1.229-.621-.038-1.089-.65-1.045-1.366.044-.717.583-1.267 1.203-1.228.621.037 1.089.648 1.045 1.365z" fill="#913f39"/><path d="m52.161 25.479c-.021.341-.277.603-.573.585-.295-.019-.519-.31-.497-.65.021-.342.277-.604.573-.585.296.018.519.309.497.65z" fill="#3f0100"/><path d="m50.067 25.394c-.013.313.231.577.545.589.312.013.576-.231.589-.545.012-.312-.231-.576-.545-.589-.313-.012-.577.232-.589.545z" fill="#fff"/><path d="m55.846 25.733s.344-1.515 1.293-1.494c.948.021.93.759.93.759s.047 1.389-.949 1.711c-.997.321-1.274-.976-1.274-.976z" fill="#fff"/><path d="m57.893 25.497c-.036.586-.412 1.039-.84 1.013s-.746-.522-.71-1.108.412-1.04.84-1.014c.427.027.746.523.71 1.109z" fill="#913f39"/><path d="m57.486 25.472c-.017.279-.195.495-.399.482s-.355-.248-.338-.527c.017-.278.196-.495.399-.483.205.013.356.249.338.528z" fill="#3f0100"/><path d="m56.134 25.435c-.012.295.148.54.356.548.209.008.388-.224.398-.519.012-.294-.148-.539-.356-.548-.209-.008-.386.225-.398.519z" fill="#fff"/><path d="m49.617 25.023s.966-.743 2.216-.597c1.156.135 1.462 1.669 1.462 1.669s0-2.216-1.566-2.37c-1.669-.163-2.112 1.298-2.112 1.298z" fill="#942411"/><path d="m55.846 25.733s1.195-2.194 2.224-.798c0 0 .016-.998-.993-.914-1.01.084-1.231 1.712-1.231 1.712z" fill="#942411"/><path d="m52.066 23.266c-.12.014-1.052.123-1.43.223-.523.138-1.206.269-1.302.014-.155-.414 3.849-2.007 3.987-1.187.118.686-.408.852-1.255.95z" fill="#29160c"/><path d="m56.305 23.062s-.488-.812.256-.809c.744.004 1.929.828 1.832 1.165-.097.338-1.803.03-2.088-.356z" fill="#29160c"/><path d="m55.709 31.248s-.449 1.693-1.999 1.669c-1.023-.018-1.64-.712-1.896-1.43l-.06-.222v-.005c-.036-.132-.054-.264-.06-.389-.012-.155 0-.3.024-.425 0 0 1.119 1.19 3.716.844l.09-.013z" fill="#8b011c"/><path d="m55.434 31.29c-.108.323-.377.616-.922.741-1.101.252-2.172-.358-2.758-.771-.036-.132-.054-.264-.06-.389-.012-.155 0-.3.024-.425 0 0 1.119 1.191 3.716.844z" fill="#fff"/><path d="m49.617 25.023-.173-.784s3.979-1.225 3.851 1.856c0 0-.218-1.48-1.669-1.602-1.272-.106-2.009.53-2.009.53z" fill="#680303"/><path d="m55.846 25.733s1.19-2.148 2.224-.798l.44-.621c0 .001-2.183-.901-2.664 1.419z" fill="#680303"/></svg>