<svg id="Layer_1" enable-background="new 0 0 100 100" viewBox="0 0 100 100" xmlns="http://www.w3.org/2000/svg" xmlns:xlink="http://www.w3.org/1999/xlink"><linearGradient id="SVGID_1_" gradientTransform="matrix(-.278 -3.705 -3.705 .278 -744.228 98.782)" gradientUnits="userSpaceOnUse" x1="-.449" x2=".551" y1="-213.767" y2="-213.767"><stop offset="0" stop-color="#e28752"/><stop offset=".0702" stop-color="#e28752"/><stop offset=".8745" stop-color="#b5590e"/><stop offset="1" stop-color="#b5590e"/></linearGradient><path d="m54.044 42.844c.806 1.009.719 7.429.689 8.267-.024.689.17 2.609-.397 3.447-.621-.08-1.141-.234-1.476-.492-1.575-1.205-1.059-9.151-1.106-11.498l.194-.213c.947-.823 1.474-.293 2.096.489z" fill="#fff9bb"/><path d="m52.859 54.065c.336.258.855.412 1.476.492-.398.586-1.011.741-1.926-.26-1.903-2.079-1.252-8.167-1.213-10.373.006-.384.268-.984.557-1.357.048 2.347-.469 10.293 1.106 11.498z" fill="#fff482"/><path d="m62.664 62.342s-.504-.022-.339-.185c.165-.161.531-.203.531-.203l-.135-.78-.373-.454.32-.28.571.602.004.833-.166.375z" fill="#b5590e"/><path d="m62.479 62.039s-.48-.064-.338-.185c.142-.12.485-.123.485-.123l-.2-.664-.447-.47.329-.15.599.554.08.698-.122.299z" fill="#b5590e"/><path d="m62.931 62.545s-.689.213-.436-.131c.254-.344.575-.306.575-.306l-.08-.888-.643-.73.734-.164.568 1.044z" fill="#b5590e"/><path d="m59.982 59.653s.536 1.507.961 1.664c.22.082.677.156.946.438.269.281.803.524.967.198.165-.326-.082-.741-.369-.733-.286.009-.643-.559-.643-.559s1.175-.226 1.244-.052c.069.173.216.6.237.681l-.055.676c-.005.046-.558.605-.423.746.135.142.714-.631.764-.708l.358-.798-.351-1.216c-.082-.055-2.643-1.152-2.87-1.237-.226-.083-.94.321-.766.9z" fill="#e28752"/><path d="m58.164 58.486s1.771 1.337 2.156 1.354.77-.795.671-.927c-.099-.131-1.71-1.304-1.71-1.304z" fill="#e28752"/><path d="m59.989 57.945c-.189.337-.405.616-.613.842-1.447-.546-6.514-4.197-7.188-6.02-.042-.11-.16-.179-.163-.35.476-.484 1.923-1.095 2.379-.851-.001.001 3.634 4.774 5.585 6.379z" fill="#fff9bb"/><path d="m59.376 58.787c-.209.227-.408.399-.567.52-1.928-.896-6.107-4.718-6.703-5.782-.285-.508-.378-.805-.081-1.107.004.153.129.247.186.352 1.026 1.871 5.718 5.471 7.165 6.017z" fill="#fff482"/><path d="m56.092 21.506s2.321.929 1.114 6.777c-1.207 5.849 1.485 15.597 1.485 15.597s-8.402 1.635-8.866-3.564c-.465-5.199 2.182-18.439 2.182-18.439z" fill="#57f1f1"/><path d="m39.597 85.015s-.166-.923.535-1.07 3.248-.332 3.949.83l-.369.812-2.786.019z" fill="#4a91a8"/><path d="m39.597 85.015v.646s2.325.775 4.318.056l.166-.941c0-.002-1.919 1.124-4.484.239z" fill="#4a91a8"/><path d="m43.896 84.218c-.345-.728-.78-2.377-.85-2.644l-.081-1.764-1.829.037s-.134.904-.244 1.847h-.011l-.023.058c-.172.442-1.211 2.889-1.039 3.348.066.18.254.162.428.099.051.113.145.218.321.273.208.063.347-.046.438-.197.05.112.143.207.312.25.291.073.469-.162.572-.405.091.159.216.305.38.334.249.045.446-.153.562-.476.083.189.222.35.454.335.547-.037.984-.301.61-1.095z" fill="#e28752"/><path d="m39.726 84.424s2.399-1.255 4.226-.129l-.193-.424s-1.707-.97-3.876.193z" fill="#4a91a8"/><path d="m40.003 83.926s2.116-1.255 3.728-.129l-.145-.412s-1.532-.982-3.444.182z" fill="#4a91a8"/><path d="m49.188 77.739s.735 2.602.153 3.766-.49 2.052.337 2.144c.826.092 1.653-.643 3.674-.03 2.021.612 3.199-.23 3.199-.23s.337.199.582-.076.275-.888-.49-.812c-.765.077-1.562.199-2.786-.245-1.225-.443-2.066-3.429-2.066-4.286z" fill="#e28752"/><path d="m54.321 82.282.551.196-.218 1.469h-.735z" fill="#57abc6"/><path d="m55.377 82.5v1.47h.574l-.172-1.458z" fill="#57abc6"/><path d="m48.845 83.625 8.036.139-.206.688h-7.578z" fill="#4a91a8"/><path d="m55.369 79.3c-.189.143-.833.557-1.543.798-.397.134-.816.215-1.188.162-.378-.055-.725.029-1.142.15-.596.175-1.333.426-2.496.453-.245.008-.508.003-.791-.013-1.269-.072-2.091.015-2.968.104-.909.095-1.875.191-3.454.117-.293-.014-.58-.034-.862-.059.589-3.59 2.979-8.355 3.814-11.777.984-4.035.193-6.28.193-6.28l-2.395-1.245 12.479-.182z" fill="#fff9bb"/><g fill="#fff482"><path d="m44.739 69.236c-.835 3.422-3.226 8.188-3.814 11.777-2.715-.235-4.896-.901-4.896-.901 2.544-5.523 3.727-17.964 3.762-18.352l.001-.009 2.745-.04 2.395 1.245c.001 0 .792 2.245-.193 6.28z"/><path d="m49 80.863c-.245.008-.508.003-.791-.013-1.269-.072-2.091.015-2.968.104.211-2.222.973-9.52 1.786-9.332.792.185 1.684 6.896 1.973 9.241z"/><path d="m53.826 80.098c-.397.134-.816.215-1.188.162-.378-.055-.725.029-1.142.15-.106-2.254-.373-9.462.625-8.713.952.714 1.521 6.272 1.705 8.401z"/></g><path d="m55 61c-.058-1.932-.282-7.822-.567-12.447-.157-2.565-.335-4.74-.514-5.637-.027-.143-.058-.254-.085-.327-.784-2.032-6-2.622-6-2.622s-2.604-.086-4.677.866c1.021 1.547 2.862 4.97 2.32 8.867-.673 4.845-2.326 9.506-.545 13.256 1.091.147 2.285.239 3.514.215 2.225-.044 4.558-.471 6.57-1.642.001 0-.005-.188-.016-.529z" fill="#fff9bb"/><path d="m45.478 49.7c-.673 4.845-2.326 9.506-.545 13.256-2.952-.399-5.141-1.205-5.141-1.205s.626-6.568.837-12.013c.074-1.941.098-3.741.02-5.048-.035-.607.044-1.138.216-1.6.102-.284.239-.541.403-.775.404-.579.973-1.016 1.605-1.345.094-.049.188-.095.284-.138 1.022 1.548 2.863 4.971 2.321 8.868z" fill="#fff482"/><path d="m45.754 39.033s1.219-.727 4.629.461l-.009.941-1.501.96-1.771-.123z" fill="#6e8044"/><path d="m50.182 40.741c-.435.486-.815 1.126-1.173 1.221-.85-.068-2.42-1.086-3.287-1.609 1.065-2.107.898-4.646.898-4.646l3.179-.046c-.127 1.381.166 3.731.383 5.08z" fill="url(#SVGID_1_)"/><path d="m51.081 40.547s-.905 2.111-3.458 1.365c-.765-.223-1.679-.702-2.761-1.575l.892-1.304s.361.369.89.761c.666.493 1.6 1.02 2.403.881 1.211-.208 1.336-1.181 1.336-1.181z" fill="#bad900"/><path d="m47.623 41.912c-.765-.223-1.679-.702-2.761-1.575l.892-1.304s.361.369.89.761c-.071.542.011 1.411.979 2.118z" fill="#93aa46"/><path d="m47.545 56.491s-3.018.477-5.786.203c4.376-8.915 2-13.846.632-15.679l1.955-.912c0 .001 4.036 6.497 3.199 16.388z" fill="#a7220a"/><path d="m41.759 56.694c-.678-.066-1.341-.177-1.939-.352l.54-8.119s4.281-1.229 1.771-7.087l.26-.121c1.368 1.834 3.744 6.764-.632 15.679z" fill="#801a08"/><path d="m51.457 40.571-.332.104s2.128 9.271.996 15.471l.345.099 1.058-.898.296-6.828-.887-4.207z" fill="#821a08"/><path d="m51.457 40.571s2.239 10.015 1.009 15.674c0 0 1.427.246 2.805-.296 0 0-.443-8.021-.688-9.596 0 0-1.378-2.608-1.526-5.068z" fill="#a7220a"/><path d="m43.683 42.705c.805 1.009.719 7.429.689 8.268-.024.688.171 2.609-.396 3.446-.621-.079-1.141-.234-1.477-.492-1.576-1.205-1.059-9.15-1.106-11.498l.195-.213c.945-.822 1.473-.291 2.095.489z" fill="#fff9bb"/><path d="m42.498 53.927c.336.258.855.413 1.477.492-.398.586-1.011.741-1.927-.26-1.903-2.079-1.252-8.167-1.212-10.373.005-.383.268-.983.556-1.357.047 2.347-.47 10.293 1.106 11.498z" fill="#fff482"/><path d="m43.966 59.358s.884 2.036 1.21 2.239c.327.204 1.062-.312 1.04-.476-.021-.162-.846-1.977-.846-1.977z" fill="#e28752"/><path d="m45.82 59.786c-.33.2-.656.337-.948.431-.99-1.188-3.603-6.86-3.293-8.778.019-.117-.052-.234.03-.385.652-.188 2.213-.006 2.489.431.001-.001.814 5.944 1.722 8.301z" fill="#fff9bb"/><path d="m44.872 60.217c-.294.095-.552.146-.75.174-1.236-1.728-2.991-7.112-2.987-8.333.002-.582.067-.887.475-1.004-.072.136-.009.279-.011.397-.028 2.135 2.283 7.578 3.273 8.766z" fill="#fff482"/><path d="m46.809 60.856s.752.418.946.583c.195.165.305.653.334.678l-.346.417z" fill="#b5590e"/><path d="m47.731 61.666c.011.025.189.415.352.801l-.001.001c-.199.343-.646.405-.765.377-.118-.029-.222.122-.375.292-.153.169-.437.073-.528.098-.093.025-.437.378-.659.299-.123-.045-.324.071-.48.184-.229-.375-.469-.813-.598-.977-.252-.318.219-1.228.219-1.228.055-.229.855-.724.935-.787.08-.062.725-.009.872.06s1.008.83 1.028.88z" fill="#e28752"/><path d="m48.083 62.467c.139.336.265.669.252.757-.027.189-.121.28-.344.396-.223.115-.319-.159-.369.047s-.369.329-.47.261c-.1-.069-.17-.051-.17-.051s-.09.237-.296.327c-.207.089-.401-.017-.435-.082-.033-.066-.241.116-.448.206-.101.044-.31-.256-.528-.611.155-.112.356-.229.48-.184.223.079.566-.273.659-.299.092-.024.375.071.528-.098.153-.17.257-.321.375-.292.12.029.566-.033.766-.377z" fill="#b5590e"/><path d="m53.144 38.683c-.212.061-.429.115-.652.165-2.664.592-5.862-.265-8.526-2.605-3.029-2.656-1.954-9.118-1.954-9.118s.65-7.283 7.045-8.585l.183-.034c-5.696 1.693-6.295 8.396-6.295 8.396s-1.073 6.461 1.954 9.119c2.571 2.258 5.638 3.134 8.245 2.662z" fill="#b5590e"/><path d="m57.228 26.472c-.414 3.198.06 5.212-.118 7.816-.163 2.388-1.666 3.73-3.966 4.394-2.606.473-5.674-.403-8.246-2.662-3.027-2.658-1.954-9.119-1.954-9.119s.599-6.703 6.295-8.396c6.254-1.154 8.401 4.8 7.989 7.967z" fill="#e28752"/><path d="m53.357 32.122c-.562-.164-.763.033-.771.042l-.035.036.036.036c.245.238.884.262.891.262.051 0 .176-.047.188-.14.021-.139-.228-.212-.309-.236z" fill="#802002"/><path d="m55.354 31.239c-.069-.333-.341-.632-.806-.886-.727-.397-.506-1.632-.479-1.771l.01-.05-.201-.04-.018.086c-.221 1.015-.031 1.744.535 2.054.374.205.599.438.647.673.032.154-.012.31-.129.463-.281.363-.968.687-.975.689l-.228.106.69-.024.029-.009c.274-.109.534-.312.733-.568.179-.226.244-.476.192-.723z" fill="#802002"/><path d="m47.146 28.209s1.386-1.594 2.759-.917c1.372.677 1.418 2.134 1.418 2.134s-.944 1.226-2.538.76c-1.354-.395-1.639-1.977-1.639-1.977z" fill="#fff"/><path d="m50.704 28.767c-.05.815-.662 1.438-1.367 1.396-.705-.043-1.236-.738-1.187-1.552.05-.813.661-1.438 1.367-1.395s1.237.737 1.187 1.551z" fill="#80413c"/><path d="m50.035 28.726c-.024.388-.315.686-.651.665s-.589-.351-.564-.739c.023-.388.314-.685.65-.664.336.02.589.351.565.738z" fill="#380500"/><path d="m47.656 28.629c-.014.355.264.655.619.669.356.014.655-.264.669-.619s-.264-.655-.619-.669-.654.263-.669.619z" fill="#fff"/><path d="m54.219 29.015s.391-1.72 1.468-1.696c1.078.023 1.057.861 1.057.861s.054 1.577-1.078 1.942c-1.133.365-1.447-1.107-1.447-1.107z" fill="#fff"/><path d="m56.544 28.746c-.041.665-.468 1.18-.954 1.15s-.847-.593-.807-1.258c.041-.666.468-1.181.954-1.151.487.031.847.594.807 1.259z" fill="#80413c"/><path d="m56.082 28.718c-.019.316-.223.562-.454.548-.23-.015-.402-.282-.384-.6.02-.316.223-.562.454-.547.232.014.404.282.384.599z" fill="#380500"/><path d="m54.546 28.676c-.013.334.169.612.405.622.237.009.439-.255.452-.589.014-.335-.168-.613-.405-.622-.236-.01-.439.254-.452.589z" fill="#fff"/><path d="m47.146 28.209s1.097-.844 2.517-.679c1.312.153 1.66 1.896 1.66 1.896s0-2.516-1.779-2.69c-1.897-.187-2.398 1.473-2.398 1.473z" fill="#802919"/><path d="m54.219 29.015s1.357-2.491 2.525-.906c0 0 .018-1.133-1.128-1.037-1.145.094-1.397 1.943-1.397 1.943z" fill="#802919"/><path d="m49.89 25.548c-.136.016-1.194.141-1.624.253-.593.156-1.369.306-1.477.016-.176-.47 4.37-2.279 4.528-1.348.132.78-.465.969-1.427 1.079z" fill="#421f1b"/><path d="m54.703 25.316s-.555-.923.291-.919c.845.005 2.19.94 2.08 1.323-.109.384-2.048.036-2.371-.404z" fill="#421f1b"/><path d="m49.436 35.198-.05.016.107.322.049-.017c.028-.009 2.896-.927 4.353.15l.042.03.201-.272-.041-.03c-1.612-1.19-4.538-.24-4.661-.199z" fill="#802002"/><path d="m51.555 36.486-.047.022.144.307.047-.021c.01-.004.987-.437 1.955.192l.043.028.186-.284-.044-.028c-1.136-.739-2.237-.237-2.284-.216z" fill="#802002"/><path d="m45.289 15.998h.003c2.504-.649 5.173-.394 6.842-.202.111.213.305.392.597.482 1.347.423 2.333 1.284 3.369 2.168.004.169.044.341.117.504.454 1.015 1.144 1.891 1.729 2.828l.055.088-.108-.012c.701.959.664 2.86.664 2.86-.834-1.053-4.849-2.667-4.954-2.712.956.568.642 2.336.642 2.336-3.19-4.005-10.447-2.259-10.668-5.862-.068-1.098.662-1.898 1.712-2.478z" fill="#492019"/><path d="m54.245 24.339c-1.077-.251-2.166-.621-3.114-1.039-2.903-1.28-6.44 1.851-6.44 1.851l-.196 5.119-1.92.959-2.51-4.354c-.173-.349-1.123-2.736-1.292-3.802-.641-4.069 3.033-6.169 6.516-7.074-1.05.58-1.78 1.38-1.712 2.479.22 3.602 7.478 1.856 10.668 5.861z" fill="#2c130e"/><path d="m55.34 17.807c.195.16.39.325.585.491-.463-.192-.956-.358-1.449-.454 0 0 .349-.072.864-.037z" fill="#703227"/><path d="m52.333 16.4c-.475-.15-1.028-.282-1.601-.322 0 0 .688-.118 1.6-.023.104.096.236.173.398.224.388.122.746.281 1.084.466l-.074.238s-3.433-.166-7.917.498c0-.001 4.218-1.028 6.51-1.081z" fill="#703227"/><path d="m53.697 18.532s2.116.222 2.018 2.215c0 0-.591-.886-2.018-2.215z" fill="#703227"/><path d="m56.088 16.98c-.921-.079-6.545-.123-12.602 3.881-1.42.591-2.914.911-3.535-.816-.723-2.011 1.884-4.178 3.975-5.533 3.756-1.039 8.911-.604 11.502 1.688.301.266.51.529.66.78z" fill="#d6f1f1"/><path d="m43.486 20.861c-1.787 1.18-3.61 2.713-5.361 4.701-1.182-2.248-2.1-5.721 1.45-8.766 1.28-1.099 2.778-1.853 4.351-2.285-2.091 1.356-4.697 3.523-3.975 5.533.621 1.728 2.115 1.408 3.535.817z" fill="#b2f1f1"/><path d="m59.295 22.08c-.256 1.893-8.938-2.128-12.208.939-3.242 3.041 1.905 15.113-2.236 22.359 0 0-2.67-1.993-3.68-3.576.223-.312.431-.648.617-1.008 1.677-3.22.201-11.471.872-15.428.659-3.897 5.09-5.322 5.676-5.43l-.715.111c2.979-1.105 6.261-1.677 9.017-1.174 0 .002 2.925 1.229 2.657 3.207z" fill="#d6f1f1"/><path d="m48.336 19.938c-.586.107-5.017 1.533-5.676 5.43-.671 3.957.805 12.208-.872 15.428-.187.359-.395.695-.617 1.008l-.121-.204c-.895-1.609-4.069-1.251-4.069-1.251s2.728-9.324 2.102-12.992c-.167-.974.482-2.124 1.662-3.26l1.852-1.486c1.42-.975 3.163-1.872 5.025-2.562z" fill="#b2f1f1"/><path d="m56.774 18.857-.151-.008c-4.776-.278-8.468 1.05-11.22 2.76-3.525 2.193-5.507 5.015-6.245 5.897-.153.184-.254.284-.302.277-.47-.059-.659-.981-.659-.981s0 0-.281-.357c-.282-.357.032-.683.032-.683l.177-.201c1.751-1.988 3.574-3.521 5.361-4.701 6.057-4.004 11.681-3.96 12.602-3.881l.112.014c.751.148.544.834.526 1.041l.054.059c.345.417-.006.764-.006.764z" fill="#2c130e"/></svg>