<svg id="Layer_1" enable-background="new 0 0 100 100" viewBox="0 0 100 100" xmlns="http://www.w3.org/2000/svg" xmlns:xlink="http://www.w3.org/1999/xlink"><linearGradient id="SVGID_1_" gradientTransform="matrix(-.278 -3.705 -3.705 .278 656.543 100.2)" gradientUnits="userSpaceOnUse" x1="27.786" x2="28.786" y1="161.974" y2="161.974"><stop offset="0" stop-color="#e28752"/><stop offset=".0702" stop-color="#e28752"/><stop offset=".8745" stop-color="#b5590e"/><stop offset="1" stop-color="#b5590e"/></linearGradient><path d="m60.131 49.36c-.508.367-.993.609-1.415.65-1.556.155-5.023-3.636-7.225-6.072.085-.308.307-.639.758-.97 1.039-.76 2.058-.196 2.646.295.15.146.301.292.449.44l.006.005.054.051c1.254 1.246 2.397 2.508 2.663 2.813.452.521 1.906 1.789 2.064 2.788z" fill="#fff9bb"/><path d="m60.131 49.36c.143.059.429.828-1.584 1.128-2.226.332-5.043-3.326-6.833-5.424-.17-.256-.351-.663-.223-1.126 2.201 2.437 5.669 6.228 7.225 6.072.422-.04.907-.282 1.415-.65z" fill="#fff482"/><path d="m62.639 41.965s.547-2.151.413-2.513c-.134-.36-1.031-.401-1.113-.259-.083.142-.541 2.081-.541 2.081z" fill="#e28752"/><path d="m61.434 40.491c.384.044.725.135 1.014.239.057 1.547-1.348 7.632-2.766 8.959-.086.081-.104.218-.26.286-.631-.251-1.754-1.35-1.705-1.864 0 0 2.992-5.199 3.717-7.62z" fill="#fff9bb"/><path d="m62.447 40.73c.289.105.526.223.699.322-.079 2.124-1.985 7.456-2.735 8.419-.357.46-.596.66-.989.504.141-.063.178-.215.252-.308 1.327-1.671 2.83-7.39 2.773-8.937z" fill="#fff482"/><g fill="#e28752"><path d="m63.553 39.064s.722-1.526.328-2.008c-.394-.481-2.102-.866-2.549-.236-.446.629-.052 2.759.506 2.816.558.058 1.269.109 1.715-.572z"/><path d="m62.618 38.749s-.364-1.46-1.741-1.089c0 0-.751-1.45-1.311-1.061-.56.391.259.701.577 1.061.318.359.844 1.709 1.456 1.857.613.148 1.002-.527 1.019-.768z"/><path d="m63.891 37.602s.068-.828.265-1.288c.196-.459.55-1.905.085-1.629s-.867 2.248-.86 2.29z"/><path d="m63.343 37.228c.04-.054.195-2.034.254-2.298.059-.263.247-1.162-.124-1.137-.372.026-.402.824-.499 1.34-.076.402-.39 1.844-.39 1.844z"/><path d="m62.657 37.112.113-.421s-.064-1.629-.088-2.108c-.024-.511.118-1.011-.213-.988-.472.031-.432.956-.471 1.407-.035.424-.148 1.869-.148 1.901z"/><path d="m61.972 37.062.089-.288s-.445-2.042-.531-2.411c-.087-.368-.303-.523-.476-.27-.173.255.015.84.118 1.224.102.384.075 1.947.075 1.947z"/></g><path d="m40.268 86.233s-.166-.923.535-1.07 3.248-.332 3.949.83l-.369.812-2.786.019z" fill="#4a91a8"/><path d="m40.268 86.233v.646s2.325.775 4.318.056l.166-.941c0-.001-1.919 1.125-4.484.239z" fill="#4a91a8"/><path d="m44.566 85.437c-.345-.729-.78-2.378-.85-2.645l-.081-1.763-1.829.037s-.134.903-.244 1.846l-.011.001-.022.058c-.172.441-1.211 2.889-1.039 3.348.066.179.254.162.428.098.05.114.145.219.321.272.208.064.347-.045.438-.196.049.111.143.207.312.249.291.073.469-.161.572-.404.091.158.216.305.38.334.249.045.446-.153.562-.476.083.188.222.35.454.335.546-.037.983-.302.609-1.094z" fill="#e28752"/><path d="m40.396 85.643s2.399-1.255 4.227-.129l-.194-.425s-1.707-.969-3.875.194z" fill="#4a91a8"/><path d="m40.674 85.145s2.116-1.255 3.728-.129l-.145-.412s-1.532-.981-3.444.181z" fill="#4a91a8"/><path d="m49.859 78.958s.735 2.603.153 3.766-.49 2.052.337 2.144c.826.092 1.653-.644 3.674-.031s3.199-.229 3.199-.229.337.199.582-.076.275-.888-.49-.811c-.766.076-1.562.199-2.786-.245-1.225-.443-2.066-3.429-2.066-4.286z" fill="#e28752"/><path d="m54.991 83.501.552.194-.219 1.47h-.734z" fill="#57abc6"/><path d="m56.048 83.719v1.469h.574l-.173-1.458z" fill="#57abc6"/><path d="m49.516 84.844 8.036.137-.207.69h-7.577z" fill="#4a91a8"/><path d="m56.04 80.519c-.189.142-.833.557-1.543.797-.397.135-.816.216-1.188.163-.378-.055-.725.029-1.142.15-.596.174-1.333.425-2.496.453-.245.008-.508.003-.791-.014-1.269-.072-2.091.016-2.968.105-.909.095-1.875.191-3.454.116-.293-.013-.581-.034-.862-.058.589-3.59 2.979-8.355 3.814-11.778.984-4.034.193-6.28.193-6.28l-2.396-1.244 12.479-.182z" fill="#fff9bb"/><path d="m45.41 70.454c-.836 3.423-3.226 8.188-3.814 11.778-2.715-.236-4.896-.901-4.896-.901 2.543-5.523 3.726-17.964 3.762-18.353l.001-.009 2.745-.04 2.396 1.244c0 .001.791 2.247-.194 6.281z" fill="#fff482"/><path d="m49.671 82.082c-.245.008-.508.003-.791-.014-1.269-.072-2.091.016-2.968.105.211-2.222.973-9.52 1.786-9.332.792.183 1.684 6.895 1.973 9.241z" fill="#fff482"/><path d="m54.497 81.315c-.397.135-.816.216-1.188.163-.378-.055-.725.029-1.142.15-.105-2.255-.373-9.462.625-8.713.952.715 1.52 6.272 1.705 8.4z" fill="#fff482"/><path d="m55.671 62.218c-.058-1.931-.282-7.821-.567-12.446-.158-2.566-.335-4.741-.514-5.637-.028-.144-.058-.254-.086-.328-.783-2.031-5.999-2.622-5.999-2.622s-2.605-.085-4.677.867c1.022 1.547 2.862 4.969 2.32 8.866-.673 4.846-2.327 9.507-.545 13.256 1.091.149 2.285.239 3.514.216 2.225-.044 4.558-.471 6.569-1.642.001 0-.005-.188-.015-.53z" fill="#fff9bb"/><path d="m46.148 50.918c-.673 4.846-2.327 9.507-.545 13.256-2.952-.398-5.141-1.204-5.141-1.204s.626-6.568.837-12.013c.074-1.941.098-3.741.02-5.048-.035-.608.044-1.139.216-1.601.102-.283.239-.54.402-.774.405-.579.974-1.016 1.606-1.346.093-.049.188-.094.284-.137 1.023 1.548 2.863 4.97 2.321 8.867z" fill="#fff482"/><path d="m46.425 40.252s1.219-.728 4.629.461l-.009.941-1.501.96-1.771-.123z" fill="#6e8044"/><path d="m50.852 41.96c-.435.486-.814 1.126-1.172 1.22-.85-.067-2.421-1.086-3.287-1.608 1.065-2.107.898-4.646.898-4.646l3.179-.046c-.127 1.381.166 3.729.382 5.08z" fill="url(#SVGID_1_)"/><path d="m51.752 41.765s-.905 2.111-3.458 1.366c-.765-.223-1.679-.703-2.761-1.575l.892-1.304s.361.369.89.761c.666.492 1.6 1.02 2.403.881 1.211-.208 1.336-1.181 1.336-1.181z" fill="#bad900"/><path d="m48.294 43.131c-.765-.223-1.679-.703-2.761-1.575l.892-1.304s.361.369.89.761c-.071.541.011 1.411.979 2.118z" fill="#93aa46"/><path d="m48.215 57.71s-3.018.477-5.785.203c4.376-8.915 2-13.847.632-15.679l1.954-.912s4.037 6.496 3.199 16.388z" fill="#a7220a"/><path d="m42.43 57.913c-.678-.066-1.341-.177-1.94-.352l.541-8.119s4.281-1.231 1.771-7.087l.26-.121c1.368 1.832 3.744 6.764-.632 15.679z" fill="#801a08"/><path d="m52.127 41.79-.332.104s2.129 9.27.997 15.471l.345.098 1.058-.897.295-6.828-.886-4.207z" fill="#821a08"/><path d="m52.127 41.79s2.239 10.014 1.01 15.673c0 0 1.427.247 2.805-.295 0 0-.443-8.021-.689-9.596 0 0-1.378-2.608-1.525-5.069z" fill="#a7220a"/><path d="m57.127 33.581c-.519-1.795-.569-4.812-.569-4.812s0 0-.149-3.059c-.148-3.06-3.219-4.3-3.219-4.3s-.081-.167-.345-.224c-1.312-.275-2.591-.393-3.664-.387-1.068.099-2.331.34-3.609.741-.257.081-.321.256-.321.256s-2.935 1.532-2.786 4.593c.149 3.059.149 3.059.149 3.059s.242 3.008-.099 4.845c-.34 1.838.692 4.376 4.386 5.682l.265.085c.861.253 1.979.455 3.003.338 1.03.017 2.058-.29 2.892-.625l.255-.11c3.548-1.66 4.328-4.285 3.811-6.082z" fill="#e28752"/><path d="m42.682 38.516.007.003-.004.002z" fill="#7c0a0a"/><path d="m46.547 26.253c-.399.026-.793.106-1.173.23-.524.172-1.212.346-1.322.079-.18-.431 3.505-2.328 3.995-1.457.466.828-.691 1.095-1.5 1.148z" fill="#0f0706"/><path d="m53.101 25.842c.389-.012.775.029 1.153.117.523.121 1.204.229 1.284-.047.132-.445-3.607-1.984-3.996-1.07-.369.868.771 1.024 1.559 1z" fill="#0f0706"/><path d="m52.365 35.424c.03.46-.188.901-.537 1.202l-.116.095c-.394-.376-.989-.6-1.644-.567-.654.031-1.225.312-1.582.725l-.125-.083c-.377-.266-.637-.684-.65-1.145-.007-.209.037-.405.204-.483.058.522 1.006.896 2.146.841 1.14-.056 2.047-.521 2.055-1.044.172.059.237.252.249.459z" fill="#a3083f"/><path d="m51.712 36.721c-.734.559-1.59.548-1.59.548s-.852.094-1.637-.391c.357-.412.928-.693 1.582-.725.656-.032 1.25.192 1.645.568z" fill="#ff4d66"/><path d="m52.115 34.964c-.008.523-.915.988-2.055 1.044-1.141.056-2.089-.318-2.146-.841.081-.038.191-.049.341-.018.9.19 1.771.148 1.771.148s.869-.043 1.748-.319c.146-.045.256-.046.341-.014z" fill="#fff"/><path d="m43.928 28.819s1.149-1.75 2.57-1.253c1.421.495 1.647 1.931 1.647 1.931s-.765 1.331-2.374 1.071c-1.367-.219-1.843-1.749-1.843-1.749z" fill="#fff"/><path d="m47.461 28.924c.054.811-.463 1.505-1.155 1.552-.691.046-1.296-.574-1.35-1.385-.054-.81.464-1.506 1.156-1.552s1.296.574 1.349 1.385z" fill="#80413c"/><path d="m46.806 28.968c.025.386-.221.717-.551.738-.329.022-.617-.274-.643-.659-.025-.386.221-.717.551-.738.329-.023.617.272.643.659z" fill="#380500"/><path d="m44.415 29.177c.034.389.372.676.755.642.384-.034.666-.377.632-.766-.035-.389-.373-.677-.756-.642-.383.033-.665.377-.631.766z" fill="#fff"/><path d="m43.928 28.819s.962-.972 2.365-.987c1.296-.014 1.853 1.665 1.853 1.665s-.315-2.487-2.068-2.437c-1.869.055-2.15 1.759-2.15 1.759z" fill="#802919"/><path d="m55.615 28.308s-1.343-1.606-2.697-.949c-1.354.656-1.415 2.108-1.415 2.108s.912 1.233 2.482.79c1.332-.376 1.63-1.949 1.63-1.949z" fill="#fff"/><path d="m52.117 28.818c.039.812.633 1.441 1.325 1.407.692-.033 1.222-.719 1.182-1.53-.039-.811-.633-1.442-1.325-1.408-.693.034-1.222.719-1.182 1.531z" fill="#80413c"/><path d="m52.773 28.786c.02.386.302.687.632.67.329-.016.581-.343.562-.729-.019-.387-.302-.687-.632-.671-.328.017-.58.343-.562.73z" fill="#380500"/><path d="m53.061 28.979c.01.358-.269.656-.621.665-.353.01-.646-.274-.656-.632s.269-.656.621-.665c.352-.01.646.273.656.632z" fill="#fff"/><path d="m55.615 28.308s-1.067-.855-2.463-.709c-1.289.136-1.649 1.868-1.649 1.868s.028-2.508 1.775-2.659c1.863-.162 2.337 1.5 2.337 1.5z" fill="#802919"/><path d="m50.088 32.95.067.002c.055-.002.189-.058.201-.16.017-.153-.257-.224-.347-.246-.618-.159-.831.064-.84.073l-.037.041.041.038c.226.205.731.245.915.252z" fill="#802002"/><path d="m52.158 31.509c-.088-.361-.395-.677-.912-.939-.808-.406-.612-1.763-.587-1.916l.009-.055-.222-.036-.016.095c-.204 1.116.03 1.905.659 2.223.416.21.67.455.731.71.041.168-.001.34-.124.511-.297.412-1.03.784-1.038.788l-.247.124.755-.051.032-.011c.295-.13.572-.359.779-.647.184-.253.247-.529.181-.796z" fill="#802002"/><path d="m54.619 24.926c-1.003-.202-3.171-.74-4.116-.889-5.961-.935-7.953 1.612-7.953 1.612l.964 5.385-.96.392-2.062-3.323c-.176-.341-1.167-2.683-1.374-3.739-.788-4.035 2.491-6.298 5.652-7.357-.938.626-1.571 1.458-1.455 2.552.378 3.588 8.173 1.509 11.304 5.367z" fill="#2c130e"/><path d="m57.36 21.467s1.199 4.376-.335 8.294l-1.081.052-.319-7.571z" fill="#2c130e"/><path d="m44.771 17.005h.002c2.307-.771 4.813-.62 6.353-.504l.089.046c.14.059.279.11.42.154l.084.144c.777 1.023 1.854 1.321 2.982 1.529.048.297.234.568.493.768.702.542 1.511 1.166 2.17 1.89.232.418.468.863.675 1.324.018.229.038.46.058.69-.511-.748-1.44-.757-1.44-.757.692.928.751 2.827.751 2.827-.819-1.014-4.593-2.446-4.692-2.485 1.547.995 1.905 2.295 1.905 2.295-3.132-3.857-10.927-1.778-11.305-5.368-.118-1.094.516-1.926 1.455-2.553z" fill="#492019"/><path d="m54.995 18.96c-.525-.23-1.104-.43-1.681-.522 0 0 .608-.165 1.396-.01.042.194.144.376.285.532z" fill="#703227"/><path d="m51.718 16.846c.242.318.515.566.808.764-.486.005-3.451.063-7.191.853 0 0 3.832-1.215 5.939-1.371-.444-.129-.961-.235-1.489-.25 0 0 .85-.199 1.897-.05z" fill="#703227"/><path d="m52.633 19.16s1.958.126 1.965 2.121c0 0-.587-.858-1.965-2.121z" fill="#703227"/><path d="m40.318 14.526s-5.16-1.399-4.566 3.503c.595 4.901-.223 6.445-.223 6.445s2.595-1.321 2.276-3.898c-.317-2.577-.162-6.086 2.434-5.406z"/><path d="m52.649 17.13-9.214 3.116c-.231-.166-.524-.339-.893-.521-2.679-1.328-2.605-3.756-2.15-5.433 5.435-3.01 9.743-1.337 12.257 2.838z" fill="#bf0000"/><path d="m43.436 20.246-4.221 1.737s-3.06-5.912.817-7.545c.119-.05.241-.1.36-.147-.455 1.677-.528 4.104 2.15 5.433.369.183.662.356.894.522z" fill="#910000"/><path d="m59.124 22.451c-.294 1.086-1.237 1.489-1.333.913-.097-.577-1.651-2.792-3.75-2.487-1.541.225-5.103.154-8.089 2.059-1.663-1.255 1.447-1.688 1.583-2.887.143-1.286-3.496.988-4.488-.402-.307-.429-.256-.891-.038-1.324 1.946-1.026 4.198-1.873 5.752-1.998 2.875-.233 6.861-.255 7.491.678.634.932.471 2.094 1.128 2.48.66.384 2.042 1.881 1.744 2.968z" fill="#fff9bb"/><path d="m47.535 20.05c-.136 1.199-3.246 1.632-1.583 2.887-1.511.966-2.876 2.436-3.758 4.707 0 0-.825 2.736-2.201 1.979s-2.786-6.173-.69-8.609c.658-.764 2.045-1.813 3.706-2.689-.218.434-.269.896.038 1.324.992 1.389 4.631-.885 4.488.401z" fill="#f1d48f"/><path d="m42.971 33.623c-.068.14-.154.261-.259.367-.15.151-.315.242-.491.28l-.168.024c-.543.028-1.146-.376-1.606-.92-.813-.963-1.223-2.317-1.044-3.448.152-.962.63-1.361 1.379-1.161l.077.022c.388.125.76.39 1.089.754.523.582.937 1.419 1.125 2.354.144.723.11 1.302-.102 1.728z" fill="#e28752"/><path d="m40.751 29.868s-.659-.201-.467.191c.192.393.818-.072 1.389 1.299 0 0-.531.422-.215 1.19.317.768.959.402.943.303-.017-.101-.654.158-.707-.477-.053-.636.593-.603.634-.688.042-.083-.706-1.719-1.577-1.818z" fill="#b5590e"/><path d="m56.356 33.048c.079.132.175.244.287.34.16.135.33.21.505.23l.167.008c.532-.025 1.083-.487 1.48-1.073.703-1.038.976-2.427.695-3.534-.239-.942-.743-1.293-1.455-1.021l-.074.03c-.366.163-.705.463-.991.857-.456.631-.781 1.504-.877 2.453-.072.734.016 1.307.263 1.71z" fill="#e28752"/><path d="m58.169 29.093s.624-.266.474.145c-.15.41-.806.008-1.233 1.429 0 0 .559.367.321 1.163-.236.795-.898.494-.892.394.006-.102.653.093.644-.544-.008-.638-.634-.541-.683-.621s.528-1.783 1.369-1.966z" fill="#b5590e"/><path d="m43.477 43.787c.559 1.163-.956 7.402-1.172 8.213-.178.666-.416 2.582-1.155 3.271-.589-.216-1.06-.483-1.33-.809-1.268-1.526 1.009-9.157 1.485-11.456l.238-.163c1.105-.59 1.501.045 1.934.944z" fill="#fff9bb"/><path d="m39.819 54.463c.27.325.741.593 1.33.809-.519.482-1.151.497-1.82-.683-1.393-2.451.601-8.24 1.131-10.383.091-.372.48-.9.845-1.199-.477 2.299-2.753 9.93-1.486 11.456z" fill="#fff482"/><path d="m40.038 60.084s.408 2.182.681 2.454c.273.271 1.104-.069 1.12-.232.015-.163-.384-2.116-.384-2.116z" fill="#e28752"/><path d="m41.751 60.915c-.366.122-.715.183-1.021.209-.7-1.38-1.981-7.491-1.253-9.292.045-.11.003-.24.116-.368.678-.037 2.158.487 2.33.975.001-.001-.531 5.975-.172 8.476z" fill="#fff9bb"/><path d="m40.73 61.124c-.307.025-.57.02-.77.002-.82-1.962-1.33-7.602-1.054-8.79.132-.567.264-.849.687-.872-.101.116-.071.269-.1.385-.502 2.075.537 7.895 1.237 9.275z" fill="#fff482"/><path d="m42.476 62.179s.64.574.793.779c.153.204.151.705.175.735l-.431.329z" fill="#b5590e"/><path d="m43.194 63.173c.005.028.093.448.164.86h-.001c-.271.289-.72.251-.829.197-.108-.055-.243.07-.431.2-.188.131-.442-.025-.537-.021-.096.004-.509.271-.709.143-.11-.07-.331-.003-.508.072-.141-.417-.275-.897-.365-1.085-.175-.367.486-1.148.486-1.148.105-.211.996-.515 1.088-.559.091-.043.707.153.836.254.128.101.799 1.034.806 1.087z" fill="#e28752"/><path d="m43.358 64.033c.062.358.109.711.077.793-.068.178-.18.247-.423.309s-.276-.225-.371-.036c-.094.19-.433.239-.516.149l-.153-.087s-.141.211-.362.253c-.222.04-.388-.105-.405-.178-.018-.071-.262.061-.482.102-.108.021-.245-.318-.379-.714.177-.075.397-.143.508-.072.2.127.613-.14.709-.143.095-.004.35.152.537.021.188-.13.322-.255.431-.2.109.054.558.092.829-.197z" fill="#b5590e"/></svg>