<svg id="Flat" height="512" viewBox="0 0 128 128" width="512" xmlns="http://www.w3.org/2000/svg"><path d="m94.81 108.83c2.15 2.39 3.54 7.17.67 9.1-4.67 3.12-9.92 2.12-12.05-1.51a47.128 47.128 0 0 1 -2.65-7c-1.71-5.71-1.22-12.64-2.35-16.71a74.057 74.057 0 0 0 -3.14-7.81c4.96-5.53 13.52-9.51 16.11-8.22l.02-.01c2.04 5.15 3.47 9.81 3.61 12.19.16 2.86-.87 10.19-1.88 14.97a5.373 5.373 0 0 0 1.66 5z" fill="#c9e0f4"/><path d="m73.94 113.49c.67 2.26.23 4.68-.13 7-.49 3.2-3.21 6.37-9.44 4.87-3.5-.85-3.57-4.63-3.16-7.19a7.347 7.347 0 0 0 -1.23-5.3 91.972 91.972 0 0 1 -7.56-12.77c-1.01-2.32-1.73-8.86-2.1-15.77 6.22-2.54 10.33-1.06 18.33 2.69a51.865 51.865 0 0 0 -.46 8.19c.44 4.43 4.29 13.33 5.75 18.28z" fill="#c9e0f4"/><path d="m29.34 67.34c.24 2.2-.47 7.16-2.05 7.88a2.24 2.24 0 0 1 -2.51-.46c-.37-.58-.62-.98-1.21-.63-1.2.72-4.33 1.47-5.93.58-3.54-1.96-2.2-7.59 2.43-11.68z" fill="#dceaf9"/><path d="m86.23 65.25c-1.58-3.02-3.36-13.54-5.5-23.34-1.62-7.39-3.43-14.37-5.52-17.45v-.01c-.75-.09-1.52-.15-2.32-.17a26.061 26.061 0 0 0 -3.38.13 16.233 16.233 0 0 1 -24.67 7.2 30.333 30.333 0 0 0 -2.83 1.79c-.29.2-.59.42-.89.64 0 4.67 1.3 10.94 2.87 17.01 2.6 10.07 6.06 19.71 6.04 21.13-.04 3.61.06 7.95.29 12.15 6.22-2.54 10.33-1.06 18.33 2.69.31-2.88.66-5.32.66-5.32a2.3 2.3 0 0 1 4.16-.77s.83 1.75 1.82 3.97c4.96-5.53 13.52-9.51 16.11-8.22l.02-.01a123.38 123.38 0 0 0 -5.19-11.42z" fill="#dceaf9"/><path d="m41.12 34.04a70.2 70.2 0 0 0 -9.04 8.23c-7.46 7.97-13.64 17.47-12.01 20.76l9.27 4.31c4.36-.11 8.79-9.79 14.65-16.29-1.57-6.07-2.87-12.34-2.87-17.01z" fill="#c9e0f4"/><path d="m106.22 43.82c4.8.78 9.85 3.86 7.88 8.07-.7 1.48-5.44 2.64-5.78 3.05-.39.47-.34 2-.72 2.48a3.074 3.074 0 0 1 -3.54.23 11.954 11.954 0 0 1 -3.47-5.34z" fill="#dceaf9"/><path d="m106.22 43.82-5.63 8.49c-2.9 1.15-7.92-3.08-19.68-10.44l-.18.04c-1.62-7.39-3.43-14.37-5.52-17.45l1.53.23a13.856 13.856 0 0 1 2.54.61 48.107 48.107 0 0 1 8.6 4.14c1.79 1.05 3.12 1.92 3.52 2.17 6.96 4.41 16.07 9.08 14.82 12.21z" fill="#c9e0f4"/><path d="m118.1 27.256c0 1.841-1.958 2.911-3.8 2.911a3.334 3.334 0 0 1 -3.334-3.334 4.045 4.045 0 0 1 3.69-3.764c1.844 0 3.444 2.346 3.444 4.187z" fill="#59c9bc"/><path d="m119.1 92.852c0 2.613-2.779 4.131-5.393 4.131a4.732 4.732 0 0 1 -4.732-4.732 5.741 5.741 0 0 1 5.238-5.342c2.61 0 4.887 3.33 4.887 5.943z" fill="#5f77ed"/><path d="m24.784 14.338c0 1.825-1.94 2.885-3.765 2.885a3.3 3.3 0 0 1 -3.3-3.3 4.009 4.009 0 0 1 3.657-3.731c1.824-.004 3.408 2.321 3.408 4.146z" fill="#5c99f2"/><path d="m27.548 30.1c0 1.352-1.437 2.137-2.789 2.137a2.447 2.447 0 0 1 -2.447-2.447 2.969 2.969 0 0 1 2.708-2.763c1.352.002 2.528 1.724 2.528 3.073z" fill="#ff9545"/><path d="m10.7 42.837c0 1.352-1.438 2.137-2.789 2.137a2.448 2.448 0 0 1 -2.448-2.447 2.971 2.971 0 0 1 2.709-2.764c1.354 0 2.528 1.723 2.528 3.074z" fill="#ff6f64"/><path d="m39.166 110.632c0 1.351-1.437 2.136-2.789 2.136a2.446 2.446 0 0 1 -2.447-2.447 2.969 2.969 0 0 1 2.709-2.763c1.351 0 2.527 1.722 2.527 3.074z" fill="#ff4a71"/><path d="m15.721 92.406.848 1.55a.739.739 0 0 0 .292.292l1.549.847a.734.734 0 0 1 0 1.288l-1.549.847a.739.739 0 0 0 -.292.292l-.848 1.55a.733.733 0 0 1 -1.287 0l-.848-1.55a.736.736 0 0 0 -.291-.292l-1.55-.847a.734.734 0 0 1 0-1.288l1.55-.847a.736.736 0 0 0 .291-.292l.848-1.55a.733.733 0 0 1 1.287 0z" fill="#ffd07d"/><path d="m94.9 13.024.889 1.626a.776.776 0 0 0 .306.306l1.626.889a.77.77 0 0 1 0 1.351l-1.626.889a.77.77 0 0 0 -.306.306l-.889 1.625a.77.77 0 0 1 -1.351 0l-.889-1.625a.758.758 0 0 0 -.306-.306l-1.63-.885a.77.77 0 0 1 0-1.351l1.625-.889a.764.764 0 0 0 .306-.306l.889-1.626a.771.771 0 0 1 1.356-.004z" fill="#ffd07d"/><path d="m72.89 24.28a19.374 19.374 0 0 1 -30.88 9.12 30.333 30.333 0 0 1 2.83-1.79 16.233 16.233 0 0 0 24.67-7.2 26.061 26.061 0 0 1 3.38-.13z" fill="#a3bfe2"/><circle cx="54.394" cy="18.492" fill="#dceaf9" r="16.23"/><ellipse cx="54.378" cy="18.434" fill="#4c4466" rx="16.23" ry="11.458" transform="matrix(.963 -.27 .27 .963 -2.957 15.351)"/><rect fill="#fff" height="13.515" rx="3.862" transform="matrix(.963 -.27 .27 .963 -10.37 18.57)" width="15.808" x="54.481" y="40.262"/><path d="m87.88 29.44c-4.15 4.8-7.81-1.29-8.61-4.13l.01-.01a48.107 48.107 0 0 1 8.6 4.14z" fill="#5c99f2"/><g fill="#ff6f64"><path d="m68.647 88.519a1.5 1.5 0 0 1 -1.139-.519c-3.779-4.4-11.223-4.478-16.622-2.274a1.5 1.5 0 0 1 -1.133-2.778c6.2-2.527 15.108-2.639 20.032 3.1a1.5 1.5 0 0 1 -1.138 2.477z"/><path d="m75.286 86.4a1.5 1.5 0 0 1 -1.336-2.18c3.345-6.568 14.44-10.71 18.121-8.882a1.5 1.5 0 1 1 -1.334 2.687c-1.69-.838-11.276 1.984-14.113 7.556a1.5 1.5 0 0 1 -1.338.819z"/></g></svg>