<svg height="511pt" viewBox="1 -49 511.99948 511" width="511pt" xmlns="http://www.w3.org/2000/svg"><path d="m276.195312 116.636719c3.507813-61.546875-29.789062-113.5-74.371093-116.042969-44.582031-2.539062-83.5625 45.292969-87.070313 106.839844-3.507812 61.546875 29.789063 113.5 74.367188 116.042968 44.582031 2.539063 83.566406-45.292968 87.074218-106.839843zm0 0" fill="#8ed7e8"/><path d="m232.636719 11.070312c-14.699219 9.554688-33.121094 24.917969-45.25 47.148438-8.496094 15.566406-24.5 25.519531-42.203125 26.570312-8.421875.496094-18.054688 1.757813-28.3125 4.441407-1.050782 5.902343-1.765625 11.976562-2.121094 18.199219-3.503906 61.546874 29.792969 113.496093 74.371094 116.039062 44.582031 2.539062 83.566406-45.296875 87.070312-106.839844 2.632813-46.21875-15.484375-87.023437-43.554687-105.558594zm0 0" fill="#7ac1dd"/><path d="m350.453125 166.714844c41.703125-45.394532 48.851563-106.683594 15.96875-136.890625-32.882813-30.210938-93.34375-17.898438-135.046875 27.5-41.703125 45.394531-48.855469 106.683593-15.972656 136.890625 32.882812 30.207031 93.347656 17.894531 135.050781-27.5zm0 0" fill="#abebf4"/><path d="m406.742188 205.300781v102.785157l93.949218-37.230469c15.078125-5.976563 15.078125-22.347657 0-28.324219zm0 0" fill="#73727c"/><path d="m459.371094 256.695312c0 86.890626-70.441406 157.332032-157.332032 157.332032-86.894531 0-157.335937-70.441406-157.335937-157.332032 0-86.894531 70.441406-157.335937 157.335937-157.335937 86.890626 0 157.332032 70.441406 157.332032 157.335937zm0 0" fill="#ffcd00"/><path d="m348.84375 406.949219c-29.085938-23.667969-54.484375-62.019531-46.804688-122.523438 12.308594-96.992187-33.394531-152.871093-56.699218-174.542969-58.878906 22.753907-100.636719 79.902344-100.636719 146.808594 0 86.894532 70.441406 157.335938 157.335937 157.335938 16.296876 0 32.019532-2.480469 46.804688-7.078125zm0 0" fill="#ffb000"/><path d="m357.847656 109.546875c-17.347656-6.585937-36.152344-10.1875-55.808594-10.1875-5.519531 0-10.972656.285156-16.34375.839844 33.617188 44.96875 51.800782 99.335937 51.800782 156.496093 0 57.15625-18.183594 111.519532-51.800782 156.492188 5.371094.554688 10.824219.839844 16.34375.839844 19.65625 0 38.457032-3.597656 55.808594-10.183594 23.449219-44.882812 35.902344-95.0625 35.902344-147.148438 0-52.085937-12.453125-102.269531-35.902344-147.148437zm0 0" fill="#898890"/><path d="m272.84375 256.695312c0 70.769532-57.371094 128.136719-128.140625 128.136719s-128.140625-57.367187-128.140625-128.136719c0-70.769531 57.371094-128.140624 128.140625-128.140624s128.140625 57.371093 128.140625 128.140624zm0 0" fill="#ffde55"/><path d="m80.277344 209.882812c-6.757813 6.757813-17.71875 6.757813-24.480469 0l-43.667969-43.667968 24.484375-24.484375 43.664063 43.667969c6.761718 6.761718 6.761718 17.722656 0 24.484374zm0 0" fill="#73727c"/><path d="m56.921875 158.0625c0 15.722656-12.742187 28.464844-28.460937 28.464844s-28.460938-12.742188-28.460938-28.464844c0-15.71875 12.742188-28.460938 28.460938-28.460938s28.460937 12.742188 28.460937 28.460938zm0 0" fill="#898890"/><path d="m209.128906 209.882812c6.761719 6.757813 17.722656 6.757813 24.480469 0l43.667969-43.667968-24.484375-24.484375-43.664063 43.667969c-6.761718 6.761718-6.761718 17.722656 0 24.484374zm0 0" fill="#73727c"/><path d="m289.40625 158.0625c0 15.722656-12.742188 28.464844-28.460938 28.464844s-28.464843-12.742188-28.464843-28.464844c0-15.71875 12.746093-28.460938 28.464843-28.460938s28.460938 12.742188 28.460938 28.460938zm0 0" fill="#898890"/><path d="m87.203125 284.425781c0-9.351562-9.523437-16.933593-21.265625-16.933593s-21.265625 7.582031-21.265625 16.933593c0 9.351563 9.523437 16.933594 21.265625 16.933594s21.265625-7.582031 21.265625-16.933594zm0 0" fill="#ffa6bb"/><path d="m244.730469 284.425781c0-9.351562-9.519531-16.933593-21.261719-16.933593-11.746094 0-21.265625 7.582031-21.265625 16.933593 0 9.351563 9.519531 16.933594 21.265625 16.933594 11.742188 0 21.261719-7.582031 21.261719-16.933594zm0 0" fill="#ffa6bb"/><g fill="#57565c"><path d="m208.375 275.53125c-4.269531 0-7.726562-3.460938-7.726562-7.726562v-12.828126c0-4.265624 3.457031-7.726562 7.726562-7.726562s7.726562 3.460938 7.726562 7.726562v12.828126c0 4.265624-3.457031 7.726562-7.726562 7.726562zm0 0"/><path d="m81.03125 275.53125c-4.269531 0-7.726562-3.460938-7.726562-7.726562v-12.828126c0-4.265624 3.457031-7.726562 7.726562-7.726562s7.726562 3.460938 7.726562 7.726562v12.828126c0 4.265624-3.457031 7.726562-7.726562 7.726562zm0 0"/><path d="m149.980469 260.085938c-1.730469 2.542968-4.253907 2.847656-5.277344 2.847656s-3.589844-.277344-5.277344-2.847656c-2.34375-3.566407-7.136719-4.558594-10.699219-2.214844-3.566406 2.34375-4.558593 7.132812-2.21875 10.699218 4.039063 6.148438 10.839844 9.816407 18.195313 9.816407s14.152344-3.667969 18.191406-9.816407c2.34375-3.566406 1.351563-8.355468-2.214843-10.699218-1.308594-.859375-7.089844-3.085938-10.699219 2.214844zm0 0"/></g><path d="m348.84375 406.949219c-13.207031-10.75-25.660156-24.523438-34.589844-42.027344-7.710937 16.992187-17.257812 33.144531-28.558594 48.265625 5.371094.554688 10.824219.839844 16.34375.839844 16.296876 0 32.023438-2.476563 46.804688-7.078125zm0 0" fill="#73727c"/></svg>