<svg id="Capa_1" enable-background="new 0 0 512 512" height="512" viewBox="0 0 512 512" width="512" xmlns="http://www.w3.org/2000/svg"><g><path d="m113.914 92.597c12.794 23.886 30.755 29.755 44.957 22.148s19.268-25.811 6.474-49.697-47.171-39.819-52.806-36.801-11.42 40.464 1.375 64.35z" fill="#97da7b"/><path d="m165.345 65.048c-12.794-23.886-47.171-39.819-52.806-36.801-1.988 1.065-3.991 6.426-5.194 13.955 11.721 6.496 25.28 17.217 32.316 30.352 10.428 19.468 8.989 35.16.411 44.418 6.488 1.743 12.962.899 18.8-2.228 14.201-7.607 19.267-25.81 6.473-49.696z" fill="#80d261"/><path d="m143.719 70.171c-2.585-3.226-7.287-3.748-10.523-1.172-3.234 2.577-3.768 7.292-1.198 10.533.27.339 26.778 34.424 14.485 75.164-1.196 3.965 1.049 8.149 5.015 9.347.722.218 1.451.321 2.169.321 3.221 0 6.199-2.093 7.178-5.336 14.614-48.439-15.824-87.229-17.126-88.857z" fill="#ac5e2e"/><path d="m398.567 49.079c-27.079.978-40.253 14.523-39.672 30.624.582 16.101 14.699 28.66 41.778 27.682s56.514-24.836 56.283-31.224-31.31-28.06-58.389-27.082z" fill="#97da7b"/><path d="m403.196 49.133c15.249 6.663 26.939 16.283 27.081 20.19.231 6.388-29.204 30.246-56.283 31.224-1.09.039-2.152.049-3.2.045 6.958 4.628 16.933 7.26 29.879 6.793 27.079-.978 56.514-24.836 56.283-31.224-.218-6.027-27.891-25.648-53.76-27.028z" fill="#80d261"/><path d="m411.321 77.012c-.761-4.066-4.676-6.743-8.746-5.993-.376.069-38.073 6.744-66.73-14.545-3.324-2.47-8.023-1.777-10.493 1.548s-1.777 8.023 1.548 10.493c20.877 15.51 44.981 18.608 60.915 18.608 10.043 0 16.841-1.231 17.536-1.363 4.064-.769 6.731-4.683 5.97-8.748z" fill="#ac5e2e"/><path d="m4.508 313.4c22.046-10.833 128.373-69.74 393.576-308.914 1.75-1.578.636-4.486-1.721-4.486h-10.622c-6.439 0-12.747 1.767-18.247 5.115-42.908 26.113-198.106 152.538-365.443 213.835-1.232.451-2.051 1.62-2.051 2.932v88.701c0 2.32 2.427 3.84 4.508 2.817z" fill="#d77f4a"/><path d="m396.363 0h-10.622c-6.439 0-12.747 1.767-18.247 5.115-1.038.631-2.161 1.339-3.328 2.086-206.598 186.1-316.071 262.113-364.166 291.384v11.998c0 2.32 2.427 3.84 4.508 2.817 22.046-10.833 128.373-69.74 393.576-308.914 1.75-1.578.636-4.486-1.721-4.486z" fill="#c86d36"/><path d="m481.505 481.874c-10.522 10.522-27.581 10.522-38.103 0l-15.733-15.733c-10.522-10.522-10.522-27.581 0-38.103 10.522-10.522 27.581-10.522 38.103 0l15.733 15.733c10.522 10.522 10.522 27.581 0 38.103z" fill="#ffc344"/><path d="m436.15 474.622 7.252 7.252c10.522 10.522 27.581 10.522 38.103 0 10.522-10.522 10.522-27.581 0-38.103l-7.252-7.252z" fill="#9b5e5e"/><g><path d="m376.838 498.075c-7.192-13.027-2.463-29.417 10.564-36.61l14.847-8.197c13.027-7.192 29.417-2.463 36.61 10.564 7.192 13.027 2.463 29.417-10.564 36.61l-14.847 8.197c-13.027 7.192-29.417 2.462-36.61-10.564z" fill="#fff9df"/><path d="m438.859 463.832c-7.192-13.027-23.583-17.756-36.61-10.564l-2.569 1.419c3.326 2.294 6.188 5.368 8.274 9.145 7.192 13.027 2.463 29.418-10.564 36.61l-12.277 6.778c8.145 5.616 19.087 6.526 28.336 1.419l14.847-8.197c13.025-7.193 17.755-23.584 10.563-36.61z" fill="#fff6ce"/><path d="m498.075 376.838c-13.027-7.192-29.417-2.463-36.61 10.564l-8.197 14.847c-7.192 13.027-2.463 29.417 10.564 36.61 13.027 7.192 29.417 2.463 36.61-10.564l8.197-14.847c7.192-13.027 2.462-29.417-10.564-36.61z" fill="#fff9df"/><path d="m498.075 376.838c-9.303-5.136-20.319-4.189-28.478 1.514 11.16 7.792 14.862 22.914 8.136 35.096l-8.197 14.847c-2.056 3.724-4.866 6.767-8.132 9.05.774.54 1.583 1.048 2.428 1.514 13.027 7.192 29.417 2.463 36.61-10.564l8.197-14.847c7.192-13.027 2.462-29.417-10.564-36.61z" fill="#fff6ce"/></g><path d="m271.993 104.764c-2.751-3.097-7.491-3.377-10.588-.629-3.098 2.751-3.379 7.491-.629 10.588.163.185 16.211 18.66 6.102 42.2-1.634 3.806.126 8.216 3.933 9.851.965.414 1.968.61 2.955.61 2.908 0 5.676-1.701 6.896-4.543 13.825-32.196-7.744-57.036-8.669-58.077z" fill="#ac5e2e"/><path d="m346.465 209.609h-151.668c-13.732 0-24.863-11.132-24.863-24.864 0-13.732 11.132-24.863 24.863-24.863h151.668c13.732 0 24.863 11.132 24.863 24.863 0 13.733-11.131 24.864-24.863 24.864z" fill="#ffc344"/><path d="m346.465 159.882h-30.905c13.732 0 24.863 11.132 24.863 24.863 0 13.732-11.132 24.863-24.863 24.863h30.905c13.732 0 24.863-11.132 24.863-24.863.001-13.731-11.131-24.863-24.863-24.863z" fill="#feb237"/><path d="m346.465 408.517h-151.668c-13.732 0-24.863-11.132-24.863-24.863 0-13.732 11.132-24.863 24.863-24.863h151.668c13.732 0 24.863 11.132 24.863 24.863 0 13.732-11.131 24.863-24.863 24.863z" fill="#ffc344"/><path d="m346.465 358.79h-30.905c13.732 0 24.863 11.132 24.863 24.863 0 13.732-11.132 24.864-24.863 24.864h30.905c13.732 0 24.863-11.132 24.863-24.864.001-13.731-11.131-24.863-24.863-24.863z" fill="#feb237"/><path d="m365.113 259.336h-188.963c-13.732 0-24.863-11.132-24.863-24.863 0-13.732 11.132-24.863 24.863-24.863h188.963c13.732 0 24.863 11.132 24.863 24.863 0 13.732-11.132 24.863-24.863 24.863z" fill="#ffd15b"/><path d="m365.112 209.609h-30.905c13.732 0 24.864 11.132 24.864 24.863 0 13.732-11.132 24.864-24.864 24.864h30.905c13.732 0 24.864-11.132 24.864-24.864 0-13.731-11.132-24.863-24.864-24.863z" fill="#ffc344"/><path d="m365.113 358.79h-188.963c-13.732 0-24.863-11.132-24.863-24.863 0-13.732 11.132-24.863 24.863-24.863h188.963c13.732 0 24.863 11.132 24.863 24.863 0 13.732-11.132 24.863-24.863 24.863z" fill="#ffd15b"/><path d="m365.112 309.063h-30.905c13.732 0 24.864 11.132 24.864 24.864s-11.132 24.863-24.864 24.863h30.905c13.732 0 24.864-11.132 24.864-24.863 0-13.732-11.132-24.864-24.864-24.864z" fill="#ffc344"/><path d="m382.517 309.063h-223.772c-13.732 0-24.863-11.132-24.863-24.863 0-13.732 11.132-24.863 24.863-24.863h223.772c13.732 0 24.863 11.132 24.863 24.863.001 13.732-11.131 24.863-24.863 24.863z" fill="#ffc344"/><path d="m382.517 259.336h-30.905c13.732 0 24.864 11.132 24.864 24.863 0 13.732-11.132 24.863-24.864 24.863h30.905c13.732 0 24.864-11.132 24.864-24.863s-11.132-24.863-24.864-24.863z" fill="#feb237"/><circle cx="285.875" cy="307.509" fill="#ac5e2e" r="59.75"/></g></svg>