<svg height="463pt" viewBox="0 0 463 463.92047" width="463pt" xmlns="http://www.w3.org/2000/svg"><g fill="#ffa91f"><path d="m138.589844 114.578125-49.4375-18.761719c-2.246094-.851562-4.753906-.652344-6.835938.546875-2.082031 1.199219-3.511718 3.269531-3.902344 5.636719 0 0-5.597656 34.402344-8.480468 52.234375-.484375 3.042969.824218 6.097656 3.363281 7.847656 2.542969 1.75 5.863281 1.882813 8.535156.34375l57.917969-33.441406c2.671875-1.546875 4.214844-4.488281 3.96875-7.566406-.25-3.074219-2.242188-5.734375-5.128906-6.832031zm0 0"/><path d="m162.796875 243.761719c-2.859375 0-5.503906-1.523438-6.933594-4l-8-13.847657c-1.453125-2.476562-1.464843-5.542968-.035156-8.03125 1.429687-2.488281 4.082031-4.023437 6.953125-4.015624 2.871094.003906 5.519531 1.550781 6.9375 4.046874l8 13.847657c1.429688 2.472656 1.429688 5.519531.003906 7.996093-1.429687 2.472657-4.066406 4-6.925781 4.003907zm0 0"/><path d="m133.238281 88.585938-16.878906-29.242188c-8.515625-14.972656-24.398437-24.238281-41.621094-24.273438-17.226562-.039062-33.148437 9.15625-41.730469 24.089844-8.578124 14.9375-8.496093 33.324219.214844 48.183594l16.878906 29.242188c1.246094 2.148437 3.417969 3.601562 5.882813 3.925781.34375.046875.695313.074219 1.046875.074219 2.121094 0 4.15625-.84375 5.65625-2.34375l27.765625-27.777344 37.929687-10.152344c2.402344-.644531 4.367188-2.367188 5.320313-4.667969.949219-2.296875.78125-4.90625-.464844-7.058593zm0 0"/></g><path d="m163.460938 144.28125c-3.148438-7.710938-6.820313-15.195312-11-22.402344l-.039063-.070312c-.917969-1.65625-2.394531-2.929688-4.167969-3.601563l-9.679687-3.648437c-2.242188-.839844-4.746094-.636719-6.824219.554687l-57.917969 33.4375c-2.066406 1.195313-3.492187 3.25-3.890625 5.601563l-1.679687 10.25c-.292969 1.851562.0625 3.75 1 5.375 4.167969 7.21875 8.789062 14.167968 13.839843 20.800781 2.441407 3.222656 6.90625 4.117187 10.402344 2.085937l66.574219-38.398437c3.472656-2.011719 4.917969-6.28125 3.382813-9.984375zm0 0" fill="#57555c"/><path d="m172.320312 178.648438c-.261718-2.71875-1.890624-5.113282-4.320312-6.359376-2.429688-1.242187-5.324219-1.160156-7.679688.214844l-51.203124 29.601563c-2.351563 1.359375-3.851563 3.816406-3.984376 6.53125-.136718 2.710937 1.117188 5.308593 3.320313 6.890625 12.3125 9.265625 27.257813 14.355468 42.664063 14.527344 1.371093 0 2.738281-.039063 4.113281-.125 2.507812-.148438 4.800781-1.46875 6.191406-3.5625 9.148437-14.121094 13.007813-31.023438 10.898437-47.71875zm0 0" fill="#57555c"/><path d="m163.453125 144.265625c-.871094-2.140625-2.628906-3.796875-4.816406-4.546875-2.183594-.75-4.589844-.515625-6.589844.640625l-66.574219 38.402344c-2.015625 1.160156-3.425781 3.136719-3.867187 5.417969-.4375 2.285156.136719 4.644531 1.578125 6.46875 7.21875 9.429687 15.746094 17.78125 25.328125 24.800781 2.539062 1.839843 5.921875 2.023437 8.648437.472656l51.199219-29.5625c2.71875-1.550781 4.285156-4.550781 4-7.671875-1.265625-11.847656-4.265625-23.445312-8.90625-34.421875zm0 0" fill="#ffa91f"/><path d="m42.382812 67.839844c-2.484374.003906-4.828124-1.152344-6.34375-3.121094-6.582031-7.390625-16.558593-10.792969-26.289062-8.964844-4.238281.691406-8.269531-2.085937-9.128906-6.296875-.859375-4.207031 1.757812-8.34375 5.929687-9.367187 15.71875-3.035156 31.847657 2.65625 42.183594 14.878906 1.855469 2.414062 2.175781 5.671875.832031 8.40625-1.34375 2.730469-4.121094 4.460938-7.167968 4.464844zm0 0" fill="#57555c"/><path d="m70.65625 51.519531c-3.242188.003907-6.164062-1.949219-7.402344-4.941406-5.421875-15.070313-2.289062-31.898437 8.199219-44 2.957031-3.207031 7.9375-3.453125 11.195313-.558594 3.261718 2.894531 3.601562 7.867188.765624 11.179688-6.441406 7.496093-8.480468 17.820312-5.375 27.203125 1.019532 2.464844.742188 5.277344-.742187 7.496094-1.480469 2.222656-3.972656 3.554687-6.640625 3.558593zm0 0" fill="#57555c"/><path d="m193.933594 97.703125c-13.046875-22.597656-28.800782-23.863281-39.71875-20.917969l-69.976563 18.785156c-.230469.085938-.457031.1875-.679687.300782-.425782.148437-.839844.335937-1.230469.554687-.363281.21875-.707031.464844-1.023437.742188-.210938.175781-.457032.28125-.648438.472656l-51.265625 51.199219c-8 8-14.785156 22.25-1.734375 44.847656 4.21875 7.355469 12.128906 11.8125 20.605469 11.609375 1.234375-.003906 2.464843-.082031 3.6875-.242187 14.125-2.019532 25.824219-11.980469 30.074219-25.597657.070312-.273437.136718-.550781.183593-.800781l1.878907-11.617188c.046874-.277343.074218-.558593.089843-.839843l1.574219-9.480469c1.898438-11.847656 5.015625-31.007812 6.898438-42.511719l49.191406 18.648438c.257812.136719.523437.257812.800781.359375l11 4.175781c.261719.097656.535156.195313.796875.265625 2.613281.671875 5.304688 1.007812 8 1 11.394531-.082031 22.136719-5.328125 29.210938-14.265625 6.234374-7.554687 7.148437-18.179687 2.285156-26.6875zm0 0" fill="#84caff"/><path d="m325.75 334.738281 49.449219-18.761719c2.242187-.851562 4.746093-.648437 6.824219.546876 2.082031 1.195312 3.511718 3.261718 3.902343 5.628906 0 0 5.601563 34.398437 8.480469 52.238281.484375 3.046875-.828125 6.097656-3.367188 7.84375-2.539062 1.75-5.855468 1.882813-8.527343.34375l-57.921875-33.441406c-2.671875-1.546875-4.214844-4.492188-3.964844-7.566407.246094-3.078124 2.242188-5.734374 5.125-6.832031zm0 0" fill="#ffa91f"/><path d="m301.503906 463.921875c2.859375 0 5.503906-1.523437 6.933594-4l8-13.847656c1.453125-2.476563 1.464844-5.542969.035156-8.03125-1.429687-2.492188-4.082031-4.023438-6.953125-4.015625-2.871093.003906-5.519531 1.550781-6.9375 4.046875l-8 13.847656c-1.425781 2.472656-1.429687 5.519531 0 7.996094 1.425781 2.472656 4.0625 4 6.921875 4.003906zm0 0" fill="#ffa91f"/><path d="m331.0625 308.71875 16.878906-29.246094c8.515625-14.972656 24.398438-24.238281 41.621094-24.277344 17.226562-.035156 33.152344 9.15625 41.730469 24.09375s8.496093 33.324219-.214844 48.183594l-16.878906 29.246094c-1.242188 2.152344-3.417969 3.605469-5.878907 3.929688-.347656.046874-.699218.070312-1.050781.070312-2.121093 0-4.15625-.84375-5.65625-2.34375l-27.765625-27.773438-37.929687-10.160156c-2.398438-.644531-4.363281-2.367187-5.3125-4.664062-.953125-2.296875-.785157-4.902344.457031-7.058594zm0 0" fill="#ffa91f"/><path d="m300.839844 364.433594c3.148437-7.710938 6.824218-15.195313 11-22.402344l.039062-.070312c.917969-1.65625 2.394532-2.929688 4.167969-3.601563l9.679687-3.648437c2.242188-.847657 4.746094-.644532 6.824219.554687l57.921875 33.4375c2.0625 1.195313 3.488282 3.25 3.886719 5.601563l1.679687 10.238281c.292969 1.859375-.058593 3.757812-1 5.386719-4.171874 7.214843-8.792968 14.164062-13.839843 20.796874-2.445313 3.222657-6.90625 4.117188-10.402344 2.082032l-66.574219-38.398438c-3.46875-2.011718-4.914062-6.273437-3.382812-9.976562zm0 0" fill="#57555c"/><path d="m291.984375 398.800781c.265625-2.703125 1.890625-5.085937 4.308594-6.324219 2.414062-1.242187 5.296875-1.171874 7.648437.1875l51.203125 29.558594c2.351563 1.359375 3.855469 3.820313 3.992188 6.535156.132812 2.71875-1.121094 5.316407-3.328125 6.898438-12.3125 9.265625-27.261719 14.351562-42.664063 14.519531-1.371093 0-2.738281 0-4.113281-.121093-2.511719-.148438-4.804688-1.46875-6.191406-3.566407-9.128906-14.121093-12.972656-31.007812-10.855469-47.6875zm0 0" fill="#57555c"/><path d="m300.847656 364.425781c.871094-2.140625 2.625-3.800781 4.8125-4.550781s4.59375-.519531 6.59375.636719l66.578125 38.441406c2.011719 1.160156 3.417969 3.136719 3.859375 5.417969.4375 2.277344-.136718 4.636718-1.574218 6.460937-7.214844 9.441407-15.746094 17.808594-25.328126 24.839844-2.554687 1.808594-5.929687 1.972656-8.644531.417969l-51.203125-29.601563c-2.703125-1.5625-4.25-4.5625-3.957031-7.671875 1.253906-11.835937 4.242187-23.421875 8.863281-34.390625zm0 0" fill="#ffa91f"/><path d="m421.917969 288c2.488281 0 4.832031-1.15625 6.34375-3.128906 6.585937-7.386719 16.5625-10.785156 26.289062-8.949219 2.832031.648437 5.789063-.289063 7.734375-2.445313 1.941406-2.160156 2.5625-5.199218 1.621094-7.949218-.941406-2.746094-3.296875-4.765625-6.15625-5.277344-15.714844-3.023438-31.839844 2.664062-42.183594 14.878906-1.859375 2.414063-2.183594 5.675782-.839844 8.410156 1.347657 2.734376 4.128907 4.46875 7.175782 4.46875zm0 0" fill="#57555c"/><path d="m393.65625 271.679688c3.234375 0 6.152344-1.953126 7.390625-4.941407 5.417969-15.074219 2.28125-31.894531-8.199219-44-2.9375-3.316406-8.003906-3.621093-11.316406-.6875-3.3125 2.9375-3.621094 8.003907-.683594 11.316407 6.445313 7.492187 8.488282 17.820312 5.375 27.203124-1.6875 4.082032.253906 8.757813 4.335938 10.445313.976562.421875 2.03125.648437 3.097656.664063zm0 0" fill="#57555c"/><path d="m270.367188 317.855469c13.046874-22.589844 28.800781-23.855469 39.71875-20.910157l69.976562 18.78125c.234375.089844.460938.191407.679688.304688.425781.148438.839843.332031 1.234374.554688.359376.214843.703126.464843 1.023438.742187.222656.144531.4375.296875.648438.464844l51.261718 51.199219c8 8 14.785156 22.25 1.746094 44.800781-4.222656 7.355469-12.136719 11.8125-20.617188 11.609375-1.234374 0-2.464843-.078125-3.6875-.242188-14.113281-2.011718-25.8125-11.957031-30.074218-25.558594-.070313-.273437-.132813-.5625-.183594-.839843l-1.878906-11.617188c-.042969-.265625-.074219-.53125-.089844-.800781l-1.574219-9.4375c-1.894531-11.851562-5.015625-31-6.894531-42.503906l-49.195312 18.644531c-.257813.136719-.527344.253906-.796876.363281l-11 4.167969c-.261718.101563-.53125.191406-.800781.261719-2.613281.671875-5.300781 1.007812-8 1-11.394531-.082032-22.136719-5.328125-29.207031-14.261719-6.253906-7.5625-7.164062-18.207031-2.289062-26.722656zm0 0" fill="#84caff"/></svg>