<svg xmlns="http://www.w3.org/2000/svg" version="1.1" xmlns:xlink="http://www.w3.org/1999/xlink" width="512" height="512" x="0" y="0" viewBox="0 0 511.983 511.983" style="enable-background:new 0 0 512 512" xml:space="preserve" class=""><g><path d="M177.704 498.304c9.6-8.896 19.824-31.04 30.96-75.92.048-.176.08-.32.096-.496.56-3.472 8.608-58.944-9.584-111.536-1.824-5.28 4.832-9.312 8.608-5.184l5.872 17.632c3.152 3.456 8.912 1.232 8.912-3.456V287.28c0-3.024 2.608-5.408 5.632-5.104l29.12 2.848a5.124 5.124 0 0 1 4.624 5.104v22.528c0 4.656 5.696 6.896 8.88 3.504l19.248-20.544c2.816-3.008 7.84-1.632 8.752 2.384l2.496 11.056c.448 2-.304 4.064-1.968 5.264-11.44 8.192-48.48 45.072-31.904 131.376.048.256.096.48.192.72 1.104 3.28 4.816 29.312 27.056 50.384 2.944 2.8 1.728 7.712-2.224 8.704-5.68 1.424-12.752 3.328-18 5.184-15.264 5.392-35.92-7.488-42.832-12.288a5.032 5.032 0 0 0-5.056-.416c-7.824 3.712-30.64 13.936-39.536 11.392a93.802 93.802 0 0 1-7.664-2.528c-3.6-1.344-4.496-5.936-1.68-8.544z" style="" fill="#a4856d" data-original="#a4856d" class="" opacity="1"></path><path d="M313.4 54.752C313.4 24.512 288.888 0 258.648 0c-17.776 0-33.536 8.512-43.536 21.648a55.104 55.104 0 0 0-11.216-1.152c-30.24 0-54.752 24.512-54.752 54.752 0 .208.032.4.032.608-2.528-.368-5.088-.608-7.712-.608-30.24 0-54.752 24.512-54.752 54.752 0 3.808.4 7.536 1.136 11.12-15.904 6.688-27.072 22.416-27.072 40.752a43.953 43.953 0 0 0 3.808 17.904c-11.2 5.856-18.864 17.568-18.864 31.072 0 19.36 15.696 35.056 35.056 35.056 13.824 0 25.744-8.016 31.456-19.648 6.464 4.688 14.384 7.488 22.976 7.488 21.664 0 39.216-17.568 39.216-39.232 0-.976-.08-1.936-.144-2.896 4.944 1.84 10.256 2.896 15.84 2.896 19.712 0 36.448-12.56 42.752-30.112 2.16.208 4.352.336 6.56.336 35.904 0 64.992-29.104 64.992-64.992 0-9.792-2.224-19.024-6.096-27.36 9.328-9.808 15.072-23.04 15.072-37.632z" style="" fill="#cf58a8" data-original="#719c40" class="" opacity="1"></path><path d="M466.264 204.448c0-17.904-14.512-32.416-32.416-32.416-.144 0-.304.016-.448.016a36.469 36.469 0 0 0 1.568-10.544c0-20.048-16.256-36.304-36.304-36.304-8.112 0-15.584 2.688-21.632 7.2a50.128 50.128 0 0 0-18.64-15.872c6.112-7.568 9.84-17.136 9.84-27.616 0-24.336-19.728-44.064-44.064-44.064s-44.064 19.728-44.064 44.064c0 7.472 1.872 14.48 5.168 20.624-16.848 7.264-28.656 24.016-28.656 43.52a47 47 0 0 0 8.512 27.04 31.602 31.602 0 0 0-2.832 13.088c0 8.08 3.056 15.44 8.048 21.04-8.288 5.712-13.728 15.264-13.728 26.08 0 13.472 8.416 24.944 20.272 29.536a37.091 37.091 0 0 0-.832 7.824c0 20.64 16.72 37.36 37.36 37.36 17.536 0 32.224-12.112 36.24-28.416 6.512 5.552 14.944 8.912 24.176 8.912 17.632 0 32.368-12.224 36.304-28.64a32.15 32.15 0 0 0 12.192 2.384c17.904 0 32.416-14.512 32.416-32.416 0-2.416-.288-4.752-.784-7.024 7.472-5.92 12.304-15.072 12.304-25.376z" style="" fill="#f156be" data-original="#7fb241" class="" opacity="1"></path><path d="M297.24 230.272c.704-3.072 1.12-6.272 1.12-9.552 0-21.024-15.296-38.432-35.376-41.824-5.024-8.144-14-13.584-24.272-13.584-15.2 0-27.584 11.904-28.432 26.896-1.568-.192-3.152-.32-4.784-.32-19.008 0-34.864 13.456-38.56 31.376a24.13 24.13 0 0 0-6.496-.912c-12.816 0-23.264 9.984-24.064 22.592a25.357 25.357 0 0 0-13.36-3.792c-11.216 0-20.72 7.232-24.192 17.264-3.904-5.728-10.48-9.488-17.936-9.488-12 0-21.712 9.728-21.712 21.712 0 12 9.728 21.712 21.712 21.712 1.76 0 3.472-.24 5.104-.624a18.55 18.55 0 0 0-1.536 7.376c0 10.24 8.304 18.528 18.528 18.528 8.176 0 15.04-5.328 17.504-12.672 3.968 6.048 10.784 10.048 18.56 10.048 11.344 0 20.672-8.512 22-19.488 5.568 9.712 16.032 16.272 28.032 16.272 14.8 0 27.248-9.952 31.072-23.52a38.32 38.32 0 0 0 18.144 4.544c5.12 0 10-1.024 14.464-2.832a38.45 38.45 0 0 0 14.464 2.832c21.248 0 38.48-17.232 38.48-38.48.016-9.104-3.168-17.472-8.464-24.064z" style="" fill="#f156be" data-original="#8bc540" class="" opacity="1"></path></g></svg>