<svg id="Layer_1" viewBox="0 0 200 200" xmlns="http://www.w3.org/2000/svg" data-name="Layer 1"><path d="m94.28 89.4c-.35 1.21-2.43 2-3.3.85-14.43-19.25-41.98-23.81-61.59-9.37-.88.65-2.09-.45-1.17-1.18 19.58-15.5 47.11-13.29 63.5 5.3a50.6 50.6 0 0 1 56.37-32.6c2.51.44 1 3.94-1.26 3.58a46.58 46.58 0 0 0 -52.55 33.42zm64.56 22.35a30.78 30.78 0 0 0 -26.2 23.25c-6.48-10.48-19.26-16.13-31.38-10.38a.39.39 0 0 0 .26.74c13.09-3.15 26.85 2.67 30.3 16.46.49 2 3.55 1.55 3.65-.43.72-13.78 10.34-24.38 24.07-26.16 2.4-.23 1.76-3.8-.7-3.48z"/></svg>