<svg id="Layer_1" enable-background="new 0 0 512 512" height="512" viewBox="0 0 512 512" width="512" xmlns="http://www.w3.org/2000/svg"><g><g><path d="m142.129 313.234c-5.194 0-9.405-4.211-9.405-9.405v-59.735c0-23.415-18.982-42.396-42.396-42.396-23.415 0-42.396 18.982-42.396 42.396v90.338c0 35.122 28.472 63.595 63.595 63.595h84.222v-84.793z" fill="#66b399"/><path d="m208.63 334.072h191.844c35.122 0 63.595-28.472 63.595-63.595v-133.602c0-23.415-18.982-42.396-42.396-42.396-23.415 0-42.396 18.982-42.396 42.396v102.999c0 5.194-4.211 9.405-9.405 9.405h-161.242z" fill="#66b399"/><path d="m421.673 94.479c-9.503 0-18.275 3.126-25.344 8.406 10.351 7.73 17.052 20.078 17.052 33.99v133.602c0 35.122-28.472 63.595-63.595 63.595h50.689c35.122 0 63.595-28.472 63.595-63.595v-133.601c-.001-23.415-18.982-42.397-42.397-42.397z" fill="#4bab8b"/><g><g><path d="m345.755 504.397v-415.521c0-49.084-39.79-88.874-88.874-88.874-49.084 0-88.874 39.79-88.874 88.874v415.52" fill="#66b399"/></g><path d="m256.881.003c-8.806 0-17.313 1.281-25.344 3.666 36.736 10.91 63.53 44.93 63.53 85.208v415.52h50.689v-415.521c-.001-49.083-39.791-88.873-88.875-88.873z" fill="#4bab8b"/><g fill="#409683"><path d="m289.378 381.691c-4.199 0-7.603 3.404-7.603 7.603v115.103c0 4.199 3.404 7.603 7.603 7.603s7.603-3.404 7.603-7.603v-115.103c0-4.199-3.404-7.603-7.603-7.603z"/><path d="m289.378 78.885c-4.199 0-7.603 3.404-7.603 7.603v246.926c0 4.199 3.404 7.603 7.603 7.603s7.603-3.404 7.603-7.603v-246.926c0-4.199-3.404-7.603-7.603-7.603z"/><path d="m216.782 86.488v73.872c0 4.199 3.404 7.603 7.603 7.603s7.603-3.404 7.603-7.603v-73.872c0-63.25 32.289-86.006 32.488-86.119-6.909-.659-13.902-.423-20.767.605-10.853 11.088-26.927 35.888-26.927 85.514z"/><path d="m224.385 204.401c-4.199 0-7.603 3.404-7.603 7.603v292.392c0 4.199 3.404 7.603 7.603 7.603s7.603-3.404 7.603-7.603v-292.391c.001-4.199-3.404-7.604-7.603-7.604z"/></g></g></g><path d="m413.783 496.793h-313.667c-4.199 0-7.603 3.404-7.603 7.603s3.404 7.603 7.603 7.603h313.667c4.199 0 7.603-3.404 7.603-7.603.001-4.198-3.404-7.603-7.603-7.603z" fill="#fff4c7"/></g></svg>