<svg id="Capa_1" enable-background="new 0 0 512 512" height="512" viewBox="0 0 512 512" width="512" xmlns="http://www.w3.org/2000/svg"><g><g><g><g><path d="m275.431 162.44h-25.689v-22.91c0-7.094 5.751-12.845 12.845-12.845 7.094 0 12.845 5.751 12.845 12.845v22.91z" fill="#e22334"/></g><g><path d="m436.906 162.44h-25.689v-22.91c0-7.094 5.751-12.845 12.845-12.845 7.094 0 12.845 5.751 12.845 12.845v22.91z" fill="#e22334"/></g></g><g><g><path d="m134.751 99.791c-1.486 11.647-10.327 20.533-21.221 22.54-10.042-4.666-16.368-15.499-14.883-27.146 1.081-8.471 6.044-15.484 12.856-19.451 5.069-2.953 11.517-2.128 15.682 2.004 5.6 5.554 8.646 13.588 7.566 22.053z" fill="#f5a871"/></g><path d="m419.612 184.486h-150.314c-30.605 24.271-45.026 60.885-51.445 84.132-3.11 11.263-12.434 19.947-23.994 21.647-10.558 1.553-21.004-2.699-27.386-10.978-.814-1.056-1.661-2.185-2.533-3.387-18.453-25.415-22.974-58.194-13.151-88.026 2.736-8.31 4.583-16.831 3.862-23.516-1.958-18.146-7.007-53.691-29.028-57.654-22.02-3.964-53.92-9.233-63.838 16.375-6.454 16.662-22.091 22.989-32.228 21.778-9.567-1.143-19.262 2.419-25.265 9.956-2.816 3.536-4.719 7.744-4.21 12.463 1.821 16.883 5.19 48.419 31.771 34.607.097-.05 10.785-6.716 16.518-4.391 7.835 3.177 16.17 3.675 24.418 3.779 2.972.037 5.292 2.586 5.051 5.549-3.629 44.663-1.344 119.191 42.621 174.966 2.459 3.119.607 7.744-3.329 8.279-39.257 5.34-101.443-7.308-97.004 35.701.652 6.323 5.965 11.148 12.321 11.181l190.587 1.073c15.156.098 26.587-11.178 28.546-24.554.364-2.487 2.564-4.293 5.077-4.293h53.449c3.211 0 5.581 2.896 5.068 6.066-.675 4.163-.671 8.402.25 12.645 1.165 5.366 6.196 9.015 11.688 9.051l147.307 1.086c16.755.108 28.957-13.683 28.843-28.847h.004c.002 0-1.263-161.602-83.656-224.688z" fill="#fdd1a7"/><path d="m176.13 287.341c-2.637 1.38-5.511 2.359-8.54 2.854-10.714 1.751-21.376-2.504-27.856-10.91-.814-1.051-1.659-2.184-2.534-3.379-18.451-25.425-22.973-58.195-13.145-88.029 2.73-8.314 4.584-16.833 3.863-23.519-1.957-18.141-7.005-53.693-29.03-57.649-4.327-.783-9.035-1.607-13.877-2.246 12.918-2.596 28.309.031 40.61 2.246 22.025 3.956 27.073 39.508 29.031 57.649.721 6.686-1.123 15.205-3.863 23.519-9.818 29.834-5.305 62.604 13.155 88.029.865 1.195 1.72 2.328 2.534 3.379 2.616 3.41 5.933 6.129 9.652 8.056z" fill="#ffbc8a"/><g><g id="XMLID_51_"><path d="m78.382 154.477c-.027 0-.053 0-.08 0-4.267-.044-7.74-3.539-7.696-7.806.043-4.239 3.446-7.648 7.675-7.648h.08l.099.001c4.267.044 7.691 3.538 7.647 7.805-.044 4.24-3.495 7.648-7.725 7.648z" fill="#a34f41"/></g></g><path d="m275.233 409.17c2.596-1.896 4.183-5.11 3.709-8.674l-6.964-52.117c.422-.371.824-.762 1.205-1.175 15.041 1.751 32.708 2.936 53.477 3.276.577.711 1.216 1.37 1.895 1.978l-7.335 47.563c-.742 4.801 2.359 9.344 7.088 10.415l19.676 4.419c6.264 1.411 12.022-3.853 11.167-10.219l-6.964-52.117c.711-.639 1.38-1.319 1.988-2.06 20.665-.34 38.477-1.381 53.786-2.885.258.258.536.505.804.752l-7.335 47.563c-.742 4.79 2.359 9.344 7.088 10.405l19.677 4.43c6.263 1.401 12.022-3.863 11.167-10.23l-6.964-52.117c1.442-1.277 2.668-2.782 3.626-4.471 20.841-3.503 35.098-7.891 44.741-11.961l-6.789 43.948c-.731 4.801 2.359 9.344 7.098 10.415l19.676 4.42c.556.124 1.123.196 1.669.216-3.093-44.043-17.356-156.351-82.835-206.46h-150.264c-30.634 24.289-45.06 60.926-51.478 84.177-2.586 9.364-9.498 16.957-18.43 20.202l-4.523 10.127c-2.215-.989-4.656-1.556-7.242-1.556-9.797 0-17.74 7.933-17.74 17.73 0 5.233 2.287 9.921 5.893 13.166l-7.345 47.563c-.742 4.801 2.359 9.344 7.098 10.415l19.676 4.42c6.264 1.411 12.012-3.853 11.167-10.219l-6.974-52.117c.556-.484 1.071-.999 1.556-1.556 8.19 5.223 21.531 11.085 43.103 15.68 1.02 2.225 2.472 4.193 4.265 5.81l-7.335 47.563c-.742 4.79 2.359 9.344 7.088 10.405l12.764 2.874h14.37z" fill="#ffbc8a"/><path d="m419.615 184.486h-34.557c82.394 63.081 83.664 224.684 83.664 224.684h-.01c.103 13.99-10.271 26.826-25.044 28.629l30.751.227c16.761.103 28.958-13.691 28.845-28.855h.01c0-.001-1.268-161.6-83.659-224.685z" fill="#ffbc8a"/><g><path d="m150.791 122.231c-7.506 9.029-19.736 11.779-30.004 7.625-5.968-9.328-5.49-21.863 2.016-30.892 5.459-6.567 13.412-9.819 21.288-9.51 5.862.23 10.859 4.387 12.155 10.109 1.744 7.692.001 16.106-5.455 22.668z" fill="#ffbc8a"/><g fill="#f5a871"><path d="m102.987 103.585c5.388.35 10.786 1.102 15.875 1.937-1.906 3.997-2.905 8.406-2.884 12.888.031 4.265-3.41 7.747-7.685 7.768h-.041c-4.244 0-7.695-3.431-7.726-7.685-.022-5.101.823-10.149 2.461-14.908z"/><path d="m151.148 142.217c-2.823 1.71-5.841 3.091-9.004 4.141-.804.268-1.628.391-2.431.391-3.235 0-6.253-2.05-7.335-5.295-1.339-4.059.865-8.427 4.914-9.766 3.286-1.092 6.346-2.74 9.035-4.873 2.06 4.852 3.616 10.148 4.821 15.402z"/></g></g><g><path d="m333.624 382.084c-11.383 17.822-16.761 29.834-18.626 34.377.051-.412.113-.814.175-1.226.515-3.163-1.854-6.058-5.068-6.058h-8.808c2.565-6.037 8.324-18.214 19.295-35.407 2.297-3.595 7.077-4.656 10.673-2.359 3.595 2.297 4.646 7.077 2.359 10.673z" fill="#f9b180"/></g><g><path d="m348.833 375.268c-3.524 0-6.707-2.427-7.525-6.007-.95-4.157 1.647-8.296 5.801-9.251 5.367-1.242 21.679-6.635 26.083-14.839 2.018-3.761 6.701-5.172 10.462-3.152 3.76 2.018 5.171 6.702 3.152 10.462-8.512 15.853-33.432 21.949-36.245 22.592-.579.131-1.158.195-1.728.195z" fill="#f9b180"/></g><g><path d="m267.033 377.572v31.606h-10.374c-2.514 0-4.708 1.803-5.079 4.286v-35.892c0-4.275 3.461-7.726 7.726-7.726 4.266-.001 7.727 3.45 7.727 7.726z" fill="#f9b180"/></g><g><path d="m185.391 405.572c.154 4.265-3.183 7.85-7.448 8.005-1.689.062-3.348.082-4.976.082-37.643 0-58.556-15.721-65.921-22.602 3.482-.237 6.861-.546 10.086-.989 3.544-.484 5.398-4.275 3.935-7.304 8.108 6.274 26.033 16.442 56.32 15.37 4.265-.144 7.85 3.173 8.004 7.438z" fill="#f9b180"/></g></g><path d="m483.536 257.061c-24.096 8.746-67.57 19.058-144.637 19.058-72.205 0-112.619-10.703-135.119-20.429l41.063-91.944c1.628-3.657 5.254-5.996 9.241-5.996h26.774c9.776 0 19.45 2.339 28.031 7.036 8.592 4.698 19.563 7.52 31.513 7.52 11.971 0 22.952-2.823 31.534-7.52 8.581-4.698 18.255-7.036 28.031-7.036h36.005c4.1 0 7.809 2.473 9.364 6.274z" fill="#fb4a59"/><path d="m483.536 257.061c-7.273 2.637-16.308 5.419-27.496 8.015l-41.197-100.34c-1.731-4.234-5.862-6.995-10.436-6.995h31.565c4.1 0 7.809 2.483 9.364 6.284z" fill="#f82f40"/><path d="m499.726 296.469s-20.273 30.692-160.459 30.692-151.062-36.616-151.062-36.616l20.019-44.829c19.432 9.589 57.395 19.695 131.042 19.695 78.589 0 119.489-9.65 140.257-18.136z" fill="#3ad1e0"/><path d="m499.731 296.468s-4.646 7.047-24.9 14.371l-22.685-55.259c11.682-2.637 20.604-5.532 27.382-8.303z" fill="#22c7db"/><g><path d="m92.44 331.28c-3.08 14.42-15.92 25.27-31.25 25.27-17.61 0-31.94-14.33-31.94-31.95v-177.7c0-4.27 3.46-7.73 7.72-7.73 4.27 0 7.73 3.46 7.73 7.73v177.7c0 9.1 7.4 16.5 16.49 16.5 9.1 0 16.5-7.4 16.5-16.5v-62.66c1.76 22.15 6.06 46.1 14.75 69.34z" fill="#a34f41"/></g><g><path d="m61.19 341.1c9.1 0 16.5-7.4 16.5-16.5v-62.66c1.76 22.15 6.06 46.1 14.75 69.34-3.08 14.42-15.92 25.27-31.25 25.27z" fill="#873f30"/></g><g><g><g><path d="m428.194 387.295-19.674-4.426c-4.733-1.065-7.832-5.613-7.093-10.407l7.911-51.267h22.555l7.47 55.878c.851 6.366-4.902 11.632-11.169 10.222z" fill="#f8c52d"/><path d="m428.192 387.297-14.429-3.247c4.926-.554 8.81-5.092 8.1-10.397l-7.011-52.456h17.039l7.473 55.879c.848 6.364-4.899 11.632-11.172 10.221z" fill="#e7b729"/><g><g><g><g><g><g><g><g><circle cx="420.615" cy="311.728" fill="#fddd45" r="17.734"/><path d="m438.351 311.727c0 9.799-7.939 17.737-17.737 17.737-2.756 0-5.362-.627-7.692-1.755 5.937-2.868 10.03-8.947 10.03-15.982 0-7.028-4.093-13.107-10.03-15.975 2.33-1.128 4.937-1.755 7.692-1.755 9.798 0 17.737 7.939 17.737 17.73z" fill="#f8c52d"/></g></g></g></g></g></g></g></g></g><g><path d="m267.778 387.295-19.674-4.426c-4.733-1.065-7.832-5.613-7.093-10.407l7.911-51.267h22.555l7.47 55.878c.851 6.366-4.902 11.632-11.169 10.222z" fill="#f8c52d"/><path d="m267.776 387.297-14.429-3.247c4.926-.554 8.81-5.092 8.1-10.397l-7.011-52.456h17.039l7.473 55.879c.848 6.364-4.899 11.632-11.172 10.221z" fill="#e7b729"/><g><g><g><g><g><g><g><g><circle cx="260.199" cy="311.728" fill="#fddd45" r="17.734"/><path d="m277.934 311.727c0 9.799-7.939 17.737-17.737 17.737-2.756 0-5.362-.627-7.692-1.755 5.937-2.868 10.03-8.947 10.03-15.982 0-7.028-4.093-13.107-10.03-15.975 2.33-1.128 4.937-1.755 7.692-1.755 9.799 0 17.737 7.939 17.737 17.73z" fill="#f8c52d"/></g></g></g></g></g></g></g></g></g></g><g><g><path d="m500.747 367.307-19.674-4.426c-4.733-1.065-7.832-5.613-7.093-10.407l7.911-51.267h22.555l7.47 55.878c.851 6.366-4.902 11.632-11.169 10.222z" fill="#f8c52d"/><path d="m500.744 367.309-14.429-3.247c4.926-.554 8.81-5.092 8.1-10.397l-7.011-52.456h17.039l7.473 55.879c.849 6.364-4.898 11.632-11.172 10.221z" fill="#e7b729"/><g><g><g><g><g><g><g><g><circle cx="493.167" cy="291.74" fill="#fddd45" r="17.734"/><path d="m510.903 291.739c0 9.799-7.939 17.737-17.737 17.737-2.756 0-5.362-.627-7.692-1.755 5.937-2.868 10.03-8.947 10.03-15.982 0-7.028-4.093-13.107-10.03-15.975 2.33-1.128 4.937-1.755 7.692-1.755 9.798 0 17.737 7.939 17.737 17.73z" fill="#f8c52d"/></g></g></g></g></g></g></g></g></g><g><path d="m195.225 367.307-19.674-4.426c-4.733-1.065-7.832-5.613-7.093-10.407l7.911-51.267h22.555l7.47 55.878c.851 6.366-4.902 11.632-11.169 10.222z" fill="#f8c52d"/><path d="m195.223 367.309-14.429-3.247c4.926-.554 8.81-5.092 8.1-10.397l-7.011-52.456h17.039l7.473 55.879c.849 6.364-4.899 11.632-11.172 10.221z" fill="#e7b729"/><g><g><g><g><g><g><g><g><circle cx="187.646" cy="291.74" fill="#fddd45" r="17.734"/><path d="m205.382 291.739c0 9.799-7.939 17.737-17.737 17.737-2.756 0-5.362-.627-7.692-1.755 5.937-2.868 10.03-8.947 10.03-15.982 0-7.028-4.093-13.107-10.03-15.975 2.33-1.128 4.937-1.755 7.692-1.755 9.798 0 17.737 7.939 17.737 17.73z" fill="#f8c52d"/></g></g></g></g></g></g></g></g></g></g><g><path d="m347.986 391.433-19.674-4.426c-4.733-1.065-7.832-5.613-7.093-10.407l7.911-51.267h22.555l7.47 55.878c.851 6.365-4.902 11.632-11.169 10.222z" fill="#f8c52d"/><path d="m347.984 391.434-14.429-3.247c4.926-.554 8.81-5.092 8.1-10.397l-7.011-52.456h17.039l7.473 55.879c.848 6.365-4.899 11.633-11.172 10.221z" fill="#e7b729"/><g><g><g><g><g><g><g><g><circle cx="340.407" cy="315.866" fill="#fddd45" r="17.734"/><path d="m358.143 315.865c0 9.799-7.939 17.737-17.737 17.737-2.756 0-5.362-.627-7.692-1.755 5.937-2.868 10.03-8.947 10.03-15.982 0-7.028-4.093-13.107-10.03-15.975 2.33-1.128 4.937-1.755 7.692-1.755 9.798 0 17.737 7.939 17.737 17.73z" fill="#f8c52d"/></g></g></g></g></g></g></g></g></g></g></g><g><g><path d="m468.382 220.139-2.503-.144-17.565 18.687c-2.102 2.246-5.326 3.019-8.221 1.988l-23.941-8.551-20.583 14.804c-2.328 1.679-5.408 1.927-7.984.639l-22.53-11.332-21.675 12.867c-1.216.721-2.586 1.082-3.946 1.082-1.442 0-2.874-.402-4.141-1.205l-19.934-12.64-20.882 11.033c-2.699 1.432-5.985 1.133-8.386-.752l-18.708-14.711-22.479 8.025c-3.111 1.102-6.573.113-8.633-2.452l-14.752-18.44-1.442.154 7.016-15.71c1.494.443 2.843 1.329 3.843 2.575l13.959 17.462 21.314-7.603c2.503-.886 5.285-.433 7.366 1.205l18.121 14.237 20.408-10.786c2.452-1.288 5.408-1.174 7.747.309l19.718 12.507 21.232-12.599c2.266-1.35 5.058-1.442 7.417-.268l22.128 11.126 20.078-14.443c2.06-1.483 4.718-1.854 7.108-.999l22.994 8.21 16.565-17.626c1.277-1.36 2.998-2.194 4.821-2.39z" fill="#fddd45"/></g></g><g><g><path d="m468.382 220.139-2.503-.144-17.565 18.687c-.69.742-1.514 1.329-2.4 1.72l-6.768-16.483 1.38.494 16.565-17.626c1.277-1.36 2.998-2.194 4.821-2.39z" fill="#f8c52d"/></g></g><g><path d="m102.101 203.44-24.93 13.454c.175-3.503.412-6.861.67-10.075.216-2.73-1.731-5.11-4.358-5.491l21.284-11.486c3.75-2.029 8.437-.629 10.467 3.132 2.028 3.749.627 8.437-3.133 10.466z" fill="#ffbc8a"/></g></g></svg>