<svg id="Capa_1" enable-background="new 0 0 512 512" height="512" viewBox="0 0 512 512" width="512" xmlns="http://www.w3.org/2000/svg"><g><g><path d="m409.717 381.262c8.422 9.718 13.058 22.146 13.058 35.005v70.06h29.125v-70.216c0-12.731-4.728-25.346-13.313-35.52-8.241-9.766-12.788-21.935-12.804-34.268-.004-3.569-2.878-6.472-6.405-6.472h-22.72v6.406c.001 12.859 4.637 25.287 13.059 35.005z" fill="#c57a44"/><path d="m213.841 486.327v-70.06c0-11.213-3.459-21.643-9.253-27.9-10.874-11.741-16.863-26.488-16.863-41.522v-.587c0-3.532-2.842-6.406-6.335-6.406-10.515 0-20.029-4.402-26.807-11.444v17.85c0 12.859 4.636 25.288 13.058 35.005 8.422 9.718 13.058 22.146 13.058 35.005v70.06h33.142z" fill="#d88a55"/><path d="m442.408 196.108c-13.454.06-24.305-11.039-24.305-24.494v-1c0-17.852-14.472-32.323-32.323-32.323h-.836c-18.567 0-33.486 14.919-33.486 33.322v10.248l-1 1v83.896h-81.371v-83.896h.092l-1.092-1v-10.248c0-18.403-14.919-33.322-33.322-33.322-18.403 0-33.322 14.919-33.322 33.322 0 13.528-10.966 24.494-24.494 24.494h-33.763c-15.895 0-28.781-12.886-28.781-28.781v-67.987c12.527-7.947 20.687-22.162 20.055-38.236-.866-22.02-18.543-40.075-40.542-41.373-15.598-.92-29.527 6.451-37.822 18.109h-28.935c-15.001.001-27.161 12.161-27.161 27.161s12.16 27.161 27.161 27.161l7.328.001c16.468.066 29.691 13.655 29.691 30.124v76.163c0 36.317 24.504 66.91 57.88 76.149 12.679 3.51 21.028 15.251 21.126 28.406.155 20.95 17.202 37.881 38.196 37.847 2.938-.005 5.343 2.467 5.343 5.405v.587c0 15.76 6.42 30.639 17.129 42.202 5.833 6.298 8.987 16.613 8.987 27.221v70.06h33.147v-130.408c0-8.321 6.746-15.067 15.067-15.067h158.323c3.012 0 5.401 2.461 5.405 5.473.017 12.828 4.77 25.111 13.039 34.911 8.27 9.801 13.077 22.051 13.077 34.875v70.216h33.148v-248.768c0-22.955-18.66-41.553-41.639-41.45z" fill="#d88a55"/><g fill="#c57a44"><path d="m38.6 77.4c-12.383-2.528-21.7-13.481-21.7-26.611 0-4.263.984-8.295 2.734-11.885-11.337 3.265-19.634 13.708-19.634 26.096 0 15 12.16 27.161 27.161 27.161l7.328.001c1.396.006 2.767.116 4.111.31z"/><g><path d="m181.382 340.851c2.938-.005 5.343 2.467 5.343 5.405v.587c0 15.76 6.42 30.639 17.129 42.202 5.833 6.298 8.987 16.613 8.987 27.221v69.06h16.9v-83.271c0-10.608-3.155-20.923-8.987-27.221-10.709-11.563-17.129-26.442-17.129-42.202v-.587c0-2.938-2.405-5.41-5.343-5.405-20.994.034-38.041-16.898-38.196-37.847-.076-10.229-5.155-19.584-13.366-24.898v37.856c0 4.48-.557 8.831-1.59 12.996 5.046 15.183 19.369 26.131 36.252 26.104z"/><path d="m64.18 122.285v76.163c0 36.317 24.504 66.91 57.88 76.149 3.605.998 6.845 2.68 9.66 4.852v-21.469c-29.617-11.4-50.64-40.111-50.64-73.744v-76.163c0-15.723-12.057-28.813-27.48-30.023v21.242.002c6.477 5.548 10.58 13.821 10.58 22.991z"/></g></g><g><path d="m504.5 500.327h-363.91c-4.142 0-7.5-3.358-7.5-7.5s3.358-7.5 7.5-7.5h363.91c4.142 0 7.5 3.358 7.5 7.5s-3.358 7.5-7.5 7.5z" fill="#c99c56"/></g><path d="m38.6 92.471c5.679.818 10.831 3.253 15 6.823v-61.454h-15z" fill="#47a920"/><g><path d="m82.261 70.346c-4.142 0-7.5-3.358-7.5-7.5v-10.045c0-4.142 3.358-7.5 7.5-7.5s7.5 3.358 7.5 7.5v10.044c0 4.143-3.358 7.501-7.5 7.501z" fill="#883f2e"/></g><path d="m139.22 185.25c-4.142 0-7.5 3.358-7.5 7.5v109c0 21.538-17.522 39.06-39.06 39.06s-39.061-17.522-39.061-39.06v-202.457c-4.169-3.57-9.321-6.008-15-6.826v209.283c0 29.809 24.251 54.06 54.061 54.06 29.809 0 54.06-24.251 54.06-54.06v-109c0-4.142-3.358-7.5-7.5-7.5z" fill="#883f2e"/></g><g><path d="m122.862 21.081c-7.125 7.125-10.2 16.762-9.235 26.06.245 2.364 2.118 4.237 4.482 4.482 9.298.965 18.935-2.109 26.06-9.235 7.125-7.125 10.2-16.762 9.235-26.06-.245-2.364-2.118-4.237-4.482-4.482-9.298-.965-18.935 2.11-26.06 9.235z" fill="#c57a44"/></g><g fill="#a82975"><path d="m274.071 266.757-5.984 1v26.916c0 4.142 3.358 7.5 7.5 7.5s7.5-3.358 7.5-7.5v-27.916z"/><path d="m291.071 266.757v27.916c0 4.142 3.358 7.5 7.5 7.5s7.5-3.358 7.5-7.5v-27.916z"/><path d="m313.742 266.757v27.916c0 4.142 3.358 7.5 7.5 7.5s7.5-3.358 7.5-7.5v-27.916z"/><path d="m345.428 266.757h-9.016v27.916c0 4.142 3.358 7.5 7.5 7.5s7.5-3.358 7.5-7.5v-26.916z"/></g><g><path d="m323.306 181.861-1 1v53.148c0 1.127-.917 2.045-2.045 2.045h-20.978c-1.128 0-2.045-.917-2.045-2.045v-53.148l-1-1h-28.151v85.896h83.371v-85.896z" fill="#4fc123"/><g><path d="m268.087 181.861h20.706v85.896h-20.706z" fill="#47a920"/></g></g><g><path d="m296.238 236.008v-54.148h27.068v54.148c0 1.682-1.363 3.045-3.045 3.045h-20.978c-1.681.001-3.045-1.363-3.045-3.045z" fill="#fef1da"/></g><g><g><path d="m227.852 224.222h-11.198c-4.142 0-7.5-3.358-7.5-7.5s3.358-7.5 7.5-7.5h11.198c4.142 0 7.5 3.358 7.5 7.5s-3.358 7.5-7.5 7.5z" fill="#c57a44"/></g><g><path d="m210.681 262.992h-11.199c-4.142 0-7.5-3.358-7.5-7.5s3.358-7.5 7.5-7.5h11.199c4.142 0 7.5 3.358 7.5 7.5s-3.358 7.5-7.5 7.5z" fill="#c57a44"/></g><g><path d="m221.133 309.267h-11.198c-4.142 0-7.5-3.358-7.5-7.5s3.358-7.5 7.5-7.5h11.198c4.142 0 7.5 3.358 7.5 7.5s-3.358 7.5-7.5 7.5z" fill="#c57a44"/></g></g><g><g><path d="m411.619 224.222h-11.198c-4.142 0-7.5-3.358-7.5-7.5s3.358-7.5 7.5-7.5h11.198c4.142 0 7.5 3.358 7.5 7.5s-3.358 7.5-7.5 7.5z" fill="#c57a44"/></g><g><path d="m394.448 261.344h-11.198c-4.142 0-7.5-3.358-7.5-7.5s3.358-7.5 7.5-7.5h11.199c4.142 0 7.5 3.358 7.5 7.5s-3.359 7.5-7.501 7.5z" fill="#c57a44"/></g><g><path d="m404.9 305.651h-11.198c-4.142 0-7.5-3.358-7.5-7.5s3.358-7.5 7.5-7.5h11.198c4.142 0 7.5 3.358 7.5 7.5s-3.358 7.5-7.5 7.5z" fill="#c57a44"/></g></g></g></svg>