<svg id="Capa_1" enable-background="new 0 0 512 512" height="512" viewBox="0 0 512 512" width="512" xmlns="http://www.w3.org/2000/svg"><g><g><path d="m295.556 53.898c-4.204 0-7.611-3.407-7.611-7.611v-38.676c0-4.204 3.407-7.611 7.611-7.611s7.612 3.407 7.612 7.611v38.675c0 4.205-3.407 7.612-7.612 7.612z" fill="#6c5e69"/></g><path d="m247.888 113.907h95.337v256.25h-95.337z" fill="#faf7f8"/><path d="m337.906 296.866c-8.108 0-14.68-6.573-14.68-14.68v-45.216c0-12.533-10.206-22.73-22.751-22.73-5.795 0-11.321 2.202-15.563 6.203-5.656 5.336-14.492 5.336-20.148 0l-4.458-4.206c-3.455-3.258-7.782-5.296-12.417-5.945v159.865h95.337v-73.291z" fill="#f0eef0"/><path d="m295.556 32.606c-26.327 0-47.668 21.342-47.668 47.668v33.633h95.337v-33.633c0-26.327-21.342-47.668-47.669-47.668z" fill="#faf7f8"/><g fill="#ffab56"><path d="m3.806 236.972c0-3.906 4.67-5.92 7.511-3.239l19.547 18.444c1.716 1.619 4.398 1.619 6.114 0l23.994-22.646c1.716-1.62 4.398-1.62 6.114 0l23.997 22.646c1.716 1.62 4.398 1.62 6.114 0l23.998-22.647c1.716-1.619 4.397-1.62 6.114 0l24.002 22.648c1.716 1.619 4.397 1.619 6.113 0l24.003-22.648c1.716-1.619 4.397-1.619 6.113 0l24.004 22.648c1.716 1.619 4.397 1.619 6.113 0l24.003-22.648c1.716-1.619 4.397-1.619 6.113 0l24.008 22.649c1.716 1.619 4.397 1.619 6.113 0l19.554-18.447c2.841-2.68 7.51-.666 7.51 3.24v275.029h-293.9c-4.005 0-7.252-3.247-7.252-7.252v-267.777z"/><path d="m508.194 504.747c0 4.005-3.247 7.252-7.252 7.252h-195.984v-196.865h195.984c4.005 0 7.252 3.247 7.252 7.252z"/><path d="m508.194 504.747c0 4.005-3.247 7.252-7.252 7.252h-195.984v-196.865h195.984c4.005 0 7.252 3.247 7.252 7.252z"/></g><path d="m304.958 315.134h20.111v196.866h-20.111z" fill="#ff982a"/><path d="m163.118 511.999h-122.007v-114.288c0-2.494 2.022-4.517 4.517-4.517h112.974c2.494 0 4.517 2.022 4.517 4.517v114.288z" fill="#6c5e69"/><path d="m260.546 388.678c0 2.494-2.022 4.517-4.517 4.517h-50.406c-2.494 0-4.517-2.022-4.517-4.517v-69.448c0-16.414 13.306-29.72 29.72-29.72 16.414 0 29.72 13.306 29.72 29.72z" fill="#faf7f8"/><path d="m260.546 319.23c0-16.413-13.306-29.72-29.72-29.72-3.115 0-6.117.482-8.938 1.37 12.045 3.794 20.781 15.051 20.781 28.349v73.964h13.36c2.494 0 4.517-2.022 4.517-4.517z" fill="#f0eef0"/><g><path d="m446.686 412.942c0 2.494-2.022 4.517-4.517 4.517h-50.406c-2.494 0-4.517-2.022-4.517-4.517v-39.002c0-16.414 13.306-29.72 29.72-29.72 16.414 0 29.72 13.306 29.72 29.72z" fill="#faf7f8"/><path d="m446.686 373.94c0-16.413-13.306-29.72-29.72-29.72-3.115 0-6.117.482-8.938 1.37 12.045 3.794 20.781 15.051 20.781 28.349v43.518h13.36c2.494 0 4.517-2.022 4.517-4.517z" fill="#f0eef0"/></g><path d="m94.503 393.195h15.223v118.805h-15.223z" fill="#574d56"/><g><path d="m95.858 291.536h-14.734c-4.204 0-7.611-3.407-7.611-7.612s3.407-7.611 7.611-7.611h14.733c4.204 0 7.611 3.407 7.611 7.611s-3.406 7.612-7.61 7.612z" fill="#faf7f8"/></g><g><g><path d="m359.649 482.592h-10.725c-4.204 0-7.611-3.407-7.611-7.611s3.407-7.612 7.611-7.612h10.725c4.204 0 7.611 3.407 7.611 7.612s-3.407 7.611-7.611 7.611z" fill="#faf7f8"/></g><g><path d="m411.939 482.592h-10.726c-4.204 0-7.611-3.407-7.611-7.611s3.407-7.612 7.611-7.612h10.726c4.204 0 7.612 3.407 7.612 7.612s-3.408 7.611-7.612 7.611z" fill="#faf7f8"/></g><g><path d="m464.229 482.592h-10.726c-4.204 0-7.612-3.407-7.612-7.611s3.407-7.612 7.612-7.612h10.726c4.204 0 7.611 3.407 7.611 7.612s-3.406 7.611-7.611 7.611z" fill="#faf7f8"/></g></g><g><g><path d="m295.556 189.635c-4.204 0-7.611-3.407-7.611-7.611v-9.051c0-4.204 3.407-7.611 7.611-7.611s7.612 3.407 7.612 7.611v9.051c0 4.204-3.407 7.611-7.612 7.611z" fill="#6c5e69"/></g><g><g><path d="m320.695 154.106c-4.204 0-7.612-3.407-7.612-7.611v-9.051c0-4.204 3.407-7.612 7.612-7.612s7.611 3.407 7.611 7.612v9.051c.001 4.204-3.407 7.611-7.611 7.611z" fill="#6c5e69"/></g><g><path d="m270.418 222.484c-4.204 0-7.612-3.407-7.612-7.611v-9.051c0-4.204 3.407-7.611 7.612-7.611s7.611 3.407 7.611 7.611v9.051c0 4.203-3.407 7.611-7.611 7.611z" fill="#6c5e69"/></g></g></g><g><path d="m354.046 121.518h-116.979c-4.204 0-7.611-3.407-7.611-7.611s3.407-7.612 7.611-7.612h116.979c4.204 0 7.612 3.407 7.612 7.612s-3.408 7.611-7.612 7.611z" fill="#f0eef0"/></g></g></svg>