<svg id="Layer_1" enable-background="new 0 0 510.331 510.331" height="512" viewBox="0 0 510.331 510.331" width="512" xmlns="http://www.w3.org/2000/svg"><g><g><path d="m341.274 498.421c-2.694 0-5.431-.572-8.036-1.78-9.586-4.445-13.755-15.82-9.31-25.407l37.277-80.395-3.369-67.606c-.526-10.554 7.604-19.536 18.157-20.062 10.574-.528 19.535 7.604 20.062 18.157l3.604 72.323c.154 3.098-.446 6.187-1.751 9.001l-39.264 84.679c-3.236 6.981-10.149 11.089-17.37 11.09z" fill="#748488"/></g><g><path d="m453.128 498.417c-9.815.001-18.17-7.509-19.039-17.47l-8.035-92.043-24.508-72.88c-3.368-10.016 2.021-20.866 12.037-24.234 10.019-3.368 20.866 2.022 24.234 12.037l25.234 75.042c.482 1.436.793 2.925.925 4.435l8.233 94.315c.919 10.527-6.869 19.806-17.396 20.725-.565.049-1.129.073-1.685.073z" fill="#55696e"/></g><g><g><g fill="#d77d14"><path d="m421.82 11.739c-4.579 0-8.291 3.712-8.291 8.291v28.36l16.582-5.698v-22.662c0-4.579-3.712-8.291-8.291-8.291z"/><path d="m198.764 282.877-13.229 78.099c-.41 2.42-.565 4.877-.462 7.329l4.95 116.814c.339 7.715 6.911 13.889 14.848 13.451 7.451-.412 13.18-6.799 13.269-14.261l1.167-97.105c.15-12.647 4.323-24.917 11.912-35.034l49.04-65.371-19.677-3.922z"/></g></g></g><g><path d="m79.335 231.927-39.163 127.329c-.878 2.856-1.281 5.836-1.193 8.823l3.462 116.746c.243 7.701 6.723 13.941 14.646 13.601 7.438-.319 13.232-6.62 13.412-14.063l2.683-110.681c.09-3.73 1.281-7.346 3.427-10.398 13.652-19.418 65.159-92.68 65.255-92.885z" fill="#d77d14"/><path d="m74.211 195.179-62.477 75.637c-2.331 2.822-6.507 3.219-9.329.889-2.5-2.065-3.095-5.581-1.577-8.318l47.511-85.832c4.204-7.596 13.77-10.345 21.366-6.14s10.345 13.77 6.14 21.366c-.464.837-1.05 1.681-1.634 2.398z" fill="#d77d14"/><path d="m488.259 37.789-22.839-1.813c-4.143-.329-7.979-2.191-10.932-5.116-4.344-4.302-10.319-6.96-16.916-6.96-13.435 0-24.045 10.937-24.047 24.004 0 3.314-.016 6.62-.292 9.922-1.88 22.479-7.786 97.142-7.793 97.237-.029.101-.574 19.06-17.47 28.294-.06.033-.119.066-.178.098-7.771 4.277-17.534.089-19.85-8.474-4.254-15.73-12.808-29.69-24.316-40.554 0 0-.001-.001-.001-.001-.357-.337-.716-.673-1.078-1.004-7.015-6.466-15.096-11.79-23.951-15.682-.242-1.07-.501-2.134-.772-3.193l-4.19 1.187c-9.344-3.433-19.44-5.308-29.975-5.308h-149.62c-48.003 0-86.917 38.914-86.917 86.917 0 14.453 36.317 138.593 36.317 138.593 6.001 22.274 9.349 45.179 9.973 68.239l2.183 80.612c.223 7.7 6.685 13.957 14.609 13.639 7.438-.298 13.249-6.583 13.451-14.024l2.266-83.675c.609-22.496 3.62-44.862 8.981-66.718 6.43-26.215 28.185-45.435 54.318-49.103h35.555c20.635 0 38.211 14.994 41.462 35.371 2.364 14.816 3.754 29.772 4.16 44.77l3.273 119.86c.224 7.718 6.701 13.989 14.644 13.671 7.456-.299 13.281-6.599 13.483-14.058l1.605-58.274c1.153-42.584 8.286-84.794 21.191-125.392 5.8-18.248 22.071-31.169 41.159-32.684l.184-.015c1.6-.45 52.056.603 84.548-45.868 25.144-35.905 18.231-68.077 15.721-99.691l-1.547-19.487c-.137-1.719.603-3.419 2.018-4.404 5.525-3.841 9.534-9.707 10.954-16.524.478-2.293 2.425-3.988 4.761-4.173l6.311-.501c9.857-.773 17.923-8.81 18.315-19.105.408-10.736-8.049-19.763-18.758-20.613z" fill="#e69632"/><circle cx="208.849" cy="142.256" fill="#e64937" r="112.229"/><path d="m316.722 111.275c2.725 9.505 4.356 19.664 4.356 30.981 0 61.982-50.247 112.229-112.229 112.229s-112.229-50.247-112.229-112.229c0-10.715 1.463-20.909 4.35-30.981-7.604 0-13.986 5.623-15.075 13.149-.853 5.891-1.275 11.828-1.275 17.832 0 33.593 13.244 65.151 37.261 88.71 23.589 23.139 55.655 35.955 88.696 35.507 32.537-.441 63.059-13.318 86.115-36.374 23.464-23.464 36.386-54.66 36.386-87.843 0-6.06-.429-12.092-1.32-18.132-1.093-7.411-7.545-12.849-15.036-12.849z" fill="#ffda52"/></g><g><path d="m466.99 269.184c-4.59 0-8.992-1.983-12.038-5.492l-44.18-50.892c-5.773-6.65-5.062-16.72 1.588-22.493s16.722-5.061 22.492 1.588l29.043 33.455 16.448-30.56c1.043-1.939 2.915-3.313 5.135-4.284 10.025-4.386 21.831 1.969 23.693 12.752.412 2.388.296 4.707-.748 6.646l-27.392 50.892c-2.483 4.613-7.073 7.712-12.28 8.291-.588.064-1.176.097-1.761.097z" fill="#466e28"/></g><g><path d="m508.424 209.904c4.174-7.754 1.271-17.423-6.483-21.597-7.755-4.173-17.423-1.271-21.597 6.483z" fill="#ffb69e"/></g><path d="m476.752 446.926-4.818-31.299c-3.354-21.785-8.79-43.197-16.234-63.943-5.851-16.306-8.274-33.644-7.119-50.929l6.209-92.858c.87-13.008-8.97-24.259-21.979-25.128l-42.003-2.808c-13.008-.87-24.259 8.97-25.128 21.979l-13.862 159.698c-1.898 21.862-6.981 43.328-15.09 63.719l-7.927 19.934c-1.966 4.944 1.676 10.313 6.997 10.313h133.512c4.615-.002 8.145-4.117 7.442-8.678z" fill="#64822d"/><g><path d="m380.826 329.124-19.961-61.672c-1.131-3.493-1.021-7.27.311-10.692l24.053-61.816c3.193-8.207 12.433-12.271 20.642-9.077 8.206 3.193 12.271 12.434 9.077 20.641l-21.994 56.525 18.213 56.271c.679 2.099.374 4.407-.465 6.687-3.778 10.266-16.521 14.396-25.59 8.279-2.012-1.355-3.606-3.046-4.286-5.146z" fill="#466e28"/></g><g><path d="m380.826 329.124c2.184 6.747 8.438 11.039 15.167 11.039 1.626 0 3.281-.251 4.913-.779 8.378-2.712 12.971-11.702 10.26-20.08z" fill="#ffb69e"/></g><g><path d="m489.824 302.081c-4.143 0-7.5-3.358-7.5-7.5v-60.181c0-13.83-4.303-27.051-12.441-38.235l-66.191-90.937c-2.438-3.349-1.699-8.04 1.649-10.477 3.35-2.438 8.04-1.698 10.478 1.65l66.191 90.937c10.019 13.765 15.314 30.039 15.314 47.062v60.181c0 4.142-3.357 7.5-7.5 7.5z" fill="#783c28"/></g><ellipse cx="419.681" cy="134.327" fill="#ffb69e" rx="34.945" ry="34.945" transform="matrix(.153 -.988 .988 .153 222.649 528.477)"/></g></svg>