<svg id="Layer_1" viewBox="0 0 64 64" xmlns="http://www.w3.org/2000/svg"><path d="m63 21h-4v-4h-42v4h-4c-.552 0-1 .448-1 1s.448 1 1 1h4v7h-12v4h-4c-.552 0-1 .448-1 1s.448 1 1 1h4v27h54v-40h4c.552 0 1-.448 1-1s-.448-1-1-1z" fill="#c4804d"/><path d="m53 46v9h-6v-9c0-1.66 1.34-3 3-3 .83 0 1.58.34 2.12.88s.88 1.29.88 2.12z" fill="#7c523a"/><path d="m35 46v9h-6v-9c0-1.66 1.34-3 3-3 .83 0 1.58.34 2.12.88s.88 1.29.88 2.12z" fill="#7c523a"/><path d="m23 62v1h-12v-14c0-1.66.67-3.16 1.76-4.24 1.08-1.09 2.58-1.76 4.24-1.76 3.31 0 6 2.69 6 6z" fill="#9b7868"/><g fill="#d6966b"><circle cx="23.5" cy="22.5" r="1.5"/><circle cx="30.5" cy="22.5" r="1.5"/><circle cx="52.5" cy="22.5" r="1.5"/><circle cx="45.5" cy="22.5" r="1.5"/><circle cx="38" cy="22.5" r="1.5"/><path d="m17 30h-12v33h6v-14c0-1.66.67-3.16 1.76-4.24 1.08-1.09 2.58-1.76 4.24-1.76 3.31 0 6 2.69 6 6v14h18v-33zm-5.5 7c-.828 0-1.5-.672-1.5-1.5s.672-1.5 1.5-1.5 1.5.672 1.5 1.5-.672 1.5-1.5 1.5zm7 0c-.828 0-1.5-.672-1.5-1.5s.672-1.5 1.5-1.5 1.5.672 1.5 1.5-.672 1.5-1.5 1.5zm9 0c-.828 0-1.5-.672-1.5-1.5s.672-1.5 1.5-1.5 1.5.672 1.5 1.5-.672 1.5-1.5 1.5zm7.5 18h-6v-9c0-1.66 1.34-3 3-3 .83 0 1.58.34 2.12.88s.88 1.29.88 2.12zm-.5-18c-.828 0-1.5-.672-1.5-1.5s.672-1.5 1.5-1.5 1.5.672 1.5 1.5-.672 1.5-1.5 1.5z"/><path d="m45 36c.552 0 1-.448 1-1s-.448-1-1-1h-4v2z"/><path d="m13 23h4v-2h-4c-.552 0-1 .448-1 1s.448 1 1 1z"/><path d="m63 21h-4v2h4c.552 0 1-.448 1-1s-.448-1-1-1z"/></g></svg>