<svg viewBox="0 0 96 96" xmlns="http://www.w3.org/2000/svg"><g id="Layer_1"/><g id="Layer_2"/><g id="Layer_3"/><g id="Layer_4"><g><g><g><g><g><path d="m89.882 52.776v35.037h-8.287c-8.812-9.599-17.414-6.189-22.66-2.203-6.032-4.039-11.592-1.154-15.001 1.626v-34.46h5.035v-3.934h6.295v3.934h6.818v-3.934h6.295v3.934h9.815v-3.934h6.655v3.934z" fill="#ffd297"/></g></g><g><g><path d="m89.883 89.167h-8.288c-.378 0-.74-.159-.996-.439-8-8.706-15.744-5.912-20.843-2.038-.457.349-1.092.367-1.573.045-4.186-2.802-8.698-2.284-13.392 1.551-.407.33-.967.396-1.438.174-.47-.225-.772-.7-.772-1.224v-34.46c0-.748.605-1.353 1.353-1.353h3.682v-2.58c0-.748.605-1.353 1.353-1.353h6.293c.748 0 1.353.605 1.353 1.353v2.58h4.112v-2.58c0-.748.605-1.353 1.353-1.353h6.296c.748 0 1.353.605 1.353 1.353v2.58h7.107v-2.58c0-.748.605-1.353 1.353-1.353h6.655c.748 0 1.353.605 1.353 1.353v2.58h3.684c.748 0 1.353.605 1.353 1.353v35.038c.003.747-.603 1.353-1.351 1.353zm-7.701-2.707h6.348v-32.331h-3.684c-.748 0-1.353-.605-1.353-1.353v-2.58h-3.949v2.58c0 .748-.605 1.353-1.353 1.353h-9.813c-.748 0-1.353-.605-1.353-1.353v-2.58h-3.589v2.58c0 .748-.605 1.353-1.353 1.353h-6.819c-.748 0-1.353-.605-1.353-1.353v-2.58h-3.587v2.58c0 .748-.605 1.353-1.353 1.353h-3.682v30.466c4.631-2.91 9.272-3.135 13.588-.616 5.031-3.545 14.067-7.195 23.305 2.481z" fill="#252526"/></g></g></g><g><g><g><path d="m43.934 29.837v57.976h-37.818v-57.976h10.438v3.934h15.683v-3.934z" fill="#ffc466"/></g></g><g><g><path d="m43.935 89.167h-37.818c-.748 0-1.353-.605-1.353-1.353v-57.977c0-.748.605-1.353 1.353-1.353h10.437c.748 0 1.353.605 1.353 1.353v2.58h12.977v-2.58c0-.748.605-1.353 1.353-1.353h11.698c.748 0 1.353.605 1.353 1.353v57.976c0 .748-.605 1.354-1.353 1.354zm-36.465-2.707h35.112v-55.27h-8.992v2.58c0 .748-.605 1.353-1.353 1.353h-15.683c-.748 0-1.353-.605-1.353-1.353v-2.58h-7.731z" fill="#252526"/></g></g></g><g><g><g><g><path d="m55.625 58.294h7.014v6.639h-7.014z" fill="#b27f47"/></g><g><path d="m62.639 66.286h-7.014c-.748 0-1.353-.605-1.353-1.353v-6.639c0-.748.605-1.353 1.353-1.353h7.014c.748 0 1.353.605 1.353 1.353v6.639c.001.748-.605 1.353-1.353 1.353zm-5.661-2.706h4.308v-3.933h-4.308z" fill="#252526"/></g></g><g><g><path d="m71.178 58.294h7.014v6.639h-7.014z" fill="#b27f47"/></g><g><path d="m78.191 66.286h-7.014c-.748 0-1.353-.605-1.353-1.353v-6.639c0-.748.605-1.353 1.353-1.353h7.014c.748 0 1.353.605 1.353 1.353v6.639c0 .748-.605 1.353-1.353 1.353zm-5.661-2.706h4.308v-3.933h-4.308z" fill="#252526"/></g></g></g><g><g><g><path d="m55.625 71.724h7.014v6.639h-7.014z" fill="#b27f47"/></g><g><path d="m62.639 79.715h-7.014c-.748 0-1.353-.605-1.353-1.353v-6.639c0-.748.605-1.353 1.353-1.353h7.014c.748 0 1.353.605 1.353 1.353v6.639c.001.748-.605 1.353-1.353 1.353zm-5.661-2.706h4.308v-3.933h-4.308z" fill="#252526"/></g></g><g><g><path d="m71.178 71.724h7.014v6.639h-7.014z" fill="#b27f47"/></g><g><path d="m78.191 79.715h-7.014c-.748 0-1.353-.605-1.353-1.353v-6.639c0-.748.605-1.353 1.353-1.353h7.014c.748 0 1.353.605 1.353 1.353v6.639c0 .748-.605 1.353-1.353 1.353zm-5.661-2.706h4.308v-3.933h-4.308z" fill="#252526"/></g></g></g></g><g><g><path d="m31.692 87.807h-13.357v-8.966c0-6.097 1.627-12.083 4.713-17.341.881-1.5 3.05-1.5 3.93 0 3.086 5.258 4.713 11.244 4.713 17.341v8.966z" fill="#b27f47"/></g><g><path d="m31.693 89.159h-13.358c-.748 0-1.353-.605-1.353-1.353v-8.965c0-6.33 1.694-12.565 4.897-18.025 1.321-2.244 4.945-2.249 6.267 0 3.206 5.46 4.9 11.693 4.9 18.025v8.965c0 .748-.605 1.353-1.353 1.353zm-12.005-2.707h10.652v-7.612c0-5.852-1.567-11.611-4.53-16.656-.241-.412-.637-.457-.796-.457-.161 0-.558.045-.798.457-2.963 5.048-4.527 10.807-4.527 16.656v7.612z" fill="#252526"/></g></g><g><g><g><path d="m14.639 42.727h6.449v7.482h-6.449z" fill="#b27f47"/></g><g><path d="m21.089 51.562h-6.452c-.748 0-1.353-.605-1.353-1.353v-7.482c0-.748.605-1.353 1.353-1.353h6.452c.748 0 1.353.605 1.353 1.353v7.482c0 .748-.605 1.353-1.353 1.353zm-5.098-2.706h3.745v-4.776h-3.745z" fill="#252526"/></g></g><g><g><path d="m28.939 42.727h6.449v7.482h-6.449z" fill="#b27f47"/></g><g><path d="m35.388 51.562h-6.449c-.748 0-1.353-.605-1.353-1.353v-7.482c0-.748.605-1.353 1.353-1.353h6.449c.748 0 1.353.605 1.353 1.353v7.482c0 .748-.605 1.353-1.353 1.353zm-5.096-2.706h3.742v-4.776h-3.742z" fill="#252526"/></g></g></g><g><g><path d="m14.759 62.695c-.748 0-1.353-.605-1.353-1.353v-2.175c0-.748.605-1.353 1.353-1.353s1.353.605 1.353 1.353v2.175c0 .747-.605 1.353-1.353 1.353z" fill="#252526"/></g></g><g><g><path d="m35.388 62.695c-.748 0-1.353-.605-1.353-1.353v-2.175c0-.748.605-1.353 1.353-1.353s1.353.605 1.353 1.353v2.175c0 .747-.605 1.353-1.353 1.353z" fill="#252526"/></g></g><g><g><path d="m83.903 90.646h-30.108s.944-1.259 2.623-2.833c.682-.734 1.574-1.469 2.518-2.203 5.245-3.986 13.847-7.397 22.66 2.203.733.84 1.52 1.784 2.307 2.833z" fill="#c48e4e"/></g><g><path d="m83.902 92h-30.106c-.513 0-.981-.288-1.21-.748-.23-.457-.18-1.007.127-1.417.042-.056 1.036-1.374 2.78-3.01.732-.793 1.739-1.604 2.617-2.284 4.913-3.735 14.613-8.394 24.482 2.358.777.888 1.583 1.858 2.392 2.936.309.41.359.957.13 1.417-.231.457-.699.748-1.212.748zm-27.072-2.706h24.255c-.172-.201-.341-.399-.507-.589-7.971-8.68-15.723-5.891-20.821-2.014-.735.568-1.676 1.321-2.347 2.043-.204.192-.397.38-.58.56z" fill="#252526"/></g></g><g><g><path d="m58.935 85.611c-.944.734-1.836 1.469-2.518 2.203-1.679 1.574-2.623 2.833-2.623 2.833h-13.27s.996-1.311 2.675-2.833h.734v-.576c3.411-2.781 8.97-5.666 15.002-1.627z" fill="#ffbc45"/></g><g><path d="m53.796 92h-13.27c-.515 0-.983-.291-1.213-.753-.227-.46-.174-1.01.135-1.419.045-.058 1.094-1.427 2.844-3.016.143-.13.312-.227.492-.285.079-.127.18-.241.296-.338 5.645-4.604 11.386-5.201 16.611-1.699.362.241.584.642.6 1.076.013.436-.18.851-.526 1.118-.743.576-1.684 1.329-2.355 2.051-1.625 1.528-2.521 2.714-2.529 2.725-.258.339-.659.54-1.085.54zm-10.199-2.706h9.552c.452-.544 1.25-1.443 2.344-2.469.312-.336.671-.677 1.052-1.01-3.56-1.618-7.342-.93-11.259 2.077-.042.711-.629 1.274-1.351 1.274h-.204c-.044.043-.089.085-.134.128z" fill="#252526"/></g></g><g><g><g><path d="m68.358 52.8v-3.951h-3.735l1.082-20.352.975-.379c.054.054.108.054.216.108.054.054.108.108.217.108.271.163.65.325 1.028.54.759.433 1.57.813 2.382 1.245.379.164.704.325 1.029.488.27.054.433.163.595.217l1.029 21.976z" fill="#ad6244"/></g></g><g><g><path d="m73.174 54.153h-4.816c-.748 0-1.353-.605-1.353-1.353v-2.598h-2.381c-.37 0-.727-.153-.983-.423-.254-.27-.389-.632-.367-1.002l1.081-20.351c.026-.531.365-.996.859-1.189l.975-.381c.402-.164.862-.108 1.224.122.045.024.093.048.14.077.092.032.18.071.264.122.111.069.243.132.386.204.193.098.402.201.608.32.436.248.888.478 1.348.711l1.002.515c.264.111.56.254.859.404.222.061.391.137.502.185.534.177.951.685.975 1.245l1.028 21.976c.019.37-.116.729-.373.996-.253.269-.608.42-.978.42zm-3.462-2.707h2.043l-.92-19.685c-.267-.132-.539-.264-.851-.399l-1.049-.539c-.5-.254-.991-.502-1.464-.772l-.476-.251c-.003 0-.003 0-.003 0l-.941 17.695h2.307c.748 0 1.353.605 1.353 1.353v2.598zm-2.598-24.466h.005c-.002 0-.002 0-.005 0z" fill="#252526"/></g></g></g><g><g><path d="m68.758 25.913c-.152.395-.213.79-.243 1.124-.304.183-.547.395-.729.548l-.152.151v.031c-.03 0-.03 0-.03 0h-.03l-.912.364-.942.364-12.187 4.711-1.368.517-1.337.516-1.124.426-.182-.122c.303-.365.851-1.003 1.641-1.793 2.249-2.31 6.382-5.926 11.336-7.598.547-.183 1.154-.364 1.732-.486s1.064-.213 1.489-.213c.76-.061 1.367.061 1.884.213.394.426.789.851 1.154 1.247z" fill="#86b535"/></g><g><path d="m49.702 36.019c-.267 0-.531-.079-.759-.233-.315-.214-.616-.611-.671-.988-.053-.378-.037-.822.206-1.115.317-.383.893-1.057 1.726-1.89 2.114-2.173 6.486-6.111 11.859-7.921.6-.201 1.261-.396 1.89-.529.605-.127 1.197-.243 1.766-.243.941-.085 1.752.116 2.27.27.23.069.439.198.605.375l1.044 1.126c.349.378.568 1.041.386 1.522-.106.275-.143.571-.161.772-.042.423-.28.803-.645 1.025-.211.13-.381.278-.515.391v-.003c-.196.256-.476.444-.796.513l-17.726 6.84c-.156.059-.318.088-.479.088zm16.413-10.228c-.093 0-.188.003-.288.011-.415.005-.856.093-1.316.19-.531.111-1.086.28-1.586.447-3.235 1.092-6.1 3.074-8.228 4.868l12.179-4.718c.04-.037.071-.069.082-.077.087-.071.182-.153.291-.238l-.37-.399c-.222-.05-.473-.084-.764-.084z" fill="#252526"/></g></g><g><g><path d="m49.703 34.666-.426.182s.091-.122.243-.303z" fill="#86b535"/></g><g><path d="m49.279 36.201c-.407 0-.806-.185-1.068-.521-.378-.484-.383-1.163-.011-1.652l.285-.354c.449-.534 1.218-.637 1.795-.251.41.278.724.817.679 1.311-.048.492-.27.981-.724 1.176l-.426.182c-.17.075-.353.109-.53.109z" fill="#252526"/></g></g><g><g><path d="m69.883 26.368v.03c-.183 0-.304.061-.456.122 0 0 0 0-.03.03-.182-.183-.395-.425-.638-.638-.365-.395-.76-.821-1.155-1.246-.517-.152-1.124-.274-1.884-.213-.426 0-.912.091-1.489.213s-1.185.303-1.732.486c-5.926-3.009-13.372-5.956-13.372-5.956s8.054-1.125 15.074 1.732c.972.364 1.884.821 2.766 1.337.334.212.608.395.821.638.303.183.516.425.729.638.334.365.638.79.851 1.186.271.548.454 1.125.515 1.641z" fill="#86b535"/></g><g><path d="m69.411 27.889c-.003 0-.003 0-.005 0-.359 0-.722-.13-.975-.389-.299-.312-.426-.449-.566-.574l-.983-1.052c-.293-.063-.637-.106-1.055-.074-.415.005-.856.093-1.316.19-.531.111-1.086.28-1.586.447-.344.108-.716.085-1.041-.079-5.799-2.944-13.181-5.875-13.255-5.904-.574-.225-.92-.809-.846-1.419.071-.611.547-1.094 1.155-1.179.341-.053 8.492-1.147 15.771 1.821.93.344 1.903.814 2.939 1.419.336.214.695.444 1.012.761.312.217.544.455.719.634.547.589.92 1.107 1.181 1.599.359.724.584 1.443.666 2.114.008.053.011.108.011.164v.029c0 .706-.542 1.287-1.232 1.348-.185.094-.391.144-.594.144zm-13.855-7.466c2.202.962 4.728 2.109 7.054 3.272.441-.135.899-.259 1.343-.352.597-.127 1.181-.241 1.742-.243-.666-.359-1.321-.661-1.969-.901-2.749-1.121-5.677-1.599-8.17-1.776z" fill="#252526"/></g></g><g><g><path d="m70.943 23.105c-.181.121-.333.272-.514.423h-1.904c-.212-.211-.423-.453-.725-.634-.242-.242-.513-.423-.846-.634-.876-.513-1.783-.967-2.749-1.329-4.503-4.867-10.245-10.064-10.245-10.064s8.582 1.903 14.172 7.494c.514.513.997 1.058 1.451 1.662.876 1.088 1.269 2.145 1.36 3.082z" fill="#d6d350"/></g><g><path d="m70.428 24.881h-1.903c-.359 0-.703-.143-.957-.396-.251-.256-.362-.37-.46-.428-.41-.352-.611-.484-.88-.655-.835-.489-1.665-.891-2.498-1.203-.198-.077-.378-.196-.521-.349-4.406-4.765-10.101-9.93-10.16-9.98-.455-.412-.576-1.081-.293-1.625.283-.55.896-.827 1.496-.7.367.082 9.034 2.059 14.835 7.86.558.555 1.081 1.147 1.575 1.808.938 1.16 1.496 2.437 1.628 3.761.048.497-.182.981-.597 1.258-.074.048-.135.108-.204.167-.244.216-.733.482-1.061.482zm-1.342-2.706h.238c-.18-.436-.447-.87-.793-1.3-.444-.589-.883-1.086-1.353-1.554-2.302-2.302-5.164-3.951-7.662-5.082 1.721 1.668 3.687 3.629 5.468 5.542.877.349 1.75.78 2.656 1.314.428.27.777.502 1.118.843.077.018.198.118.328.237z" fill="#252526"/></g></g><g><g><path d="m74.248 5.353c-.098.781-1.141 7.233-1.662 13.164-.294.522-.587 1.043-.847 1.564-.554 1.141-.782 2.151-.749 3.031h-.033c-.098-.945-.489-1.988-1.369-3.095-.456-.587-.945-1.141-1.467-1.663 1.272-6.745 5.67-12.448 6.127-13.001z" fill="#86b535"/></g><g><path d="m70.989 24.464c-.692 0-1.306-.523-1.377-1.213-.082-.788-.447-1.591-1.084-2.392-.431-.552-.877-1.065-1.361-1.546-.317-.317-.46-.769-.375-1.21 1.409-7.469 6.362-13.551 6.412-13.611.378-.463 1.02-.618 1.58-.381.552.238.88.811.806 1.409l-.148 1.012c-.325 2.188-1.089 7.313-1.509 12.105-.016.19-.074.378-.169.544-.283.502-.563 1.002-.814 1.501-.426.88-.634 1.686-.608 2.381.013.365-.124.722-.378.986-.256.267-.608.415-.975.415zm-1.398-6.536c.37.402.727.822 1.065 1.255.003.005.008.011.013.016.19-.367.391-.729.595-1.092.206-2.294.486-4.641.756-6.703-.96 1.87-1.893 4.119-2.429 6.524z" fill="#252526"/></g></g><g><g><path d="m89.495 20.083s-9.155 3.354-15.35 6.527c-.181-.091-.393-.15-.604-.211-.121-.031-.181-.031-.272-.06-.393-.091-.755-.151-1.118-.212h-.151c-.544-.06-1.088-.03-1.541.091-.181.03-.423.091-.574.15-.06-.513-.242-1.087-.513-1.631.242-.423.604-.816 1.058-1.209.181-.15.332-.302.514-.423h.06c.181-.121.362-.242.574-.393.242-.121.483-.241.755-.392 1.39-.725 2.931-1.269 4.412-1.662 6.405-1.663 12.75-.575 12.75-.575z" fill="#d6d350"/></g><g><path d="m74.144 27.963c-.206 0-.415-.048-.605-.143-.111-.056-.243-.085-.37-.122-.568-.124-.904-.182-1.242-.238-.463-.04-.838-.013-1.123.063-.214.042-.352.074-.439.108-.394.143-.827.106-1.181-.108-.357-.217-.595-.584-.642-.999-.045-.359-.18-.78-.381-1.184s-.188-.883.034-1.274c.299-.523.724-1.02 1.345-1.559.328-.283.481-.415.653-.529.079-.053.164-.098.251-.132l1.232-.711c1.393-.729 2.973-1.324 4.723-1.787 6.615-1.715 13.051-.642 13.326-.6.603.106 1.062.603 1.118 1.213.056.611-.307 1.181-.883 1.393-.09.032-9.15 3.362-15.2 6.459-.193.1-.404.15-.616.15zm-2.703-3.222c.23 0 .47.013.711.04.611.077.999.14 1.419.238.024.005.32.071.344.079.048.013.095.026.14.04 2.868-1.435 6.23-2.876 9.042-4.017-1.845.074-3.93.307-6.01.848-1.551.407-2.942.93-4.128 1.551l-1.205.711c-.055.037-.114.071-.174.098-.119.1-.28.238-.288.243-.069.061-.135.122-.198.18.111-.008.228-.011.347-.011z" fill="#252526"/></g></g><g><g><path d="m87.904 37.461s-9.056-4.376-15.62-6.594c-.03 0-.091-.031-.122-.031-.152-.061-.335-.151-.608-.243-.304-.152-.669-.304-1.034-.486-.79-.395-1.641-.821-2.401-1.216-.364-.183-.729-.364-1.003-.516-.091-.03-.152-.061-.243-.122s-.152-.091-.213-.122l.912-.364h.03.03v-.031l.152-.151c.182-.152.425-.365.729-.548.03-.334.091-.729.243-1.124.243.213.456.456.638.638.03-.03.03-.03.03-.03.152-.061.273-.122.456-.122v-.03c.152-.06.395-.121.577-.152.456-.121 1.003-.151 1.55-.091h.152c.365.061.729.122 1.094.212.091.03.152.03.273.061.213.061.426.122.608.213 8.118 2.614 13.77 10.849 13.77 10.849z" fill="#86b535"/></g><g><path d="m87.904 38.815c-.201 0-.402-.045-.589-.135-.09-.042-9.013-4.345-15.419-6.515-.016-.005-.029-.008-.045-.013-.063-.016-.127-.034-.188-.058l-2.151-.978c-.677-.341-1.38-.692-2.017-1.025-.359-.18-.74-.37-1.028-.529-.032-.019-.307-.159-.336-.177-.486-.233-.814-.745-.796-1.282s.325-1.028.825-1.226l.716-.288c.04-.037.071-.069.082-.077.09-.074.19-.159.299-.246.05-.254.124-.539.235-.835.159-.415.51-.727.941-.833s.885.003 1.218.299c.034.029.069.061.103.093.172-.048.341-.085.473-.106.497-.14 1.197-.182 1.932-.103.624.077 1.023.145 1.419.243.621.159.914.251 1.171.381 8.257 2.643 14.029 10.939 14.269 11.291.349.507.312 1.184-.09 1.649-.26.306-.638.47-1.024.47zm-15.314-9.266c.042.011.085.024.127.037 3.195 1.078 6.925 2.64 9.959 3.98-2.284-2.167-5.384-4.514-8.954-5.667-.307-.135-.436-.164-.563-.198-.071-.013-.283-.063-.352-.087-.206-.045-.537-.098-.867-.153-.476-.037-.848-.013-1.131.063l-.312.074c-.148.079-.315.132-.492.148-.135.066-.283.114-.431.132-.048.058-.098.111-.153.161.433.219.872.439 1.303.655l1.44.69c.053.003.23.079.378.143l-.003.008c.017.006.035.009.051.014z" fill="#252526"/></g></g><g><g><path d="m85.261 8.024s-5.05 6.81-8.504 12.643c-1.499.391-3.031.912-4.432 1.662-.261.13-.521.26-.749.391-.196.13-.391.261-.586.391-.033-.88.195-1.89.749-3.031.261-.521.554-1.042.847-1.564 4.366-6.777 12.675-10.492 12.675-10.492z" fill="#86b535"/></g><g><path d="m70.989 24.464c-.211 0-.423-.05-.618-.151-.436-.222-.716-.663-.735-1.155-.04-1.142.259-2.376.888-3.671.272-.552.579-1.094.883-1.633 4.572-7.107 12.947-10.908 13.301-11.064.552-.256 1.224-.095 1.607.386.386.481.399 1.16.032 1.655-.05.069-5.048 6.824-8.428 12.525-.18.307-.476.529-.822.618-1.628.426-2.981.933-4.134 1.549-.338.169-.539.27-.719.373l-.507.344c-.228.147-.487.224-.748.224zm9.459-12.002c-2.313 1.668-4.9 3.957-6.726 6.787-.209.375-.449.803-.671 1.237.872-.373 1.803-.695 2.823-.983 1.434-2.384 3.107-4.905 4.574-7.041z" fill="#252526"/></g></g></g></g></g></svg>