<svg id="Capa_1" enable-background="new 0 0 511 511" height="512" viewBox="0 0 511 511" width="512" xmlns="http://www.w3.org/2000/svg"><g><path d="m431.632 464.45h-248.036v-367.018c0-13.059 10.586-23.645 23.645-23.645h200.746c13.059 0 23.645 10.586 23.645 23.645z" fill="#f6a96c"/><path d="m366.601 130.887c-9.923 0-17.967 8.044-17.967 17.967v315.596h82.998v-333.563z" fill="#ea9b58"/><path d="m123.206 175.393v-47.267c0-7.24-5.869-13.109-13.109-13.109h-62.185c-7.24 0-13.109 5.869-13.109 13.109v47.267l44.201 8.703z" fill="#c57a44"/><path d="m123.206 251.109v-75.716h-88.403v67.901z" fill="#ac5e2e"/><path d="m183.596 334.221h248.036v130.228h-248.036z" fill="#ea9b58"/><path d="m348.634 334.221h82.998v130.228h-82.998z" fill="#d6854a"/><path d="m254.811 181.497h-15c-4.397 0-7.961-3.564-7.961-7.961v-39.263c0-8.539 6.922-15.461 15.462-15.461 8.539 0 15.461 6.922 15.461 15.461v39.263c-.001 4.397-3.566 7.961-7.962 7.961z" fill="#fafbfa"/><path d="m324.594 181.497h-15c-4.397 0-7.961-3.564-7.961-7.961v-39.263c0-8.539 6.922-15.461 15.461-15.461 8.539 0 15.461 6.922 15.461 15.461v39.263c0 4.397-3.564 7.961-7.961 7.961z" fill="#fafbfa"/><path d="m262.772 73.787h-37.785v-23.899c0-5.709 4.628-10.338 10.338-10.338h17.109c5.709 0 10.338 4.628 10.338 10.338z" fill="#c57a44"/><path d="m328.167 73.787h-37.785v-23.899c0-5.709 4.629-10.338 10.338-10.338h17.109c5.71 0 10.338 4.628 10.338 10.338z" fill="#c57a44"/><path d="m393.563 73.787h-37.785v-23.899c0-5.709 4.628-10.338 10.338-10.338h17.109c5.709 0 10.338 4.628 10.338 10.338z" fill="#c57a44"/><path d="m309.275 464.45h-274.472v-221.156c0-13.961 11.318-25.279 25.278-25.279h223.915c13.961 0 25.279 11.318 25.279 25.279z" fill="#fed2a4"/><path d="m283.996 218.016h-4.721v213.632c0 1.548-1.255 2.802-2.802 2.802h-241.67v30h274.472v-221.156c0-13.961-11.318-25.278-25.279-25.278z" fill="#ffbd86"/><path d="m476.198 464.45h-104.783v-285.596c0-9.923 8.044-17.967 17.967-17.967h68.849c9.923 0 17.967 8.044 17.967 17.967z" fill="#fed2a4"/><path d="m458.23 160.887h-12.033v217.663c0 30.873-25.027 55.9-55.9 55.9h-18.882v30h104.783v-285.596c0-9.923-8.045-17.967-17.968-17.967z" fill="#ffbd86"/><path d="m371.415 334.221h104.783v130.228h-104.783z" fill="#ffe5c2"/><path d="m34.803 404.547h274.472v59.903h-274.472z" fill="#ffe5c2"/><path d="m446.198 334.221v50.835c0 27.279-22.114 49.393-49.393 49.393h-25.389v30h104.783v-130.228z" fill="#fed2a4"/><path d="m279.275 404.547c0 16.515-13.388 29.903-29.903 29.903h-214.569v30h274.472v-59.903z" fill="#fed2a4"/><path d="m207.902 464.45h-71.725v-94.657c0-11.504 9.326-20.83 20.83-20.83h30.065c11.504 0 20.83 9.326 20.83 20.83z" fill="#ea9b58"/><path d="m136.176 434.45h71.725v30h-71.725z" fill="#d88a55"/><g fill="#fafbfa"><path d="m103.599 316.353h-20.895c-4.908 0-8.886-3.978-8.886-8.886v-40.165c0-10.678 8.656-19.333 19.333-19.333 10.678 0 19.333 8.656 19.333 19.333v40.165c.001 4.908-3.978 8.886-8.885 8.886z"/><path d="m182.737 316.353h-20.895c-4.908 0-8.886-3.978-8.886-8.886v-40.165c0-10.678 8.656-19.333 19.333-19.333 10.678 0 19.333 8.656 19.333 19.333v40.165c.001 4.908-3.977 8.886-8.885 8.886z"/><path d="m261.374 316.353h-20.895c-4.908 0-8.886-3.978-8.886-8.886v-40.165c0-10.678 8.656-19.333 19.333-19.333 10.677 0 19.333 8.656 19.333 19.333v40.165c.001 4.908-3.977 8.886-8.885 8.886z"/><path d="m432.883 259.359h-15c-4.397 0-7.961-3.565-7.961-7.961v-39.263c0-8.539 6.922-15.461 15.461-15.461 8.539 0 15.461 6.922 15.461 15.461v39.263c0 4.396-3.564 7.961-7.961 7.961z"/><path d="m432.883 359.878h-15c-4.397 0-7.961-3.564-7.961-7.961v-39.263c0-8.539 6.922-15.461 15.461-15.461 8.539 0 15.461 6.922 15.461 15.461v39.263c0 4.397-3.564 7.961-7.961 7.961z"/><path d="m86.505 190.766h-15c-4.397 0-7.962-3.564-7.962-7.962v-19.263c0-8.539 6.922-15.461 15.462-15.461 8.539 0 15.462 6.922 15.462 15.461v19.263c-.001 4.397-3.566 7.962-7.962 7.962z"/></g><path d="m504 471.45h-497c-3.866 0-7-3.134-7-7s3.134-7 7-7h497c3.866 0 7 3.134 7 7s-3.134 7-7 7z" fill="#c57a44"/></g></svg>