<svg height="512pt" viewBox="-12 0 512 512.00083" width="512pt" xmlns="http://www.w3.org/2000/svg"><path d="m135.535156 478.710938 21.179688-62.648438c17.859375-52.828125 23.035156-109.117188 15.105468-164.316406l-8.480468-59.007813 53.722656-10.363281 26.011719 87.691406c11.027343 37.179688 15.890625 75.917969 14.402343 114.671875l-3.738281 97.214844c-.1875 4.855469-4.175781 8.695313-9.03125 8.695313h-100.609375c-6.1875 0-10.546875-6.078126-8.5625-11.9375zm0 0" fill="#ddaf89"/><path d="m66.8125 180.496094c36.359375 16.980468 78.257812 8.964844 98.375 3.339844 6.6875-1.867188 10.121094-9.246094 7.253906-15.574219-8.632812-19.050781-29.433594-56.347657-65.792968-73.324219-36.359376-16.980469-78.257813-8.96875-98.378907-3.34375-6.683593 1.867188-10.117187 9.246094-7.25 15.578125 8.632813 19.050781 29.433594 56.34375 65.792969 73.324219zm0 0" fill="#69ab8d"/><path d="m128.324219 164.644531c-1.0625 0-2.144531-.226562-3.167969-.707031l-83.199219-38.851562c-3.753906-1.753907-5.375-6.21875-3.621093-9.96875 1.753906-3.753907 6.214843-5.378907 9.96875-3.625l83.199218 38.855468c3.753906 1.753906 5.375 6.214844 3.621094 9.96875-1.273438 2.726563-3.976562 4.328125-6.800781 4.328125zm0 0" fill="#99da90"/><path d="m268.964844 106.808594c-16.953125 36.414062-54.191406 57.246094-73.214844 65.890625-6.320312 2.871093-13.6875-.570313-15.554688-7.265625-5.613281-20.152344-13.617187-62.109375 3.335938-98.523438 16.957031-36.414062 54.195312-57.246094 73.21875-65.890625 6.320312-2.871093 13.6875.566407 15.554688 7.265625 5.613281 20.148438 13.617187 62.109375-3.339844 98.523438zm0 0" fill="#69ab8d"/><path d="m206.847656 136.023438c-1.058594 0-2.136718-.226563-3.160156-.703126-3.757812-1.75-5.382812-6.210937-3.632812-9.964843l38.792968-83.324219c1.75-3.753906 6.210938-5.378906 9.964844-3.632812 3.757812 1.75 5.382812 6.210937 3.636719 9.964843l-38.796875 83.324219c-1.273438 2.730469-3.980469 4.335938-6.804688 4.335938zm0 0" fill="#99da90"/><path d="m74.113281 162.402344c37.695313-13.742188 78.738281-2.101563 98.292969 5.257812 6.5 2.445313 9.277344 10.09375 5.871094 16.148438-10.257813 18.226562-34.226563 53.5625-71.925782 67.304687-37.695312 13.742188-78.738281 2.101563-98.292968-5.257812-6.5-2.445313-9.277344-10.09375-5.871094-16.152344 10.257812-18.222656 34.226562-53.558594 71.925781-67.300781zm0 0" fill="#99da90"/><path d="m47.101562 229.980469c-3.0625 0-5.9375-1.886719-7.046874-4.933594-1.417969-3.890625.585937-8.195313 4.480468-9.613281l86.261719-31.445313c3.890625-1.417969 8.195313.585938 9.617187 4.476563 1.417969 3.894531-.589843 8.195312-4.480468 9.617187l-86.265625 31.441407c-.847657.3125-1.714844.457031-2.566407.457031zm0 0" fill="#69ab8d"/><path d="m251.761719 97.648438c-37.699219 13.742187-61.667969 49.078124-71.925781 67.300781-3.40625 6.058593-.628907 13.707031 5.871093 16.152343 19.554688 7.359376 60.59375 19 98.292969 5.257813s61.667969-49.078125 71.925781-67.304687c3.40625-6.054688.628907-13.707032-5.871093-16.152344-19.554688-7.355469-60.597657-18.996094-98.292969-5.253906zm0 0" fill="#99da90"/><path d="m224.75 165.226562c-3.0625 0-5.9375-1.890624-7.046875-4.933593-1.417969-3.890625.585937-8.195313 4.476563-9.613281l86.265624-31.445313c3.890626-1.417969 8.195313.585937 9.613282 4.476563 1.417968 3.894531-.585938 8.195312-4.476563 9.617187l-86.265625 31.441406c-.847656.3125-1.714844.457031-2.566406.457031zm0 0" fill="#69ab8d"/><path d="m195.628906 81.964844c13.71875 37.753906 2.097656 78.855468-5.25 98.441406-2.441406 6.507812-10.082031 9.292969-16.128906 5.878906-18.199219-10.273437-53.484375-34.277344-67.203125-72.03125-13.722656-37.753906-2.097656-78.855468 5.25-98.441406 2.441406-6.503906 10.078125-9.289062 16.125-5.875 18.199219 10.269531 53.484375 34.273438 67.207031 72.027344zm0 0" fill="#99da90"/><path d="m167.039062 148.808594c-3.066406 0-5.945312-1.894532-7.050781-4.941406l-31.398437-86.390626c-1.414063-3.894531.59375-8.195312 4.488281-9.609374 3.890625-1.417969 8.191406.59375 9.609375 4.484374l31.398438 86.390626c1.414062 3.894531-.59375 8.199218-4.488282 9.613281-.84375.304687-1.710937.453125-2.558594.453125zm0 0" fill="#69ab8d"/><path d="m185.199219 197.367188c7.484375 20.589843-3.117188 43.355468-23.675781 50.851562-20.558594 7.492188-43.292969-3.121094-50.773438-23.714844-7.484375-20.589844 3.117188-43.355468 23.675781-50.847656 20.558594-7.496094 43.292969 3.121094 50.773438 23.710938zm0 0" fill="#ddaf89"/><path d="m189.101562 195.945312c7.484376 20.589844 30.21875 31.203126 50.777344 23.710938 20.558594-7.496094 31.160156-30.261719 23.675782-50.851562-7.480469-20.589844-30.214844-31.207032-50.773438-23.710938-20.5625 7.492188-31.160156 30.261719-23.679688 50.851562zm0 0" fill="#ddaf89"/><g fill="#cb8a5a"><path d="m230.65625 180.796875c8.746094 24.0625-3.644531 50.667969-27.667969 59.425781-24.027343 8.757813-50.597656-3.648437-59.339843-27.710937-8.746094-24.0625 3.640624-50.667969 27.667968-59.425781 24.027344-8.757813 50.59375 3.648437 59.339844 27.710937zm0 0"/><path d="m172.464844 347.992188c-.664063 5.128906-1.441406 10.246093-2.332032 15.339843 20.578126-2.230469 65.417969-8.308593 87.007813-12.527343-.285156-5.019532-.675781-10.027344-1.175781-15.027344-17.875 3.640625-61 9.636718-83.5 12.214844zm0 0"/><path d="m175.257812 291.535156c20.214844-4.039062 50.449219-10.621094 69.507813-15.542968-.550781-1.980469-1.109375-3.957032-1.691406-5.929688l-2.507813-8.453125c-17.570312 4.5-46.160156 10.773437-66.085937 14.796875.367187 5.042969.625 10.085938.777343 15.128906zm0 0"/><path d="m255.328125 440.632812.578125-15.015624c-16.082031.847656-77.914062-2.761719-100.769531-4.890626l-4.925781 14.578126c17.675781 1.84375 73.96875 5.410156 99.355468 5.410156 2.160156 0 4.089844-.027344 5.761719-.082032zm0 0"/></g><path d="m371.300781 507.984375c-1.695312 0-3.414062-.191406-5.136719-.585937-12.351562-2.832032-20.074218-15.152344-17.25-27.523438 6.183594-27.070312-6.964843-55.9375-7.097656-56.222656-5.433594-11.464844-.558594-25.167969 10.890625-30.609375 11.453125-5.445313 25.132813-.558594 30.566407 10.90625.828124 1.746093 20.171874 43.296875 10.375 86.175781-2.433594 10.644531-11.886719 17.859375-22.347657 17.859375zm0 0" fill="#5f75a1"/><path d="m350.492188 467.730469c-.167969 4.019531-.652344 8.101562-1.574219 12.144531-2.828125 12.367188 4.894531 24.691406 17.246093 27.523438 1.722657.394531 3.445313.585937 5.140626.585937 10.457031 0 19.910156-7.214844 22.34375-17.859375 1.34375-5.871094 2.132812-11.71875 2.503906-17.441406zm0 0" fill="#f8dccc"/><path d="m292.742188 512c-10.816407 0-20.445313-7.691406-22.519532-18.726562-7.085937-37.640626-.40625-81.199219-.121094-83.035157 1.96875-12.539062 13.699219-21.109375 26.226563-19.136719 12.511719 1.964844 21.0625 13.710938 19.113281 26.242188-.058594.371094-5.71875 37.691406-.125 67.417969 2.347656 12.46875-5.84375 24.484375-18.296875 26.835937-1.433593.273438-2.867187.402344-4.277343.402344zm0 0" fill="#5f75a1"/><path d="m315.316406 484.761719c-.8125-4.308594-1.382812-8.78125-1.769531-13.273438l-45.839844 2.347657c.507813 6.496093 1.3125 13.050781 2.515625 19.4375 2.074219 11.035156 11.703125 18.726562 22.519532 18.726562 1.410156 0 2.84375-.128906 4.277343-.402344 12.453125-2.351562 20.644531-14.363281 18.296875-26.835937zm0 0" fill="#f8dccc"/><path d="m238.863281 369.859375c17.539063 0 34.296875-5.65625 48.230469-16.632813 9.960938-7.847656 11.683594-22.292968 3.847656-32.269531-7.832031-9.972656-22.257812-11.695312-32.21875-3.851562-8.769531 6.910156-20.707031 8.589843-32.75 4.621093-15.792968-5.203124-27.988281-18.386718-32.625-35.269531-3.359375-12.234375-15.988281-19.425781-28.210937-16.058593-12.214844 3.367187-19.394531 16.011718-16.035157 28.25 8.722657 31.757812 32.097657 56.707031 62.527344 66.734374 9.101563 2.996094 18.269532 4.476563 27.234375 4.476563zm0 0" fill="#f8dccc"/><path d="m441.683594 392.652344c14.222656 0 27.433594-4.3125 38.089844-12.578125 10.015624-7.773438 11.847656-22.207031 4.085937-32.238281-7.765625-10.03125-22.175781-11.863282-32.191406-4.09375-4.398438 3.414062-10.425781 3.261718-14.707031 2.535156-12.246094-2.082032-25.285157-11.347656-33.21875-23.613282-6.894532-10.644531-21.101563-13.683593-31.734376-6.78125-10.632812 6.902344-13.664062 21.132813-6.773437 31.78125 15.042969 23.238282 38.984375 39.660157 64.042969 43.921876 4.191406.714843 8.34375 1.066406 12.40625 1.066406zm0 0" fill="#f8dccc"/><path d="m406.234375 363.875c0-49.945312-35.179687-90.433594-78.578125-90.433594-43.394531 0-78.574219 40.488282-78.574219 90.433594 0 49.949219 35.179688 79.519531 78.574219 79.519531 43.398438 0 78.578125-29.570312 78.578125-79.519531zm0 0" fill="#a0d9e7"/><path d="m257.933594 403.195312c13.101562 25.742188 39.394531 40.199219 69.722656 40.199219s56.625-14.457031 69.722656-40.199219zm0 0" fill="#5f75a1"/><path d="m487.472656 249.910156c1.386719-15.835937-12.585937-30-31.203125-31.628906-18.617187-1.632812-34.828125 9.886719-36.214843 25.722656-1.382813 15.839844 12.589843 30 31.207031 31.628906 18.617187 1.632813 34.828125-9.882812 36.210937-25.722656zm0 0" fill="#f0cdb9"/><path d="m170.796875 222.164062c1.382813-15.835937 17.597656-27.351562 36.214844-25.722656 18.617187 1.632813 32.585937 15.792969 31.203125 31.628906-1.382813 15.839844-17.597656 27.355469-36.214844 25.722657-18.617188-1.628907-32.585938-15.789063-31.203125-31.628907zm0 0" fill="#f8dccc"/><path d="m457.773438 247.308594c5.65625-64.753906-47.351563-122.292969-118.394532-128.515625-71.042968-6.226563-133.222656 41.222656-138.878906 105.976562-5.65625 64.75 48.644531 107.480469 119.6875 113.707031 71.042969 6.222657 131.929688-26.414062 137.585938-91.167968zm0 0" fill="#f8dccc"/><path d="m274.007812 128.710938c-40.386718 16.847656-69.707031 52.542968-73.507812 96.054687-5.65625 64.753906 48.644531 107.484375 119.6875 113.710937 6.492188.566407 12.898438.808594 19.1875.734376-127.246094-43.648438-106.402344-158.023438-65.367188-210.5zm0 0" fill="#f0cdb9"/><path d="m276.992188 259.859375c-1.117188 12.796875-15.03125 22.03125-31.078126 20.625-16.042968-1.40625-28.144531-12.921875-27.027343-25.714844 1.117187-12.796875 15.03125-22.03125 31.078125-20.625 16.042968 1.40625 28.144531 12.917969 27.027344 25.714844zm0 0" fill="#f8b8bd"/><path d="m376.359375 268.566406c-1.121094 12.796875 10.980469 24.308594 27.027344 25.714844 16.042969 1.40625 29.957031-7.828125 31.074219-20.625 1.117187-12.796875-10.984376-24.308594-27.027344-25.714844-16.046875-1.40625-29.957032 7.828125-31.074219 20.625zm0 0" fill="#f8b8bd"/><path d="m280.910156 242.296875c-.21875 0-.4375-.011719-.660156-.027344-4.128906-.363281-7.179688-4-6.820312-8.125.308593-3.519531-2.296876-6.628906-5.800782-6.9375-1.699218-.148437-3.347656.375-4.652344 1.46875-1.308593 1.101563-2.109374 2.644531-2.257812 4.347657-.359375 4.128906-3.996094 7.175781-8.125 6.820312-4.128906-.359375-7.179688-3.996094-6.820312-8.125.496093-5.691406 3.179687-10.851562 7.554687-14.527344 4.375-3.675781 9.914063-5.433594 15.609375-4.925781 11.742188 1.027344 20.464844 11.425781 19.4375 23.183594-.34375 3.902343-3.617188 6.847656-7.464844 6.847656zm0 0" fill="#404656"/><path d="m404.519531 253.125c-.21875 0-.441406-.007812-.660156-.027344-4.128906-.359375-7.183594-3.996094-6.820313-8.125.308594-3.515625-2.296874-6.628906-5.800781-6.933594-1.699219-.148437-3.351562.371094-4.652343 1.46875-1.308594 1.097657-2.113282 2.644532-2.261719 4.347657-.359375 4.125-4.003907 7.171875-8.121094 6.820312-4.128906-.359375-7.183594-3.996093-6.820313-8.125.496094-5.691406 3.179688-10.851562 7.550782-14.527343 4.375-3.675782 9.925781-5.429688 15.613281-4.929688 11.742187 1.027344 20.460937 11.429688 19.4375 23.183594-.34375 3.90625-3.621094 6.847656-7.464844 6.847656zm0 0" fill="#404656"/><path d="m328.578125 269.453125c-.78125 0-1.566406-.035156-2.355469-.101563-7.78125-.683593-14.886718-4.707031-19.492187-11.039062-2.4375-3.351562-1.695313-8.039062 1.652343-10.476562 3.351563-2.433594 8.042969-1.695313 10.480469 1.652343 2.050781 2.824219 5.210938 4.617188 8.671875 4.917969 3.453125.300781 6.878906-.910156 9.390625-3.332031 2.980469-2.875 7.730469-2.792969 10.605469.191406 2.875 2.980469 2.789062 7.726563-.191406 10.605469-5.066406 4.882812-11.800782 7.582031-18.761719 7.582031zm0 0" fill="#404656"/><path d="m457.832031 229.144531c-4.609375-57.027343-54.136719-104.714843-118.453125-110.351562s-121.363281 32.71875-135.789062 88.074219c20.925781-1.65625 49.433594-16.511719 66.074218-35.070313.023438 8.628906 2.015626 15.039063 4.242188 19.820313.613281 1.324218 2.003906 2.125 3.449219 1.921874 15.894531-2.210937 51.007812-19.953124 58.445312-33.8125 4.921875 14.941407 36.421875 38.523438 51.695313 43.464844 1.386718.449219 2.894531-.09375 3.730468-1.292968 3.023438-4.324219 6.09375-10.289063 7.613282-18.785157 13.171875 21.171875 38.667968 40.757813 58.992187 46.03125zm0 0" fill="#404656"/><path d="m274 128.71875c-34.6875 14.476562-61.210938 42.851562-70.410156 78.148438 12.621094-1 27.992187-6.800782 41.859375-15.316407 5.015625-24.265625 15.808593-46.535156 28.550781-62.832031zm0 0" fill="#353947"/></svg>