<svg id="Capa_1" enable-background="new 0 0 512 512" height="512" viewBox="0 0 512 512" width="512" xmlns="http://www.w3.org/2000/svg"><g><g><path d="m82.828 391.875h-67.562c-4.143 0-7.5 3.357-7.5 7.5s3.357 7.5 7.5 7.5h67.563v-15z" fill="#fbc56d"/><path d="m298.156 177.125c2.507 0 4.547 2.04 4.547 4.547v33.172h47.38c2.014 0 3.651 1.638 3.651 3.651v26.197c0 3.116 2.535 5.651 5.651 5.651h26.197c2.014 0 3.651 1.638 3.651 3.651v26.197c0 3.116 2.535 5.651 5.651 5.651h26.197c2.014 0 3.651 1.638 3.651 3.651v26.197c0 3.116 2.535 5.651 5.651 5.651h19.755v-298.31c0-3.063-2.483-5.547-5.547-5.547h-186.372v24.406h-51.031v-24.406h-56.578c-3.063 0-5.547 2.483-5.547 5.547v154.094z" fill="#fdd79b"/><path d="m179 177.125v-154.094c0-3.063 2.483-5.547 5.547-5.547h-33.938c-3.063 0-5.547 2.483-5.547 5.547v154.094z" fill="#fccd7f"/><g><path d="m461.234 351.192v-26.197c0-2.569-2.082-4.651-4.651-4.651h-26.197c-2.569 0-4.651-2.082-4.651-4.651v-26.197c0-2.569-2.082-4.651-4.651-4.651h-26.197c-2.569 0-4.651-2.082-4.651-4.651v-26.197c0-2.569-2.082-4.651-4.651-4.651h-26.197c-2.569 0-4.651-2.082-4.651-4.651v-26.197c0-2.569-2.082-4.651-4.651-4.651h-46.38l-.942 3.414c-.111.403-.167.819-.167 1.237v188.38h189.489c2.569 0 4.651-2.082 4.651-4.651v-41.729c0-2.569-2.082-4.651-4.651-4.651h-26.197c-2.572-.003-4.655-2.086-4.655-4.655z" fill="#e9b665"/></g><g><path d="m303.703 213.844-.942 3.414c-.111.403-.167.819-.167 1.237v188.38h23.406v-193.031z" fill="#d8aa5e"/></g><path d="m265.719 177.125v-169.625c0-4.143-3.357-7.5-7.5-7.5s-7.5 3.357-7.5 7.5v169.625z" fill="#6d3326"/><path d="m214.688 177.125v-169.625c0-4.143-3.357-7.5-7.5-7.5s-7.5 3.357-7.5 7.5v169.625z" fill="#6d3326"/><path d="m82.828 207.309-63.892 22.966c-2.202.792-3.671 2.88-3.671 5.22v13.849c0 3.063 2.483 5.547 5.547 5.547h62.016z" fill="#fd5426"/><path d="m82.828 207.309-63.892 22.966c-2.202.792-3.671 2.88-3.671 5.22v13.849c0 3.063 2.483 5.547 5.547 5.547h20.188v-11.287c0-2.34 1.469-4.428 3.671-5.22l38.157-13.716z" fill="#ef4424"/><g><path d="m303.703 406.875h-221.875v-225.203c0-3.063 2.483-5.547 5.547-5.547h210.781c3.063 0 5.547 2.483 5.547 5.547z" fill="#fbc56d"/></g><g><path d="m120.672 176.125h-33.297c-3.063 0-5.547 2.483-5.547 5.547v225.203h33.297v-225.203c0-3.064 2.483-5.547 5.547-5.547z" fill="#e9b665"/></g><g fill="#d88a55"><path d="m146.063 305.922h-29.289c-1.838 0-3.328 1.49-3.328 3.328v54.359c0 1.838 1.49 3.328 3.328 3.328h29.289z"/><path d="m268.758 305.922h-29.289v61.016h29.289c1.838 0 3.328-1.49 3.328-3.328v-54.36c0-1.838-1.49-3.328-3.328-3.328z"/></g><path d="m235.469 279.487h-85.406c-2.761 0-5 2.239-5 5v122.388h27.734l1-3.31v-93.015c0-1.284 1.044-2.328 2.328-2.328h33.281c1.284 0 2.328 1.044 2.328 2.328v92.936l1 3.389h27.734v-122.388c.001-2.761-2.238-5-4.999-5z" fill="#ffe5c2"/><g><path d="m172.797 406.875v-96.325c0-1.838 1.49-3.328 3.328-3.328h33.281c1.838 0 3.328 1.49 3.328 3.328v96.325z" fill="#6354b1"/></g><g><path d="m192.391 307.222h-16.266c-1.838 0-3.328 1.49-3.328 3.328v96.325h16.266v-96.325c0-1.838 1.489-3.328 3.328-3.328z" fill="#54469c"/></g><g><path d="m382.469 406.875v-46.403c0-11.028-8.94-19.969-19.969-19.969-11.028 0-19.969 8.94-19.969 19.969v46.403z" fill="#d88a55"/></g><g><path d="m370.766 342.31c-2.521-1.149-5.314-1.807-8.266-1.807-11.028 0-19.969 8.94-19.969 19.969v46.403h16.531v-46.403c.001-8.077 4.805-15.017 11.704-18.162z" fill="#c57a44"/></g><g><g><path d="m146.172 242.688h-27.734c-1.838 0-3.328-1.49-3.328-3.328v-27.734c0-1.838 1.49-3.328 3.328-3.328h27.734c1.838 0 3.328 1.49 3.328 3.328v27.734c0 1.837-1.49 3.328-3.328 3.328z" fill="#d88a55"/></g><g><path d="m208.297 242.688h-27.734c-1.838 0-3.328-1.49-3.328-3.328v-27.734c0-1.838 1.49-3.328 3.328-3.328h27.734c1.838 0 3.328 1.49 3.328 3.328v27.734c0 1.837-1.49 3.328-3.328 3.328z" fill="#d88a55"/></g><g><path d="m270.422 242.688h-27.734c-1.838 0-3.328-1.49-3.328-3.328v-27.734c0-1.838 1.49-3.328 3.328-3.328h27.734c1.838 0 3.328 1.49 3.328 3.328v27.734c0 1.837-1.49 3.328-3.328 3.328z" fill="#d88a55"/></g></g><g><path d="m402.438 160.594h-69.891c-3.063 0-5.547-2.483-5.547-5.547v-69.891c0-3.063 2.483-5.547 5.547-5.547h69.891c3.063 0 5.547 2.483 5.547 5.547v69.891c-.001 3.063-2.484 5.547-5.547 5.547z" fill="#d88a55"/></g><g><path d="m352.016 155.047v-69.891c0-3.063 2.483-5.547 5.547-5.547h-25.016c-3.063 0-5.547 2.483-5.547 5.547v69.891c0 3.063 2.483 5.547 5.547 5.547h25.016c-3.064 0-5.547-2.484-5.547-5.547z" fill="#c57a44"/></g></g><g><path d="m125.094 460.969h-109.828c-4.143 0-7.5-3.357-7.5-7.5s3.357-7.5 7.5-7.5h109.828c4.143 0 7.5 3.357 7.5 7.5s-3.358 7.5-7.5 7.5z" fill="#e9b665"/></g><g><path d="m310.359 460.969h-100.953c-4.143 0-7.5-3.357-7.5-7.5s3.357-7.5 7.5-7.5h100.953c4.143 0 7.5 3.357 7.5 7.5s-3.357 7.5-7.5 7.5z" fill="#fbc56d"/></g><g><path d="m178.344 512h-47.703c-4.143 0-7.5-3.357-7.5-7.5s3.357-7.5 7.5-7.5h47.703c4.143 0 7.5 3.357 7.5 7.5s-3.358 7.5-7.5 7.5z" fill="#fbc56d"/></g><g><path d="m391.344 512h-65.453c-4.143 0-7.5-3.357-7.5-7.5s3.357-7.5 7.5-7.5h65.453c4.143 0 7.5 3.357 7.5 7.5s-3.358 7.5-7.5 7.5z" fill="#fbc56d"/></g><g><path d="m496.734 460.969h-109.828c-4.143 0-7.5-3.357-7.5-7.5s3.357-7.5 7.5-7.5h109.828c4.143 0 7.5 3.357 7.5 7.5s-3.357 7.5-7.5 7.5z" fill="#e9b665"/></g><g><path d="m65.264 512h-20.045c-4.143 0-7.5-3.357-7.5-7.5s3.357-7.5 7.5-7.5h20.045c4.143 0 7.5 3.357 7.5 7.5s-3.358 7.5-7.5 7.5z" fill="#e9b665"/></g><g><path d="m263.766 512h-20.045c-4.143 0-7.5-3.357-7.5-7.5s3.357-7.5 7.5-7.5h20.045c4.143 0 7.5 3.357 7.5 7.5s-3.358 7.5-7.5 7.5z" fill="#e9b665"/></g><g><path d="m463.529 512h-20.045c-4.143 0-7.5-3.357-7.5-7.5s3.357-7.5 7.5-7.5h20.045c4.143 0 7.5 3.357 7.5 7.5s-3.357 7.5-7.5 7.5z" fill="#e9b665"/></g><g><g><path d="m262.656 86h-59.906c-4.143 0-7.5-3.357-7.5-7.5s3.357-7.5 7.5-7.5h59.906c4.143 0 7.5 3.357 7.5 7.5s-3.357 7.5-7.5 7.5z" fill="#883f2e"/></g><g><path d="m262.656 120.945h-59.906c-4.143 0-7.5-3.357-7.5-7.5s3.357-7.5 7.5-7.5h59.906c4.143 0 7.5 3.357 7.5 7.5s-3.357 7.5-7.5 7.5z" fill="#883f2e"/></g><g><path d="m262.656 155.891h-59.906c-4.143 0-7.5-3.357-7.5-7.5s3.357-7.5 7.5-7.5h59.906c4.143 0 7.5 3.357 7.5 7.5s-3.357 7.5-7.5 7.5z" fill="#883f2e"/></g></g></g></svg>