<svg height="512pt" viewBox="0 0 512 512" width="512pt" xmlns="http://www.w3.org/2000/svg"><path d="m357.53125 512h-203.078125c-6.234375 0-11.039063-5.492188-10.210937-11.671875l48.742187-363.183594c.683594-5.113281 5.050781-8.929687 10.210937-8.929687h105.59375c5.160157 0 9.523438 3.816406 10.210938 8.929687l48.742188 363.183594c.828124 6.179687-3.976563 11.671875-10.210938 11.671875zm0 0" fill="#96623e"/><path d="m255.992188 481.421875c-9.773438 0-17.699219-7.925781-17.699219-17.699219v-10.246094c0-1.691406 1.371093-3.058593 3.058593-3.058593h29.277344c1.691406 0 3.058594 1.367187 3.058594 3.058593v10.246094c.003906 9.773438-7.921875 17.699219-17.695312 17.699219zm0 0" fill="#262b3b"/><path d="m185.449219 500.328125 48.742187-363.183594c.683594-5.113281 5.046875-8.929687 10.207032-8.929687h-41.203126c-5.160156 0-9.527343 3.816406-10.210937 8.929687l-48.742187 363.183594c-.828126 6.179687 3.976562 11.671875 10.210937 11.671875h41.203125c-6.230469 0-11.039062-5.492188-10.207031-11.671875zm0 0" fill="#714a2f"/><path d="m373.828125 128.214844c5.808594 0 10.414063-4.957032 9.933594-10.746094-5.457031-65.78125-60.578125-117.46875-127.769531-117.46875-67.191407 0-122.3125 51.6875-127.769532 117.472656-.480468 5.789063 4.125 10.742188 9.933594 10.742188zm0 0" fill="#499421"/><path d="m255.992188 128.214844c0-70.8125-57.402344-128.214844-128.214844-128.214844-67.066406 0-122.105469 51.492188-127.7382815 117.101562-.5156245 5.984376 4.2656255 11.113282 10.2734375 11.113282zm0 0" fill="#70ab2a"/><path d="m501.667969 128.214844c6.011719 0 10.792969-5.128906 10.277343-11.113282-5.632812-65.609374-60.671874-117.101562-127.738281-117.101562-70.8125 0-128.214843 57.402344-128.214843 128.214844zm0 0" fill="#70ab2a"/><path d="m255.992188 128.214844c50.070312-50.070313 131.25-50.070313 181.324218 0 47.421875 47.421875 49.929688 122.753906 7.523438 173.128906-3.871094 4.59375-10.878906 4.839844-15.125.589844zm0 0" fill="#96c133"/><path d="m255.992188 128.214844c-50.070313-50.070313-131.253907-50.070313-181.324219 0-47.421875 47.421875-49.929688 122.753906-7.523438 173.128906 3.871094 4.59375 10.878907 4.839844 15.125.589844zm0 0" fill="#96c133"/><path d="m321.53125 458.761719c-4.140625 0-7.5-3.359375-7.5-7.5v-11.699219c0-4.140625 3.359375-7.5 7.5-7.5 4.144531 0 7.5 3.359375 7.5 7.5v11.699219c0 4.140625-3.355469 7.5-7.5 7.5zm0 0" fill="#262b3b"/><path d="m190.449219 458.761719c-4.140625 0-7.5-3.359375-7.5-7.5v-11.699219c0-4.140625 3.359375-7.5 7.5-7.5 4.144531 0 7.5 3.359375 7.5 7.5v11.699219c0 4.140625-3.355469 7.5-7.5 7.5zm0 0" fill="#262b3b"/><path d="m327.375 480.875h-11.683594c-4.144531 0-7.5-3.359375-7.5-7.5 0-4.144531 3.355469-7.5 7.5-7.5h11.683594c4.144531 0 7.5 3.355469 7.5 7.5 0 4.140625-3.355469 7.5-7.5 7.5zm0 0" fill="#f17b31"/><path d="m196.292969 480.875h-11.683594c-4.144531 0-7.5-3.359375-7.5-7.5 0-4.144531 3.355469-7.5 7.5-7.5h11.683594c4.144531 0 7.5 3.355469 7.5 7.5 0 4.140625-3.355469 7.5-7.5 7.5zm0 0" fill="#f17b31"/><g fill="#714a2f"><path d="m179.957031 234.203125h152.066407l-2.011719-15h-148.039063zm0 0"/><path d="m347.339844 348.300781h-39.839844c-4.144531 0-7.5 3.359375-7.5 7.5 0 4.144531 3.355469 7.5 7.5 7.5h41.851562zm0 0"/><path d="m162.632812 363.300781h116.023438c4.140625 0 7.5-3.355469 7.5-7.5 0-4.140625-3.359375-7.5-7.5-7.5h-114.011719zm0 0"/></g></svg>