<svg id="Capa_1" enable-background="new 0 0 497 497" height="512" viewBox="0 0 497 497" width="512" xmlns="http://www.w3.org/2000/svg"><g><g><path d="m86.345 106.435v-52.954c0-9.702-7.865-17.568-17.568-17.568h-22.428c-9.702 0-17.568 7.865-17.568 17.568v40.052c0 3.801-3.082 6.883-6.883 6.883-12.094.001-21.898 9.805-21.898 21.9v69.449h28.782 28.782 28.782 28.782v-56.548c0-10.44-8.464-18.904-18.904-18.904-5.456 0-9.879-4.422-9.879-9.878z" fill="#d88a55"/><g fill="#c57a44"><path d="m0 163.377v29.027l57.564 9.361 57.563-7.111v-31.277z"/><path d="m35.181 146.061c-3.866 0-7-3.134-7-7v-15.168c0-3.866 3.134-7 7-7s7 3.134 7 7v15.168c0 3.866-3.133 7-7 7z"/><path d="m84.728 158.93c-3.866 0-7-3.134-7-7v-11.74c0-3.866 3.134-7 7-7s7 3.134 7 7v11.74c0 3.867-3.134 7-7 7z"/></g></g><g><path d="m481.866 461.086-481.866-94.865v-173.817h321.241l175.759 99.01v154.538c0 8.358-6.776 15.134-15.134 15.134z" fill="#fed2a4"/><path d="m467 281.807v169.28h19.033c6.057 0 10.967 5.09 10.967-.967v-158.706z" fill="#ffbd86"/></g><path d="m256.28 370.33-13.224-5.639c-32.885-14.024-68.265-21.253-104.015-21.253h-129.468c-5.287 0-9.573 4.286-9.573 9.573v97.899c0 5.62 4.556 10.176 10.176 10.176h477.902c8.004 0 11.944-9.739 6.191-15.304-35.935-34.764-83.975-54.199-133.974-54.199-35.75 0-71.131-7.229-104.015-21.253z" fill="#f6a96c"/><path d="m494.269 445.782c-8.504-8.228-17.694-15.585-27.42-22.04-.725 3.936-4.036 7.345-8.772 7.345h-458.077v19.824c0 5.62 4.556 10.176 10.176 10.176h477.902c8.004-.001 11.944-9.74 6.191-15.305z" fill="#ea9b58"/><path d="m294.956 202.948-3.792 1.812c-30.82 14.727-63.309 22.255-96.042 22.255h-29.324c-22.431 0-41.284 20.463-46.668 48.177-1.634 8.411 4.832 16.223 13.4 16.223h112.058 60.557 191.855v-119.2c0-7.212-5.846-13.059-13.059-13.059-64.409-.001-128.338 14.813-188.985 43.792z" fill="#ffbd86"/><path d="m483.942 159.155c-8.535 0-17.06.268-25.572.787 5.029 1.816 8.63 6.617 8.63 12.272v119.2h30v-119.2c0-7.212-5.846-13.059-13.058-13.059z" fill="#f6a96c"/><g fill="#ffbd86"><path d="m400.54 366.221c-2.821 0-5.479-1.718-6.543-4.511-1.376-3.613.438-7.657 4.05-9.033 5.08-1.935 10.872-2.957 16.75-2.957 5.877 0 11.669 1.022 16.75 2.957 3.613 1.376 5.427 5.42 4.051 9.033s-5.421 5.426-9.033 4.051c-3.506-1.335-7.575-2.04-11.768-2.04s-8.263.706-11.768 2.04c-.819.312-1.662.46-2.489.46z"/><path d="m319.574 343.163c-.828 0-1.669-.148-2.489-.46-2.27-.864-4.919-1.321-7.661-1.321-2.743 0-5.392.457-7.661 1.321-3.614 1.376-7.657-.438-9.033-4.051-1.375-3.613.439-7.657 4.051-9.033 3.844-1.463 8.215-2.237 12.643-2.237 4.427 0 8.799.773 12.643 2.237 3.613 1.375 5.427 5.42 4.051 9.033-1.064 2.792-3.722 4.51-6.544 4.511z"/><path d="m100.319 239.507c-.828 0-1.669-.148-2.489-.46-2.27-.864-4.918-1.321-7.661-1.321s-5.392.457-7.661 1.321c-3.615 1.376-7.658-.438-9.033-4.051-1.376-3.613.438-7.657 4.051-9.033 3.844-1.463 8.215-2.237 12.643-2.237 4.427 0 8.799.773 12.643 2.237 3.613 1.376 5.427 5.42 4.051 9.033-1.064 2.793-3.723 4.511-6.544 4.511z"/><path d="m59.673 292.792c-.828 0-1.669-.148-2.489-.46-2.27-.864-4.918-1.321-7.661-1.321s-5.392.457-7.661 1.321c-3.616 1.375-7.658-.438-9.033-4.051s.438-7.657 4.051-9.033c3.844-1.463 8.215-2.237 12.643-2.237 4.427 0 8.799.773 12.642 2.237 3.613 1.375 5.427 5.42 4.051 9.033-1.063 2.792-3.722 4.51-6.543 4.511z"/></g><path d="m130.094 412.799h-110.094c-3.866 0-7-3.134-7-7s3.134-7 7-7h110.094c3.866 0 7 3.134 7 7s-3.133 7-7 7z" fill="#ea9b58"/><path d="m400.538 256.217h-77.404c-3.866 0-7-3.134-7-7s3.134-7 7-7h77.404c3.866 0 7 3.134 7 7s-3.134 7-7 7z" fill="#f6a96c"/><path d="m190.91 412.799h-21.67c-3.866 0-7-3.134-7-7s3.134-7 7-7h21.67c3.866 0 7 3.134 7 7s-3.134 7-7 7z" fill="#ea9b58"/><path d="m446.327 216.608h-21.67c-3.866 0-7-3.134-7-7s3.134-7 7-7h21.67c3.866 0 7 3.134 7 7s-3.134 7-7 7z" fill="#f6a96c"/></g></svg>