<svg height="512pt" viewBox="-24 0 512 512.00041" width="512pt" xmlns="http://www.w3.org/2000/svg"><path d="m180.535156 18.609375c-58.617187-36.34375-136.371094-17.789063-172.195312 41.148437-2.757813 4.535157-5.191406 9.175782-7.304688 13.898438-4.046875 9.027344 4.453125 18.464844 13.867188 15.429688 32.9375-10.625 70.109375-7.558594 102.164062 11.570312 16.40625 9.789062 29.75 22.761719 39.707032 37.652344l80.996093-34.222656c-5.699219-34.214844-25.570312-65.84375-57.234375-85.476563zm0 0" fill="#00c756"/><path d="m31.941406 83.957031c2.113282-4.71875 4.546875-9.359375 7.304688-13.898437 27.742187-45.636719 80.621094-67.050782 130.292968-57.519532-57.007812-27.839843-127.574218-8.101562-161.199218 47.21875-2.757813 4.535157-5.191406 9.179688-7.304688 13.898438-4.046875 9.027344 4.453125 18.464844 13.867188 15.429688 5.445312-1.757813 11.011718-3.128907 16.644531-4.128907.117187-.332031.242187-.667969.394531-1zm0 0" fill="#00a52c"/><path d="m284.6875 18.609375c58.617188-36.34375 136.375-17.789063 172.195312 41.148437 2.757813 4.535157 5.191407 9.175782 7.304688 13.898438 4.046875 9.027344-4.453125 18.464844-13.867188 15.429688-32.9375-10.625-70.109374-7.558594-102.164062 11.570312-16.40625 9.789062-29.746094 22.761719-39.707031 37.652344l-80.996094-34.222656c5.699219-34.214844 25.570313-65.84375 57.234375-85.476563zm0 0" fill="#00c756"/><path d="m144.820312 107.585938c-68.960937-1.171876-126.222656 54.605468-126.78125 123.574218-.042968 5.308594.246094 10.539063.847657 15.675782 1.148437 9.824218 13.285156 13.578124 19.816406 6.144531 22.835937-26.003907 56.328125-42.417969 93.65625-42.417969 19.109375 0 37.210937 4.300781 53.394531 11.988281l52.019532-70.894531c-22.429688-26.460938-55.703126-43.4375-92.953126-44.070312zm0 0" fill="#73d98b"/><path d="m48.945312 231.160156c.511719-63.03125 48.382813-115.03125 109.257813-122.628906-4.394531-.546875-8.859375-.871094-13.382813-.945312-68.960937-1.171876-126.222656 54.605468-126.78125 123.574218-.042968 5.308594.246094 10.539063.847657 15.675782 1.148437 9.824218 13.285156 13.578124 19.816406 6.144531 3.328125-3.789063 6.886719-7.367188 10.644531-10.726563-.292968-3.65625-.433594-7.355468-.402344-11.09375zm0 0" fill="#00c756"/><path d="m320.402344 107.585938c68.960937-1.171876 126.222656 54.605468 126.78125 123.574218.042968 5.308594-.246094 10.539063-.847656 15.675782-1.148438 9.824218-13.285157 13.578124-19.8125 6.144531-22.839844-26.003907-56.332032-42.417969-93.660157-42.417969-19.109375 0-37.210937 4.300781-53.394531 11.988281l-52.015625-70.894531c22.425781-26.460938 55.699219-43.4375 92.949219-44.070312zm0 0" fill="#73d98b"/><path d="m336.382812 431.324219-103.769531 23-103.773437-23c3.679687-38.164063 9.167968-75.519531 14.234375-105.75l89.539062-20.9375 89.535157 20.9375c5.066406 30.230469 10.558593 67.585937 14.234374 105.75zm0 0" fill="#ffb25a"/><path d="m159.746094 431.324219c3.675781-38.160157 9.167968-75.519531 14.234375-105.75l74.085937-17.324219-15.453125-3.613281-89.539062 20.9375c-5.066407 30.230469-10.554688 67.589843-14.234375 105.75l103.773437 23 15.453125-3.425781zm0 0" fill="#ff8f00"/><path d="m322.148438 325.574219h-179.070313c6.734375-40.25 12.730469-67.855469 12.730469-67.855469l76.804687-118.734375 76.804688 118.738281s5.992187 27.601563 12.730469 67.851563zm0 0" fill="#f8d070"/><path d="m248.066406 162.875-15.453125-23.890625-76.808593 118.738281s-5.992188 27.601563-12.730469 67.851563h30.90625c6.738281-40.25 12.730469-67.851563 12.730469-67.851563zm0 0" fill="#ffb25a"/><path d="m340.574219 497.136719c.195312 8.160156-6.398438 14.863281-14.5625 14.863281h-186.796875c-8.167969 0-14.761719-6.703125-14.566406-14.863281.507812-21.390625 2.050781-43.730469 4.191406-65.8125h207.542968c2.140626 22.082031 3.6875 44.421875 4.191407 65.8125zm0 0" fill="#f8d070"/><path d="m155.554688 497.136719c.503906-21.390625 2.050781-43.730469 4.191406-65.8125h-30.90625c-2.140625 22.082031-3.683594 44.421875-4.191406 65.8125-.195313 8.160156 6.398437 14.863281 14.566406 14.863281h30.902344c-8.164063 0-14.757813-6.703125-14.5625-14.863281zm0 0" fill="#ffb25a"/><g fill="#333a41"><path d="m177.570312 386.351562c-4.265624 0-7.726562-3.457031-7.726562-7.722656v-9.964844c0-4.265624 3.460938-7.726562 7.726562-7.726562 4.269532 0 7.726563 3.460938 7.726563 7.726562v9.964844c0 4.265625-3.457031 7.722656-7.726563 7.722656zm0 0"/><path d="m287.652344 386.351562c-4.265625 0-7.726563-3.457031-7.726563-7.722656v-9.964844c0-4.265624 3.460938-7.726562 7.726563-7.726562 4.269531 0 7.726562 3.460938 7.726562 7.726562v9.964844c0 4.265625-3.457031 7.722656-7.726562 7.722656zm0 0"/><path d="m232.613281 391.671875c-7.527343 0-14.597656-3.15625-19.402343-8.652344-2.808594-3.214843-2.480469-8.09375.730468-10.902343 3.210938-2.808594 8.09375-2.480469 10.902344.730468 1.871094 2.140625 4.703125 3.371094 7.769531 3.371094 3.0625 0 5.894531-1.230469 7.765625-3.371094 2.808594-3.210937 7.6875-3.539062 10.902344-.730468 3.210938 2.808593 3.542969 7.6875.730469 10.902343-4.804688 5.496094-11.875 8.652344-19.398438 8.652344zm0 0"/></g><path d="m331.488281 215.199219c0 28.726562-23.285156 52.015625-52.011719 52.015625-28.726562 0-52.015624-23.289063-52.015624-52.015625 0-28.726563 23.289062-52.011719 52.015624-52.011719 28.726563 0 52.011719 23.285156 52.011719 52.011719zm0 0" fill="#af602d"/><path d="m237.761719 215.199219c0 28.726562-23.289063 52.015625-52.015625 52.015625-28.726563 0-52.011719-23.289063-52.011719-52.015625 0-28.726563 23.285156-52.011719 52.011719-52.011719 28.726562 0 52.015625 23.285156 52.015625 52.011719zm0 0" fill="#c76d33"/><path d="m284.625 138.980469c0 28.726562-23.285156 52.015625-52.011719 52.015625-28.726562 0-52.015625-23.289063-52.015625-52.015625 0-28.726563 23.289063-52.011719 52.015625-52.011719 28.726563 0 52.011719 23.285156 52.011719 52.011719zm0 0" fill="#de8957"/></svg>