<svg id="Capa_1" enable-background="new 0 0 512 512" height="512" viewBox="0 0 512 512" width="512" xmlns="http://www.w3.org/2000/svg"><g><circle cx="357.309" cy="57.06" fill="#df8a57" r="57.06"/><path d="m271.65 45.369 88.742 96.309c16.965-4.893 36.139-17.385 29.399-33.704-16.42-39.757-46.312-72.098-83.648-90.756-15.677-7.836-29.332 11.402-34.493 28.151z" fill="#83deff"/><circle cx="69.896" cy="57.06" fill="#d97c41" r="57.06"/><path d="m153.991 45.542-90.905 93.451c-16.965-4.893-32.412-14.699-25.672-31.019 16.42-39.757 46.312-72.098 83.648-90.756 15.677-7.836 27.768 11.575 32.929 28.324z" fill="#5ad6ff"/><path d="m375.759 210.116v17.086l-3.599 1.641h-168.539c-139.465-109.98 5.938-197.008 7.486-197.921.011 0 .011-.01.011-.01.82-.011 1.651-.021 2.482-.021 89.561 0 162.159 80.238 162.159 179.225z" fill="#e4996d"/><path d="m217.414 228.842h-162.365l-3.599-1.641v-17.086c0-98.073 71.255-177.738 159.668-179.204 0 0 0 .01-.011.01-20.654 35.259-60.23 123.446 6.307 197.921z" fill="#df8a57"/><ellipse cx="352.595" cy="243.237" fill="#ffcbbe" rx="38.609" ry="34.748"/><ellipse cx="74.61" cy="243.237" fill="#ffddcf" rx="38.609" ry="34.748"/><path d="m303.407 509.638h-4.871l-69.102-20.008c-2.431-1.518-5.138-3.067-8.143-4.635-101.52-53.103-20.214-122.082-20.214-122.082h68.332c10.399 6.04 20.224 13.886 29.136 23.526 15.506 16.757 28.254 38.95 36.479 66.569 8.164 27.443-8.224 56.63-31.617 56.63z" fill="#ffb3c2"/><path d="m224.46 488.194h-.021l-10.84-3.138-7.692 2.225-77.244 22.357h-4.871c-23.393 0-39.781-29.187-31.618-56.631 8.224-27.618 20.983-49.811 36.489-66.569 8.911-9.64 18.736-17.486 29.136-23.526h43.278c-15.103 40.638-10.379 77.379 4.83 101.919v.01c4.488 7.56 9.531 14.027 15.383 20.152v.01c1.137 1.184 2.059 2.111 3.17 3.191z" fill="#ff9eb1"/><path d="m298.535 509.638h-45.76s-140.418-31.761-51.698-146.725h67.748c10.532 6.215 20.552 13.547 29.72 23.526-13.803 53.933-10.973 79.306-.01 123.199z" fill="#c7aee4"/><path d="m252.775 509.638h-31.484l-7.692-7.158-7.692 7.158h-77.244c13.787-55.171 11.039-79.86 0-123.199 9.168-9.969 19.178-17.301 29.72-23.526h42.694c-15.095 40.615-10.353 77.421 4.83 101.919v.01c10.021 18.08 28.882 34.044 46.868 44.796z" fill="#bd9cde"/><path d="m221.291 362.913v122.082c-13.004 5.876-15.383-20.142-15.383-20.142v-101.94z" fill="#ffadd0"/><path d="m221.291 484.994v24.644h-15.383v-44.786c4.05 6.841 9.117 13.599 15.383 20.142z" fill="#ff9eb1"/><path d="m298.546 357.785v28.654c-7.169 17.516-48.652 31.156-77.255 32.899-2.574.154-5.148.236-7.692.236-2.554 0-5.118-.082-7.692-.246-4.133-.246-8.94-.753-13.893-1.584-2.461-1.948-30.113-25.398 9.063-59.959z" fill="#ff9eb1"/><path d="m201.078 357.785c-7.703 20.725-10.449 39.701-9.063 59.959-24.291-3.817-57.142-16.184-63.351-31.305v-28.654z" fill="#ff899f"/><path d="m335.64 326.096-26.08 17.147-16.819 26.654.041.359c-17.64 11.753-38.212 19.742-61.092 22.49v-.072l-88.228-51.483-35.904-20.952c-37.505-72.147 25.803-140.623 25.803-140.623 3.702 7.015 7.938 14.05 12.676 20.552 3.826 5.24 9.815 8.317 16.173 8.317 111.333 0 110.852 2.789 118.953-8.317 11.076-15.188 19.383-33.31 24.777-47.155 3.979-10.194 17.588-12.081 24.131-3.302 41.043 55.113 37.935 125.404 5.569 176.385z" fill="#ffddcf"/><path d="m143.462 341.191-35.904-20.952-27.516-16.06c-20.767-47.801-18.337-106.421 17.188-154.13 6.523-8.758 20.142-6.964 24.121 3.2 3.077 7.866 7.087 17.096 12.009 26.367-15.249 45.709-22.131 105.108 10.102 161.575z" fill="#ffcbbe"/><path d="m244.49 447.864c0-10.216 15.444-10.216 15.444 0s-15.444 10.216-15.444 0z" fill="#687daa"/><path d="m244.49 478.751c0-10.216 15.444-10.216 15.444 0-.001 10.217-15.444 10.217-15.444 0z" fill="#687daa"/><path d="m162.118 274.76c0 31.724-60.21 31.724-60.21 0 0-31.723 60.21-31.723 60.21 0z" fill="#ffa1ac"/><path d="m265.087 274.76c0 31.724 60.21 31.724 60.21 0 0-31.723-60.21-31.723-60.21 0z" fill="#ffa1ac"/><g fill="#334151"><path d="m149.558 259.374c-4.248 0-7.692-3.443-7.692-7.692v-12.307c0-4.248 3.443-7.692 7.692-7.692 4.248 0 7.692 3.443 7.692 7.692v12.307c0 4.249-3.443 7.692-7.692 7.692z"/><path d="m277.647 259.374c-4.248 0-7.692-3.443-7.692-7.692v-12.307c0-4.248 3.443-7.692 7.692-7.692 4.248 0 7.692 3.443 7.692 7.692v12.307c-.001 4.249-3.444 7.692-7.692 7.692z"/><path d="m213.603 266.7c-8.695 0-16.963-3.766-22.684-10.331-2.791-3.203-2.457-8.061.745-10.852 3.202-2.79 8.06-2.457 10.852.745 2.84 3.26 6.777 5.055 11.087 5.055 4.309 0 8.245-1.795 11.086-5.055 2.791-3.203 7.648-3.536 10.852-.745 3.202 2.791 3.536 7.65.745 10.852-5.721 6.566-13.989 10.331-22.683 10.331z"/></g><path d="m231.69 392.746c-16.481 2.102-32.602 1.231-47.924-2.082-52.846-18.378-47.76-64.066-47.76-64.066 1.672 1.344 3.364 2.595 5.077 3.713 29.31 19.178 67.984-17.937 89.602 18.306 8.379 14.039 7.507 29.268 1.005 44.129z" fill="#83deff"/><path d="m183.766 390.664c-46.139-9.958-84.715-42.79-103.893-86.889 22.501-16.542 38.166 8.393 56.133 22.823 9.928 21.905 25.259 43.576 47.76 64.066z" fill="#5ad6ff"/><path d="m335.885 325.709c-11.302 17.609-25.883 33.143-43.102 44.547-5.938-5.62-9.688-13.938-9.688-22.778-.001-27.594 33.55-41.395 52.79-21.769z" fill="#c7aee4"/><path d="m392.708 336.394-83.989 132.716c-9.673 15.283 11.588 30.656 23.07 16.681l99.716-121.344-11.648-24.746z" fill="#e4996d"/><path d="m477.145 239.868c-71.273 9.76-61.551 52.227-61.551 52.227l16.668 30.45 34.141 6.288s43.372-4.075 30.308-74.817c-1.7-9.204-10.293-15.417-19.566-14.148z" fill="#fbf198"/><path d="m415.594 292.095-22.886 44.299 38.797 28.053 34.899-35.613z" fill="#7888af"/><path d="m348.637 491.864c-17.608 24.706-15.315 21.52-57.443 17.045-13.021-1.383-20.962-16.731-13.596-27.066 5.896-8.273 12.149-14.441 6.836-16.962-11.306-5.366-13.631-22.022-1.783-28.571 6.351-3.511 13.92-5.107 21.864-4.123 17.259 2.132 66.385 28.438 44.122 59.677z" fill="#ffcbbe"/></g></svg>