<svg xmlns="http://www.w3.org/2000/svg" version="1.1" xmlns:xlink="http://www.w3.org/1999/xlink" width="512" height="512" x="0" y="0" viewBox="0 0 75 75" style="enable-background:new 0 0 512 512" xml:space="preserve" class=""><g><path d="M32.799 28.795c-.308-.387-.897.077-.587.466 2.329 2.927 5.7 4.436 9.397 4.436 6.043 0 11.353-3.999 12.966-9.124 2.374-.229 2.982-2.617 1.718-3.638a1.583 1.583 0 0 0-1.252-.316l-.006-.051c.655-.34.99-1.1 1.186-1.825 1.71-6.159-1.778-12.398-6.38-13.33-2.42-.48-5.25.8-5.98 3.16-3.6-2.68-8.22-1.31-11.58 1.03-5.089 3.535-6.184 10.199-3.92 15.91.498-.339.972-.711 1.424-1.11a12.187 12.187 0 0 0 1.568 3.642c.26.413.9.02.633-.401-.798-1.258-1.322-2.562-1.572-3.832a14.41 14.41 0 0 0 2.937-4.17c.55 1.63.56 3.43.04 5.06 2.65-1.33 4.9-3.43 6.46-5.95.65-1.04 1.17-2.15 1.56-3.32.68 1.44.92 3.09.68 4.66 1.32-1.23 2.65-2.46 3.97-3.7 1.5-1.39 2.19-2.44 3.48-.36.67 1.077 2.922 4.532 4.755 4.684.007.106-.001.21.003.317a.364.364 0 0 0-.003.238c.03 2.168-.4 2.76-.399 2.953-2.614 8.688-15.113 12.092-21.098 4.57zm23.022-7.277c.677.548.459 1.927-1.02 2.254.182-.785.27-1.59.267-2.406a.853.853 0 0 1 .753.152zm-5.39-10.515c-.8-.6-1.79-.94-2.79-.96-.482 0-.501-.727.01-.75 1.16.02 2.31.41 3.23 1.11.76.576 1.381 1.347 3.24 3.45.32.369-.234.867-.57.49-1.511-1.708-2.41-2.797-3.12-3.34zM63.814 61.06c.464-.505.63-1.163.76-1.794.46-2.214.683-4.492.666-6.763-.008-.974.266-2.504-.656-2.912-.926-.409-2.566.496-3.191.7l-9.472 3.089c-1.55.505-2.094.994-2.452 2.889a49.14 49.14 0 0 0-.644 4.601c-.21 2.28.734 3.017 3.004 3.098 1.097.038 2.238.018 3.045-.736 1.528-1.428.335-3.444 1.882-5.934l.544 4.548c.044.367.246.695.555.899.31.204.69.262 1.045.157l.535-.156c-.233.177-.093.169-.59 3.759a9.294 9.294 0 0 0-2.819.764c-1.11.509-.973 1.467-.247 1.813.866.412 4.403-.105 4.752-1.259.173-.572-.302-1.115-.934-1.289l.435-3.443a.375.375 0 0 0-.325-.419c-.01 0-.018.003-.027.002l2.299-.672c.591-.173 1.327-.388 1.835-.942zm-7.712 7.345c-.298-.142-.045-.325.237-.455a8.528 8.528 0 0 1 2.82-.73c.207-.02.501.097.62.277.046.07-3.044 1.208-3.677.908zm2.588-6.222a.505.505 0 0 1-.421-.064c-.354-.233-.14-.198-.88-5.849a.375.375 0 0 0-.657-.201c-3.258 3.754.28 7.334-4.877 7.15-2.093-.075-2.43-.674-2.283-2.28.138-1.514.352-3.038.634-4.532.12-.639.273-1.297.695-1.7.444-.426.13-.248 10.724-3.704.536-.176 2.565-1.193 2.789-.576.187.525.07 1.45.076 2.082a31.422 31.422 0 0 1-.65 6.605c-.47 2.268-1.11 1.728-5.15 3.069z" fill="#ffffff" opacity="1" data-original="#000000" class=""></path><path d="M52.847 64.002a.384.384 0 0 0-.416.329l-.336 2.832c-1.157-.249-2.291-.188-3.401.29-1.193.513-1.102 1.509-.396 1.919 1.046.604 5.009.364 5.207-.923.079-.51-.24-.827-.684-1.041l.355-2.99a.375.375 0 0 0-.329-.416zm-.417 4.545c-2.058.747-5.074.3-3.44-.406a4.796 4.796 0 0 1 3.173-.19c.114.104.638.142.601.384 0 .003-.018.097-.334.212zM37.536 23.24c-.572.103-.91.881-.755 1.737s.745 1.467 1.317 1.363c.573-.104.91-.882.755-1.738s-.745-1.467-1.317-1.363zM47.245 23.35c.065-.868-.352-1.607-.932-1.65s-1.103.625-1.168 1.492c-.065.868.352 1.607.932 1.65s1.103-.625 1.168-1.493zM39.16 28.873a.375.375 0 1 0-.433.612c3.196 2.258 7.653 1.28 9.63-2.062.252-.426-.394-.809-.646-.381-1.762 2.979-5.721 3.83-8.552 1.831zM10.88 61.128c-1.787 1.188-1.407 3.388.532 4.18 1.551.633 3.633.052 5.005.671 1.425.643 2.5 2.69 4.458 2.405 1.707-.243 2.365-2.226 3.663-2.85 1.123-.542 2.705.319 2.861 1.557.054.43.687.445.738-.006.102-.018.146-.003.248-.093 4.972-4.47 5.024-4.237 4.974-4.612.269-.344-.155.419 5.192-11.563.591-.228 1.514-.621 1.787-1.3.037-.09.038-.184.049-.277.343.11 2.745.018 5.14-1.003.994 2.363 1.99 4.8 4.656 4.8 1.273 0 1.555-.193 11.256-3.489.813-.276 2.328-.79 2.769-2.14.476-1.444-.438-2.99-1.223-4.278-.409-.67.113.202-5.987-10.23-1.03-1.843-2.95-2.813-4.78-2.42-.89.192-1.618.778-2.342 1.181-5.954 3.312-6.207 3.358-6.72 4.068-.68.939-.575 2.182-.382 3.276.512 2.896 1.35 5.758 2.465 8.54-2.826 1.206-4.663.824-4.96 1.048-.107-.215-.284-.404-.496-.574.19-.514.497-.844.422-1.475h.005a.375.375 0 0 0 .347-.233c1.666-4.092 3.068-4.973-.664-6.462.782-.3 1.6-.476 2.436-.512a.374.374 0 0 0 .358-.391c-.009-.208-.201-.379-.39-.358a8.474 8.474 0 0 0-2.861.63.37.37 0 0 0-.222.397c-2.713-.884-2.551.338-4.301 4.174a.375.375 0 0 0-.01.288c.022.06.078.092.125.133-.238.156-.443.354-.56.62-6.92 15.664-6.578 14.714-6.643 15.116-.294.224-.094.16-.073 6.032-.794-1.236-2.38-1.677-3.54-1.12-1.442.695-2.127 2.596-3.443 2.784-1.476.208-2.604-1.697-4.043-2.346-1.7-.768-3.498-.058-5.03-.683-1.35-.55-1.71-1.99-.4-2.86.51-.338 1.146-.486 1.702-.586 1.966-.354 4.035-.3 5.979.158.48.117.657-.617.171-.73a15.62 15.62 0 0 0-6.283-.167c-.631.114-1.36.286-1.984.7zm32.632-22.254c-.418-2.37.145-2.895 1.5-3.65 5.65-3.155 5.069-2.794 5.848-3.28.51-.317.99-.618 1.516-.731 1.528-.331 3.084.476 3.971 2.06l5.681 9.722c.7 1.196 1.908 2.858 1.468 4.179-.3.917-1.344 1.34-2.298 1.664-9.31 3.109-10.538 3.89-12.097 3.25-1.511-.621-2.27-2.683-2.898-4.177 4.775-2.368 7.172-7.195 6.963-11.793-.023-.5-.772-.459-.75.034.196 4.298-2.034 8.829-6.501 11.067a42.45 42.45 0 0 1-2.403-8.345zM39.41 47.02l-.269.598a4.308 4.308 0 0 0-1.02-.312l.614-1.388.356.16a.731.731 0 0 1 .319.942zM38.05 45.61l-.727 1.645c-.256.005-.567-.02-1.163.311l1.017-2.348zm-2.913 4.316c.136.436.321.671.612.878-4.726 10.758-4.602 10.17-4.523 10.434l-1-.443c.417-.06.032.192 4.911-10.87zm-6.659 14.307-.039-2.831c.077.054.16.103.25.143 3.03 1.335 2.895 1.315 3.173 1.378l-2.196 1.938zm4.285-2.314-1.03-.456c.27-.124-.117.404 4.7-10.35.396.1.75.09 1.163.004-5.162 11.575-4.642 10.559-4.833 10.802zm5.39-11.754c-.135.03-1.102.482-1.748.144-.004-.002-.009-.001-.013-.003l-.01-.007c-.004-.002-.009-.001-.013-.003-1.003-.41-.721-2.074.762-2.292.762-.102 2.188.282 2.491.938.167.353-.158.714-1.47 1.223zm.432-9.975c.662.186 2.674.893 2.895 1.548.186.552-.451 1.541-1.468 3.93l-3.164-1.42-1.098-.493c1.575-3.52 1.4-3.968 2.835-3.565zm-3.43 4.942a.743.743 0 0 1 .984-.378l.353.157c-6.941 16.208-6.842 15.391-6.625 15.725l-1.293-.573c.052-.314-.438.954 6.58-14.93zM24.13 29.194a5.263 5.263 0 0 0 4.438.21c.457-.19.174-.881-.287-.692a4.508 4.508 0 0 1-3.799-.18.374.374 0 1 0-.352.662zM26.263 33.1l2.37-1.58c.41-.274-.002-.9-.417-.624l-2.369 1.58c-.412.275.003.898.416.624zM27.933 36.06a5.086 5.086 0 0 1 2.075-3.258c.404-.284-.02-.897-.43-.614a5.839 5.839 0 0 0-2.384 3.741c-.086.488.653.62.739.13z" fill="#ffffff" opacity="1" data-original="#000000" class=""></path><path d="M37.292 41.178a5.256 5.256 0 0 0 3.302 1.068zM49.481 36.873c.39-.188.516-.734.282-1.219-.233-.485-.739-.726-1.128-.538-.39.188-.516.733-.282 1.218.233.485.739.726 1.128.539zM49.943 39.763c.234.485.74.726 1.13.538.389-.188.515-.734.281-1.219s-.74-.726-1.129-.538c-.39.188-.516.734-.282 1.219z" fill="#ffffff" opacity="1" data-original="#000000" class=""></path></g></svg>