<svg id="Layer_1" enable-background="new 0 0 512 512" viewBox="0 0 512 512" xmlns="http://www.w3.org/2000/svg"><g><g><g><path d="m202.481 70.483-70.176 75.781-12.548 5.408c-23.018-5.351-41.232-30.858-33.172-54.755 4.801-1.957 8.633-6.016 10.189-11.25l4.924-16.689c2.338-7.902 9.869-13.114 18.1-12.496l17.348 1.298c8.221.608 15.762-4.595 18.1-12.506l2.339-7.912c2.648-8.973 14.505-10.868 19.821-3.173z" fill="#5ad6ff"/><path d="m119.757 151.672-92.696 39.982-25.065-36.294c-5.316-7.696.659-18.121 9.983-17.421l8.221.618c8.221.608 15.762-4.595 18.1-12.507l4.924-16.679c2.339-7.912 9.879-13.114 18.1-12.507l17.348 1.298c2.771.206 5.47-.247 7.912-1.247 2.803 21.781 14.516 40.582 33.173 54.757z" fill="#00c5fd"/><path d="m284.876 172.111c-77.227 44.789-171.224 22.347-179.881-34.295l97.487-67.333c30.298 42.907-4.832 70.63 38.663 86.526 16.977 6.212 31.647 9.045 43.731 15.102z" fill="#00b4fd"/><path d="m140.897 356.443c16.555-63.017-16.102-85.382-48.326-93.582-32.214-8.2-43.453-29.711-65.51-71.207l77.934-53.838c31.163 36.489 97.868 53.498 179.881 34.295 18.595 9.313 31.07 26.249 36.438 74.792 10.415 94.18-196.983 172.557-180.417 109.54z" fill="#00a5fb"/><g><path d="m197.655 322.092c-.081 0-.161-.001-.241-.004-4.14-.131-7.39-3.593-7.259-7.733.817-25.857 11.262-49.376 29.409-66.222 19.856-18.433 47.505-27.788 79.961-27.056 4.141.094 7.422 3.526 7.329 7.667-.092 4.084-3.431 7.331-7.495 7.331-.058 0-.115-.001-.172-.002-63.217-1.395-92.769 38.526-94.041 78.756-.127 4.059-3.459 7.263-7.491 7.263z" fill="#00c5fd"/></g><g><path d="m114.475 228.137c-1.312 0-2.638-.014-3.986-.042-4.141-.085-7.429-3.512-7.344-7.652.084-4.089 3.425-7.346 7.496-7.346.052 0 .104.001.158.002 39.863.802 61.042-11.513 67.054-22.324 1.615-2.904 1.998-5.663 1-7.199-3.129-4.813-20.151-2.246-30.977 1.715-3.886 1.423-8.195-.573-9.621-4.459s.563-8.191 4.447-9.62c6.2-2.283 37.684-12.803 48.728 4.189 4.157 6.395 3.986 14.655-.467 22.664-8.18 14.707-32.523 30.072-76.488 30.072z" fill="#00c5fd"/></g></g><path d="m443.515 186.853c-36.841-30.066-66.392-9.247-61.677 15.875l12.496 50.335c.927 3.75 2.689 7.036 5.048 9.838-72.69 30.107-137.74-79.502-97.775-116.185 11.991 1.483 23.744-3.648 31.678-13.104 12.753-15.199 42.037-27.094 95.066-7.809 31.946 13.537 46.74 32.678 50.479 47.636 4.254 16.979-15.206 29.588-35.315 13.414z" fill="#d7ddf5"/><path d="m482.054 336.87c-15.123 0-37.808-7.273-52.055-3.616-5.841 1.494-11.868.072-16.916-3.049-9.756-5.233-21.902-1.803-27.475 7.768-2.771 4.749-7.386 8.128-12.723 9.447l-106.398 26.404-15.999-64.469c2.033-8.242 12.806-37.402 12.156-45.576 0-13.526-7.191-26.435-19.44-33.399-9.153-5.214-15.775-13.926-18.306-24.148-6.923-27.918 10.533-54.597 38.014-63.089 14.299-4.418 25.285.889 38.694 3.575-15.092 47.512 28.608 114.506 97.775 116.185 5.553 6.634 14.412 10.662 23.427 12.208 27.846 5.81 84.939 15.721 88.916 39.487 1.596 9.477-3.142 22.272-29.67 22.272z" fill="#c5cff1"/><g><path d="m343.937 311.424v28.567c-124.148 60.294-218.235 14.1-218.235-51.386 6.056-12.886 19.007-21.216 33.275-21.191h13.362c17.709-.67 33.594 6.593 47.451 16.844 3.564 10.508 12.063 20.769 17.462 26.146 5.058-6.439 12.527-16.205 17.451-27.898 13.022-9.57 28.567-15.319 45.215-15.092 24.311 0 44.019 19.697 44.019 44.01z" fill="#5ad6ff"/><path d="m343.937 339.991v25.878c0 24.302-19.707 44.01-44.02 44.01-15.679-.237-30.308 4.914-42.784 13.547-12.548 8.685-29.031 8.973-41.681.433-15.061-10.178-31.596-15.628-52.591-13.98-7.448 0-14.639-1.916-20.964-5.409-6.315-3.482-11.765-8.551-15.721-14.855-7.932-12.62-21.789-20.274-36.685-20.274h-43.351v-61.389h47.234c6.943 0 13.588-1.968 19.275-5.481 5.409-3.338 9.941-8.077 13.052-13.866 17.555 52.19 65.871 77.069 218.236 51.386z" fill="#00c5fd"/><path d="m254.702 282.506v67.447c-10.434 9.402-26.674 10.995-34.913-.525v-65.17c.896.659 1.772 1.329 2.648 2.009 8.252 6.439 19.914 6.336 27.939-.381 1.4-1.175 2.852-2.298 4.326-3.38z" fill="#00c5fd"/><path d="m254.702 349.953v11.744c0 4.821-1.957 9.189-5.11 12.342-3.163 3.163-7.52 5.12-12.342 5.12-9.643 0-17.462-7.819-17.462-17.462v-12.27c10.498.784 22.098.979 34.914.526z" fill="#00b4fd"/><path d="m62.847 307.45v62.393c0 10.131-8.213 18.344-18.344 18.344h-22.963c-10.131 0-18.344-8.213-18.344-18.344v-62.393c0-10.131 8.213-18.344 18.344-18.344h22.963c10.131-.001 18.344 8.212 18.344 18.344z" fill="#5972a5"/></g></g><ellipse cx="413.26" cy="392.263" fill="#00c5fd" rx="29.163" ry="18.44"/><g fill="#c5cff1"><circle cx="486.167" cy="436.351" r="18.787"/><circle cx="321.693" cy="463.831" r="18.787"/></g></g><g/><g/><g/><g/><g/><g/><g/><g/><g/><g/><g/><g/><g/><g/><g/></svg>