<svg xmlns="http://www.w3.org/2000/svg" version="1.1" xmlns:xlink="http://www.w3.org/1999/xlink" width="512" height="512" x="0" y="0" viewBox="0 0 100 100" style="enable-background:new 0 0 512 512" xml:space="preserve"><g><path d="m80.719 81.209-5.49-.798-2.453-4.973a1.25 1.25 0 0 0-2.242 0l-2.453 4.973-5.488.798a1.252 1.252 0 0 0-.694 2.133l3.972 3.871-.936 5.466a1.253 1.253 0 0 0 1.232 1.461c.199 0 .398-.048.582-.144l4.906-2.58 4.908 2.58a1.252 1.252 0 0 0 1.814-1.318l-.937-5.466 3.972-3.871a1.25 1.25 0 0 0-.694-2.133zm-5.494 4.672a1.25 1.25 0 0 0-.359 1.106l.62 3.618-3.249-1.708a1.25 1.25 0 0 0-1.164 0l-3.247 1.707.62-3.617a1.252 1.252 0 0 0-.359-1.106l-2.629-2.562 3.633-.528c.407-.06.76-.315.941-.685l1.623-3.29 1.623 3.29c.182.369.534.625.941.685l3.635.528zM54.018 73.678l-4.241-.615-1.895-3.847a1.249 1.249 0 0 0-2.242 0l-1.896 3.847-4.244.615c-.471.068-.862.398-1.009.851s-.024.949.315 1.282l3.071 2.993-.726 4.225a1.25 1.25 0 0 0 1.814 1.318l3.795-1.996 3.797 1.996a1.256 1.256 0 0 0 1.317-.095c.385-.279.577-.754.496-1.223l-.726-4.225 3.066-2.993a1.252 1.252 0 0 0-.694-2.132zm-4.59 3.795a1.246 1.246 0 0 0-.358 1.106l.408 2.375-2.136-1.123a1.25 1.25 0 0 0-1.164 0l-2.135 1.123.408-2.376a1.253 1.253 0 0 0-.359-1.106l-1.727-1.684 2.388-.346c.407-.06.76-.315.941-.685l1.065-2.162 1.065 2.162c.182.369.534.625.941.685l2.388.346-1.726 1.685zM97.073 60.351a1.25 1.25 0 0 0-1.009-.851l-4.395-.639-1.965-3.981a1.25 1.25 0 0 0-2.242 0l-1.963 3.981-4.397.639a1.252 1.252 0 0 0-.694 2.132l3.181 3.103-.749 4.377a1.252 1.252 0 0 0 1.814 1.318l3.928-2.067 3.932 2.067a1.256 1.256 0 0 0 1.316-.094c.385-.28.578-.754.498-1.223l-.751-4.378 3.179-3.102c.341-.332.463-.829.315-1.281zm-5.71 3.053c-.294.287-.429.7-.359 1.105l.434 2.528-2.271-1.194a1.25 1.25 0 0 0-1.164 0l-2.269 1.194.433-2.528a1.25 1.25 0 0 0-.359-1.105l-1.838-1.793 2.541-.369c.407-.06.76-.315.941-.685l1.133-2.299 1.135 2.299c.183.369.534.625.941.685l2.54.369-1.837 1.793zM76.757 60.418a1.25 1.25 0 0 0-1.008-.852l-2.884-.42-1.287-2.608a1.25 1.25 0 0 0-2.242-.001l-1.289 2.609-2.882.42a1.25 1.25 0 0 0-.693 2.132l2.085 2.033-.493 2.868a1.25 1.25 0 0 0 1.813 1.319l2.579-1.354 2.574 1.354a1.253 1.253 0 0 0 1.316-.094c.385-.279.578-.754.498-1.223l-.491-2.869 2.086-2.032c.341-.332.464-.829.316-1.281zm-4.617 1.981c-.295.287-.43.701-.36 1.106l.175 1.021-.915-.481a1.252 1.252 0 0 0-1.163 0l-.919.482.176-1.021a1.251 1.251 0 0 0-.359-1.106l-.743-.725 1.027-.149c.406-.06.758-.316.94-.684l.458-.929.458.928c.183.369.534.625.941.685l1.027.149zM62.31 73.113c.545-.424.642-1.21.217-1.754L11.833 6.342a1.25 1.25 0 1 0-1.971 1.537l50.693 65.018a1.246 1.246 0 0 0 1.754.216zM62.922 74.1a1.252 1.252 0 0 0-.094 1.766l.365.406a1.25 1.25 0 0 0 1.86-1.672l-.365-.406a1.25 1.25 0 0 0-1.766-.094zM5.102 22.966a1.25 1.25 0 1 0-1.973 1.535l1.393 1.789a1.249 1.249 0 0 0 1.754.218 1.25 1.25 0 0 0 .219-1.754l-1.392-1.789zM8.997 27.964a1.249 1.249 0 1 0-1.971 1.537l11.879 15.236a1.246 1.246 0 0 0 1.754.216c.545-.424.642-1.21.217-1.754L8.997 27.963zM39.659 70.572a1.249 1.249 0 0 0 .985-2.019L23.388 46.422a1.25 1.25 0 1 0-1.971 1.537L38.673 70.09c.246.316.614.481.986.481zM29.853 10.382a1.25 1.25 0 1 0 1.973-1.537l-1.322-1.696a1.25 1.25 0 0 0-1.973 1.537zM32.3 13.516l31.777 40.76a1.246 1.246 0 0 0 1.754.216 1.248 1.248 0 0 0 .217-1.754L34.27 11.978a1.248 1.248 0 0 0-1.754-.217 1.248 1.248 0 0 0-.217 1.754zM56.229 21.812a1.246 1.246 0 0 0 1.754.216c.545-.424.642-1.21.217-1.754L47.335 6.34a1.25 1.25 0 1 0-1.971 1.537l10.865 13.934zM58.685 24.962l22.223 28.506a1.246 1.246 0 0 0 1.753.216 1.248 1.248 0 0 0 .217-1.754L60.655 23.424a1.247 1.247 0 0 0-1.754-.217 1.248 1.248 0 0 0-.217 1.754z" fill="#ffffff" opacity="1" data-original="#000000"></path></g></svg>