<svg id="Layer_1" height="512" viewBox="0 0 64 64" width="512" xmlns="http://www.w3.org/2000/svg" xmlns:xlink="http://www.w3.org/1999/xlink" data-name="Layer 1"><radialGradient id="radial-gradient" cx="11" cy="18" gradientUnits="userSpaceOnUse" r="1"><stop offset="0" stop-color="#f7af00"/><stop offset=".99" stop-color="#feed01" stop-opacity=".99"/></radialGradient><radialGradient id="radial-gradient-2" cx="20" cy="38" r="1" xlink:href="#radial-gradient"/><radialGradient id="radial-gradient-3" cx="35" cy="13" r="1" xlink:href="#radial-gradient"/><radialGradient id="radial-gradient-4" cx="55" cy="25" r="1" xlink:href="#radial-gradient"/><path d="m1 18a3 3 0 0 1 3-3c1.657 0 7 1.343 7 3s-5.343 3-7 3a3 3 0 0 1 -3-3z" fill="#fbf1d6"/><path d="m10.94 17.71a15.056 15.056 0 0 0 -5.94-1.71 3 3 0 0 0 -3 3 2.955 2.955 0 0 0 .44 1.56 2.965 2.965 0 0 1 -1.44-2.56 3 3 0 0 1 3-3c1.56 0 6.39 1.19 6.94 2.71z" fill="#fcf4de"/><path d="m25.153 9.91a3.13 3.13 0 0 1 3.914-1.926c1.633.516 6.463 3.44 5.933 5.016s-6.221 1.2-7.853.69a2.98 2.98 0 0 1 -1.994-3.78z" fill="#fbf1d6"/><path d="m33.03 10.53a14.024 14.024 0 0 0 -2.96-1.55 3.138 3.138 0 0 0 -3.92 1.93 2.819 2.819 0 0 0 .29 2.44 2.915 2.915 0 0 1 -1.29-3.44 3.138 3.138 0 0 1 3.92-1.93 15.891 15.891 0 0 1 3.81 2.14c.05.14.1.27.15.41z" fill="#fcf4de"/><path d="m33 61h-2c0-30.014-20.292-42.015-20.5-42.132l.993-1.736c.218.123 21.507 12.649 21.507 43.868z" fill="#cad17c"/><path d="m33 61h-2c0-19.824 2.976-47.826 3.006-48.106l1.988.212c-.03.28-2.994 28.178-2.994 47.894z" fill="#cad17c"/><path d="m32.988 58.156-1.976-.312a42.725 42.725 0 0 1 18.473-28.7l1.03 1.714c-.146.087-14.64 9.008-17.527 27.298z" fill="#cad17c"/><path d="m33 61h-2c0-12.344-9.529-20.143-9.625-20.22l1.25-1.561c.423.339 10.375 8.454 10.375 21.781z" fill="#cad17c"/><g fill="#fbf1d6"><path d="m62.116 17.884a3.02 3.02 0 0 1 0 4.27c-1.179 1.179-5.937 4.025-7.116 2.846s1.667-5.937 2.846-7.116a3.02 3.02 0 0 1 4.27 0z"/><path d="m47.884 17.884a3.02 3.02 0 0 1 4.27 0c1.179 1.179 4.025 5.937 2.846 7.116s-5.937-1.667-7.116-2.846a3.02 3.02 0 0 1 0-4.27z"/><path d="m47.884 32.116a3.02 3.02 0 0 1 0-4.27c1.179-1.179 5.937-4.025 7.116-2.846s-1.667 5.937-2.846 7.116a3.02 3.02 0 0 1 -4.27 0z"/><path d="m62.116 32.116a3.02 3.02 0 0 1 -4.27 0c-1.179-1.179-4.025-5.937-2.846-7.116s5.937 1.667 7.116 2.846a3.02 3.02 0 0 1 0 4.27z"/><path d="m40.878 21.405a2.93 2.93 0 0 1 -4.191-.689c-.973-1.392-3.027-6.7-1.687-7.71s5.568 2.657 6.542 4.049a3.193 3.193 0 0 1 -.664 4.35z"/><path d="m44.847 9.91a2.98 2.98 0 0 1 -1.994 3.78c-1.632.51-7.323.886-7.853-.69s4.3-4.5 5.933-5.016a3.13 3.13 0 0 1 3.914 1.926z"/><path d="m24.327 29.043a3 3 0 0 1 1.3 4.037c-.755 1.475-4.385 5.62-5.86 4.865s-.237-6.123.518-7.6a3 3 0 0 1 4.042-1.302z"/><path d="m12.414 30.709a3.129 3.129 0 0 1 4.361.068c1.22 1.2 4.187 6.007 3 7.168s-6.086-1.764-7.3-2.963a2.979 2.979 0 0 1 -.061-4.273z"/><path d="m10.711 42.75a3.192 3.192 0 0 1 1.389-4.175c1.5-.8 6.935-2.135 7.667-.624s-3.513 5.3-5.014 6.094a2.928 2.928 0 0 1 -4.042-1.295z"/><path d="m21.176 48.105a2.929 2.929 0 0 1 -3.416-2.522c-.233-1.683.356-7.343 2.009-7.632s3.747 4.9 3.98 6.584a3.193 3.193 0 0 1 -2.573 3.57z"/><path d="m29.946 39.68a2.98 2.98 0 0 1 -3.5 2.457c-1.686-.288-6.923-2.548-6.677-4.192s5.881-2.05 7.567-1.763a3.13 3.13 0 0 1 2.61 3.498z"/><path d="m21 18a3 3 0 0 1 -3 3c-1.657 0-7-1.343-7-3s5.343-3 7-3a3 3 0 0 1 3 3z"/><path d="m11 8a3 3 0 0 1 3 3c0 1.657-1.343 7-3 7s-3-5.343-3-7a3 3 0 0 1 3-3z"/><path d="m11 28a3 3 0 0 1 -3-3c0-1.657 1.343-7 3-7s3 5.343 3 7a3 3 0 0 1 -3 3z"/></g><path d="m9 12a15.056 15.056 0 0 0 1.71 5.94c-1.52-.55-2.71-5.38-2.71-6.94a3 3 0 0 1 3-3 2.965 2.965 0 0 1 2.56 1.44 2.955 2.955 0 0 0 -1.56-.44 3 3 0 0 0 -3 3z" fill="#fcf4de"/><circle cx="11" cy="18" fill="url(#radial-gradient)" r="1"/><path d="m62.55 18.45a3.015 3.015 0 0 0 -3.7.43c-1.01 1.01-3.23 4.62-3.12 6.39a1.022 1.022 0 0 1 -.73-.27c-1.18-1.18 1.67-5.94 2.85-7.12a3.036 3.036 0 0 1 4.27 0 2.845 2.845 0 0 1 .43.57z" fill="#fcf4de"/><path d="m52.67 18.49a3.019 3.019 0 0 0 -4.18 4.18 6.17 6.17 0 0 1 -.61-.52 3.019 3.019 0 0 1 4.27-4.27 6.17 6.17 0 0 1 .52.61z" fill="#fcf4de"/><path d="m48.88 28.85a3.015 3.015 0 0 0 -.43 3.7 2.845 2.845 0 0 1 -.57-.43 3.036 3.036 0 0 1 0-4.27c1.18-1.18 5.94-4.03 7.12-2.85a1.022 1.022 0 0 1 .27.73c-1.77-.11-5.38 2.11-6.39 3.12z" fill="#fcf4de"/><path d="m34.53 11.64c-.21-.18-.43-.35-.65-.52-.28-.21-.56-.4-.85-.59-.05-.14-.1-.27-.15-.41.32.24.63.49.91.74a5.313 5.313 0 0 1 .74.78z" fill="#39b54a"/><path d="m25.52 30.15a1.178 1.178 0 0 0 -.19-.11 3 3 0 0 0 -4.04 1.31c-.6 1.18-1.52 4.89-1.09 6.69a.875.875 0 0 1 -.43-.09c-1.47-.76-.23-6.13.52-7.6a3 3 0 0 1 4.04-1.31 2.968 2.968 0 0 1 1.19 1.11z" fill="#fcf4de"/><path d="m17.32 31.41a3.122 3.122 0 0 0 -3.91.3 2.944 2.944 0 0 0 -.36 3.76 5.6 5.6 0 0 1 -.58-.49 2.975 2.975 0 0 1 -.06-4.27 3.141 3.141 0 0 1 4.37.07 6.563 6.563 0 0 1 .54.63z" fill="#fcf4de"/><path d="m19.85 38.36c-1.81-.41-5.55.58-6.75 1.22a3.188 3.188 0 0 0 -1.39 4.17 1.492 1.492 0 0 0 .14.24 2.861 2.861 0 0 1 -1.14-1.24 3.188 3.188 0 0 1 1.39-4.17c1.5-.8 6.94-2.14 7.67-.63a.8.8 0 0 1 .08.41z" fill="#fcf4de"/><circle cx="20" cy="38" fill="url(#radial-gradient-2)" r="1"/><path d="m35 3a3 3 0 0 1 3 3c0 1.657-1.343 7-3 7s-3-5.343-3-7a3 3 0 0 1 3-3z" fill="#fbf1d6"/><path d="m29.122 21.405a3.193 3.193 0 0 1 -.664-4.35c.974-1.392 5.2-5.06 6.542-4.049s-.714 6.318-1.687 7.71a2.93 2.93 0 0 1 -4.191.689z" fill="#fbf1d6"/><path d="m33 7a15.028 15.028 0 0 0 1.7 5.93.56.56 0 0 1 -.2-.08 5.07 5.07 0 0 1 -1.47-2.32c-.05-.14-.1-.27-.15-.41a15.331 15.331 0 0 1 -.88-4.12 3 3 0 0 1 3-3 2.965 2.965 0 0 1 2.56 1.44 2.955 2.955 0 0 0 -1.56-.44 3 3 0 0 0 -3 3z" fill="#fcf4de"/><path d="m35.4 13.84c-1.71.01-5.09 2.98-5.94 4.21a3.22 3.22 0 0 0 -.11 3.51c-.08-.05-.15-.1-.23-.16a3.184 3.184 0 0 1 -.66-4.35c.97-1.39 5.2-5.05 6.54-4.04a1.216 1.216 0 0 1 .4.83z" fill="#fcf4de"/><circle cx="35" cy="13" fill="url(#radial-gradient-3)" r="1"/><circle cx="55" cy="25" fill="url(#radial-gradient-4)" r="1"/></svg>