<svg id="Layer_1" viewBox="0 0 64 64" xmlns="http://www.w3.org/2000/svg" data-name="Layer 1"><path d="m32.01 62c-.55.07-1.06-.32-1.13-.87-1.22-9.57-1.4-19.29-.53-28.9l.66-7.32 1.99.18-.66 7.32c-.85 9.47-.68 19.05.53 28.48.07.54-.31 1.04-.85 1.11z" fill="#1a5d1a"/><path d="m27.98 62c-.54.01-.99-.41-1.02-.95-.3-4.74-1.8-9.22-4.27-12.71-1.23-1.71-2.6-3.29-4.09-4.68l-2.35-2.2 1.37-1.46 2.35 2.2c1.58 1.48 3.04 3.15 4.35 4.98 2.7 3.8 4.33 8.66 4.64 13.77.03.56-.42 1.03-.98 1.05z" fill="#1a5d1a"/><path d="m46.35 50.97c-.23-.51-.72-.84-1.29-.86l-3.88-.11c-1.31-.02-2.59.36-3.61 1.12l-.24.18c-1.21.89-1.65 2.41-1.1 3.78l.04.1c.5 1.23 1.75 2.04 3.13 2.04h.09c1.62-.04 3.14-.74 4.16-1.91l2.47-2.85c.36-.41.44-.97.22-1.47z" fill="#379237"/><path d="m40.37 39.77-2.68-2.66c-.39-.38-.94-.51-1.45-.32-.53.19-.89.66-.95 1.23l-.37 3.86c-.13 1.3.18 2.61.87 3.68l.16.25c.62.97 1.62 1.51 2.69 1.51.33 0 .67-.05 1-.16l.1-.03c1.29-.42 2.19-1.66 2.25-3.08.07-1.62-.52-3.18-1.63-4.28z" fill="#379237"/><path d="m48.71 38.71-1.41-1.41-4.37 4.37c-.95.95-1.81 1.97-2.62 3.02l-.97-2.17c-.25-.55-.85-.78-1.34-.5s-.69.95-.45 1.5l1.39 3.11c-2.22 3.46-3.72 7.34-4.35 11.49l-.42 2.74c-.08.55.29 1.06.84 1.14.55.08 1.06-.29 1.14-.84l.42-2.74c.13-.85.31-1.68.51-2.51l3.26-1.29c.6-.24.89-.92.65-1.52s-.92-.89-1.52-.65l-1.5.6c1.37-3.72 3.51-7.11 6.37-9.97z" fill="#1a5d1a"/><path d="m46.93 12.71c-.58-.64-2.28-2.1-5.44-1.65 1.81-2.63 1.24-4.81.92-5.61-.96-2.43-3.66-3.87-6.28-3.33-.88.18-3.12.92-4.37 3.93-1.35-2.79-3.52-3.39-4.37-3.51-2.7-.39-5.46 1.32-6.29 3.91-.26.82-.69 3.03 1.22 5.47-3.26-.22-4.91 1.47-5.46 2.18-1.63 2.11-1.54 5.17.22 7.1.58.64 2.29 2.11 5.44 1.65-1.81 2.63-1.24 4.81-.92 5.61.83 2.09 2.94 3.44 5.18 3.44.36 0 .73-.04 1.09-.11.88-.18 3.12-.92 4.37-3.93 1.35 2.79 3.52 3.39 4.37 3.51 2.69.39 5.46-1.32 6.29-3.91.26-.82.69-3.03-1.22-5.47 3.26.23 4.91-1.47 5.46-2.18 1.63-2.11 1.54-5.17-.22-7.1z" fill="#c9a7eb"/><circle cx="32" cy="16.95" fill="#ffb037" r="3"/><path d="m18.49 32.6-5.94-7.23c-.25-.3-.64-.43-1.02-.33s-.66.4-.74.78l-.58 3.04-3.11-1.97c-.36-.23-.84-.2-1.17.07-.33.28-.45.73-.3 1.14l1.63 4.18-3.09-.58c-.42-.08-.83.11-1.04.47s-.18.82.09 1.14l5.28 6.43s.66.8.66.8c1.06 1.29 2.55 2.08 4.19 2.23.18.02.35.02.53.02 1.43 0 2.79-.5 3.89-1.45 2.55-2.19 2.87-6.12.71-8.75z" fill="#f45050"/><path d="m59.13 35.1c-.57-.72-1.43-1.09-2.37-1.1.19-.94 0-1.86-.55-2.54-.54-.68-1.4-1.07-2.36-1.09.19-.92.02-1.83-.56-2.55-1.17-1.46-3.5-1.47-5.3-.03-1.15.92-1.99 2.62-2.47 3.59-.87 1.76-.83 4.89 1.32 7.58 1.97 2.46 3.89 3.05 5.7 3.05.43 0 .86-.03 1.28-.08.37-.04 2.95-.67 4.16-1.64 1.81-1.44 2.31-3.72 1.14-5.18z" fill="#f7d060"/></svg>