<svg id="Layer_1" enable-background="new 0 0 53 53" height="512" viewBox="0 0 53 53" width="512" xmlns="http://www.w3.org/2000/svg"><g id="_x34_8"><g><path d="m13.5276585 12.0799294c-.0877342-.9251766-.4047766-2.9740553-.6732893-4.4410462-.1288595-.7314725.4601316-1.1772828 1.0744219-.8149943 1.2302275.7376113 3.0025253 1.6696272 3.8277035 2.0233641 2.3602581 1.3772993 14.0156269 3.8369541 5.585762 11.5952139-9.6066161 6.6551512-9.4880095-5.5702707-9.8145981-8.3625375z" fill="#8648cd"/></g><g><path d="m21.3888054 19.7365074c.0284138-.0112648.0561848-.0252075.0829887-.0421181.2328358-.1469765.3021717-.4548931.1552677-.6875458l-5.4368382-8.6074133c-.1469746-.2328348-.4546747-.3026752-.6875467-.1552658-.2328348.1469755-.3021708.4548922-.1552668.6875458l5.4368362 8.6074133c.1300661.2060299.3861143.2839928.6045591.1973839z" fill="#9554e2"/></g><g><path d="m39.4722786 12.0799294c.0877342-.9251766.4047775-2.9740553.6732903-4.4410462.1288605-.7314725-.4601326-1.1772828-1.0744209-.8149943-1.2302284.7376113-3.0025253 1.6696272-3.8277054 2.0233641-2.3602562 1.3772993-14.015625 3.8369541-5.5857601 11.5952139 9.606615 6.6551512 9.4880084-5.5702707 9.8145961-8.3625375z" fill="#8648cd"/></g><g><path d="m31.6111336 19.7365074c-.0284138-.0112648-.0561848-.0252075-.0829906-.0421181-.2328339-.1469765-.3021698-.4548931-.1552658-.6875458l5.4368382-8.6074133c.1469727-.2328348.4546738-.3026752.6875458-.1552658.2328339.1469755.3021698.4548922.1552658.6875458l-5.4368362 8.6074133c-.1300661.2060299-.3861143.2839928-.6045572.1973839z" fill="#9554e2"/></g><g><path d="m37.7559547 20.3537197c-.7003174 1.2823257-1.9219742 1.9913483-2.9874802 2.0346699-.7182732.0633507-1.5450974-.1297989-2.2203064-.3766575 5.7801247 1.0124073 5.6720085-7.7238464 6.0758209-10.2018785.101368-.9259272.4486504-2.9760084.7373848-4.4447107.0500832-.2497659.0078888-.4636374-.0878181-.6294832.0540924-.0158782.102478-.0212579.1508408-.0266495.050045-.0071874.0591011-.0226169.1801186.0029559.0829391.0149841.0490189-.002243.1695747.0471921l.0699921.0382247c.4789467.3450565.2958908.8753982.1984711 1.4167914-.239399 1.3866444-.4925995 3.0564861-.5700302 3.8637457-.2255974 1.5799512-.2265092 5.7382154-1.7165681 8.2757997z" fill="#733dbf"/></g><g><g><g><g><path d="m21.3789024 10.3949547c-2.1640301 3.5425568-4.8406544 8.8121891.5480537 10.9327812.4467525-.2473278.9178066-.5406151 1.4153118-.8852787 6.0169469-5.5375834 1.8012658-8.3756466-1.9633655-10.0475025z" fill="#733dbf"/></g><g><g><path d="m29.8761711 7.6178813c-.5359898-.9023218-1.5785885-3.0010886-2.2489433-4.5440445-.340435-.7649527-1.1534004-.765111-1.4938889-.0004442-.6712818 1.5430045-1.7148819 3.6419535-2.251194 4.5444579-1.340084 2.8373945-10.7532339 16.6049164 2.7570896 17.6891315 13.5063992-1.0846653 4.5762196-14.8511161 3.2369366-17.6891007z" fill="#8648cd"/></g></g><path d="m29.8761463 7.6174002c-.5342922-.9011078-1.5789013-3.0023556-2.2487602-4.5453815-.2512112-.5582223-.7535954-.7057755-1.1403332-.4425769.139534.0996501.2631569.2472031.3508625.4545217.6499367 1.5550117 1.666647 3.6801496 2.1889534 4.5932021 1.0998707 2.4449601 7.6581745 10.4439526 1.6636715 13.4356461v.2541046c.8772182-.3332958 1.6284599-.7511559 2.2676888-1.237751 3.6323318-3.5047814-2.0494175-10.3228117-3.0820828-12.5117651z" fill="#733dbf"/><g fill="#9554e2"><path d="m26.8793163 10.0144882c.2752857 0 .4983959-.2231102.4983959-.4983969v-1.1494274c0-.2752867-.2231102-.4983974-.4983959-.4983974-.2752876 0-.4983978.2231107-.4983978.4983974v1.1494274c0 .2752867.2231102.4983969.4983978.4983969z"/><path d="m29.0280685 13.2455015c-.2090931-.1789169-.5237064-.1543865-.7026234.0547066l-.9477329 1.1081057v-2.3396912c0-.2752857-.2231102-.4983969-.4983959-.4983969-.2752876 0-.4983978.2231112-.4983978.4983969v7.5919857l-1.8744392-1.8113613c-.1978016-.1909866-.5135822-.1859245-.7047634.0120716-.1911831.1979961-.1859264.5133877.0120697.7047634l2.5671329 2.4807415v1.0789509c.16395.0167675.3289471.0330963.5001011.0468216.1699848-.0136509.3338127-.0298843.4966927-.0465298v-6.1843796l1.7050629-1.9935627c.1789168-.2092876.1543864-.523901-.0547067-.7026224z"/></g></g></g></g><g fill="#89d4a7"><path d="m34.5134659 36.1953125c-2.1750832-2.8101883-5.2919788-2.8100471-7.4672031.0002785-.316082.408432-.316082.9915543 0 1.3999863 2.1750832 2.8101883 5.2919788 2.8100471 7.4672031-.000351.316082-.408432.316082-.9914856 0-1.3999138z"/><path d="m21.881834 42.0621109c-1.9836617-2.56287-4.8262501-2.5627441-6.8100386.0002556-.2882662.3724861-.2882662.9042931 0 1.2767792 1.9836607 2.56287 4.8262491 2.5627441 6.8100386-.0003204.2882653-.3724862.2882653-.9042283 0-1.2767144z"/><path d="m24.7934475 26.5229015v8.7624035c0 .5856056-.1261654 1.1643295-.3699589 1.6967545l-2.525835 4.5089951c-.2438583.5323601-.3699589 1.1111488-.3699589 1.6966896v6.4202461c0 .4926834.3993816.8920021.892067.8920021h1.1278992c.4926205 0 .892004-.3993187.892004-.8920021v-5.7855377c0-.5855408.1261005-1.1642685.3699589-1.6966934l2.525835-4.5089264c.2438583-.5324898.3699589-1.1112175.3699589-1.6968193v-9.3971119h-2.9119702z"/></g><path d="m26.2494011 26.5229015v9.0797596c0 .5856018-.1261024 1.1643295-.3699608 1.6968155l-2.5257702 4.5089302c-.2438583.5324249-.3700218 1.1111488-.3700218 1.6966896v6.9948959h.5640125c.4926205 0 .892004-.3993187.892004-.8920021v-5.7855377c0-.5855408.1261005-1.1642685.3699589-1.6966934l2.525835-4.5089264c.2438583-.5324898.3699589-1.1112175.3699589-1.6968193v-9.3971119z" fill="#67c0a5"/><path d="m43.104641 18.7472897c-3.9216919 8.2047844-10.660408 6.5338783-16.1658363 12.1696663-.1090317.0701809-.2293892.1096935-.3526802.123085-.0000839.0004539-.0002079.0009079-.0002899.0013218-.016077.0025616-.0330238.0033894-.0491009.0042572-.0406303.0025215-.0812588.0016937-.1218872-.0016956-.1134548-.0101662-.225174-.04319-.3275928-.0998974-5.5105114-5.667942-12.2636108-3.9792233-16.1920795-12.1967373-.9345036-1.9536533 1.5253363-1.0411797 1.5253363-1.0411797.0744791-3.1225882 2.8364925-.6509285 2.8364925-.6509285.5451202-3.5483847 4.2738333 1.3238869 4.2738333 1.3238869 1.681942-3.5780191 2.8805122 2.2702122 2.8805122 2.2702122 3.8522949-2.9973145 3.3884315 3.1192398 3.3884315 3.1192398.7685986-.4037666 1.3179359.9495277 1.7014084 1.1899109.3826046-.2403831.9311142-1.5928097 1.6988449-1.1899109 0 0-.4638634-6.1165543 3.3883915-3.1192398 0 0 1.1986122-5.8482313 2.8805504-2.2702122 0 0 3.7286758-4.8722715 4.2737961-1.3238869 0 0 2.7628784-2.4716597 2.8373604.6509285-.0000002 0 2.4590109-.9124737 1.5245093 1.0411797z" fill="#89d4a7"/><path d="m34.5134659 36.1953125c-1.3286972-1.7167015-3.0084572-2.3788795-4.6108418-1.998085 1.0205898.242485 2.0098362.9047356 2.856081 1.998085.3160858.4084282.3160858.9914818 0 1.3999138-.8465252 1.0936279-1.8359108 1.7558784-2.8565006 1.9984322 1.6023846.3807983 3.282423-.2814522 4.6112614-1.9984322.316082-.408432.316082-.9914856 0-1.3999138z" fill="#67c0a5"/><path d="m21.881834 42.0621109c-1.2117634-1.5656166-2.7436924-2.1695213-4.2050552-1.8222351.930769.2211418 1.8329563.8251076 2.6047268 1.8222351.2882652.3724861.2882652.9042282 0 1.2767143-.7720261.9973831-1.6743393 1.6013489-2.6051102 1.8225555 1.4613628.3472862 2.9935474-.2566795 4.2054386-1.8225555.2882653-.3724861.2882653-.9042282 0-1.2767143z" fill="#67c0a5"/><g><g><g><path d="m14.270216 20.0862141c.1624708-.1022778.2115736-.3167934.1095209-.4792633-.168128-.2676926-.3351231-.5541649-.4960098-.8519516-.0911913-.1690311-.3020859-.2321644-.470892-.1405201-.1690321.0911922-.2319384.3020859-.140521.470892.167901.3111382.3425903.61096.5186377.8913231.10116.1610946.3151378.2122611.4792642.1095199z" fill="#67c0a5"/></g><g><path d="m25.8725815 29.0363331c.1464043-.1242294.1642799-.3434963.0400505-.4899006-1.8389893-2.167551-3.7603474-3.1297016-5.6183453-4.0603981-1.7726917-.887928-3.447176-1.7265282-4.9673357-3.5623512-.1224174-.1475353-.3410063-.168354-.4894466-.0459347-.1477623.1224174-.168354.3414593-.0459356.4894466 1.6133881 1.9482841 3.4324665 2.8592949 5.1913528 3.7404346 1.7957726.8992443 3.6524124 1.8292618 5.3997593 3.8886509.1244717.1465817.3436146.1640645.4899006.0400525z" fill="#67c0a5"/></g></g><g><g><g><g><path d="m42.5487404 17.4960346c.020874.1923962-.0231361.4508667-.1638298.7984905-3.4420815 8.5070019-10.2781067 6.7743645-15.4540157 12.6180878-.1520061.1058998-.3340492.1474228-.51581.131073v.0000572c.180912.0158386.3653889-.0242119.5233898-.126379 5.5058842-5.6362801 12.2441006-3.9651337 16.1665211-12.1702175.5111694-1.0692387.0059394-1.279398-.5562554-1.251112z" fill="#67c0a5"/></g></g><path d="m38.7297096 20.0862141c-.1624718-.1022778-.2115746-.3167934-.1095238-.4792633.168129-.2676926.335125-.5541649.4960098-.8519516.0911942-.1690311.3020859-.2321644.4708939-.1405201.1690331.0911922.2319374.3020859.140522.470892-.1679039.3111382-.3425903.61096-.5186386.8913231-.1011619.1610946-.3151397.2122611-.4792633.1095199z" fill="#67c0a5"/></g><g><path d="m27.1273441 29.0363331c-.1464043-.1242294-.1642818-.3434963-.0400524-.4899006 1.8389912-2.167551 3.7603474-3.1297016 5.6183472-4.0603981 1.7726898-.887928 3.4471741-1.7265282 4.9673347-3.5623512.2937431-.3540115.8282967.0894165.5353813.443512-1.6133881 1.9482841-3.4324646 2.8592949-5.1913528 3.7404346-1.7957706.8992443-3.6524124 1.8292618-5.3997593 3.8886509-.1244717.1465816-.3436146.1640644-.4898987.0400524z" fill="#67c0a5"/></g></g></g></g></svg>