<svg id="Flat" viewBox="0 0 64 64" xmlns="http://www.w3.org/2000/svg"><g fill="#325068"><path d="m50.58 16.87c-.06 0-.11 0-.17-.01-.54-.09-.91-.61-.81-1.16l.22-1.28c.14-1.13 1.2-3.35 4.17-3.35h.05c.55 0 1 .46.99 1.01 0 .55-.45.99-1 .99-.01 0-.03 0-.04 0-1.85 0-2.15 1.38-2.19 1.66l-.23 1.32c-.08.49-.51.83-.98.83z"/><path d="m45.78 16.99c-.51 0-.95-.39-1-.91l-.12-1.4c-.04-.23-.33-1.61-2.19-1.61-.02 0-.03 0-.04 0-.55 0-1-.44-1-.99s.44-1 .99-1.01c2.98-.06 4.08 2.21 4.23 3.4l.12 1.44c.05.55-.36 1.04-.91 1.08-.03 0-.06 0-.09 0z"/><path d="m48.23 42.81c-.55 0-1-.45-1-1v-3.4c0-.55.45-1 1-1s1 .45 1 1v3.4c0 .55-.45 1-1 1z"/></g><path d="m37.39 42.94c-5.84 1.57-9 4.67-10.67 7.15v5.52c4.47.7 8.19-1.88 8.19-1.88 3.46-2.81 3.64-7.84 3.54-10-.02-.54-.55-.93-1.07-.79z" fill="#77b24c"/><path d="m21.52 50.44c-1.6-2.53-4.76-5.85-10.88-7.5-.53-.14-1.05.25-1.07.79-.1 2.16.09 7.19 3.54 10 0 0 3.85 2.65 8.41 1.84z" fill="#77b24c"/><path d="m43.37 21.5c-1.21-2.12-3.59-3.02-6.86-2.65 2.57-2.05 3.62-4.37 2.98-6.73-.48-1.75-1.81-3.09-3.57-3.57-2.35-.64-4.68.41-6.73 2.98.37-3.27-.53-5.65-2.65-6.86-1.58-.9-3.47-.9-5.05 0-2.12 1.21-3.02 3.59-2.65 6.86-2.05-2.57-4.37-3.62-6.72-2.97-1.76.48-3.09 1.81-3.57 3.57-.64 2.35.4 4.68 2.97 6.72-3.26-.37-5.65.53-6.86 2.65-.9 1.58-.9 3.47 0 5.05 1.03 1.81 2.92 2.73 5.49 2.73.44 0 .9-.03 1.38-.08-2.57 2.05-3.62 4.37-2.98 6.73.48 1.76 1.81 3.09 3.57 3.57.45.12.9.18 1.35.18 1.89 0 3.72-1.08 5.37-3.16-.37 3.26.53 5.65 2.65 6.86.79.45 1.66.68 2.52.68s1.73-.23 2.52-.68c2.12-1.21 3.02-3.59 2.65-6.86 1.65 2.08 3.49 3.16 5.37 3.16.45 0 .9-.06 1.35-.18 1.76-.48 3.09-1.81 3.57-3.57.64-2.36-.41-4.68-2.98-6.73.48.05.94.08 1.38.08 2.56 0 4.45-.92 5.49-2.73.9-1.58.9-3.47 0-5.05z" fill="#ecc865"/><circle cx="24.01" cy="24.02" fill="#d88852" r="9.97"/><path d="m48.24 13.9c-2.64 0-4.79 2.14-4.79 4.79s2.14 4.79 4.79 4.79c2.64 0 4.79-2.14 4.79-4.79s-2.14-4.79-4.79-4.79z" fill="#ecc865"/><path d="m54.34 33.29c-.97 2.54-2.31 4.42-3.49 5.72-1.41 1.56-3.83 1.56-5.24.01-1.57-1.72-2.6-3.59-3.27-5.16-.74-1.75-1.11-3.63-1.11-5.53 0-3.59 2.91-6.5 6.5-6.5h1.09c3.53 0 6.4 2.87 6.4 6.4v.11c0 1.69-.27 3.37-.88 4.95z" fill="#ecc865"/><path d="m55.04 30.67c-.14.9-.37 1.77-.7 2.62-.29.76-.62 1.46-.97 2.11h-10.29c-.29-.53-.53-1.05-.74-1.53-.43-1.03-.74-2.1-.91-3.2z" fill="#325068"/><path d="m58.7 31.9c-3.05 2.12-7.38-2.72-7.38-2.72-3.25-3.42-3.18-6.45-3.05-7.45.03-.22.2-.38.41-.41 1.04-.13 4.25-.23 7.62 2.68 0 0 6.38 5.11 2.39 7.88z" fill="#d3dce5"/><path d="m37.75 31.9c3.05 2.12 7.38-2.72 7.38-2.72 3.25-3.42 3.18-6.45 3.05-7.45-.03-.22-.2-.38-.41-.41-1.04-.13-4.25-.23-7.62 2.68 0 0-6.38 5.11-2.39 7.88z" fill="#d3dce5"/><path d="m26.54 43.38c-.79.45-1.66.68-2.52.68s-1.71-.22-2.49-.66v15.44c0 .65.52 1.17 1.17 1.17h2.87c.65 0 1.17-.52 1.17-1.17v-15.59c-.07.04-.12.09-.19.13z" fill="#84c86c"/></svg>