<svg id="Layer_1" enable-background="new 0 0 500 500" viewBox="0 0 500 500" xmlns="http://www.w3.org/2000/svg"><g><path d="m242.588 426.308s13.234 2.628 4.831-9.113c-7.347-10.265-29.25-39.914-52.384-74.269-16.198-24.055-29.852-35.823-39.742-39.232-9.891-3.41 25.64 44.257 18.81 49.864s-28.586-36.013-52.351-36.053c-45.959-.078-26.557-3.913 13.021 22.498 16.848 11.243 3.376 21.14-9.36 24.673-5.376 1.492-5.65 9.004-.384 10.845 20.434 7.144 50.627 16.899 64.582 17.451 22.151.877 52.977 33.336 52.977 33.336z" fill="#1e7c56"/><path d="m247.5 484.5c-4.143 0-7.5-3.357-7.5-7.5v-257c0-4.143 3.357-7.5 7.5-7.5s7.5 3.357 7.5 7.5v257c0 4.143-3.357 7.5-7.5 7.5z" fill="#37b489"/><path d="m252.747 473.561s-5.988-85.727 18.785-111.363 67.303-43.536 67.303-43.536-50.566 55.072-48.428 81.403c2.138 26.33-37.66 73.496-37.66 73.496z" fill="#1e7c56"/><path d="m335.53 416.702c12.162-9.549 23.986-18.942 30.937-24.747 18.866-15.758 22.333-32.874 12.958-42.115-9.375-9.242-18.145 10.243-39.118 17.095-13.03 4.257-17.822 17.359-19.583 26.672-1.438 7.603-4.741 14.727-9.493 20.833l-30.578 39.289 12.178-3.828s7.35-5.661 17.587-13.608c1.695.303 4.091.4 7.356.224 0 0 44.32-5.077 72.84 3.986 28.52 9.062 54.209-13.975 68.841-14.124 13.789-.14-46.47-34.263-123.925-9.677z" fill="#1e7c56"/><path d="m250.321 458.143s52.753-29.266 77.688-24.391 89.211 37.51 109.289 30.15c0 0-10.149 14.579-38.583 9.394s-122.312-15.995-151.216 4.704c.001-.001-3.152-17.003 2.822-19.857z" fill="#37b489"/><g fill="#f9cff3"><path d="m183.125 258.277s-24.244 14.588-50.276 8.315-64.544-47.644-47.087-59.004c17.457-11.361 58.028-3.679 58.028-3.679s6.074 44.358 39.335 54.368z"/><path d="m196.182 258.381s5.935 49.495 56.587 39.758 56.841-55.34 56.841-55.34-26.949-2.486-36.298-10.283c-.001.001-29.514 27.041-77.13 25.865z"/><path d="m309.61 242.8s23.541-.094 35.656-14.845 25.859-25.876 42.077-27.37 14.819-8.863 22.74-8.899-3.481 33.313-22.994 48.999-55.617 27.296-77.479 2.115z"/><path d="m142.633 112.162s-19.083-21.628-27.491-14.57-53.525 74.705 28.647 106.316c0 0 1.753-9.364 7.244-10.713 0 0-46.057-42.757-8.4-81.033z"/></g><path d="m141.764 113.686s-19.564-40.785 3.354-48.776c22.918-7.99 26.603-1.414 44.348 7.811s-6.638-27.362 6.634-32.833c13.272-5.472 38.008-27.741 61.876-16.452s27.744 3.689 42.699 3.285c14.955-.403 30.226 10.885 43.787 34.539l-41.547 5.085z" fill="#ffdef9"/><path d="m178.508 101.482s-5.712-12.451 9.209-13.397 30.493-13.101 34.067-16.868c3.574-3.768 13.356-25.633 35.962-21.346s39.542-6.72 50.22 21.602 4.94 23.581 4.94 23.581-59.599-3.5-56.332 9.367 14.858 23.844 3.369 31.654-37.236 18.431-42.784 34.036-18.907 2.515-18.031-5.144 7.186-32.727-1.073-29.811-26.254 13.862-25.991 5.947c.263-7.917 6.444-39.621 6.444-39.621z" fill="#f297c1"/><path d="m364.977 112.222s2.815-62.246-41.878-58.323 12.191 57.768-7.376 95.653c0 0 5.787 13.126 11.707 11.661 5.921-1.465 37.547-48.991 37.547-48.991z" fill="#f4b3d6"/><path d="m140.026 114.979s17.73-31.421 32.606-22.205-3.166 29.426 2.619 41.316 24.924-12.748 31.418-13.432-11.802 37.247 3.216 50.73c15.018 13.484 12.327 29.603 12.327 29.603s-41.076 15.284-64.122 4.065-49.069-62.062-18.064-90.077z" fill="#ffdef9"/><path d="m290.328 142.769s8.003-6.948-10.483-10.679-21.4 1.629-33.089 2.098c-11.69.469-21.63-1.47-27.706 10.005s-13.368 38.234-6.85 50.821 32.465 32.732 43.101 29.878c10.636-2.853 16.871-10.33 16.871-10.33z" fill="#f9cff3"/><path d="m259.943 136.075s4.043-13.554-5.607-23.998c-9.651-10.444-5.585-15.059 7.501-19.158 13.087-4.098 31.173-10.965 39.724-4.97s26.048 11.967 23.221 31.485 1.12 34.521-12.767 34.584c-13.888.064-52.072-17.943-52.072-17.943z" fill="#f4b3d6"/><path d="m266.597 213.356s-19.467-11.516-15.82-27.506 6.832-39.27 23.721-44.882 11.326 2.199 23.484 2.826 29.683 8.678 30.067 27.611 4.505 73.648-61.452 41.951z" fill="#ffdef9"/><path d="m373.422 164.761s8.56-26.758-2.833-44.679-24.457-25.483-30.72-21.357c-6.264 4.126-4.805 12.423-2.242 23.447s-14.046 34.905-14.046 34.905l4.58 18.874z" fill="#f9cff3"/><path d="m390.412 200.2s21.241-26.811 19.427-48.592-11.635-37.005-28.824-50.83l-12.974 17.602.586 81.062c-.001-.001 2.114 9.272 21.785.758z" fill="#ffdef9"/><path d="m151.033 193.195s-8.845 4.987-6.715 14.477 13.274 52.223 47.251 51.468 57.822-6.918 81.742-26.623c0 0 .027 7.782-12.501-6.036-12.528-13.817-28.76-27.237-47.793-26.03s-27.412 8.729-33.13 6.761c-5.717-1.968-14.816-20.5-28.854-14.017z" fill="#f4b3d6"/><path d="m255.019 220.432s4.316-9.867 33.709-9.4 27.661 9.898 32.319-4.846-10.674-28.687 13.893-38.168c24.568-9.481 29.336-19.105 35.632-9.716s9.324 43.464 6.511 44.571-29.9 48.265-67.149 45.034c-37.25-3.231-41.705-12.542-54.785-25.424" fill="#f4b3d6"/></g></svg>