<svg id="Capa_1" enable-background="new 0 0 504.412 504.412" height="512" viewBox="0 0 504.412 504.412" width="512" xmlns="http://www.w3.org/2000/svg"><g><path d="m270.687 398.352c-3.391 0-6.465-2.314-7.288-5.756-5.89-24.608-24.171-47.087-46.573-57.268l-7.315-3.324-20.271-8.449c-3.823-1.594-5.631-5.985-4.037-9.808s5.987-5.631 9.809-4.038l20.381 8.495c.072.03.146.062.217.095l7.423 3.373c26.458 12.023 48.029 38.492 54.956 67.433.964 4.028-1.52 8.076-5.548 9.04-.589.14-1.177.207-1.754.207z" fill="#97da7b"/></g><path d="m382.22 144.995 56.361-35.233c21.234-13.274 24.6-42.849 6.894-60.556-17.707-17.707-47.282-14.34-60.556 6.894l-35.233 56.361-22.097 38.105 10.262 10.466z" fill="#f9f7f8"/><g><g><g><path d="m150.954 210.81 14.273-61.875c4.25-18.423-9.743-36.01-28.65-36.01-18.907 0-32.899 17.587-28.649 36.01l14.272 61.875 6.968 31.606 17.009-1.105z" fill="#f9f7f8"/></g><g><path d="m165.538 254.147 61.875 14.272c18.423 4.25 36.01-9.743 36.01-28.65 0-18.907-17.587-32.899-36.01-28.65l-61.875 14.272-30.142 6.193v14.239z" fill="#f9f7f8"/></g><g><path d="m107.617 254.147-61.875 14.273c-18.423 4.25-36.01-9.743-36.01-28.65 0-18.907 17.587-32.899 36.01-28.65l61.875 14.272 20.267 4.896 3.866 18.339z" fill="#f9f7f8"/></g><g><path d="m119.207 197.835-26.602-42.554c-10.022-16.032-32.352-18.574-45.721-5.205-13.369 13.369-10.827 35.699 5.205 45.721l42.554 26.603 30.104 20.016 11.831-12.355z" fill="#f9f7f8"/></g><g><path d="m178.512 222.4 42.554-26.602c16.032-10.022 18.574-32.352 5.205-45.721-13.369-13.369-35.699-10.827-45.721 5.205l-26.602 42.554-22.197 35.637 11.226 15.67z" fill="#f9f7f8"/></g><g><path d="m178.512 257.14 42.554 26.602c16.032 10.022 18.574 32.352 5.205 45.721-13.369 13.369-35.699 10.827-45.721-5.205l-26.602-42.554-20.888-28.295 17.007-15.687z" fill="#f9f7f8"/></g><g><path d="m119.207 281.705-26.602 42.554c-10.022 16.032-32.352 18.574-45.721 5.205-13.369-13.369-10.827-35.699 5.205-45.721l42.554-26.602 37.107-22.663 9.518 7.987z" fill="#f9f7f8"/></g><g><path d="m152.866 270.499 14.045 60.888c4.182 18.129-9.588 35.436-28.193 35.436-18.605 0-32.374-17.307-28.193-35.436l14.045-60.888 5.401-32.994 13.695-1.496z" fill="#f9f7f8"/></g></g></g><g><g><g><path d="m148.157 235.275c-1.812 0-3.625-.692-5.008-2.074-2.765-2.765-2.765-7.249 0-10.015l30.231-30.231c2.767-2.766 7.25-2.765 10.016 0 2.765 2.766 2.765 7.249 0 10.015l-30.231 30.231c-1.383 1.382-3.196 2.074-5.008 2.074z" fill="#efedef"/></g><path d="m148.678 168.001c0 8.879 2.383 17.205 6.524 24.393l10.025-43.46c1.343-5.822.86-11.558-1.02-16.684-9.545 8.942-15.529 21.656-15.529 35.751z" fill="#efedef"/><path d="m226.271 150.077c-13.369-13.369-35.699-10.827-45.721 5.205l-24.292 38.86c7.138 11.278 18.742 19.441 32.306 21.976l32.503-20.319c16.031-10.023 18.573-32.353 5.204-45.722z" fill="#efedef"/><path d="m173.38 192.956-9.99 9.99c3.415 3.352 7.314 6.205 11.586 8.444l8.419-8.419c2.765-2.765 2.765-7.249 0-10.015-2.764-2.766-7.248-2.767-10.015 0z" fill="#e5e1e5"/><g><path d="m288.323 187.043-81.95 18.903c-24.4 5.628-47.694-12.904-47.694-37.945 0-25.041 23.294-43.573 47.694-37.945l81.95 18.903 40.433 10.034.285 17.897z" fill="#f9f7f8"/></g><g><path d="m303.673 112.461-35.233-56.361c-13.274-21.234-42.849-24.6-60.556-6.894-17.707 17.707-14.34 47.282 6.894 60.556l56.361 35.233 45.104 26.441 16.613-13.96z" fill="#f9f7f8"/></g></g></g><g><path d="m195.706 246.855h-45.563c-3.911 0-7.082-3.171-7.082-7.082s3.17-7.082 7.082-7.082h45.563c3.911 0 7.082 3.171 7.082 7.082s-3.17 7.082-7.082 7.082z" fill="#efedef"/></g><path d="m263.423 239.77c0-18.907-17.587-32.899-36.01-28.65l-11.591 2.674-6.344 3.966c-12.72 7.952-20.988 21.061-22.685 35.965-.2 1.757-.297 3.51-.31 5.253l40.93 9.441c18.422 4.25 36.01-9.742 36.01-28.649z" fill="#efedef"/><path d="m195.706 246.855c3.911 0 7.082-3.171 7.082-7.081 0-3.911-3.17-7.082-7.082-7.082h-1.408c-2.797 4.327-4.893 9.099-6.21 14.163z" fill="#e5e1e5"/><path d="m200.813 293.867c9.126 9.126 21.213 14.195 34.067 14.326-.165-9.517-4.908-18.883-13.814-24.45l-34.509-21.573c.684 11.876 5.666 23.106 14.256 31.697z" fill="#efedef"/><path d="m271.139 191.007-56.361 35.233c-21.234 13.274-24.6 42.849-6.894 60.556 17.707 17.707 47.282 14.34 60.556-6.894l35.233-56.361 29.182-38.493-20.692-21.934z" fill="#f9f7f8"/><path d="m234.939 469.782h32.012v-20.056c0-16.14-13.084-29.224-29.224-29.224h-25.492c-3.601 0-6.52 2.919-6.52 6.52v13.537c0 16.14 13.084 29.223 29.224 29.223z" fill="#97da7b"/><path d="m305.517 457.269h-38.566v-20.927c0-21.163 17.156-38.319 38.319-38.319h31.324c4 0 7.243 3.243 7.243 7.243v13.684c0 21.163-17.157 38.319-38.32 38.319z" fill="#97da7b"/><g><path d="m266.951 504.412c-4.143 0-7.5-3.358-7.5-7.5v-61.953c0-30.894 6.194-60.947 18.41-89.324l11.649-27.059c.033-.078.068-.156.105-.233l22.78-48.31c1.767-3.748 6.234-5.352 9.982-3.585 3.746 1.767 5.351 6.236 3.584 9.982l-22.726 48.195-11.599 26.941c-11.404 26.493-17.188 54.551-17.188 83.393v61.953c.003 4.142-3.355 7.5-7.497 7.5z" fill="#ade194"/></g><g fill="#f9f7f8"><path d="m345.721 206.358 18.903 81.951c5.628 24.4-12.904 47.694-37.945 47.694-25.041 0-43.573-23.294-37.945-47.694l18.903-81.951 6.242-41.39 25.326-.767z"/><path d="m382.22 191.007 56.361 35.233c21.234 13.274 24.6 42.849 6.894 60.556-17.707 17.707-47.282 14.34-60.556-6.894l-35.233-56.361-29.363-39.692 31.141-24.856z"/><path d="m365.036 148.959 81.951-18.903c24.4-5.628 47.694 12.904 47.694 37.945 0 25.041-23.293 43.573-47.694 37.945l-81.951-18.903-43.557-12.915 3.594-21.564z"/></g><path d="m345.721 129.645 18.903-81.951c5.629-24.4-12.904-47.694-37.945-47.694-25.041 0-43.573 23.294-37.945 47.694l18.903 81.951 7.298 31.387 24.935-2.038z" fill="#faf7f7"/><g><g><path d="m326.679 146.859c-4.143 0-7.5-3.358-7.5-7.5v-57.139c0-4.142 3.357-7.5 7.5-7.5s7.5 3.358 7.5 7.5v57.139c0 4.142-3.357 7.5-7.5 7.5z" fill="#efedef"/></g></g><g><g><path d="m346.633 155.893c-1.878 0-3.758-.701-5.214-2.11-2.977-2.88-3.056-7.628-.176-10.605l10.325-10.672c.029-.03.058-.059.087-.088l30.376-30.376c2.93-2.929 7.678-2.929 10.607 0s2.929 7.678 0 10.606l-30.333 30.333-10.281 10.627c-1.471 1.52-3.43 2.285-5.391 2.285z" fill="#efedef"/></g></g><g><g><path d="m412.46 175.501h-42.958c-.093 0-.187-.002-.279-.005l-15.566-.581c-4.14-.154-7.37-3.635-7.216-7.774.151-4.044 3.478-7.221 7.49-7.221.095 0 .189.001.284.005l15.427.575h42.818c4.143 0 7.5 3.358 7.5 7.5s-3.357 7.501-7.5 7.501z" fill="#efedef"/></g></g><g><g><path d="m387.335 236.158c-1.92 0-3.839-.732-5.304-2.197l-30.376-30.376c-.086-.086-.17-.174-.252-.264l-10.325-11.383c-2.782-3.068-2.551-7.812.517-10.594 3.067-2.782 7.812-2.553 10.595.516l10.202 11.249 30.247 30.247c2.929 2.929 2.929 7.678 0 10.606-1.465 1.464-3.385 2.196-5.304 2.196z" fill="#efedef"/></g></g><g><g><path d="m326.679 261.283c-4.143 0-7.5-3.358-7.5-7.5v-42.958c0-.121.003-.241.009-.361l.908-18.827c.199-4.137 3.734-7.334 7.853-7.13 4.138.2 7.329 3.715 7.13 7.853l-.899 18.646v42.777c-.001 4.142-3.358 7.5-7.501 7.5z" fill="#efedef"/></g></g><g><g><path d="m266.022 236.158c-1.92 0-3.839-.732-5.304-2.197-2.929-2.929-2.929-7.678 0-10.606l30.337-30.336 9.911-10.208c2.885-2.971 7.634-3.043 10.605-.156 2.972 2.885 3.042 7.634.156 10.605l-9.948 10.246c-.025.026-.052.053-.077.079l-30.377 30.376c-1.464 1.465-3.384 2.197-5.303 2.197z" fill="#efedef"/></g></g><g><g><path d="m300.392 175.501h-59.494c-4.143 0-7.5-3.358-7.5-7.5s3.357-7.5 7.5-7.5h59.494c4.143 0 7.5 3.358 7.5 7.5s-3.357 7.5-7.5 7.5z" fill="#efedef"/></g></g><g><g><path d="m306.349 155.893c-2.008 0-4.011-.801-5.488-2.386l-9.858-10.576-30.284-30.283c-2.929-2.929-2.929-7.677 0-10.606 2.93-2.929 7.679-2.93 10.606 0l30.377 30.376c.063.062.124.125.184.189l9.948 10.672c2.824 3.03 2.657 7.775-.372 10.6-1.446 1.347-3.282 2.014-5.113 2.014z" fill="#efedef"/></g></g><circle cx="326.679" cy="168.001" fill="#fed402" r="42.823"/><path d="m309.189 168.001c0-19.241 12.69-35.516 30.156-40.917-4.003-1.238-8.257-1.906-12.667-1.906-23.651 0-42.823 19.173-42.823 42.823s19.173 42.823 42.823 42.823c4.41 0 8.663-.668 12.667-1.906-17.466-5.401-30.156-21.676-30.156-40.917z" fill="#fac600"/><g><path d="m136.578 235.422c-3.911 0-7.082-3.171-7.082-7.082v-47.696c0-3.911 3.17-7.082 7.082-7.082 3.911 0 7.082 3.171 7.082 7.082v47.696c-.001 3.912-3.171 7.082-7.082 7.082z" fill="#efedef"/></g><g><path d="m178.388 288.666c-1.812 0-3.625-.692-5.008-2.074l-20.938-20.938c-.057-.057-.113-.115-.168-.174l-11.142-11.933c-2.669-2.859-2.516-7.34.343-10.009 2.858-2.668 7.34-2.515 10.008.343l11.059 11.844 20.854 20.853c2.765 2.765 2.765 7.249 0 10.015-1.383 1.381-3.196 2.073-5.008 2.073z" fill="#efedef"/></g><g><path d="m136.578 305.984c-3.911 0-7.082-3.171-7.082-7.082v-45.788c0-3.911 3.17-7.082 7.082-7.082 3.911 0 7.082 3.171 7.082 7.082v45.788c-.001 3.912-3.171 7.082-7.082 7.082z" fill="#efedef"/></g><g><path d="m94.766 288.666c-1.812 0-3.625-.692-5.008-2.074-2.765-2.765-2.765-7.249 0-10.015l20.938-20.938c.093-.092.187-.182.285-.269l10.19-9.121c2.913-2.608 7.39-2.36 9.999.554s2.361 7.391-.553 9.999l-10.044 8.991-20.799 20.8c-1.383 1.381-3.196 2.073-5.008 2.073z" fill="#efedef"/></g><g><path d="m125.895 246.855h-48.447c-3.911 0-7.082-3.171-7.082-7.082s3.17-7.082 7.082-7.082h48.447c3.911 0 7.082 3.171 7.082 7.082s-3.171 7.082-7.082 7.082z" fill="#efedef"/></g><g><path d="m123.926 233.327c-1.679 0-3.364-.593-4.715-1.799l-8.224-7.344c-.099-.089-.195-.18-.29-.275l-20.938-20.939c-2.765-2.765-2.765-7.249 0-10.015 2.766-2.765 7.249-2.765 10.016 0l20.796 20.796 8.076 7.211c2.917 2.605 3.17 7.082.564 9.999-1.399 1.567-3.338 2.366-5.285 2.366z" fill="#efedef"/></g><g><circle cx="136.577" cy="239.778" fill="#fed402" r="29.866"/></g><path d="m121.381 239.778c0-13.963 9.584-25.686 22.531-28.955-2.347-.593-4.804-.91-7.335-.91-16.494 0-29.866 13.371-29.866 29.866 0 16.494 13.371 29.866 29.866 29.866 2.531 0 4.988-.318 7.335-.91-12.947-3.271-22.531-14.994-22.531-28.957z" fill="#fac600"/></svg>