<svg enable-background="new 0 0 283.465 283.465" height="512" viewBox="0 0 283.465 283.465" width="512" xmlns="http://www.w3.org/2000/svg"><g id="Layer_1_17_"><g clip-rule="evenodd" fill-rule="evenodd"><path d="m56.79 18.56s5.697-2.354 7.747-6.075c2.076-3.723 9.085-6.4 14.426 1.11 5.319 7.511 17.525.327 21.817 2.964 4.318 2.636 3.386 5.773 5.937 6.711 2.576.94 3.673 2.293 2.17 7.945-1.525 5.653-9.657 21.596-7.702 35.442 1.957 13.846 1.407 23.45 1.407 23.45.001 0-10.61-12.161-21.531-16.042-10.92-3.882-19.433-10.168-28.684-10.193-9.251-.026-20.005.009-26.204-8.812 0 0-.287-7.702 5.746-9.312 6.011-1.611 10.993-7.523 11.732-13.784.717-6.26 13.137-13.404 13.139-13.404z" fill="#f37983"/><path d="m104.621 20.969c2.814-4.207 9.13-9.48 14.615-3.566 2.193 2.352 2.026 6.316 3.838 8.145 1.837 1.828 4.817 4.787 1.574 9.315-3.265 4.529-12.685 12.694-13.854 25.035-.954 9.874.31 23.56-8.203 30.209.001 0 .549-9.604-1.407-23.45-1.953-13.847 6.176-29.789 7.702-35.442 1.504-5.653.406-7.006-2.17-7.945-1.143-.415-1.572-1.26-2.095-2.301z" fill="#f0565f"/><path d="m40.789 63.276c-.477 1.968-.668 4.134-.191 6.146 1.24 5.49 1.717 8.537 5.771 8.167 10.468-.956 19.313.956 26.777 3.621 14.117 5.032 23.343 12.751 29.447 8.898.001 0-10.61-12.161-21.531-16.042-10.92-3.882-19.433-10.168-28.684-10.193-3.742-.012-7.75-.012-11.589-.597z" fill="#f0565f"/><g fill="#2a3e1a"><path d="m129.656 274.658c0-.001-.024 0-.048 0-1.572-.024-2.838-1.323-2.814-2.904 1.027-70.14 20.72-92.249 39.748-113.631 7.441-8.372 14.497-16.281 20.625-27.025.787-1.374 2.527-1.848 3.886-1.069 1.385.784 1.86 2.531 1.073 3.902-6.413 11.268-13.996 19.773-21.317 27.997-19.168 21.547-37.292 41.899-38.294 109.909-.021 1.567-1.286 2.821-2.859 2.821z"/><path d="m129.656 274.658c-1.382-.001-2.6-1.013-2.815-2.427-4.17-27.046-5.651-57.917-6.986-85.154-.954-19.9-1.884-38.698-3.696-51.869-2.193-15.89-7.583-30.542-15.975-43.55-.835-1.327-.454-3.098.859-3.956 1.335-.858 3.099-.475 3.958.854 8.847 13.712 14.521 29.144 16.834 45.866 1.861 13.423 2.718 31.475 3.744 52.377 1.312 27.097 2.789 57.81 6.914 84.563.24 1.561-.835 3.021-2.384 3.262-.166.022-.31.034-.453.034z"/><path d="m122.91 193.934c-1.36 0-2.554-.966-2.816-2.347-3.314-18.201-12.852-30.692-28.303-37.123-1.476-.606-2.17-2.282-1.55-3.741.597-1.46 2.289-2.149 3.743-1.543 17.359 7.225 28.041 21.145 31.737 41.377.287 1.554-.739 3.044-2.289 3.329-.165.033-.358.048-.522.048z"/></g><path d="m125.078 228.645s-4.316-14.151-13.544-22.135c-9.225-7.986-26.658-8.48-34.479-21.91-3.814 17.592.858 26.41 8.751 31.363 11.803 7.399 30.759 6.172 39.272 12.682z" fill="#395b2b"/><path d="m129.847 264.209s5.46-5.801 21.984-8.615c23.486-3.999 23.558-18.887 28.66-37.629-12.086.651-24.917 5.238-34.645 12.897-10.229 8.056-17.025 19.509-15.999 33.347z" fill="#78a25e"/><path d="m143.605 77.517s-12.376 6.346-17.956 18.263c-5.553 11.919-6.151 31.201-6.342 41.482 6.32-1.728 14.402-7.119 18.122-16.87 3.721-9.752 7.892-23.992 6.176-42.875z" fill="#aeca95"/><path d="m230.208 69.194s-5.057-2.083-6.893-5.378c-1.836-3.294-8.036-5.665-12.756.984-4.697 6.648-15.499.289-19.314 2.622-3.79 2.333-2.981 5.11-5.246 5.942-2.264.831-3.267 2.027-1.907 7.029 1.336 5.003 8.536 19.113 6.796 31.367-1.715 12.254-1.24 20.754-1.24 20.754.002 0 9.394-10.763 19.051-14.198 9.683-3.435 17.216-8.999 25.394-9.021 8.178-.023 17.692.008 23.2-7.799 0 0 .238-6.817-5.079-8.242-5.316-1.424-9.752-6.657-10.396-12.198-.62-5.541-11.613-11.862-11.61-11.862z" fill="#f37983"/><path d="m187.86 71.325c-5.341-3.379-9.825-3.257-13.091-1.478-5.245 2.866-7.296 10.043-4.626 13.775 2.862 4.007 11.206 11.233 12.256 22.157.837 8.738-.263 20.849 7.248 26.735.002 0-.477-8.5 1.24-20.754 1.743-12.254-5.461-26.365-6.796-31.367-1.357-5.003-.357-6.199 1.907-7.029 1.003-.369 1.408-1.117 1.862-2.039z" fill="#f0565f"/><path d="m244.347 108.768c.429 1.741.594 3.658.188 5.44-1.119 4.857-1.55 7.554-5.126 7.227-9.274-.845-17.096.847-23.701 3.205-12.495 4.454-20.649 11.285-26.062 7.875.002 0 9.394-10.763 19.051-14.198 9.683-3.435 17.216-8.999 25.394-9.021 3.317-.01 6.868-.01 10.256-.528z" fill="#f0565f"/><path d="m95.758 154.449s-7.249-3.315-23.606.316c-23.27 5.162-28.947-8.603-40.749-24.031 11.446-3.963 25.036-4.549 36.934-1.126 12.52 3.598 23.153 11.632 27.421 24.841z" fill="#78a25e"/><path d="m146.301 190.021c-9.348-20.454-23.011-27.282-6.941-54.363 8.537 10.558 18.932 32.642 6.941 54.363z" fill="#395b2b"/><path d="m163.538 165.843c21.937 5.027 31.378 17.009 54.65-4.209-12.064-6.235-35.814-11.937-54.65 4.209z" fill="#597a38"/></g></g></svg>