<svg height="512" viewBox="0 0 395.36 464.002" width="512" xmlns="http://www.w3.org/2000/svg"><g id="Calque_2" data-name="Calque 2"><g id="_35-_Tale" data-name="35- Tale"><path d="m395.36 368.52a28.266 28.266 0 0 1 -33 27.84l-.729-.13c-4.521 77.69-71.611 67.31-71.611 67.31l-220.48-37.02a66.487 66.487 0 0 1 -53.36-48.91v-.01a66.5 66.5 0 0 1 -2.03-13.3l-14.07-280.44a62.778 62.778 0 0 1 23.04-51.82l22.011-17.93a62.805 62.805 0 0 1 54.359-12.37l212.8 51.25a62.793 62.793 0 0 1 47.51 52.56l35.3 259.14a28.993 28.993 0 0 1 .26 3.83z" fill="#c3c3fd"/><path d="m96.75 318.09-72.05 78.94a66.326 66.326 0 0 1 -8.52-19.42v-.01a66.5 66.5 0 0 1 -2.03-13.3l-14.07-280.44a62.778 62.778 0 0 1 23.04-51.82l22.011-17.93a62.717 62.717 0 0 1 24.729-12.31l.01.01z" fill="#a2a2f5"/><path d="m395.36 368.52a28.266 28.266 0 0 1 -33 27.84l-.729-.13c-4.521 77.69-71.611 67.31-71.611 67.31l-220.48-37.02a66.457 66.457 0 0 1 -53.36-48.91v-.01c9.68-69.21 80.57-59.51 80.57-59.51l298.35 46.6a28.993 28.993 0 0 1 .26 3.83z" fill="#a2a2f5"/><path d="m348.174 393.937c-12.909 47.552-52.7 44.262-52.7 44.262l-193.474-30.563s-50.666-4.37-42.806-31.881 56.781-21.409 56.781-21.409l232.2 39.591" fill="#ebe9fb"/><path d="m148.12 160.42c2.2-39.5 35.94-70.478 75.482-69.219a73.071 73.071 0 0 1 34.011 9.559 1.809 1.809 0 0 1 -.993 3.382c-31.613-1.869-58.885 24.473-60.916 58.83s21.948 63.721 53.562 65.59h.089a1.788 1.788 0 0 1 .579 3.436 73.342 73.342 0 0 1 -101.814-71.578z" fill="#fde062"/><path d="m339.66 257.29a43.585 43.585 0 0 1 -49.21 37.12l-81.59-11.43a43.593 43.593 0 0 1 3.87-86.71 43.586 43.586 0 0 1 86.37 11.46c1.14.07 2.29.18 3.44.34a43.589 43.589 0 0 1 37.12 49.22z" fill="#ebe9fb"/><path d="m299.1 207.73s-18.86 2.05-26.5 7.05c.14-.44 4.52-12.93 25.41-22a43.046 43.046 0 0 1 1.09 14.95z" fill="#d0d0fb"/><path d="m242.8 206.31a43.362 43.362 0 0 0 -21.85-9.66 43.818 43.818 0 0 0 -8.22-.38 43.254 43.254 0 0 1 4.37-13.09c21.26 6.18 25.7 23.13 25.7 23.13z" fill="#d0d0fb"/><path d="m160.41 383.8s-1.84 33.85-8.05 56.63c-4.89 18-12.51 29.09-24.08 11.19a85.262 85.262 0 0 1 -5.29-9.69c-25.68 21.18-31.45 8.18-30.359-11.53 1.209-22.16 11.109-52.8 11.109-52.8z" fill="#51518c"/><path d="m138.74 427.14-4.39 10.26-6.07 14.22a85.262 85.262 0 0 1 -5.29-9.69q2.91-2.4 6.181-5.4 4.44-4.11 9.569-9.39z" fill="#3e3e7a"/></g></g></svg>