<svg id="Capa_1" enable-background="new 0 0 511.996 511.996" height="512" viewBox="0 0 511.996 511.996" width="512" xmlns="http://www.w3.org/2000/svg"><g><g><path d="m478.289 447.096c-1.268 19.213-2.849 38.425-4.713 57.638-147.247 9.682-294.485 9.682-441.723 0-1.864-19.213-3.445-38.426-4.713-57.638-6.767-101.828-5.196-203.646 4.713-305.474 147.238-9.682 294.476-9.682 441.723 0 9.909 101.828 11.48 203.646 4.713 305.474z" fill="#f6f9f9"/><path d="m478.289 447.096c-1.268 19.213-2.849 38.425-4.713 57.638-147.247 9.682-294.485 9.682-441.723 0-1.864-19.213-3.445-38.426-4.713-57.638z" fill="#bcdf95"/><path d="m222.66 341.495-66.227-41.261v-16.699c10.023-2.05 18.537-8.105 24.007-17.317 7.171-12.074 7.771-27.278 1.527-38.732-2.04-3.746-6.733-5.127-10.481-3.087-3.747 2.042-5.129 6.735-3.087 10.482 3.629 6.658 3.128 16.081-1.246 23.446-2.336 3.935-7.84 10.537-18.447 10.537-20.777 0-37.68-16.904-37.68-37.68s16.903-37.68 37.68-37.68 37.679 16.903 37.679 37.68c0 4.267 3.459 7.726 7.726 7.726 4.268 0 7.726-3.459 7.726-7.726 0-29.297-23.835-53.133-53.132-53.133-29.298 0-53.133 23.836-53.133 53.133 0 26.673 19.759 48.811 45.407 52.565v16.764l-56.956 30.696c-3.756 2.024-5.16 6.711-3.136 10.467 2.025 3.757 6.711 5.161 10.468 3.136l49.624-26.744v42.157l-44.49 94.012c-1.825 3.857-.178 8.463 3.679 10.289 3.856 1.824 8.464.179 10.289-3.679l38.249-80.823 38.248 80.823c1.32 2.79 4.095 4.424 6.989 4.424 1.108 0 2.232-.239 3.3-.744 3.857-1.825 5.504-6.432 3.679-10.289l-44.489-94.012v-41.786l58.056 36.17c1.271.792 2.683 1.17 4.078 1.17 2.579 0 5.101-1.291 6.564-3.642 2.257-3.621 1.15-8.387-2.471-10.643z" fill="#dd636e"/><path d="m335.024 372.478-46.455-28.943v-8.957c.563-.095 1.126-.193 1.688-.312 10.527-2.227 19.557-8.421 25.426-17.44 5.647-8.679 6.252-18.997 1.66-28.31-4.787-9.709-14.392-16.49-24.47-17.276-4.268-.323-7.973 2.849-8.304 7.103s2.848 7.972 7.103 8.304c4.605.359 9.462 3.938 11.812 8.703 1.521 3.087 2.626 7.856-.753 13.049-3.618 5.559-9.183 9.377-15.672 10.75-6.49 1.372-13.124.137-18.683-3.48-5.559-3.618-9.377-9.184-10.751-15.672-1.373-6.489-.138-13.124 3.48-18.683 3.805-5.847 10.4-10.674 17.643-12.91 4.234-1.308 12.373-2.828 19.293 1.674 3.578 2.328 8.362 1.315 10.69-2.262s1.315-8.363-2.262-10.69c-9.043-5.884-20.507-7.123-32.281-3.486-10.747 3.318-20.236 10.334-26.035 19.247-5.869 9.019-7.874 19.783-5.646 30.31 2.227 10.527 8.421 19.556 17.44 25.425 4.092 2.663 8.544 4.525 13.169 5.563v6.146l-54.542-.003c-4.267 0-7.726 3.459-7.726 7.726s3.459 7.727 7.726 7.727l54.542.003v31.489l-31.69 66.965c-1.825 3.857-.178 8.463 3.679 10.289 1.067.505 2.192.744 3.3.744 2.893-.001 5.669-1.634 6.989-4.424l25.449-53.775 25.448 53.775c1.825 3.858 6.432 5.504 10.289 3.679s5.504-6.432 3.679-10.289l-31.689-66.965v-25.529l38.284 23.852c1.271.792 2.683 1.17 4.078 1.17 2.579 0 5.101-1.291 6.564-3.642 2.257-3.623 1.15-8.388-2.472-10.645z" fill="#80b4fb"/><path d="m403.269 277.111c-27.311 0-49.53-22.219-49.53-49.53s22.219-49.53 49.53-49.53 49.53 22.219 49.53 49.53-22.219 49.53-49.53 49.53zm0-83.608c-18.791 0-34.078 15.287-34.078 34.078s15.287 34.078 34.078 34.078 34.078-15.287 34.078-34.078-15.287-34.078-34.078-34.078z" fill="#f6e266"/><path d="m343.953 193.505c-.797 0-1.608-.124-2.406-.386l-30.677-10.052c-4.055-1.328-6.266-5.693-4.937-9.748 1.328-4.054 5.69-6.267 9.748-4.936l30.677 10.052c4.055 1.328 6.266 5.693 4.937 9.748-1.067 3.256-4.092 5.322-7.342 5.322z" fill="#f6e266"/><path d="m330.939 238.91h-22.635c-4.268 0-7.726-3.459-7.726-7.726s3.459-7.726 7.726-7.726h22.635c4.268 0 7.726 3.459 7.726 7.726s-3.459 7.726-7.726 7.726z" fill="#f6e266"/><path d="m354.256 327.003c-1.09 0-2.195-.231-3.249-.72-3.87-1.797-5.551-6.391-3.755-10.261l13.358-28.777c1.796-3.872 6.389-5.552 10.262-3.755 3.87 1.797 5.551 6.391 3.755 10.261l-13.358 28.777c-1.308 2.817-4.099 4.475-7.013 4.475z" fill="#f6e266"/><path d="m433.503 334.177c-3.708 0-6.981-2.677-7.612-6.455l-6.004-35.952c-.703-4.209 2.139-8.191 6.348-8.893 4.207-.706 8.191 2.139 8.893 6.348l6.004 35.952c.703 4.209-2.139 8.191-6.348 8.893-.43.072-.859.107-1.281.107z" fill="#f6e266"/><path d="m128.516 234.86c-4.268 0-7.726-3.459-7.726-7.726v-.473c0-4.267 3.459-7.726 7.726-7.726 4.268 0 7.726 3.459 7.726 7.726v.473c.001 4.266-3.458 7.726-7.726 7.726z" fill="#407093"/><path d="m148.707 225.952c-4.268 0-7.726-3.459-7.726-7.726v-.473c0-4.267 3.459-7.726 7.726-7.726s7.726 3.459 7.726 7.726v.473c0 4.266-3.459 7.726-7.726 7.726z" fill="#407093"/><path d="m270.016 304.022c-1.492 0-3-.432-4.328-1.331-3.532-2.394-4.455-7.199-2.06-10.731l.266-.392c2.393-3.532 7.198-4.455 10.73-2.061s4.455 7.199 2.06 10.731l-.266.392c-1.494 2.203-3.926 3.392-6.402 3.392z" fill="#407093"/><path d="m291.728 307.967c-1.492 0-3-.432-4.328-1.331-3.532-2.394-4.455-7.199-2.06-10.731l.266-.392c2.393-3.532 7.197-4.455 10.73-2.061 3.532 2.394 4.455 7.199 2.06 10.731l-.266.392c-1.493 2.203-3.926 3.392-6.402 3.392z" fill="#407093"/><g fill="#80bc93"><path d="m51.066 461.429c-4.268 0-7.726-3.459-7.726-7.726v-13.208c0-4.267 3.459-7.726 7.726-7.726s7.726 3.459 7.726 7.726v13.208c.001 4.267-3.458 7.726-7.726 7.726z"/><path d="m71.479 461.429c-4.268 0-7.726-3.459-7.726-7.726v-13.208c0-4.267 3.459-7.726 7.726-7.726s7.726 3.459 7.726 7.726v13.208c0 4.267-3.458 7.726-7.726 7.726z"/><path d="m344.055 461.429c-4.268 0-7.726-3.459-7.726-7.726v-13.208c0-4.267 3.459-7.726 7.726-7.726 4.268 0 7.726 3.459 7.726 7.726v13.208c0 4.267-3.459 7.726-7.726 7.726z"/><path d="m364.467 461.429c-4.268 0-7.726-3.459-7.726-7.726v-13.208c0-4.267 3.459-7.726 7.726-7.726 4.268 0 7.726 3.459 7.726 7.726v13.208c0 4.267-3.458 7.726-7.726 7.726z"/><path d="m407.095 461.429c-4.268 0-7.726-3.459-7.726-7.726v-13.208c0-4.267 3.459-7.726 7.726-7.726 4.268 0 7.726 3.459 7.726 7.726v13.208c0 4.267-3.458 7.726-7.726 7.726z"/><path d="m427.508 461.429c-4.268 0-7.726-3.459-7.726-7.726v-13.208c0-4.267 3.459-7.726 7.726-7.726 4.268 0 7.726 3.459 7.726 7.726v13.208c0 4.267-3.459 7.726-7.726 7.726z"/><path d="m451.523 461.429c-4.268 0-7.726-3.459-7.726-7.726v-13.208c0-4.267 3.459-7.726 7.726-7.726 4.268 0 7.726 3.459 7.726 7.726v13.208c0 4.267-3.459 7.726-7.726 7.726z"/></g></g><g><path d="m301.645 113.684c-2.951 0-5.768-1.699-7.053-4.565-1.746-3.893-.007-8.465 3.886-10.212l24.255-10.882c3.894-1.746 8.466-.007 10.212 3.886s.007 8.465-3.886 10.212l-24.255 10.882c-1.027.46-2.102.679-3.159.679z" fill="#61a2f9"/><path d="m330.409 60.1s-21.021 13.371-23.238 43.374c23.884 18.292 47.848 11.48 47.848 11.48l6.774-35.987z" fill="#f6e266"/><path d="m338.341 77.78s-21.969 11.257-31.174 25.695c2.222-30.004 23.242-43.375 23.242-43.375l31.385 18.866z" fill="#ecbe6b"/><path d="m330.409 60.1c43.996-21.496 88.648-41.529 133.956-60.1 11.775 16.682 19.979 34.966 24.61 54.854-43.996 21.496-88.648 41.53-133.956 60.1z" fill="#80b4fb"/><path d="m338.341 77.78-7.932-17.68c43.997-21.501 88.642-41.531 133.955-60.1 3.786 5.369 7.211 10.912 10.264 16.611-45.658 19.887-91.079 40.277-136.287 61.169z" fill="#61a2f9"/></g><g><path d="m242.132 174.362c-1.977 0-3.955-.754-5.463-2.263l-17.843-17.843c-3.018-3.017-3.018-7.909-.001-10.927 3.018-3.017 7.91-3.017 10.927 0l17.843 17.843c3.018 3.017 3.018 7.909.001 10.927-1.51 1.508-3.488 2.263-5.464 2.263z" fill="#da4a54"/><path d="m189.042 156.059s19.974 14.891 48.803 6.29c8.6-28.829-6.29-48.803-6.29-48.803l-36.043 6.469z" fill="#f6e266"/><path d="m202.744 142.357s18.335 16.528 35.103 19.995c-28.832 8.596-48.805-6.294-48.805-6.294l6.468-36.043z" fill="#ecbe6b"/><path d="m189.042 156.059c-35.74-33.472-70.345-68.078-103.818-103.818 11.402-16.939 25.573-31.11 42.512-42.512 35.74 33.472 70.346 68.078 103.818 103.818z" fill="#dd636e"/><path d="m202.744 142.357-13.702 13.702c-35.744-33.472-70.345-68.072-103.817-103.817 3.671-5.449 7.634-10.62 11.873-15.501 34.827 35.599 70.04 70.797 105.646 105.616z" fill="#da4a54"/></g></g></svg>