<svg id="Capa_1" enable-background="new 0 0 512 512" height="512" viewBox="0 0 512 512" width="512" xmlns="http://www.w3.org/2000/svg"><g><g><g><path d="m315.744 0c-25.28 0-95.323 0-120.403 0-144.127 34.306-181.191 441.147 24.49 512h95.912c30.513 0 55.255-24.742 55.255-55.255 0-23.851 0-385.885 0-401.491 0-30.513-24.741-55.254-55.254-55.254z" fill="#edebfd"/><path d="m195.341 0h-125.937c-30.513 0-55.254 24.741-55.254 55.255v401.491c0 30.512 24.741 55.254 55.254 55.254h150.427c-49.754-60.477-82.274-160.493-82.274-273.655 0-93.326 22.124-177.703 57.784-238.345z" fill="#d1d1ef"/><path d="m295.233 54.303c-3.439 0-69.356 0-125.74 0-53.186 28.58-93.768 64.079-28.836 124.121h154.576c11.854 0 21.463-9.609 21.463-21.463v-81.195c-.001-11.854-9.61-21.463-21.463-21.463z" fill="#59d5ff"/><path d="m89.915 54.303c-11.854 0-21.463 9.609-21.463 21.463v81.196c0 11.854 9.609 21.463 21.463 21.463h50.741c4.732-45.195 14.728-87.213 28.836-124.121-39.195-.001-73.784-.001-79.577-.001z" fill="#00c4fc"/><path d="m459.869 251.614 16.156-26.5c9.613-15.769-8.469-35.917-28.65-44.841-23.586-14.382-63.018 50.286-39.432 64.668 17.308 13.64 43.149 21.067 51.926 6.673z" fill="#fd5f5c"/><path d="m447.375 180.274c-14.728-6.513-30.574-7.048-37.589 4.46l-16.156 26.49c-6.405 10.504 1.682 23.765 14.313 33.718.412-.677 32.441-53.204 39.432-64.668z" fill="#fd3644"/><path d="m322.392 385.256c-34.871 0-46.036 68.303-21.313 77.745l45.706-25.94c12.969-21.27-3.692-43.739-24.393-51.805z" fill="#4e3a65"/><path d="m322.392 385.256c-15.109-5.887-32.371-4.1-41.837 11.425l-2.162 53.3c-.465 11.554 11.936 19.115 21.99 13.415l.695-.395 6.284-53.096z" fill="#412f55"/><path d="m492.182 198.625c6.456-10.568 7.358-23.353 2.906-34.555-25.825-25.825-48.787-11.874-58.786 4.524l-8.118 13.316 7.023 18.321 40.818 24.883z" fill="#ff8c8a"/><path d="m495.088 164.07c-2.997-7.542-8.373-14.209-15.836-18.755-18.287-11.15-42.16-5.368-53.31 12.919l-16.156 26.5 25.421 15.497 12.398-20.335c9.999-16.398 30.225-22.731 47.483-15.826z" fill="#fd5f5c"/><path d="m313.665 416.871c8.285 5.048 11.512-.248 19.787 4.799 8.285 5.048 5.058 10.343 13.333 15.391 2.948-4.834 109.929-180.273 113.085-185.447l-40.819-24.89c-30.68-6.874-126.292 158.532-111.688 183.181 1.166 2.343 2.553 4.68 6.302 6.966z" fill="#fade65"/><path d="m419.05 226.724-25.421-15.501c-.103.17-110.525 181.276-113.074 185.458 8.275 5.048 11.502-.248 19.787 4.799 4.527 2.761 5.612 5.597 7.02 8.425 5.762-9.449 105.302-172.706 111.688-183.181z" fill="#ffca47"/><g fill="#334151"><path d="m127.979 126.635c-4.284 0-7.758-3.473-7.758-7.758v-12.412c0-4.284 3.473-7.758 7.758-7.758 4.284 0 7.758 3.473 7.758 7.758v12.412c0 4.285-3.474 7.758-7.758 7.758z"/><path d="m257.169 126.635c-4.284 0-7.758-3.473-7.758-7.758v-12.412c0-4.284 3.473-7.758 7.758-7.758 4.284 0 7.758 3.473 7.758 7.758v12.412c0 4.285-3.474 7.758-7.758 7.758z"/><path d="m192.574 134.02c-8.767 0-17.104-3.797-22.874-10.419-2.815-3.23-2.478-8.13.752-10.945s8.13-2.477 10.945.752c5.91 6.782 16.427 6.802 22.354 0 2.815-3.231 7.714-3.567 10.945-.752 3.23 2.815 3.567 7.715.752 10.945-5.77 6.621-14.107 10.419-22.874 10.419z"/></g><path d="m316.695 232.727c4.284 0 7.758-3.473 7.758-7.758s-3.473-7.758-7.758-7.758h-178.742c-16.148 7.205-16.339 12.386-.354 15.515h179.096z" fill="#d1d1ef"/><path d="m68.453 217.212c-4.284 0-7.758 3.473-7.758 7.758s3.473 7.758 7.758 7.758h69.146c.05-5.202.169-10.374.354-15.515h-12.201-57.299z" fill="#bfbfe4"/><path d="m316.695 263.758h-178.564c-13.987 6.073-19.242 11.59.868 15.515h177.696c4.284 0 7.758-3.473 7.758-7.758s-3.473-7.757-7.758-7.757z" fill="#d1d1ef"/><path d="m68.453 263.758c-4.284 0-7.758 3.473-7.758 7.758s3.473 7.758 7.758 7.758h70.546c-.363-5.134-.642-10.312-.868-15.515-21.145-.001-48.64-.001-69.678-.001z" fill="#bfbfe4"/><path d="m231.362 325.818c4.284 0 7.758-3.473 7.758-7.758s-3.473-7.758-7.758-7.758h-89.313c-15.093 5.176-14.34 10.339 2.218 15.515h87.095z" fill="#d1d1ef"/><path d="m68.453 310.303c-4.284 0-7.758 3.473-7.758 7.758s3.473 7.758 7.758 7.758h75.814c-.802-5.128-1.555-10.292-2.218-15.515h-21.507-52.089z" fill="#bfbfe4"/><path d="m231.362 372.364c4.284 0 7.758-3.473 7.758-7.758s-3.473-7.758-7.758-7.758h-81.289c-13.257 6.669-8.742 11.511 3.673 15.515h77.616z" fill="#d1d1ef"/><path d="m68.453 356.848c-4.284 0-7.758 3.473-7.758 7.758s3.473 7.758 7.758 7.758h85.293c-1.295-5.109-2.524-10.277-3.673-15.515h-25.673-55.947z" fill="#bfbfe4"/><path d="m231.362 418.909c4.284 0 7.758-3.473 7.758-7.758s-3.473-7.758-7.758-7.758h-68.631c-15.375 6.783-9.415 11.582 5.445 15.515h63.186z" fill="#d1d1ef"/><path d="m68.453 403.394c-4.284 0-7.758 3.473-7.758 7.758s3.473 7.758 7.758 7.758h99.724c-1.891-5.083-3.713-10.249-5.445-15.515-11.362-.001-82.916-.001-94.279-.001z" fill="#bfbfe4"/></g></g></g></svg>