<svg xmlns="http://www.w3.org/2000/svg" version="1.1" xmlns:xlink="http://www.w3.org/1999/xlink" width="512" height="512" x="0" y="0" viewBox="0 0 64 64" style="enable-background:new 0 0 512 512" xml:space="preserve" class=""><g><path d="M51.759 20.41a.998.998 0 0 1-.613-.211 22.388 22.388 0 0 0-10.598-3.898 33.825 33.825 0 0 0-13.422.89 1 1 0 0 1-.553-1.922 35.825 35.825 0 0 1 14.238-.95 24.369 24.369 0 0 1 11.563 4.302 1 1 0 0 1-.615 1.79ZM21.209 32.28a.999.999 0 0 1-.547-.163C17.656 30.149 16 27.622 16 25a7.829 7.829 0 0 1 2.843-5.717 16.123 16.123 0 0 1 3.828-2.531 1 1 0 1 1 .879 1.797 14.153 14.153 0 0 0-3.355 2.208A5.902 5.902 0 0 0 18 25c0 2.467 2.043 4.322 3.758 5.443a1 1 0 0 1-.549 1.837Z" fill="#ffffff" opacity="1" data-original="#000000" class=""></path><path d="M12.998 23.205a.998.998 0 0 1-.842-.459A6.858 6.858 0 0 1 11 19c0-6.168 8.785-11 20-11a33.974 33.974 0 0 1 9.953 1.43c.565.176 1.112.368 1.639.57a1 1 0 1 1-.719 1.867q-.73-.283-1.514-.526A31.953 31.953 0 0 0 31 10c-9.757 0-18 4.121-18 9a4.9 4.9 0 0 0 .838 2.664 1 1 0 0 1-.84 1.541ZM28 50a36.544 36.544 0 0 1-4.813-.315 24.357 24.357 0 0 1-11.556-4.305 1 1 0 1 1 1.228-1.578 22.376 22.376 0 0 0 10.592 3.901A34.558 34.558 0 0 0 28 48a29.655 29.655 0 0 0 12.024-2.352 14.449 14.449 0 0 0 3.78-2.406A5.875 5.875 0 0 0 46 39c0-1.929-1.333-3.86-3.752-5.438a1 1 0 0 1 1.092-1.675C46.345 33.847 48 36.373 48 39a7.805 7.805 0 0 1-2.846 5.719 16.46 16.46 0 0 1-4.3 2.75A31.702 31.702 0 0 1 28 50ZM33 56a34.005 34.005 0 0 1-9.957-1.435 31.1 31.1 0 0 1-1.628-.56 1 1 0 0 1 .709-1.87c.482.183.994.357 1.516.521A31.974 31.974 0 0 0 33 54a1 1 0 0 1 0 2ZM36.99 55.78a1 1 0 0 1-.112-1.994C45.06 52.86 51 49.166 51 45a4.9 4.9 0 0 0-.84-2.669 1 1 0 1 1 1.68-1.082A6.854 6.854 0 0 1 53 45c0 5.284-6.537 9.715-15.898 10.774a1.114 1.114 0 0 1-.113.006Z" fill="#ffffff" opacity="1" data-original="#000000" class=""></path><path d="M32 39a7 7 0 1 1 7-7 7.008 7.008 0 0 1-7 7Zm0-12a5 5 0 1 0 5 5 5.006 5.006 0 0 0-5-5Z" fill="#ffffff" opacity="1" data-original="#000000" class=""></path><circle cx="5" cy="35" r="1" fill="#ffffff" opacity="1" data-original="#000000" class=""></circle><circle cx="19" cy="57" r="1" fill="#ffffff" opacity="1" data-original="#000000" class=""></circle><circle cx="23" cy="41" r="1" fill="#ffffff" opacity="1" data-original="#000000" class=""></circle><circle cx="57" cy="53" r="1" fill="#ffffff" opacity="1" data-original="#000000" class=""></circle><circle cx="51" cy="31" r="1" fill="#ffffff" opacity="1" data-original="#000000" class=""></circle><circle cx="59" cy="11" r="1" fill="#ffffff" opacity="1" data-original="#000000" class=""></circle><circle cx="19" cy="7" r="1" fill="#ffffff" opacity="1" data-original="#000000" class=""></circle><path d="M42 27a3 3 0 1 1 3-3 3.003 3.003 0 0 1-3 3Zm0-4a1 1 0 1 0 1 1 1 1 0 0 0-1-1ZM35 58a3 3 0 1 1 3-3 3.003 3.003 0 0 1-3 3Zm0-4a1 1 0 1 0 1 1 1 1 0 0 0-1-1ZM25 20a3 3 0 1 1 3-3 3.003 3.003 0 0 1-3 3Zm0-4a1 1 0 1 0 1 1 1 1 0 0 0-1-1Z" fill="#ffffff" opacity="1" data-original="#000000" class=""></path></g></svg>