<svg xmlns="http://www.w3.org/2000/svg" version="1.1" xmlns:xlink="http://www.w3.org/1999/xlink" width="512" height="512" x="0" y="0" viewBox="0 0 512 512" style="enable-background:new 0 0 512 512" xml:space="preserve"><g><path d="M496.6 179.8c-6.9-21.5-37.4-33.9-86.2-35v4c46.3 1 76.2 12.8 82.4 32.2 3.5 10.9-.6 24.1-11.4 38.5-2.8-2.2-6.3-3.6-10.1-3.6-8.9 0-16.1 7.2-16.1 16.1 0 4.1 1.5 7.8 4.1 10.7-5.4 4.7-11.3 9.4-17.9 14.1-40.2 29.1-97.3 56.2-160.9 76.4S154.6 364.1 105 363.5c-48.1-.6-79.4-12.4-85.7-32.3-5.1-16.2 6.7-34 17.5-46.1 12.5-14 30.9-28.7 53.7-43.1 3 3.7 7.5 6.1 12.6 6.1 8.9 0 16.1-7.2 16.1-16.1s-7.2-16.1-16.1-16.1S87 223.1 87 232c0 2.4.5 4.6 1.4 6.6-53.9 33.8-81 68.2-72.9 93.7 7 22 38.8 34.5 89.5 35.1h4.2c49.3 0 110.3-10.7 172.5-30.4 64-20.2 121.5-47.6 162-76.9 6.8-5 13-9.9 18.6-14.7 2.6 1.7 5.7 2.7 9 2.7 8.9 0 16.1-7.2 16.1-16.1 0-3.6-1.2-6.8-3.1-9.5 11.9-15.7 16.3-30.2 12.3-42.7z" fill="#ffffff" opacity="1" data-original="#000000"></path></g></svg>