<svg xmlns="http://www.w3.org/2000/svg" version="1.1" xmlns:xlink="http://www.w3.org/1999/xlink" width="512" height="512" x="0" y="0" viewBox="0 0 409 409.916" style="enable-background:new 0 0 512 512" xml:space="preserve" class=""><g><path d="M256.441 150.32c-14.629-13.664-33.722-20.828-53.699-20.132-20.004.683-38.55 9.113-52.21 23.742-13.665 14.625-20.813 33.699-20.13 53.703.68 20.008 9.11 38.547 23.743 52.21 13.988 13.067 32.039 20.177 51.082 20.177.87 0 1.746-.016 2.617-.047 20.004-.68 38.55-9.11 52.207-23.739 13.668-14.629 20.816-33.699 20.133-53.707-.68-20.004-9.11-38.547-23.743-52.207zm-3.867 98.922c-11.8 12.63-27.804 19.91-45.078 20.496-17.328.637-33.738-5.582-46.363-17.379-12.63-11.797-19.91-27.804-20.5-45.074-.586-17.27 5.586-33.738 17.379-46.367 11.8-12.625 27.804-19.906 45.074-20.492a54.86 54.86 0 0 1 2.262-.043c16.445 0 32.03 6.137 44.105 17.422 12.629 11.793 19.91 27.8 20.5 45.074.586 17.27-5.586 33.738-17.379 46.363zM257.383 304c-42.23 22.3-94.059 15.379-128.985-17.242-2.062-1.926-5.312-1.824-7.234.25a5.121 5.121 0 0 0 .242 7.234c23.215 21.688 53.281 32.965 83.656 32.965 19.481 0 39.094-4.64 57.102-14.152a5.12 5.12 0 0 0-4.781-9.055zm0 0" fill="#ffffff" opacity="1" data-original="#000000" class=""></path><path d="M87.988 194.75a5.123 5.123 0 0 0 5.734-4.422c3.012-23.363 13.13-44.844 29.27-62.121 20.457-21.898 48.211-34.52 78.156-35.539 29.985-1.023 58.5 9.68 80.395 30.137a5.118 5.118 0 0 0 7.234-.25 5.118 5.118 0 0 0-.246-7.235c-49.324-46.078-126.949-43.425-173.02 5.895-17.613 18.855-28.66 42.3-31.949 67.805a5.12 5.12 0 0 0 4.426 5.73zM45.863 212.035a5.116 5.116 0 0 0-4.718 5.492c3.117 41.278 21.507 79.578 51.777 107.856 31.687 29.597 72.039 44.242 112.32 44.242 44.04 0 87.985-17.523 120.352-52.172a5.123 5.123 0 0 0-.246-7.238c-2.059-1.922-5.309-1.82-7.235.25-58.105 62.21-155.984 65.547-218.199 7.433-28.39-26.515-45.637-62.433-48.562-101.14-.215-2.824-2.653-4.906-5.489-4.723zm0 0" fill="#ffffff" opacity="1" data-original="#000000" class=""></path><path d="M364.52 200.977a5.118 5.118 0 0 0 5.113-5.414c-2.45-42.422-20.906-81.762-51.969-110.782-32.137-30.015-73.977-45.765-117.98-44.222-43.946 1.496-84.676 20.02-114.692 52.152a5.123 5.123 0 0 0 .246 7.238 5.121 5.121 0 0 0 7.235-.246c28.148-30.137 66.351-47.508 107.558-48.91 41.137-1.402 80.5 13.324 110.64 41.473 29.138 27.21 46.442 64.105 48.743 103.886a5.116 5.116 0 0 0 5.106 4.825zm0 0" fill="#ffffff" opacity="1" data-original="#000000" class=""></path><path d="M345.094 55.418c-73.621-68.766-184.895-74.133-264.59-12.766a5.12 5.12 0 0 0-.93 7.184 5.126 5.126 0 0 0 7.18.934c75.695-58.305 181.41-53.2 251.348 12.132 22.707 21.211 39.554 46.668 50.07 75.664 19.137 52.746 14.672 111.102-12.25 160.102a5.117 5.117 0 0 0 4.48 7.586 5.115 5.115 0 0 0 4.493-2.656c28.343-51.582 33.046-113.004 12.906-168.52-11.078-30.535-28.809-57.336-52.707-79.66zM55.633 65.285c-18.074 19.348-32.024 41.578-41.461 66.07a5.117 5.117 0 0 0 2.937 6.618 5.112 5.112 0 0 0 6.613-2.938c8.965-23.262 22.22-44.375 39.391-62.762a5.123 5.123 0 0 0-.246-7.238 5.115 5.115 0 0 0-7.234.25zM1.703 182.746c-7.066 64.836 16.184 127.531 63.79 172 11.527 10.762 24.23 20.168 37.753 27.953.805.461 1.688.684 2.55.684a5.13 5.13 0 0 0 4.446-2.567 5.122 5.122 0 0 0-1.883-6.992c-12.851-7.394-24.921-16.332-35.875-26.562-45.226-42.246-67.312-101.805-60.601-163.407a5.123 5.123 0 0 0-4.535-5.644 5.106 5.106 0 0 0-5.645 4.535zM347.473 337.89c-45.164 48.352-111.102 70.317-176.309 58.755a194.21 194.21 0 0 1-25.652-6.364c-2.68-.879-5.578.614-6.446 3.301a5.128 5.128 0 0 0 3.305 6.445c8.8 2.836 17.887 5.09 27 6.703a207.202 207.202 0 0 0 36.14 3.188c56.231 0 110.259-23.086 149.442-65.035a5.122 5.122 0 0 0-.246-7.238 5.121 5.121 0 0 0-7.234.246zm0 0" fill="#ffffff" opacity="1" data-original="#000000" class=""></path></g></svg>