<svg xmlns="http://www.w3.org/2000/svg" version="1.1" xmlns:xlink="http://www.w3.org/1999/xlink" width="512" height="512" x="0" y="0" viewBox="0 0 418 418" style="enable-background:new 0 0 512 512" xml:space="preserve" class=""><g><g fill="#3e3e3f"><path d="M209 418C93.758 418 0 324.242 0 209S93.758 0 209 0s209 93.758 209 209c0 51.973-19.207 101.797-54.086 140.285a5.002 5.002 0 0 1-7.062.352 5.003 5.003 0 0 1-.348-7.067C389.71 305.926 408 258.484 408 209c0-109.73-89.27-199-199-199S10 99.27 10 209s89.27 199 199 199c45.516 0 90.016-15.77 125.3-44.402a5 5 0 1 1 6.302 7.765C303.539 401.438 256.805 418 209 418zm0 0" fill="#ffffff" opacity="1" data-original="#3e3e3f" class=""></path><path d="M209 378c-93.188 0-169-75.813-169-169 0-36.441 11.422-71.148 33.031-100.363a4.997 4.997 0 0 1 6.992-1.047 5.001 5.001 0 0 1 1.047 6.992C60.742 142.066 50 174.715 50 209c0 87.672 71.328 159 159 159s159-71.328 159-159S296.672 50 209 50c-39.828 0-77.945 14.805-107.324 41.688-2.04 1.867-5.203 1.722-7.067-.313s-1.722-5.2.317-7.063C126.152 55.739 166.664 40 209 40c93.188 0 169 75.813 169 169s-75.813 169-169 169zm0 0" fill="#ffffff" opacity="1" data-original="#3e3e3f" class=""></path><path d="M209 294c-46.867 0-85-38.133-85-85 0-40.309 28.637-75.344 68.09-83.313a4.998 4.998 0 0 1 5.89 3.915 4.999 4.999 0 0 1-3.91 5.89C159.262 142.52 134 173.434 134 209c0 41.355 33.645 75 75 75s75-33.645 75-75c0-35.566-25.262-66.48-60.07-73.508a4.999 4.999 0 0 1-3.91-5.89 5 5 0 0 1 5.89-3.915C265.363 133.657 294 168.691 294 209c0 46.867-38.133 85-85 85zm0 0" fill="#ffffff" opacity="1" data-original="#3e3e3f" class=""></path></g><path fill="#a8cfff" d="M98.3 88c4.052 2.898 6.7 7.64 6.7 13 0 8.84-7.16 16-16 16-4.762 0-9.02-2.09-11.95-5.39C74.54 108.78 73 105.077 73 101c0-8.84 7.16-16 16-16a15.92 15.92 0 0 1 9.3 3zm0 0" opacity="1" data-original="#a8cfff" class=""></path><path fill="#8bbae8" d="M92.332 95.332c3.473 0 6.68 1.121 9.3 3a16.17 16.17 0 0 1 3.34 3.211c.008-.184.028-.36.028-.543 0-5.36-2.648-10.102-6.7-13a15.893 15.893 0 0 0-9.3-3c-8.84 0-16 7.16-16 16 0 3.688 1.266 7.059 3.363 9.762.301-8.57 7.325-15.43 15.969-15.43zm0 0" opacity="1" data-original="#8bbae8" class=""></path><path fill="#f7d794" d="M335 359c0-8.84 7.16-16 16-16 3.43 0 6.61 1.09 9.21 2.93 4.099 2.898 6.79 7.672 6.79 13.07 0 8.84-7.16 16-16 16-5.719 0-10.719-3.012-13.55-7.52A15.936 15.936 0 0 1 335 359zm0 0" opacity="1" data-original="#f7d794" class=""></path><path fill="#e2bf7f" d="M354.164 352.832a15.89 15.89 0 0 1 9.211 2.93 16.26 16.26 0 0 1 3.61 3.523c.003-.094.015-.187.015-.285 0-5.398-2.691-10.172-6.79-13.07A15.908 15.908 0 0 0 351 343c-8.84 0-16 7.16-16 16 0 3.121.91 6.02 2.45 8.48.23.364.476.711.73 1.055.16-8.7 7.246-15.703 15.984-15.703zm0 0" opacity="1" data-original="#e2bf7f" class=""></path><path fill="#d7deed" d="M209 145c-8.3 0-15.121-6.32-15.922-14.41-.047-.52-.078-1.05-.078-1.59 0-8.84 7.16-16 16-16s16 7.16 16 16c0 .54-.031 1.07-.078 1.59-.8 8.09-7.621 14.41-15.922 14.41zm0 0" opacity="1" data-original="#d7deed" class=""></path><path fill="#afb9d2" d="M196.332 138c0-8.84 7.16-16 16-16 5.14 0 9.7 2.43 12.625 6.191-.422-8.46-7.39-15.191-15.957-15.191-8.84 0-16 7.16-16 16a15.942 15.942 0 0 0 3.375 9.816c-.016-.27-.043-.539-.043-.816zm0 0" opacity="1" data-original="#afb9d2"></path><path fill="#79ccd0" d="M245 210c0 19.328-15.672 35-35 35s-35-15.672-35-35 15.672-35 35-35 35 15.672 35 35zm0 0" opacity="1" data-original="#79ccd0"></path><path fill="#60b2b2" d="M181.5 222.336c0-19.332 15.672-35 35-35 10.922 0 20.676 5.004 27.094 12.844C239.348 185.633 225.918 175 210 175c-19.328 0-35 15.672-35 35a34.835 34.835 0 0 0 7.906 22.152 34.951 34.951 0 0 1-1.406-9.816zm0 0" opacity="1" data-original="#60b2b2" class=""></path></g></svg>