<svg xmlns="http://www.w3.org/2000/svg" version="1.1" xmlns:xlink="http://www.w3.org/1999/xlink" width="512" height="512" x="0" y="0" viewBox="0 0 43.349 43.349" style="enable-background:new 0 0 512 512" xml:space="preserve" fill-rule="evenodd" class=""><g><path d="M39.9 15.871a.38.38 0 0 1-.356-.244C36.89 8.68 30.404 3.704 23.02 2.95a.38.38 0 0 1 .078-.757 20.542 20.542 0 0 1 10.508 4.21 20.67 20.67 0 0 1 6.648 8.951.38.38 0 0 1-.356.516zM5.26 35.868a.377.377 0 0 1-.295-.14 20.671 20.671 0 0 1-4.62-13.01c0-5.14 1.902-10.066 5.356-13.869a20.582 20.582 0 0 1 13.154-6.656.38.38 0 0 1 .077.757A19.805 19.805 0 0 0 1.105 22.717c0 4.554 1.58 9.004 4.45 12.531a.38.38 0 0 1-.295.62zm15.717 7.481a20.67 20.67 0 0 1-13.011-4.62.38.38 0 1 1 .48-.59 19.909 19.909 0 0 0 12.53 4.45c10.958 0 19.872-8.915 19.872-19.872 0-1.048-.083-2.105-.248-3.142a.38.38 0 1 1 .75-.12c.172 1.077.258 2.174.258 3.262 0 11.377-9.255 20.632-20.631 20.632z" fill="#000000" opacity="1" data-original="#000000" class=""></path><path d="M20.977 39.193A16.483 16.483 0 0 1 4.71 25.34a.38.38 0 1 1 .75-.12c1.225 7.657 7.75 13.214 15.517 13.214 8.665 0 15.715-7.05 15.715-15.716 0-8.665-7.05-15.715-15.715-15.715A15.652 15.652 0 0 0 5.338 21.156a.38.38 0 1 1-.757-.075 16.432 16.432 0 0 1 5.3-10.544A16.436 16.436 0 0 1 20.978 6.24c9.085 0 16.476 7.391 16.476 16.476 0 9.085-7.392 16.476-16.476 16.476z" fill="#000000" opacity="1" data-original="#000000" class=""></path><path d="M20.977 35.037c-6.794 0-12.32-5.526-12.32-12.32 0-6.793 5.526-12.32 12.32-12.32 6.793 0 12.32 5.527 12.32 12.32 0 2.635-.82 5.15-2.374 7.27a.38.38 0 0 1-.613-.45 11.468 11.468 0 0 0 2.226-6.82c0-6.374-5.185-11.56-11.56-11.56-6.373 0-11.559 5.186-11.559 11.56s5.186 11.56 11.56 11.56c2.302 0 4.525-.675 6.43-1.953a.38.38 0 0 1 .423.632 12.261 12.261 0 0 1-6.853 2.081z" fill="#000000" opacity="1" data-original="#000000" class=""></path><path d="M13.313 24.474a.38.38 0 0 1-.374-.314 8.242 8.242 0 0 1-.127-1.443 8.12 8.12 0 0 1 2.318-5.698 8.123 8.123 0 0 1 5.622-2.463.381.381 0 0 1 .02.76 7.362 7.362 0 0 0-7.2 7.401c0 .44.04.88.116 1.31a.38.38 0 0 1-.375.447zm7.664 6.408a8.163 8.163 0 0 1-6.164-2.81.38.38 0 1 1 .574-.499 7.406 7.406 0 0 0 5.59 2.548c4.082 0 7.403-3.321 7.403-7.404a7.42 7.42 0 0 0-3.79-6.463.38.38 0 1 1 .373-.662 8.177 8.177 0 0 1 4.178 7.125c0 4.502-3.663 8.165-8.164 8.165z" fill="#000000" opacity="1" data-original="#000000" class=""></path><path d="M20.977 19.47a3.251 3.251 0 0 0-3.248 3.247 3.251 3.251 0 0 0 3.248 3.248c1.79 0 3.248-1.456 3.248-3.248s-1.458-3.247-3.248-3.248zm0 7.256a4.013 4.013 0 0 1-4.009-4.009 4.013 4.013 0 0 1 4.009-4.008 4.013 4.013 0 0 1 4.008 4.008 4.013 4.013 0 0 1-4.008 4.009zM20.977.76c-.94 0-1.706.765-1.706 1.706 0 .94.765 1.706 1.706 1.706.94 0 1.705-.766 1.705-1.706S21.917.76 20.977.76zm0 4.172a2.47 2.47 0 0 1-2.466-2.466A2.469 2.469 0 0 1 20.977 0a2.469 2.469 0 0 1 2.466 2.466 2.47 2.47 0 0 1-2.466 2.466zM40.54 15.77c-.148 0-.296.019-.443.059-.44.117-.808.4-1.036.795a1.694 1.694 0 0 0-.17 1.294c.118.44.4.807.794 1.035a1.701 1.701 0 0 0 2.33-.624c.228-.394.288-.855.17-1.295-.117-.44-.4-.808-.794-1.035a1.699 1.699 0 0 0-.85-.229zm-.006 4.173c-.427 0-.849-.112-1.229-.331a2.451 2.451 0 0 1-1.149-1.498c-.17-.636-.083-1.3.246-1.87.33-.572.862-.98 1.498-1.15a2.45 2.45 0 0 1 1.872.246c.57.33.978.862 1.148 1.497a2.469 2.469 0 0 1-2.386 3.106zM5.45 38.244a1.709 1.709 0 0 0 2.413 0 1.707 1.707 0 0 0-1.206-2.912 1.708 1.708 0 0 0-1.206 2.912zm1.207 1.258a2.46 2.46 0 0 1-1.744-.72 2.469 2.469 0 0 1 0-3.488 2.469 2.469 0 0 1 3.487 0 2.469 2.469 0 0 1 0 3.488 2.46 2.46 0 0 1-1.743.72zM4.888 21.497c-.456 0-.884.179-1.206.5-.322.322-.5.751-.5 1.206s.178.884.5 1.207c.322.321.75.499 1.206.499.456 0 .884-.178 1.206-.5.322-.322.5-.75.5-1.206s-.178-.884-.5-1.206c-.322-.322-.75-.5-1.206-.5zm0 4.172a2.451 2.451 0 0 1-1.744-.722c-.466-.466-.722-1.085-.722-1.744s.256-1.278.722-1.743a2.447 2.447 0 0 1 1.744-.723c.659 0 1.278.256 1.744.723.466.465.722 1.085.722 1.743s-.256 1.278-.722 1.744a2.452 2.452 0 0 1-1.744.722zM21.63 16.363a1.708 1.708 0 0 0 2.412 0c.322-.323.5-.75.5-1.206s-.178-.884-.5-1.206c-.322-.323-.75-.5-1.206-.5a1.708 1.708 0 0 0-1.206 2.912zm1.206 1.259a2.46 2.46 0 0 1-1.744-.721 2.469 2.469 0 0 1 1.744-4.21c.659 0 1.278.256 1.744.722a2.45 2.45 0 0 1 .722 1.744 2.46 2.46 0 0 1-2.466 2.465zM29.244 29.628a1.703 1.703 0 0 0-1.207 2.91c.323.323.75.5 1.206.5.456 0 .884-.177 1.207-.5.322-.322.499-.75.499-1.206a1.703 1.703 0 0 0-1.706-1.704zm0 4.17a2.447 2.447 0 0 1-1.744-.722 2.448 2.448 0 0 1-.723-1.744 2.469 2.469 0 0 1 4.21-1.744c.466.467.722 1.086.722 1.744 0 .66-.256 1.278-.722 1.744a2.448 2.448 0 0 1-1.743.723zM13.954 24.375c-.437 0-.874.165-1.206.498-.322.323-.5.75-.5 1.206 0 .455.178.884.5 1.206.322.323.75.5 1.206.5s.884-.177 1.206-.5c.322-.322.5-.75.5-1.206a1.703 1.703 0 0 0-1.706-1.704zm0 4.17a2.448 2.448 0 0 1-1.744-.722 2.45 2.45 0 0 1-.722-1.744c0-.659.256-1.277.722-1.744a2.469 2.469 0 0 1 3.488 0c.466.467.722 1.086.722 1.744a2.45 2.45 0 0 1-.722 1.744 2.448 2.448 0 0 1-1.744.723z" fill="#000000" opacity="1" data-original="#000000" class=""></path><path fill="#e57373" d="M19.271 2.466c0 .94.765 1.706 1.706 1.706.94 0 1.705-.766 1.705-1.706S21.917.76 20.977.76c-.94 0-1.706.765-1.706 1.706z" opacity="1" data-original="#e57373" class=""></path><path fill="#fff176" d="M24.042 13.951c-.322-.323-.75-.5-1.206-.5a1.708 1.708 0 0 0-1.206 2.912 1.708 1.708 0 0 0 2.8-.594 1.704 1.704 0 0 0-.388-1.818z" opacity="1" data-original="#fff176" class=""></path><path fill="#90caf9" d="M15.16 24.873a1.703 1.703 0 0 0-1.206-.498 1.703 1.703 0 0 0-1.206 2.91 1.705 1.705 0 1 0 2.412-2.412z" opacity="1" data-original="#90caf9" class=""></path><path fill="#a5d6a7" d="M6.594 23.203a1.706 1.706 0 0 0-1.667-1.705h-.039a1.706 1.706 0 1 0 1.706 1.705z" opacity="1" data-original="#a5d6a7"></path><path fill="#f68f4d" d="M7.863 35.832c-.323-.323-.75-.5-1.206-.5a1.708 1.708 0 0 0-1.206 2.912 1.709 1.709 0 0 0 2.474-.066 1.708 1.708 0 0 0-.062-2.346z" opacity="1" data-original="#f68f4d"></path><path fill="#ffcc80" d="M27.538 31.332a1.7 1.7 0 0 0 .384 1.08 1.705 1.705 0 1 0-.384-1.08z" opacity="1" data-original="#ffcc80" class=""></path><path fill="#f48fb1" d="M39.685 18.953a1.691 1.691 0 0 0 1.229.187h.002l.064-.016c.44-.119.808-.401 1.035-.795.228-.394.288-.855.17-1.294-.117-.44-.4-.808-.794-1.036a1.699 1.699 0 0 0-1.294-.17c-.44.117-.808.4-1.036.795a1.694 1.694 0 0 0-.17 1.294c.118.44.4.807.794 1.035z" opacity="1" data-original="#f48fb1"></path><g fill="#e0e0e0"><path d="M9.882 10.537A16.436 16.436 0 0 1 20.977 6.24c9.085 0 16.476 7.391 16.476 16.476 0 9.085-7.392 16.476-16.476 16.476a16.472 16.472 0 0 1-10.74-3.981 16.487 16.487 0 0 1-5.472-9.546 2.465 2.465 0 0 1-.148-4.915 16.434 16.434 0 0 1 5.265-10.214zm28.274 7.577c-.17-.636-.083-1.3.246-1.87.24-.417.589-.747 1.007-.961C36.72 8.63 30.496 3.854 23.386 2.992a2.47 2.47 0 0 1-2.41 1.94 2.47 2.47 0 0 1-2.41-1.942 19.804 19.804 0 0 0-17.46 19.727c0 4.432 1.495 8.764 4.22 12.244a2.47 2.47 0 0 1 3.074.333 2.47 2.47 0 0 1 .333 3.074 19.913 19.913 0 0 0 12.244 4.22c10.957 0 19.87-8.914 19.87-19.87 0-.927-.064-1.859-.193-2.778l-.12.003c-.427 0-.849-.112-1.229-.331a2.452 2.452 0 0 1-1.149-1.498z" fill="#ffffff" opacity="0" data-original="#e0e0e0" class=""></path><path d="M20.977 7.002c-7.995 0-14.636 5.9-15.598 13.784a2.465 2.465 0 0 1 .144 4.801c1.372 7.466 7.813 12.846 15.454 12.846 8.665 0 15.715-7.05 15.715-15.716 0-8.665-7.05-15.715-15.715-15.715zM8.657 22.717c0-6.792 5.526-12.32 12.32-12.32 6.793 0 12.32 5.528 12.32 12.32 0 2.526-.754 4.942-2.185 7.006a2.465 2.465 0 0 1-1.868 4.076 2.447 2.447 0 0 1-1.685-.666 12.26 12.26 0 0 1-6.582 1.904c-6.794 0-12.32-5.526-12.32-12.32z" fill="#ffffff" opacity="0" data-original="#e0e0e0" class=""></path><path d="M20.977 11.158c-6.374 0-11.56 5.185-11.56 11.56 0 6.373 5.186 11.559 11.56 11.559 2.174 0 4.279-.603 6.11-1.746a2.466 2.466 0 0 1 3.442-3.303 11.464 11.464 0 0 0 2.007-6.51c0-6.375-5.185-11.56-11.56-11.56zm-5.847 5.86a8.12 8.12 0 0 1 5.312-2.448c.103-.424.32-.826.65-1.157a2.448 2.448 0 0 1 1.744-.722c.659 0 1.278.256 1.744.722a2.45 2.45 0 0 1 .722 1.744c0 .202-.024.4-.07.592a8.178 8.178 0 0 1 3.909 6.968c0 4.502-3.663 8.165-8.164 8.165a8.162 8.162 0 0 1-5.954-2.579c-.33.159-.693.243-1.069.243a2.465 2.465 0 0 1-1.063-4.692 8.273 8.273 0 0 1-.079-1.137c0-2.141.824-4.164 2.318-5.698z" fill="#ffffff" opacity="0" data-original="#e0e0e0" class=""></path><path d="M20.378 15.337a7.36 7.36 0 0 0-6.805 7.38c0 .307.019.615.056.919a2.464 2.464 0 0 1 2.026 4.229 7.405 7.405 0 0 0 5.322 2.256c4.082 0 7.403-3.321 7.403-7.404a7.419 7.419 0 0 0-3.448-6.26 2.46 2.46 0 0 1-2.096 1.164 2.46 2.46 0 0 1-2.458-2.284zm-3.41 7.38a4.013 4.013 0 0 1 4.009-4.008 4.013 4.013 0 0 1 4.008 4.008 4.013 4.013 0 0 1-4.008 4.009 4.013 4.013 0 0 1-4.009-4.009z" fill="#ffffff" opacity="0" data-original="#e0e0e0" class=""></path></g><path fill="#ffcc80" d="M20.977 19.47a3.251 3.251 0 0 0-3.248 3.247 3.251 3.251 0 0 0 3.248 3.248c1.79 0 3.248-1.456 3.248-3.248s-1.457-3.247-3.248-3.248z" opacity="1" data-original="#ffcc80" class=""></path></g></svg>