<svg xmlns="http://www.w3.org/2000/svg" version="1.1" xmlns:xlink="http://www.w3.org/1999/xlink" width="512" height="512" x="0" y="0" viewBox="0 0 512 512" style="enable-background:new 0 0 512 512" xml:space="preserve"><g><path d="M435.547 145.16C387.47 116.598 323.705 100.867 256 100.867c-56.486 0-110.003 10.844-154.767 31.359a7.5 7.5 0 1 0 6.25 13.636C150.3 126.239 201.655 115.867 256 115.867c65.049 0 126.092 14.982 171.886 42.188C472.455 184.534 497 219.318 497 256c0 34.654-22.26 68.022-62.679 93.957a7.502 7.502 0 0 0 4.056 13.813c1.387 0 2.79-.384 4.043-1.188C487.29 333.792 512 295.94 512 256c0-42.187-27.151-81.55-76.453-110.84zM409.745 363.676c-43.164 20.93-97.765 32.457-153.745 32.457-65.048 0-126.092-14.983-171.885-42.188C39.546 327.466 15 292.682 15 256c0-36.124 23.923-70.528 67.361-96.878a7.498 7.498 0 0 0 2.522-10.302 7.498 7.498 0 0 0-10.302-2.522C26.487 175.471 0 214.431 0 256c0 42.187 27.151 81.55 76.453 110.84 48.078 28.562 111.842 44.293 179.547 44.293 58.202 0 115.127-12.061 160.29-33.961a7.5 7.5 0 1 0-6.545-13.496z" fill="#ffffff" opacity="1" data-original="#000000"></path></g></svg>