<svg id="Capa_1" enable-background="new 0 0 512 512" viewBox="0 0 512 512" xmlns="http://www.w3.org/2000/svg"><g><path d="m268.391 390.591c-6.76 6.76-17.719 6.759-24.478 0-6.76-6.76-6.76-17.719 0-24.479l24.253-24.253c-6.76 6.76-17.718 6.76-24.478 0s-6.76-17.718 0-24.478l106.135-106.136c-6.759 6.759-17.718 6.76-24.479-.001-6.759-6.759-6.759-17.719 0-24.478l20.733-20.733c-6.759 6.759-17.718 6.76-24.478 0-6.759-6.759-6.759-17.719 0-24.478l-58.514 58.514c-6.759 6.759-17.718 6.76-24.478 0-6.759-6.759-6.759-17.719 0-24.478l-38.241 38.241c-6.76 6.76-17.719 6.759-24.478 0-6.76-6.76-6.759-17.719 0-24.478l-137.479 137.159c-40.614 40.615-40.614 106.464 0 147.078s106.464 40.614 147.078 0z" fill="#ffefac"/><path d="m207.522 391.53c-1.951-21.695 4.835-43.252 20.237-58.655l3.141-3.141c6.544-6.523 10.148-15.209 10.148-24.446.012-9.24-3.592-17.932-10.132-24.472-13.494-13.472-35.384-13.457-48.88.012l-3.362 3.363c-15.367 15.368-36.863 22.133-58.515 20.261-27.1-2.344-54.989 6.768-75.802 27.403-36.219 35.91-37.589 95.897-2.951 133.335 37.227 40.237 100.054 41.157 138.451 2.759 20.925-20.926 30.122-49.09 27.665-76.419z" fill="#fff"/><g fill="#ffe077"><path d="m32.752 479.248c-43.669-43.669-43.669-114.723 0-158.392l180.181-180.182c3.124-3.124 8.187-3.127 11.314 0s3.124 8.19 0 11.314l-180.181 180.182c-37.43 37.43-37.432 98.332 0 135.765s98.335 37.43 135.765 0l101.823-101.823c3.124-3.124 8.187-3.127 11.314 0s3.124 8.19 0 11.314l-101.824 101.822c-43.669 43.67-114.722 43.67-158.392 0z"/><path d="m202.458 309.543c-3.127-3.127-3.124-8.19 0-11.314l295.884-295.885c3.124-3.124 8.187-3.127 11.314 0s3.124 8.19 0 11.314l-295.884 295.885c-3.124 3.124-8.187 3.126-11.314 0z"/><path d="m172.29 290.688c-3.127-3.127-3.124-8.19 0-11.314l222.007-222.007c3.124-3.124 8.187-3.127 11.314 0s3.124 8.19 0 11.314l-222.008 222.007c-3.123 3.124-8.186 3.127-11.313 0z"/><path d="m119.489 294.456c-3.127-3.127-3.124-8.19 0-11.314l151.617-151.617c3.124-3.124 8.187-3.127 11.314 0s3.124 8.19 0 11.314l-151.618 151.617c-3.124 3.124-8.186 3.127-11.313 0z"/><path d="m293.733 120.212c-3.127-3.127-3.124-8.19 0-11.314l11.314-11.314c3.124-3.124 8.187-3.127 11.314 0s3.124 8.19 0 11.314l-11.314 11.314c-3.125 3.124-8.188 3.126-11.314 0z"/><path d="m221.312 339.711c-3.127-3.127-3.124-8.19 0-11.314l28.284-28.284c3.124-3.124 8.187-3.127 11.314 0s3.124 8.19 0 11.314l-28.284 28.284c-3.124 3.124-8.187 3.126-11.314 0z"/><path d="m272.224 288.799c-3.127-3.127-3.124-8.19 0-11.314l142.426-142.426c3.124-3.124 8.187-3.127 11.314 0s3.124 8.19 0 11.314l-142.426 142.426c-3.124 3.124-8.187 3.127-11.314 0z"/><path d="m217.545 392.512c-3.127-3.127-3.124-8.19 0-11.314l121.865-121.866c3.124-3.124 8.187-3.127 11.314 0s3.124 8.19 0 11.314l-121.866 121.866c-3.124 3.124-8.187 3.126-11.313 0z"/></g><path d="m158.842 345.388c-.618-.53-1.247-1.05-1.886-1.56l-10.178 2.448-3.362-10.99c-34.788-16.924-76.977-3.287-95.151 31.187-12.883 24.437-10.309 52.915 4.257 74.243 0 0 9.93 12.094 27.306 20.781 35.566 17.783 75.196 4.597 92.469-31.22 22.861-47.404-13.455-84.889-13.455-84.889z" fill="#ffc263"/><path d="m158.842 345.388c14.556 21.326 17.124 49.829 4.244 74.26-18.545 35.176-62.093 48.658-97.269 30.114-4.865-2.565-9.287-5.613-13.295-9.046 6.402 9.379 15.112 17.361 25.857 23.025 26.445 13.941 57.621 9.782 79.349-8.088l1.227-10.228 9.914-1.253c2.519-3.258 4.793-6.777 6.779-10.545 15.979-30.31 8.164-66.85-16.806-88.239z" fill="#ffaa5a"/><circle cx="73.688" cy="409.696" fill="#ffe077" r="22.195"/><circle cx="136.968" cy="399.881" fill="#ffaa5a" r="16"/><path d="m105.796 436.942c-2.849-1.751-4.398-5.183-3.608-8.618.996-4.307 5.294-6.989 9.598-5.995l11.982 2.764c4.306.991 6.989 5.294 5.999 9.592-.996 4.307-5.294 6.989-9.598 5.995l-11.982-2.764c-.868-.199-1.672-.532-2.391-.974z" fill="#ffaa5a"/><path d="m97.783 371.26c-2.829-1.738-4.384-5.147-3.62-8.569l2.306-10.288c.97-4.31 5.25-7.021 9.561-6.054 4.311.953 7.02 5.244 6.058 9.555l-2.306 10.288c-.97 4.31-5.25 7.021-9.561 6.054-.887-.198-1.706-.536-2.438-.986z" fill="#ffaa5a"/><path d="m165.702 440.994c-3.176-3.144-8.201-3.114-11.316.016-3.122 3.125-3.116 8.19.009 11.312l3.333 3.332c1.773-1.463 3.482-3.033 5.14-4.691 2.175-2.174 4.163-4.423 6-6.79z" fill="#ff8b57"/><path d="m139.87 356.206c3.741 2.299 8.646 1.15 10.976-2.581l6.111-9.798c-4.246-3.407-8.796-6.237-13.539-8.542l-6.146 9.869c-2.34 3.748-1.199 8.681 2.552 11.022.012.01.032.022.046.03z" fill="#ffe077"/></g><g/><g/><g/><g/><g/><g/><g/><g/><g/><g/><g/><g/><g/><g/><g/></svg>