<svg id="Capa_1" enable-background="new 0 0 495.14 495.14" height="512" viewBox="0 0 495.14 495.14" width="512" xmlns="http://www.w3.org/2000/svg"><g><path d="m461.43 122.78-.01.01-33.054-.01-39.506-15.073 16.55-50.867c-23.33-19.34-50.28-34.47-79.67-44.24l-77.602 26.879-29.222-15.772-7.176-21.117v-.01c-81.08 11.75-149.43 62.79-185.12 133.19l.01.01.001-.001 21.099 17.532-15.66 45.361-31.31 29.398c-.5 6.43-.76 12.94-.76 19.5 0 24.86 3.66 48.86 10.48 71.5-.02.01 39.226 13.257 39.226 13.257l33.543 34.103s-29.568 35.08-29.578 35.09c35.53 44.69 86.19 76.81 144.23 88.63l41.881-3.783 76.776-23.107 88.702-51.759 78.41-173.535 6.001-42.365c-5.551-26.021-15.201-50.531-28.241-72.821z" fill="#f37c7c"/><g><g id="XMLID_252_"><g><path d="m489.67 195.6c3.59 16.76 5.47 34.14 5.47 51.97 0 136.73-110.84 247.57-247.57 247.57-17.01 0-33.62-1.72-49.67-4.99 11.3-4.27 23.63-8.98 36.29-13.85 40.59-15.61 77.18-39.07 107.91-68.61 30.74-29.54 55.63-65.17 72.83-105.11 16.64-38.62 40.65-73.63 70.71-103.05z" fill="#f79595"/><path d="m113.728 246.54c-1.44-10.82-2.19-21.86-2.19-33.07 0-60.88 20.694-117.761 58.44-159.76 13.632-15.167 28.502-29.418 45.016-41.543l-3.254-9.577v-.01c-81.08 11.75-149.43 62.79-185.12 133.19l.01.01.001-.001 21.099 17.532-15.66 45.361-31.31 29.398c-.5 6.43-.76 12.94-.76 19.5 0 24.86 3.66 48.86 10.48 71.5-.02.01 39.226 13.257 39.226 13.257l33.543 34.103s-29.568 35.08-29.578 35.09c35.53 44.69 86.19 76.81 144.23 88.63l41.881-3.783 76.776-23.107 7.922-4.623c-109.542-15.331-196.096-102.336-210.752-212.097z" fill="#ee6161"/><g fill="#f79595"><path d="m405.41 56.84c22.31 18.47 41.32 40.79 56.02 65.94l-.01.01-5.9 3.57c-43.76 26.44-76.64 67.65-92.71 116.2-13.29 40.15-37.75 74.51-69.41 99.91s-70.51 41.84-112.59 46.12l-127.13 12.92-.01.01c-19.24-24.21-34.05-52.1-43.19-82.45l.02-.01 147.52-29.73c68.85-13.88 126.38-60.9 153.68-125.6 7.15-16.94 16.44-32.82 27.59-47.25 11.15-14.44 24.16-27.43 38.75-38.63z"/><path d="m211.74 2.58c11.7-1.7 23.66-2.58 35.83-2.58 27.32 0 53.6 4.42 78.17 12.6l-16.73 11.81c-12.32 8.69-23.63 18.66-33.75 29.73-10.11 11.07-19.03 23.22-26.58 36.27-25.55 44.17-66.41 77.43-114.84 93.5l-133.08 44.16c2.57-33 11.61-64.19 25.86-92.3l.01.01 44.53-17.79c53.35-21.32 99.43-57.55 132.73-104.37z"/></g></g></g><g><path d="m169.978 53.71c.641-.758 1.302-1.498 1.952-2.248-28.598 28.674-62.844 51.372-100.77 66.528l-44.54 17.78c-14.25 28.11-23.29 59.3-25.86 92.3l111.787-37.094c4.692-52.079 25.512-99.516 57.431-137.266z" fill="#f37c7c"/></g><path d="m125.583 295.867-115.083 23.193-.02.01c9.14 30.35 23.95 58.24 43.19 82.45l127.14-12.93c.994-.101 1.985-.216 2.976-.33-25.741-25.82-45.818-57.29-58.203-92.393z" fill="#f37c7c"/><path d="m359.108 461.04c-25.142 0-49.403-3.756-72.265-10.722-16.613 10.165-34.215 18.891-52.653 25.982-12.66 4.87-24.99 9.58-36.29 13.85 16.05 3.27 32.66 4.99 49.67 4.99 46.078 0 89.238-12.602 126.184-34.526-4.835.281-9.74.426-14.646.426z" fill="#f37c7c"/><circle cx="277.781" cy="218.786" fill="#ee6161" r="32.311"/><circle cx="134.074" cy="388.965" fill="#e94444" r="22.536"/><circle cx="300.559" cy="332.327" fill="#ee6161" r="28.325"/><circle cx="424.027" cy="285.085" fill="#ee6161" r="30.331"/><circle cx="154.891" cy="280.385" fill="#e94444" r="42.419"/></g></g></svg>