<svg id="Capa_1" enable-background="new 0 0 498.541 498.541" height="512" viewBox="0 0 498.541 498.541" width="512" xmlns="http://www.w3.org/2000/svg"><g><g><path d="m155.754 155.754c-127.286 127.287-188.949 271.997-137.727 323.219l51.255-51.255c-.15-.15-.289-.311-.437-.462l.313-104.18c.008-2.667.588-5.296 1.669-7.734 20.347-45.92 56.587-96.206 102.448-142.066 35.868-35.868 74.738-66.103 112.41-87.435l142.031-16.559 51.256-51.255c-51.221-51.222-195.931 10.441-323.218 137.727z" fill="#ffce71"/><path d="m173.275 173.275c-47.133 47.132-84.104 98.939-104.104 145.878-14.572 34.196-26.231 81.503-.325 108.102.148.152.287.312.438.463l21.213-21.214c-22.253-22.252 7.212-115.233 103.992-212.016 33.982-33.981 70.629-62.524 105.979-82.541 32.375-18.332 61.996-28.428 83.407-28.428 10.386 0 17.999 2.347 22.629 6.977l21.213-21.213c-46.497-46.498-164.729 14.28-254.442 103.992z" fill="#fff1d4"/><g fill="#d6948c"><path d="m53.796 390.867c-.004-.059-.012-.115-.017-.174.005.058.012.115.017.174z"/><path d="m68.846 427.255c-1.79-1.837-3.433-3.797-4.909-5.893 1.475 2.095 3.119 4.055 4.909 5.893z"/><path d="m406.504 90.496-.001-.001"/></g></g><g><path d="m236.588 58.872c-44.585 2.783-88.377 21.198-122.448 55.269s-52.485 77.863-55.269 122.448l122.449-55.269z" fill="#ff8f71"/><g><path d="m432.057 199.299-134.358-134.358c-19.961-5.33-40.618-7.348-61.11-6.069l-64.249 79.542v279.626h162.047c17.466-8.849 33.859-20.57 48.471-35.181 49.779-49.781 66.096-120.283 49.199-183.56z" fill="#fff1d4"/><path d="m199.027 262.069c-19.138-69.916-5.306-144.743 37.561-203.197l-177.716 177.717c-1.279 20.492.738 41.15 6.069 61.111l134.358 134.359c44.678 11.931 93 7.304 135.087-14.019-66.06-28.657-116.338-86.483-135.359-155.971z" fill="#fce3a0"/></g><g><path d="m412.213 151.964-67.179-67.18c-14.985-8.85-30.924-15.461-47.336-19.843l-105.305 105.307-20.053 44.996v153.999h89.776l169.942-169.943c-4.383-16.412-10.994-32.352-19.845-47.336z" fill="#ffce71"/><path d="m199.027 262.069c-8.284-30.262-10.386-61.445-6.635-91.821l-127.451 127.452c4.382 16.411 10.993 32.351 19.843 47.336l67.179 67.179c14.985 8.85 30.924 15.461 47.336 19.844l62.816-62.816c-29.782-29.278-51.871-66.197-63.088-107.174z" fill="#ffb357"/></g><g><path d="m382.857 114.141c-11.598-11.599-24.323-21.384-37.822-29.357l-151.543 151.542v96.281h38.079l180.642-180.643c-7.972-13.5-17.757-26.225-29.356-37.823z" fill="#ff8f71"/><path d="m193.493 236.326-108.709 108.71c7.972 13.499 17.758 26.224 29.356 37.823s24.323 21.384 37.823 29.357l79.608-79.608c-14.505-21.395-25.606-45.19-32.544-70.538-2.333-8.522-4.174-17.115-5.534-25.744z" fill="#ff6f4d"/></g><g><g fill="#ffdbe0"><path d="m185.714 298.225c-11.464 11.464-13.356 28.158-4.228 37.287 9.129 9.129 25.823 7.237 37.287-4.227 11.464-11.463 13.356-28.158 4.227-37.287-9.128-9.129-25.823-7.236-37.286 4.227z"/><path d="m335.51 181.487c-9.129-9.129-25.823-7.236-37.287 4.228-11.463 11.464-13.356 28.158-4.227 37.287s25.823 7.237 37.287-4.227 13.357-28.158 4.227-37.288z"/></g><g fill="#313d40"><path d="m195.247 272.957c-2.93-2.928-7.678-2.928-10.607 0-2.929 2.93-2.929 7.678 0 10.607l8.485 8.485c2.931 2.929 7.678 2.928 10.607 0 2.929-2.93 2.929-7.678 0-10.607z"/><path d="m292.048 193.125-8.485-8.485c-2.93-2.928-7.678-2.928-10.607 0-2.929 2.93-2.929 7.678 0 10.607l8.485 8.485c2.931 2.929 7.678 2.928 10.607 0 2.929-2.929 2.929-7.677 0-10.607z"/><path d="m253.462 223.211c-4.132.283-7.252 3.863-6.969 7.996.596 8.687-6.583 15.871-15.288 15.288-4.14-.285-7.713 2.836-7.996 6.969s2.837 7.713 6.969 7.996c17.822 1.214 32.495-13.568 31.28-31.28-.283-4.133-3.871-7.24-7.996-6.969z"/></g></g></g><g><path d="m478.973 18.027h-51.256v51.255l-19.968 111.439-94.024 133.003-110.153 96.032-134.289 17.962h-51.256v51.255c51.222 51.222 205.932-.44 333.219-127.727s178.949-281.997 127.727-333.219z" fill="#ffce71"/><path d="m427.717 69.282h-21.213v21.214c11.218 11.218 8.814 40.183-6.273 75.59-18.532 43.493-53.236 91.943-97.718 136.426-33.982 33.982-70.629 62.524-105.979 82.542-32.375 18.332-61.996 28.428-83.407 28.428-10.386 0-18-2.347-22.63-6.977h-21.214v21.214c10.46 10.46 25.211 15.764 43.843 15.764 33.974 0 72.146-17.577 98.188-32.322 37.672-21.332 76.542-51.566 112.41-87.435 47.133-47.132 84.104-98.939 104.104-145.878 20.898-49.042 20.858-87.598-.111-108.566z" fill="#fff1d4"/></g></g></svg>