<svg id="flat" height="512" viewBox="0 0 64 64" width="512" xmlns="http://www.w3.org/2000/svg"><path d="m39 17v-6a6 6 0 0 0 -6-6h-2a6 6 0 0 0 -6 6v6z" fill="#bc6549"/><path d="m45 25-.1.75-2.48 19.03-.42 3.22h-20l-.42-3.22-2.48-19.03-.1-.75 7.89-2h10.3z" fill="#3cb3f0"/><path d="m44.9 25.75-2.48 19.03-10.42 3.22-10.42-3.22-2.48-19.03 12.9 5.5z" fill="#0b9ce6"/><path d="m32 29.25-17-7.25v17l17 7 17-7v-16z" fill="#f2b200"/><path d="m32 46 17-7v-16l-17 6.25z" fill="#ffc200"/><path d="m22 48h20v7h-20z" fill="#99523b"/><path d="m52 61h-3l-5-1v-5l9.1.91a1 1 0 0 1 .9 1v2.09a2 2 0 0 1 -2 2z" fill="#0182c3"/><path d="m14 31h3a1 1 0 0 1 1 1v4a1 1 0 0 1 -1 1h-3a2 2 0 0 1 -2-2v-2a2 2 0 0 1 2-2z" fill="#fec093"/><path d="m47 31h3a2 2 0 0 1 2 2v2a2 2 0 0 1 -2 2h-3a1 1 0 0 1 -1-1v-4a1 1 0 0 1 1-1z" fill="#fec093"/><path d="m44 61s-22.582-2.878-31-4v-5a4 4 0 0 1 4.881-3.9l26.119 5.9z" fill="#bc6549"/><path d="m20 61s18.005-2.294 27.854-3.585a3.616 3.616 0 0 0 3.146-3.589v-1.826a4 4 0 0 0 -4.881-3.9l-26.119 5.9z" fill="#dd7b58"/><path d="m12 61h3l5-1v-5l-9.1.91a1 1 0 0 0 -.9 1v2.09a2 2 0 0 0 2 2z" fill="#0182c3"/><path d="m34 11-6 4h-2.893a2.075 2.075 0 0 0 -2.08 1.664 2 2 0 0 0 1.973 2.336h1v.748a6.166 6.166 0 0 0 5.815 6.252 6 6 0 0 0 6.185-6v-1h1a2 2 0 0 0 1.973-2.336 2.075 2.075 0 0 0 -2.08-1.664h-2.893z" fill="#fec093"/></svg>