<svg id="Layer_1" enable-background="new 0 0 512 512" height="512" viewBox="0 0 512 512" width="512" xmlns="http://www.w3.org/2000/svg" xmlns:xlink="http://www.w3.org/1999/xlink"><linearGradient id="SVGID_1_" gradientUnits="userSpaceOnUse" x1="111.433" x2="428.011" y1="426.223" y2="109.645"><stop offset="0" stop-color="#f8ae1f"/><stop offset="1" stop-color="#ca2157"/></linearGradient><path clip-rule="evenodd" d="m155.025 459.384c-.828-.407-1.629-.869-2.396-1.382-46.5-27.251-80.11-71.349-94.061-123.414-26.411-98.566 24.093-202.03 118.6-241.469 41.362-17.261 87.391-20.543 130.75-9.133 4.196 1.104 8.357 2.345 12.474 3.717 2.125.708 4.193-1.239 3.613-3.402l-8.602-32.104c-2.969-11.079 3.733-22.66 14.812-25.62 11.078-2.96 22.648 3.736 25.615 14.809l22.009 82.14c2.969 11.079-3.734 22.652-14.808 25.619l-82.14 22.009c-11.079 2.969-22.66-3.733-25.62-14.812-2.96-11.077 3.736-22.648 14.809-25.615l13.954-3.739c2.906-.779 2.715-4.985-.249-5.499-67.02-11.602-134.497 19.854-168.578 78.883-44.665 77.363-18.757 176.313 59.58 222.148 37.079 21.695 81.857 27.287 123.296 16.183 77.845-20.859 128.041-95.09 119.578-174.207-1.219-11.397 7.187-21.795 18.582-23.007 11.395-1.211 21.784 7.187 23.002 18.579 2.281 21.325 1.205 43.007-3.242 63.989-15.836 74.717-72.522 135.087-147.109 155.073-52.035 13.944-107.037 6.871-153.869-19.746z" fill="url(#SVGID_1_)" fill-rule="evenodd"/></svg>