<svg id="Layer_1" enable-background="new 0 0 36 36" height="512" viewBox="0 0 36 36" width="512" xmlns="http://www.w3.org/2000/svg"><g id="_x33_8"><g><g><g><g><g><path d="m7.5 33.8c-.1.1-.2 0-.2-.2.3-.7.1-1.3-.1-2 0-.1-.2-.1-.3 0-.7 1.4-2.4 2.5-4.7 2.3-.1 0-.2-.2-.1-.2.6-.6.5-1.2.6-1.7.1-.7.3-1.5.8-2-.5 0-.9.2-1.3.5-.1.1-.3 0-.3-.1.2-1.8 1.4-2.1 1.9-3.1-.6-.3-1.3.1-1.7.6-.1.1-.3 0-.3-.1.1-1.2 1-2.2 2-2.8 5.4-3.1 11.1 4.7 3.7 8.8z" fill="#df3260"/></g></g></g><g><g><g><path d="m9.2 25.3c-.8-.3-1.6-.1-2.3.4-.1 0 0 .1 0 .1.3.1.5.2.8.3-.6.1-1.1.4-1.3.9 0 .1 0 .1.1.1.6-.2 1.1-.1 1.2-.1-.7.2-1.2.7-1.5 1.4-.3.6-.3 1.3-.7 1.8 0 .1 0 .2.1.1 1-.7 1.5-2.1 2.8-2.2.5-.1.3 1.1 0 1.6 0 .1 0 .1.1.1 1.5-.7 2-2.4 1.4-3.8 1.9 2.4 1.4 5.7-2.5 7.8-.1.1-.2-.1-.2-.2.3-.7.1-1.3-.1-2 0-.1-.2-.1-.3 0-.7 1.4-2.4 2.5-4.7 2.3-.1 0-.2-.2-.1-.2.2-.2.4-.5.4-.7.2-.7-.1-2.1 1-2.9-.5 0-.9.2-1.3.5-.1.1-.3 0-.2-.1.2-1.9 1.4-2.1 1.9-3.1-.6-.3-1.3.1-1.7.6-.1.1-.3 0-.3-.1.6-2.8 4.8-4.8 7.4-2.6z" fill="#ffd475"/></g></g></g></g><g><g><g><g><g><g><path d="m17.8 24.7c-.1-.6-.3-1.2-.6-1.9-.2-.4-.1-.8.2-1.1 1.2-1.1 2.5-2 4.1-2.7.3-.1.7 0 .8.4.3 1.4.6 2.8.7 4 0 .5-.2 1-.6 1.4-2.1 1.8-4.5 3.5-7.1 5-.4.2-1.3-.6-.9-.9 1.2-1.1 2.3-2.1 3.2-3.1.1-.2.2-.6.2-1.1z" fill="#497bfe"/></g></g><g><g><path d="m11.3 18.2c.6.1 1.2.3 1.9.6.4.2.8.1 1.1-.2 1.1-1.2 2-2.5 2.7-4.1.1-.3 0-.7-.4-.8-1.4-.3-2.8-.6-4-.7-.5 0-1 .2-1.4.6-1.8 2.1-3.5 4.5-5 7.1-.2.4.6 1.3.9.9 1.1-1.2 2.1-2.3 3.1-3.2.2-.1.6-.2 1.1-.2z" fill="#497bfe"/></g></g><g><g><path d="m16.6 24.6c-.1.1-3 2.5-2.8 2.3-.3.3-1.6-.5-2.9-1.8s-2.1-2.6-1.8-2.9c.9-1.1 2.4-2.9 2.3-2.8.3-.3 1.7.6 3.1 2 1.4 1.5 2.4 2.9 2.1 3.2z" fill="#4c5c75"/></g></g><g><g><path d="m10.3 19c-1 2.1 4.6 7.6 6.6 6.6 4.8-2.4 10.5-6.6 13.2-9.3 2.2-2.2 3.2-5.2 3.6-7.9.3-2.2.2-4.2.1-5.3-.1-.5-.5-1-1-1-1.1-.1-3.1-.2-5.3.1-5.1.7-7.3 3.1-7.4 3.2-2 1.8-6.8 7.9-9.8 13.6z" fill="#f45170"/></g></g><g><g><g><path d="m15.4 10.9c-1.7 2.3-3.3 4.8-4.6 7.3.5.2 1.1.1 1.5-.3 1.5-1.6 2.7-3.4 3.7-5.5.3-.5 0-1.2-.6-1.5z" fill="#df3260"/></g></g></g><g><g><path d="m17 25.7c-2.1 1-7.6-4.6-6.6-6.6.7-1.4 1.7-3.1 2.6-4.5 2.6 5.5 10.8 7.4 17.6 1.4-1.8 2-8.4 7-13.6 9.7z" fill="#e93565"/></g></g><g><g><g><path d="m12.3 18c-.4.4-1 .5-1.5.3.6-1 1.1-2 2.2-3.7.2.5.6 1 .9 1.5-.5.6-1 1.2-1.6 1.9z" fill="#cc104a"/></g></g></g><g><g><path d="m27.9 14c-1.6 1.6-4.3 1.6-5.9 0s-1.6-4.3 0-5.9 4.3-1.6 5.9 0c1.6 1.7 1.6 4.3 0 5.9z" fill="#df3260"/></g></g><g><g><path d="m27.3 13.5c-1.3 1.3-3.4 1.3-4.8 0-1.3-1.3-1.3-3.4 0-4.8 1.3-1.3 3.4-1.3 4.8 0 1.3 1.3 1.3 3.4 0 4.8z" fill="#1d2943"/></g></g><g><g><path d="m26.9 13.1c-1.1 1.1-2.9 1.1-4 0s-1.1-2.9 0-4 2.9-1.1 4 0 1.1 2.9 0 4z" fill="#ffd475"/></g></g><g><g><path d="m26.9 13.1c-2 2-5.3.2-4.8-2.6 1.3 2.6 4.9 1.8 5.4-.7.5 1.1.3 2.4-.6 3.3z" fill="#ffb961"/></g></g><g><g><path d="m33.8 8.4c-1.5-2.6-3.6-4.7-6.2-6.2 2.2-.3 4.2-.2 5.3-.1.5.1 1 .5 1 1 .1 1.1.2 3.1-.1 5.3z" fill="#57b3fe"/></g></g><g><g><path d="m34 6.6c.1-1.4 0-2.7-.1-3.5-.1-.5-.5-1-1-1-.8-.1-2-.1-3.5-.1 1.9 1.2 3.4 2.7 4.6 4.6z" fill="#5094ff"/></g></g></g><g><g><path d="m15.2 25.7-1.4 1.2c-.3.3-1.6-.5-2.9-1.8s-2.1-2.6-1.8-2.9l.2-.2c.9 2.8 3.8 4.2 5.9 3.7z" fill="#31445b"/></g></g><g><g><g><path d="m8.4 16.9c.7.1 1.5.4 2.4.8.4.2 1 .1 1.3-.2 1.3-1.5 2.5-3.2 3.4-5.1.2-.4 0-.9-.5-1-1.8-.4-3.5-.7-5.1-.8-.6 0-1.3.2-1.7.7-2.3 2.6-4.3 5.6-6.2 8.9-.3.5.7 1.6 1.1 1.1 1.3-1.5 2.6-2.9 3.8-4 .5-.3 1-.5 1.5-.4z" fill="#57b3fe"/></g></g><g><g><path d="m10 10.6c1.6.1 3.3.4 5.1.8.4.1.6.6.5 1-.3.5-.5 1.1-.8 1.6-4.5-1.3-8.3.2-12.4 7.1-.4-.3-.5-.7-.4-.9 1.9-3.3 3.9-6.3 6.2-8.9.5-.5 1.1-.8 1.8-.7z" fill="#5094ff"/></g></g><g><g><g><path d="m25.1 20.6c-2.3 1.7-4.8 3.3-7.3 4.6-.2-.5-.1-1.1.3-1.5 1.6-1.5 3.4-2.7 5.5-3.7.5-.3 1.2 0 1.5.6z" fill="#cc104a"/></g></g></g><g><g><g><path d="m19.1 27.6c-.1-.7-.4-1.5-.8-2.4-.2-.4-.1-1 .2-1.3 1.5-1.3 3.2-2.5 5.1-3.4.4-.2.9 0 1 .5.4 1.8.7 3.5.8 5.1 0 .6-.2 1.3-.7 1.7-2.6 2.3-5.6 4.3-8.9 6.2-.5.3-1.6-.7-1.1-1.1 1.5-1.3 2.9-2.6 4-3.8.3-.5.5-1 .4-1.5z" fill="#57b3fe"/></g></g></g></g><g><g opacity=".4"><g><g><path d="m25.1 10.5c-.8-.1-1.4-.2-1.4-.8-.1-.6.5-1.1 1.4-1 .9 0 1.7.7 1.6 1.3-.2.5-.9.5-1.6.5z" fill="#fff"/></g></g></g><g opacity=".7"><g><path d="m24.6 9.1c0-.4 1-.2 1 .1 0 .4-1 .2-1-.1z" fill="#fff"/></g></g></g><g><g><path d="m25.4 26c-.1-1.6-.4-3.3-.8-5.1-.1-.4-.6-.6-1-.5-.5.3-1.1.5-1.6.8 1.3 4.5-.2 8.3-7.1 12.4.3.2.6.3.8.2 3.3-1.9 6.3-3.9 8.9-6.2.6-.3.9-.9.8-1.6z" fill="#5094ff"/></g></g><g opacity=".7"><g><path d="m21.7 29.2c2.2-2.3 2.9-2.1 2.8-4.1 0-.3 0-.5 0-.8.2.5.4 1 .4 1.6 0 .5-.2 1.2-.6 1.5-.9.7-1.7 1.4-2.6 1.8z" fill="#fff"/></g></g><g opacity=".7"><g><path d="m6.8 14.3c2.3-2.2 2.1-2.9 4.1-2.8h.8c-.5-.2-1-.4-1.6-.4-.5 0-1.2.2-1.5.6-.7.9-1.4 1.7-1.8 2.6z" fill="#fff"/></g></g></g><g><g><path d="m29 11.1c-.2 0-.2.2-.1.3 1.6 1.2 1.7 1.4-.2.2-.1-.1-.3 0-.3.2.7 4.2.5 4.3-.5.1 0-.2-.2-.2-.3-.1-1.2 1.7-1.3 1.6-.2-.2.1-.1 0-.3-.2-.3-4.2.7-4.3.5-.1-.5.2 0 .2-.2.1-.3-1.7-1.3-1.6-1.3.2-.2.1.1.3 0 .3-.2-.7-4.1-.5-4.3.4 0 0 .2.2.2.3.1 1.3-1.7 1.3-1.6.2.1-.1.1 0 .3.2.3 4.3-.7 4.4-.5.2.5z" fill="#fff"/></g></g></g></g></g><g opacity=".7"><g><path d="m21.1 6.7c.3.5 1.1-.4 2.3-1.2s2.3-1.1 2-1.5c-.3-.5-1.5-.3-2.7.5-1.2.7-1.9 1.7-1.6 2.2z" fill="#fff"/></g></g><g opacity=".7"><g><path d="m26.8 3c-.4.1-.7.3-.7.6s.4.4.8.3.7-.3.7-.6c-.1-.2-.4-.3-.8-.3z" fill="#fff"/></g></g></g></svg>