<svg clip-rule="evenodd" fill-rule="evenodd" height="1.707in" image-rendering="optimizeQuality" shape-rendering="geometricPrecision" text-rendering="geometricPrecision" viewBox="0 0 1707 1707" width="1.707in" xmlns="http://www.w3.org/2000/svg"><g id="Layer_x0020_1"><path d="m390 1433s-1 0-2 0c-11-1-19-9-21-20-22-166-11-304 32-411 34-83 81-130 114-154 10-8 25-6 33 5 7 10 91 309 91 384 0 13-11 23-24 23-115 0-160 23-201 157-2 10-11 16-22 16z" fill="#ff6464"/><path d="m1317 1433c-11 0-20-6-23-16-40-135-84-157-207-157-13 0-24-10-24-23s59-332 94-386c7-11 21-14 32-7 49 31 203 164 151 569-1 11-10 19-21 20-1 0-1 0-2 0z" fill="#ff6464"/><path d="m1040 1317h-376-1-1-1l-1-1h-1c-3 0-7-2-10-4-1-1-2-2-3-3-64-62-108-156-129-282-19-112-19-244 0-380 20-141 60-281 114-393 58-124 131-211 209-251 6-4 14-4 21 0 78 40 151 126 209 247 53 110 94 249 114 389 20 137 21 270 2 384-20 126-65 225-129 287-3 3-6 5-10 6-2 0-5 1-7 1z" fill="#c7cfe2"/><path d="m584 368c14-40 30-79 47-114 58-124 131-211 209-251 6-4 14-4 21 0 78 40 151 126 209 247 18 37 34 77 49 119l-6 9c-64 82-160 129-263 129-101 0-195-47-258-129-1-1-4-4-8-10z" fill="#ff6464"/><path d="m850 1103c-33 0-63-24-85-69-18-39-28-90-28-144 0-122 49-213 113-213 65 0 114 91 114 213 0 54-10 105-29 144-21 45-51 69-85 69z" fill="#707487"/><g fill="#fbbb58"><path d="m737 1617c-13 0-23-11-23-24v-203c0-13 10-23 23-23s23 10 23 23v203c0 13-10 24-23 24z"/><path d="m850 1707c-13 0-23-11-23-24v-293c0-13 10-23 23-23s24 10 24 23v293c0 13-11 24-24 24z"/><path d="m967 1557c-13 0-23-11-23-24v-143c0-13 10-23 23-23s23 10 23 23v143c0 13-10 24-23 24z"/></g></g></svg>