<svg xmlns="http://www.w3.org/2000/svg" version="1.1" xmlns:xlink="http://www.w3.org/1999/xlink" width="512" height="512" x="0" y="0" viewBox="0 0 100 100" style="enable-background:new 0 0 512 512" xml:space="preserve" class=""><g><path fill-rule="evenodd" d="m71.271 71.271-12.616-15.63a10.34 10.34 0 0 0 .852-1.587L97.5 50l-37.993-4.054a10.337 10.337 0 0 0-.852-1.587l12.616-15.63-15.63 12.616a10.332 10.332 0 0 0-1.588-.852L50 2.5l-4.054 37.993c-.555.238-1.086.524-1.587.852L28.729 28.73l12.616 15.63a10.33 10.33 0 0 0-.852 1.587L2.5 50l37.993 4.054c.238.555.524 1.086.852 1.587L28.73 71.271l15.63-12.616c.5.328 1.032.614 1.587.852L50 97.5l4.053-37.993a10.343 10.343 0 0 0 1.588-.852z" clip-rule="evenodd" fill="#ffffff" opacity="1" data-original="#000000" class=""></path></g></svg>