<svg id="Capa_1" enable-background="new 0 0 512 512" height="512" viewBox="0 0 512 512" width="512" xmlns="http://www.w3.org/2000/svg"><g><g><g><g><circle cx="133.299" cy="175.208" fill="#0f818a" r="133.299"/><path d="m266.594 175.209c0 73.623-59.678 133.302-133.291 133.302-7.505 0-14.868-.619-22.047-1.814 63.132-10.502 111.255-65.369 111.255-131.488 0-66.118-48.123-120.986-111.255-131.488 7.179-1.195 14.542-1.814 22.047-1.814 73.613 0 133.291 59.679 133.291 133.302z" fill="#0d6a73"/></g><g><circle cx="403.286" cy="149.821" fill="#1b96a3" r="90.984"/><path d="m494.267 149.822c0 50.252-40.734 90.986-90.978 90.986-5.122 0-10.148-.423-15.048-1.238 43.091-7.168 75.937-44.618 75.937-89.748 0-45.129-32.846-82.579-75.937-89.748 4.9-.815 9.926-1.238 15.048-1.238 50.244 0 90.978 40.734 90.978 90.986z" fill="#0f818a"/></g><path d="m162.468 167.648c3.018-3.018 3.018-7.909 0-10.928-3.017-3.016-7.909-3.016-10.927 0l-34.222 34.222v-44.116c0-4.268-3.459-7.726-7.726-7.726s-7.726 3.459-7.726 7.726v85.357l-19.983-19.983c-3.017-3.016-7.909-3.016-10.927 0-3.018 3.018-3.018 7.909 0 10.928l30.91 30.91v207.227c0 4.268 3.459 7.726 7.726 7.726s7.726-3.459 7.726-7.726v-248.469z" fill="#0c6468"/></g><g><circle cx="291.79" cy="214.851" fill="#1ec186" r="115.34"/><path d="m407.126 214.852c0 63.704-51.638 115.342-115.332 115.342-6.494 0-12.865-.536-19.076-1.569 54.626-9.087 96.265-56.562 96.265-113.772s-41.639-104.685-96.265-113.772c6.212-1.034 12.583-1.569 19.076-1.569 63.694-.002 115.332 51.636 115.332 115.34z" fill="#17a56f"/><path d="m338.278 209.045c3.017-3.018 3.017-7.909 0-10.928-3.018-3.016-7.909-3.016-10.928 0l-27.834 27.834v-35.659c0-4.268-3.459-7.726-7.726-7.726s-7.726 3.459-7.726 7.726v71.342l-15.513-15.513c-3.018-3.016-7.909-3.016-10.928 0-3.017 3.018-3.017 7.909 0 10.928l26.441 26.441v178.876c0 4.268 3.459 7.726 7.726 7.726s7.726-3.459 7.726-7.726v-214.559z" fill="#14935c"/></g><g><g><path d="m198.991 262.563c1.799-5.434 2.734-11.261 2.632-17.322-.465-27.624-22.813-50.421-50.424-51.396-29.763-1.051-54.221 22.765-54.221 52.293 0 5.749.932 11.279 2.648 16.451.958 2.889-.827 5.967-3.804 6.606-24.097 5.171-42.037 26.93-41.271 52.745.817 27.526 23.324 49.969 50.852 50.715 18.073.489 34.135-8.197 43.9-21.728 9.765 13.532 25.827 22.217 43.9 21.728 27.528-.745 50.035-23.188 50.852-50.714.766-25.815-17.173-47.574-41.271-52.745-2.987-.642-4.754-3.732-3.793-6.633z" fill="#fcb44d"/><path d="m244.081 320.345c0 28.907-23.426 52.333-52.323 52.333h-.051c12.888-9.23 21.49-24.147 21.984-40.97.752-25.085-16.174-46.348-39.25-52.271-3.997-1.02-6.336-5.12-5.202-9.086 1.401-4.852 2.112-10.003 2.019-15.339-.464-27.619-22.808-50.417-50.417-51.396-.67-.021-1.339-.031-1.999-.031 8.325-5.977 18.464-9.558 29.447-9.767 28.618-.543 52.685 22.515 53.325 51.131.138 6.161-.796 12.092-2.624 17.614-.951 2.873.773 5.983 3.733 6.615 23.633 5.041 41.358 26.035 41.358 51.167z" fill="#fb9927"/></g><path d="m176.581 295.28c3.018-3.018 3.018-7.909 0-10.928-3.017-3.016-7.909-3.016-10.927 0l-8.624 8.624v-36.184c0-4.268-3.459-7.726-7.726-7.726s-7.726 3.459-7.726 7.726v53.784l-19.733-19.733c-3.017-3.016-7.909-3.016-10.927 0-3.018 3.018-3.018 7.909 0 10.928l30.659 30.659v129.935c0 4.268 3.459 7.726 7.726 7.726s7.726-3.459 7.726-7.726v-147.534z" fill="#ed8620"/></g><g><g><g><g><path d="m415.382 467.002c-4.268 0-7.726-3.459-7.726-7.726v-66.066c0-4.268 3.459-7.726 7.726-7.726s7.726 3.459 7.726 7.726v66.065c.001 4.268-3.458 7.727-7.726 7.727z" fill="#14935c"/></g><path d="m415.382 269.952s-64.663 61.717-95.63 124.123c-3.328 6.707 2.237 14.409 9.662 13.441l85.301-11.128c.442-.058.89-.058 1.333 0l85.301 11.128c7.425.969 12.991-6.733 9.662-13.44-30.966-62.406-95.629-124.124-95.629-124.124z" fill="#1ec186"/><path d="m501.346 407.518-26.444-3.449c2.349-2.678 3.195-6.653 1.372-10.328-20.768-41.865-56.703-83.41-78.11-106.226 10.346-11.004 17.216-17.564 17.216-17.564s64.662 61.721 95.636 124.128c3.326 6.701-2.247 14.407-9.67 13.439z" fill="#17a56f"/></g><path d="m415.382 210.271s-51.988 49.62-78.28 100.659c-3.458 6.712 2.112 14.542 9.599 13.565l68.681-8.96 68.68 8.96c7.487.977 13.057-6.852 9.599-13.565-26.291-51.039-78.279-100.659-78.279-100.659z" fill="#26d192"/><path d="m484.064 324.493-26.453-3.449c2.387-2.716 3.214-6.757 1.316-10.45-16.53-32.092-43.218-63.619-60.762-82.602 10.187-11.014 17.216-17.723 17.216-17.723s51.995 49.617 78.279 100.663c3.457 6.711-2.106 14.538-9.596 13.561z" fill="#1eb07c"/><g><path d="m408.655 158.651c-12.778 13.134-40.797 43.684-57.79 75.351-3.624 6.754 1.887 14.778 9.488 13.787l55.03-7.179 55.03 7.179c7.6.991 13.112-7.033 9.488-13.787-16.993-31.668-45.012-62.218-57.79-75.351-3.688-3.789-9.77-3.789-13.456 0z" fill="#27e19d"/><path d="m470.41 247.793-26.453-3.449c2.415-2.772 3.223-6.916 1.203-10.675-13.128-24.461-32.834-48.255-46.996-63.864 4.06-4.454 7.649-8.232 10.487-11.155 3.693-3.787 9.773-3.787 13.457 0 12.78 13.137 40.803 43.688 57.793 75.357 3.627 6.747-1.889 14.773-9.491 13.786z" fill="#1ec186"/></g></g></g></g><g><g><path d="m347.938 467.004c-3.047 0-5.935-1.814-7.157-4.81l-6.72-16.471c-1.612-3.951.284-8.461 4.235-10.072 3.95-1.609 8.461.284 10.072 4.235l6.72 16.471c1.612 3.951-.284 8.461-4.235 10.072-.955.39-1.944.575-2.915.575z" fill="#14935c"/></g><g><path d="m360.031 467.004c-.972 0-1.96-.185-2.915-.574-3.952-1.612-5.847-6.122-4.235-10.072l6.72-16.471c1.612-3.951 6.12-5.847 10.072-4.235s5.847 6.122 4.235 10.072l-6.72 16.471c-1.222 2.995-4.11 4.809-7.157 4.809z" fill="#14935c"/></g></g><g><g><path d="m453.16 467.004c-3.047 0-5.935-1.814-7.157-4.81l-6.72-16.471c-1.612-3.951.284-8.461 4.235-10.072 3.949-1.609 8.461.284 10.072 4.235l6.72 16.471c1.612 3.951-.284 8.461-4.235 10.072-.954.39-1.943.575-2.915.575z" fill="#14935c"/></g><g><path d="m465.254 467.004c-.972 0-1.96-.185-2.915-.574-3.952-1.612-5.847-6.122-4.235-10.072l6.72-16.471c1.612-3.951 6.119-5.847 10.072-4.235 3.952 1.612 5.847 6.122 4.235 10.072l-6.72 16.471c-1.223 2.995-4.11 4.809-7.157 4.809z" fill="#14935c"/></g></g><g><g><path d="m57.603 467.004c-3.047 0-5.934-1.814-7.156-4.81l-6.72-16.471c-1.612-3.951.284-8.461 4.235-10.072 3.95-1.611 8.46.284 10.073 4.235l6.72 16.471c1.612 3.951-.284 8.461-4.235 10.072-.956.39-1.945.575-2.917.575z" fill="#14935c"/></g><g><path d="m69.698 467.004c-.972 0-1.961-.185-2.916-.574-3.951-1.612-5.847-6.122-4.235-10.072l6.72-16.471c1.612-3.952 6.122-5.845 10.073-4.235 3.951 1.612 5.847 6.122 4.235 10.072l-6.72 16.471c-1.223 2.995-4.111 4.809-7.157 4.809z" fill="#14935c"/></g></g><g><path d="m300.67 462.366c0-17.155-13.907-31.061-31.061-31.061-2.675 0-5.27.339-7.746.976-2.522.648-5.088-.708-6.067-3.121-6.939-17.094-23.698-29.151-43.282-29.151-19.365 0-35.968 11.79-43.047 28.579-.709 1.683-2.239 2.838-4.041 3.132-14.757 2.408-26.021 15.208-26.021 30.646z" fill="#27e19d"/><path d="m300.669 462.366h-31.843c-5.244-9.735-15.535-16.349-27.362-16.349-2.513 0-4.957.298-7.298.861-2.722.655-5.559-.676-6.628-3.264-7.001-16.958-23.69-28.894-43.177-28.894-2.122 0-4.203.144-6.243.422 8.52-9.303 20.779-15.133 34.398-15.133 19.585 0 36.343 12.055 43.282 29.149.979 2.413 3.545 3.769 6.066 3.121 2.475-.636 5.069-.973 7.745-.973 17.152 0 31.06 13.907 31.06 31.06z" fill="#1ec186"/><g><path d="m487.834 470.093h-463.668c-4.267 0-7.726-3.459-7.726-7.726s3.459-7.726 7.726-7.726h463.668c4.268 0 7.726 3.459 7.726 7.726s-3.458 7.726-7.726 7.726z" fill="#17a56f"/></g></g></g></svg>