<svg id="Layer_1" enable-background="new 0 0 500 500" viewBox="0 0 500 500" xmlns="http://www.w3.org/2000/svg" xmlns:xlink="http://www.w3.org/1999/xlink"><filter id="Adobe_OpacityMaskFilter" filterUnits="userSpaceOnUse" height="234.249" width="108.556" x="282.54" y="168.911"><feFlood flood-color="#fff" result="back"/><feBlend in="SourceGraphic" in2="back" mode="normal"/></filter><linearGradient id="SVGID_1_" gradientTransform="matrix(.998 -.071 .071 .998 -18.105 14.235)" gradientUnits="userSpaceOnUse" x1="116.206" x2="400.802" y1="271.855" y2="271.855"><stop offset="0" stop-color="#733a02"/><stop offset=".2474" stop-color="#4f2801"/><stop offset="1" stop-color="#733a02"/></linearGradient><mask id="SVGID_2_" height="234.249" maskUnits="userSpaceOnUse" width="108.556" x="282.54" y="168.911"><g filter="url(#Adobe_OpacityMaskFilter)"><path d="m254.806 119.8c-2.004-4.119-1.242-6.345-1.566-10.917-.323-4.572-2.384-4.175-2.384-4.175s.074 4.589-1.316 9.157c-.961 3.158-1.796 6.424-1.019 9.092.618-.22 1.088-.517 1.363-.679 3.028-1.781 4.361.235 6.548 1.041.151.055.311.101.477.141-.718-1.095-1.464-2.345-2.103-3.66z" fill="url(#SVGID_3_)" mask="url(#SVGID_2_)"/></g></mask><filter id="Adobe_OpacityMaskFilter_1_" filterUnits="userSpaceOnUse" height="18.761" width="8.694" x="248.215" y="104.699"><feFlood flood-color="#fff" result="back"/><feBlend in="SourceGraphic" in2="back" mode="normal"/></filter><mask id="SVGID_2_" height="18.761" maskUnits="userSpaceOnUse" width="8.694" x="248.215" y="104.699"><g filter="url(#Adobe_OpacityMaskFilter_1_)"/></mask><linearGradient id="lg1"><stop offset="0"/><stop offset="1" stop-color="#fff"/></linearGradient><linearGradient id="SVGID_3_" gradientTransform="matrix(.998 -.071 .071 .998 -18.105 14.235)" gradientUnits="userSpaceOnUse" x1="256.059" x2="263.726" xlink:href="#lg1" y1="119.983" y2="118.858"/><linearGradient id="lg2"><stop offset="0" stop-color="#fff"/><stop offset="1" stop-color="#521600"/></linearGradient><linearGradient id="SVGID_4_" gradientTransform="matrix(.998 -.071 .071 .998 -18.105 14.235)" gradientUnits="userSpaceOnUse" x1="248.735" x2="344.461" xlink:href="#lg2" y1="312.42" y2="298.373"/><filter id="Adobe_OpacityMaskFilter_2_" filterUnits="userSpaceOnUse" height="271.999" width="274.962" x="25" y="128.29"><feFlood flood-color="#fff" result="back"/><feBlend in="SourceGraphic" in2="back" mode="normal"/></filter><mask id="SVGID_5_" height="271.999" maskUnits="userSpaceOnUse" width="274.962" x="25" y="128.29"><g filter="url(#Adobe_OpacityMaskFilter_2_)"><path d="m233.986 101.503s.135 2.165.264 3.727 1.023 4.757.802 6.36.224 1.989-1.383 3.481-1.993 1.937-2.899 2.711-2.836 1.83-3.068 2.097-.335 2.645 2.058 1.64 5.141.858 5.75 1.525c.608.667 4.823-1.741 5.363-1.799 1.948-.211 3.188.923 3.61 1.207 2.315 1.464 4.23.511 5.128-.011-2.74-1.454-1.539-5.977-3.044-11.351-1.216-4.343-2.586-6.513-1.605-9.643z" fill="url(#SVGID_6_)" mask="url(#SVGID_5_)"/></g></mask><filter id="Adobe_OpacityMaskFilter_3_" filterUnits="userSpaceOnUse" height="21.785" width="22.022" x="227.589" y="101.446"><feFlood flood-color="#fff" result="back"/><feBlend in="SourceGraphic" in2="back" mode="normal"/></filter><mask id="SVGID_5_" height="21.785" maskUnits="userSpaceOnUse" width="22.022" x="227.589" y="101.446"><g filter="url(#Adobe_OpacityMaskFilter_3_)"/></mask><linearGradient id="SVGID_6_" gradientTransform="matrix(.998 -.071 .071 .998 -18.105 14.235)" gradientUnits="userSpaceOnUse" x1="241.185" x2="251.091" xlink:href="#lg1" y1="115.686" y2="116.124"/><linearGradient id="SVGID_7_" gradientTransform="matrix(.998 -.071 .071 .998 -18.105 14.235)" gradientUnits="userSpaceOnUse" x1="63.02" x2="186.71" xlink:href="#lg2" y1="258.768" y2="264.231"/><linearGradient id="lg3"><stop offset="0" stop-color="#cf823e"/><stop offset="1" stop-color="#ff9a35"/></linearGradient><linearGradient id="SVGID_8_" gradientTransform="matrix(.998 -.071 .071 .998 -18.105 14.235)" gradientUnits="userSpaceOnUse" x1="42.184" x2="155.672" xlink:href="#lg3" y1="237.171" y2="244.997"/><linearGradient id="SVGID_9_" gradientTransform="matrix(.998 -.071 .071 .998 -18.105 14.235)" gradientUnits="userSpaceOnUse" x1="399.632" x2="437.634" xlink:href="#lg3" y1="281.152" y2="282.831"/><filter id="Adobe_OpacityMaskFilter_4_" filterUnits="userSpaceOnUse" height="193.865" width="90.085" x="144.756" y="195.905"><feFlood flood-color="#fff" result="back"/><feBlend in="SourceGraphic" in2="back" mode="normal"/></filter><mask id="SVGID_10_" height="193.865" maskUnits="userSpaceOnUse" width="90.085" x="144.756" y="195.905"><g filter="url(#Adobe_OpacityMaskFilter_4_)"><path d="m244.395 122.388c-.442-2.299-1.269-6.749-1.623-10.467-.484-5.072-1.987-5.06-1.987-5.06s-.161 3.927-2.498 9.418c-1.868 4.388-1.086 4.352.248 5.995 1.083-.489 2.092-1.003 2.338-1.029 1.839-.199 3.038.791 3.522 1.143z" fill="url(#SVGID_11_)" mask="url(#SVGID_10_)"/></g></mask><filter id="Adobe_OpacityMaskFilter_5_" filterUnits="userSpaceOnUse" height="15.527" width="7.215" x="237.18" y="106.861"><feFlood flood-color="#fff" result="back"/><feBlend in="SourceGraphic" in2="back" mode="normal"/></filter><mask id="SVGID_10_" height="15.527" maskUnits="userSpaceOnUse" width="7.215" x="237.18" y="106.861"><g filter="url(#Adobe_OpacityMaskFilter_5_)"/></mask><linearGradient id="SVGID_11_" gradientTransform="matrix(.998 -.071 .071 .998 -18.105 14.235)" gradientUnits="userSpaceOnUse" x1="248.578" x2="255.828" xlink:href="#lg1" y1="118.218" y2="118.718"/><linearGradient id="SVGID_12_" gradientTransform="matrix(.998 -.071 .071 .998 -18.105 14.235)" gradientUnits="userSpaceOnUse" x1="155.329" x2="245.853" xlink:href="#lg2" y1="290.373" y2="296.616"/><linearGradient id="lg4"><stop offset=".2861" stop-color="#6b2e00"/><stop offset="1" stop-color="#b34d00"/></linearGradient><linearGradient id="SVGID_13_" gradientTransform="matrix(.998 -.071 .071 .998 -18.105 14.235)" gradientUnits="userSpaceOnUse" x1="267.391" x2="269.211" xlink:href="#lg4" y1="160.657" y2="213.449"/><linearGradient id="SVGID_14_" gradientTransform="matrix(.998 -.071 .071 .998 -18.105 14.235)" gradientUnits="userSpaceOnUse" x1="151.986" x2="280.751" xlink:href="#lg3" y1="214.01" y2="123.094"/><linearGradient id="SVGID_15_" gradientTransform="matrix(.998 -.071 .071 .998 -18.105 14.235)" gradientUnits="userSpaceOnUse" x1="167.502" x2="276.808" xlink:href="#lg4" y1="199.489" y2="122.313"/><linearGradient id="SVGID_16_" gradientTransform="matrix(.998 -.071 .071 .998 -18.105 14.235)" gradientUnits="userSpaceOnUse" x1="182.969" x2="279.922" xlink:href="#lg3" y1="189.268" y2="120.813"/><linearGradient id="SVGID_17_" gradientTransform="matrix(.998 -.071 .071 .998 -18.105 14.235)" gradientUnits="userSpaceOnUse" x1="200.549" x2="284.15" xlink:href="#lg4" y1="180.101" y2="121.074"/><linearGradient id="SVGID_18_" gradientTransform="matrix(.998 -.071 .071 .998 -18.105 14.235)" gradientUnits="userSpaceOnUse" x1="242.355" x2="242.355" xlink:href="#lg4" y1="481.73" y2="409.161"/><g><path d="m104.88 129.011s1.684 27.029 3.29 46.531c1.607 19.5 12.773 59.39 10.016 79.405-2.757 20.014 2.799 24.835-17.267 43.465s-24.888 24.186-36.2 33.853c-11.312 9.665-35.413 22.844-38.308 26.178-2.893 3.334-4.184 33.022 25.699 20.478 29.885-12.543 64.192 10.717 71.788 19.045 7.596 8.329 60.216-21.738 66.961-22.467 24.326-2.633 39.808 11.521 45.076 15.065 32.273 20.405 58.365 3.179 67.446-2.161 37.804-22.231 54.447 2.929 81.757 12.994 27.31 10.064 77.135-.762 87.377-18.174 10.242-17.414-13.912-34.482-23.269-63.548-9.358-29.066-50.486-101.78-47.048-141.661 3.437-39.88 7.593-50.605 7.593-50.605z" fill="url(#SVGID_1_)"/><path d="m364.823 357.458c-25.022-51.428-15.512-79.221-19.549-136.305s-29.764-52.134-29.764-52.134.923 57.303-16.428 114.335c-11.996 39.435-22.422 80.214-12.718 113.522 7.712-2.742 13.585-6.455 17.018-8.474 37.804-22.232 54.447 2.929 81.758 12.993 1.879.693 3.883 1.266 5.954 1.766-8.977-13.677-18.285-29.287-26.271-45.703z" fill="url(#SVGID_4_)" opacity=".3"/><path d="m104.88 129.011s1.684 27.029 3.29 46.531c1.607 19.499 12.773 59.39 10.016 79.405-2.758 20.012 2.799 24.835-17.267 43.465s-24.888 24.185-36.2 33.853c-11.312 9.665-35.413 22.844-38.308 26.178-2.893 3.334-4.184 33.022 25.699 20.478 29.884-12.544 64.192 10.717 71.788 19.045 7.596 8.329 60.216-21.738 66.961-22.468 24.326-2.632 39.808 11.522 45.076 15.067 28.911 18.279 52.82 6.379 64.025-.142-34.207-18.157-19.219-74.624-38.013-141.73-15.185-54.228-32.293-81.325-20.041-120.4z" fill="url(#SVGID_7_)" opacity=".2"/><path d="m104.88 129.011s1.684 27.029 3.29 46.531c1.607 19.499 12.773 59.39 10.016 79.405-2.758 20.012 2.799 24.835-17.267 43.465s-24.888 24.185-36.2 33.853c-11.312 9.665-35.413 22.844-38.308 26.178-.865.998-1.568 4.369-1.355 8.249 17.252-6.832 41.85-17.359 69.648-27.099 51.529-18.053 43.475-43.424 41.187-104.674-1.874-50.204-17.411-68.988-.678-106.067z" fill="url(#SVGID_8_)" opacity=".2"/><path d="m402.2 178.012c3.439-39.881 7.593-50.605 7.593-50.605l-4.108.021c-36.236 58.935-17.089 130.861 16.621 176.939 35.555 48.597 37.465 53.5 34.44 69.711-3.026 16.209-39.796 27.253-39.796 27.253s.168 1.371.518 3.667c23.672-1.48 48.201-10.136 55.049-21.776 10.243-17.415-13.913-34.482-23.27-63.548-9.356-29.067-50.485-101.781-47.047-141.662z" fill="url(#SVGID_9_)" opacity=".2"/><path d="m234.841 389.77c-5.521-28.707-15.839-84.265-20.269-130.689-6.043-63.33-24.807-63.177-24.807-63.177s-2.009 49.037-31.191 117.596c-23.32 54.788-13.559 54.344 3.095 74.85 13.518-6.105 26.119-12.521 29.192-12.854 22.965-2.484 37.932 9.888 43.98 14.274z" fill="url(#SVGID_12_)" opacity=".3"/><path d="m404.944 152.55c2.573-19.191 4.849-25.143 4.849-25.143l-304.913 1.603s.372 5.943.921 14.144c7.293 5.617 23.955 7.415 61.644 8.172 60.324 1.21 106.415.297 135.102 2.18s22.461 2.324 57.352-2.1c21.209-2.688 34.719.902 45.045 1.144z" fill="url(#SVGID_13_)" opacity=".4"/><path d="m205.521 95.821c-119.825 11.794-138.337 51.636-24.776 47.908 113.563-3.728 132.383-3.103 193.402-3.115s33.688-32.502-7.258-36.256-119.027-12.705-161.368-8.537z" fill="url(#SVGID_14_)"/><path d="m385.318 123.663c-26.309-20.045-18.156-9.669-70.858-17.416-52.701-7.746-64.674-7.422-110.841-3.896s-96.938 15.721-76.448 25.225c20.492 9.503 34.463 11.644 75.201 8.764 40.737-2.882 163.606 1.468 176.99-1.043 13.382-2.511 5.956-11.634 5.956-11.634z" fill="url(#SVGID_15_)" opacity=".2"/><path d="m165.251 133.317c-23.096-10.873-29.475-13.13-21.151-17.108 8.323-3.979 29.841-5.762 66.946-8.385 37.104-2.624 75.535 6.132 108.302 4.858 32.768-1.275 39.347-.436 49.183 5.91 9.836 6.345 24.621 12.601-19.487 12.07-44.108-.532-56.156 2.406-97.001.079-40.844-2.327-81.81 4.922-86.792 2.576z" fill="url(#SVGID_16_)"/><path d="m180.434 128.503c-15.546 1.432-18.415-9.65-9.794-13.128 8.62-3.479 27.225-2.186 52.819-1.649 25.593.537 46.581 5.992 76.683 3.914 30.103-2.078 45.317-.807 54.082 1.442 8.764 2.247 27.034 6.172-7.195 5.202-34.228-.969-29.113-2.374-71.165.34-42.053 2.713-44.743 5.25-66.166 4.678-21.424-.571-17.086-1.921-29.264-.799z" fill="url(#SVGID_17_)" opacity=".2"/><path d="m472.517 383.221c3.714-6.315 2.873-12.592-.112-19.404-8.168 7.114-19.359 14.517-35.014 21.366-55.453 24.262-77.72-26.838-121.459-25.832-43.738 1.006-39.052 30.403-64.953 24.411-25.903-5.991-49.393-26.234-82.165-17.659-32.771 8.576-32.703 16.917-54.53 10.637-21.828-6.279-24.196-10.283-48.995-6.966-18.464 2.471-26.947-5.611-27.929-18.868-5.501 3.465-9.825 6.247-10.945 7.536-2.893 3.334-4.184 33.022 25.699 20.478 29.884-12.544 64.192 10.717 71.788 19.045 7.596 8.329 60.216-21.738 66.961-22.468 24.326-2.632 39.808 11.522 45.076 15.067 32.272 20.405 58.365 3.178 67.446-2.161 37.804-22.232 54.447 2.929 81.758 12.993 27.308 10.063 77.131-.762 87.374-18.175z" fill="url(#SVGID_18_)" opacity=".4"/></g></svg>