<svg height="512" viewBox="0 0 64 64" width="512" xmlns="http://www.w3.org/2000/svg"><g id="_14-squirrel" data-name="14-squirrel"><path d="m21.071 13.842a10.255 10.255 0 0 1 1.07 2.42c1.54 5.22-2.45 8.681-8.14 10.38a15.847 15.847 0 0 1 -6.88.64c1.32-7.75-5.39-6.33-5.39-6.33.63-4.04 4.91-9.23 9.65-10.639a9.136 9.136 0 0 1 3.91-.351 9.989 9.989 0 0 1 3.12-2.6 10.236 10.236 0 0 1 3.82-1.111s1.29 4.471-1.16 7.591zm-6.071 4.158a2 2 0 1 0 -2 2 2.007 2.007 0 0 0 2-2z" fill="#c9a575"/><path d="m21.071 13.842c2.45-3.12 1.16-7.59 1.16-7.59l-2.54 3.748s-1.67 2.492 1.38 3.842z" fill="#977c58"/><path d="m13.061 42.943c-1.51.8-6.28 1.13-8.54 1.08a3.529 3.529 0 0 1 -3.521-3.54 3.568 3.568 0 0 1 3.07-3.5c8.23-1.291 10.13-5.283 9.93-10.341 5.69-1.7 9.68-5.16 8.14-10.38.23.58 4.05 9.88 9.86 13.75 7.91 4.941 11.33 10.491 12 14 1.49 7.78.35 13.28-5.47 16.36-3.26 1.721-7.77 2.64-13.53 2.64h-19s-2-3.009 2.07-5 11.93-1 11.93-1-7.079-7.5-6.939-14.069z" fill="#c48445"/><path d="m44.671 27.892c.03 7.48 6.16 11.38 5.72 20.871-.54 11.549-11.63 11.609-11.86 11.609 5.82-3.08 6.96-8.58 5.47-16.36-.67-3.509-4.09-9.059-12-14a26.878 26.878 0 0 1 -3.43-15.56 14.817 14.817 0 0 1 3.529-8.369 16.194 16.194 0 0 1 11.62-5.06c17.76-.62 20.8 10.79 18.7 20.3-.97 4.349-4.95 6.669-8.89 7.529a13.384 13.384 0 0 1 -7.45-.25 13.069 13.069 0 0 1 -1.409-.71z" fill="#874c16"/><path d="m43.721 1.022c-.053 0-.107.01-.16.012 15.239.646 17.839 11.311 15.86 20.289-.97 4.349-4.95 6.669-8.89 7.529a17.2 17.2 0 0 1 -2.06.317 16.3 16.3 0 0 0 5.06-.317c3.94-.86 7.92-3.18 8.89-7.529 2.1-9.511-.94-20.923-18.7-20.301z" fill="#653910"/><path d="m48.321 19.682c3.61.591 5.36-1.69 5.23-4.22-.18-3.4-3.17-5.46-7.87-4.41a8.074 8.074 0 0 0 -6.335 7.527c1.845-2.9 7.446-7.052 10.674-4.721 3.108 2.242-1.699 5.824-1.699 5.824z" fill="#653910"/><path d="m44.671 27.893a10.472 10.472 0 0 1 -4.942-5.988s-.151 6.8 5.719 10.521a14.3 14.3 0 0 1 -.777-4.533z" fill="#653910"/><path d="m15.951 4.512s2.06 1.6 2.46 2.851a9.989 9.989 0 0 0 -3.12 2.6 9.136 9.136 0 0 0 -3.91.351 7.988 7.988 0 0 1 4.57-5.802z" fill="#c48445"/><path d="m1.731 20.952s6.71-1.42 5.39 6.33c-2.63-.419-4.61-1.75-5.29-4.04a5.277 5.277 0 0 1 -.1-2.29z" fill="#c48445"/><circle cx="13.001" cy="18.002" fill="#754c24" r="2"/><path d="m38.531 60.372a14.005 14.005 0 0 0 6.669-1.955c3.125-4.64 2.612-10.479 1.753-14.967-1.037-5.431-6.031-11.406-13.284-15.935a18.546 18.546 0 0 1 -4.487-4.658 26.511 26.511 0 0 0 2.818 7.156c7.91 4.94 11.33 10.49 12 14 1.491 7.779.351 13.279-5.469 16.359z" fill="#653910"/><path d="m32 40.512s-9.69-10.439-17-2.5a7.258 7.258 0 0 0 -1.94 4.931 15.037 15.037 0 0 1 -4.571.916c2.538-3.547 3.133-8.524 10.2-10.607 8.934-2.631 13.311 7.26 13.311 7.26z" fill="#936334"/><circle cx="35.353" cy="21.983" fill="#653910" r="2.084"/><circle cx="51.447" cy="6.54" fill="#9f7045" r="2.084"/><circle cx="19.557" cy="41.224" fill="#d09d6a" r="2.084"/><circle cx="35.353" cy="16.262" fill="#653910" r="1.462"/><circle cx="46.056" cy="6.54" fill="#9f7045" r="1.462"/><circle cx="55.781" cy="9.866" fill="#9f7045" r="1.389"/><circle cx="24.756" cy="40.692" fill="#d09d6a" r="1.389"/><circle cx="19.017" cy="46.627" fill="#d09d6a" r="1.389"/><g fill="#936334"><path d="m22.739 25.273-.716.427a10.53 10.53 0 0 0 2.838-4 44.6 44.6 0 0 1 -2.72-5.438c1.54 5.219-2.45 8.68-8.14 10.38a13.12 13.12 0 0 1 -.227 3.161c.361-.09.722-.178 1.086-.287a19.893 19.893 0 0 0 5.86-2.772.981.981 0 0 0 .062.859 1 1 0 0 0 1.371.347l1.61-.96a1 1 0 0 0 -1.024-1.718z"/><path d="m24.91 28-1.47 1.049a1 1 0 0 0 1.16 1.627l1.47-1.05a1 1 0 1 0 -1.16-1.626z"/><path d="m37.805 55.413-1.371-1.32a1 1 0 1 0 -1.387 1.439l1.37 1.321a1 1 0 0 0 1.388-1.44z"/><path d="m37.623 52.776 1.86.881a.988.988 0 0 0 .428.1 1 1 0 0 0 .428-1.9l-1.861-.881a1 1 0 0 0 -.855 1.808z"/><path d="m34.205 56.861a1 1 0 0 0 -1.669 1.1l.76 1.15a1 1 0 0 0 .836.45 1 1 0 0 0 .833-1.551z"/></g></g></svg>