<svg id="Layer_1" height="512" viewBox="0 0 512 512" width="512" xmlns="http://www.w3.org/2000/svg"><path d="m496 380.13c-39.7-.39-79.4-.79-119.11-1.19-9.79-8.55-22-17.24-36.92-24.42-10.39-4.99-20.8-8.62-31.01-11.17 1.91-.8 11.68-4.76 26-8.74 21.71-6.03 53.87-12.09 85-7.25 19.31 3 38.22 10.19 54.01 24.19 7.36 6.53 15.31 15.66 22.03 28.58z" fill="#53b568"/><path d="m262.11 219.92-29.85 20.7 23.26-40.71-4.85-25.2 9.69-19.38-7.86-23.46 15.61 6.99 15.51 45.55 11.63 5.81 15.67 25.66 18.25-24.69 24.23 29.07 19.38 49.43 47.18 57.67c-31.13-4.84-63.29 1.22-85 7.25l-31.96-13.56-7.77-34.37-23.24-16.99-52.33 73.66 30.04-70.75-27.14 13.57 35.38-45.07z" fill="#bc775e"/><path d="m376.89 378.94h-122.68c-18.65-11.93-37.42-21.85-55.86-29.61 4.97-1.64 12.27-3.87 21.33-5.9 13.71-3.08 31.46-5.72 51.27-5.18 12.05.32 24.87 1.82 38.01 5.1 10.21 2.55 20.62 6.18 31.01 11.17 14.92 7.18 27.13 15.87 36.92 24.42z" fill="#74f58f"/><path d="m303 321.05 31.96 13.56c-14.32 3.98-24.09 7.94-26 8.74-13.14-3.28-25.96-4.78-38.01-5.1l-4.77-17.2 13.56-22.29-7.75-29.07 23.24 16.99z" fill="#a35b45"/><path d="m262.11 219.92-4.17 21.18-35.38 45.07 27.14-13.57-30.04 70.75.02.08c-9.06 2.03-16.36 4.26-21.33 5.9-42.4-17.87-83.01-24.37-116.15-17.9v-.01l75.43-134.41 11.63 31.01-9.69 52.33 29.18-45.7 22.19-34.74 14.53-8.72 8.72-29.07 18.31-30.25 7.86 23.46-9.69 19.38 4.85 25.2-23.26 40.71z" fill="#eca583"/><path d="m254.21 378.94h-238.21c7.39-13.47 16.08-22.69 24.42-29.18 11.8-9.19 25.94-15.24 41.78-18.33 33.14-6.47 73.75.03 116.15 17.9 18.44 7.76 37.21 17.68 55.86 29.61z" fill="#5cc69b"/><path d="m219.66 343.35 52.33-73.66 7.75 29.07-13.56 22.29 4.77 17.2c-19.81-.54-37.56 2.1-51.27 5.18z" fill="#ffc3ab"/><path d="m188.75 234.65-29.18 45.7 9.69-52.33-11.63-31.01 27.14 14.53z" fill="#a35b45"/><path d="m199.26 228.02-9.69 52.33 29.18-45.7 22.19-34.74 13.07-7.844-3.34-17.356 9.69-19.38-7.86-23.46-18.31 30.25-8.72 29.07-14.53 8.72-14.001 21.92z" fill="#d88260"/><path d="m168.784 230.593.476-2.573-11.63-31.01-75.43 134.41v.01c9.831-1.919 20.324-2.688 31.322-2.366l55.261-98.471z" fill="#d88260"/><path d="m70.42 349.76c11.8-9.19 25.94-15.24 41.78-18.33 3.871-.756 7.848-1.327 11.914-1.732-14.884-1.335-28.971-.795-41.914 1.732-15.84 3.09-29.98 9.14-41.78 18.33-8.34 6.49-17.03 15.71-24.42 29.18h30c7.39-13.47 16.08-22.69 24.42-29.18z" fill="#3aaf7d"/><g fill="#d4e1f4"><path d="m119.762 232.671c-.829 0-1.668-.206-2.442-.641-2.408-1.352-3.265-4.398-1.914-6.807l7.979-14.219c1.352-2.409 4.399-3.267 6.807-1.914 2.408 1.352 3.265 4.398 1.914 6.807l-7.979 14.219c-.917 1.635-2.615 2.555-4.365 2.555z"/><path d="m79.291 304.792c-.829 0-1.668-.206-2.442-.641-2.408-1.352-3.265-4.399-1.914-6.808l32.61-58.113c1.352-2.407 4.4-3.264 6.807-1.913 2.408 1.352 3.265 4.399 1.914 6.808l-32.61 58.113c-.917 1.634-2.616 2.554-4.365 2.554z"/></g><path d="m246.198 172.479c-.492.983-.646 2.102-.438 3.181l4.496 23.379-22.341 39.098c-1.159 2.028-.759 4.588.963 6.166 1.722 1.58 4.308 1.753 6.227.424l27.67-19.184 18.404 7.178 6.703 20.108c.441 1.323 1.415 2.402 2.686 2.976l17.257 7.793 29.903 41.021c.979 1.343 2.501 2.055 4.044 2.055 1.022 0 2.053-.312 2.941-.96 2.231-1.626 2.722-4.754 1.095-6.985l-30.682-42.088c-.51-.7-1.193-1.255-1.983-1.611l-16.467-7.437-6.752-20.258c-.47-1.41-1.542-2.537-2.927-3.077l-23.068-8.997c-1.55-.605-3.299-.398-4.666.549l-11.714 8.121 12.307-21.536c.592-1.037.794-2.252.569-3.425l-4.526-23.533 8.934-17.866c.594-1.188.691-2.565.269-3.825l-6.4-19.096-6.202-2.777-3.395 5.61 5.856 17.474-8.763 17.525z" fill="#a35b45"/></svg>