<svg enable-background="new 0 0 283.465 283.465" height="512" viewBox="0 0 283.465 283.465" width="512" xmlns="http://www.w3.org/2000/svg"><g id="Layer_1_7_" clip-rule="evenodd" fill-rule="evenodd"><path d="m91.678 66.647-8.963 54.224 16.712-7.35z" fill="#457e3b"/><path d="m81.552 121.385c-4.953-18.669-17.021-35.975-34.861-43.943 11.454 15.284 17.311 30.892 18.799 51.009z" fill="#61ab52"/><path d="m117.404 85.795-7.311 18.586-10.664 9.143 30.467 28.333 24.983 1.828 3.961-33.514-24.375-7.617z" fill="#924e38"/><path d="m210.638 79.7-45.397-3.35-47.837 9.445 17.061 16.759 24.375 7.617 28.945-6.704 40.522-3.047z" fill="#c68659"/><path d="m229.527 128.757c0-2.133-1.22-28.337-1.22-28.337l-40.522 3.047-28.945 6.703-3.961 33.514 33.517-9.445z" fill="#b46d49"/><path d="m99.429 113.524-51.79 22.776 48.879 34.782 42.822-3.63 15.539-23.767-24.983-1.832z" fill="#b46d49"/><path d="m229.527 128.757 14.017 17.673-10.664 17.367-93.54 3.655 15.539-23.767 33.517-9.445z" fill="#c68659"/><path d="m31.385 194.913 16.254-58.613 48.879 34.782-17.495 45.723z" fill="#7e422e"/><path d="m232.88 163.797-35.338 47.524-118.519 5.484 17.495-45.723 42.822-3.63z" fill="#924e38"/><path d="m243.544 146.43 8.534 34.424-10.966 28.64-43.57 1.827 35.338-47.524z" fill="#b46d49"/></g></svg>