<svg height="512pt" viewBox="-2 0 511 512" width="512pt" xmlns="http://www.w3.org/2000/svg"><path d="m507.640625 512h-507.140625l65.488281-294.921875 73.402344-32.53125 11.640625-72.601563h57.988281l22.121094-100.0625 23.09375-2.710937 78.121094-9.171875 19.433593 76.089844 27.753907 15.921875 37.5625 169.425781 37.238281.4375zm0 0" fill="#877572"/><path d="m507.640625 512h-253.40625v-502.828125l78.121094-9.171875 19.433593 76.089844 27.753907 15.921875 37.5625 169.425781 37.238281.4375zm0 0" fill="#68544f"/><path d="m386.648438 394.164062h-49.984376l-16.820312-103.03125-117.917969-33.324218-33.074219 254.191406h244.632813zm0 0" fill="#3e322e"/><path d="m215.609375 346.015625h-87.269531l-43.949219 165.984375h169.722656zm0 0" fill="#53433f"/></svg>