<svg id="Capa_1" enable-background="new 0 0 512 512" height="512" viewBox="0 0 512 512" width="512" xmlns="http://www.w3.org/2000/svg"><g><path d="m150.427 139.033-26.96 9.241-42.804 14.68h-80.23v-117.142c0-5.347 3.832-9.931 9.097-10.837 22.025-3.801 36.015 31.008 40.919 45.781 1.061 3.204 4.718 4.78 7.757 3.297 30.153-14.69 43.711 4.79 49.109 17.678 1.926 4.605 6.614 7.397 11.579 6.892 19.861-1.999 31.533 30.41 31.533 30.41z" fill="#22b27f"/><path d="m150.427 139.033-26.96 9.241c-5.563-12.022-21.943-43.515-39.353-39.188-3.389.845-6.954-.525-8.746-3.523-3.544-5.944-10.642-14.742-22.963-18.378-5.017-1.483-15.69-1.174-23.364-.701-5.058.319-9.715-2.761-11.363-7.551-3.08-8.921-8.89-23.189-17.245-33.1v-.021c0-5.347 3.832-9.931 9.097-10.837 22.025-3.801 36.015 31.008 40.919 45.781 1.061 3.204 4.718 4.78 7.757 3.297 30.153-14.69 43.711 4.79 49.109 17.678 1.926 4.605 6.614 7.397 11.579 6.892 19.861-1.999 31.533 30.41 31.533 30.41z" fill="#09a76d"/><path d="m354.949 253.548c.886 4.389 1.113 8.89.659 13.341l-21.078 206.335-46.038 38.776-2.472-1.401-52.364-29.741-42.619 31.142h-177.346c-7.325 0-13.258-5.934-13.258-13.258v-219.728l315.225-126.238 47.533-19.038-12.64 84.825c-.762 5.11-.628 10.312.402 15.37z" fill="#dd7f66"/><path d="m256.337 512h-97.452l25.934-57.426c3.088-6.839 9.896-11.234 17.4-11.234h24.218c9.034 0 16.832 6.332 18.686 15.174z" fill="#d86f56"/><path d="m354.949 253.548c.886 4.389 1.113 8.89.659 13.341l-21.078 206.335-46.038 38.776-2.472-1.401 24.889-243.71c.453-4.45.237-8.952-.659-13.341l-3.987-19.615c-1.03-5.058-1.174-10.261-.412-15.37l9.807-65.787 47.533-19.038-12.64 84.825c-.762 5.11-.628 10.312.402 15.37z" fill="#d86f56"/><g><path d="m288.018 213.67-106.109 139.95c-5.573 7.5-9.024 16.38-9.993 25.672l-14.834 132.708h-15.556l15.02-134.294c1.246-12.053 5.728-23.571 12.949-33.295l106.109-139.96c2.545-3.42 7.386-4.141 10.817-1.597 3.42 2.544 4.142 7.385 1.597 10.816z" fill="#d86f56"/></g><g><path d="m102.575 410.97-15.082 101.03h-15.628l15.411-103.214c.876-6.161-2.04-12.136-7.438-15.226l-6.037-3.472c-11.239-6.439-17.204-19.336-14.845-32.07l16.473-87.483c.783-4.193 4.811-6.964 9.004-6.181 4.193.773 6.964 4.811 6.191 9.004l-16.473 87.483c-1.164 6.294 1.782 12.661 7.335 15.844l6.047 3.472c10.911 6.254 16.814 18.348 15.042 30.813z" fill="#d86f56"/></g><path d="m.428 279.012 80.06 5.35c8.497.568 16.921-1.889 23.78-6.937l45.587-33.545c5.708-4.2 13.59-3.776 18.815 1.013 3.715 3.406 8.906 4.692 13.781 3.415l84.512-22.134c8.052-2.109 15.347-6.443 21.049-12.506l79.954-85.014c3.692-3.925.909-10.363-4.48-10.363h-71.061c-7.917 0-15.821.626-23.639 1.873l-268.358 42.791z" fill="#bbec6c"/><g fill="#a2e62e"><path d="m136.517 244.893c-5.224-4.789-13.106-5.213-18.815-1.013l-45.587 33.545c-3.471 2.554-7.344 4.443-11.424 5.614l19.797 1.323c8.497.568 16.921-1.889 23.78-6.937l39.323-28.936c-2.601-.527-5.056-1.746-7.074-3.596z"/><path d="m363.487 118.29h-32.154c5.389 0 8.172 6.438 4.48 10.363l-79.954 85.014c-5.702 6.063-12.997 10.398-21.049 12.506l-67.447 17.665c.449.327.889.672 1.307 1.055 3.715 3.406 8.906 4.692 13.781 3.415l84.512-22.134c8.052-2.109 15.347-6.443 21.049-12.506l79.954-85.014c3.692-3.926.909-10.364-4.479-10.364z"/></g><path d="m412.366 417.044-19.496 94.951h-104.378l36.056-111.002c3.791-11.672 12.898-20.851 24.539-24.735z" fill="#fccd7f"/><path d="m288.49 512h-97.452l25.934-57.426c3.088-6.839 9.896-11.234 17.4-11.234h24.218c9.034 0 16.832 6.332 18.686 15.174z" fill="#fccd7f"/><path d="m277.276 458.514c-1.854-8.842-9.652-15.174-18.686-15.174h-24.218c-1.361 0-2.698.149-3.995.426 7.283 1.535 13.168 7.225 14.745 14.748l11.215 53.486h32.154z" fill="#f4b869"/><path d="m372.841 60.027h128.613c6.87 0 11.714-6.689 9.629-13.235-3.253-10.211-11.271-21.982-31.039-18.03-3.635.727-7.357-.624-9.596-3.579-7.201-9.504-26.223-28.362-61.938-24.723-32.497 3.311-42.527 31.204-45.62 47.621-1.17 6.213 3.63 11.946 9.951 11.946z" fill="#fdf6ec"/><path d="m511.083 46.793c-3.263-10.245-11.324-22.059-31.234-17.991-3.561.728-7.205-.721-9.4-3.618-7.2-9.504-26.223-28.363-61.939-24.724-2.577.263-4.997.696-7.299 1.249 20.119 4.442 31.845 16.56 37.128 23.542 2.175 2.875 5.818 4.274 9.35 3.552 19.915-4.072 27.976 7.744 31.24 17.99 2.085 6.546-2.759 13.235-9.629 13.235h32.154c6.87-.001 11.714-6.689 9.629-13.235z" fill="#f7ead5"/><path d="m278.408 55.721c10.224 0 16.59-11.272 11.14-19.922-6.625-10.513-18.337-17.498-31.681-17.498s-25.057 6.985-31.681 17.498c-5.451 8.65.916 19.922 11.14 19.922z" fill="#fdf6ec"/><path d="m289.547 35.799c-6.625-10.513-18.337-17.498-31.681-17.498-5.756 0-11.205 1.305-16.077 3.627 6.422 3.061 11.837 7.892 15.605 13.87 5.451 8.65-.915 19.922-11.14 19.922h32.154c10.224.001 16.59-11.271 11.139-19.921z" fill="#f7ead5"/><path d="m475.645 429.838v67.757c0 7.953-6.447 14.4-14.4 14.4h-68.375v-80.437c0-4.852-1.813-9.519-5.089-13.083l-38.694-42.217 15.927-5.305c9.849-3.286 20.593-2.472 29.834 2.256l67.178 34.367c8.355 4.286 13.619 12.877 13.619 22.262z" fill="#dd7f66"/><path d="m462.026 407.576-67.178-34.367c-9.241-4.728-19.986-5.542-29.834-2.256l-4.149 1.382c.616.275 1.226.565 1.829.874l67.178 34.367c8.355 4.286 13.619 12.877 13.619 22.262v69.981c0 5.364-3.268 10.187-8.25 12.176h26.003c7.953 0 14.4-6.447 14.4-14.4v-67.757c.001-9.385-5.263-17.976-13.618-22.262z" fill="#d86f56"/><g><path d="m261.948 303.519c-1.553 0-3.12-.466-4.481-1.437-3.474-2.478-4.281-7.303-1.802-10.777l23.416-32.82c2.478-3.474 7.302-4.281 10.777-1.802 3.474 2.478 4.281 7.303 1.802 10.777l-23.415 32.82c-1.509 2.112-3.885 3.239-6.297 3.239z" fill="#d86f56"/></g><g><path d="m293.411 326.946c-.429 0-.863-.036-1.3-.11-4.207-.713-7.04-4.702-6.326-8.909l4.826-28.473c.713-4.207 4.7-7.036 8.909-6.326 4.207.713 7.04 4.702 6.326 8.909l-4.826 28.473c-.639 3.77-3.908 6.436-7.609 6.436z" fill="#d86f56"/></g></g></svg>