<svg id="flat" height="512" viewBox="0 0 500 500" width="512" xmlns="http://www.w3.org/2000/svg"><path d="m376.8 379.276c10.182-22.609 19.1-46.485 19.1-46.485 27.77 29.882 40.058 74.235 42.808 126.781-49.256-11.438-66.468-40.037-61.908-80.296z" fill="#cbe0b7"/><path d="m460.871 420.9c-19.837-30.217-40.6-57.487-53.16-73.432 11.065 20.451 7.544 30.056 1.984 35.2 3.154 6.685 14.389 30.546 15.032 36.244 2.052 16.99-14.352 24.427-27.225 14-12.148-10.476-17.334-38-20.7-53.646-5.225 11.6-10.784 22.874-15.641 30.412l55 64.98 47.026.621z" fill="#97a583"/><path d="m395.9 332.791s-35.49 48.612-47.448 67.17l46.958 51.817 2.774-40.179c.81-7.29-3.063-13.961-6.713-19.944a24.29 24.29 0 0 1 -2.874-16.187z" fill="#4f424c"/><path d="m277.539 100.354c20.33 4.771 41.242-1.435 61.889-4.316 49.558-6.915 73.373-3.613 78.755 0 7.787 5.229 7.359 15.677-12.714 19.8a1.094 1.094 0 0 0 .147 2.163 694.153 694.153 0 0 0 75.784.757c4.887-.1 9.32-3.761 4.806-7.8a62.4 62.4 0 0 0 -13.485-10.312c-5.225-2.957-11.4-5.73-13.388-11.76-1.173-3.556-.571-7.477-.585-11.261-.043-11.462-6.419-22.593-15.851-27.669-4.229-2.277-8.971-3.41-12.958-6.15-4.431-3.045-7.594-7.841-11.746-11.319-5.417-4.539-12.273-6.619-19.076-7.528-25.96-4.537-39.211 15.647-49.1 37.619-33.594-1.153-33.083 31.283-72.9 30.419z" fill="#4f424c"/><path d="m27.777 466.5 113.995-200.086 28.293-69.387 99.135 143.018 70.463 67.311-16.031 52.216c-73.773 1.948-222.343 5.457-295.855 6.928z" fill="#cbe0b7"/><path d="m293.324 310.736c-9.339 16.04-9.719 45.607-9.719 45.607l30.035 46.257c-11.465 8.1-33.276 4.076-44.889-3.809-13.24-8.99-37.835-45.422-51.858-66.681-7.331-12.977-11.87-27.926-20.14-40.309a2.342 2.342 0 0 0 -4.151 2.032c2.2 9.945 8.161 19.841 12.592 28.966 13.545 27.368 27.585 54.746 44.286 80.362 6.912 15.839 11.6 29.063 10.7 34.524-.655 3.942-11.032 11.763-20.222 6.618-8.5-15.567-17.168-30.989-25.737-46.515-2.551-4.572-4.992-12.229-9.936-14.548a2.079 2.079 0 0 0 -3.075 1.76c-.643 5.219 4.193 10.961 6.606 15.4q5.682 10.45 11.421 20.869c-8.024-3.072-18.412-4.134-25.45-8.12-36.84-20.865-37.569-124.4-34.909-164.671l-10.274 1.18-6.832 16.755-113.995 200.087 140.809 8.724 162.225-.365c2.375-1.243 5.084-1.206 8.094-.018l77.248-.174c-27.509-37.149-95.775-127.967-122.829-163.931z" fill="#97a583"/><path d="m185.622 277.862c.032.033.086.075.13.113 2.124 2.865 6.57.243 5.608-3.032a3.4 3.4 0 0 0 -6.527-.014 3.072 3.072 0 0 0 .789 2.933z" fill="#97a583"/><path d="m241.565 49.622c-11.369-9.953-29.122-11.3-42.085-3.687-4.676-16.882-25.429-19.5-40.127-15.248-15.274 3.25-32.014 13.753-32.745 30.781-11.484-8.811-28.715-9.213-40.305-.389 0 0-18.577 24.978 18.683 26.748s69.69 0 69.69 0l40.165 18.564c13.434-5.03 47.503-22.738 26.724-56.769z" fill="#b0c7fe"/><path d="m338.754 113.062c-13.464-2.381-26.469-6.327-37.4-14.33-4.579-3.355-8.7-7.369-13.634-10.178a33.5 33.5 0 0 0 -26.382-2.826 6.268 6.268 0 0 1 -4.374-.178c-2.877-1.249-2.621-3.931-2.506-6.293a37.459 37.459 0 0 0 -12.91-29.621c3.032 9.086 1.249 18.628.333 20.758-7.2 16.751-29.961 24.577-45.943 15.8-4.891-2.687-9.034-6.583-13.924-9.271-16.6-9.122-36.917-2.58-55.5 1.064-7.917 1.553-16.214 2.519-23.968.3-8.023-2.306-15.474-8.791-16.244-17.2a34.392 34.392 0 0 0 -12.8 18.472c-5.086 23.25-13.764 1.441-39.219 16.041-6.848 4.087-12.435 11.224-19.3 14.967a1.082 1.082 0 0 0 .553 2.037q47.181-1.68 94.4-1.48a.645.645 0 0 0 .239-1.248c-15.12-5.668-17.364-22.391 55.2-15.916 13.659 1.218 16.408 11.742 9.281 16.273a.837.837 0 0 0 .442 1.547q81.733.708 163.433 3.445a1.087 1.087 0 0 0 .223-2.163z" fill="#7e91cb"/><g fill="#4f424c"><path d="m161.809 452.564c.133 2.921 4.94 3.957 5.41.732 3.095-22.977 2.928-46.739-1.6-69.523-1.579-7.4-4.518-14.486-5.868-21.92-1.456-8.022 10.317-164.826 10.317-164.826l-61.258 113.331c-7.692 10.66-23.186 24.411-32.775 32.485a61.256 61.256 0 0 0 -14.058 17.057c-12.77 22.92-43.1 79.021-55.095 115.692l161.7-.365-73.63-15.238a11.062 11.062 0 0 1 -8.552-13.107 124.367 124.367 0 0 1 41.331-69.5c-1.055 13.949-4.168 28.272-3.819 42.261.129 3.144 4.813 4.006 5.636.763 2.589-10.206 17.473-114.72 17.473-114.72a2.159 2.159 0 0 1 4.272.159c1.134 10.915.233 45.574.989 53.515.69 7.236 3.356 13.981 5.13 20.976 6.366 23.601 3.603 48.142 4.397 72.228z"/><path d="m327.524 460.117q-31.476-42.375-59.9-86.91c-9.426-14.754-17.756-30.589-28.03-44.754a2.71 2.71 0 0 0 -4.677 2.734c7.3 15.808 17.685 30.679 27.006 45.352 21.379 33.867 44.686 66.421 68.889 98.321l8.094-.018c-3.854-4.872-7.687-9.755-11.382-14.725z"/><path d="m326.125 414.16c-5.414-8.627-26.338-38.765-36-52.7a20.776 20.776 0 0 1 -3.348-15.653l6.546-35.07-24.123 29.308s43.235 68.277 52.55 77.5c2.206 2.183 6.091-.645 4.375-3.385z"/><path d="m460.87 420.9-4.038 10.338a3.933 3.933 0 0 1 -5.422 2.087l-10.11-5.056a23.265 23.265 0 0 1 -10.524-10.638c-6.341-13.041-18.283-37.436-21.646-39a2.054 2.054 0 0 0 -2.967 1.207c-1.263 4.162 8.675 22.986 11.337 28.216 3.631 7.128 11.972 23.278 16.054 31.175a15.873 15.873 0 0 0 6.666 6.728c5.3 2.815 12.317 7.022 13.981 10.511l8.976 18.821 29.939.4a578.543 578.543 0 0 0 -32.246-54.789z"/></g></svg>