<svg id="Layer_1" height="512" viewBox="0 0 512 512" width="512" xmlns="http://www.w3.org/2000/svg"><path d="m496 355.66h-234.39l-10.88-5.57c3.74-1.41 9.06-3.74 14.86-7.44 22.12-14.09 23.57-29.89 35.92-31.87 14.18-2.28 18.95 17.58 34.91 17.45 20.61-.17 25.14-33.44 44.88-34.91 22.96-1.7 37.32 41.8 57.35 37.41 9.87-2.17 10.81-13.7 19.95-14.96 2.99-.41 6.03.39 9.06 2.12 10.27 5.86 20.42 22.32 28.34 37.77z" fill="#e1615f"/><path d="m410.93 264.82 56.73 53.07c-3.03-1.73-6.07-2.53-9.06-2.12-9.14 1.26-10.08 12.79-19.95 14.96-20.03 4.39-34.39-39.11-57.35-37.41-19.74 1.47-24.27 34.74-44.88 34.91-15.96.13-20.73-19.73-34.91-17.45-12.35 1.98-13.8 17.78-35.92 31.87-5.8 3.7-11.12 6.03-14.86 7.44l-83.99-42.97c-1.88-.96-3.87-1.41-5.83-1.41-5 0-9.79 2.94-11.85 7.9-3.37 8.07-13.91 10.03-19.96 3.71l-23.79-24.87 17.36-17.77 10.14-3.31c6.86-2.24 14.39-.72 19.84 4.01 3.85 3.34 8.65 5.03 13.46 5.03 4.3 0 8.61-1.34 12.26-4.06l3.73-2.78c26.059-18.44 32.146 6.098 44.92-21.48 3.84-6.67 13.96-4.54 14.8 3.1l2.73 25.02c.51 4.64 4.43 8.15 9.1 8.14 2.28-.01 4.39-.85 6-2.26s2.73-3.38 3.03-5.64c1.39-10.24 10.15-17.11 19.58-17.11 3.04 0 6.14.71 9.09 2.25l7.1 3.68c6.87 3.58 15.33.29 17.98-7l.12-.35c2.66-7.32 10.94-10.76 17.94-7.5 4.41 2.05 9.39 4.36 14.03 6.51 8.91 4.13 19.44-.05 23.11-9.15 3.34 1.08 6.86 1.65 10.45 1.65 5.36 0 10.61 1.02 15.51 2.95 4.89 1.93 9.43 4.78 13.34 8.44z" fill="#e7957c"/><path d="m356.16 241.42c4.14 4.88 9.52 8.44 15.47 10.36-3.67 9.1-14.2 13.28-23.11 9.15-4.64-2.15-9.62-4.46-14.03-6.51-7-3.26-15.28.18-17.94 7.5l-.12.35c-2.65 7.29-11.11 10.58-17.98 7l-7.1-3.68c-2.95-1.54-6.05-2.25-9.09-2.25-9.43 0-18.19 6.87-19.58 17.11-.3 2.26-1.42 4.23-3.03 5.64s-3.72 2.25-6 2.26c-4.67.01-8.59-3.5-9.1-8.14l-2.73-25.02c-.84-7.64-10.96-9.77-14.8-3.1-12.741 27.555-18.935 3.063-44.92 21.48l-3.73 2.78c-3.65 2.72-7.96 4.06-12.26 4.06-4.81 0-9.61-1.69-13.46-5.03-5.45-4.73-12.98-6.25-19.84-4.01l-10.14 3.31 72.78-74.52c6.74-6.89 17.15-8.64 25.77-4.33 3.05 1.52 6.27 2.24 9.44 2.24 8.32 0 16.26-4.92 19.63-13.19l6.68-16.41c5.52-13.54 23.43-16.4 32.89-5.25z" fill="#ffbfb0"/><path d="m166.74 307.12c-1.88-.96-3.87-1.41-5.83-1.41-5 0-9.79 2.94-11.85 7.9-3.37 8.07-13.91 10.03-19.96 3.71l-23.79-24.87-.15-.16c-9.7-10.14-26.03-9.73-35.2.9l-53.96 62.47h245.61z" fill="#c14848"/><path d="m251.22 195.83c3.05 1.52 6.27 2.24 9.44 2.24 8.32 0 16.26-4.92 19.63-13.19l6.68-16.41c.78-1.914 1.815-3.606 3.031-5.084l-.141-.166c-9.46-11.15-27.37-8.29-32.89 5.25l-6.68 16.41c-1.464 3.592-3.791 6.55-6.636 8.749 2.582.275 5.145.99 7.566 2.201z" fill="#e28f7f"/><path d="m102.966 290.272c-9.822-8.004-24.495-6.947-33.006 2.918l-53.96 62.47h30l53.96-62.47c.932-1.08 1.941-2.049 3.006-2.918z" fill="#a33434"/><path d="m132.81 271.37-10.14 3.31-17.36 17.77 16.032 16.76 30.938-34.131c-5.418-4.486-12.762-5.9-19.47-3.709z" fill="#c66752"/><path d="m228.038 197.899c-2.306-.292-4.607-.967-6.818-2.069-8.62-4.31-19.03-2.56-25.77 4.33l-72.78 74.52 10.14-3.31c6.693-2.186 14.018-.783 19.432 3.679l73.208-74.889c.812-.83 1.68-1.581 2.589-2.26z" fill="#e28f7f"/><g fill="#d4e1f4"><path d="m156.584 213.266c-1.26 0-2.521-.474-3.493-1.423-1.976-1.93-2.013-5.096-.083-7.071l10.131-10.372c1.929-1.977 5.094-2.012 7.07-.083 1.976 1.93 2.013 5.096.083 7.071l-10.131 10.372c-.979 1.003-2.278 1.506-3.577 1.506z"/><path d="m101.287 269.879c-1.26 0-2.521-.474-3.493-1.423-1.976-1.93-2.013-5.096-.083-7.071l44.126-45.177c1.929-1.976 5.094-2.012 7.07-.083 1.976 1.93 2.013 5.096.083 7.071l-44.126 45.177c-.979 1.003-2.278 1.506-3.577 1.506z"/></g></svg>