<?xml version="1.0" standalone="no"?><svg xmlns="http://www.w3.org/2000/svg" viewBox="0 0 1440 320"><path fill="#ffffff" fill-opacity="1" d="M0,96L14.1,112C28.2,128,56,160,85,176C112.9,192,141,192,169,170.7C197.6,149,226,107,254,106.7C282.4,107,311,149,339,186.7C367.1,224,395,256,424,261.3C451.8,267,480,245,508,245.3C536.5,245,565,267,593,256C621.2,245,649,203,678,186.7C705.9,171,734,181,762,197.3C790.6,213,819,235,847,245.3C875.3,256,904,256,932,234.7C960,213,988,171,1016,138.7C1044.7,107,1073,85,1101,112C1129.4,139,1158,213,1186,245.3C1214.1,277,1242,267,1271,240C1298.8,213,1327,171,1355,138.7C1383.5,107,1412,85,1426,74.7L1440,64L1440,320L1425.9,320C1411.8,320,1384,320,1355,320C1327.1,320,1299,320,1271,320C1242.4,320,1214,320,1186,320C1157.6,320,1129,320,1101,320C1072.9,320,1045,320,1016,320C988.2,320,960,320,932,320C903.5,320,875,320,847,320C818.8,320,791,320,762,320C734.1,320,706,320,678,320C649.4,320,621,320,593,320C564.7,320,536,320,508,320C480,320,452,320,424,320C395.3,320,367,320,339,320C310.6,320,282,320,254,320C225.9,320,198,320,169,320C141.2,320,113,320,85,320C56.5,320,28,320,14,320L0,320Z"></path></svg>