<?xml version="1.0" standalone="no"?><svg xmlns="http://www.w3.org/2000/svg" viewBox="0 0 1440 320"><path fill="#ffffff" fill-opacity="1" d="M0,160L24,133.3C48,107,96,53,144,48C192,43,240,85,288,117.3C336,149,384,171,432,154.7C480,139,528,85,576,53.3C624,21,672,11,720,16C768,21,816,43,864,64C912,85,960,107,1008,133.3C1056,160,1104,192,1152,186.7C1200,181,1248,139,1296,117.3C1344,96,1392,96,1416,96L1440,96L1440,0L1416,0C1392,0,1344,0,1296,0C1248,0,1200,0,1152,0C1104,0,1056,0,1008,0C960,0,912,0,864,0C816,0,768,0,720,0C672,0,624,0,576,0C528,0,480,0,432,0C384,0,336,0,288,0C240,0,192,0,144,0C96,0,48,0,24,0L0,0Z"></path></svg>