<?xml version="1.0" standalone="no"?><svg xmlns="http://www.w3.org/2000/svg" viewBox="0 0 1440 320"><path fill="#0099ff" fill-opacity="1" d="M0,128L21.8,138.7C43.6,149,87,171,131,192C174.5,213,218,235,262,218.7C305.5,203,349,149,393,154.7C436.4,160,480,224,524,240C567.3,256,611,224,655,186.7C698.2,149,742,107,785,90.7C829.1,75,873,85,916,101.3C960,117,1004,139,1047,128C1090.9,117,1135,75,1178,85.3C1221.8,96,1265,160,1309,197.3C1352.7,235,1396,245,1418,250.7L1440,256L1440,320L1418.2,320C1396.4,320,1353,320,1309,320C1265.5,320,1222,320,1178,320C1134.5,320,1091,320,1047,320C1003.6,320,960,320,916,320C872.7,320,829,320,785,320C741.8,320,698,320,655,320C610.9,320,567,320,524,320C480,320,436,320,393,320C349.1,320,305,320,262,320C218.2,320,175,320,131,320C87.3,320,44,320,22,320L0,320Z"></path></svg>