<?xml version="1.0" standalone="no"?><svg xmlns="http://www.w3.org/2000/svg" viewBox="0 0 1440 320"><path fill="#ffffff" fill-opacity="1" d="M0,256L24,245.3C48,235,96,213,144,213.3C192,213,240,235,288,229.3C336,224,384,192,432,165.3C480,139,528,117,576,138.7C624,160,672,224,720,256C768,288,816,288,864,266.7C912,245,960,203,1008,186.7C1056,171,1104,181,1152,192C1200,203,1248,213,1296,181.3C1344,149,1392,75,1416,37.3L1440,0L1440,320L1416,320C1392,320,1344,320,1296,320C1248,320,1200,320,1152,320C1104,320,1056,320,1008,320C960,320,912,320,864,320C816,320,768,320,720,320C672,320,624,320,576,320C528,320,480,320,432,320C384,320,336,320,288,320C240,320,192,320,144,320C96,320,48,320,24,320L0,320Z"></path></svg>