<?xml version="1.0" standalone="no"?><svg xmlns="http://www.w3.org/2000/svg" viewBox="0 0 1440 320"><path fill="#ffffff" fill-opacity="1" d="M0,96L14.1,122.7C28.2,149,56,203,85,224C112.9,245,141,235,169,218.7C197.6,203,226,181,254,181.3C282.4,181,311,203,339,192C367.1,181,395,139,424,149.3C451.8,160,480,224,508,240C536.5,256,565,224,593,176C621.2,128,649,64,678,53.3C705.9,43,734,85,762,133.3C790.6,181,819,235,847,234.7C875.3,235,904,181,932,154.7C960,128,988,128,1016,128C1044.7,128,1073,128,1101,128C1129.4,128,1158,128,1186,122.7C1214.1,117,1242,107,1271,133.3C1298.8,160,1327,224,1355,208C1383.5,192,1412,96,1426,48L1440,0L1440,320L1425.9,320C1411.8,320,1384,320,1355,320C1327.1,320,1299,320,1271,320C1242.4,320,1214,320,1186,320C1157.6,320,1129,320,1101,320C1072.9,320,1045,320,1016,320C988.2,320,960,320,932,320C903.5,320,875,320,847,320C818.8,320,791,320,762,320C734.1,320,706,320,678,320C649.4,320,621,320,593,320C564.7,320,536,320,508,320C480,320,452,320,424,320C395.3,320,367,320,339,320C310.6,320,282,320,254,320C225.9,320,198,320,169,320C141.2,320,113,320,85,320C56.5,320,28,320,14,320L0,320Z"></path></svg>