<?xml version="1.0" standalone="no"?><svg xmlns="http://www.w3.org/2000/svg" viewBox="0 0 1440 320"><path fill="#ffffff" fill-opacity="1" d="M0,160L14.1,160C28.2,160,56,160,85,144C112.9,128,141,96,169,96C197.6,96,226,128,254,128C282.4,128,311,96,339,74.7C367.1,53,395,43,424,80C451.8,117,480,203,508,245.3C536.5,288,565,288,593,250.7C621.2,213,649,139,678,106.7C705.9,75,734,85,762,122.7C790.6,160,819,224,847,256C875.3,288,904,288,932,266.7C960,245,988,203,1016,154.7C1044.7,107,1073,53,1101,69.3C1129.4,85,1158,171,1186,170.7C1214.1,171,1242,85,1271,42.7C1298.8,0,1327,0,1355,16C1383.5,32,1412,64,1426,80L1440,96L1440,320L1425.9,320C1411.8,320,1384,320,1355,320C1327.1,320,1299,320,1271,320C1242.4,320,1214,320,1186,320C1157.6,320,1129,320,1101,320C1072.9,320,1045,320,1016,320C988.2,320,960,320,932,320C903.5,320,875,320,847,320C818.8,320,791,320,762,320C734.1,320,706,320,678,320C649.4,320,621,320,593,320C564.7,320,536,320,508,320C480,320,452,320,424,320C395.3,320,367,320,339,320C310.6,320,282,320,254,320C225.9,320,198,320,169,320C141.2,320,113,320,85,320C56.5,320,28,320,14,320L0,320Z"></path></svg>