<?xml version="1.0" standalone="no"?><svg xmlns="http://www.w3.org/2000/svg" viewBox="0 0 1440 320"><path fill="#ffffff" fill-opacity="1" d="M0,32L30,74.7C60,117,120,203,180,208C240,213,300,139,360,112C420,85,480,107,540,144C600,181,660,235,720,224C780,213,840,139,900,138.7C960,139,1020,213,1080,234.7C1140,256,1200,224,1260,208C1320,192,1380,192,1410,192L1440,192L1440,320L1410,320C1380,320,1320,320,1260,320C1200,320,1140,320,1080,320C1020,320,960,320,900,320C840,320,780,320,720,320C660,320,600,320,540,320C480,320,420,320,360,320C300,320,240,320,180,320C120,320,60,320,30,320L0,320Z"></path></svg>