<?xml version="1.0" standalone="no"?><svg xmlns="http://www.w3.org/2000/svg" viewBox="0 0 1440 320"><path fill="#5000ca" fill-opacity="1" d="M0,96L16,101.3C32,107,64,117,96,106.7C128,96,160,64,192,85.3C224,107,256,181,288,224C320,267,352,277,384,272C416,267,448,245,480,245.3C512,245,544,267,576,272C608,277,640,267,672,218.7C704,171,736,85,768,64C800,43,832,85,864,117.3C896,149,928,171,960,186.7C992,203,1024,213,1056,186.7C1088,160,1120,96,1152,64C1184,32,1216,32,1248,37.3C1280,43,1312,53,1344,58.7C1376,64,1408,64,1424,64L1440,64L1440,320L1424,320C1408,320,1376,320,1344,320C1312,320,1280,320,1248,320C1216,320,1184,320,1152,320C1120,320,1088,320,1056,320C1024,320,992,320,960,320C928,320,896,320,864,320C832,320,800,320,768,320C736,320,704,320,672,320C640,320,608,320,576,320C544,320,512,320,480,320C448,320,416,320,384,320C352,320,320,320,288,320C256,320,224,320,192,320C160,320,128,320,96,320C64,320,32,320,16,320L0,320Z"></path></svg>