<svg xmlns="http://www.w3.org/2000/svg" version="1.1" xmlns:xlink="http://www.w3.org/1999/xlink" width="512" height="512" x="0" y="0" viewBox="0 0 60 60" style="enable-background:new 0 0 512 512" xml:space="preserve" class=""><g><path fill="#e66c3c" d="M53 24.16V54a5 5 0 0 1-5 5H12a5 5 0 0 1-5-5V6a5 5 0 0 1 5-5h36a4.987 4.987 0 0 1 4.99 4.84z" opacity="1" data-original="#e64c3c" class=""></path><g fill="#95a5a5"><rect width="12" height="6" x="1" y="33" rx="3" fill="#95a5a5" opacity="1" data-original="#95a5a5" class=""></rect><rect width="12" height="6" x="1" y="21" rx="3" fill="#95a5a5" opacity="1" data-original="#95a5a5" class=""></rect><rect width="12" height="6" x="1" y="9" rx="3" fill="#95a5a5" opacity="1" data-original="#95a5a5" class=""></rect><rect width="12" height="6" x="1" y="45" rx="3" fill="#95a5a5" opacity="1" data-original="#95a5a5" class=""></rect></g><circle cx="22" cy="39" r="4" fill="#ecf0f1" opacity="1" data-original="#ecf0f1" class=""></circle><circle cx="44" cy="39" r="4" fill="#ecf0f1" opacity="1" data-original="#ecf0f1" class=""></circle><path fill="#cf2a18" d="M17 34a1 1 0 0 1-.949-1.316C16.1 32.533 17.333 29 22 29a1 1 0 0 1 0 2c-3.242 0-4.043 2.293-4.051 2.316A1 1 0 0 1 17 34zM49 34a1 1 0 0 1-.946-.676C48.014 33.213 47.174 31 44 31a1 1 0 0 1 0-2c4.667 0 5.9 3.533 5.949 3.684A1 1 0 0 1 49 34z" opacity="1" data-original="#c03a2b" class=""></path><path fill="#ffffff" d="M15 6h-2a1 1 0 0 1 0-2h2a1 1 0 0 1 0 2zM38 6H19a1 1 0 0 1 0-2h19a1 1 0 0 1 0 2z" opacity="1" data-original="#fb7b76" class=""></path><path fill="#3f5c6c" d="M33 52c-5.395 0-7.579-3.8-7.98-5.8a1 1 0 0 1 1.959-.4c.04.184.959 4.2 6.021 4.2s5.984-4.03 6.021-4.2a1.01 1.01 0 0 1 1.18-.775 1 1 0 0 1 .779 1.175c-.401 2-2.58 5.8-7.98 5.8z" opacity="1" data-original="#3f5c6c" class=""></path><circle cx="49" cy="15" r="10" fill="#4fba6f" opacity="1" data-original="#4fba6f" class=""></circle><path fill="#ecf0f1" d="M54 14h-4v-4a1 1 0 0 0-2 0v4h-4a1 1 0 0 0 0 2h4v4a1 1 0 0 0 2 0v-4h4a1 1 0 0 0 0-2z" opacity="1" data-original="#ecf0f1" class=""></path><circle cx="22" cy="39" r="2" fill="#35495e" opacity="1" data-original="#35495e" class=""></circle><circle cx="44" cy="39" r="2" fill="#35495e" opacity="1" data-original="#35495e" class=""></circle><circle cx="21" cy="38" r="1" fill="#ecf0f1" opacity="1" data-original="#ecf0f1" class=""></circle><circle cx="43" cy="38" r="1" fill="#ecf0f1" opacity="1" data-original="#ecf0f1" class=""></circle></g></svg>