<svg height="512" viewBox="0 0 60 60" width="512" xmlns="http://www.w3.org/2000/svg"><g id="Icons"><path d="m53 24.16v29.84a5 5 0 0 1 -5 5h-36a5 5 0 0 1 -5-5v-48a5 5 0 0 1 5-5h36a4.987 4.987 0 0 1 4.99 4.84z" fill="#e64c3c"/><g fill="#95a5a5"><rect height="6" rx="3" width="12" x="1" y="33"/><rect height="6" rx="3" width="12" x="1" y="21"/><rect height="6" rx="3" width="12" x="1" y="9"/><rect height="6" rx="3" width="12" x="1" y="45"/></g><circle cx="22" cy="39" fill="#ecf0f1" r="4"/><circle cx="44" cy="39" fill="#ecf0f1" r="4"/><path d="m17 34a1 1 0 0 1 -.949-1.316c.049-.151 1.282-3.684 5.949-3.684a1 1 0 0 1 0 2c-3.242 0-4.043 2.293-4.051 2.316a1 1 0 0 1 -.949.684z" fill="#c03a2b"/><path d="m49 34a1 1 0 0 1 -.946-.676c-.04-.111-.88-2.324-4.054-2.324a1 1 0 0 1 0-2c4.667 0 5.9 3.533 5.949 3.684a1 1 0 0 1 -.949 1.316z" fill="#c03a2b"/><path d="m15 6h-2a1 1 0 0 1 0-2h2a1 1 0 0 1 0 2z" fill="#fb7b76"/><path d="m38 6h-19a1 1 0 0 1 0-2h19a1 1 0 0 1 0 2z" fill="#fb7b76"/><path d="m33 52c-5.395 0-7.579-3.8-7.98-5.8a1 1 0 0 1 1.959-.4c.04.184.959 4.2 6.021 4.2s5.984-4.03 6.021-4.2a1.01 1.01 0 0 1 1.18-.775 1 1 0 0 1 .779 1.175c-.401 2-2.58 5.8-7.98 5.8z" fill="#3f5c6c"/><circle cx="49" cy="15" fill="#4fba6f" r="10"/><path d="m54 14h-4v-4a1 1 0 0 0 -2 0v4h-4a1 1 0 0 0 0 2h4v4a1 1 0 0 0 2 0v-4h4a1 1 0 0 0 0-2z" fill="#ecf0f1"/><circle cx="22" cy="39" fill="#35495e" r="2"/><circle cx="44" cy="39" fill="#35495e" r="2"/><circle cx="21" cy="38" fill="#ecf0f1" r="1"/><circle cx="43" cy="38" fill="#ecf0f1" r="1"/></g></svg>