<?xml version="1.0" encoding="UTF-8"?>
<svg xmlns="http://www.w3.org/2000/svg" xmlns:xlink="http://www.w3.org/1999/xlink" version="1.1" id="Capa_1" x="0px" y="0px" viewBox="0 0 512 512" style="enable-background:new 0 0 512 512;" xml:space="preserve" width="512" height="512">
<g>
	<g>
		<g>
			<g>
				<path style="fill:#C2EAFB;" d="M478.16,366.61c0.09,8.01-0.35,16.02-1.34,23.99c-0.309,2.516-7.052,4.439-7.468,6.943&#10;&#9;&#9;&#9;&#9;&#9;c-0.406,2.442,5.517,5.467,5.008,7.896c-1.61,7.71-3.74,15.33-6.38,22.81c-0.828,2.344-8.797,1.669-9.725,3.985&#10;&#9;&#9;&#9;&#9;&#9;c-0.945,2.359,5.149,7.709,4.095,10.035c-8.63,19.1-20.8,37-36.5,52.7c-9.23-9.22-18.46-18.45-27.68-27.68&#10;&#9;&#9;&#9;&#9;&#9;c10.66-10.66,19.24-22.63,25.72-35.38c1.307-2.564,8.338-3.782,9.475-6.406c0.872-2.013-4.114-5.42-3.345-7.464&#10;&#9;&#9;&#9;&#9;&#9;c1.99-5.26,3.65-10.62,4.98-16.05c0.575-2.345,8.53-4.408,8.98-6.777c0.489-2.57-6.538-5.447-6.2-8.034&#10;&#9;&#9;&#9;&#9;&#9;c0.77-5.69,1.18-11.41,1.22-17.14c0.03-2.479,7.04-5.226,6.935-7.706c-0.107-2.523-7.333-4.778-7.585-7.294&#10;&#9;&#9;&#9;&#9;&#9;c-0.56-5.79-1.48-11.55-2.78-17.25c-0.527-2.35,3.434-6.526,2.78-8.854c-0.699-2.487-6.023-3.123-6.87-5.577&#10;&#9;&#9;&#9;&#9;&#9;c-6.66-19.48-17.77-37.77-33.31-53.32c9.22-9.23,18.45-18.46,27.68-27.68c20.57,20.57,35.08,44.92,43.52,70.81&#10;&#9;&#9;&#9;&#9;&#9;c0.682,2.1-6.059,6.14-5.455,8.258c0.768,2.693,8.857,3.472,9.495,6.192c1.87,7.92,3.18,15.94,3.95,24.01&#10;&#9;&#9;&#9;&#9;&#9;c0.239,2.532-4.084,5.316-3.95,7.856C473.54,361.941,478.13,364.152,478.16,366.61z"/>
			</g>
		</g>
		<path style="fill:#FFF8E6;" d="M430.71,504.5H263.5l-7.5-10l-7.5,10H81.29c-5.76,0-10.32-4.85-9.99-10.59&#10;&#9;&#9;&#9;C76.79,396.67,157.39,319.5,256,319.5s179.21,77.17,184.7,174.41C441.03,499.65,436.47,504.5,430.71,504.5z"/>
		<path style="fill:#7FB0E4;" d="M377.277,351.808c22.194,17.636,19.253,52.389-5.567,66.086&#10;&#9;&#9;&#9;C336.676,437.227,297.128,447.5,256,447.5s-80.676-10.273-115.71-29.606c-24.82-13.696-27.761-48.45-5.567-66.086&#10;&#9;&#9;&#9;C168.099,325.286,210.304,309.5,256,309.5S343.901,325.286,377.277,351.808z"/>
		<path style="fill:#FFF8E6;" d="M256,361c-47.34,0-89.74-21.54-117.92-55.33c-25.613-34.983-50.525-50.889-74.59-43.77&#10;&#9;&#9;&#9;C87.18,345.92,164.4,407.5,256,407.5s168.82-61.58,192.51-145.6c-28.639-9.326-53.294,6.58-74.59,43.77&#10;&#9;&#9;&#9;C345.74,339.46,303.34,361,256,361z"/>
		<path style="fill:#7FB0E4;" d="M66,157.5v100l-24.851-6.213C32.246,249.061,26,241.062,26,231.884v-48.769&#10;&#9;&#9;&#9;c0-9.177,6.246-17.177,15.149-19.403L66,157.5z"/>
		<path style="fill:#7FB0E4;" d="M446,157.5v100l24.851-6.213c8.903-2.226,15.149-10.225,15.149-19.403v-48.769&#10;&#9;&#9;&#9;c0-9.177-6.246-17.177-15.149-19.403L446,157.5z"/>
		<g>
			<path style="fill:#F5DBCD;" d="M395.71,227.56c0,80.24-62.55,145.29-139.71,145.29h-0.01c-6.01-4.71-39.222-22.159-44.672-27.139&#10;&#9;&#9;&#9;&#9;c-64.95-59.32-102.596-82.932-55.036-164.302c5.859-10.009,48.276-80.196,54.776-91.455C225.162,84.97,240.279,82.26,256,82.26&#10;&#9;&#9;&#9;&#9;C333.16,82.26,395.71,147.32,395.71,227.56z"/>
			<path style="fill:#F0C9BC;" d="M255.994,372.853c-77.16,0-139.7-65.05-139.7-145.29c0-63.891,39.652-118.154,94.761-137.618&#10;&#9;&#9;&#9;&#9;c-6.504,11.264,28.362,23.806,22.509,33.819C186,205.131,195.175,292.315,260.133,351.63&#10;&#9;&#9;&#9;&#9;C265.583,356.606,249.98,368.138,255.994,372.853z"/>
		</g>
		<g>
			<g>
				<ellipse style="fill:#FFA1AC;" cx="176.443" cy="292.291" rx="29.355" ry="23.377"/>
				<ellipse style="fill:#FFA1AC;" cx="335.557" cy="292.291" rx="29.355" ry="23.377"/>
			</g>
		</g>
		<path style="fill:#CC9E83;" d="M412.794,195.274c0,0-34.719-165.437-156.794-165.437C139.478,29.837,99.039,194.9,99.039,194.9&#10;&#9;&#9;&#9;l32.929,32.929c6.3,6.3,17.071,1.838,17.071-7.071v-19.805c0-19.73,18.719-34.088,37.775-28.975l30.282,8.126&#10;&#9;&#9;&#9;c25.455,6.831,52.261,6.833,77.718,0.008l30.378-8.144c19.055-5.109,37.769,9.249,37.769,28.977v19.885&#10;&#9;&#9;&#9;c0,8.899,10.751,13.365,17.056,7.086L412.794,195.274z"/>
		<path style="fill:#FFF8E6;" d="M326,377.5H186l8.944-17.889c6.776-13.551,20.626-22.111,35.777-22.111h50.557&#10;&#9;&#9;&#9;c15.151,0,29.001,8.56,35.777,22.111L326,377.5z"/>
		<path style="fill:#FFF1CF;" d="M456,207.5c0,18.86-2.61,37.1-7.49,54.39v0.01l-74.59,43.77l27.1-144.73&#10;&#9;&#9;&#9;C401.02,160.94,456,197.19,456,207.5z"/>
		<path style="fill:#FFF1CF;" d="M138.08,305.67L63.49,261.9C58.61,244.61,56,226.36,56,207.5c0-10.31,54.98-46.56,54.98-46.56&#10;&#9;&#9;&#9;L138.08,305.67z"/>
		<g>
			<path style="fill:#889CB0;" d="M456,207.5c-73.3-67.12-146.6-97.35-219.9-90.67c-37.814-9.33-59.657-20.678-59.657-44.008&#10;&#9;&#9;&#9;&#9;c0-15.17,17.108-46.759,42.817-61.952C231.17,8.66,243.45,7.5,256,7.5C366.46,7.5,456,97.04,456,207.5z"/>
			<path style="fill:#7A8FA5;" d="M236.1,116.83C176.06,122.3,116.03,152.52,56,207.5c0-97.91,70.35-179.38,163.26-196.63&#10;&#9;&#9;&#9;&#9;c-8.46,13.24-13.12,27.71-13.12,42.88C206.14,77.08,217.17,98.78,236.1,116.83z"/>
		</g>
	</g>
	<g>
		<g>
			<g>
				<path style="fill:none;stroke:#000000;stroke-width:15;stroke-linecap:round;stroke-linejoin:round;stroke-miterlimit:10;" d="&#10;&#9;&#9;&#9;&#9;&#9;M426.83,311.57c16.8,37.45,16.23,80.8-1.7,117.85"/>
				<path style="fill:none;stroke:#000000;stroke-width:15;stroke-linecap:round;stroke-linejoin:round;stroke-miterlimit:10;" d="&#10;&#9;&#9;&#9;&#9;&#9;M446.83,267.55c44.14,64.14,41.65,150.7-7.46,212.3"/>
			</g>
			<g>
				<path style="fill:none;stroke:#000000;stroke-width:15;stroke-linecap:round;stroke-linejoin:round;stroke-miterlimit:10;" d="&#10;&#9;&#9;&#9;&#9;&#9;M465.32,435.3c-12.72-3.41-25.44-6.84-38.17-10.26"/>
				<path style="fill:none;stroke:#000000;stroke-width:15;stroke-linecap:round;stroke-linejoin:round;stroke-miterlimit:10;" d="&#10;&#9;&#9;&#9;&#9;&#9;M475.75,398.03c-13.05-1.14-26.1-2.28-39.15-3.43h-0.01"/>
				<path style="fill:none;stroke:#000000;stroke-width:15;stroke-linecap:round;stroke-linejoin:round;stroke-miterlimit:10;" d="&#10;&#9;&#9;&#9;&#9;&#9;M477.91,359.11c-13.01,1.14-26.02,2.28-39.03,3.41"/>
				<path style="fill:none;stroke:#000000;stroke-width:15;stroke-linecap:round;stroke-linejoin:round;stroke-miterlimit:10;" d="&#10;&#9;&#9;&#9;&#9;&#9;M471.54,320.35c-12.6,3.4-25.21,6.79-37.82,10.18"/>
			</g>
		</g>
		<path style="fill:none;stroke:#000000;stroke-width:15;stroke-linecap:round;stroke-linejoin:round;stroke-miterlimit:10;" d="&#10;&#9;&#9;&#9;M392.09,379.19c28.13,30.53,46.12,70.56,48.61,114.72c0.33,5.74-4.23,10.59-9.99,10.59H81.29c-5.76,0-10.32-4.85-9.99-10.59&#10;&#9;&#9;&#9;c2.49-44.16,20.48-84.19,48.61-114.72"/>
		
			<line style="fill:none;stroke:#000000;stroke-width:15;stroke-linecap:round;stroke-linejoin:round;stroke-miterlimit:10;" x1="256" y1="504.5" x2="256" y2="447.5"/>
		<path style="fill:none;stroke:#000000;stroke-width:15;stroke-linecap:round;stroke-linejoin:round;stroke-miterlimit:10;" d="&#10;&#9;&#9;&#9;M126.82,360.19c-13.03,18.64-7.85,45.94,13.47,57.7c7.25,4.01,14.7,7.62,22.32,10.84"/>
		<path style="fill:none;stroke:#000000;stroke-width:15;stroke-linecap:round;stroke-linejoin:round;stroke-miterlimit:10;" d="&#10;&#9;&#9;&#9;M385.18,360.19c13.03,18.64,7.85,45.94-13.47,57.7C336.68,437.23,297.13,447.5,256,447.5c-20.6,0-40.8-2.58-60.23-7.57"/>
		<path style="fill:none;stroke:#000000;stroke-width:15;stroke-linecap:round;stroke-linejoin:round;stroke-miterlimit:10;" d="&#10;&#9;&#9;&#9;M256,7.5c-110.46,0-200,89.54-200,200s89.54,200,200,200s200-89.54,200-200S366.46,7.5,256,7.5z M373.92,305.66v0.01&#10;&#9;&#9;&#9;c-16.64,19.95-38.23,35.63-62.87,45.12 M138.08,305.66v0.01c16.64,19.95,38.23,35.63,62.87,45.12"/>
		<path style="fill:none;stroke:#000000;stroke-width:15;stroke-linecap:round;stroke-linejoin:round;stroke-miterlimit:10;" d="&#10;&#9;&#9;&#9;M62.05,256.51l-20.9-5.22C32.25,249.06,26,241.06,26,231.88v-48.76c0-9.18,6.25-17.18,15.15-19.41l20.9-5.22"/>
		<path style="fill:none;stroke:#000000;stroke-width:15;stroke-linecap:round;stroke-linejoin:round;stroke-miterlimit:10;" d="&#10;&#9;&#9;&#9;M449.95,158.49l20.9,5.22c8.9,2.23,15.15,10.23,15.15,19.41v48.76c0,9.18-6.25,17.18-15.15,19.41l-20.9,5.22"/>
		<g>
			
				<line style="fill:none;stroke:#000000;stroke-width:15;stroke-linecap:round;stroke-linejoin:round;stroke-miterlimit:10;" x1="193.551" y1="257.787" x2="193.551" y2="269.787"/>
			
				<line style="fill:none;stroke:#000000;stroke-width:15;stroke-linecap:round;stroke-linejoin:round;stroke-miterlimit:10;" x1="318.449" y1="257.787" x2="318.449" y2="269.787"/>
			<path style="fill:none;stroke:#000000;stroke-width:15;stroke-linecap:round;stroke-linejoin:round;stroke-miterlimit:10;" d="&#10;&#9;&#9;&#9;&#9;M239.536,269.43c4.003,4.594,9.892,7.501,16.464,7.501c6.572,0,12.461-2.907,16.464-7.501"/>
		</g>
		<path style="fill:none;stroke:#000000;stroke-width:15;stroke-linecap:round;stroke-linejoin:round;stroke-miterlimit:10;" d="&#10;&#9;&#9;&#9;M121.55,217.41l10.42,10.42c6.3,6.3,17.07,1.84,17.07-7.07v-19.81c0-19.73,18.72-34.09,37.77-28.97l30.29,8.12&#10;&#9;&#9;&#9;c25.45,6.83,52.26,6.84,77.71,0.01l30.38-8.14c19.06-5.11,37.77,9.25,37.77,28.97v19.89c0,8.9,10.75,13.36,17.06,7.08l10.4-10.36"/>
		
			<polyline style="fill:none;stroke:#000000;stroke-width:15;stroke-linecap:round;stroke-linejoin:round;stroke-miterlimit:10;" points="&#10;&#9;&#9;&#9;63.49,261.9 138.08,305.67 111.5,163.73 &#9;&#9;"/>
		
			<polyline style="fill:none;stroke:#000000;stroke-width:15;stroke-linecap:round;stroke-linejoin:round;stroke-miterlimit:10;" points="&#10;&#9;&#9;&#9;400.5,163.73 373.92,305.67 448.51,261.9 &#9;&#9;"/>
		<path style="fill:none;stroke:#000000;stroke-width:15;stroke-linecap:round;stroke-linejoin:round;stroke-miterlimit:10;" d="&#10;&#9;&#9;&#9;M200.95,350.79c7.48-8.34,18.25-13.29,29.77-13.29h50.56c11.52,0,22.29,4.95,29.77,13.29"/>
		<path style="fill:none;stroke:#000000;stroke-width:15;stroke-linecap:round;stroke-linejoin:round;stroke-miterlimit:10;" d="&#10;&#9;&#9;&#9;M335.99,130.58C376,145.22,416,170.87,456,207.5c0-110.46-89.54-200-200-200S56,97.04,56,207.5&#10;&#9;&#9;&#9;c82.12-75.2,164.24-104.09,246.36-86.66"/>
		
			<line style="fill:none;stroke:#000000;stroke-width:15;stroke-linecap:round;stroke-linejoin:round;stroke-miterlimit:10;" x1="256" y1="367.5" x2="256" y2="377.5"/>
		
			<line style="fill:none;stroke:#000000;stroke-width:15;stroke-linecap:round;stroke-linejoin:round;stroke-miterlimit:10;" x1="286" y1="367.5" x2="286" y2="377.5"/>
		
			<line style="fill:none;stroke:#000000;stroke-width:15;stroke-linecap:round;stroke-linejoin:round;stroke-miterlimit:10;" x1="226" y1="367.5" x2="226" y2="377.5"/>
		
			<line style="fill:none;stroke:#000000;stroke-width:15;stroke-linecap:round;stroke-linejoin:round;stroke-miterlimit:10;" x1="141.282" y1="474.5" x2="171.282" y2="474.5"/>
	</g>
</g>















</svg>
