<svg id="Capa_1" enable-background="new 0 0 512 512" height="512" viewBox="0 0 512 512" width="512" xmlns="http://www.w3.org/2000/svg"><g><g><g><path d="m484.865 369.948c.093 8.252-.36 16.504-1.38 24.714-.318 2.592-7.265 4.573-7.694 7.153-.418 2.516 5.683 5.632 5.159 8.135-1.659 7.943-3.853 15.793-6.573 23.499-.853 2.415-9.062 1.719-10.019 4.106-.973 2.43 5.305 7.942 4.219 10.337-8.89 19.677-21.428 38.117-37.602 54.29-9.509-9.498-19.017-19.007-28.515-28.515 10.982-10.982 19.821-23.313 26.496-36.448 1.347-2.641 8.59-3.896 9.761-6.599.899-2.074-4.238-5.583-3.446-7.689 2.05-5.419 3.76-10.941 5.13-16.534.593-2.416 8.787-4.541 9.251-6.981.503-2.648-6.736-5.611-6.387-8.276.793-5.862 1.216-11.754 1.257-17.657.031-2.554 7.253-5.384 7.144-7.939-.11-2.599-7.554-4.922-7.814-7.514-.577-5.965-1.525-11.899-2.864-17.771-.543-2.421 3.538-6.723 2.864-9.121-.72-2.562-6.205-3.217-7.077-5.745-6.861-20.068-18.306-38.91-34.315-54.929 9.498-9.509 19.007-19.017 28.515-28.516 21.191 21.191 36.139 46.276 44.833 72.947.703 2.164-6.242 6.325-5.62 8.508.791 2.775 9.124 3.576 9.782 6.379 1.927 8.159 3.276 16.421 4.069 24.734.246 2.609-4.208 5.477-4.069 8.093.135 2.53 4.865 4.808 4.895 7.339z" fill="#c2eafb"/></g><g fill="#a8e1f6"><path d="m474.378 433.449c-1.72 4.873-3.647 9.694-5.8 14.443l-39.209-10.539c-.144-.041-.278-.082-.412-.134 2.38-4.667 4.492-9.436 6.315-14.288z"/><path d="m483.485 394.662c-.629 5.12-1.473 10.219-2.534 15.288l-40.548-3.554c1.236-5.037 2.194-10.137 2.864-15.257z"/><path d="m484.865 369.948-40.342 3.534c.062-5.151-.155-10.312-.67-15.453l40.187-3.513c.485 5.13.763 10.281.825 15.432z"/><path d="m479.972 329.782-38.982 10.477c-1.123-5.007-2.524-9.972-4.214-14.866l39.034-10.497c1.596 4.913 2.987 9.879 4.162 14.886z"/></g></g><path d="m435.983 512h-172.257l-7.726-10.302-7.726 10.302h-172.257c-5.934 0-10.632-4.996-10.292-10.91 5.656-100.175 88.689-179.673 190.275-179.673s184.619 79.499 190.274 179.674c.34 5.913-4.357 10.909-10.291 10.909z" fill="#fff8e6"/><path d="m263.726 439.887v72.113h-15.453v-72.113c0-4.265 3.461-7.726 7.726-7.726 4.266 0 7.727 3.461 7.727 7.726z" fill="#a7b6c5"/><path d="m380.938 354.7c22.864 18.168 19.834 53.971-5.735 68.08-36.092 19.917-76.834 30.5-119.203 30.5s-83.111-10.583-119.203-30.499c-25.569-14.11-28.599-49.912-5.735-68.08 34.384-27.322 77.862-43.585 124.938-43.585s90.554 16.262 124.938 43.584z" fill="#7fb0e4"/><path d="m256 364.169c-48.769 0-92.448-22.19-121.479-57-26.386-36.039-52.05-52.425-76.841-45.091 24.405 86.556 103.955 149.994 198.32 149.994s173.915-63.439 198.32-149.994c-29.503-9.607-54.903 6.778-76.841 45.091-29.031 34.81-72.71 57-121.479 57z" fill="#fff8e6"/><path d="m60.266 154.527v103.018l-25.601-6.4c-9.172-2.293-15.607-10.534-15.607-19.988v-50.241c0-9.454 6.434-17.695 15.607-19.988z" fill="#7fb0e4"/><path d="m451.734 154.527v103.018l25.601-6.4c9.172-2.293 15.607-10.534 15.607-19.988v-50.241c0-9.454-6.434-17.695-15.607-19.988z" fill="#7fb0e4"/><g><path d="m399.927 226.702c0 82.662-64.438 149.675-143.927 149.675h-.01c-6.191-4.852-40.406-22.828-46.021-27.958-66.91-61.11-105.692-85.435-56.697-169.261 6.036-10.311 49.733-82.617 56.429-94.215 14.53-5.135 30.103-7.926 46.298-7.926 79.49-.001 143.928 67.023 143.928 149.685z" fill="#f5dbcd"/><path d="m255.994 376.38c-79.489 0-143.916-67.013-143.916-149.675 0-65.819 40.849-121.72 97.621-141.771-6.701 11.604 29.218 24.524 23.188 34.84-49 83.823-39.547 173.637 27.371 234.743 5.614 5.126-10.46 17.006-4.264 21.863z" fill="#f0c9bc"/></g><g><g fill="#ffa1ac"><ellipse cx="174.042" cy="293.386" rx="30.241" ry="24.082"/><ellipse cx="337.958" cy="293.386" rx="30.241" ry="24.082"/></g><g fill="#666667"><path d="m191.667 277.93c-4.267 0-7.726-3.459-7.726-7.726v-12.362c0-4.267 3.459-7.726 7.726-7.726s7.726 3.459 7.726 7.726v12.362c0 4.266-3.459 7.726-7.726 7.726z"/><path d="m320.333 277.93c-4.267 0-7.726-3.459-7.726-7.726v-12.362c0-4.267 3.459-7.726 7.726-7.726s7.726 3.459 7.726 7.726v12.362c.001 4.266-3.458 7.726-7.726 7.726z"/><path d="m256 285.289c-8.733 0-17.039-3.782-22.786-10.377-2.803-3.217-2.468-8.098.749-10.901s8.098-2.468 10.901.749c2.811 3.226 6.871 5.077 11.136 5.077s8.325-1.851 11.136-5.077c2.803-3.217 7.684-3.552 10.901-.749 3.217 2.804 3.552 7.684.749 10.901-5.747 6.595-14.053 10.377-22.786 10.377z"/></g></g><path d="m417.527 193.441s-35.767-170.43-161.527-170.43c-120.039 0-161.698 170.045-161.698 170.045l33.923 33.923c6.49 6.49 17.586 1.893 17.586-7.284v-20.403c0-20.326 19.284-35.117 38.915-29.849l31.196 8.371c26.224 7.037 53.839 7.04 80.064.009l31.295-8.39c19.63-5.263 38.909 9.528 38.909 29.851v20.485c0 9.168 11.075 13.769 17.571 7.3z" fill="#cc9e83"/><path d="m328.113 381.167h-144.226l9.214-18.428c6.98-13.96 21.249-22.779 36.857-22.779h52.083c15.608 0 29.877 8.818 36.857 22.779z" fill="#fff8e6"/><g fill="#a7b6c5"><path d="m256 388.893c-4.267 0-7.726-3.459-7.726-7.726v-10.302c0-4.267 3.459-7.726 7.726-7.726s7.726 3.459 7.726 7.726v10.302c0 4.267-3.459 7.726-7.726 7.726z"/><path d="m286.905 388.893c-4.267 0-7.726-3.459-7.726-7.726v-10.302c0-4.267 3.459-7.726 7.726-7.726s7.726 3.459 7.726 7.726v10.302c.001 4.267-3.458 7.726-7.726 7.726z"/><path d="m225.095 388.893c-4.267 0-7.726-3.459-7.726-7.726v-10.302c0-4.267 3.459-7.726 7.726-7.726s7.726 3.459 7.726 7.726v10.302c0 4.267-3.459 7.726-7.726 7.726z"/><path d="m168.725 488.821h-30.905c-4.267 0-7.726-3.459-7.726-7.726s3.459-7.726 7.726-7.726h30.905c4.267 0 7.726 3.459 7.726 7.726s-3.459 7.726-7.726 7.726z"/></g><path d="m462.036 206.036c0 19.429-2.689 38.22-7.716 56.032v.01l-76.841 45.091 27.918-149.098s56.639 37.344 56.639 47.965z" fill="#fff1cf"/><path d="m134.521 307.169-76.841-45.091c-5.027-17.812-7.716-36.613-7.716-56.042 0-10.621 56.639-47.965 56.639-47.965z" fill="#fff1cf"/><g><path d="m462.036 206.036c-75.512-69.146-151.025-100.288-226.537-93.406-38.955-9.612-61.457-21.302-61.457-45.336 0-15.628 17.624-48.17 44.109-63.822 12.27-2.277 24.92-3.472 37.849-3.472 113.794 0 206.036 92.242 206.036 206.036z" fill="#889cb0"/><path d="m235.499 112.63c-61.852 5.635-123.694 36.767-185.536 93.406 0-100.865 72.473-184.794 168.187-202.565-8.715 13.64-13.516 28.546-13.516 44.174.001 24.035 11.364 46.39 30.865 64.985z" fill="#7a8fa5"/></g></g></svg>