<svg xmlns="http://www.w3.org/2000/svg" version="1.1" xmlns:xlink="http://www.w3.org/1999/xlink" width="512" height="512" x="0" y="0" viewBox="0 0 2000 2000" style="enable-background:new 0 0 512 512" xml:space="preserve" fill-rule="evenodd" class=""><g><path fill="#ff7a46" d="M1078 1775c84 0 159-67 159-159v-150h458c87 0 158-71 158-158V692c0-87-71-158-158-158h-458V384c0-133-153-207-257-124L207 876c-80 64-80 184 0 248l773 616c29 23 63 35 98 35zm617-1161c43 0 78 35 78 78v616c0 43-35 78-78 78h-498c-22 0-40 18-40 40v190c0 66-75 102-127 61l-774-616c-39-31-39-91 0-122l774-616c52-41 127-5 127 61v190c0 22 18 40 40 40z" opacity="1" data-original="#532929" class=""></path><path fill="#ff7a46" d="M1773 1308V692c0-43-35-78-78-78h-498c-22 0-40-18-40-40V384c0-66-75-102-127-61L256 939c-39 31-39 91 0 122l774 616c52 41 127 5 127-61v-190c0-22 18-40 40-40h498c43 0 78-35 78-78z" opacity="1" data-original="#ffd946" class=""></path></g></svg>