<svg id="Capa_1" enable-background="new 0 0 512 512" height="512" viewBox="0 0 512 512" width="512" xmlns="http://www.w3.org/2000/svg"><path d="m368.05 412.527c-25.277 0-47.85-6.874-67.384-20.564-8.318-5.829-10.335-17.297-4.506-25.614 5.828-8.317 17.297-10.335 25.614-4.506 19.084 13.373 42.241 17.067 70.798 11.289 9.954-2.014 19.658 4.423 21.672 14.378s-4.423 19.658-14.378 21.672c-11.029 2.231-21.642 3.345-31.816 3.345z" fill="#efd176"/><path d="m104.016 329.887-31.947 105.014c-6.214 20.426 12.879 39.519 33.305 33.305l105.014-31.947-23.56-82.813z" fill="#4e5660"/><ellipse cx="213.178" cy="327.097" fill="#f7ef87" rx="124.556" ry="132.904" transform="matrix(.707 -.707 .707 .707 -168.854 246.544)"/><path d="m317.478 409.216c-42.249-14.889-86.43-46.023-113.412-73.006-26.983-26.983-58.117-71.164-73.006-113.413.016-.031.034-.06.051-.09-4.149 3.162-8.129 6.632-11.91 10.413-16.309 16.309-26.843 36.314-31.698 57.656.007.002.013.002.02.004 16.362 36.6 42.725 72.685 66.006 95.966s59.367 49.644 95.966 66.006c.004.007.006.012.01.019 21.341-4.856 41.344-15.389 57.651-31.697 3.768-3.768 7.227-7.735 10.381-11.868-.02.003-.039.008-.059.01z" fill="#4e5660"/><path d="m85.211 77.433c-32.463 32.463-25.527 86.84 14.046 110.114l81.378 47.862c17.945 10.554 40.754 7.644 55.475-7.076 14.72-14.72 17.63-37.53 7.076-55.475l-47.862-81.378c-23.273-39.574-77.65-46.51-110.113-14.047z" fill="#7acefa"/><path d="m179.744 179.465c-1.919 0-3.839-.732-5.303-2.197l-45.342-45.343c-2.929-2.929-2.929-7.678 0-10.606 2.929-2.929 7.678-2.929 10.607 0l45.342 45.343c2.929 2.929 2.929 7.678 0 10.607-1.465 1.464-3.385 2.196-5.304 2.196z" fill="#a3defe"/><path d="m0 227.021c0 45.91 43.355 79.455 87.794 67.93l91.387-23.7c20.151-5.226 34.223-23.412 34.223-44.23 0-20.818-14.072-39.004-34.223-44.23l-91.387-23.7c-44.439-11.525-87.794 22.02-87.794 67.93z" fill="#a3defe"/><path d="m133.689 234.521h-64.124c-4.142 0-7.5-3.358-7.5-7.5s3.358-7.5 7.5-7.5h64.124c4.142 0 7.5 3.358 7.5 7.5s-3.358 7.5-7.5 7.5z" fill="#7acefa"/><path d="m507.124 213.604c0-77.78-69.758-140.834-155.808-140.834s-155.808 63.054-155.808 140.834c0 77.781 69.758 132.003 155.808 132.003s155.808-54.223 155.808-132.003z" fill="#f7ef87"/><path d="m295.271 82.165c-58.357 20.344-99.763 71.517-99.763 131.438 0 77.781 69.758 132.003 155.808 132.003 18.205 0 35.676-2.436 51.916-6.999-201.425-35.98-167.624-189.377-107.961-256.442z" fill="#efd176"/><ellipse cx="250.306" cy="241.716" fill="#eda1ab" rx="37.271" ry="29.681"/><ellipse cx="452.326" cy="241.716" fill="#eda1ab" rx="37.271" ry="29.681"/><g fill="#4e5660"><path d="m289.767 216.919c-4.142 0-7.5-3.358-7.5-7.5 0-5.646-4.594-10.24-10.24-10.24s-10.24 4.594-10.24 10.24c0 4.142-3.358 7.5-7.5 7.5s-7.5-3.358-7.5-7.5c0-13.917 11.323-25.24 25.24-25.24s25.24 11.323 25.24 25.24c0 4.142-3.358 7.5-7.5 7.5z"/><path d="m448.345 216.919c-4.142 0-7.5-3.358-7.5-7.5 0-5.646-4.594-10.24-10.24-10.24-5.647 0-10.24 4.594-10.24 10.24 0 4.142-3.358 7.5-7.5 7.5s-7.5-3.358-7.5-7.5c0-13.917 11.323-25.24 25.24-25.24s25.24 11.323 25.24 25.24c0 4.142-3.358 7.5-7.5 7.5z"/><path d="m351.316 246.226c-9.379 0-18.299-4.063-24.472-11.146-2.721-3.123-2.396-7.86.727-10.582 3.123-2.721 7.86-2.396 10.582.727 3.323 3.814 8.121 6.001 13.164 6.001 5.042 0 9.84-2.187 13.164-6.001 2.721-3.123 7.458-3.447 10.582-.727 3.123 2.722 3.448 7.459.727 10.582-6.175 7.084-15.095 11.146-24.474 11.146z"/><path d="m294.782 146.939c-2.907 0-5.673-1.7-6.893-4.54-16.229-37.749-58.249-60.913-69.378-63.11-4.064-.802-6.707-4.747-5.905-8.811.802-4.063 4.747-6.705 8.811-5.905 15.346 3.03 61.752 28.868 80.252 71.902 1.636 3.805-.123 8.216-3.928 9.852-.966.416-1.97.612-2.959.612z"/><ellipse cx="219.963" cy="71.932" rx="29.331" ry="29.331" transform="matrix(.16 -.987 .987 .16 113.726 277.533)"/><path d="m407.85 146.939c-.989 0-1.993-.196-2.958-.612-3.806-1.636-5.564-6.047-3.928-9.852 18.5-43.034 64.906-68.872 80.253-71.902 4.063-.802 8.008 1.84 8.811 5.905.802 4.064-1.841 8.009-5.905 8.811-11.128 2.197-53.15 25.361-69.378 63.11-1.223 2.84-3.989 4.54-6.895 4.54z"/><ellipse cx="482.669" cy="71.932" rx="29.331" ry="29.331" transform="matrix(.987 -.163 .163 .987 -5.267 79.785)"/></g><path d="m214.625 423.289c-7.47 0-14.493-4.584-17.244-11.998-11.665-31.44-4.938-77.715 14.114-97.088 7.121-7.242 18.764-7.341 26.007-.217 7.242 7.121 7.339 18.765.217 26.007-6.762 6.877-13.602 37.624-5.855 58.505 3.533 9.522-1.322 20.106-10.844 23.639-2.109.781-4.271 1.152-6.395 1.152z" fill="#efd176"/></svg>