<svg id="Capa_1" enable-background="new 0 0 512 512" height="512" viewBox="0 0 512 512" width="512" xmlns="http://www.w3.org/2000/svg"><g><path d="m189.327 361.151c18.072 38.755-32.184 100.438-81.538 123.453-38.755 18.072-81.87-.072-99.942-38.827-18.072-38.755-4.257-83.446 34.498-101.518 49.355-23.014 128.91-21.863 146.982 16.892z" fill="#bae7ff"/><path d="m189.327 361.151c-5.582-11.97-17.032-20.348-31.643-25.539-45.586 26.988-79.249 72.192-90.724 125.847-2.14 10.005-1.652 20.173 1.243 29.654 12.939 1.549 26.509-.411 39.585-6.509 49.355-23.015 99.611-84.698 81.539-123.453z" fill="#8cd6fe"/><path d="m59.953 417.838c-2.904 0-5.668-1.697-6.891-4.533-1.64-3.804.114-8.217 3.918-9.857 28.036-12.086 73.954-21.553 104.539-21.553 4.142 0 7.5 3.358 7.5 7.5s-3.358 7.5-7.5 7.5c-28.368 0-72.6 9.119-98.6 20.328-.968.418-1.975.615-2.966.615z" fill="#8cd6fe"/><path d="m322.673 361.151c-18.072 38.755 32.184 100.438 81.538 123.453 38.755 18.072 81.87-.072 99.942-38.827s4.257-83.446-34.498-101.518c-49.354-23.014-128.91-21.863-146.982 16.892z" fill="#bae7ff"/><path d="m322.673 361.151c5.582-11.97 17.032-20.348 31.643-25.539 45.586 26.988 79.249 72.192 90.724 125.847 2.14 10.005 1.652 20.173-1.243 29.654-12.939 1.549-26.509-.411-39.585-6.509-49.355-23.015-99.611-84.698-81.539-123.453z" fill="#8cd6fe"/><path d="m452.047 417.838c-.991 0-1.998-.198-2.966-.615-26-11.208-70.232-20.328-98.6-20.328-4.142 0-7.5-3.358-7.5-7.5s3.358-7.5 7.5-7.5c30.584 0 76.503 9.467 104.538 21.553 3.804 1.64 5.558 6.053 3.918 9.857-1.222 2.837-3.986 4.533-6.89 4.533z" fill="#8cd6fe"/><path d="m400.979 428.777c-30.148-15.97-76.028-28.91-144.979-28.91s-114.831 12.941-144.979 28.91c-6.198 12.239-10.892 25.368-13.839 39.145-3.754 17.556 9.554 34.13 27.507 34.13h262.621c17.953 0 31.261-16.574 27.507-34.13-2.946-13.778-7.641-26.907-13.838-39.145z" fill="#f5ea72"/><path d="m368.6 385.024-.003.004c-31.855 0-193.34-.006-225.195-.006v-.001c-13.096 12.604-24.088 27.379-32.381 43.755 29.744 12.866 76.028 20.704 144.979 20.704s115.235-7.838 144.979-20.703c-8.293-16.375-19.284-31.15-32.379-43.753z" fill="#6171a3"/><path d="m368.598 385.028c-29.195-28.099-68.87-45.386-112.592-45.386-43.723 0-83.408 17.28-112.604 45.38 31.799 15.195 70.079 23.115 112.604 23.115 42.519 0 80.795-7.918 112.592-23.109z" fill="#475a99"/><path d="m431.294 236.72c0 94.608-78.482 140.511-175.294 140.511s-175.294-45.903-175.294-140.511 78.482-167.364 175.294-167.364 175.294 72.756 175.294 167.364z" fill="#f5ea72"/><path d="m187.26 143.287c-2.54 0-5.017-1.29-6.426-3.622-25.053-41.454-83.177-78.009-101.417-83.812-3.947-1.256-6.129-5.474-4.873-9.421 1.255-3.947 5.471-6.13 9.421-4.873 20.402 6.491 82.336 45.059 109.707 90.347 2.143 3.545 1.005 8.156-2.54 10.298-1.213.734-2.551 1.083-3.872 1.083z" fill="#475a99"/><ellipse cx="76.978" cy="51.869" fill="#6171a3" rx="45.036" ry="41.92"/><path d="m324.74 143.287c-1.321 0-2.659-.349-3.872-1.082-3.545-2.143-4.682-6.753-2.54-10.298 27.371-45.288 89.305-83.856 109.707-90.347 3.947-1.255 8.165.926 9.421 4.873s-.926 8.165-4.873 9.421c-18.24 5.803-76.364 42.358-101.417 83.812-1.41 2.331-3.887 3.621-6.426 3.621z" fill="#475a99"/><ellipse cx="435.022" cy="51.869" fill="#6171a3" rx="45.036" ry="41.92"/><g><g fill="#eda1ab"><ellipse cx="175.258" cy="243.1" rx="29.792" ry="23.725"/><ellipse cx="336.742" cy="243.1" rx="29.792" ry="23.725"/></g><g fill="#4f5c6f"><path d="m206.801 224.783c-4.142 0-7.5-3.358-7.5-7.5 0-3.684-2.997-6.68-6.681-6.68s-6.68 2.997-6.68 6.68c0 4.142-3.358 7.5-7.5 7.5s-7.5-3.358-7.5-7.5c0-11.955 9.726-21.68 21.68-21.68s21.681 9.726 21.681 21.68c0 4.142-3.358 7.5-7.5 7.5z"/><path d="m333.56 224.783c-4.142 0-7.5-3.358-7.5-7.5 0-3.684-2.997-6.68-6.68-6.68-3.684 0-6.681 2.997-6.681 6.68 0 4.142-3.358 7.5-7.5 7.5s-7.5-3.358-7.5-7.5c0-11.955 9.726-21.68 21.681-21.68s21.68 9.726 21.68 21.68c0 4.142-3.358 7.5-7.5 7.5z"/><path d="m256 248.21c-7.932 0-15.476-3.435-20.696-9.425-2.722-3.123-2.396-7.86.726-10.582s7.86-2.397 10.581.726c2.371 2.72 5.793 4.28 9.388 4.28s7.017-1.56 9.388-4.28c2.722-3.123 7.459-3.448 10.581-.726 3.123 2.721 3.448 7.459.726 10.582-5.218 5.989-12.762 9.425-20.694 9.425z"/></g></g></g></svg>