<svg id="Capa_1" enable-background="new 0 0 497 497" height="512" viewBox="0 0 497 497" width="512" xmlns="http://www.w3.org/2000/svg"><g><g fill="#ffb357"><path d="m359.256 272.91c-2.929-2.928-7.678-2.928-10.606 0l-13.013 13.013 10.606 10.607 13.013-13.013c2.929-2.929 2.929-7.677 0-10.607z"/><path d="m276.599 272.91c-2.929 2.93-2.929 7.678 0 10.607l13.013 13.013 10.606-10.607-13.013-13.013c-2.929-2.928-7.678-2.928-10.606 0z"/><path d="m317.927 259.942c-4.142 0-7.5 3.357-7.5 7.5v18.398h15v-18.398c0-4.142-3.358-7.5-7.5-7.5z"/></g><g><path d="m385.895 331.506c-7.499-30.397-34.934-52.943-67.647-52.943l-53.59 35.512v182.925h53.59 178.752c0-74.779-45.925-138.823-111.105-165.494z" fill="#ffce71"/><path d="m318.248 278.562c-32.713 0-60.148 22.546-67.647 52.943-65.18 26.672-111.105 90.716-111.105 165.495h178.752c-60.32-60.32-60.32-158.117 0-218.438z" fill="#ffb357"/></g><g><path d="m119.496 260.895v225.376h60c23.905-13.834 40-39.664 40-69.271v-156.105z" fill="#ffce71"/><path d="m139.496 417v-156.105h-80v156.105c0 44.183 35.817 80 80 80 14.577 0 28.23-3.918 40-10.729-23.906-13.834-40-39.665-40-69.271z" fill="#ffb357"/></g><g><path d="m87.465 22.893c0-17.169-13.351-26.846-29.618-21.352-23.478 7.93-40.382 30.136-40.382 56.291 0 29.187 21.056 53.439 48.802 58.439h21.198z" fill="#ffb357"/><path d="m191.526 22.893c0-17.169 13.351-26.846 29.618-21.352 23.478 7.93 40.382 30.136 40.382 56.291 0 29.187-21.056 53.439-48.802 58.439h-21.198z" fill="#ffce71"/></g><g><path d="m191.496 51.927h-40l-87.496 129.471 87.496 129.473h40c51.285-20.617 87.496-70.812 87.496-129.473-.001-58.659-36.212-108.854-87.496-129.471z" fill="#ffce71"/><path d="m104 181.398c0-58.659 36.211-108.854 87.496-129.472-16.071-6.461-33.618-10.023-52-10.023-77.042 0-139.496 62.454-139.496 139.495 0 77.042 62.454 139.496 139.496 139.496 18.382 0 35.929-3.562 52-10.023-51.285-20.617-87.496-70.813-87.496-129.473z" fill="#ffb357"/></g><g><circle cx="139.496" cy="226.044" fill="#ffb357" r="42"/><g><path d="m196.85 181.399c0-21.225-11.539-39.744-28.677-49.662h-43.409v84.28l22.232 22.232c28.129-3.677 49.854-27.719 49.854-56.85z" fill="#fff1d4"/><path d="m167.779 131.737c-8.438-4.883-18.227-7.692-28.677-7.692-31.676 0-57.354 25.678-57.354 57.354 0 29.132 21.725 53.173 49.854 56.85l7.5-7.5v-49.35c0-21.226 11.539-39.744 28.677-49.662z" fill="#fce3a0"/></g><g><g><g><ellipse cx="49.468" cy="162.575" fill="#ff8e9e" rx="23.515" ry="29.529" transform="matrix(.002 -1 1 .002 -113.215 211.686)"/></g><g><ellipse cx="229.523" cy="162.925" fill="#ff8e9e" rx="23.515" ry="29.529" transform="matrix(.002 -1 1 .002 66.096 392.092)"/></g></g></g><g fill="#313d40"><path d="m66.96 125.56c-4.142 0-7.5 3.357-7.5 7.5v12c0 4.143 3.358 7.5 7.5 7.5s7.5-3.357 7.5-7.5v-12c0-4.142-3.358-7.5-7.5-7.5z"/><path d="m211.858 125.56c-4.142 0-7.5 3.357-7.5 7.5v12c0 4.143 3.358 7.5 7.5 7.5s7.5-3.357 7.5-7.5v-12c0-4.142-3.358-7.5-7.5-7.5z"/><path d="m159.496 153.899c-4.142 0-7.5 3.357-7.5 7.5 0 6.893-5.607 12.5-12.5 12.5s-12.5-5.607-12.5-12.5c0-4.143-3.358-7.5-7.5-7.5s-7.5 3.357-7.5 7.5c0 12.563 8.472 23.178 20 26.452v50.398c2.456.321 4.956.504 7.5.504s5.044-.183 7.5-.504v-50.398c11.528-3.273 20-13.889 20-26.452 0-4.143-3.358-7.5-7.5-7.5z"/></g></g></g></svg>