<svg id="Capa_1" enable-background="new 0 0 512 512" height="512" viewBox="0 0 512 512" width="512" xmlns="http://www.w3.org/2000/svg"><g><path d="m252.373 445.691c-84.107-1.846-151.718-70.613-151.718-155.159 0-33.106 10.361-63.787 28.014-88.975.009.009.009.028.019.037h50.77l72.915 84.46z" fill="#b1e4fa"/><path d="m353.322 411.308c35.213-28.452 57.725-71.984 57.725-120.775 0-31.977-9.671-61.698-26.251-86.392h-74.57l-57.853 81.914v112.744z" fill="#b1e4fa"/><path d="m353.322 411.307c35.213-28.452 57.725-71.984 57.725-120.775 0-.808-.014-1.607-.027-2.412-35.591 12.733-61.928 45.8-64.482 85.574-.808 12.586-2.925 24.663-6.255 35.998z" fill="#90dafa"/><path d="m384.796 204.14c-.504 12.618-4.915 25.123-13.252 35.605-7.181 9.027-18.036 14.184-29.394 14.184-1.557 0-3.115-.093-4.681-.289-19.043-2.378-38.198 3.516-52.606 16.189l-.103.084c-6.472 5.689-10.025 13.802-10.025 22.158 0 2.77.392 5.567 1.203 8.309 4.672 15.891 16.497 28.676 31.959 34.579l7.376 2.816c22.913 8.747 38.048 30.728 38.048 55.254v18.278c-26.643 21.523-60.551 34.421-97.471 34.421-1.166 0-2.322-.009-3.478-.037l-28.676-45.341c-8.244-13.037-8.29-29.655-.112-42.739l6.276-10.044c7.199-11.508 5.912-26.391-3.152-36.491l-9.382-10.473c-5.092-5.679-13.709-6.481-19.761-1.837l-11.937 9.148c-2.63 2.024-5.763 3.021-8.887 3.021-3.572 0-7.134-1.306-9.922-3.889-4.812-4.458-6.062-11.573-3.059-17.401l11.097-21.561c1.1-2.136 1.623-4.42 1.623-6.677 0-4.84-2.406-9.54-6.733-12.31-18.008-11.517-32.276-28.023-41.06-47.504-.009-.009-.009-.028-.019-.037 28.079-40.044 74.577-66.221 127.182-66.221 53.735.001 101.09 27.306 128.946 68.805z" fill="#abd880"/><g><g><g><ellipse cx="186.189" cy="212.607" fill="#f78595" rx="25.702" ry="20.468"/></g><g><ellipse cx="325.505" cy="212.607" fill="#f78595" rx="25.702" ry="20.468"/></g></g></g><path d="m331.582 155.035c-22.398-12.543-48.234-19.699-75.731-19.699-29.122 0-56.382 8.029-79.672 21.984 17.537 14.915 39.905 23.27 63.186 23.27 14.993 0 29.516-3.424 43.163-10.177 16.072-7.952 32.761-13.155 49.054-15.378z" fill="#80ca8e"/><g><path d="m213.402 198.06c-4.267 0-7.726-3.459-7.726-7.726 0-2.485-2.022-4.507-4.507-4.507s-4.508 2.022-4.508 4.507c0 4.267-3.459 7.726-7.726 7.726s-7.726-3.459-7.726-7.726c0-11.006 8.954-19.96 19.96-19.96s19.96 8.954 19.96 19.96c-.001 4.267-3.46 7.726-7.727 7.726z" fill="#303646"/></g><g><path d="m322.759 198.06c-4.267 0-7.726-3.459-7.726-7.726 0-2.485-2.022-4.507-4.507-4.507s-4.508 2.022-4.508 4.507c0 4.267-3.459 7.726-7.726 7.726s-7.726-3.459-7.726-7.726c0-11.006 8.954-19.96 19.96-19.96s19.96 8.954 19.96 19.96c0 4.267-3.46 7.726-7.727 7.726z" fill="#303646"/></g><g><path d="m255.847 218.271c-7.207 0-14.06-3.121-18.802-8.562-2.804-3.217-2.469-8.097.748-10.901 3.216-2.803 8.097-2.469 10.901.748 1.807 2.073 4.414 3.262 7.153 3.262 2.738 0 5.346-1.189 7.152-3.262 2.804-3.217 7.684-3.551 10.901-.748 3.217 2.804 3.552 7.684.748 10.901-4.741 5.441-11.594 8.562-18.801 8.562z" fill="#303646"/></g><path d="m378.472 98.039c-15.903-31.455-49.983-76.882-116.771-87.038-42.026-6.391-81.979 22.408-87.673 64.534-7.155 52.931 48.114 90.276 94.794 67.179 28.959-14.329 60.764-21.837 92.599-19.345 13.619 1.057 23.21-13.132 17.051-25.33z" fill="#abd880"/><path d="m279.259 58.798c-3.404-.537-79.318-11.684-157.689 44.943-8.88 6.416-10.504 18.987-3.435 27.358 6.31 7.471 17.326 8.866 25.246 3.129 25.824-18.706 54.179-30.888 84.506-36.28 26.816-4.768 45.282-2.153 45.601-2.107 10.197 1.567 19.749-5.403 21.361-15.603 1.614-10.225-5.381-19.816-15.59-21.44z" fill="#80ca8e"/><path d="m138.486 327.489c-14.986-9.985-27.759-21.77-37.816-34.766.799 57.359 32.727 107.221 79.645 133.417.462-2.572.831-5.186 1.094-7.831 3.584-35.992-12.863-70.793-42.923-90.82z" fill="#90dafa"/><path d="m121.35 353.208c-26.889-17.915-49.293-41.705-63.052-70.52-5.894-12.323-22.977-13.534-30.461-2.102-19.289 29.5-41.59 81.727-16.992 144.645 15.478 39.591 60.396 59.791 99.725 43.66 49.417-20.269 54.123-86.805 10.78-115.683z" fill="#abd880"/><path d="m176.723 466.087c-29.112-13.011-53.84-31.476-73.673-55.044-17.537-20.84-24.506-38.139-24.625-38.438-3.741-9.615-14.554-14.402-24.193-10.698-9.663 3.714-14.472 14.568-10.773 24.221 1.237 3.217 29.54 74.534 117.766 114.092 9.997 4.482 21.696-.397 25.41-10.704 3.316-9.201-.984-19.439-9.912-23.429z" fill="#80ca8e"/><path d="m335.314 423.866c6.301-3.764 12.326-7.969 18.007-12.559v-18.278c0-9.278-2.169-18.189-6.102-26.159-.303 2.251-.533 4.526-.681 6.824-1.155 17.989-4.987 34.953-11.224 50.172z" fill="#80ca8e"/><path d="m482.956 327.17c-42.262-32.662-102.238-3.47-105.575 48.505-2.071 32.244-11.472 63.542-29.546 89.865-7.725 11.266-.232 26.666 13.411 27.432 35.192 1.955 91.573-4.846 133.763-57.607 26.546-33.2 21.581-82.2-12.053-108.195z" fill="#abd880"/><path d="m484.758 267.636c-1.117-10.898-11.192-18.591-21.975-16.653-9.625 1.728-16.341 10.572-15.333 20.299 3.288 31.717-.339 62.365-10.834 91.324-9.279 25.608-20.776 40.293-20.975 40.545-6.456 8.047-5.195 19.805 2.832 26.3 8.048 6.511 19.852 5.249 26.363-2.781 2.166-2.678 49.777-62.848 39.922-159.034z" fill="#80ca8e"/></g></svg>