<svg height="493pt" viewBox="0 -10 493.84 493" width="493pt" xmlns="http://www.w3.org/2000/svg"><path d="m41.589844 427.703125h-34.589844c-3.867188 0-7-3.136719-7-7 0-3.867187 3.132812-7 7-7h34.589844c5.625-.007813 10.179687-4.566406 10.179687-10.191406.015625-13.351563 10.835938-24.171875 24.191407-24.191407h86c3.863281 0 7 3.136719 7 7 0 3.867188-3.136719 7-7 7h-86c-5.625.007813-10.183594 4.566407-10.191407 10.191407-.011719 13.351562-10.828125 24.171875-24.179687 24.191406zm0 0" fill="#248e8c"/><path d="m366.46875 201.640625h-34.597656c-3.867188 0-7-3.132813-7-7 0-3.863281 3.132812-7 7-7h34.597656c5.625-.003906 10.1875-4.5625 10.191406-10.1875.015625-13.347656 10.832032-24.164063 24.179688-24.179687h86c3.867187 0 7 3.132812 7 7 0 3.863281-3.132813 7-7 7h-86c-5.617188.007812-10.167969 4.5625-10.179688 10.179687-.015625 13.351563-10.835937 24.171875-24.191406 24.1875zm0 0" fill="#248e8c"/><path d="m447.96875 235.191406c-.191406 110.199219-89.410156 199.515625-199.609375 199.832032h-1.308594c-96.492187-.320313-179.058593-69.34375-196.476562-164.25-17.417969-94.902344 35.257812-188.75 125.347656-223.3125 1.328125-.519532 2.679687-1 4-1.5 18.753906-6.714844 38.414063-10.585938 58.316406-11.480469 3.273438-.160157 6.550781-.226563 9.863281-.21875 2.339844 0 4.679688.050781 7 .148437 22.675782.824219 45.046876 5.503906 66.148438 13.84375 4.472656 1.765625 8.855469 3.683594 13.148438 5.757813 24.113281 11.617187 45.65625 27.9375 63.371093 48 3.171875 3.582031 6.210938 7.273437 9.109375 11.082031 2 2.664062 3.957032 5.363281 5.871094 8.089844 23.097656 33.519531 35.386719 73.300781 35.21875 114.007812zm0 0" fill="#44d8ca"/><path d="m447.96875 235.191406c-.039062 41.042969-12.742188 81.070313-36.378906 114.621094-4.828125.558594-9.695313.695312-14.550782.410156-8.792968-.515625-17.441406-2.460937-25.609374-5.761718-30.488282-12.203126-50.777344-41.390626-51.597657-74.21875-.816406-32.832032 17.996094-62.992188 47.839844-76.699219 7.132813-3.375 11.640625-10.601563 11.527344-18.492188v-.140625c-.027344-22.863281 13.023437-43.730468 33.589843-53.71875 23.082032 33.523438 35.359376 73.300782 35.179688 114zm0 0" fill="#bbe925"/><path d="m124.03125 250.550781c-7.792969 9.929688-11.261719 22.574219-9.632812 35.089844 1.574218 11.945313-2.035157 23.992187-9.917969 33.105469-7.882813 9.113281-19.285157 14.421875-31.332031 14.585937-29.347657-51.996093-34.046876-114.355469-12.820313-170.160156 5.363281-1.976563 10.996094-3.117187 16.703125-3.378906 21.949219-1.042969 42.496094 10.792969 52.601562 30.308593 10.105469 19.511719 7.917969 43.125-5.601562 60.449219zm0 0" fill="#bbe925"/><path d="m255.210938 36.921875c-.019532 20.21875-14.992188 37.300781-35.035157 39.964844-20.039062 2.664062-38.957031-9.914063-44.253906-29.425781 1.328125-.519532 2.679687-1 4-1.5 18.753906-6.714844 38.414063-10.585938 58.316406-11.480469 3.273438-.160157 6.550781-.226563 9.863281-.21875 2.339844 0 4.679688.050781 7 .148437.078126.832032.109376 1.671875.109376 2.511719zm0 0" fill="#2fa0b7"/><path d="m326.980469 418.691406c-.761719.332032-1.511719.652344-2.269531 1l-2.28125.941406c-2.289063.917969-4.609376 1.808594-6.941407 2.640626-.769531.277343-1.546875.558593-2.339843.828124l-2.347657.800782-.289062.101562c-2.996094.976563-6.015625 1.894532-9.0625 2.75-1.660157.457032-3.324219.898438-5 1.316406-1.628907.410157-3.25.792969-4.890625 1.160157-.820313.191406-1.636719.371093-2.457032.53125-1.640624.339843-3.292968.671875-4.953124 1l-2.5.441406c-3.332032.570313-6.6875 1.058594-10.070313 1.457031l-2.539063.292969c-1.699218.179687-3.398437.339844-5.117187.480469l-2.570313.1875-2.582031.160156c-3.441406.191406-6.910156.300781-10.398437.300781-.148438-1.40625-.222656-2.816406-.222656-4.230469 0-.230468 0-.460937 0-.691406.351562-19.777344 14.988281-36.386718 34.566406-39.21875 19.578125-2.835937 38.324218 8.941406 44.265625 27.8125zm0 0" fill="#2fa0b7"/><path d="m411.589844 349.8125c-21.316406 30.3125-50.59375 54.152344-84.601563 68.878906-2.152343-6.820312-6.085937-12.945312-11.398437-17.738281 20.363281-13.722656 38.042968-31.054687 52.171875-51.140625 1.238281-1.761719 2.449219-3.550781 3.628906-5.351562 8.167969 3.300781 16.816406 5.246093 25.609375 5.761718 4.867188.289063 9.746094.152344 14.589844-.410156zm0 0" fill="#439e9c"/><path d="m248.359375 435.023438h-1.308594c-7.140625-.019532-14.273437-.414063-21.371093-1.191407 7.554687-.820312 15.058593-2.066406 22.46875-3.738281v.6875c-.003907 1.417969.066406 2.832031.210937 4.242188zm0 0" fill="#439e9c"/><path d="m326.980469 418.691406c-.761719.332032-1.511719.652344-2.269531 1l-2.28125.941406c-2.289063.917969-4.609376 1.808594-6.941407 2.640626-.769531.277343-1.546875.558593-2.339843.828124l-2.347657.800782-.289062.101562c-2.996094.976563-6.015625 1.894532-9.0625 2.75-1.660157.457032-3.324219.898438-5 1.316406-1.628907.410157-3.25.792969-4.890625 1.160157-.820313.191406-1.636719.371093-2.457032.53125-1.640624.339843-3.292968.671875-4.953124 1l-2.5.441406c-3.328126.578125-6.6875 1.058594-10.070313 1.457031l-2.539063.292969c-1.699218.179687-3.398437.339844-5.117187.480469l-2.570313.1875-2.582031.160156c-3.441406.191406-6.910156.300781-10.398437.300781-.148438-1.40625-.222656-2.816406-.222656-4.230469 0-.230468 0-.460937 0-.691406 24.097656-5.46875 46.96875-15.371094 67.441406-29.207031 5.308594 4.792969 9.238281 10.917969 11.390625 17.738281zm0 0" fill="#006a7a"/><path d="m412.78125 121.191406c-12.117188 5.917969-21.886719 15.742188-27.742188 27.890625-4.582031-9.71875-9.949218-19.042969-16.050781-27.890625-32.996093-48.074218-85.304687-79.382812-143.269531-85.738281 4.15625-.460937 8.339844-.792969 12.550781-1 3.269531-.160156 6.550781-.230469 9.859375-.222656 65.847656.140625 127.414063 32.65625 164.652344 86.960937zm0 0" fill="#439e9c"/><path d="m447.96875 235.191406c-.039062 41.042969-12.742188 81.070313-36.378906 114.621094-4.828125.558594-9.695313.695312-14.550782.410156-8.792968-.515625-17.441406-2.460937-25.609374-5.761718 38.183593-58.332032 43.34375-132.3125 13.621093-195.378907 5.851563-12.148437 15.625-21.972656 27.738281-27.890625 23.082032 33.523438 35.359376 73.300782 35.179688 114zm0 0" fill="#6fd037"/><g fill="#673d22"><path d="m327.488281 265.371094c-3.863281 0-7-3.132813-7-7-.195312-7.078125-5.992187-12.71875-13.074219-12.71875-7.082031 0-12.878906 5.640625-13.074218 12.71875 0 3.867187-3.132813 7-7 7-3.867188 0-7-3.132813-7-7 .285156-14.75 12.320312-26.558594 27.074218-26.558594 14.753907 0 26.792969 11.808594 27.074219 26.558594 0 3.867187-3.132812 7-7 7zm0 0"/><path d="m244.171875 341.292969c-23.246094-.027344-42.085937-18.867188-42.113281-42.109375 0-3.867188 3.136718-7 7-7 3.867187 0 7 3.132812 7 7 0 15.523437 12.585937 28.109375 28.113281 28.109375 15.523437 0 28.109375-12.585938 28.109375-28.109375 0-3.867188 3.132812-7 7-7 3.863281 0 7 3.132812 7 7-.027344 23.242187-18.867188 42.082031-42.109375 42.109375zm0 0"/><path d="m201.21875 265.371094c-3.863281 0-7-3.132813-7-7-.195312-7.078125-5.992188-12.71875-13.074219-12.71875s-12.878906 5.640625-13.074219 12.71875c0 3.867187-3.132812 7-7 7-3.867187 0-7-3.132813-7-7 .28125-14.75 12.320313-26.558594 27.074219-26.558594 14.753907 0 26.792969 11.808594 27.074219 26.558594 0 3.867187-3.132812 7-7 7zm0 0"/><path d="m363 118.851562v32c0 3.867188-3.132812 7-7 7s-7-3.132812-7-7v-32c0-3.867187 3.132812-7 7-7s7 3.132813 7 7zm0 0"/></g><path d="m392.210938 74.511719c-19.0625.351562-28.621094 7.800781-33.25 16.492187-.578126 1.09375-1.714844 1.78125-2.957032 1.78125-1.238281 0-2.375-.6875-2.953125-1.78125-4.640625-8.691406-14.199219-16.140625-33.261719-16.492187-2.109374-.066407-4.15625.734375-5.667968 2.210937-1.507813 1.476563-2.351563 3.507813-2.332032 5.621094.640626 39.5 31.679688 38.347656 41.429688 37 1.832031-.25 3.691406-.25 5.519531 0 9.761719 1.339844 40.792969 2.488281 41.441407-37 .015624-2.109375-.820313-4.132812-2.324219-5.605469-1.503907-1.476562-3.539063-2.28125-5.644531-2.226562zm0 0" fill="#b3e60a"/><path d="m358.769531 119.351562c-.917969-.121093-1.84375-.179687-2.769531-.179687-.921875 0-1.84375.058594-2.761719.179687-1.148437.160157-2.589843.308594-4.238281.390626v14c2.066406-.082032 4.113281-.261719 6.140625-.539063.285156-.03125.570313-.050781.859375-.050781s.574219.019531.859375.050781c2 .277344 4.082031.457031 6.140625.539063v-14c-1.648438-.101563-3.078125-.230469-4.230469-.390626zm0 0" fill="#461a08"/><path d="m456.589844 440.84375c-12.667969-5.242188-16.289063-8.871094-21.539063-21.53125-.699219-1.679688-2.339843-2.773438-4.15625-2.773438-1.816406 0-3.457031 1.09375-4.15625 2.773438-5.25 12.660156-8.867187 16.289062-21.527343 21.53125-1.6875.691406-2.785157 2.335938-2.785157 4.160156 0 1.820313 1.097657 3.464844 2.785157 4.15625 12.519531 5.183594 16.339843 9 21.527343 21.53125.699219 1.679688 2.339844 2.773438 4.15625 2.773438 1.816407 0 3.457031-1.09375 4.15625-2.773438 5.1875-12.519531 9-16.347656 21.539063-21.53125 1.675781-.699218 2.769531-2.339844 2.769531-4.15625 0-1.820312-1.09375-3.460937-2.769531-4.160156zm0 0" fill="#29b737"/><path d="m72.890625 24.722656c-12.660156-5.25-16.300781-8.871094-21.53125-21.53125-.699219-1.679687-2.335937-2.769531-4.15625-2.769531-1.816406 0-3.457031 1.089844-4.152344 2.769531-5.25 12.660156-8.871093 16.28125-21.53125 21.53125-1.679687.699219-2.773437 2.335938-2.773437 4.15625 0 1.816406 1.09375 3.457032 2.773437 4.152344 12.519531 5.191406 16.339844 9 21.53125 21.53125.695313 1.679688 2.335938 2.773438 4.152344 2.773438 1.820313 0 3.457031-1.09375 4.15625-2.773438 5.230469-12.519531 9.011719-16.339844 21.53125-21.53125 1.679687-.695312 2.769531-2.335938 2.769531-4.152344 0-1.820312-1.089844-3.457031-2.769531-4.15625zm0 0" fill="#29b737"/><path d="m253.078125 54.410156v32c0 3.867188-3.132813 7-7 7-3.863281 0-7-3.132812-7-7v-32c0-3.863281 3.136719-7 7-7 3.867187 0 7 3.136719 7 7zm0 0" fill="#673d22"/><path d="m282.289062 10.070312c-19.058593.351563-28.617187 7.800782-33.257812 16.492188-.574219 1.101562-1.714844 1.792969-2.957031 1.792969-1.242188 0-2.382813-.691407-2.953125-1.792969-4.632813-8.691406-14.191406-16.140625-33.25-16.492188-2.113282-.0625-4.160156.738282-5.667969 2.21875-1.511719 1.480469-2.351563 3.507813-2.332031 5.621094.648437 39.492188 31.679687 38.351563 41.4375 37 1.832031-.257812 3.691406-.257812 5.519531 0 9.75 1.34375 40.792969 2.480469 41.433594-37 .019531-2.105468-.816407-4.132812-2.320313-5.613281s-3.542968-2.28125-5.652344-2.226563zm0 0" fill="#b3e60a"/><path d="m248.851562 54.910156c-.921874-.117187-1.84375-.179687-2.773437-.179687-.921875 0-1.84375.0625-2.757813.179687-1.148437.160156-2.589843.3125-4.242187.390625v14c2.070313-.078125 4.113281-.257812 6.140625-.539062.289062-.015625.574219-.015625.859375 0 .289063-.015625.574219-.015625.863281 0 2 .28125 4.078125.460937 6.136719.539062v-14c-1.648437-.078125-3.078125-.230469-4.226563-.390625zm0 0" fill="#461a08"/><path d="m132.441406 120.03125v32c0 3.867188-3.136718 7-7 7-3.867187 0-7-3.132812-7-7v-32c0-3.867188 3.132813-7 7-7 3.863282 0 7 3.132812 7 7zm0 0" fill="#673d22"/><path d="m161.648438 75.691406c-19.058594.351563-28.617188 7.800782-33.25 16.492188-.578126 1.09375-1.714844 1.78125-2.953126 1.78125-1.238281 0-2.378906-.6875-2.957031-1.78125-4.636719-8.691406-14.199219-16.140625-33.257812-16.492188-2.113281-.066406-4.164063.734375-5.671875 2.214844-1.511719 1.480469-2.351563 3.511719-2.328125 5.625.640625 39.492188 31.667969 38.351562 41.429687 37 1.832032-.257812 3.6875-.257812 5.519532 0 9.761718 1.339844 40.789062 2.480469 41.441406-37 .019531-2.105469-.820313-4.132812-2.320313-5.609375-1.503906-1.480469-3.542969-2.285156-5.652343-2.230469zm0 0" fill="#b3e60a"/><path d="m128.210938 120.53125c-.917969-.117188-1.84375-.179688-2.769532-.179688-.925781 0-1.847656.058594-2.761718.179688-1.148438.160156-2.589844.3125-4.238282.390625v14c2.066406-.078125 4.113282-.261719 6.136719-.539063.289063-.015624.574219-.015624.863281 0 .285156-.015624.570313-.015624.859375 0 2 .277344 4.078125.460938 6.140625.539063v-14c-1.652344-.078125-3.082031-.230469-4.230468-.390625zm0 0" fill="#461a08"/></svg>