<svg id="Capa_1" enable-background="new 0 0 512 512" height="512" viewBox="0 0 512 512" width="512" xmlns="http://www.w3.org/2000/svg"><g><g><path d="m36.961 216.623c2.778-1.182 4.695-3.774 4.968-6.781 3.275-36.017 33.764-64.483 70.597-64.483 29.856 0 55.539 18.707 65.947 44.974 1.383 3.491 4.947 5.682 8.664 5.146 2.196-.316 4.44-.481 6.721-.481 24.739 0 45.236 19.086 47.495 43.26.327 3.494 2.439 6.543 5.561 8.147 14.774 7.588 24.943 22.993 24.943 40.663 0 25.124-20.556 45.68-45.68 45.68h-101.072-64.638c-33.253 0-60.46-27.207-60.46-60.46 0-24.928 15.292-46.448 36.954-55.665z" fill="#b8e9fa"/></g><g><path d="m227.547 331.631h-64.638c-33.253 0-60.46-27.207-60.46-60.46 0-24.927 15.291-46.447 36.954-55.664 2.778-1.182 4.695-3.774 4.968-6.781 1.464-16.097 8.374-30.675 18.846-41.888-12.894-13.229-30.87-21.48-50.691-21.48-36.833 0-67.322 28.466-70.597 64.483-.273 3.007-2.19 5.599-4.968 6.781-21.662 9.218-36.954 30.738-36.954 55.664 0 33.253 27.207 60.46 60.46 60.46h64.638 101.073c3.421 0 6.752-.393 9.963-1.115z" fill="#8adaf9"/></g><g><path d="m477.146 108.402c-2.62-1.115-4.427-3.559-4.685-6.394-3.088-33.963-31.838-60.806-66.571-60.806-28.153 0-52.372 17.64-62.186 42.409-1.305 3.292-4.665 5.358-8.17 4.853-2.071-.298-4.187-.454-6.337-.454-23.328 0-42.656 17.997-44.786 40.793-.308 3.295-2.3 6.17-5.244 7.682-13.931 7.155-23.521 21.682-23.521 38.344 0 23.691 19.384 43.075 43.075 43.075h95.309 60.952c31.356 0 57.012-25.655 57.012-57.012-.001-23.506-14.421-43.799-34.848-52.49z" fill="#e6f8fc"/></g><g><path d="m364.459 174.828c0-16.662 9.59-31.189 23.521-38.344 2.944-1.512 4.936-4.387 5.244-7.682 2.13-22.796 21.458-40.793 44.786-40.793 2.151 0 4.266.156 6.338.454 3.505.505 6.865-1.561 8.17-4.853 2.014-5.082 4.642-9.857 7.779-14.248-12.148-17.01-32.029-28.161-54.406-28.161-28.153 0-52.372 17.64-62.186 42.409-1.305 3.292-4.664 5.357-8.17 4.853-2.071-.298-4.187-.454-6.337-.454-23.328 0-42.656 17.997-44.786 40.793-.308 3.295-2.3 6.17-5.244 7.682-13.931 7.155-23.521 21.682-23.521 38.344 0 23.691 19.384 43.074 43.075 43.074h95.309 13.505c-23.693.001-43.077-19.383-43.077-43.074z" fill="#b8e9fa"/></g><g><path d="m225.59 352.301v-321.868c0-16.738 13.695-30.433 30.433-30.433 16.738 0 30.433 13.695 30.433 30.433v321.868c0 16.738-13.695 30.433-30.433 30.433-16.738 0-30.433-13.695-30.433-30.433z" fill="#60b550"/></g><g><path d="m256.023 248.301c-16.737 0-30.432-13.693-30.433-30.43v134.43c0 16.738 13.695 30.433 30.433 30.433 16.738 0 30.433-13.695 30.433-30.433v-134.433c0 16.738-13.694 30.433-30.433 30.433z" fill="#389f4d"/></g><g><path d="m414.496 178.267c-.927-6.746-6.229-12.048-12.975-12.975-39.467-5.424-83.384 10.844-106.7 34.159-24.38 24.38-29.33 58.844-13.037 91.742 1.46 2.948 3.862 5.35 6.811 6.811 32.898 16.294 67.362 11.344 91.742-13.037 23.315-23.316 39.583-67.233 34.159-106.7z" fill="#a3ea6e"/></g><g><path d="m411.13 170.637c-5.87 22.801-17.115 43.573-30.793 57.251-24.38 24.38-58.844 29.33-91.742 13.037-2.948-1.46-5.35-3.862-6.81-6.81-1.531-3.091-2.874-6.195-4.031-9.304-8.334 20.335-7.189 43.729 4.031 66.382 1.46 2.948 3.862 5.35 6.81 6.81 32.898 16.294 67.362 11.344 91.742-13.037 23.315-23.315 39.583-67.233 34.159-106.7-.397-2.884-1.598-5.502-3.366-7.629z" fill="#85d249"/></g><g><path d="m110.526 93.048c-6.746.927-12.048 6.229-12.975 12.975-5.424 39.467 10.844 83.384 34.159 106.7 24.38 24.38 58.844 29.33 91.742 13.037 2.948-1.46 5.35-3.862 6.811-6.811 16.294-32.898 11.344-67.362-13.037-91.742-23.315-23.316-67.233-39.584-106.7-34.159z" fill="#a3ea6e"/></g><g><path d="m230.263 161.87c-1.46 2.948-3.862 5.35-6.81 6.811-32.898 16.294-67.362 11.344-91.742-13.037-13.678-13.678-24.923-34.45-30.793-57.251-1.768 2.128-2.969 4.745-3.366 7.63-5.424 39.467 10.844 83.384 34.159 106.7 24.38 24.38 58.844 29.33 91.742 13.037 2.948-1.46 5.35-3.862 6.81-6.81 11.22-22.653 12.365-46.048 4.031-66.382-1.158 3.107-2.501 6.211-4.031 9.302z" fill="#85d249"/></g><g><path d="m414.496 14.023c-.927-6.746-6.229-12.048-12.975-12.975-39.467-5.424-83.384 10.844-106.7 34.159-24.38 24.38-29.33 58.844-13.037 91.742 1.46 2.948 3.862 5.35 6.811 6.811 32.898 16.294 67.362 11.344 91.742-13.037 23.315-23.315 39.583-67.233 34.159-106.7z" fill="#a3ea6e"/></g><g><path d="m411.13 6.393c-5.87 22.801-17.115 43.573-30.793 57.251-24.38 24.38-58.844 29.33-91.742 13.037-2.948-1.46-5.35-3.862-6.81-6.811-1.531-3.091-2.874-6.195-4.031-9.304-8.334 20.335-7.189 43.729 4.031 66.382 1.46 2.948 3.862 5.35 6.81 6.811 32.898 16.294 67.362 11.344 91.742-13.037 23.315-23.315 39.583-67.233 34.159-106.7-.397-2.884-1.598-5.501-3.366-7.629z" fill="#85d249"/></g><g><path d="m471.691 468.446c-8.812-43.876-30.682-83.029-61.379-113.238l-.002.012-316.75 8.483c-26.399 28.905-45.196 64.871-53.204 104.743-4.528 22.543 12.858 43.554 35.851 43.554h199.316l72.187-15.246 65.994 15.246h22.136c22.992 0 40.379-21.011 35.851-43.554z" fill="#8adaf9"/></g><g><path d="m152.302 468.446c8.295-41.299 28.158-78.41 56.062-107.818l-114.804 3.075c-26.399 28.905-45.196 64.871-53.204 104.743-4.528 22.543 12.858 43.554 35.851 43.554h111.946c-22.992 0-40.378-21.011-35.851-43.554z" fill="#5ccbf7"/></g><g><path d="m123.206 389.278h6.061c11.884 0 22.647 7.02 27.436 17.897l5.181 11.765c5.702 12.948 15.662 23.557 28.225 30.064l69.204 35.843c9.947 5.152 16.191 15.419 16.191 26.62 0 .179.016.355.019.534h138.181c1.979-4.038 3.065-8.532 3.065-13.186v-41.133c0-12.17-3.887-24.022-11.095-33.828l-12.269-16.692c-9.019-12.27-7.406-29.352 3.75-39.717l13.157-12.224c-39.706-39.078-94.176-63.199-154.288-63.199-64.352 0-122.245 27.636-162.471 71.682 2.13 14.468 14.593 25.574 29.653 25.574z" fill="#60b550"/></g><g><path d="m161.883 418.939c1.059 2.405 2.266 4.729 3.609 6.961 26.379-61.954 80.354-109.324 146.496-126.679-17.87-4.69-36.622-7.2-55.964-7.2-64.352 0-122.245 27.636-162.471 71.682 2.131 14.468 14.594 25.574 29.654 25.574h6.061c11.884 0 22.647 7.02 27.436 17.897z" fill="#389f4d"/></g><g><g fill="#389f4d"><path d="m359.156 210.024-29.383 29.383v-21.048c0-4.143-3.357-7.5-7.5-7.5s-7.5 3.357-7.5 7.5v36.048l-33.199 33.199c-2.929 2.93-2.929 7.678 0 10.607 1.465 1.464 3.385 2.196 5.304 2.196s3.839-.732 5.304-2.196l33.198-33.198h36.049c4.143 0 7.5-3.357 7.5-7.5s-3.357-7.5-7.5-7.5h-21.049l29.384-29.384c2.929-2.93 2.929-7.678 0-10.607-2.931-2.927-7.679-2.927-10.608 0z"/><path d="m197.275 182.164v-36.049c0-4.143-3.358-7.5-7.5-7.5s-7.5 3.357-7.5 7.5v21.049l-29.384-29.384c-2.929-2.928-7.678-2.928-10.606 0-2.929 2.93-2.929 7.678 0 10.607l29.384 29.384h-21.05c-4.142 0-7.5 3.357-7.5 7.5s3.358 7.5 7.5 7.5h36.05l35.444 35.444c1.464 1.464 3.384 2.196 5.303 2.196s3.839-.732 5.303-2.196c2.929-2.93 2.929-7.678 0-10.607z"/><path d="m289.935 136.216 35.444-35.444h36.049c4.143 0 7.5-3.357 7.5-7.5s-3.357-7.5-7.5-7.5h-21.049l29.384-29.384c2.929-2.93 2.929-7.678 0-10.607-2.93-2.928-7.678-2.928-10.607 0l-29.383 29.383v-21.049c0-4.143-3.357-7.5-7.5-7.5s-7.5 3.357-7.5 7.5v36.048l-35.445 35.445c-2.929 2.93-2.929 7.678 0 10.607 1.465 1.464 3.385 2.196 5.304 2.196s3.838-.731 5.303-2.195z"/></g><g><g><path d="m189.082 378.705c-4.142 0-7.5-3.357-7.5-7.5v-12.863c0-4.143 3.358-7.5 7.5-7.5s7.5 3.357 7.5 7.5v12.863c0 4.143-3.358 7.5-7.5 7.5z" fill="#495560"/></g><g><path d="m322.965 378.705c-4.143 0-7.5-3.357-7.5-7.5v-12.863c0-4.143 3.357-7.5 7.5-7.5s7.5 3.357 7.5 7.5v12.863c0 4.143-3.357 7.5-7.5 7.5z" fill="#495560"/></g><g><path d="m256.023 386.362c-8.932 0-17.425-3.868-23.303-10.612-2.721-3.123-2.396-7.86.727-10.582 3.123-2.721 7.861-2.396 10.582.727 3.028 3.475 7.4 5.468 11.994 5.468s8.966-1.993 11.995-5.468c2.72-3.123 7.457-3.448 10.582-.727 3.122 2.722 3.448 7.459.727 10.582-5.878 6.744-14.372 10.612-23.304 10.612z" fill="#495560"/></g></g></g></g></svg>