<svg id="Capa_1" enable-background="new 0 0 512 512" viewBox="0 0 512 512" xmlns="http://www.w3.org/2000/svg"><g><path d="m87.33 301.517-78.573 128.759 152.57 43.233 152.571-43.233-93.422-153.092z" fill="#e7896e"/><path d="m153.178 298.334c4.084-2.364 8.807-3.387 13.503-2.924l69.069 6.805-19.676-32.244c-25.001-40.97-84.493-40.97-109.494 0l-19.25 31.546 26.137 10.091c6.367 2.458 13.505 1.899 19.411-1.521z" fill="#f3f5fc"/><path d="m275.469 494.914 227.774-64.638-127.004-208.124-85.218-28.067-35.021 12.056-74.223 94.741z" fill="#e7896e"/><path d="m256 280.967v-74.826l-45.08 15.519-127.304 208.616 191.853 64.638 77.434-21.974c-58.781-43.459-96.903-113.26-96.903-191.973z" fill="#dd6642"/><path d="m256 232.219 28.854-6.506c4.836-1.09 9.907-.009 13.878 2.959l21.331 15.947c5.613 4.196 13.23 4.506 19.165.778l37.012-23.246-20.92-34.282c-20.835-34.143-62.861-43.116-94.835-26.918l-28.479 36.792z" fill="#f3f5fc"/><path d="m126.645 103.238h72.712c8.597 0 15.602-6.874 15.8-15.469.012-.532.013-1.066.003-1.603-.366-18.511-14.167-33.727-32.053-36.3-3.066-.441-5.374-3.012-5.378-6.11v-.105c0-23.897-19.373-43.27-43.27-43.27-13.351 0-25.289 6.046-33.226 15.55-.855 1.024-2.321 1.295-3.492.657-5.312-2.894-11.398-4.544-17.873-4.544-4.419 0-8.659.779-12.595 2.206l-9.004 9.959-2.839 45.446 34.067 31.228z" fill="#f3f5fc"/><path d="m394.616 17.887c9.822-10.758 23.961-17.507 39.676-17.507 29.664 0 53.711 24.047 53.711 53.711 0 14.293-5.583 27.283-14.688 36.906l-20.257 9.583-46.564-8.544-21.787-49.982z" fill="#f9ee80"/><path d="m220.183 511.619h278.843c7.165 0 12.974-5.808 12.974-12.974v-59.285c0-5.341-2.815-10.314-7.442-12.982-63.234-36.474-157.525-28.15-221.245-8.111-29.909 9.97-60.996 15.611-92.324 16.829l-29.661 9.674 7.863 59.917z" fill="#00ce8e"/><path d="m241.965 342.948c-.041 13.236-13.549 23.923-30.169 23.871s-30.06-10.824-30.019-24.059c.041-13.236 13.548-23.923 30.169-23.871 16.62.052 30.06 10.824 30.019 24.059z" fill="#fff"/><path d="m344.895 343.271c-.041 13.236 13.398 24.007 30.018 24.059s30.127-10.635 30.169-23.871c.041-13.236-13.398-24.007-30.019-24.06-16.62-.051-30.127 10.636-30.168 23.872z" fill="#fff"/><path d="m317.75 324.772c.047-14.995-10.811-16.438-24.211-16.48s-24.267 1.333-24.314 16.328c-.047 14.994 10.778 27.184 24.178 27.226 13.399.042 24.3-12.079 24.347-27.074z" fill="#404656"/><path d="m256 179.291c0-6.616 1.626-12.848 4.487-18.334-11.398 5.774-21.52 14.742-28.948 26.913l-20.62 33.79 26.289 11.438c3.303 1.437 6.977 1.785 10.491.992l8.3-1.871v-52.928z" fill="#e8ecf9"/><path d="m182.884 462.614c0-10.146 2.984-19.59 8.105-27.524-17.452.679-34.978-.006-52.418-2.089l-125.597-14.998c-7.166 0-12.974 5.808-12.974 12.973v67.67c0 7.165 5.808 12.974 12.974 12.974h207.21c-21.503-5.931-37.3-25.618-37.3-49.006z" fill="#00c172"/><path d="m66.569 24.787c0-3.573.255-7.085.703-10.536-13.942 5.055-24.065 18.24-24.795 33.728-.049 1.031-.8 1.882-1.817 2.057-17.88 3.076-31.193 19.607-30.97 37.662.001.056.002.111.002.167.146 8.559 7.237 15.373 15.797 15.373h101.156c-34.603-9.321-60.076-40.904-60.076-78.451z" fill="#e8ecf9"/><path d="m459.929 92.349c-36.387 0-65.884-29.497-65.884-65.884 0-2.908.208-5.766.574-8.575-8.718 9.549-14.037 22.254-14.037 36.203 0 29.664 24.047 53.711 53.711 53.711 15.37 0 29.222-6.467 39.013-16.815-4.321.89-8.794 1.36-13.377 1.36z" fill="#f9d171"/><g fill="#404656"><path d="m243.815 324.602c-.009 0-.017 0-.025 0-4.267-.014-7.715-3.484-7.702-7.751.006-1.762-.676-3.421-1.918-4.671s-2.897-1.941-4.659-1.947c-.007 0-.014 0-.021 0-3.629 0-6.587 2.946-6.598 6.577-.013 4.259-3.47 7.702-7.726 7.702-.008 0-.016 0-.025 0-4.267-.014-7.715-3.483-7.702-7.751.038-12.135 9.923-21.981 22.049-21.981h.07c5.89.019 11.42 2.329 15.572 6.507 4.151 4.178 6.428 9.723 6.409 15.613-.011 4.259-3.468 7.702-7.724 7.702z"/><path d="m371.856 325.003c-.008 0-.016 0-.025 0-4.267-.014-7.715-3.483-7.702-7.751.012-3.638-2.939-6.607-6.577-6.618-.007 0-.014 0-.021 0-3.628 0-6.586 2.946-6.597 6.577-.014 4.259-3.47 7.702-7.726 7.702-.009 0-.017 0-.025 0-4.267-.014-7.715-3.484-7.702-7.751.039-12.134 9.924-21.981 22.049-21.981h.07c12.158.039 22.019 9.961 21.981 22.119-.013 4.259-3.47 7.703-7.725 7.703z"/></g></g><g/><g/><g/><g/><g/><g/><g/><g/><g/><g/><g/><g/><g/><g/><g/></svg>