<svg id="Capa_1" enable-background="new 0 0 497 497" height="512" viewBox="0 0 497 497" width="512" xmlns="http://www.w3.org/2000/svg"><g><g fill="#b9f0ff"><path d="m43.664 87.066c.002-40.77 27.953-74.849 65.596-84.397 6.868-1.742 14.058-2.669 21.461-2.669 37.907 0 70.149 24.227 82.104 58.039v.004c31.155.413 57.175 25.864 57.175 58.048 0 32.058-25.988 58.045-58.046 58.045h-123.513-44.906c-24.044.001-43.535-19.49-43.535-43.533 0-24.359 19.908-43.664 43.664-43.537z"/><path d="m461.797 62.717c-5.949-29.511-40.972-42.751-64.976-24.089-24.122-18.603-59.118-5.242-64.889 24.414-8.744 1.23-16.81 5.257-23.138 11.639-24.747 24.971-8.364 68.975 28.833 68.941l118.769-.106c23.713-.021 40.604-18.765 40.604-40.28v-.544c-.187-20.462-15.487-37.32-35.203-39.975z"/></g><g><path d="m63.815 263.511c-12.668-23.441-37.169-38.049-63.814-38.049l-.001 241.538c0 16.569 13.431 30 30 30h160z" fill="#00b27a"/><path d="m497 467-.001-161.392c0-46.252-49.515-78.85-93.59-54.247-16.55 9.238-37.456 3.153-46.467-13.521l-24.978-46.218c-5.993-11.09-14.019-20.658-23.463-28.368-16.663-13.603-37.755-21.397-59.999-21.397h-.002-.002c-34.849 0-66.893 19.106-83.461 49.765l-158.75 293.757c5.488 7.075 14.066 11.621 23.713 11.621h143.11 31.03 262.86c12.275 0 23.573-7.767 27.995-19.206 1.328-3.436 2.005-7.111 2.005-10.794z" fill="#00ce8e"/><path d="m171.113 402.432 113.924-210.811c5.993-11.09 14.019-20.658 23.463-28.368-16.663-13.603-37.755-21.397-59.999-21.397h-.001-.002c-34.849 0-66.893 19.106-83.461 49.765l-158.75 293.758c5.488 7.075 14.066 11.621 23.713 11.621h143.11c-17.275-28.971-18.033-64.894-1.997-94.568z" fill="#00c084"/></g><g><g><g><ellipse cx="168.943" cy="274.063" fill="#ff8e9e" rx="29.355" ry="23.377"/></g><g><ellipse cx="328.057" cy="274.063" fill="#ff8e9e" rx="29.355" ry="23.377"/></g></g></g><g fill="#313d40"><path d="m186.051 232.06c-4.142 0-7.5 3.358-7.5 7.5v12c0 4.142 3.358 7.5 7.5 7.5s7.5-3.358 7.5-7.5v-12c0-4.142-3.358-7.5-7.5-7.5z"/><path d="m310.949 232.06c-4.142 0-7.5 3.358-7.5 7.5v12c0 4.142 3.358 7.5 7.5 7.5s7.5-3.358 7.5-7.5v-12c0-4.142-3.358-7.5-7.5-7.5z"/><path d="m269.892 245.548c-3.123-2.721-7.861-2.396-10.582.727-2.729 3.132-6.669 4.929-10.81 4.929s-8.081-1.796-10.81-4.929c-2.721-3.123-7.459-3.447-10.582-.727-3.123 2.722-3.448 7.459-.727 10.582 5.579 6.402 13.641 10.073 22.119 10.073s16.54-3.671 22.119-10.073c2.721-3.123 2.396-7.86-.727-10.582z"/></g></g></svg>