<svg id="Capa_1" enable-background="new 0 0 512 512" height="512" viewBox="0 0 512 512" width="512" xmlns="http://www.w3.org/2000/svg"><g><path d="m390.069 147.385h38.537c16.067 0 29.091-12.543 29.091-28.014 0-10.789-6.333-20.152-15.614-24.832-4.373-2.206-7.5-6.272-8.387-11.088-3.873-21.036-22.972-36.916-45.818-36.916-22.831 0-41.944 15.87-45.818 36.917-.887 4.816-4.014 8.882-8.386 11.087-14.164 7.142-19.517 23.77-12.624 37.216 18.077 18.854 44.678 25.099 69.019 15.63z" fill="#efedfe"/><path d="m252.285 142.176c8.773-17.527 1.601-38.969-17.104-48.239-5.831-2.89-9.999-8.219-11.182-14.531-5.164-27.567-30.63-48.378-61.091-48.378-30.442 0-55.926 20.798-61.091 48.379-1.182 6.312-5.351 11.64-11.181 14.53-12.375 6.133-20.819 18.403-20.819 32.541 0 19.375 15.859 35.245 35.961 36.615 48.104 28.129 108.323 20.335 146.507-20.917z" fill="#efedfe"/><path d="m294.616 154.978c7.14-6.81 14.486-13.435 22.008-19.875 17.134-14.651 42.438-14.651 59.562 0 29.807 25.5 56.77 53.916 79.324 85.196-24.682 73.815-97.871 101.173-136.527 81.775-36.1-18.113-57.61-84.792-24.367-147.096z" fill="#5ad4ff"/><path d="m484.832 372.611c-7.408 1.581-14.847 3.038-22.296 4.373-37.386 9.893-76.868-4.143-98.486-34.69-23.677-33.455-21.233-80.08 6.614-112.191 4.853-1.971 9.355-4.465 17.216-5.163 17.793-1.58 20.555 8.889 38.791 7.729 13.631-.863 23.202-5.533 28.838-12.369 23.913 33.041 42.861 69.284 54.957 108.627 5.924 19.245-5.873 39.466-25.634 43.684z" fill="#5972a3"/><path d="m193.018 302.075c-38.656 19.398-111.845-7.96-136.527-81.775 22.553-31.28 49.517-59.696 79.324-85.196 17.124-14.651 42.428-14.651 59.562 0 7.521 6.439 14.868 13.064 22.007 19.875 33.243 62.303 11.733 128.982-24.366 147.096z" fill="#a2e5ff"/><path d="m27.168 372.611c7.408 1.581 14.847 3.038 22.296 4.373 37.386 9.893 76.868-4.143 98.486-34.69 23.677-33.455 21.233-80.08-6.614-112.191-4.853-1.971-9.355-4.465-17.216-5.163-17.793-1.58-20.555 8.889-38.791 7.729-13.631-.863-23.202-5.533-28.838-12.369-23.913 33.04-42.861 69.283-54.957 108.626-5.924 19.246 5.873 39.467 25.634 43.685z" fill="#3b5a99"/><path d="m424.198 480.972h-187.908s-172.566-72.214-36.7-245.924c81.809-21.151 166.682 5.489 223.711 62.838 24.243 38.142 42.84 78.005 55.595 119.392.165.536.309 1.535.453 2.906 3.36 32.547-22.429 60.788-55.151 60.788z" fill="#7886ad"/><path d="m236.29 480.972h-148.478c-32.702 0-58.429-28.179-55.163-60.716.144-1.401.289-2.421.464-2.967 13.064-42.48 32.032-82.322 55.585-119.403 7.892-7.892 47.837-46.58 110.892-62.838-26.468 73.739-37.781 170.742 36.7 245.924z" fill="#5972a3"/><path d="m421.776 297.886c-18.669 7.11-37.926 3.926-56.059-9.551-23.738-17.639-49.403-17.639-73.142 0-23.738 17.639-49.414 17.639-73.152 0-9.329-6.941-20.065-11.942-31.878-13.013-34.886-53.792 58.707-134.919 58.707-134.919 17.793-2.829 35.969 2.177 49.836 14.094 47.941 41.234 91.585 89.113 125.688 143.389z" fill="#a2e5ff"/><path d="m246.253 140.404c-15.527 24.397-44.612 75.439-58.707 134.919-13.909-1.257-27.89 3.081-41.264 13.013-18.133 13.477-37.39 16.66-56.059 9.551 33.681-53.545 76.861-101.392 125.687-143.388 8.902-7.645 19.432-12.344 30.343-14.095z" fill="#5ad4ff"/><g fill="#fff"><ellipse cx="175.254" cy="389.093" rx="29.796" ry="23.728"/><ellipse cx="336.759" cy="389.093" rx="29.796" ry="23.728"/></g><g><path d="m206.802 371c-4.268 0-7.727-3.459-7.727-7.727 0-3.56-2.896-6.456-6.455-6.456s-6.455 2.896-6.455 6.456c0 4.268-3.46 7.727-7.727 7.727-4.268 0-7.727-3.459-7.727-7.727 0-12.081 9.829-21.91 21.91-21.91s21.91 9.829 21.91 21.91c-.002 4.268-3.461 7.727-7.729 7.727z" fill="#495560"/></g><g><path d="m333.576 371c-4.268 0-7.727-3.459-7.727-7.727 0-3.56-2.896-6.456-6.455-6.456s-6.455 2.896-6.455 6.456c0 4.268-3.46 7.727-7.727 7.727s-7.727-3.459-7.727-7.727c0-12.081 9.829-21.91 21.91-21.91s21.91 9.829 21.91 21.91c-.002 4.268-3.461 7.727-7.729 7.727z" fill="#495560"/></g><g><path d="m235.886 374.022c3.217-2.804 8.099-2.467 10.902.749 2.328 2.671 5.688 4.204 9.218 4.204s6.89-1.532 9.218-4.204c2.804-3.217 7.686-3.552 10.902-.749 3.218 2.803 3.553 7.685.749 10.903-19.248 22.088-53.649.127-40.989-10.903z" fill="#495560"/></g></g></svg>