<svg id="Capa_1" enable-background="new 0 0 512 512" height="512" viewBox="0 0 512 512" width="512" xmlns="http://www.w3.org/2000/svg"><g><path d="m176.924 55.151c-2.596-4.323-6.289-7.913-10.695-10.375-6.165-3.434-11.192-8.688-14.026-15.163-7.612-17.429-25-29.613-45.242-29.613-.297 0-.587.025-.882.03-17.976.317-33.606 10.222-41.97 24.836-5.699 9.94-16.074 16.27-27.524 16.27h-7.789c-15.908 0-28.796 12.898-28.796 28.796 0 7.954 3.227 15.153 8.43 20.366 5.213 5.213 12.412 8.43 20.366 8.43h58.109 65.309c15.908 0 28.796-12.888 28.796-28.796 0-5.41-1.49-10.457-4.086-14.781z" fill="#e4f6f9"/><path d="m106.079.03c-17.976.317-33.606 10.222-41.97 24.836-5.699 9.94-16.074 16.27-27.524 16.27h-7.789c-15.908 0-28.796 12.898-28.796 28.796 0 7.954 3.227 15.153 8.43 20.366 5.213 5.213 12.412 8.43 20.366 8.43h58.109c-7.459-11.347-11.812-24.918-11.812-39.512 0-24.525 12.266-46.175 30.986-59.186z" fill="#c9ecf5"/><path d="m490.537 119.663c13.116 9.971 21.556 25.765 21.463 43.535-.134 24.969-17.46 46.256-40.774 52.296l-13.509 2.469c-16.616 3.038-33.273-5.105-41.082-20.083l-43.785-83.976c-7.443-14.275-5.223-31.673 5.565-43.622 9.35-5.027 19.963-7.964 31.196-8.202 27.11-.59 50.776 14.284 62.847 36.398 4.487 8.235 10.611 15.517 18.079 21.185z" fill="#e4f6f9"/><path d="m471.226 215.495c-59.7-179.531-173.059-215.105-251.966-76.727-7.84 13.757-25.827 18.039-38.808 8.978-6.058-4.24-12.29-7.584-18.664-9.988-7.73-2.915-15.669-4.441-23.765-4.441-47.714 0-110.426 80.72-125.838 196.225 2.813 17.609 18.002 30.565 35.834 30.565h102.429 310.724c17.007 0 31.732-11.811 35.423-28.413l.892-4.014c-6.133-40.712-15.06-78.496-26.261-112.185z" fill="#afd98b"/><path d="m161.787 137.758c-7.73-2.915-15.669-4.441-23.765-4.441-47.714 0-110.426 80.72-125.838 196.225 2.813 17.609 18.002 30.565 35.834 30.565h102.429c-10.904-30.485-16.86-63.323-16.86-97.556.001-44.685 10.128-87.002 28.2-124.793z" fill="#9bce6e"/><path d="m338.375 226.563c16.787 0 30.399 10.84 30.399 24.204s-13.612 24.204-30.399 24.204-30.389-10.84-30.389-24.204 13.601-24.204 30.389-24.204z" fill="#fff"/><path d="m256 215.598c13.54 0 24.504 1.427 24.504 16.57s-10.964 27.421-24.504 27.421-24.503-12.278-24.503-27.421c-.001-15.142 10.963-16.57 24.503-16.57z" fill="#606973"/><path d="m173.625 226.563c16.787 0 30.389 10.84 30.389 24.204s-13.602 24.204-30.389 24.204-30.399-10.84-30.399-24.204 13.611-24.204 30.399-24.204z" fill="#fff"/><path d="m462.413 323.905c-8.771 3.879-18.96 7.085-35.747 7.085-42.653 0-42.694-20.687-85.344-20.687-42.667 0-42.667 20.687-85.333 20.687s-42.667-20.687-85.323-20.687c-42.634 0-42.691 20.687-85.333 20.687-15.114 0-25.48-2.545-35.747-7.085-23.345-10.333-49.586 6.816-49.586 32.344v120.408c0 19.518 15.825 35.343 35.343 35.343h441.312c19.518 0 35.343-15.825 35.343-35.344 0-25.712 0-93.695 0-120.408.001-25.527-26.24-42.687-49.585-32.343z" fill="#85d5f9"/><path d="m426.666 395.636c-42.677 0-42.677-20.687-85.344-20.687s-42.667 20.687-85.333 20.687-42.667-20.687-85.323-20.687c-42.666 0-42.677 20.687-85.333 20.687-42.667 0-42.667-20.687-85.333-20.687v64.647c42.667 0 42.667 20.687 85.333 20.687 42.651 0 42.669-20.687 85.333-20.687 42.656 0 42.656 20.687 85.323 20.687s42.667-20.687 85.333-20.687 42.667 20.687 85.344 20.687c42.667 0 42.667-20.687 85.333-20.687v-64.647c-42.666 0-42.666 20.687-85.333 20.687z" fill="#6bc1fa"/><path d="m115.908 455.309c-11.348-18.511-20.451-38.545-26.933-59.726-6.317-20.64-10.139-42.367-11.127-64.832-12.478-.801-20.88-3.581-28.261-6.846-23.346-10.333-49.587 6.816-49.587 32.344v18.701 64.647 37.06c0 19.518 15.825 35.343 35.343 35.343h127.428c-18.154-16.554-33.956-35.638-46.863-56.691z" fill="#6bc1fa"/><path d="m85.333 395.636c-42.667 0-42.667-20.687-85.333-20.687v64.647c42.667 0 42.667 20.687 85.333 20.687 13.611 0 22.878-2.107 30.575-4.974-11.348-18.511-20.451-38.545-26.933-59.726-1.18.034-2.391.053-3.642.053z" fill="#54adfa"/><g><path d="m178.703 229.624c-4.285 0-7.758-3.473-7.758-7.758v-12.412c0-4.285 3.473-7.757 7.758-7.757s7.758 3.473 7.758 7.757v12.412c0 4.286-3.473 7.758-7.758 7.758z" fill="#606973"/></g><g><path d="m333.296 229.624c-4.285 0-7.757-3.473-7.757-7.758v-12.412c0-4.285 3.473-7.757 7.757-7.757 4.285 0 7.758 3.473 7.758 7.757v12.412c-.001 4.286-3.473 7.758-7.758 7.758z" fill="#606973"/></g></g></svg>