<?xml version="1.0" encoding="UTF-8"?>
<svg xmlns="http://www.w3.org/2000/svg" xmlns:xlink="http://www.w3.org/1999/xlink" version="1.1" id="Capa_1" x="0px" y="0px" viewBox="0 0 512 512" style="enable-background:new 0 0 512 512;" xml:space="preserve" width="512" height="512">
<g>
	<path style="fill:#FFB25A;" d="M179.684,327.624c-32.152-32.151-81.547-34.884-110.328-6.103&#10;&#9;&#9;c-26.461,26.461-50.639,81.819-47.13,137.456c0.664,10.52,13.457,15.206,20.892,7.734c8.459-8.5,17.908-16.506,28.728-23.094&#10;&#9;&#9;c4.145-2.524,9.196,1.429,7.846,6.09c-1.64,5.662-2.853,11.732-3.454,17.885c-1.208,12.371,12.007,20.833,22.772,14.619&#10;&#9;&#9;c30.388-17.542,70.97-28.451,86.777-44.259C214.569,409.171,211.836,359.776,179.684,327.624z"/>
	<path style="fill:#F7E969;" d="M158.508,348.801c-12.5-12.5-32.767-12.5-45.267,0c-14.862,14.862-26.654,51.78-16.584,61.85&#10;&#9;&#9;c10.071,10.071,46.988-1.722,61.85-16.584C171.008,381.567,171.008,361.301,158.508,348.801z"/>
	<path style="fill:#FF6E80;" d="M136.079,242.507c-11.563-11.563-49.937-29.003-93.493-16.619&#10;&#9;&#9;c-22.528,6.405-42.232-16.447-32.565-37.78c36.6-80.766,134.982-96.169,201.983-29.168L136.079,242.507z"/>
	<path style="fill:#FF6E80;" d="M269.493,375.922c11.563,11.563,29.003,49.937,16.619,93.493&#10;&#9;&#9;c-6.405,22.529,16.447,42.232,37.78,32.565c80.766-36.6,96.169-134.982,29.168-201.983L269.493,375.922z"/>
	<path style="fill:#F8475E;" d="M392.109,368.556c-5.443-24.018-18.285-47.796-39.048-68.559l-83.568,75.925&#10;&#9;&#9;c8.401,8.401,19.894,30.962,20.807,59.375c17.681-0.526,34.835-6.92,48.533-18.169C357.636,401.687,375.45,385.425,392.109,368.556&#10;&#9;&#9;z"/>
	<path style="fill:#F8475E;" d="M94.873,173.167c-11.72,14.272-17.754,31.367-18.268,48.531&#10;&#9;&#9;c28.459,0.889,51.063,12.398,59.474,20.809l75.925-83.568c-20.763-20.763-44.54-33.605-68.559-39.048&#10;&#9;&#9;C126.575,136.551,110.313,154.364,94.873,173.167z"/>
	<path style="fill:#EEECFF;" d="M316.621,390.079C419.204,305.842,504.659,185.58,504.5,52.649&#10;&#9;&#9;C504.47,27.703,484.297,7.53,459.351,7.5C326.42,7.341,206.159,92.796,121.922,195.379c-14.768,17.984-13.466,44.245,2.989,60.699&#10;&#9;&#9;L255.922,387.09C272.377,403.545,298.638,404.846,316.621,390.079z"/>
	<path style="fill:#D3D3FF;" d="M121.922,195.379c-14.768,17.984-13.466,44.245,2.989,60.699L255.922,387.09&#10;&#9;&#9;c16.455,16.455,42.715,17.756,60.699,2.989c0.323-0.266,0.645-0.536,0.968-0.802c-90.411-48.005-111.858-200.945-65.656-313.443&#10;&#9;&#9;C202.957,108.492,158.956,150.278,121.922,195.379z"/>
	<path style="fill:#F8475E;" d="M293.475,347.258L164.742,218.525l-53.024,53.024c-13.638,13.638-13.638,35.749,0,49.387&#10;&#9;&#9;l79.346,79.346c13.638,13.638,35.749,13.638,49.387,0L293.475,347.258z"/>
	<circle style="fill:#59D5FF;" cx="375.712" cy="136.288" r="37.362"/>
	<path style="fill:#5972A4;" d="M146.964,166.582c-8.66,9.404-17.016,19.022-25.043,28.796&#10;&#9;&#9;c-14.768,17.984-13.466,44.245,2.989,60.699L255.922,387.09c16.455,16.455,42.715,17.757,60.699,2.989&#10;&#9;&#9;c9.775-8.026,19.392-16.382,28.796-25.043L146.964,166.582z"/>
	<path style="fill:#3B5A9A;" d="M316.621,390.078c0.323-0.265,0.642-0.538,0.965-0.804c-46.331-24.602-74.555-76.75-84.841-136.911&#10;&#9;&#9;l-85.782-85.782c-8.66,9.404-17.016,19.022-25.043,28.796c-14.768,17.984-13.466,44.245,2.989,60.699L255.922,387.09&#10;&#9;&#9;C272.377,403.544,298.638,404.846,316.621,390.078z"/>
	<path style="fill:#FF6E80;" d="M430.75,81.25c20.986,20.986,43.153,37.892,64.042,49.734c6.315-25.476,9.74-51.649,9.707-78.335&#10;&#9;&#9;C504.47,27.703,484.297,7.53,459.351,7.5c-26.686-0.032-52.859,3.393-78.335,9.708C392.859,38.097,409.764,60.264,430.75,81.25z"/>
	<g>
		<g>
			
				<ellipse transform="matrix(0.7071 -0.7071 0.7071 0.7071 -40.5113 217.2376)" style="fill:#FFA1AC;" cx="241.97" cy="157.52" rx="23.377" ry="29.355"/>
			
				<ellipse transform="matrix(0.7071 -0.7071 0.7071 0.7071 -87.1152 329.744)" style="fill:#FFA1AC;" cx="354.48" cy="270.03" rx="23.377" ry="29.355"/>
		</g>
	</g>
	<g>
		<path style="fill:none;stroke:#000000;stroke-width:15;stroke-linecap:round;stroke-linejoin:round;stroke-miterlimit:10;" d="&#10;&#9;&#9;&#9;M315.688,40.143c-74.808,34.052-141.28,91.319-193.766,155.236c-14.768,17.984-13.466,44.245,2.989,60.699L255.922,387.09&#10;&#9;&#9;&#9;c16.454,16.455,42.715,17.756,60.699,2.989C419.204,305.842,504.659,185.58,504.5,52.649C504.47,27.703,484.297,7.53,459.351,7.5&#10;&#9;&#9;&#9;c-38.146-0.046-75.25,6.959-110.758,19.395"/>
		
			<circle style="fill:none;stroke:#000000;stroke-width:15;stroke-linecap:round;stroke-linejoin:round;stroke-miterlimit:10;" cx="375.712" cy="136.288" r="37.362"/>
		
			<line style="fill:none;stroke:#000000;stroke-width:15;stroke-linecap:round;stroke-linejoin:round;stroke-miterlimit:10;" x1="345.418" y1="365.036" x2="146.964" y2="166.582"/>
		<path style="fill:none;stroke:#000000;stroke-width:15;stroke-linecap:round;stroke-linejoin:round;stroke-miterlimit:10;" d="&#10;&#9;&#9;&#9;M381.016,17.208c11.842,20.889,28.748,43.056,49.734,64.042c20.986,20.986,43.153,37.892,64.042,49.734"/>
		<path style="fill:none;stroke:#000000;stroke-width:15;stroke-linecap:round;stroke-linejoin:round;stroke-miterlimit:10;" d="&#10;&#9;&#9;&#9;M283.473,400.124c6.605,17.825,10.234,42.577,2.639,69.291c-6.405,22.529,16.447,42.232,37.78,32.565&#10;&#9;&#9;&#9;c68.384-30.989,89.901-106.266,54.226-169.287"/>
		<path style="fill:none;stroke:#000000;stroke-width:15;stroke-linecap:round;stroke-linejoin:round;stroke-miterlimit:10;" d="&#10;&#9;&#9;&#9;M179.308,133.881C116.286,98.207,41.009,119.724,10.02,188.108c-9.667,21.333,10.036,44.186,32.565,37.78&#10;&#9;&#9;&#9;c26.714-7.595,51.466-3.967,69.291,2.639"/>
		<path style="fill:none;stroke:#000000;stroke-width:15;stroke-linecap:round;stroke-linejoin:round;stroke-miterlimit:10;" d="&#10;&#9;&#9;&#9;M126.05,257.217l-14.332,14.332c-13.638,13.638-13.638,35.749,0,49.387l79.346,79.346c13.638,13.638,35.749,13.638,49.387,0&#10;&#9;&#9;&#9;l14.332-14.332"/>
		<path style="fill:none;stroke:#000000;stroke-width:15;stroke-linecap:round;stroke-linejoin:round;stroke-miterlimit:10;" d="&#10;&#9;&#9;&#9;M148.573,459.125c15.63-6.788,29.428-13.386,37.215-21.173c8.477-8.477,14.198-18.749,17.261-29.835"/>
		<path style="fill:none;stroke:#000000;stroke-width:15;stroke-linecap:round;stroke-linejoin:round;stroke-miterlimit:10;" d="&#10;&#9;&#9;&#9;M102.253,303.483c-12.256,2.808-23.645,8.785-32.897,18.038c-26.461,26.461-50.639,81.819-47.13,137.456&#10;&#9;&#9;&#9;c0.663,10.52,13.456,15.205,20.892,7.734c8.459-8.5,17.908-16.506,28.728-23.094c4.145-2.524,9.196,1.429,7.846,6.09&#10;&#9;&#9;&#9;c-1.64,5.662-2.853,11.732-3.454,17.885c-1.208,12.371,12.007,20.833,22.772,14.619c5.499-3.174,11.331-6.131,17.29-8.939"/>
		<path style="fill:none;stroke:#000000;stroke-width:15;stroke-linecap:round;stroke-linejoin:round;stroke-miterlimit:10;" d="&#10;&#9;&#9;&#9;M130.644,339.862c-6.372,1.05-12.488,4.023-17.403,8.938c-14.862,14.862-26.655,51.78-16.584,61.85&#10;&#9;&#9;&#9;c10.071,10.071,46.988-1.722,61.85-16.584c4.915-4.915,7.888-11.031,8.938-17.403"/>
		
			<line style="fill:none;stroke:#000000;stroke-width:15;stroke-linecap:round;stroke-linejoin:round;stroke-miterlimit:10;" x1="278.465" y1="145.219" x2="269.98" y2="153.705"/>
		
			<line style="fill:none;stroke:#000000;stroke-width:15;stroke-linecap:round;stroke-linejoin:round;stroke-miterlimit:10;" x1="366.781" y1="233.535" x2="358.295" y2="242.02"/>
		<path style="fill:none;stroke:#000000;stroke-width:15;stroke-linecap:round;stroke-linejoin:round;stroke-miterlimit:10;" d="&#10;&#9;&#9;&#9;M302.748,185.968c-0.418,6.079,1.691,12.299,6.338,16.946c4.647,4.647,10.867,6.756,16.946,6.338"/>
	</g>
</g>















</svg>
