<svg id="Capa_1" enable-background="new 0 0 512 512" height="512" viewBox="0 0 512 512" width="512" xmlns="http://www.w3.org/2000/svg"><g><path d="m177.381 329.786c-33.122-33.122-84.008-35.937-113.658-6.287-27.259 27.259-52.168 84.288-48.552 141.605.684 10.838 13.863 15.664 21.523 7.967 8.714-8.757 18.448-17.005 29.595-23.791 4.27-2.6 9.473 1.472 8.082 6.274-1.69 5.832-2.94 12.086-3.559 18.424-1.245 12.744 12.37 21.462 23.46 15.06 31.305-18.071 73.112-29.31 89.396-45.595 29.65-29.649 26.835-80.535-6.287-113.657z" fill="#ffb25a"/><path d="m155.565 351.601c-12.877-12.877-33.756-12.877-46.633 0-15.311 15.31-27.459 53.342-17.084 63.717s48.407-1.774 63.717-17.084c12.877-12.877 12.877-33.755 0-46.633z" fill="#f7e969"/><path d="m132.459 242.1c-11.912-11.912-51.444-29.879-96.315-17.121-23.208 6.599-43.507-16.943-33.548-38.92 37.705-83.204 139.056-99.072 208.079-30.049z" fill="#ff6e80"/><path d="m269.9 379.541c11.912 11.912 29.879 51.444 17.121 96.315-6.599 23.208 16.943 43.507 38.92 33.548 83.204-37.704 99.072-139.056 30.049-208.079z" fill="#ff6e80"/><path d="m396.217 371.953c-5.607-24.743-18.837-49.238-40.227-70.628l-86.09 78.216c8.655 8.655 20.495 31.897 21.435 61.167 18.215-.542 35.886-7.129 49.998-18.717 19.371-15.907 37.722-32.659 54.884-50.038z" fill="#f8475e"/><path d="m90.01 170.667c-12.074 14.702-18.29 32.314-18.82 49.996 29.318.916 52.604 12.773 61.269 21.438l78.216-86.09c-21.39-21.39-45.885-34.619-70.628-40.227-17.378 17.161-34.131 35.513-50.037 54.883z" fill="#f8475e"/><path d="m454.548 57.452c-21.613-21.613-50.633-39.718-69.741-47.444-47.016 11.653-91.724 32.865-132.996 60.387-82.54 106.734-45.825 270.716 96.305 297.931 71.577-65.915 131.071-149.085 153.883-241.116-7.722-19.107-25.832-48.139-47.451-69.758z" fill="#eeecff"/><path d="m219.236 292.764 29.226 17.136c-29.105-69.597-27.863-163.508 3.348-239.504-39.523 26.355-75.88 58.492-108.126 93.508z" fill="#d3d3ff"/><path d="m294.606 350.012-132.618-132.618-54.625 54.624c-14.049 14.05-14.049 36.828 0 50.878l81.741 81.741c14.049 14.049 36.828 14.049 50.878 0z" fill="#f8475e"/><circle cx="379.325" cy="132.675" fill="#59d5ff" r="38.49"/><path d="m379.325 178.644c-11.777 0-23.555-4.483-32.521-13.449-17.931-17.931-17.931-47.108 0-65.039s47.107-17.932 65.04 0c17.931 17.931 17.931 47.108 0 65.039-8.965 8.966-20.742 13.449-32.519 13.449zm-.001-76.944c-7.935 0-15.871 3.021-21.912 9.062-12.083 12.083-12.083 31.743 0 43.826 12.084 12.084 31.745 12.083 43.825 0 12.083-12.083 12.083-31.743 0-43.826-6.041-6.041-13.976-9.062-21.913-9.062z" fill="#5972a4"/><path d="m232.044 252.254c-23.671 37.985 19.767 134.683 87.401 141.043 9.726-8.017 19.303-16.343 28.671-24.97z" fill="#5972a4"/><path d="m318.451 394.125c.333-.273.662-.554.994-.828-47.729-25.344-76.805-79.067-87.401-141.043l-88.371-88.371c-8.922 9.688-17.53 19.596-25.798 29.665-15.214 18.527-13.872 45.58 3.079 62.531l134.966 134.967c16.951 16.952 44.004 18.293 62.531 3.079z" fill="#3b5a9a"/><path d="m436.024 75.976c21.619 21.619 44.455 39.035 65.975 51.235 6.505-26.244 10.034-53.208 10-80.699-.03-25.7-20.811-46.481-46.511-46.512-27.491-.033-54.454 3.496-80.699 10 12.2 21.521 29.616 44.356 51.235 65.976z" fill="#ff6e80"/><g><g fill="#ffa1ac"><ellipse cx="241.547" cy="154.547" rx="24.082" ry="30.241" transform="matrix(.707 -.707 .707 .707 -38.534 216.067)"/><ellipse cx="357.453" cy="270.453" rx="24.082" ry="30.241" transform="matrix(.707 -.707 .707 .707 -86.544 331.968)"/></g><g fill="#425460"><path d="m270.401 158.117c-1.919 0-3.839-.732-5.304-2.197-2.929-2.929-2.929-7.678 0-10.606l8.741-8.741c2.93-2.929 7.678-2.929 10.607 0s2.929 7.678 0 10.606l-8.741 8.741c-1.464 1.465-3.384 2.197-5.303 2.197z"/><path d="m361.383 249.099c-1.919 0-3.839-.732-5.303-2.197-2.93-2.929-2.93-7.677-.001-10.607l8.741-8.742c2.93-2.929 7.679-2.93 10.607 0 2.93 2.929 2.93 7.677.001 10.607l-8.741 8.742c-1.465 1.464-3.385 2.197-5.304 2.197z"/><path d="m326.595 215.394c-7.934 0-15.568-3.138-21.21-8.779-6.13-6.13-9.304-14.613-8.708-23.275.285-4.132 3.861-7.246 7.997-6.968 4.132.284 7.252 3.865 6.968 7.997-.298 4.334 1.287 8.576 4.351 11.639 3.061 3.063 7.311 4.649 11.64 4.35 4.135-.278 7.713 2.835 7.996 6.968.284 4.133-2.836 7.713-6.969 7.996-.69.049-1.379.072-2.065.072z"/></g></g></g></svg>