<svg id="Layer_1" enable-background="new 0 0 100 100" viewBox="0 0 100 100" xmlns="http://www.w3.org/2000/svg" xmlns:xlink="http://www.w3.org/1999/xlink"><linearGradient id="SVGID_1_" gradientTransform="matrix(-.332 -4.563 -4.563 .332 -1554.023 331.215)" gradientUnits="userSpaceOnUse" x1="39.147" x2="40.147" y1="-354.15" y2="-354.15"><stop offset="0" stop-color="#db804e"/><stop offset=".9372" stop-color="#a44b16"/><stop offset="1" stop-color="#a44b16"/></linearGradient><path d="m46.903 48.66c.027-.143.059-.288.085-.437 1.145-6.483-1.71-11.576-2.648-13.396-.399.065-1.36.198-1.871 1.061-.322.545-.36 1.315-.173 1.921.337 1.094 1.152 3.762 1.562 5.327.571 2.188.688 4.414 1.257 5.086.385.458 1.183.729 1.788.438z" fill="#006181"/><path d="m46.391 48.801c.732-.004 1.043-.54 1.18-.97.426-1.335.865-12.604-3.043-13.025 0 0-.071.004-.188.022.938 1.819 3.455 7.092 2.483 12.048-.028.148-.406 1.782-.432 1.925z" fill="#002636"/><path d="m41.271 55.148c.222-1.345 5.29-7.117 5.856-7.758-.489-.64-1.759-1.202-2.127-.619 0 0-3.576 4.924-4.619 6.934-.83 1.6.256 1.513.89 1.443z" fill="#db804e"/><path d="m41.233 55.156c.163-.018.41-.15.44-.168.146-.089 4.844-6.167 5.595-6.891.229-.222.165-.519-.051-.802-.566.642-5.763 6.517-5.984 7.861z" fill="#c95c1d"/><path d="m42.516 54.294s4.994-5.1 4.958-6.497c-.011-.393-.153-.716-.369-.971.025.104.041.216.044.332.032 1.213-3.904 5.433-4.944 6.527.229.313.311.609.311.609z" fill="#002636"/><path d="m40.745 52.97c.439-.005.776.121 1.031.3.181.123.319.271.428.416 1.04-1.095 4.977-5.314 4.944-6.527-.003-.116-.018-.228-.044-.332-.552-.652-1.584-.84-2.079-.518-.566.369-3.104 4.651-3.981 6.146-.187.321-.299.515-.299.515z" fill="#006181"/><path d="m39.662 54.488-.229.133s-1.558 1.711-1.451 1.977c.107.267.713 1.68 1.063 1.597s.882-.344 1.143-.667c.26-.323-.034-.633-.128-.721s-.942.384-.942.384l-.248-.584s1.153-.412 1.239-.919c.086-.505-.447-1.2-.447-1.2z" fill="#c95c1d"/><path d="m39.501 57.948s.482.597.73.413.603-1.001.465-1.209c-.139-.207-.186-.312-.342-.248-.156.065-.302.4-.302.4z" fill="#c95c1d"/><path d="m40.253 58.043s.238.318.476.118c.237-.2.295-1.021.112-1.32-.183-.3-.39.222-.39.222z" fill="#c95c1d"/><path d="m40.731 57.935s.212.225.334.077c.122-.146.133-1.071-.011-1.154-.144-.082-.306.203-.306.203z" fill="#c95c1d"/><path d="m40.786 56.905s.583-.304.745-.655c.162-.352.006-.772.006-.772l-1.61 1.447.299.316z" fill="#c95c1d"/><path d="m39.9 55.322s.189.285-.292.7c-.482.414-.953 1.084-.411 1.341.542.258 1.07-.562 1.307-.869.236-.308 1.203-.576 1.346-1.102.144-.526-.32-1.808-.948-1.759-.728.056-1.557.865-1.468.988.086.119.466.701.466.701z" fill="#db804e"/><path d="m53.529 34.113c.006.111.013.224.018.34.006.113.011.229.016.346.011.244.021.498.027.757.004.124.008.249.011.376v.021c.002.091.003.184.006.276.001.1.004.199.005.3v.002c.002.101.003.202.003.305.001.208.001.418 0 .63v.006l-.003.172c.458-1.301-.057-3.433-.079-3.524z" fill="#005b79"/><path d="m53.529 34.112.009.004-.022-.03.011.026z" fill="#002636"/><path d="m44.672 35.479c.416 1.266 1.414 2.431 3.732 2.06 2.979-.477 3.905-2.373 4.186-3.682l-.237-.038c-3.582-.48-6.027.429-7.681 1.66z" fill="#005b79"/><path d="m51.92 33.837s-.933-1.556-1.244-3.733h-3.671s-.188 3.235-.934 4.916c0 0 3.983.871 5.849-1.183z" fill="url(#SVGID_1_)"/><path d="m40.834 46.394.072.022.075.023.08.025.083.024.058.018.029.01.112.034.072.021.097.03c.104.03.206.059.307.09l.091.025.137.04.235.067.155.044.16.045.056.015.128.035.017.003.249.067.128.034.007.001.122.032.018.004c.092.023.187.049.283.072h.001l.143.034.147.036.147.036h.002l.149.035c.1.023.203.047.306.069.104.024.206.048.312.07.156.034.315.068.478.101l.16.032.162.031.163.032.015.003c.104.021.211.039.316.059l.166.028c.151.026.303.051.456.076.128.02.257.039.384.057l.17.023.096.013.177.023.236.029.17.019c.113.013.227.024.34.035l.174.015.161.014.043.004.117.007.182.013h.003l.164.01.168.008.173.006.16.004.253.004c.194.001.386-.001.575-.01h.004.002.021l.241-.012c.168-.01.333-.022.495-.04l.027-.002.215-.025.203-.028.035-.005.035-.005.199-.035.228-.045c.15-.032.299-.069.441-.109l.185-.056.027-.009.228-.08.004-.001c.478-.108.884-.223 1.238-.314 1.909-.498 2.447 5.186 1.079 5.394-1.369.206-1.286 1.202.787 1.948.367.133.859.162 1.079.395.72.759.543 2.094.472 2.842-.302.205-.637.419-1.004.643-.166.1-.337.2-.516.291-1.711.946-3.901 1.7-6.531 1.7-2.787 0-6.064-.854-9.785-3.229l-.029-.024c.409-3.2.946-10.389.98-10.891z" fill="#005b79"/><g fill="#002636"><path d="m52.619 47.786c-.142.04-.291.077-.441.109.15-.032.299-.068.441-.109z"/><path d="m51.235 48.041c-.162.018-.327.03-.495.04.16-.009.317-.021.473-.036z"/><path d="m48.635 48.047-.161-.014.136.013z"/><path d="m48.3 48.019c-.113-.01-.227-.022-.34-.035l.056.008c.094.009.189.019.284.027z"/><path d="m47.554 47.937-.177-.024.074.011z"/><path d="m46.728 47.819c-.153-.024-.305-.05-.456-.076.11.021.223.04.334.058z"/><path d="m43.605 47.176c-.096-.024-.19-.048-.284-.072.092.024.187.048.284.072z"/><path d="m41.416 46.571-.072-.021.169.052z"/><path d="m41.062 46.464.169.053-.029-.01-.057-.018z"/><path d="m46.699 47.315s.128.198.695.6l.159.021.236.028.17.019c.113.013.227.025.34.035l.174.015.161.014.043.004.117.008.182.013h.003l.164.01.168.007.173.007.16.004.253.003c.194.002.386-.001.575-.01h.004.002.021l.241-.011c.168-.01.333-.022.495-.04l.027-.002.215-.025.203-.028.035-.006.035-.005.199-.034.228-.045c.15-.032.299-.069.441-.109l.185-.057.027-.008.228-.08.004-.001c.478-.108.884-.224 1.238-.315 1.909-.497 2.447 5.187 1.079 5.394-1.369.207-1.286 1.202.787 1.949.367.132.859.162 1.079.395l.102.118.863-.024-.343-.996-.218-1.369s.498-1.866.498-2.115-1.68-3.951-1.68-3.951z"/></g><path d="m49.095 48.934c-.799-.424-1.338-.763-1.7-1.019l.159.021.236.028.17.019c.113.013.227.025.34.035l.174.015.161.014.043.004.117.008.182.013h.003l.164.01.168.007.173.007.16.004.253.003c.194.002.386-.001.575-.01h.004.002.021l.241-.011c.168-.01.333-.022.495-.04l.027-.002.215-.025.203-.028.035-.006.035-.005.199-.034.228-.045c.15-.032.299-.069.441-.109l.185-.057.027-.008.228-.08.004-.001c.478-.108.884-.224 1.238-.315 1.909-.497 2.447 5.187 1.079 5.394-1.369.207-1.286 1.202.787 1.949.367.132.859.162 1.079.395l.102.118h-.009c.201.183.31.497.31.497s-1.919.975-2.045.164c-.056-.357-.128-.534-.192-.62-.606-.045-2.413-.283-2.335-1.528.094-1.493 1.587-1.12 1.432-3.018-.156-1.901-3.361-.656-5.414-1.744z" fill="#004762"/><path d="m40.454 45.679h.002c.681-.184 1.371-.253 2.065-.253l.205.003.151.003.11.004.153.008c.345.018.689.051 1.033.092l.206.026.205.027.151.021.094.014.271.039.258.04c.292.048.583.095.872.142.092.015.185.029.276.044.171.026.34.053.509.076l.197.027c.297.04.592.074.882.099l.012.001.146.011.269.016.148.005c1.065.033 2.065-.115 2.958-.652l.09-.059.009-.006.083-.062.059-.049.114-.104.065-.067c.075-.079.146-.168.215-.262l.006-.009.005-.008.08-.118.057-.091.091-.161.009-.016.008-.017.021-.043.016-.035.017-.035c.028-.062.064-.143.104-.237l.039-.096c.089-.222.188-.502.266-.804l.019-.084c.033-.134.061-.273.08-.41l.006-.044.013-.104.003-.028.011-.165c.018-.51-.108-.979-.532-1.235-1-.6-.14-1.132.967-1.619l.01-.166c.012-.186.02-.376.027-.564l.006-.17c.004-.108.008-.217.011-.324.005-.169.009-.338.01-.506l.001-.131.003-.172v-.006c.001-.212.001-.422 0-.63 0-.103-.001-.204-.003-.305v-.002c-.001-.101-.004-.2-.005-.3-.003-.093-.004-.186-.006-.276v-.021c-.003-.127-.007-.252-.011-.376-.007-.259-.017-.513-.027-.757-.005-.117-.01-.232-.016-.346-.005-.116-.012-.228-.018-.34v-.001h-.001c-.3-.112-.612-.198-.938-.256-.28 1.31-1.206 3.206-4.186 3.683-2.318.371-3.316-.794-3.732-2.06-1.471 1.093-2.317 2.443-2.784 3.299-.3.721-.61 1.296-.94 1.741-.666.892-1.14 1.072-1.458 2.054-.635 1.946.686 2.922.963 3.107z" fill="#005b79"/><path d="m40.834 46.393.072.022.076.023.079.025.084.024.057.018.03.01.112.034.061.019.011.002.098.03c.104.03.205.06.306.09l.091.026.138.039.234.067.077.022.079.021.159.045.056.015.128.035.017.003.249.067.128.034.008.001.122.032.017.004c.093.023.188.049.283.072h.001l.144.034.146.037.148.035h.001l.149.035c.1.023.203.048.305.069.104.024.207.048.312.07.157.034.316.068.478.101l.161.032.161.031.163.032.016.003c.104.021.21.04.315.059l.082.015.084.014c.151.026.304.051.457.076.128.02.256.04.383.057l.171.023.096.013.018.003.159.021.236.029.169.019c.113.013.227.024.34.035l.174.015.161.014.044.004.116.007.182.013h.003l.164.01.168.008.173.006.161.004.252.004c.194.001.386-.001.575-.01h.004.002.021l.241-.012c.168-.01.334-.023.495-.039l.027-.003.216-.025.203-.028.034-.005.035-.005.199-.035.228-.045c.15-.032.299-.069.441-.109l.185-.056.027-.009.228-.08.004-.001c.478-.108.884-.223 1.238-.314.34-.089.635.019.885.255l.038.037c1.008 1.027 1.229 4.187.457 4.943-.087.086-.188.141-.301.158-.374.056-.64.172-.784.325-.211.22-.176.516.14.83.267.266.738.544 1.433.794.206.074.453.115.667.18l.138.047c.109.042.206.094.274.168l.101.118.023.032.001.001.036.05.01.017.05.078c.056.092.102.19.139.289l.017.043v.001l.02.058.022.071.018.061.025.105.007.031.019.095v.004l.019.114.014.111.005.052.009.104.006.109c.021.48-.034.951-.066 1.296.85-.572 1.46-1.076 1.898-1.501.429-.413.693-.752.857-1.007.018-1.066.063-8.361-1.74-14.189-.049-.14-.098-.28-.149-.422-.255-.724-.521-1.41-.789-2.059l-.009-.021c-.992-2.146-2.348-3.849-4.195-4.566l-.077-.054.005.009.012.019.01.017-.012-.016.002.004.029.059.022.047v.001l.037.078.045.092.008.017.033.07.011.022.037.082c.036.077.075.163.115.254l.003.006c.472 1.061 1.22 2.991.894 3.887l-.027.066-.1.165-.111.107-.084.055-.06.028c-.278.114-.565.231-.838.351-1.107.487-1.967 1.02-.967 1.619.424.256.55.726.532 1.235l-.011.165-.003.028-.013.104-.006.044c-.02.138-.047.276-.08.41l-.021.083c-.077.302-.177.582-.266.804l-.039.096c-.039.095-.075.176-.104.237l-.017.035-.016.035-.012.024-.01.019-.008.017-.009.016.026-.01v.002l-.026.008-.091.161-.057.091-.08.118-.005.008-.006.009c-.068.094-.14.183-.215.262l-.065.067-.114.104-.059.049-.083.062-.009.006-.09.059c-.893.537-1.893.686-2.958.652l-.148-.005-.269-.016-.146-.011-.012-.001c-.29-.024-.585-.059-.882-.099l-.197-.027c-.169-.023-.338-.05-.509-.076-.092-.015-.185-.028-.276-.044-.289-.047-.58-.094-.872-.142l-.258-.04-.271-.039-.094-.014-.151-.021-.205-.027-.206-.026c-.344-.041-.688-.073-1.033-.092l-.153-.008-.11-.004-.151-.003-.205-.003c-.694 0-1.385.069-2.065.253.32.146.442.508.378.716z" fill="#002636"/><path d="m48.096 46.091.012.001.146.011.269.016.148.005c1.065.033 2.065-.115 2.958-.652l.09-.059.009-.006.083-.062.059-.049.114-.104.065-.067c.075-.079.146-.168.215-.262l.006-.009.005-.008.08-.118.057-.091.091-.161.009-.016.008-.017.01-.019.012-.024.016-.035.017-.035c.028-.062.064-.143.104-.237l.039-.096c.089-.222.188-.502.266-.804l.016-.084c.033-.134.061-.273.08-.41l.006-.044.013-.104.003-.028.011-.165c.018-.51-.108-.979-.532-1.235-1-.6-.14-1.132.967-1.619.272-.119.559-.236.838-.351l.06-.028.084-.055.111-.107.1-.165.027-.066c.326-.896-.422-2.826-.894-3.887l-.004-.005c-.04-.091-.079-.177-.115-.254l-.037-.082-.011-.022-.033-.07-.008-.017-.045-.092-.037-.078v-.001l-.022-.047-.029-.059c.022.092.537 2.224.079 3.524-.143.407-.382.733-.762.889-1.617.663-2.447 1.41-1.909 3.069.534 1.639-.269 3.641-2.845 4.491z" fill="#004762"/><path d="m59.439 78.806s-.923 3.754-.633 4.584c.291.83-.187.71-1.617.669-1.432-.041-.529-.213-.778-2.245-.248-2.033-.393-3.174-.331-3.174z" fill="#db804e"/><path d="m59.238 87.399.93-.737-.173-.879-.949-.759-1.775-.165-1.074.374-.671.704-.191.593-.039.353.767.648 2.417.176z" fill="#381a30"/><path d="m60.14 86.377s-.02.835-2.283.989c-2.263.153-2.441-.571-2.441-.571l-.256.029s.217 1.406 2.749 1.216c0 0 2.302-.234 2.365-1.466z" fill="#58354f"/><path d="m55.594 85.904c.153-.495.575-1.869.758-2.221.182-.352 2.119-.494 2.416-.154.298.341 1.122 1.606 1.161 2.287 0 0 .162.418-.095.802-.132.198-.671.26-.729.034-.107.08-.248.151-.423.175-.185.026-.301-.042-.371-.146-.114.127-.274.24-.502.312-.196.062-.323.018-.402-.082-.076.071-.176.119-.307.126-.141.007-.244-.035-.32-.105-.107.104-.255.175-.457.172-.767-.013-.883-.706-.729-1.2z" fill="#db804e"/><path d="m60.095 86.589s.025-1.729-2.404-1.582c-2.43.146-2.275 1.788-2.275 1.788l-.256.029s.089-2.91 2.641-2.58c2.551.33 2.474 2.33 2.474 2.33z" fill="#58354f"/><path d="m46.455 78.972s-.873 3.754-.599 4.584c.275.829-.308.995-1.662.954-1.354-.042-.2-.312-.436-2.344-.235-2.033-.543-3.36-.484-3.36z" fill="#db804e"/><path d="m45.959 86.052.425.232-.006.543c-.052.202-.245.336-.451.358-.855.094-3.17.306-4.021.345-.772.036-2.603-.191-2.657-.534-.055-.342.123-.63.123-.63z" fill="#58354f"/><path d="m40.606 86.003c.619.127 3.054-1.628 3.163-2.452.103-.773 1.918-.917 2.05.247.021.183.107.721.169.894.185.516.445 1.246.083 1.825-.485.776-1.687-.196-2.626.243-.939.44-2.661.244-2.831.227-.451-.043-1.062-.472-1.118-.638-.097-.285.348-.501 1.11-.346z" fill="#db804e"/><path d="m41.614 85.515c.936.595 1.158 1.548 1.158 1.548l.924-.043s-.087-.445-.326-1c-.083-.191-.185-.396-.306-.599-.066-.11-.14-.221-.22-.329-.108-.148-.235-.266-.372-.356z" fill="#58354f"/><path d="m46.145 84.774c-.161.073-2.36 1.218-2.801 1.291-.439.073-.404-.436-.404-.436l2.987-1.385z" fill="#58354f"/><path d="m39.549 82.45c2.37.294 4.66.459 6.81.536 1.393.051 2.727.063 3.985.05.646-.008 1.272-.021 1.878-.041.129-.004.259-.009.387-.014 1.913-.874 2.607-3.103 3.253-5.077-1.938-2.1-5.157-5.707-2.993-4.233 2.987 2.032 3.444-.207 4.066-.83.622-.622-3.36-3.276-3.941-5.143-.581-1.866.373-2.904 1.866-3.9 1.272-.849.807-7.41.745-7.955l-15.752 1.444c-.525 6.745-.304 25.163-.304 25.163z" fill="#005b79"/><path d="m57.15 79.284s-1.39 1.6-2.326 2.103c0 0-7.498-11.077-6.234-12.447 1.264-1.372 8.56 10.344 8.56 10.344z" fill="#004762"/><path d="m53.594 82.729.002.002c2.014-.796 3.868-1.619 5.522-2.413-2.015-.862-8.225-3.764-11.636-6.629-4.062-3.414 1.52 6.27 6.112 9.04z" fill="#004762"/><path d="m52.608 82.981c5.424-.2 8.968-.843 8.968-.843 1.12-9.209-1.103-26.742-1.103-26.742l-2.824.281c.495 1.113 1.011 7.451.011 8.452-1.556 1.556-2.676 2.364-.747 4.854 1.929 2.489 2.987 4.106.685 5.662-2.011 1.36-1.711 6.839-4.99 8.336z" fill="#002636"/><path d="m55.861 77.904c.462-1.41.898-2.692 1.736-3.259 2.303-1.556 1.244-3.173-.685-5.662s-.809-3.298.747-4.854c1-1.001.484-7.37-.011-8.483l-.818.084-1.227.111c.062.545.527 7.106-.745 7.955-1.493.996-2.447 2.034-1.866 3.9.581 1.867 4.563 4.521 3.941 5.143-.622.623-1.079 2.862-4.066.83-2.163-1.472 1.056 2.136 2.994 4.235z" fill="#004762"/><path d="m55.233 64.627c-.122.113-2.199 1.701-1.079 2.987s3.982 4.936 3.153 5.392c-.83.457-5.518-4.937-5.518-6.057s2.738-3.152 3.069-3.152c.333.001.914.333.375.83z" fill="#002636"/><path d="m57.764 74.562c-.166 0-2.033 1.556-3.215 1.037-1.183-.519-3.34-3.069-3.153-2.115.188.954 2.51 3.816 1.39 4.045-1.12.228-3.525-1.203-2.654.207s3.421 4.683 2.477 5.245l1.94-.226 6.077-4.688z" fill="#002636"/><path d="m46.358 82.986c1.393.051 2.727.063 3.985.05-2.115-2.491-6.724-8.682-7.183-14.717-.567-7.465-4.467 1.02 3.198 14.667z" fill="#004762"/><path d="m61.695 45.828c-.026-.143-.049-.29-.078-.438-1.269-6.461-5.766-10.184-7.297-11.541-.35.204-1.198.675-1.363 1.663-.104.624.138 1.356.53 1.854.709.898 2.431 3.094 3.377 4.406 1.321 1.834 2.231 3.869 3.005 4.291.525.289 1.366.254 1.826-.235z" fill="#006181"/><path d="m61.695 45.828c.219-.231.351-.564.323-1.014-.084-1.399-3.734-12.069-7.532-11.054 0 0-.064.029-.166.089 1.531 1.357 5.778 5.37 6.658 10.344.027.149.691 1.492.717 1.635z" fill="#002636"/><path d="m41.183 21.533s-1.304 7.727.588 9.793c1.891 2.067 4.026 4.182 5.949 3.668 1.922-.514 5.883-4.233 6.558-7.486.676-3.251.206-4.351.206-4.351-.204-.183-6.653-7.942-13.301-1.624z" fill="#050503"/><path d="m44.322 33.65c.171.057.347.105.525.14 4.121.827 8.207-2.239 9.689-3.51-.142-.056-.278-.13-.407-.223-.143-.104-.263-.221-.359-.349l-.033-.046c-.855.796-5.035 4.423-9.415 3.988z" fill="#c95c1d"/><path d="m40.969 28.135c-.208 1.054.234 4.493 3.354 5.516 4.38.435 8.56-3.192 9.415-3.987l.033.046c.097.128.217.244.359.349.129.093.266.167.407.223.374-.322.582-.528.582-.528s-.047-1.526-.221-3.404c-.225-2.419-.663-5.421-1.485-6.495-.67-.873-2.906-1.477-5.134-1.875-2.635-.471-5.257-.653-5.257-.653s-.668 4.436-1.2 6.708c-.531 2.27-.641 3.031-.853 4.1z" fill="#db804e"/><path d="m53.771 29.709c.096.128.217.244.36.349.205.149.43.248.663.304l.226.042c.722.092 1.502-.181 2.087-.591 1.034-.728 1.515-1.844 1.225-2.84-.246-.848-.899-1.252-1.883-1.174l-.103.01c-.508.06-.989.24-1.408.513-.668.435-1.177 1.104-1.383 1.887-.159.603-.086 1.106.216 1.5z" fill="#db804e"/><path d="m56.539 26.752s.865-.09.629.225c-.237.314-1.089-.166-1.782.944 0 0 .726.43.341 1.052s-1.254.226-1.237.142.875.219.915-.321c.04-.541-.813-.594-.873-.672-.059-.079.857-1.393 2.007-1.37z" fill="#c95c1d"/><path d="m53.675 23.498-.01.002.006.003z" fill="#910303"/><path d="m53.568 22.99-.008.002.005.004z" fill="#910303"/><path d="m53.422 23.493-.01.002.006.004z" fill="#910303"/><path d="m50.275 24.999s-.896-1.564-2.159-1.225c-1.262.34-1.542 1.553-1.542 1.553s.588 1.184 2.001 1.058c1.199-.107 1.7-1.386 1.7-1.386z" fill="#fff"/><path d="m47.202 24.878c-.094.691.317 1.315.914 1.396.598.08 1.158-.413 1.251-1.103.094-.69-.316-1.314-.914-1.396s-1.158.413-1.251 1.103z" fill="#913f39"/><path d="m47.77 24.954c-.045.329.15.626.435.665.285.038.552-.197.596-.525.045-.329-.15-.626-.435-.665-.286-.038-.553.197-.596.525z" fill="#3f0100"/><path d="m49.778 25.267c-.048.301-.329.506-.63.458-.3-.047-.505-.329-.458-.629.048-.301.329-.506.63-.458.3.047.505.329.458.629z" fill="#fff"/><path d="m44.215 24.503s-.042-1.506-.948-1.665c-.907-.158-1.028.547-1.028.547s-.306 1.313.582 1.807c.887.493 1.394-.689 1.394-.689z" fill="#fff"/><path d="m42.312 23.893c-.076.564.196 1.066.609 1.122.412.056.808-.356.884-.921.076-.563-.196-1.066-.608-1.122-.414-.056-.809.356-.885.921z" fill="#913f39"/><path d="m42.703 23.945c-.036.269.094.508.289.534.197.026.385-.17.421-.438.037-.269-.093-.508-.289-.534-.196-.027-.385.17-.421.438z" fill="#3f0100"/><path d="m43.997 24.164c-.044.283-.242.486-.442.454-.2-.031-.326-.285-.281-.567.044-.283.242-.486.442-.455.2.032.326.286.281.568z" fill="#fff"/><path d="m50.275 24.999s-.779-.889-1.996-.985c-1.125-.089-1.705 1.313-1.705 1.313s.417-2.107 1.937-1.96c1.619.158 1.764 1.632 1.764 1.632z" fill="#c95c1d"/><path d="m44.215 24.503s-.724-2.312-1.965-1.178c0 0 .172-.952 1.116-.683.945.27.849 1.861.849 1.861z" fill="#c95c1d"/><path d="m48.417 22.315c.111.035.978.316 1.319.482.471.229 1.096.482 1.235.257.226-.364-3.284-2.634-3.571-1.879-.24.632.23.888 1.017 1.14z" fill="#dbdfdd"/><path d="m44.422 21.323s.618-.681-.091-.817c-.709-.137-1.991.425-1.963.765.028.338 1.71.367 2.054.052z" fill="#dbdfdd"/><path d="m43.88 29.339s.108 1.696 1.588 1.965c.977.176 1.693-.369 2.073-1.004l.099-.199.002-.006c.059-.118.101-.24.13-.358.04-.146.056-.285.057-.409 0 0-1.288.923-3.694.104l-.083-.028z" fill="#c9023e"/><path d="m44.134 29.431c.042.328.243.657.737.88 1 .446 2.135.067 2.771-.216.059-.118.101-.24.13-.358.04-.146.056-.285.057-.409-.001-.001-1.289.922-3.695.103z" fill="#fff"/><path d="m50.275 24.999.312-.713s-3.556-1.915-4.013 1.041c0 0 .486-1.367 1.89-1.21 1.231.138 1.811.882 1.811.882z" fill="#680303"/><path d="m44.215 24.503s-.728-2.268-1.965-1.178l-.303-.675s2.247-.445 2.268 1.853z" fill="#680303"/><path d="m43.986 32.382c.977.192 2.251.177 2.323.176l-.004-.249c-.023 0-2.355.03-3.058-.44-.111-.073-.175-.173-.194-.304-.068-.451.403-1.149.591-1.38l-.193-.157c-.03.037-.742.923-.644 1.574.03.201.132.361.302.474.205.137.521.236.877.306z" fill="#8f4e24"/><path d="m48.114 30.209.247.024c.077-.761-.238-1.507-.913-2.159-.665-.643-1.584-1.078-1.79-1.05l.033.246-.008.001c.132.004 1.129.428 1.811 1.213.473.543.681 1.123.62 1.725z" fill="#8f4e24"/><path d="m42.37 29.424.248.005c-.013-1.479.822-2.464.83-2.474l-.194-.148c-.037.042-.898 1.057-.884 2.617z" fill="#8f4e24"/><path d="m45.408 27.129s.146.267-.237.229c-.383-.037-1.807-.471-1.758-.624 0 0-.347.589.377.73.629.123 1.952.457 1.952.457l.13-.495-.249-.353z" fill="#c95c1d"/><path d="m43.864 27.667c.307.079.65.101.879.114l.159.014.189.074c.327.14.568.229.688.104.086-.09.191-.34.144-.59-.031-.161-.138-.373-.467-.449l-.049.195c.201.046.313.152.344.311.031.165-.038.342-.085.391-.065.038-.384-.098-.503-.149-.093-.04-.166-.069-.215-.083-.029-.006-.08-.01-.184-.017-.341-.021-1.379-.086-1.407-.525-.031-.484.949-2.341 1.33-3.016l-.146-.099c-.144.254-1.4 2.504-1.359 3.144.022.322.328.49.682.581z" fill="#8f4e24"/><path d="m40.327 23.28c-.602 4.468-1.178 9.144 1.452 11.731-1.174-2.007-1.608-4.965-1.633-5.146 1.094 4.01 4.895 5.43 4.895 5.43 7.23 2.197 9.538-4.788 10.243-8.354.694-3.51-.639-5.532-.681-5.595 3.062 2.107.239 11.544.239 11.544 1.618-2.204 2.05-7.132 1.669-9.73-.375-2.558-4.496-5.269-4.624-5.354.094.03 1.904.638 4.43 3.75 2.558 3.15-.352 11.648-.434 11.886 1.494-2.389 2.482-7.873 2.872-12.266.39-4.395-5.25-7.003-5.25-7.003 1.751.347 3.631 1.672 4.649 2.467-.118-.534-.327-1.045-.562-1.501-1.098-1.037-2.396-1.622-3.39-2.312-1.684-1.172-5.589-1.177-8.259-.028-.462.198-.844.438-1.166.699-.386.312-.683.657-.926 1.004-.438.627-.693 1.263-.944 1.724-.165.305-.33.532-.545.632-.28.13-.475.49-.64.949v.001c-.344.962-.556 2.348-1.153 2.911-.881.83-.219 2.393-.242 2.561zm.856-1.747c6.649-6.318 13.098 1.44 13.301 1.624 0 0 .471 1.1-.205 4.351-.676 3.252-4.637 6.973-6.56 7.487-1.922.513-4.059-1.602-5.948-3.668-1.892-2.068-.588-9.794-.588-9.794z" fill="#005a7a"/><path d="m40.145 29.855s.422 3.084 1.635 5.156c.501.494 1.119.913 1.875 1.238 4.724 2.036 12.546.517 13.337-.093s.105-2.471.062-3.102c-.043-.632 1.54-3.672 1.833-4.668s1.52-6.957.54-10.241c-.401-1.347-1.069-2.287-1.834-3.008.236.456.444.968.562 1.501-1.017-.795-2.897-2.12-4.648-2.467 0 0 5.64 2.608 5.25 7.003-.39 4.394-1.38 9.884-2.874 12.271 0 0 3.029-8.694.436-11.891-2.525-3.112-4.336-3.72-4.429-3.749.128.085 4.248 2.795 4.623 5.353.38 2.599-.052 7.527-1.669 9.73 0 0 2.823-9.436-.239-11.544.042.062 1.375 2.085.682 5.595-.705 3.566-3.014 10.551-10.244 8.354-.002.002-3.809-1.421-4.898-5.438z" fill="#002636"/><path d="m41.724 17.806c.818-.643 2.377-1.602 3.753-1.719 0 0-1.305-.062-2.568.138-.165.305-.33.532-.545.632-.281.129-.475.49-.64.949z" fill="#003144"/><path d="m43.853 14.501c1.553-.597 3.944-.524 3.944-.524-.987-.29-2.085-.423-3.019-.479-.385.312-.682.656-.925 1.003z" fill="#003144"/><path d="m49.285 36.988c1.274.479 10.659 8.477 11.176 9.156.724-.354.577-1.428.077-1.902 0 0-7.898-6.429-9.664-7.845-1.406-1.127-1.534-.044-1.589.591z" fill="#db804e"/><path d="m49.283 36.949c-.014.164.067.432.079.465.059.161 9.07 7.976 9.634 8.855.172.269 1.221.14 1.54-.018-.516-.679-9.977-8.822-11.253-9.302z" fill="#c95c1d"/><path d="m49.878 38.375s7.995 7.915 9.373 8.154c.387.066 1.477-.134 1.769-.296-.107.005-.22-.002-.334-.021-1.196-.206-9.278-6.789-10.149-8.023-.351.165-.659.186-.659.186z" fill="#002636"/><path d="m51.524 36.898c-.081.431-.271.737-.496.952-.156.153-.329.261-.492.338.871 1.234 8.953 7.817 10.149 8.023.114.02.227.026.334.021.748-.414.188-1.328-.032-1.876-.251-.628-7.723-5.913-9.018-7.065-.278-.245-.445-.393-.445-.393z" fill="#006181"/><path d="m49.993 37.145s-.826.393-1.211.201-1.382-.688-1.382-.688.95-2.194 1.812-2.21l1.345 1.938c.005.08-.253.635-.564.759z" fill="#db804e"/><path d="m47.721 36.515s-1.472.991-1.778.785c-.307-.205-.044-.482.205-.732s1.586-.598 1.586-.598z" fill="#db804e"/><path d="m48.175 35.958s-1.366.031-2.021-.046c0 0-1.066.5-1.316.108-.25-.391.938-.741 1.209-.785.271-.043 2.264.097 2.264.097z" fill="#db804e"/><path d="m48.722 34.861s-1.609-.517-1.852-.531c-.242-.014-1.46-.032-1.622.295-.164.328.755.447 1.217.375.463-.071 1.802.532 1.802.532z" fill="#db804e"/><path d="m49.212 34.447s-1.479-.789-1.598-.795-1.486-.42-1.675-.069c-.188.351.994.655 1.301.647.306-.008 1.327.582 1.327.582z" fill="#db804e"/></svg>