<svg id="Layer_1" enable-background="new 0 0 100 100" viewBox="0 0 100 100" xmlns="http://www.w3.org/2000/svg"><g><path d="m51.754 15.657s1.443 6.067 1.245 8.434-.333 4.091-.333 4.091l-9.009.989-1.837-12.438 5.503-3.296z" fill="#bababa"/><g><g><path d="m43.696 86.342s5.987.55 6.309 1.208c.285.581-.356 1.051-.356 1.051l-2.518-.174-2.483-1.092z" fill="#06090a"/><path d="m43.647 86.334s-.253.572-.121.675.168.236 1.768.793 1.253.652 2.354.883c1.582.332 2.001-.083 2.001-.083l-.023-.542s-1.375.109-2.617-.154c-1.525-.325-3.362-1.572-3.362-1.572z" fill="#06090a"/><path d="m44.104 83.037s.141 1.734-.224 2.505c-.366.771-.197 1.234.286 1.408.482.174 2.771.703 3.592.982.821.278 1.653.473 1.793.17.14-.302-.291-.698-.665-.655-.375.043-.26.222-.26.222s1.161.379 1.166-.005-.444-.403-.444-.403l-.023.128s.549.324.589.129-.114-.378-.628-.456c-.513-.077-2.348-1.055-2.719-1.697-.372-.642-.177-2.076-.177-2.076z" fill="#c96c2e"/><g fill="#06090a"><path d="m43.972 85.02-.134.53s2.284-.085 2.664-.349l-.078-.466s-1.255.354-2.452.285z"/><path d="m44.539 85.41c-.008.046-.467 1.626-.467 1.626l.337.061.467-1.626z"/><path d="m45.426 87.516s1.008-1.464 1.905-1.524l1.391.804s-1.678.608-1.941 1.107z"/></g></g><g><path d="m55.735 85.714s5.706-1.895 6.265-1.422c.493.418.095 1.106.095 1.106l-2.377.85-2.713-.005z" fill="#06090a"/><path d="m55.687 85.725s-.003.625.159.667c.162.041.249.149 1.938.018s1.409.095 2.51-.134c1.582-.329 1.8-.878 1.8-.878l-.238-.488s-1.216.651-2.46.907c-1.526.315-3.709-.092-3.709-.092z" fill="#06090a"/><path d="m54.785 82.522s.824 1.532.798 2.385.314 1.21.826 1.176 2.821-.466 3.685-.54 1.703-.229 1.711-.562c.007-.333-.546-.523-.872-.334s-.149.308-.149.308 1.216-.118 1.067-.472-.569-.192-.569-.192l.03.126s.633.077.591-.118-.256-.301-.758-.166c-.501.135-2.574-.026-3.171-.465-.598-.439-.994-1.831-.994-1.831z" fill="#c96c2e"/><g fill="#06090a"><path d="m55.458 84.392.09.54s2.059-.993 2.301-1.388l-.258-.396s-1.008.827-2.133 1.244z"/><path d="m56.134 84.521c.011.046.224 1.677.224 1.677l.333-.08-.224-1.677z"/><path d="m57.791 86.096s.337-1.745 1.135-2.16l1.597.18s-1.294 1.23-1.335 1.792z"/></g></g><path d="m56.385 65.903 1.465 16.776c-.421.146-1.012.281-1.716.404-.061-.132-.165-.223-.319-.263-1.83-.474-2.191-8.243-2.854-8.939s-1.183 5.81-3.116 8.043c-1.933 2.232-3.449-1.859-3.449-1.859l-3.063 2.334c-.453-2.507-1.215-6.912-1.17-7.961.063-1.488 1.281-8.124 1.281-8.124l.498-14.917 2.452-.143 7.97-.464z" fill="#ffdbcc"/><g fill="#e0c5b5"><path d="m47.226 62.969c-2.149 2.557-.936 16.702-.507 21.034-1.794.107-3.06.16-3.06.16s-1.56-8.238-1.496-9.726c.063-1.488 1.281-8.124 1.281-8.124l.498-14.917 2.452-.143 3.332 2.334c-.001 0 .045 6.355-2.5 9.382z"/><path d="m56.134 83.083c-2.566.449-6.628.752-9.416.92-1.794.107-3.06.16-3.06.16s-.136-.716-.326-1.765l3.063-2.334s1.516 4.091 3.449 1.859c1.933-2.233 2.452-8.739 3.116-8.043.663.697 1.025 8.465 2.854 8.939.156.041.259.132.32.264z"/></g></g><g><g><path d="m59.841 21.474s2.571 6.241 2.413 7.427c-.158 1.187-.241 2.877-.572 3.011-.331.135-1.456-.895-2.243-2.202-.069-.114-.243-5.723-1.395-8.393z" fill="#c96c2e"/><path d="m56.07 18.08c.177.186.059.435.356.968.298.532.162.621.351 1.17.19.549 1.405 1.45 1.405 1.45.52-.086.632-.479.632-.479l.839-.498-.398-1.657s-2.236-.637-2.363-1.116-1.115-1.772-1.369-1.621c-.244.145.371 1.597.547 1.783z" fill="#9b5925"/><g fill="#c96c2e"><path d="m59.166 18.976s-.338.239-.908.048c0 0-.05.362-.16.438 0 0 .155-.082.183.244s-.407.037-.637-.22.388-1.012.388-1.012l1.352-.153c.001 0 .22.322-.218.655z"/><path d="m59.193 18.644s.049.351-.251.522-.753.532-.697 1.184c.055.651.175.902.466 1.052s1.131.073 1.131.073-.014-2.948-.09-3.058-.367-.095-.367-.095z"/><path d="m59.667 18.472s.027-.615-.298-.596c-.325.018-1.482-.125-1.668.088s-.567.877-.533 1.019.253.536.426.335.507-.641.507-.641z"/><path d="m59.382 17.993s-.046-.342-.242-.384c-.197-.042-1.527-.266-1.698-.155-.17.111-.588.934-.55 1.194.039.26.281.306.382.231s.58-.765.58-.765z"/><path d="m59.101 17.669s-1.464-.912-1.7-.739-.686.552-.703.728c-.017.175-.079.49.071.631.151.141.401-.091.412-.229.012-.138.324-.365.324-.365z"/><path d="m58.228 21.657 1.613-.182-.188-.784-.839.498s-.066.382-.586.468z"/></g></g><path d="m60.225 22.425-.181-.757s-.879-.063-1.758.582l.23.838z" fill="#e0c5b5"/><path d="m52.711 34.546c2.957.449 7.249-1.119 8.884-2.196-.417-.917-1.114-2.153-1.114-2.153s-7.22 1.251-8.027 1.753c-.677.421-.366 1.664.257 2.596z" fill="#ffdbcc"/><path d="m59.439 31.391c.324.57.987 1.025 1.534 1.325.79-.421 1.284-.813 1.288-1.054.011-.83-2.42-9.552-2.42-9.552-.677.14-1.657.445-1.706 1.054-.018.236.699 7.159 1.304 8.227z" fill="#ffdbcc"/><g fill="#e0c5b5"><path d="m52.711 34.546c-.024.755.162 1.274.602 1.381 1.194.289 8.803-2.165 8.514-3.01-.054-.159-.136-.355-.232-.567-1.635 1.078-5.927 2.645-8.884 2.196z"/><path d="m60.973 32.716c.475.26.862.404.862.404s1.388-1.71.907-3.408c-.482-1.698-2.264-7.703-2.264-7.703s-.276.027-.637.101c0 0 2.432 8.723 2.42 9.552-.003.24-.498.632-1.288 1.054z"/></g></g><g><path d="m54.433 51.347c.042.669-.451 1.081-1.042 1.431-.321.191-.68.341-1.064.456-3.541 1.062-8.268-.72-8.268-.72s-1.121-7.996-2.035-11.695c-.914-3.698-1.314-8.913-1.314-8.913s3.91-1.891 4.998-2.991l3.439.155s2.379 1.763 4.256 2.568c0 0 .526 4.378-.503 7.185-1.03 2.804 1.486 11.047 1.533 12.524z" fill="#ffdbcc"/><path d="m45.322 41.636c3.216 4.511 4.08 10.898 4.248 11.922-3.172-.04-5.511-1.045-5.511-1.045s-1.121-7.996-2.035-11.695c-.914-3.698-1.313-8.913-1.313-8.913s.447-.165 1.073-.447c.194 2.217.834 6.388 3.538 10.178z" fill="#e0c5b5"/><g><path d="m49.651 28.009.09 1.491-1.263.777c-.94-.036-1.787-.431-2.339-.764.828-.582 2.134-1.338 3.512-1.504z" fill="#c96c2e"/><path d="m49.61 26.575.041 1.434c-1.377.166-2.683.922-3.512 1.505-.411-.246-.62-.426-.62-.426l.201-3.257z" fill="#9b5925"/></g><g><path d="m48.823 30.721c-1.72.244-3.732-1.037-3.845-1.236l.555-1.399c.027.02 2.775 2.029 4.191.537l.488 1.21c-.206.532-.859.813-1.389.888z" fill="#e4baa0"/></g><g><path d="m49.483 30.354 1.722 13.847-1.441.287-2.243-14.102z" fill="#e4baa0"/><g fill="#ef8e5b"><g><path d="m48.147 32.016-.192.03-.182-1.224.192-.029z"/><path d="m48.45 34.045-.193.03-.182-1.224.193-.029z"/><path d="m48.752 36.074-.192.03-.183-1.224.193-.03z"/><path d="m49.054 38.103-.192.029-.182-1.223.192-.029z"/><path d="m49.357 40.132-.193.03-.182-1.224.192-.029z"/><path d="m49.659 42.161-.193.029-.182-1.223.193-.029z"/><path d="m49.961 44.19-.192.03-.183-1.224.193-.03z"/><path d="m48.564 32.776-.192.03-.12-.806.192-.029z"/><path d="m48.867 34.805-.193.03-.12-.806.192-.029z"/><path d="m49.169 36.834-.193.029-.12-.805.193-.029z"/><path d="m49.471 38.863-.192.03-.12-.806.192-.03z"/><path d="m49.773 40.892-.192.03-.12-.806.192-.029z"/><path d="m50.076 42.921-.193.03-.12-.806.193-.029z"/><path d="m48.474 32.168-.489.075-.03-.197.489-.075z"/><path d="m48.564 32.776-.489.075-.029-.197.489-.075z"/><path d="m48.776 34.197-.489.075-.03-.197.489-.075z"/><path d="m48.867 34.805-.49.075-.029-.197.489-.075z"/><path d="m49.078 36.226-.489.075-.029-.197.489-.075z"/><path d="m49.169 36.834-.489.075-.03-.197.489-.075z"/><path d="m49.38 38.255-.489.075-.029-.198.489-.075z"/><path d="m49.471 38.863-.489.075-.029-.197.489-.075z"/><path d="m49.683 40.284-.489.075-.03-.197.489-.075z"/><path d="m49.773 40.892-.489.075-.029-.197.489-.075z"/><path d="m49.985 42.313-.489.075-.03-.198.49-.074z"/><path d="m50.076 42.921-.49.075-.029-.197.489-.075z"/></g><g><path d="m49.377 31.855.194-.019-.141-1.229-.194.019z"/><path d="m49.61 33.893.193-.019-.14-1.229-.194.019z"/><path d="m49.842 35.93.194-.019-.14-1.228-.194.019z"/><path d="m50.075 37.968.194-.019-.14-1.229-.194.019z"/><path d="m50.308 40.006.194-.019-.141-1.229-.193.019z"/><path d="m50.541 42.043.194-.018-.141-1.229-.194.019z"/><path d="m50.774 44.081.193-.019-.14-1.229-.194.019z"/><path d="m49.17 32.693.194-.019-.092-.809-.194.019z"/><path d="m49.403 34.731.194-.019-.092-.809-.194.019z"/><path d="m49.636 36.768.194-.018-.093-.809-.194.018z"/><path d="m49.869 38.806.194-.019-.093-.809-.194.019z"/><path d="m50.102 40.844.193-.019-.092-.809-.194.019z"/><path d="m50.334 42.882.194-.019-.092-.809-.194.019z"/><path d="m49.1 32.082.493-.048-.022-.198-.493.048z"/><path d="m49.17 32.693.493-.048-.023-.198-.492.048z"/><path d="m49.333 34.12.493-.048-.023-.198-.492.048z"/><path d="m49.403 34.731.493-.048-.023-.198-.492.048z"/><path d="m49.566 36.158.493-.048-.023-.199-.493.048z"/><path d="m49.636 36.768.493-.048-.023-.198-.493.048z"/><path d="m49.799 38.195.493-.048-.023-.198-.493.048z"/><path d="m49.869 38.806.492-.048-.022-.198-.493.048z"/><path d="m50.032 40.233.492-.048-.022-.198-.493.048z"/><path d="m50.102 40.844.492-.048-.023-.198-.492.048z"/><path d="m50.264 42.271.493-.048-.022-.198-.493.048z"/><path d="m50.334 42.882.493-.049-.023-.197-.492.047z"/></g><path d="m49.742 43.847h1.184v.291h-1.184z" transform="matrix(.99 -.14 .14 .99 -5.679 7.505)"/><path d="m47.786 30.704h1.661v.286h-1.661z" transform="matrix(.99 -.141 .141 .99 -3.851 7.136)"/></g></g></g><g><path d="m42.977 13.658c.215-.034 2.139-.304 3.879-1.029s4.655-.52 4.621 2.39-.835 2.57-.835 2.57z"/><path d="m50.646 14.527s.513 1.543.411 2.504c-.101.961-1.935-1.99-1.935-1.99z"/><path d="m42.535 20.037s.352 4.572 1.405 5.637c1.053 1.064 4.277 1.693 4.833 1.821s1.81.441 2.603-.427c.793-.869.755-3.776.768-3.938s-.126-2.058-.202-2.524c-.077-.467.015-2.071-.836-3.812-.436-.891-1.278-3.263-3.334-2.845-2.057.417-6.004-1.011-5.237 6.088z" fill="#c96c2e"/><path d="m43.635 18.803s.13 3.168.593 3.613c.464.445 1.324.531 1.766 1.24s1.674 2.069 2.661 2.134c.987.066 1.327-.836 1.327-.836l.819-.167s.638.815.881.409c.492-.821.376-2.429.4-2.793.019-.292.254.582.248.941s.557 3.64-.754 4.376-6.805-.607-7.678-1.766c-.874-1.158-1.615-5.601-1.432-6.701z"/><path d="m50.44 22.47s.21-.79.687-.458c.478.332.711.232.778.38.093.205.206 1.154.206 1.154l-.064.219s-.24-1.038-.373-1.083c-.133-.046-.698.075-.896.096-.197.021-.338-.308-.338-.308z"/><path d="m42.499 20.369 1.137-1.566s-.311-.91-.026-1.428c.491-.894-.063-1.54.478-1.726s.686-.032.686-.032-1.038-1.656-1.749-1.43-2.915.842-2.387 1.879c.527 1.037 1.81 3.212 1.861 4.303z"/><path d="m41.984 15.416s.444-.063.567-1.108c.123-1.046.726-.486 3.246-.956s3.887-.448 4.364.206c.477.653.535 2.212.394 3.247 0 0-.476-1.439-1.273-1.694 0 0-1.468.84-3.473.579-2.004-.261-2.243.522-2.243.522z"/><g><path d="m43.506 21.431s-.615-1.42-1.802-1.165-.742 2.461.358 3.054 1.63.039 1.63.039.528-.5-.186-1.928z" fill="#c96c2e"/><path d="m42.78 22.427c-.005-.342.236-1.002.108-1.255s-.637-.583-1.183-.247c0 0 1.01-.301 1.044.485-.517-.215-.761.126-.761.126.382-.119.625-.077.763-.019-.002.754-.191.987.074 1.135.274.153.442.021.442.021s-.483.096-.487-.246z" fill="#913f17"/></g><g><path d="m48.463 23.392s.337.966 1.407 1.19c1.304.272 1.643-.861 1.642-1.628.001 0-1.886.797-3.049.438z" fill="#950000"/><path d="m48.663 23.489s.274.37.692.391 1.602-.11 1.989-.362c0 0 .043-.447.036-.471-.007-.023-1.763.518-2.717.442z" fill="#fff"/><g fill="#942700"><path d="m48.221 23.298s-.124.047-.188.119c-.064.073-.093-.097.05-.178.144-.081.333-.073.329-.029-.002.044-.191.088-.191.088z"/><path d="m51.512 22.908.002.126c-.517.196-1.973.478-2.275.485-.47.01-1.059-.089-1.132-.163s.111-.081.111-.081.702.143 1.05.125c.305-.015 1.775-.295 2.244-.492z"/></g></g><path d="m48.541 19.615.045.422s-1.152-.125-1.624.543c-.001 0 .192-.786 1.579-.965z" fill="#950000"/><path d="m50.413 19.625s.55-.404 1.171-.156l-.073-.26c.001-.001-.703-.345-1.098.416z" fill="#950000"/><path d="m48.54 17.242c-.33.15-.091.784-2.126 1.528 0 0-.029.444.194.385 0 0 1.677-.368 2.125-1.274-.001.001.136-.789-.193-.639z"/><path d="m51.413 18.033c-.022-.062-.086-.114-.086-.114s-.728.072-1.171-.394c0 0-.222-.248-.283-.169 0 0-.224.395.202.656 0 0 .292.303 1.341.221 0-.002.019-.139-.003-.2z"/><path d="m46.702 24.743s.241-1.329.86-1.437 2.016.024 2.759-.453-.241-.764-.241-.764-2.497.641-2.787.655-1.064 1.051-.932 2.055c.133 1.005.341-.056.341-.056z"/><g><path d="m49.555 18.73.414.052.755 1.495-.916.437z" fill="#c96c2e"/><path d="m49.241 21.454s.416-.406.57-.094c.154.313 1.277.164 1.346-.121 0 0 .258.269.201.44-.057.172-.215.428-.215.428l-.2.089-.299-.109-.268-.118-.285.047-.412.115-.302.045-.221-.047-.107-.132.026-.237z" fill="#cc5604"/><path d="m49.241 21.454s-.33.332-.22.585.537.193 1.044.033.665.272.999.143c.334-.128.437-.464.393-.613-.043-.149-1.495-2.732-1.498-3.021 0 0-.056.138.117.473.174.335 1.171 2.284 1.214 2.523s-.215.593-.388.564c-.173-.028-.477-.306-.692-.224-.215.081-.754.284-.949.188-.196-.094-.204-.135-.02-.651z" fill="#942700"/><path d="m51.138 21.329c.027.099-.093.22-.269.27-.176.051-.34.012-.368-.087-.027-.099.093-.22.269-.271.176-.05.341-.011.368.088z" fill="#a8aaaa" opacity=".43"/></g></g><g><g><g fill="#9b5925"><path d="m41.881 59.331s.519.956.497 1.341-.335.286-.411.266-.749-1.183-.749-1.183z"/><path d="m40.262 59.72s.596 1.129.956 1.168.641-.084.621-.113c-.019-.029-.661-1.152-.661-1.152z"/><path d="m39.895 59.694s.549 1.036.646 1.076c.097.039.451-.008.46 0 .009.007-.553-1.174-.553-1.174l-.394-.128z"/><path d="m39.673 59.668s.381.983.446 1.013c.065.029.465 0 .465 0l-.601-1.112z"/></g><path d="m39.503 56.774c0 .158.194 2.543.137 2.78-.058.237.403.131.468.072s.022.118.389.158c.368.039.411-.217.605-.099.195.118.411.256.649.158.238-.099.335-.217.335-.217s.011-.68.249-.513c.238.168.292.907.692 1.114s.454-.315.227-.73c-.227-.414-.227-1.055-.389-1.321s-.794-1.065-1.354-1.44c-.469-.314-.473-.309-.938-.661z" fill="#c96c2e"/></g><path d="m39.155 55.836c.016.044.348.938.348.938l1.371-.491-.193-.696z" fill="#c96c2e"/><g><g><path d="m40.736 54.85.143 1.178s-1.226.339-1.867-.037l-.273-1.393z" fill="#e4baa0"/><path d="m41.179 55.448c-.869.048-1.448.039-1.83.011l-1.267-11.463c1.156-.008 2.767.503 2.767.503z" fill="#ffdbcc"/><path d="m39.349 55.459c-.591-.043-.713-.133-.713-.133l-1.479-11.113c.207-.156.542-.215.926-.218z" fill="#e0c5b5"/></g><path d="m39.983 34.585c-.086-1.06.679-2.348 1.225-3.12.1-.053.206-.094.321-.114.066-.012.119-.038.163-.072h.258c.335.841.911 2.66.653 4.741-.355 2.865-1.753 8.479-1.753 8.479l-2.669-.207c0 .001 1.935-8.077 1.802-9.707z" fill="#ffdbcc"/><path d="m39.08 34.997c.168-1.249.908-2.361 1.564-3.128.185-.144.364-.298.564-.403-.546.772-1.312 2.06-1.225 3.12.133 1.63-1.802 9.707-1.802 9.707l-1.024-.079c-.001 0 1.746-7.905 1.923-9.217z" fill="#e0c5b5"/></g></g><g><g><g fill="#fff"><path d="m51.754 15.657-.195.326s1.135 5.791 1.037 7.023-.411 5.229-.411 5.229l.481-.053s.375-4.706.378-5.437c.002-.73-1.29-7.088-1.29-7.088z"/><path d="m51.541 14.669c-.003-.008-.006-.016-.009-.024-.017-.04-.039-.088-.066-.143-.006-.012-.011-.024-.017-.035-.006-.012-.011-.025-.018-.037-.082-.162-.196-.37-.33-.598-.041-.07-.084-.142-.13-.215-.261-.428-.576-.896-.879-1.254v-.001c-.086-.1-.171-.193-.252-.273-.03-.029-.059-.056-.087-.082-.059-.053-.199-.139-.409-.237-.068-.032-.144-.064-.226-.098-.085-.034-.178-.068-.278-.102-.117-.04-.245-.081-.381-.118-.065-.018-.132-.035-.201-.052-.018-.005-.035-.009-.054-.014h-.001c-.068-.015-.139-.031-.211-.046-.078-.016-.159-.031-.243-.045-.381-.065-.806-.106-1.267-.108-.042-.001-.085 0-.128 0-.357.004-.735.033-1.131.092h-.001c-.046.007-.09.014-.137.021-.079.014-.158.028-.239.043-.194.038-.39.083-.59.137-.059.016-.118.031-.177.049-.026.008-.052.015-.078.023-.036.01-.071.021-.107.032-.082.026-.165.052-.247.081-.08.026-.16.055-.241.085-.083.031-.167.064-.25.097-.385.156-.728.321-1.033.492-.049.028-.097.055-.144.083-.025.015-.05.03-.075.045-.045.027-.088.055-.132.083-.404.259-.729.534-.991.816v.001c-.002.001-.003.003-.005.005-.076.081-.145.165-.21.248-.286.365-.476.741-.597 1.12-.011.034-.021.067-.031.101-.006.02-.012.04-.017.06-.009.028-.016.056-.023.084-.111.447-.138.893-.129 1.32.002.081.005.163.009.243.007.134.016.266.026.395.016.21.033.517.046.897.003.078.005.159.008.243.012.378.022.814.029 1.287 0 0 .007.024.019.069.001.057.001.115.002.172h.043c.018.071.039.156.062.254.045.188.097.421.15.688v.001c.022.11.044.225.066.345.006.033.012.066.018.101.004.049.009.096.015.142.034.299.072.544.111.712.032.252.056.514.073.776.004.06.007.119.01.179.022.455.015.912-.038 1.338-.009.08-.02.16-.033.238-.045.27-.099.541-.158.808l-.001.001c-.014.072-.031.143-.049.215v.001c-.027.121-.056.239-.087.357-.021.082-.042.164-.063.245-.189.711-.396 1.353-.557 1.816-.015.047-.031.093-.046.136-.008.021-.014.041-.021.061-.022.059-.042.113-.059.163-.037.1-.067.182-.09.245-.022.061-.039.102-.048.124-.001.003-.002.006-.003.008-.002.006-.004.009-.004.009h-.001c-.126.4-.151.622.087.606.026-.001.055-.005.087-.013.066-.016.146-.042.241-.082.185-.076.428-.201.743-.377.169-.095.321-.141.457-.145.013-.001.024-.002.036 0 .254.004.451.155.604.399h.001c.005.009.01.018.016.027.021.034.041.071.06.109.008.016.017.034.025.051s.017.035.024.053c.042.094.081.197.115.306.024.074.046.152.066.232.009.037.019.072.027.11.009.04.019.079.027.12v.001c.04.186.073.381.1.577.012.08.023.161.032.242.018.148.034.296.048.441.067.711.091 1.349.156 1.597.007.029.018.056.031.08.064.112.193.176.359.203.161.028.359.022.568-.003.079-.01.16-.022.242-.037.086-.016.173-.033.259-.053.242-.054.476-.121.665-.18.257-.08.431-.144.431-.144s-.011-.138-.03-.384c-.005-.072-.011-.153-.018-.243-.006-.094-.014-.197-.022-.308-.013-.17-.028-.359-.043-.565-.004-.055-.007-.111-.012-.169-.008-.1-.015-.203-.024-.31-.005-.079-.011-.161-.017-.244-.009-.113-.017-.229-.027-.349-.014-.193-.03-.393-.046-.599-.01-.132-.02-.267-.03-.405-.007-.08-.013-.161-.019-.243-.034-.445-.069-.912-.106-1.389-.007-.081-.013-.162-.02-.243-.035-.459-.07-.927-.106-1.393v-.001c-.004-.051-.008-.1-.012-.15-.016-.216-.032-.431-.048-.644v-.001c-.005-.059-.009-.115-.014-.173-.036-.478-.074-.947-.109-1.4-.006-.081-.012-.162-.018-.242-.036-.455-.07-.89-.103-1.293-.005-.083-.013-.164-.018-.244-.014-.168-.027-.331-.04-.486-.005-.058-.009-.114-.013-.17-.007-.087-.014-.17-.021-.251-.002-.031-.005-.062-.008-.091-.004-.043-.008-.086-.011-.128-.01-.118-.02-.231-.028-.335-.007-.087-.014-.167-.02-.241v-.001c-.009-.09-.016-.173-.022-.248l-.001-.004c-.005-.061-.01-.119-.013-.177-.001-.019-.002-.039-.003-.057-.002-.035-.003-.069-.003-.102-.001-.025-.001-.05-.001-.075-.001-.057.001-.113.002-.169l.004-.088c.001-.022.002-.043.004-.065.007-.107.019-.21.035-.31.012-.085.028-.166.047-.246.097-.421.266-.776.478-1.088.03-.043.059-.086.09-.126.007-.011.015-.021.024-.031.027-.037.056-.073.084-.108.153-.19.322-.364.498-.531.074-.07.149-.139.226-.207.12-.107.242-.212.364-.317.418-.359.949-.56 1.496-.57.071-.002.142.001.213.006.011 0 .021.002.031.002.569.038.942-.018 1.206-.114.051-.018.098-.037.141-.058.034-.017.065-.033.095-.05.001-.001.003-.001.004-.002.23-.132.353-.29.499-.385.012-.008.023-.015.035-.021.007-.004.014-.008.022-.012.016-.007.03-.014.046-.02.002-.001.003-.001.004-.002.014-.006.028-.01.043-.014.019-.006.038-.009.058-.012.011-.002.021-.003.032-.004.048-.004.101-.002.161.007.268.041.572.184.857.358.067.041.134.083.198.127.023.015.047.031.069.047.022.014.042.03.063.044.238.167.444.336.58.452.108.092.171.152.171.152l.095-.159.1-.167v-.001c-.001.003-.029-.531-.213-.985z"/></g><g><path d="m52.466 27.563.015.495c.002.067-.051.124-.118.125-.067.002-.124-.051-.125-.118l-.011-.364c.005-.062.01-.129.015-.2.02-.033.057-.055.099-.057.067-.001.123.053.125.119z" fill="#f00"/><path d="m52.735 27.12c.002.068-.05.123-.118.125l-.356.011c.006-.078.013-.16.019-.244l.331-.01c.067-.001.123.051.124.118z" fill="#f00"/><path d="m52.41 26.169.015.496c.001.067-.051.123-.118.125-.003 0-.006 0-.009-.001.018-.227.037-.468.057-.717.032.021.054.056.055.097z" fill="#f00"/><path d="m52.983 23.916c-.015.224-.031.467-.049.72-.034-.02-.057-.058-.059-.1l-.015-.496c-.002-.067.051-.123.118-.125.001 0 .004 0 .005.001z" fill="#f00"/><path d="m52.918 21.775c-.022.03-.056.051-.095.052-.067.002-.123-.051-.125-.118l-.015-.496c-.002-.067.051-.123.118-.125.044.248.083.48.117.687z" fill="#f00"/><path d="m52.762 20.868-.243.008c-.067.002-.123-.051-.125-.118s.051-.122.118-.125l.208-.006c.013.081.028.161.042.241z" fill="#f00"/><path d="m52.686 20.449c-.065.001-.119-.05-.122-.117l-.015-.495c-.001-.019.003-.038.011-.055.044.226.086.45.126.667z" fill="#f00"/><path d="m52.991 22.243-.339.01c-.031.001-.061-.01-.083-.03-.005-.055-.011-.111-.016-.169.022-.027.055-.043.092-.045l.31-.009c.013.088.025.169.036.243z" fill="#f00"/><path d="m52.333 20.091c.001.034-.012.064-.033.086-.009-.063-.02-.126-.03-.189.037.02.062.059.063.103z" fill="#f00"/><path d="m51.835 16.061c-.004.001-.007.001-.011.001l-.249.008c-.011-.056-.017-.086-.017-.086l.095-.159.133-.004c.014.063.03.144.049.24z" fill="#f00"/><path d="m51.786 15.82-.133.004.1-.167c.001.001.012.058.033.163z" fill="#5c5c5c"/><g fill="#f00"><path d="m51.74 16.385.015.496c0 .022-.004.043-.015.062-.051-.279-.095-.51-.126-.676h.002c.067-.001.122.051.124.118z"/><path d="m52.067 17.336c.002.067-.051.123-.118.125l-.112.003c-.015-.083-.03-.164-.044-.242l.148-.004c.067-.001.124.051.126.118z"/><path d="m52.244 18.12c-.064-.001-.116-.053-.118-.117-.002-.05.028-.095.072-.115.015.077.031.155.046.232z"/><path d="m52.2 18.714c.002.067-.051.123-.118.125h-.002c-.014-.081-.028-.161-.042-.241l.036-.001c.068-.003.124.05.126.117z"/><path d="m52.508 19.495-.123.004c-.067.002-.123-.051-.125-.118s.051-.124.118-.125l.084-.003c.016.08.03.161.046.242z"/><path d="m53.026 22.504c.012.108.018.189.018.242 0 .09-.006.238-.016.432-.019.016-.044.026-.072.027-.067.002-.122-.051-.125-.118l-.015-.496c-.002-.067.051-.123.118-.125.036-.001.069.014.092.038z"/><path d="m53.012 23.448c-.004.077-.01.158-.015.244l-.302.009c-.067.001-.124-.051-.126-.119-.002-.067.051-.122.118-.125z"/><path d="m52.644 24.294c.002.067-.051.123-.118.126l-.043.001c.006-.083.013-.165.019-.244h.016c.068-.003.124.05.126.117z"/><path d="m52.917 24.879c-.007.081-.012.162-.018.244l-.179.005c-.067.001-.124-.051-.126-.118-.001-.068.051-.123.118-.125z"/><path d="m52.669 25.72c.002.067-.051.123-.118.125l-.179.005c.007-.081.013-.163.02-.244l.153-.004c.066-.002.122.051.124.118z"/><path d="m52.814 26.284c-.007.083-.014.165-.02.244h-.008c-.067.002-.123-.051-.125-.118s.051-.123.118-.125z"/><path d="m43.647 11.666.006.202c.002.067-.051.123-.118.125s-.124-.051-.126-.118l-.003-.123c.081-.031.161-.059.241-.086z"/><path d="m44.63 11.591c.002.067-.051.123-.118.125l-.496.015c-.067.002-.122-.051-.125-.118 0-.01 0-.019.003-.028.122-.038.243-.073.363-.104l.248-.007c.067-.003.123.05.125.117z"/><path d="m45.086 11.301c.002.009.004.019.004.029l.015.495c.001.067-.051.123-.118.126-.067.001-.123-.051-.125-.118l-.015-.489c.08-.015.16-.03.239-.043z"/><path d="m46.081 11.548c.002.067-.051.123-.118.126l-.496.014c-.067.002-.122-.051-.125-.118-.002-.067.051-.122.118-.125l.495-.015c.068-.002.123.051.126.118z"/><path d="m51.654 15.824-.095.159s-.063-.06-.171-.152z"/><path d="m51.616 14.986.014.495c.002.067-.051.123-.118.125s-.123-.051-.125-.118l-.015-.496c-.002-.067.051-.123.118-.125.068-.001.124.051.126.119z"/><path d="m51.157 15.247c.002.067-.051.123-.118.126l-.232.007c-.105-.075-.216-.149-.33-.218.018-.01.038-.017.06-.018l.495-.015c.066-.002.122.051.125.118z"/><path d="m44.012 31.96.015.495c.002.068-.051.123-.118.125s-.123-.051-.125-.118l-.014-.496c-.002-.067.051-.123.118-.125.066-.001.122.052.124.119z"/><path d="m43.553 32.221c.002.067-.051.123-.118.125l-.496.015c-.067.001-.123-.051-.125-.118s.051-.124.118-.126l.495-.015c.067-.001.124.052.126.119z"/><path d="m44.466 29.524c.016.206.032.406.046.599-.02-.021-.032-.048-.033-.079l-.015-.496c-.001-.008 0-.016.002-.024z"/><path d="m44.417 28.876c.006.082.013.163.019.243l-.088.002c-.067.002-.123-.051-.125-.118s.051-.123.118-.125z"/><path d="m41.805 29.626.01.345c-.035-.163-.074-.318-.12-.462.061.006.108.055.11.117z"/><path d="m44.247 29.802c.002.067-.051.123-.118.125l-.496.015c-.067.002-.122-.051-.125-.118-.002-.067.051-.122.118-.125l.495-.015c.068-.002.123.052.126.118z"/><path d="m43.256 29.583.015.496c.002.067-.051.123-.118.125s-.123-.051-.125-.118l-.015-.496c-.001-.067.051-.122.118-.125.067-.002.123.052.125.118z"/><path d="m42.796 29.845c.002.067-.05.122-.118.125l-.494.015c-.068.002-.124-.051-.126-.118s.051-.123.118-.125l.495-.015c.067-.002.124.051.125.118z"/><path d="m42.081 30.666c.002.067-.051.123-.118.125h-.017c-.009-.08-.02-.162-.032-.242l.041-.001c.069-.003.124.051.126.118z"/><path d="m42.541 30.404.015.495c.002.067-.051.124-.118.125-.067.002-.122-.051-.125-.118l-.015-.494c-.002-.068.051-.124.118-.126s.123.051.125.118z"/><path d="m43.532 30.623c.002.067-.051.123-.118.125l-.495.015c-.067.002-.124-.051-.126-.118-.001-.067.051-.122.118-.125l.495-.015c.067-.002.124.051.126.118z"/><path d="m43.991 30.361.015.496c.002.067-.051.123-.118.125s-.123-.051-.125-.118l-.015-.496c-.002-.067.051-.123.118-.125.068-.002.123.051.125.118z"/><path d="m44.538 30.471c.007.083.013.165.018.244l-.186.005c-.067.001-.123-.051-.125-.118-.002-.068.051-.123.118-.125z"/><path d="m44.58 31.025c.021.273.039.519.056.734-.004 0-.009.001-.012.001-.067.002-.123-.051-.125-.118l-.015-.495c-.002-.061.039-.11.096-.122z"/><path d="m44.267 31.4c.002.067-.051.124-.118.126l-.496.015c-.067.001-.122-.051-.125-.118-.002-.068.051-.123.118-.126l.495-.015c.069-.001.124.052.126.118z"/><path d="m43.277 31.182.015.495c.001.067-.051.124-.118.126s-.123-.051-.125-.118l-.015-.495c-.002-.067.051-.123.118-.125.066-.003.123.05.125.117z"/><path d="m42.817 31.443c.002.067-.051.123-.118.125l-.496.014c-.067.002-.123-.051-.125-.118s.051-.123.118-.125l.496-.015c.067-.001.123.052.125.119z"/><path d="m44.275 32.839c-.189.059-.423.126-.665.18-.009-.017-.016-.038-.016-.059-.002-.069.051-.123.118-.126l.495-.016c.025 0 .049.007.068.021z"/><path d="m43.341 32.719.01.353c-.082.015-.163.027-.242.037l-.012-.383c-.002-.067.051-.123.118-.126.067-.001.124.052.126.119z"/><path d="m42.881 32.98c.002.067-.051.123-.118.125l-.222.007c-.167-.027-.295-.091-.359-.203.021-.019.048-.031.079-.031l.495-.016c.067-.001.123.052.125.118z"/><path d="m42.561 32.002.015.495c.002.067-.051.124-.118.126s-.123-.051-.125-.118l-.015-.496c-.002-.067.051-.124.118-.126.068-.001.123.052.125.119z"/><path d="m44.658 32.068c.007.089.014.17.018.243l-.286.008c-.068.002-.123-.051-.125-.118s.051-.123.118-.125z"/><path d="m39.609 28.892.005.195c-.095.041-.175.067-.241.082l-.008-.27c-.002-.067.051-.124.118-.125.067-.002.123.051.126.118z"/><path d="m44.173 25.7c.005.05.009.1.013.151-.02-.02-.032-.049-.033-.08-.002-.026.006-.051.02-.071z"/><path d="m44.292 27.244c.006.082.012.163.019.244h-.014c-.067.002-.124-.051-.126-.118-.001-.067.051-.123.118-.125z"/><path d="m43.971 28.763.015.496c.002.067-.051.122-.118.125-.067.002-.123-.051-.125-.118l-.015-.495c-.002-.067.051-.122.118-.124.067-.004.123.049.125.116z"/><path d="m43.512 29.025c.002.067-.051.122-.118.125l-.495.015c-.067.002-.123-.051-.125-.118s.05-.123.118-.126l.495-.014c.067-.002.122.051.125.118z"/><path d="m42.521 28.806.014.496c.002.067-.05.122-.118.125-.067.002-.122-.051-.125-.118l-.015-.496c-.002-.067.051-.122.118-.125.067-.002.124.051.126.118z"/><path d="m42.061 29.066c.002.068-.051.124-.118.126l-.363.011c-.038-.087-.08-.167-.126-.24l.482-.015c.067-.001.122.052.125.118z"/><path d="m44.195 28.169c.002.067-.051.122-.118.125l-.495.015c-.067.002-.123-.051-.125-.118s.051-.123.118-.126l.496-.014c.067-.002.122.051.124.118z"/><path d="m43.205 27.95.015.496c.002.067-.051.122-.118.125-.067.002-.123-.051-.125-.118l-.015-.495c-.001-.067.051-.123.119-.125.066-.003.122.05.124.117z"/><path d="m42.745 28.211c.001.068-.051.123-.119.126l-.495.014c-.067.002-.123-.051-.125-.118s.051-.123.118-.126l.496-.015c.067 0 .123.052.125.119z"/><path d="m41.754 27.993.015.494c.002.067-.051.124-.118.126s-.123-.051-.125-.118l-.014-.496c-.002-.067.051-.124.118-.125.066-.001.122.051.124.119z"/><path d="m41.295 28.253c.002.067-.051.123-.118.125l-.495.015c-.067.001-.123-.051-.125-.118-.002-.068.051-.123.118-.125l.495-.015c.066-.002.123.052.125.118z"/><path d="m40.303 28.035.015.496c.002.067-.051.123-.118.125s-.122-.051-.125-.118l-.015-.496c-.002-.067.051-.123.118-.125.067-.003.124.051.125.118z"/><path d="m39.844 28.296c.002.067-.051.123-.118.125l-.463.013h-.01c.023-.063.054-.145.09-.245h.003l.371-.011c.068-.002.125.051.127.118z"/><path d="m41.019 27.214.015.495c.002.067-.051.123-.118.125-.067.001-.123-.051-.125-.118l-.015-.495c-.002-.067.051-.124.118-.126.066-.001.122.052.125.119z"/><path d="m42.469 27.171.014.496c.002.067-.05.123-.118.125-.067.002-.122-.051-.125-.118l-.015-.496c-.002-.067.051-.123.118-.125.068-.001.124.051.126.118z"/><path d="m42.009 27.433c.002.067-.051.123-.118.125l-.496.015c-.067.001-.122-.051-.125-.119-.002-.067.051-.122.118-.125l.495-.015c.069-.001.124.052.126.119z"/><path d="m40.559 27.476c.002.067-.051.123-.118.125l-.495.015c-.067.002-.123-.051-.125-.118s.051-.123.118-.125l.495-.015c.067-.002.123.051.125.118z"/><path d="m43.46 27.39c.002.068-.051.123-.118.126l-.496.015c-.067.002-.123-.051-.125-.118s.051-.124.118-.126l.495-.014c.069-.002.124.05.126.117z"/><path d="m43.919 27.13.015.495c.002.067-.051.123-.118.125s-.122-.051-.125-.118l-.015-.495c-.002-.067.051-.123.118-.125.068-.003.124.05.125.118z"/><path d="m44.175 26.57c.002.067-.05.123-.118.125l-.495.015c-.068.002-.123-.051-.126-.118-.002-.067.051-.123.118-.125l.495-.015c.068-.001.124.051.126.118z"/><path d="m43.184 26.351.015.496c.002.067-.051.123-.118.125s-.123-.051-.125-.118l-.014-.496c-.002-.067.051-.123.118-.125.066-.001.122.051.124.118z"/><path d="m42.449 25.573.015.496c.001.067-.051.124-.118.125s-.123-.051-.125-.118l-.015-.496c-.002-.067.051-.123.118-.125.066-.002.122.051.125.118z"/><path d="m40.998 25.616.015.496c.002.067-.051.122-.118.125s-.124-.051-.125-.118l-.015-.496c-.001-.067.051-.122.119-.125.066-.002.122.051.124.118z"/><path d="m40.538 25.878c.001.067-.051.123-.119.125l-.393.011c.021-.081.042-.163.063-.245l.323-.009c.068-.002.124.051.126.118z"/><path d="m42.725 26.612c.002.067-.051.123-.118.125l-.496.014c-.067.002-.123-.05-.125-.118-.002-.067.051-.122.118-.125l.496-.015c.066 0 .123.052.125.119z"/><path d="m41.733 26.393.015.496c.002.067-.051.124-.118.126-.067.001-.123-.051-.125-.118l-.015-.495c-.002-.067.051-.123.118-.126.067-.002.123.051.125.117z"/><path d="m41.274 26.655c.002.067-.051.124-.118.125l-.495.015c-.067.002-.123-.051-.126-.118-.001-.067.051-.122.118-.125l.495-.015c.067-.002.124.051.126.118z"/><path d="m40.283 26.436.014.496c.002.067-.051.122-.118.125-.067.002-.122-.051-.125-.118l-.015-.495c-.002-.067.051-.123.118-.125.068-.003.124.05.126.117z"/><path d="m41.988 25.835c.002.067-.051.123-.118.125l-.496.015c-.067.002-.122-.051-.125-.118-.002-.067.051-.122.118-.125l.496-.015c.068-.002.123.051.125.118z"/><path d="m43.439 25.792c.002.067-.051.124-.118.126l-.496.014c-.067.002-.122-.051-.125-.118-.002-.067.051-.122.118-.124l.496-.015c.068-.003.123.05.125.117z"/><path d="m43.899 25.53.014.496c.002.067-.051.123-.118.125s-.122-.051-.125-.118l-.015-.496c-.002-.067.051-.123.118-.125.068-.001.124.051.126.118z"/><path d="m44.11 24.882c.004.058.009.114.014.173v.001c-.022.025-.053.04-.088.041l-.496.014c-.067.002-.123-.051-.126-.118-.002-.067.051-.123.118-.125l.496-.015c.031-.001.06.011.082.029z"/><path d="m43.163 24.753.015.495c.002.067-.051.123-.118.126-.067.001-.123-.051-.125-.119l-.014-.494c-.002-.067.051-.124.118-.125.066-.003.122.05.124.117z"/><path d="m42.704 25.014c.002.067-.051.122-.118.125l-.496.015c-.067.002-.123-.051-.125-.118-.001-.067.051-.123.118-.125l.496-.015c.067-.002.123.051.125.118z"/><path d="m41.712 24.795.015.496c.002.067-.051.122-.118.125-.067.002-.123-.051-.125-.118l-.015-.496c-.002-.067.051-.122.118-.125.068-.002.124.051.125.118z"/><path d="m41.253 25.057c.002.067-.051.123-.118.125l-.495.015c-.067.002-.124-.051-.125-.118-.002-.067.051-.123.118-.125l.495-.014c.068-.003.123.05.125.117z"/><path d="m40.225 25.196.004.111c.001.043-.019.082-.053.103.018-.071.035-.142.049-.214z"/><path d="m40.502 24.262c.001.067-.051.123-.118.125.013-.078.025-.157.033-.238.049.016.083.061.085.113z"/><path d="m40.962 24.001.014.495c.002.067-.051.123-.118.125s-.123-.051-.126-.118l-.014-.496c-.002-.067.051-.124.118-.125.068-.001.124.052.126.119z"/><path d="m41.953 24.219c.002.068-.051.123-.118.126l-.495.015c-.068.002-.123-.051-.125-.118s.051-.123.118-.125l.495-.015c.067-.002.123.05.125.117z"/><path d="m42.413 23.959.015.496c.002.067-.051.122-.118.124s-.123-.051-.125-.118l-.015-.496c-.001-.067.051-.122.118-.125s.123.052.125.119z"/><path d="m43.403 24.178c.002.067-.051.122-.118.125l-.496.015c-.067.002-.122-.051-.125-.118-.002-.067.051-.124.118-.125l.496-.015c.068-.002.123.051.125.118z"/><path d="m43.863 23.916.015.496c.001.067-.051.124-.118.125-.068.002-.123-.051-.125-.118l-.015-.496c-.002-.067.051-.122.118-.125.067-.002.123.051.125.118z"/><path d="m43.983 23.24c.006.08.012.161.018.242l-.496.015c-.067.002-.123-.051-.125-.118s.051-.123.118-.125z"/><path d="m43.127 23.138.015.496c.002.067-.051.122-.118.125-.067.002-.123-.051-.125-.118l-.015-.496c-.002-.067.051-.122.118-.125s.124.051.125.118z"/><path d="m42.668 23.399c.002.068-.051.124-.118.125l-.496.015c-.067.002-.123-.051-.125-.118-.001-.067.051-.124.119-.126l.494-.015c.068 0 .124.052.126.119z"/><path d="m41.678 23.181.014.495c.002.067-.051.123-.118.126-.067.002-.122-.051-.125-.118l-.015-.496c-.002-.067.051-.123.118-.125s.123.05.126.118z"/><path d="m41.217 23.442c.002.067-.051.123-.118.125l-.496.015c-.067.001-.122-.051-.125-.118-.002-.068.051-.123.118-.125l.496-.015c.068-.002.123.051.125.118z"/><path d="m43.852 22.378.015.496c.002.067-.051.122-.118.125-.067.002-.124-.051-.126-.118l-.015-.496c-.002-.067.051-.122.118-.125.067-.002.124.051.126.118z"/><path d="m43.391 22.639c.002.067-.051.123-.118.125l-.496.015c-.067.002-.122-.051-.125-.118-.002-.067.051-.123.118-.125l.495-.015c.069-.001.124.051.126.118z"/><path d="m42.401 22.42.015.496c.002.067-.051.123-.118.125s-.123-.051-.125-.118l-.014-.496c-.002-.067.05-.123.118-.125.066-.001.122.051.124.118z"/><path d="m41.942 22.681c.001.067-.051.123-.118.125l-.496.014c-.067.002-.123-.05-.125-.118-.002-.067.051-.122.118-.125l.495-.015c.067-.001.124.052.126.119z"/><path d="m40.95 22.462.015.496c.002.067-.051.124-.118.126-.067.001-.123-.051-.125-.118l-.015-.495c-.002-.067.051-.123.118-.126.068-.003.123.05.125.117z"/><path d="m40.491 22.724c.001.035-.012.066-.035.088-.003-.06-.006-.119-.01-.179.027.023.043.055.045.091z"/><path d="m41.206 21.904c.002.067-.051.123-.118.124l-.496.015c-.067.002-.122-.051-.125-.118-.002-.067.051-.122.118-.125l.496-.015c.067-.001.122.052.125.119z"/><path d="m41.666 21.642.015.496c.001.067-.051.123-.118.125-.068.001-.123-.051-.125-.118l-.015-.496c-.002-.067.051-.123.118-.125.066-.002.123.051.125.118z"/><path d="m42.656 21.861c.002.067-.051.124-.118.126l-.495.013c-.067.002-.123-.051-.125-.118s.051-.122.118-.124l.495-.015c.068-.002.123.051.125.118z"/><path d="m43.116 21.599.014.496c.002.067-.051.123-.118.125s-.123-.051-.125-.118l-.015-.496c-.002-.067.051-.123.118-.126.068 0 .124.052.126.119z"/><path d="m43.861 21.703c.006.08.013.161.018.244l-.386.011c-.067.002-.123-.051-.125-.118-.001-.067.051-.123.118-.126z"/><path d="m43.769 20.577c.016.196.034.41.053.64-.017.042-.059.073-.108.073-.067.002-.123-.05-.126-.118l-.014-.495c-.002-.067.051-.123.118-.125.029-.001.056.009.077.025z"/><path d="m43.358 20.932c.002.067-.051.122-.118.125l-.495.015c-.067.002-.124-.051-.126-.118s.051-.124.118-.125l.496-.015c.066-.002.123.051.125.118z"/><path d="m42.366 20.713.015.495c.002.067-.051.123-.118.125s-.122-.051-.125-.118l-.015-.495c-.002-.067.051-.123.118-.125.067-.001.124.051.125.118z"/><path d="m41.907 20.975c.002.067-.051.122-.118.125l-.495.015c-.067.002-.123-.051-.126-.118-.001-.067.051-.123.119-.126l.495-.014c.066-.002.123.051.125.118z"/><path d="m40.916 20.756.014.496c.002.067-.051.122-.118.125-.067.002-.122-.051-.125-.118l-.015-.496c-.002-.067.051-.123.118-.125.068-.002.124.051.126.118z"/><path d="m40.456 21.017c.002.067-.051.123-.118.125l-.067.002h-.009c-.006-.046-.011-.093-.015-.142-.006-.034-.012-.067-.018-.101h.008l.094-.003c.067-.001.123.052.125.119z"/><path d="m43.689 19.015c-.017.226-.015.47.009.733l.001.004c-.065.001-.121-.051-.122-.117l-.015-.496c-.002-.067.051-.122.118-.125.003 0 .006.001.009.001z"/><path d="m43.721 20c.007.076.013.156.02.242l-.282.009c-.067.002-.122-.051-.125-.118-.002-.067.051-.124.118-.125z"/><path d="m42.621 20.155c.002.067-.051.122-.118.125l-.496.015c-.067.002-.122-.051-.125-.118-.002-.067.051-.123.118-.125l.496-.014c.068-.003.124.049.125.117z"/><path d="m43.082 19.893.015.495c.002.067-.051.123-.118.125s-.124-.051-.126-.118l-.015-.495c-.002-.067.051-.122.118-.125.067-.002.123.051.126.118z"/><path d="m43.346 19.393c.002.068-.051.123-.118.125l-.496.015c-.067.002-.123-.051-.125-.118-.001-.067.051-.124.118-.126l.496-.015c.066 0 .123.052.125.119z"/><path d="m42.355 19.175.014.495c.002.067-.051.123-.118.126-.067.002-.122-.051-.125-.118l-.015-.495c-.002-.067.051-.123.118-.124.068-.004.124.048.126.116z"/><path d="m41.631 19.936.015.495c.002.068-.051.123-.118.125s-.123-.051-.125-.118l-.014-.496c-.002-.067.05-.123.118-.125.066-.001.122.052.124.119z"/><path d="m41.172 20.196c.001.067-.051.123-.118.125l-.496.015c-.067.001-.124-.051-.125-.118-.002-.067.051-.123.118-.126l.496-.015c.066-.001.122.052.125.119z"/><path d="m40.18 19.978.01.361c0 .002.001.005 0 .007.001.004 0 .007.001.011l.001.004.003.114c.001.032-.01.062-.031.083-.053-.267-.105-.5-.15-.688.013-.006.027-.009.042-.009.045-.002.086.022.108.06v.001c.009.016.015.035.016.056z"/><path d="m41.895 19.436c.002.067-.051.123-.118.125l-.495.015c-.067.001-.123-.051-.125-.118-.002-.068.051-.123.118-.126l.496-.015c.066-.001.122.052.124.119z"/><path d="m40.904 19.217.015.495c.001.067-.051.124-.118.126-.068.002-.124-.051-.126-.118l-.015-.496c-.002-.067.051-.123.118-.126.068-.001.124.052.126.119z"/><path d="m40.444 19.479c.002.067-.051.123-.118.125l-.177.005-.197.006h-.043c-.001-.057-.001-.115-.002-.172-.012-.045-.019-.069-.019-.069l.017-.001.234-.007.18-.005c.067-.002.123.051.125.118z"/><path d="m43.771 18.46c-.019.08-.035.161-.047.246l-.277.008c-.067.002-.122-.051-.125-.118-.002-.067.051-.123.118-.126z"/><path d="m43.07 18.354.015.496c.002.067-.051.124-.118.126s-.123-.051-.125-.118l-.015-.495c-.001-.067.051-.123.119-.126.066-.002.122.05.124.117z"/><path d="m42.611 18.615c.001.067-.051.123-.119.126l-.495.015c-.067.001-.123-.051-.125-.118-.002-.068.051-.123.118-.125l.495-.015c.067-.002.124.051.126.117z"/><path d="m41.619 18.397.015.496c.002.067-.051.123-.118.125-.067.001-.123-.051-.125-.118l-.015-.496c-.002-.067.051-.123.118-.125s.123.051.125.118z"/><path d="m41.16 18.658c.002.067-.051.123-.118.125l-.496.015c-.067.002-.123-.051-.125-.118s.051-.123.118-.125l.496-.015c.066-.002.123.051.125.118z"/><path d="m40.168 18.44.015.495c.002.067-.051.123-.118.125s-.122-.051-.125-.118l-.015-.494c-.002-.068.051-.124.118-.126.068-.003.124.05.125.118z"/><path d="m40.362 17.951c.002.067-.051.123-.118.125l-.385.011c-.003-.084-.005-.166-.008-.243l.386-.01c.067-.003.124.05.125.117z"/><path d="m40.822 17.689.015.496c.002.067-.051.122-.118.125-.067.002-.124-.051-.126-.118l-.015-.496c-.001-.067.051-.122.118-.125.068-.002.124.051.126.118z"/><path d="m41.813 17.908c.002.067-.051.123-.118.125l-.495.015c-.067.002-.123-.051-.125-.118s.051-.122.118-.125l.495-.015c.067-.002.123.051.125.118z"/><path d="m42.273 17.647.015.496c.001.067-.051.123-.118.125-.068.001-.124-.051-.126-.118l-.015-.496c-.002-.067.051-.123.118-.125s.124.051.126.118z"/><path d="m43.263 17.866c.002.067-.051.123-.118.125l-.496.014c-.067.002-.123-.05-.125-.118-.002-.067.051-.122.118-.125l.496-.015c.068-.001.123.052.125.119z"/><path d="m43.723 17.604.014.496c.002.067-.051.124-.118.126s-.122-.051-.125-.118l-.015-.496c-.002-.067.051-.123.118-.126.068-.001.124.051.126.118z"/><path d="m44.438 16.784.01.323c-.069.084-.136.173-.198.265-.025-.022-.039-.052-.04-.085l-.015-.496c-.001-.067.051-.123.118-.125s.123.051.125.118z"/><path d="m43.978 17.045c.002.067-.05.123-.118.125l-.495.014c-.067.002-.123-.051-.125-.118s.051-.122.118-.125l.495-.015c.067-.001.124.052.125.119z"/><path d="m42.987 16.826.015.495c.002.067-.051.123-.118.126-.067.001-.124-.051-.126-.118l-.014-.496c-.002-.067.051-.123.118-.125.068-.002.123.051.125.118z"/><path d="m44.702 16.285c.002.067-.051.123-.118.126l-.496.014c-.067.002-.123-.051-.125-.118s.051-.122.118-.125l.495-.015c.069-.002.124.051.126.118z"/><path d="m42.528 17.088c.002.067-.051.124-.118.125l-.495.015c-.067.002-.123-.051-.125-.118s.051-.123.118-.125l.496-.015c.066-.002.122.051.124.118z"/><path d="m41.537 16.869.015.496c.002.067-.051.122-.118.125-.067.002-.122-.051-.125-.118l-.015-.495c-.002-.067.051-.122.118-.125s.123.05.125.117z"/><path d="m41.077 17.131c.002.067-.051.122-.118.125l-.496.015c-.067.002-.123-.051-.125-.118-.001-.067.051-.123.119-.126l.495-.014c.067-.002.123.051.125.118z"/><path d="m40.087 16.912.014.496c.002.067-.051.122-.118.124s-.123-.051-.125-.118l-.015-.496c-.002-.067.051-.122.118-.125s.124.052.126.119z"/><path d="m45.161 16.023.01.345c-.077.068-.151.136-.226.207-.007-.015-.011-.031-.012-.049l-.015-.496c-.002-.067.051-.123.118-.125.068-.002.124.051.125.118z"/><path d="m43.712 16.066.014.496c.002.067-.05.123-.118.125-.067.002-.122-.05-.125-.118l-.014-.494c-.002-.068.051-.124.118-.125.066-.004.122.049.125.116z"/><path d="m43.251 16.327c.002.067-.051.122-.118.125l-.496.015c-.067.002-.122-.051-.125-.118-.002-.067.051-.124.118-.125l.496-.015c.068-.001.123.052.125.118z"/><path d="m42.261 16.108.015.496c.002.067-.051.122-.118.125-.067.002-.124-.051-.125-.118l-.015-.496c-.002-.067.051-.122.118-.125.066-.001.123.052.125.118z"/><path d="m41.801 16.37c.002.067-.051.123-.118.125l-.495.015c-.067.002-.123-.051-.125-.118s.051-.123.118-.125l.496-.014c.066-.003.122.049.124.117z"/><path d="m40.81 16.151.015.495c.002.068-.051.123-.118.125s-.123-.051-.125-.118l-.014-.496c-.002-.067.05-.123.118-.125.066-.001.122.052.124.119z"/><path d="m40.351 16.412c.001.067-.051.124-.118.126l-.454.013c-.004-.08-.006-.162-.009-.243l.455-.013c.067-.003.124.05.126.117z"/><path d="m48.715 15.071.005.195c-.069.04-.147.078-.24.11l-.009-.298c-.002-.068.051-.123.118-.126.068-.001.124.052.126.119z"/><path d="m48.255 15.333c.002.067-.051.123-.118.125l-.495.015c-.067.002-.123-.051-.125-.118s.051-.123.118-.125l.495-.015c.067-.003.123.051.125.118z"/><path d="m47.264 15.114.011.376c-.01 0-.02-.002-.031-.002-.071-.005-.142-.007-.213-.006l-.01-.362c-.001-.067.051-.122.118-.125.068-.002.123.052.125.119z"/><path d="m46.804 15.375c.002.067-.05.122-.118.125l-.495.015c-.067.002-.123-.051-.125-.118s.051-.123.118-.125l.496-.014c.067-.003.123.049.124.117z"/><path d="m45.877 15.203.015.496c.002.067-.051.123-.118.125s-.124-.051-.126-.118l-.015-.495c-.001-.067.051-.124.118-.126.068-.002.124.051.126.118z"/><path d="m45.417 15.464c.002.067-.05.123-.118.125l-.495.014c-.068.002-.123-.051-.125-.118s.051-.123.118-.125l.496-.015c.066-.001.123.052.124.119z"/><path d="m44.426 15.245.015.495c.002.067-.051.123-.118.125s-.123-.051-.125-.118l-.014-.495c-.002-.068.051-.123.118-.126.066-.001.122.053.124.119z"/><path d="m43.967 15.507c.002.067-.051.122-.118.125l-.496.015c-.067.002-.123-.051-.125-.118s.051-.123.118-.125l.495-.015c.067-.002.124.051.126.118z"/><path d="m42.975 15.288.015.495c.002.067-.051.123-.118.125s-.124-.051-.125-.118l-.015-.496c-.002-.067.051-.122.118-.124.068-.002.123.051.125.118z"/><path d="m42.516 15.55c.002.067-.051.122-.118.125l-.495.015c-.067.002-.124-.051-.126-.118-.001-.067.051-.124.118-.126l.496-.014c.067-.002.123.05.125.118z"/><path d="m41.526 15.331.014.495c.002.068-.051.123-.118.126-.067.002-.122-.051-.124-.118l-.015-.496c-.002-.067.051-.123.118-.124.066-.003.122.05.125.117z"/><path d="m41.065 15.592c.002.067-.051.123-.118.125l-.496.015c-.067.001-.123-.051-.125-.118s.051-.123.118-.125l.496-.015c.068-.003.123.051.125.118z"/><path d="m40.075 15.373.015.496c.001.067-.051.123-.118.125-.068.002-.123-.051-.125-.118l-.015-.496c-.002-.067.051-.123.118-.125.066-.002.123.051.125.118z"/><path d="m45.137 14.465.015.496c.001.067-.051.122-.118.125-.068.002-.123-.051-.125-.118l-.015-.495c-.002-.067.051-.122.118-.125.066-.003.123.05.125.117z"/><path d="m46.127 14.684c.002.067-.051.122-.118.124l-.495.015c-.067.002-.122-.051-.125-.118-.002-.067.051-.123.118-.124l.496-.015c.067-.003.122.051.124.118z"/><path d="m49.446 14.361.013.434c-.094.008-.169.04-.239.085-.001-.006-.002-.011-.002-.017l-.015-.496c-.002-.067.051-.122.118-.125.067-.001.123.052.125.119z"/><path d="m48.987 14.623c.002.067-.051.123-.118.125l-.496.015c-.067.002-.123-.051-.125-.118-.001-.067.051-.123.118-.125l.496-.014c.066-.003.123.05.125.117z"/><path d="m47.995 14.404.015.496c.002.067-.051.122-.118.125-.067.002-.122-.051-.125-.118l-.015-.496c-.002-.067.051-.122.118-.125.068-.002.124.051.125.118z"/><path d="m47.536 14.664c.002.067-.051.123-.118.126l-.495.015c-.067.002-.123-.051-.125-.118s.051-.123.118-.126l.494-.015c.068-.001.124.051.126.118z"/><path d="m46.588 14.422.014.496c.002.067-.051.123-.118.125s-.122-.051-.125-.118l-.015-.494c-.002-.068.051-.124.118-.126.067-.003.123.05.126.117z"/><path d="m44.677 14.726c.002.067-.051.122-.118.125l-.496.015c-.067.002-.122-.051-.125-.118-.002-.067.051-.123.118-.126l.496-.014c.067-.002.123.05.125.118z"/><path d="m43.686 14.507.014.495c.002.068-.051.123-.118.126-.067.002-.123-.051-.125-.118l-.015-.496c-.001-.067.051-.123.118-.125.068-.002.124.051.126.118z"/><path d="m43.226 14.768c.002.067-.05.123-.118.126l-.495.015c-.068.001-.123-.051-.125-.118s.051-.123.118-.125l.496-.015c.066-.003.123.05.124.117z"/><path d="m42.235 14.549.015.496c.002.067-.051.123-.118.125s-.124-.051-.126-.118l-.014-.496c-.002-.067.051-.123.118-.125.068-.002.123.051.125.118z"/><path d="m41.776 14.811c.002.067-.051.123-.118.125l-.496.014c-.067.002-.123-.051-.125-.118s.051-.122.118-.125l.496-.015c.066-.001.123.052.125.119z"/><path d="m40.325 14.853c.002.067-.051.123-.118.125l-.307.009c.02-.082.044-.163.07-.245l.23-.007c.067-.001.123.051.125.118z"/><path d="m40.785 14.592.015.496c.002.067-.051.123-.118.124-.067.002-.122-.05-.125-.118l-.014-.495c-.002-.067.051-.123.118-.126.066-.001.121.052.124.119z"/><path d="m50.438 14.58c.001.067-.051.124-.118.125l-.495.015c-.067.002-.124-.051-.126-.118s.051-.122.118-.125l.495-.015c.067-.002.124.051.126.118z"/><path d="m50.897 14.318.015.496c.002.067-.051.123-.118.125-.067.001-.123-.051-.125-.118l-.014-.496c-.002-.067.05-.123.118-.125.066-.002.122.051.124.118z"/><path d="m51.542 14.669-.268.007c-.067.002-.122-.051-.125-.118-.002-.067.051-.123.118-.125l.164-.005c.043.086.077.159.101.216.003.009.006.017.01.025z"/><path d="m46.116 13.144c.002.068-.051.123-.118.125l-.496.015c-.067.002-.122-.051-.125-.118-.002-.067.051-.124.118-.126l.496-.015c.067 0 .122.053.125.119z"/><path d="m46.576 12.884.015.495c.001.067-.051.123-.119.125-.067.002-.122-.051-.125-.118l-.015-.495c-.002-.067.051-.123.118-.125s.124.051.126.118z"/><path d="m47.571 13.069c.002.067-.051.123-.118.125l-.496.015c-.067.002-.124-.051-.125-.118s.051-.124.118-.125l.495-.015c.067-.002.124.051.126.118z"/><path d="m48.03 12.807.015.496c.002.067-.051.123-.118.125s-.123-.05-.125-.118l-.015-.495c-.002-.068.051-.123.118-.126.067-.002.123.051.125.118z"/><path d="m49.022 13.026c.001.067-.051.123-.118.125l-.496.014c-.067.002-.124-.051-.126-.118s.051-.122.118-.125l.495-.015c.068-.001.125.052.127.119z"/><path d="m49.481 12.764.015.496c.002.067-.051.123-.118.125s-.123-.051-.125-.118l-.014-.496c-.002-.067.051-.123.118-.125.066-.002.122.052.124.118z"/><path d="m50.472 12.983c.002.067-.051.123-.118.125l-.495.015c-.068.001-.123-.051-.125-.118-.002-.068.051-.123.118-.125l.496-.015c.066-.002.122.051.124.118z"/><path d="m51.101 13.831c-.019.015-.044.024-.071.025l-.496.015c-.067.002-.122-.051-.125-.118-.002-.067.051-.123.118-.125l.443-.013c.047.074.09.146.131.216z"/><path d="m50.157 13.513.015.495c.001.067-.051.123-.118.125-.068.002-.123-.051-.125-.118l-.015-.495c-.002-.067.051-.122.118-.125.067-.002.123.051.125.118z"/><path d="m49.697 13.774c.002.068-.051.123-.118.126l-.495.015c-.067.002-.123-.051-.125-.118s.051-.123.118-.126l.495-.015c.068-.001.123.051.125.118z"/><path d="m48.707 13.556.014.495c.002.067-.051.123-.118.125s-.124-.051-.126-.118l-.015-.495c-.001-.067.051-.123.118-.125.069-.002.124.05.127.118z"/><path d="m48.246 13.816c.002.067-.051.123-.118.125l-.494.015c-.068.001-.124-.051-.126-.118-.002-.068.051-.123.118-.126l.496-.015c.067-.001.123.052.124.119z"/><path d="m47.302 13.601.015.495c.002.067-.051.123-.118.125s-.124-.051-.126-.118l-.014-.496c-.002-.067.05-.122.118-.125.067-.001.123.053.125.119z"/><path d="m46.843 13.863c.001.067-.051.122-.118.125l-.495.015c-.067.002-.124-.051-.126-.118s.051-.123.118-.125l.495-.015c.067-.002.124.051.126.118z"/><path d="m45.851 13.644.015.495c.002.067-.051.123-.118.125s-.123-.051-.125-.118l-.015-.496c-.002-.067.051-.122.118-.125s.123.052.125.119z"/><path d="m45.392 13.905c.002.068-.051.123-.118.125l-.496.015c-.067.002-.123-.051-.125-.118s.051-.123.118-.126l.496-.015c.067 0 .123.052.125.119z"/><path d="m45.125 12.925.015.495c.002.067-.051.123-.118.126-.067.002-.124-.051-.126-.118l-.015-.496c-.001-.067.051-.123.118-.125.067 0 .124.052.126.118z"/><path d="m44.401 13.687.015.495c.002.067-.051.123-.118.126-.067.002-.122-.051-.125-.118l-.015-.495c-.002-.067.051-.123.118-.124.067-.004.123.048.125.116z"/><path d="m43.941 13.948c.002.067-.051.123-.118.125l-.496.015c-.067.001-.123-.051-.125-.118-.002-.068.05-.123.118-.126l.494-.014c.07-.003.125.051.127.118z"/><path d="m42.951 13.729.014.496c.002.067-.05.123-.118.125-.067.002-.122-.051-.125-.118l-.015-.496c-.002-.067.051-.123.118-.126.067-.001.124.052.126.119z"/><path d="m42.491 13.99c.002.067-.051.123-.118.126l-.496.014c-.067.002-.122-.051-.125-.118-.002-.067.051-.122.118-.124l.496-.015c.067-.003.122.05.125.117z"/><path d="m41.5 13.771.015.496c.002.067-.051.123-.118.125s-.123-.05-.125-.118l-.015-.495c-.002-.068.051-.123.118-.125.066-.003.123.05.125.117z"/><path d="m41.04 14.033c.002.067-.051.122-.118.125l-.496.015c-.067.002-.122-.051-.125-.118-.002-.067.051-.124.118-.125l.495-.015c.068-.002.124.051.126.118z"/><path d="m44.665 13.187c.002.067-.051.124-.118.125l-.495.015c-.068.001-.123-.051-.126-.119-.002-.067.051-.122.118-.125l.495-.015c.068-.001.125.052.126.119z"/><path d="m43.674 12.968.015.496c.002.067-.051.123-.118.125-.067.001-.123-.051-.125-.118l-.014-.496c-.002-.067.051-.123.118-.125.066-.002.122.051.124.118z"/><path d="m43.215 13.23c.001.067-.051.123-.118.124l-.496.015c-.067.002-.123-.051-.125-.118s.051-.122.118-.125l.496-.015c.066-.001.123.052.125.119z"/><path d="m42.223 13.011.015.496c.002.067-.051.123-.118.124-.067.002-.123-.051-.124-.118l-.015-.496c-.002-.067.051-.122.118-.125.067-.001.122.052.124.119z"/><path d="m40.782 13.369.005.18c.002.067-.051.122-.118.125-.042.001-.08-.019-.102-.051.067-.086.138-.171.215-.254z"/><path d="m41.764 13.273c.002.067-.051.122-.118.125l-.495.015c-.067.002-.123-.051-.126-.118-.001-.067.051-.123.118-.124l.496-.015c.067-.003.123.05.125.117z"/><path d="m42.479 12.452c.002.067-.051.122-.118.125l-.496.015c-.037.002-.069-.014-.092-.039.111-.072.227-.143.351-.212h.002l.229-.007c.066-.002.122.051.124.118z"/><path d="m42.939 12.191.015.495c.001.067-.051.123-.118.125-.068.002-.124-.051-.126-.118l-.015-.496c-.002-.067.051-.122.118-.125.067-.001.124.052.126.119z"/><path d="m43.93 12.41c.002.067-.051.123-.118.125l-.495.015c-.067.002-.123-.051-.125-.118s.051-.123.118-.125l.496-.015c.066-.003.121.051.124.118z"/><path d="m44.39 12.148.014.496c.002.067-.051.123-.118.126-.067.001-.123-.051-.125-.118l-.015-.495c-.002-.067.051-.123.118-.126s.124.05.126.117z"/><path d="m45.38 12.367c.002.067-.051.123-.118.125l-.496.014c-.067.002-.123-.05-.125-.118-.001-.067.051-.123.118-.125l.496-.015c.067-.001.123.052.125.119z"/><path d="m45.839 12.105.015.496c.002.067-.051.123-.118.125s-.123-.051-.125-.118l-.015-.495c-.002-.067.051-.123.118-.126.068-.001.124.051.125.118z"/><path d="m46.831 12.324c.002.067-.051.123-.118.126l-.495.015c-.067.002-.123-.051-.126-.118-.002-.067.051-.123.118-.125l.495-.015c.067-.002.124.05.126.117z"/><path d="m47.29 12.063.015.495c.002.067-.051.123-.118.125s-.123-.051-.125-.118l-.014-.496c-.002-.067.051-.123.118-.125s.122.052.124.119z"/><path d="m48.17 12.266c.002.067-.051.122-.118.125l-.495.015c-.067.002-.123-.051-.125-.118s.051-.123.118-.125l.495-.015c.067-.002.123.051.125.118z"/><path d="m48.629 12.004.015.496c.002.067-.051.123-.118.125s-.123-.051-.125-.118l-.014-.495c-.002-.068.051-.123.118-.126.067-.002.122.051.124.118z"/><path d="m50.092 12.36.002.096c.002.067-.051.123-.118.125s-.124-.051-.126-.118l-.011-.376c.083.08.168.173.253.273z"/><path d="m49.62 12.223c.002.067-.05.123-.118.125l-.495.015c-.067.002-.123-.051-.125-.118-.002-.068.051-.123.118-.125l.496-.015c.066-.002.123.051.124.118z"/><path d="m49.345 11.77c-.02.034-.057.057-.1.059-.067.002-.122-.051-.125-.118l-.001-.039c.082.033.158.066.226.098z"/><path d="m48.841 11.569c-.019.015-.044.024-.07.024l-.495.015c-.067.002-.122-.051-.125-.118-.001-.043.02-.082.054-.104h.001c.235.055.447.119.635.183z"/><path d="m47.993 11.34.012.4c.002.068-.051.123-.118.125s-.122-.051-.125-.118l-.013-.452c.084.014.165.029.244.045z"/><path d="m47.531 11.506c.002.067-.051.123-.118.125l-.496.015c-.067.002-.123-.051-.125-.118s.05-.123.118-.125l.495-.015c.067-.002.124.051.126.118z"/><path d="m46.54 11.287.014.496c.002.067-.051.123-.118.126-.067.002-.123-.051-.125-.118l-.015-.495c-.002-.045.022-.085.057-.107.043 0 .086-.001.127 0 .036.018.059.055.06.098z"/></g></g><path d="m41.634 20.483c-.069-.335-.15-.513-.245-.476-.002 0-.005.002-.006.003-.081.039-.151.104-.212.188l-.001.001c-.027.035-.05.072-.073.112-.073.129-.133.283-.181.448l-.001.001v.001c-.059.199-.105.411-.144.608-.031.156-.057.304-.083.427-.021.097-.041.181-.062.244-.049.148-.106.181-.189.014-.022-.043-.043-.111-.065-.199.032.252.056.514.073.776.004.06.007.119.01.179.022.455.015.912-.038 1.338-.009.08-.02.16-.033.238-.045.27-.099.541-.158.808l-.001.001c-.014.072-.031.143-.049.215v.001c-.027.121-.056.239-.087.357-.021.082-.042.164-.063.245-.189.711-.396 1.353-.557 1.816-.015.047-.031.093-.046.136-.008.021-.014.041-.021.061-.018.056-.037.11-.056.163-.029.086-.057.168-.083.245-.16.477-.221.751.023.748.177-.002.514-.15 1.089-.472.162-.09.307-.137.438-.145.013-.001.024-.002.036 0 .262-.004.465.149.624.398.045.072.087.153.125.24.043.096.082.2.117.311.036.113.068.234.097.36.049.215.089.444.121.676.012.08.023.161.032.242.018.148.034.296.048.441 0 0 .001-.165.002-.454 0-.065 0-.137 0-.215.001-.356 0-.835-.002-1.394 0-.063 0-.128 0-.193-.002-.232-.003-.474-.005-.727 0-.001 0-.002 0-.002 0-.001 0-.001 0-.002v-.003c0-.007 0-.014.001-.021 0-.001 0-.001 0-.002-.002-.238-.004-.484-.007-.735v-.001c-.001-.032-.001-.063-.001-.095-.002-.241-.006-.486-.011-.736 0 0 0 0 0-.001s0-.001 0-.002c0-.012 0-.025 0-.037-.004-.236-.009-.474-.014-.714v-.001c0-.041-.001-.081-.002-.121-.01-.497-.024-.996-.041-1.48v-.001l-.004-.148c-.017-.469-.037-.923-.061-1.348-.004-.078-.008-.155-.014-.23-.033-.558-.074-1.059-.122-1.466-.01-.085-.021-.165-.031-.242-.023-.143-.045-.269-.067-.379zm3.452-9.179c-.079.014-.159.027-.239.043-.187.037-.379.081-.573.133-.125.033-.253.069-.381.11-.082.026-.164.052-.246.081-.08.028-.16.056-.241.087-.077.028-.154.058-.232.09-.386.156-.729.321-1.034.493-.127.071-.247.145-.36.219h-.001c-.408.264-.735.541-.997.828-.074.081-.142.163-.206.246-.082.105-.155.21-.221.317-.018.029-.036.058-.052.088v.001l-.001.001c-.135.232-.238.466-.314.702-.026.082-.05.163-.07.245-.027.108-.049.215-.066.321v.001c-.008.04-.013.082-.019.122v.003.002c-.04.295-.049.588-.045.871.002.082.005.163.009.243.006.134.016.266.026.395.017.21.033.517.046.897.003.077.005.159.008.243.012.378.022.814.028 1.287 0 .023.001.047.001.07.001.057.001.115.002.172h.043c.018.071.039.156.062.254.045.188.097.421.15.688v.001c.022.11.044.225.066.345.006.033.012.066.018.101-.004-.033-.007-.066-.01-.101-.017-.169-.031-.35-.046-.543l-.001-.004c-.001-.004 0-.007-.001-.011.001-.002 0-.005 0-.007-.009-.135-.018-.274-.027-.418-.005-.103-.01-.205-.015-.311-.004-.08-.007-.162-.01-.243-.004-.108-.008-.216-.011-.326v-.001c-.006-.229-.01-.462-.011-.696 0-.089-.001-.177 0-.265 0-.081 0-.162.001-.243.005-.45.021-.89.049-1.297.006-.083.013-.165.019-.245.065-.746.179-1.349.357-1.632.013-.021.027-.042.042-.06.034-.042.068-.084.103-.127.085-.105.173-.214.267-.325.028-.032.055-.065.083-.097.069-.08.142-.162.219-.245.047-.05.095-.101.146-.152.084-.087.175-.175.271-.264.026-.025.054-.05.082-.075 0 0 0 0 .001-.001.071-.064.147-.13.227-.195.069-.059.142-.117.219-.175.154-.12.322-.241.504-.365h.001c.077-.05.156-.102.238-.154.366-.23.789-.465 1.285-.703.125-.059.254-.119.388-.18.075-.033.152-.067.23-.101.079-.034.159-.068.241-.102.049-.021.1-.041.151-.062-.05.009-.101.017-.153.026z" fill="#bababa" opacity=".35"/></g><g><path d="m51.392 14.464c-4.389-.708-7.631 1.403-9.565 3.073-1.232 1.063-1.934 1.948-2.065 1.813-.124-.128-.021-.721-.056-.897-.031-.155-.275-.847-.18-.989.166-.248.346-.484.539-.709 3.364-3.913 10.558-4.188 10.966-3.865.135.106.215.569.235.712s.298.362.39.656c.091.294-.264.206-.264.206z" fill="#696969"/><path d="m41.826 16.857c-.287.399-.218.595 0 .68-1.232 1.063-1.934 1.948-2.065 1.813-.124-.128-.021-.721-.056-.897-.031-.155-.275-.847-.18-.989.166-.248.346-.484.539-.709-.121.272-.098.469.254.44 1.01-.085 1.755-2.077 4.473-2.576 2.719-.501-2.116 1.058-2.965 2.238z" fill="#2c2c2c"/></g></g></g></svg>