<svg id="Layer_1" enable-background="new 0 0 100 100" viewBox="0 0 100 100" xmlns="http://www.w3.org/2000/svg" xmlns:xlink="http://www.w3.org/1999/xlink"><clipPath id="SVGID_2_"><path id="SVGID_1_" d="m50.245 62.58-.849 11.872s.062.206.989.206c.412 0 .994-.041 1.818-.158z"/></clipPath><linearGradient id="lg1"><stop offset="0" stop-color="#004461"/><stop offset=".0525" stop-color="#004461"/><stop offset=".9575" stop-color="#004461"/><stop offset="1" stop-color="#004461"/></linearGradient><linearGradient id="SVGID_3_" gradientTransform="matrix(.217 7.716 7.716 -.217 3621.1 6039.49)" gradientUnits="userSpaceOnUse" x1="-786.628" x2="-785.628" xlink:href="#lg1" y1="-440.55" y2="-440.55"/><linearGradient id="SVGID_4_" gradientTransform="matrix(1.358 8.856 8.856 -1.358 4641.613 6034.877)" gradientUnits="userSpaceOnUse" x1="-736.833" x2="-735.833" xlink:href="#lg1" y1="-405.985" y2="-405.985"/><path d="m50.612 34.37c-2.926.033-10.534 5.178-11.982 6.135.007-.582.151-1.046.407-1.1.113-.023 9.521-7.078 11.296-5.348.105.102.197.208.279.313z" fill="#8b8b35"/><path d="m49.238 38.969c-1.103.821-7.562 4.138-9.374 4.006-.148-.01-.266-.043-.346-.104-.267-.198-.47-.508-.612-.86-.194-.476-.281-1.03-.276-1.506 1.448-.957 9.057-6.102 11.982-6.135 1.3 1.683-.253 3.761-1.374 4.599z" fill="#c0bd00"/><path d="m35.459 34.978s.551-1.363 2.189-.945l.2.664-2.023.979z" fill="#8b8b35"/><path d="m36.526 31.961c.152.058 4.516 9.166 3.661 9.733-.855.568-2.415 1.46-2.74.6-.326-.86-2.156-9.521-2.156-9.521z" fill="#e6804e"/><path d="m33.45 31.497c-.027-.011-.106-.049-.328-.166 0 0-.675-.036-1.098-.329-.276-.192-.268-.457-.043-.591-.028.116.02.259.16.391.378.358 1.035.496 1.035.496.156.116.235.173.274.199z" fill="#c55900"/><path d="m36.043 31.543c.008.002-.099.019-.273.037-.158.017-.374.035-.611.051-.626.038-1.406.042-1.696-.131l.001.001-.012-.003-.001-.001c-.04-.026-.118-.083-.274-.199 0 0-.657-.138-1.035-.496-.14-.132-.188-.274-.16-.391.12-.072.3-.106.532-.072.51.074.696.111.905.104l.279-.021c.176-.039.791-.008 1.242.156.235.242.512.62.329.926l.544.001s.088 0 .215.024z" fill="#e6804e"/><path d="m32.688 32.904c-.061-.021-.146-.052-.24-.09.042-.123-.069-.228-.088-.269-.018-.038-.332-.036-.438-.034-.093-.091-.134-.19-.07-.291.132-.21.369-.21.548-.172-.02.068-.021.16.001.278.041.236.158.437.287.578z" fill="#e6804e"/><path d="m36.25 33.285-1.989-.279-.465-.024-.083-.004-.916-.044c-.083-.123-.151-.272-.181-.44-.074-.41.111-.505.501-.42l.054.016c-.063-.084-.147-.154-.261-.181.099-.06.225-.117.374-.149.4-.09.196-.248.18-.26h-.002l1.806.003.544.001s.088 0 .215.024l.016.015c.008.002-.099.019-.273.037-.158.017-.374.035-.611.051l-.046.037c-.133.097 1.007-.175 1.634.318l.042.031.081.168c.25.682-.579 1.088-.62 1.1z" fill="#e6804e"/><path d="m33.943 33.268c-.054.033-.178.054-.315.059l-.12-.222c-.09-.136-.195-.265-.195-.265-.001-.019.021-.553-.294-.733l-.051-.024-.093-.035c.069-.001.148.009.241.028l.054.016c.341.124.391.649.394.666 0 0 .122.108.23.226.112.119.209.247.149.284z" fill="#c55900"/><path d="m33.628 33.326c-.162.008-.341-.006-.447-.046-.077-.029-.169-.095-.258-.188l-.127-.158c-.083-.123-.151-.272-.181-.44-.057-.314.039-.442.26-.448l.093.035.051.024c.315.181.293.715.294.733 0 0 .104.129.195.265z" fill="#e6804e"/><path d="m32.615 32.495c.03.167.097.316.181.44l-.017-.001-.091-.029c-.128-.142-.245-.342-.288-.577-.021-.118-.021-.21-.001-.278.135.029.238.08.238.08s.095-.113.272-.219c.114.026.198.097.261.181l-.054-.016c-.389-.086-.575.009-.501.419z" fill="#c55900"/><path d="m36.027 31.528c-.079-.08-.397-.502-.764-.784-.087-.066-.2-.122-.324-.167.235.242.512.62.329.926l-.109.128-.046.037c-.133.097 1.007-.175 1.634.318l.042.031c-.198-.326-.539-.445-.762-.489z" fill="#c55900"/><path d="m35.211 33.557-.12.056c-.021-.11-.111-.441-.111-.441s-.145-.18-.544-.234c0 0-.298-.573-.665-.667-.162-.042-.291-.034-.384.008.083-.11.253-.161.5-.098.367.094.664.667.664.667.4.056.545.234.545.234z" fill="#c55900"/><path d="m35.091 33.612c-.114.038-.279.08-.366.092-.14.019-.712-.304-.772-.331-.06-.026-.624-.675-.627-.902l.06-.193c.093-.042.222-.05.384-.008.367.094.665.667.665.667.4.055.544.234.544.234s.092.331.112.441z" fill="#e6804e"/><path d="m36.011 33.071-.309.162s-.031-.435-.369-.553c-.27-.094-.392-.007-.461.156.062-.221.176-.36.494-.25.338.118.369.553.369.553z" fill="#c55900"/><path d="m36.25 33.285-.063.049c-.154.117-.546.412-.641.424-.119.016-.371-.112-.435-.151-.065-.04-.31-.481-.25-.725l.012-.044c.069-.163.191-.25.461-.156.338.118.369.553.369.553l.255-.232z" fill="#e6804e"/><path d="m31.921 32.512s.36.257.526.303c.166.045-.082-.353-.082-.353s-.407-.056-.444.05z" fill="#e6804e"/><path d="m40.073 42.987c-.944.343-1.947-.083-2.571-.492-.625-.408-2.042-7.518-2.042-7.518 1.019.143 1.58-.159 1.878-.459.338.922 2.008 5.422 2.419 5.357.177-.027.335-.187.461-.373l.049.12c.414 1.066.749 3.023-.194 3.365z" fill="#c0bd00"/><path d="m40.217 39.503c-.125.187-.284.346-.461.373-.411.064-2.08-4.436-2.419-5.357.242-.245.311-.486.311-.486s2.057 4.225 2.569 5.47z" fill="#8b8b35"/><path d="m60.152 84.46s.069-2.539-1.501-2.728c-1.57-.188-1.558 2.307-1.558 2.307z" fill="#022e39"/><path d="m59.835 85.305.35.603s.037.569-.615.613-2.721.044-2.853-.11c-.133-.155-.188-.763-.188-.763z" fill="#983726"/><path d="m59.892 83.187c.005-.274-.366-9.932-2.485-9.779-2.119.152-2.743.621-2.743 1.06-.001.924 2.502 8.921 2.716 9.481.104.274 2.477 1.139 2.512-.762z" fill="#ee804e"/><path d="m60.066 84.11s-.862-1.15-1.681-.995c-.817.155-1.281.885-1.281.885s-.222.95-.398 1.128c-.177.177-.287.729 0 .929.288.198 1.615-.222 2.123 0 .509.221 1.35.265 1.371-.244.022-.508-.019-1.564-.134-1.703z" fill="#022e39"/><path d="m60 83.931s-1.566-.905-2.78 0l-.091.598s1.106-.443 2.735.055l.325-.19z" fill="#02181f"/><path d="m59.301 84.612.502.144.042.006.083-.025.067-.107.088-.716-.099-.161-.447-.163-.127.01-.073.103-.143.735zm.072-.241.1-.513.047-.065.048-.013.033.006.247.09.062.103-.062.504-.043.069-.08.012-.284-.081z" fill="#ffa316"/><path d="m49.808 83.518c.056-.268.781-9.135-1.329-9.378s-2.811.102-2.894.532c-.171.907 1.525 9.074 1.688 9.32.165.246 2.148 1.388 2.535-.474z" fill="#ee804e"/><path d="m49.772 84.869.371.203-.185.729s-1.041.305-1.328.209-.281-.251-.472-.239c-.191.013-1.255.306-1.925.389-.67.084-2.272-.167-2.32-.466s.107-.551.107-.551z" fill="#983726"/><path d="m49.809 83.518s.478.861.334 1.555c0 0-3.252.909-4.257.813-1.004-.096-2.152-.478-1.865-.742.287-.263 1.722-.55 2.296-1.124.574-.573.837-.741 1.268-.334.43.406 2.224-.168 2.224-.168z" fill="#022e39"/><path d="m46.197 84.099c.185.079.438.223.693.476l.114.12c.098.11.195.236.286.382l.074.124h.049l.237-.003.144-.372.019-.048s-.082-.327-.308-.638c-.167-.231-.416-.453-.771-.524z" fill="#02181f"/><path d="m46.857 84.704.314.414.029.03.08.032.114-.038.48-.473.015-.179-.26-.396-.105-.069-.118.03-.534.453zm.195-.133.373-.316.075-.02.044.02.023.025.143.218-.009.114-.338.333-.073.025-.07-.04-.178-.234z" fill="#ffa316"/><path d="m56.673 79.193c-.097.006-.193.011-.291.016.544.414 1.218.55 2.052.213.199-.08.376-.218.529-.402-.1.01-.199.02-.301.028l-.196.019-.036.003c-.091.008-.183.016-.275.023-.126.011-.254.021-.383.03l-.178.013c-.123.009-.247.018-.373.026-.11.007-.22.013-.33.02l-.062.004z" fill="#006788"/><path d="m42.739 77.962c.026 1.317.11 3.739.11 3.739l.003.001.007.001c.264.047 5.795.544 8.983-.688.603-.233 1.163-1.213 1.508-1.749-.143-.001-.284-.003-.425-.007l-.268-.005c-.105-.003-.211-.006-.316-.008-.504-.016-1.005-.038-1.503-.068l-.239-.016c-.228-.014-.457-.031-.684-.049-.675-.055-1.343-.122-2.005-.203-.222-.027-.443-.056-.663-.087-.11-.016-.22-.03-.329-.047-.11-.015-.22-.031-.328-.049-.104-.016-.208-.031-.312-.049l-.214-.035c-.099-.015-.197-.032-.296-.05-.185-.031-.368-.063-.552-.098l-.252-.048c-.108-.021-.214-.041-.322-.062-.107-.022-.214-.043-.321-.065-.531-.109-1.06-.229-1.582-.358z" fill="#006788"/><path d="m42.682 74.533c.005.439.013.859.018 1.26.006.315.01.619.015.908.127.032.251.063.376.095.125.03.25.061.375.09.124.03.25.059.375.087.249.057.496.111.743.162.124.026.248.051.37.075.247.049.491.095.736.138.114.021.227.042.341.061.121.021.242.042.361.061.117.018.232.037.348.056l.074.011c.101.017.202.032.303.046l.072.011c.222.032.444.062.663.091l.009.001c.18.023.36.045.54.066h.002c.183.021.363.041.544.06l.129.013c.175.018.35.035.524.051l.018.002c.21.019.42.035.628.052.143.011.287.022.429.03.096.007.19.013.285.019.339.021.674.037 1.005.05l.185.007c.161.007.32.012.479.015.131.004.261.007.39.009.29.006.577.008.859.008.094-.311.167-.638.222-.968.311-.001.617-.005.919-.012.123.335.265.659.427.956.191-.006.381-.014.568-.021.093-.004.186-.009.278-.013.489-.023.962-.053 1.416-.089.118-.009.234-.018.35-.027.15-.013.301-.026.447-.04l.118-.011c.24-.023.476-.047.702-.072l.225-.024c.079-.295.142-.621.191-.975.054-.381.091-.793.114-1.231.354-6.531-2.4-18.823-2.4-18.823l3.426-2.515-17.883 2.025c-.413 4.54-.389 12.799-.316 18.305zm11.556 1.356c.062-.953.024-1.84-.018-2.411.066.578.194 1.476.43 2.406-.136.003-.273.005-.412.005z" fill="#006788"/><path d="m56.014 78.019c-.188.008-.377.016-.568.021.259.478.567.888.937 1.169.098-.005.194-.01.291-.016l.155-.008.062-.004c.11-.007.22-.013.33-.02.126-.009.25-.018.373-.026l.178-.013c.129-.01.257-.02.383-.03.093-.008.185-.016.275-.023l.036-.003.196-.019c.102-.009.201-.019.301-.028.252-.303.445-.737.587-1.277l-.225.024c-.227.025-.462.049-.702.072l-.118.011c-.147.014-.297.027-.447.04-.115.01-.231.019-.35.027-.454.036-.927.065-1.416.089-.093.006-.186.01-.278.014z" fill="#bae1ff"/><path d="m42.716 76.701c.008.46.016.881.023 1.261.522.129 1.051.249 1.583.359.106.023.214.044.321.065s.214.042.322.062l.252.048c.184.034.367.066.552.098.099.018.197.035.296.05l.214.035c.104.018.208.033.312.049.108.018.218.034.328.049.109.017.219.031.329.047.221.03.441.06.663.087.662.081 1.33.148 2.005.203.227.017.457.035.684.049l.239.016c.498.03.999.053 1.503.068.105.002.211.005.316.008l.268.005c.141.004.282.006.425.007.225-.353.397-.763.528-1.203-.282 0-.569-.002-.859-.008-.129-.002-.259-.005-.39-.009-.159-.003-.318-.008-.479-.015l-.185-.007c-.331-.013-.666-.029-1.005-.05-.095-.006-.189-.012-.285-.019-.143-.009-.286-.02-.429-.03-.208-.017-.417-.033-.628-.052l-.017-.002c-.174-.016-.349-.032-.524-.051l-.129-.013c-.181-.019-.362-.038-.545-.06h-.002c-.179-.021-.36-.043-.54-.066l-.009-.001c-.219-.028-.441-.059-.663-.091l-.073-.011c-.101-.014-.202-.029-.303-.046l-.073-.011c-.116-.019-.231-.037-.349-.056-.119-.019-.24-.039-.36-.061-.114-.019-.227-.039-.341-.06-.245-.044-.489-.09-.735-.139-.123-.024-.247-.049-.371-.075-.247-.051-.495-.106-.743-.162-.125-.028-.25-.057-.374-.087-.125-.029-.25-.059-.375-.09-.126-.027-.251-.059-.377-.091z" fill="#bae1ff"/><path d="m42.682 74.533c.005.439.013.859.018 1.26 3.516.864 7.269 1.304 11.173 1.304l.227-.001c.311-.001.617-.005.919-.012 1.779-.038 3.377-.164 4.723-.316.054-.381.091-.793.114-1.231-1.453.175-3.219.318-5.205.348-.137.003-.273.005-.412.005-3.393.022-7.393-.295-11.557-1.357z" fill="#bae1ff"/><path d="m59.855 75.536c1.659-.197 2.91-.436 3.614-.586-.011-9.479-1.288-20.899-1.288-20.899l-1.301.147-3.426 2.515c.001 0 2.755 12.292 2.401 18.823z" fill="#004461"/><path d="m59.741 76.768c1.663-.188 2.944-.416 3.722-.574.006-.409.007-.824.007-1.243-.704.15-1.955.389-3.614.586-.024.438-.061.85-.115 1.231z" fill="#80c9ff"/><path d="m59.55 77.742.237-.028.166-.021c.388-.047.754-.097 1.095-.148l.132-.02c.261-.039.508-.079.738-.118l.224-.038c.156-.027.305-.055.443-.08l.103-.02.193-.037.126-.025c.124-.024.237-.048.341-.07l.1-.021c.007-.305.013-.611.016-.923-.777.158-2.059.386-3.722.574-.051.354-.113.68-.192.975z" fill="#004461"/><path d="m58.963 79.02.188-.019.185-.02c.197-.021.388-.042.574-.063l.23-.028.21-.026.144-.019.141-.019c.67-.089 1.26-.183 1.759-.269l.118-.021.14-.024.188-.035.006-.001.104-.02.067-.013.128-.024c.095-.019.183-.037.267-.054.016-.409.027-.826.037-1.25l-.1.021c-.104.022-.217.046-.341.07l-.126.025-.193.037-.103.02c-.139.025-.287.053-.443.08l-.224.038c-.23.039-.478.079-.738.118l-.132.02c-.341.052-.707.102-1.095.148l-.166.021-.237.028c-.143.541-.336.976-.588 1.279z" fill="#80c9ff"/><path d="m42.859 81.703c10.752 3.04 20.491.433 20.491.433.054-.684.031-3.027.061-3.769-.083.017-.172.035-.267.054l-.128.024-.067.013-.104.02-.006.001-.188.035-.14.024-.118.021c-.499.086-1.089.18-1.759.269l-.141.019-.144.019-.21.026-.23.028c-.187.021-.377.043-.574.063l-.185.02-.188.019c-.153.185-.33.322-.529.402-.834.337-1.508.201-2.052-.213l-.089.004c-.129.006-.258.011-.388.017-.144.006-.289.011-.437.015-.103.004-.207.007-.312.009l-.047.002c-.122.003-.244.005-.368.007-.15.003-.301.005-.453.006l-.209.001-.211.001c-.174 0-.347-.001-.519-.003-.345.536-.899 1.533-1.508 1.749-3.53 1.246-8.717.731-8.981.684z" fill="#004461"/><path d="m53.35 79.267c.172.002.345.003.519.003l.211-.001.209-.001c.152-.001.303-.003.453-.006.124-.002.246-.004.368-.007l.047-.002c.105-.002.21-.005.312-.009.147-.004.293-.009.437-.015.13-.006.259-.011.388-.017l.089-.004c-.369-.281-.678-.691-.937-1.169-.092.003-.184.005-.276.007-.138.004-.277.007-.418.009-.287.006-.578.008-.873.008-.132.441-.305.851-.529 1.204z" fill="#80c9ff"/><path d="m53.878 78.063c.295 0 .586-.002.873-.008.141-.002.28-.005.418-.009.093-.002.185-.004.276-.007-.162-.297-.304-.621-.427-.956-.302.007-.608.011-.919.012-.054.331-.127.658-.221.968z" fill="#004461"/><path d="m54.238 75.889c.139 0 .275-.002.412-.005-.235-.931-.363-1.828-.43-2.406.043.571.081 1.458.018 2.411z" fill="#004461"/><path d="m54.1 77.096c.311-.001.617-.005.919-.012-.145-.392-.267-.799-.368-1.2-.137.003-.273.005-.412.005-.027.396-.071.804-.139 1.207z" fill="#80c9ff"/><g><path clip-path="url(#SVGID_2_)" d="m49.396 62.58h2.807v12.078h-2.807z" fill="url(#SVGID_3_)"/></g><path d="m46.734 59.846c-2.065 5.053-.87 11.3-.87 11.3l1.25.218c-1.249-3.751-.38-11.518-.38-11.518z" fill="url(#SVGID_4_)"/><path d="m43.802 45.338c-.263 2.273-.958 8.556-.889 10.985 0 0 7.168 3.109 13.911 1.449.938-.821 1.609-1.798 1.899-2.957 2.055-8.21-5.606-8.799-5.606-8.799 5.281-1.222 3.03-12.311 2.712-13.762-3.053-.232-6.145.557-7.333 1.22-.781.436-1.19.9-1.384 1.337-.334.622-.283 2.393-1.031 3.548-.833 1.284-2.822 2.267-3.185 3.997-.189.902.364 2.336.906 2.982z" fill="#c0bd00"/><path d="m56.824 57.772c1.948-.479 3.86-1.357 5.555-2.822 0 0-1.317-7.052-.742-10.153s1.932-6.325.993-8.453c-1.238-2.806-4.004-3.876-6.801-4.089.318 1.451 2.569 12.54-2.712 13.762 0 0 7.661.589 5.606 8.799-.289 1.159-.96 2.135-1.899 2.956z" fill="#8b8b35"/><path d="m49.967 53.459c.15.129.778-.21.856-.871l.315-.513c-.016.152-.021.289.004.319l.415.831c.063.018.623.005.86-.092l.455.136.308-.178.145.149c.119.036 1.125-.056 1.165-.118.041-.065.663-.706.579-.893-.083-.188-.567-.312-.903.305l-.473.002-.079-.122-.114-.062c-.037-.121-.087-.274-.126-.379.448-.091 1.108.014 1.293.026.162.008.904.13 1.478.018.173-.034.354-.219.408-.388.09-.276.185-.699.203-.873.038-.366-.324-.788-.692-.797-.717-.017-1.966.004-2.849-.219 0 0-2.307 1.278-2.492 1.397l-.564 1.043c-.002.003-.343 1.153-.192 1.279zm2.793-.95-.008-.018.01.016z" fill="#e6804e"/><path d="m55.973 51.954c.146.07 12.219-4.153 12.042-5.164-.178-1.012-2.332-2.747-3.181-2.391-.849.357-9.122 6.1-9.122 6.1z" fill="#e6804e"/><path d="m56.697 49.693s.435.687.824 1.271c1.069-.394 8.366-3.122 9.146-4.527.259-.467.192-1.089-.071-1.828-.49-.429-1.032-.731-1.492-.58-1.17.385-8.407 5.664-8.407 5.664z" fill="#c0bd00"/><path d="m57.521 50.964c.168.249.327.479.44.629 0 0 11.55-3.537 10.063-5.329-.031-.038-.669-.995-1.43-1.655.264.739.33 1.361.071 1.828-.777 1.405-8.074 4.133-9.144 4.527z" fill="#8b8b35"/><path d="m61.83 43.185c.482.646 1.982 2.806 2.26 3.322.207.385.817.694 1.506.855.535-.34.923-.657 1.071-.926.841-1.517-1.753-4.676-3.337-8.131-1.325-2.892-3.257-3.419-3.923-3.469-1.542 1.319-1.29 2.857-.885 3.611.241.449 1.744 2.648 3.308 4.738z" fill="#c0bd00"/><path d="m65.596 47.362c1.162.27 2.548.113 2.588-.833.038-.908-.536-2.188-.999-3.063l.01-.003c-.071-.149-.146-.305-.223-.461-.284-.586-.602-1.215-.94-1.858-1.902-3.617-4.481-7.673-5.86-6.85-.099.059-.192.118-.282.178-.177.119-.338.241-.481.365.666.05 2.598.577 3.923 3.469 1.584 3.455 4.178 6.614 3.337 8.131-.15.268-.538.585-1.073.925z" fill="#8b8b35"/><path d="m54.947 49.767c1.269-.374 2.714-1.091 4.075-2.431 3.588-3.53.809-7.775.809-7.775l1.806-4.877 1.12.251c.269-.907.467-1.417.467-1.417s-2.303-1.182-3.764 1.901c-1.303 2.746-3.95 12.296-4.513 14.348z" fill="#00a1b8"/><path d="m54.841 50.158c3.498.264 6.816-.323 6.816-.323-1.027-6.45.33-12.303 1.1-14.9l-1.12-.251-1.806 4.877s2.779 4.245-.809 7.775c-1.361 1.34-2.807 2.057-4.075 2.431-.068.252-.106.391-.106.391z" fill="#008ba2"/><path d="m48.958 40.977c9.903 3.422 13.38-3.542 14.26-6.305.37-1.164-.074-2.107-.711-2.81-.582-.642-1.328-1.082-1.761-1.304-.218-.112-.357-.169-.357-.169l-1.627 1.507-.631.585-.599.552-2.746 2.544v.001l-1.417 1.312-1.568 1.452-.707.658z" fill="#008ba2"/><path d="m46.725 39.762c.604.541 1.342.97 2.232 1.215h.001c2.859-.103 4.409-.85 5.256-1.559.259-.217.45-.431.596-.62v-.001l-.167.059-.172.052-.174.046c-.311.077-.63.128-.952.153l-.255.018c-.463.023-.93.004-1.385-.044l-.169-.018-.021-.003-.178-.024-.033-.005-.165-.024-.045-.007-.169-.028-.167-.029-.195-.038-.131-.027-.147-.031c-.163-.036-.32-.074-.471-.113l-.222-.059-.066-.019-.095-.026-.096-.027-.21-.062c-.105-.033-.206-.065-.302-.096l-.06-.021-.087-.028-.225-.078-.082-.029c-.199-.072-.352-.132-.452-.172l-.057-.024-.058-.023-.011-.005h.001l.004.002c.794.168 1.529.265 2.205.306l.151.008.16.007.236.006.222.002h.057l.241-.005.251-.011.222-.013.046-.004.209-.019h.006l.014-.001.171-.02.029-.003c.118-.014.234-.03.349-.048l.163-.026.028-.005.162-.03.171-.035.166-.038.163-.04.128-.033.16-.046.176-.053.021-.007.167-.057c.133-.045.261-.093.383-.143l.17-.071c.114-.049.223-.099.326-.15l.146-.075c.149-.076.287-.155.417-.235l.127-.079.229-.153.008-.006.107-.078.104-.077.098-.077c-.116.026-.232.049-.347.068l-.27.042-.038.002c-.146.02-.292.034-.437.045l-.02.002c-.092.006-.183.011-.271.014l-.207.006c-.141.002-.279.001-.416-.004-.208-.007-.411-.021-.609-.042l-.176-.018c-.174-.021-.345-.046-.509-.074l-.029-.005-.133-.023-.116-.022-.082-.017-.117-.025-.042-.009-.109-.025c-.142-.033-.281-.068-.412-.104l-.016-.004-.135-.038-.12-.035-.008-.003-.121-.037-.003-.001-.118-.038-.06-.02-.113-.038-.108-.038-.197-.073-.071-.027-.017-.007-.042-.017c-.101-.04-.186-.076-.254-.105l-.042-.02-.065-.028-.033-.017-.048-.022-.004-.002.009.001c.116.005.231.01.344.014.221.008.436.011.647.011.127.001.251-.001.375-.003.094-.002.188-.004.279-.008l.025-.001c.098-.004.192-.009.286-.014.281-.015.551-.036.812-.065l.172-.02.174-.021.143-.018.061-.01.136-.021.181-.03.139-.024.222-.042.171-.036.244-.056.146-.035.151-.039v-.001l.055-.015c.185-.049.362-.104.534-.16l.245-.084.13-.048.176-.068.148-.06.129-.055.046-.021.094-.041.256-.122.112-.057.11-.057.107-.058.1-.056c.142-.08.278-.162.408-.248l.096-.063.185-.127.089-.064c.275-.201.521-.409.739-.622l.095-.091c.1-.099.193-.198.281-.298l.059-.068.116-.137.056-.068.055-.068.053-.067.083-.112.08-.112.067-.099.095-.144.118-.193.107-.188.07-.131.055-.109c.077-.156.143-.304.196-.438l.027-.071.001-.001c.14-.36.2-.623.221-.722l.006-.033.002-.011.009-.002-.495-.023-1.281-.061-9.249-.438-1.218-.058s-.269.127-.665.354c-.748.43-1.952 1.219-2.672 2.192-.818 1.105-.575 5.192 1.907 7.404z" fill="#00c4e4"/><path d="m51.33 34.79s-2.768-.37-3.803-2.381c0 0-.521 2.828 3.803 2.381z" fill="#00a1b8"/><path d="m48.567 37.036s-2.154-.32-2.989-3.005c0 0-.702 2.814 2.989 3.005z" fill="#00a1b8"/><path d="m49.342 20.349c.285-2.775 3.528-3.701 5.752-4.012 2.144.666 5.194 2.104 5.026 4.89-.259 4.315.928 2.942.459 5.737-.543 3.25-2.504 4.349-4.434 5.07-.367.138-1.872.519-2.367.45-.5-.013-1.923-.632-2.264-.827-1.786-1.024-3.601-2.431-3.611-5.726-.009-2.834.996-1.282 1.439-5.582z" fill="#ee804e"/><path d="m57.208 25.801.029-.215c-.576-.078-.981-.274-1.207-.582-.244-.333-.187-.682-.187-.685l-.214-.037c-.003.018-.073.443.225.85.262.358.717.583 1.354.669z" fill="#8f4e24"/><path d="m51.607 25.479-.03-.215c.575-.081.98-.279 1.204-.589.242-.334.183-.682.183-.685l.214-.039c.003.018.075.443-.221.851-.26.36-.714.588-1.35.677z" fill="#8f4e24"/><path d="m52.101 28.44c-.033.34.117.671.368.901l.084.073c.3-.269.745-.42 1.229-.38.483.039.897.261 1.151.573l.095-.059c.285-.186.486-.489.508-.829.011-.154-.018-.301-.139-.362-.056.385-.766.638-1.606.569-.841-.068-1.5-.434-1.493-.821-.131.041-.183.182-.197.335z" fill="#8b011c"/><path d="m52.553 29.414c.529.43 1.161.442 1.161.442s.627.09 1.219-.249c-.254-.312-.668-.534-1.151-.573-.484-.04-.929.112-1.229.38z" fill="#ff4c67"/><path d="m52.297 28.105c-.007.388.652.753 1.493.821s1.551-.185 1.606-.569c-.06-.03-.141-.041-.252-.022-.67.118-1.312.066-1.312.066s-.641-.053-1.284-.278c-.106-.036-.188-.039-.251-.018z" fill="#fff"/><path d="m58.819 23.897s-.807-1.32-1.868-.988c-1.062.333-1.265 1.388-1.265 1.388s.533 1.001 1.729.849c1.016-.13 1.404-1.249 1.404-1.249z" fill="#fff"/><path d="m56.206 23.89c-.059.598.307 1.123.816 1.174.51.051.972-.393 1.03-.99.06-.598-.306-1.124-.815-1.175-.51-.05-.971.393-1.031.991z" fill="#913f39"/><path d="m56.69 23.938c-.028.285.146.535.389.56.242.024.462-.188.49-.472.028-.285-.146-.535-.389-.56-.242-.025-.462.187-.49.472z" fill="#3f0100"/><path d="m58.451 24.149c-.035.287-.292.491-.573.457-.282-.035-.483-.295-.448-.582.035-.286.292-.49.573-.456.282.035.483.295.448.581z" fill="#fff"/><path d="m58.819 23.897s-.688-.741-1.724-.786c-.957-.042-1.409 1.186-1.409 1.186s.293-1.83 1.588-1.751c1.379.086 1.545 1.351 1.545 1.351z" fill="#bf3100"/><path d="m58.819 23.897.321-.485s-2.866-1.887-3.454.885c0 0 .452-1.248 1.537-1.16 1.08.088 1.596.76 1.596.76z" fill="#551026"/><path d="m50.197 23.237s1.03-1.153 2.015-.636.995 1.592.995 1.592-.704.89-1.854.524c-.975-.31-1.156-1.48-1.156-1.48z" fill="#fff"/><path d="m52.769 23.699c-.049.599-.503 1.051-1.014 1.009s-.885-.562-.836-1.16c.049-.599.503-1.05 1.014-1.009.51.042.884.562.836 1.16z" fill="#913f39"/><path d="m52.284 23.66c-.023.284-.239.5-.482.479-.243-.02-.422-.267-.398-.552.023-.285.239-.5.482-.48s.422.268.398.553z" fill="#3f0100"/><path d="m52.067 23.795c-.016.265.183.491.443.507.261.016.484-.187.5-.451.016-.265-.183-.491-.443-.507-.259-.016-.484.186-.5.451z" fill="#fff"/><path d="m50.197 23.237s.809-.606 1.836-.464c.949.131 1.174 1.42 1.174 1.42s.039-1.854-1.248-2.008c-1.372-.164-1.762 1.052-1.762 1.052z" fill="#bf3100"/><path d="m50.18 23.293-.238-.532s3.134-1.397 3.265 1.433c0 0-.244-1.305-1.329-1.394-1.08-.088-1.698.493-1.698.493z" fill="#551026"/><path d="m47.491 30.163c.154.543.271.852.271.852l2.509-.014s-.431-.41-.896-1.135c-.74-1.154-1.568-3.105-.874-5.46 1.053-3.571 4.775-5.464 5.937-5.939l.189-.073.023-.009-3.575-3.885-.031-.034c-.699.619-1.293 1.275-1.795 1.956v.001c-3.733 5.059-2.407 11.463-1.758 13.74z" fill="#00c4e4"/><path d="m52.055 16.801c.126.119.258.234.387.343.679.571 1.338.982 1.38 1.009l.002.001s.233.107.613.314c1.756.952 6.635 4.039 5.914 8.576-.204 1.283-.88 2.369-1.729 3.261-2.002 2.104-4.966 3.132-4.966 3.132 1.793-.063 3.27-.404 4.476-.954l.096-.044c.746-.352 1.388-.784 1.933-1.281l.001-.001c.209-.19.403-.389.585-.597 2.581-2.946 2.512-7.597 1.618-11.24-1.392-5.674-7.564-6.612-10.498-5.397-.396.164-.65.36-.791.579-.447.681.2 1.568.979 2.299z" fill="#00c4e4"/><path d="m56.947 21.938c.271.026.535.086.791.174.378-.123.283-.44.197-.612-.777-.438-1.84-.826-2.07-.446-.363.6.484.826 1.082.884z" fill="#d8dedc"/><path d="m57.738 22.112.069.024c.383.139.887.283.976.09.057-.125-.334-.437-.848-.727.086.173.181.49-.197.613z" fill="#bec2c0"/><path d="m50.311 21.47c.053.205.559.143.948.066.281-.056.568-.077.854-.059l.201.007.057-.056c.428-.413.185-.681-.097-.833h-.001c-.888.156-2.018.661-1.962.875z" fill="#d8dedc"/><path d="m52.371 21.428-.057.056c.554.004 1.199-.13.975-.708-.096-.245-.517-.269-1.015-.181.283.152.525.42.097.833z" fill="#bec2c0"/><path d="m53.575 24.059s-.425 2.06-.022 2.339c.402.279 1.906.01 1.906.01l-.065.19-.576.042-.224.08-.504.236-.371-.05-.448-.195-.15-.22-.362-.029-.312-.174-.113-.102.007-.133.392-.087.281-.092.105-.069.114-.894.179-.604z" fill="#bf3100"/><path d="m53.883 27.016c.307.025.564-.083.717-.213.051-.043.23-.059.376-.073.287-.026.612-.056.657-.289.029-.152-.028-.246-.081-.298-.21-.203-.708-.102-.713-.101l.039.173c.103-.023.438-.055.551.056l.03.137c-.02.102-.297.127-.5.146-.204.019-.381.034-.474.113-.14.119-.488.271-.908.09-.252-.108-.316-.198-.358-.259l-.159-.106c-.32-.026-.551-.097-.617-.189l-.015-.079c.022-.091.164-.094.361-.089.183.004.411.01.424-.19.052-.814.76-3.005.768-3.027l-.169-.055c-.029.091-.723 2.233-.776 3.07l-.242.023c-.202-.005-.479-.012-.537.224l.043.226c.127.177.476.24.746.263l.029.032c.051.071.135.191.432.319.13.057.257.086.376.096z" fill="#8f4e24"/><path d="m55.567 26.215c.275.226.608.565.86.945.453.683.581 1.379.372 2.013l-.206-.068c.165-.501.097-1.035-.203-1.586-.242-.445-.589-.812-.867-1.056z" fill="#8f4e24"/><path d="m52.347 25.963c-.308.178-.692.458-1.003.793-.556.601-.796 1.267-.692 1.927l.215-.034c-.082-.521.072-1.037.457-1.533.311-.399.712-.706 1.026-.9z" fill="#8f4e24"/><path d="m53.518 31.565.088.006c.836.055 1.454-.127 1.838-.537.494-.528.407-1.235.403-1.265l-.216.028.108-.015-.108.014c.001.007.077.639-.348 1.091-.337.359-.897.517-1.664.467-.809-.05-1.354-.275-1.618-.666-.29-.426-.136-.918-.134-.923l-.206-.067c-.009.024-.19.594.158 1.11.294.435.865.689 1.699.757z" fill="#8f4e24"/><path d="m48.932 39.822c-.634.023-1.386.017-2.207-.061.604.541 1.342.97 2.232 1.215h.001c9.903 3.422 13.38-3.542 14.26-6.305.37-1.164-.074-2.107-.711-2.81-.582-.642-1.328-1.082-1.761-1.304 2.581-2.946 2.512-7.597 1.618-11.24-1.392-5.674-7.564-6.612-10.498-5.397-.396.164-.65.36-.791.579l-.031-.034c-.699.619-1.293 1.275-1.795 1.956v.001c.01.141.072.262.199.356.569.427 1.387.219 2.607.021.224-.036.462-.072.716-.104-.141.151-.257.304-.329.447-.136.275-.107.518.229.661.363.153.73.238 1.151.348.247.065.512.139.805.241.808.282 1.825.782 3.256 1.907 2.604 2.048 3.942 6.631 2.021 10.063-.17.304-.365.599-.588.882-.18.229-.364.445-.553.65-.175.189-.354.37-.535.541-.227.212-.457.411-.694.596-2.482 1.959-5.39 2.425-7.396 2.479-2.513.068.147 1.538 1.601 1.766 1.453.228-2.403.731-4.976.194-2.007-.415-.555 1.468 2.169 2.352z" fill="#00afca"/><g fill="#008ba2"><path d="m47.797 38.065.005.003.058.023.057.024c.099.04.252.1.452.172l.082.029.225.078.087.028.06.021c.096.03.197.062.302.096l.21.062.096.027.095.026.066.019.222.059c.151.039.309.077.471.113l.147.031.131.027.195.038.167.029.169.03.045.007.165.024.033.005.178.024.021.003.169.018c.455.048.922.067 1.385.044l.255-.018c.322-.025.642-.076.952-.153l.174-.046.172-.052.167-.058v-.001h.001l-.001.001c-.144.189-.337.403-.596.62-.847.709-2.396 1.456-5.256 1.559.374.104.778.181 1.214.225 5.731.576 10.947-4.56 11.955-7.584.26-.775.364-1.342.379-1.755l-.14-.146c-.403-.408-.862-.725-1.235-.946-.145-.084-.274-.155-.386-.212-.218-.112-.357-.169-.357-.169v.01l-.006.033c-.021.099-.081.361-.221.722l-.028.072c-.054.135-.119.282-.196.438l-.055.109-.07.131-.107.188-.118.193-.095.144-.067.099-.08.112-.083.112-.053.067-.055.068-.056.068-.116.137-.059.068c-.088.1-.182.199-.281.298l-.095.091c-.219.213-.465.421-.739.622l-.089.064-.185.127-.096.063c-.13.086-.267.168-.408.248l-.1.056-.107.058-.11.057-.113.058-.256.122-.094.041-.046.021-.129.055-.148.06-.176.068-.13.048-.245.084c-.172.057-.35.111-.534.16l-.055.016-.151.039-.146.035-.244.056-.171.036-.222.042-.139.024-.181.03-.136.021-.061.01-.143.018-.174.021-.172.02c-.262.029-.531.051-.812.065-.094.005-.188.01-.286.014l-.025.001c-.092.004-.185.006-.279.008-.124.002-.248.004-.375.003-.21.001-.426-.004-.647-.011-.114-.004-.228-.009-.344-.014l-.008-.001.003.002.048.022.033.017.065.028.042.02c.069.029.154.065.254.105l.042.017.017.007.071.027.197.073.108.038.113.038.06.02.118.038.003.001.121.037.008.003.12.035.135.038.016.004c.131.036.27.071.412.104l.109.025.042.009.117.025.082.017.116.022.133.023.029.005c.164.028.335.054.509.074l.176.018c.198.021.401.035.609.042.137.005.275.006.416.004l.207-.006c.089-.003.18-.008.271-.014l.02-.002c.145-.01.29-.025.437-.045l.039-.004.27-.042c.115-.02.23-.042.347-.068l-.098.077-.104.077-.107.078-.008.006-.229.153-.127.079c-.13.08-.268.159-.417.235l-.146.075c-.104.052-.212.102-.326.15l-.17.071c-.122.05-.25.098-.383.143l-.167.057-.021.007-.176.053-.16.046-.128.033-.163.04-.166.038-.171.035-.162.03-.028.005-.163.026c-.114.018-.23.034-.349.048l-.029.003-.171.02-.014.001h-.006l-.209.019-.046.004-.222.013-.251.011-.241.005h-.057l-.222-.002-.236-.006-.16-.007-.151-.008c-.676-.037-1.41-.134-2.205-.302z"/><path d="m61.265 25.913s-.69-6.198-7.965-8.565c0 0 3.798-.365 7.48 4.021 0 0-.681-3.087-3.052-4.66.001 0 6.291 2.734 3.537 9.204z"/><path d="m51.306 15.781-.066.028c2.075-.859 3.917-.716 5.241-.358l-.049-.013.149.04-.006-.001.084.024-.012-.004.051.015-.039-.011.165.05-.077-.023.087.026-.01-.003.021.007c.868.278 1.559.655 1.985.922.462.29.723.517.726.519l-.105-.177-.121-.188-.012-.017-.031-.044.001.002-.029-.042.002.003-.059-.083-.025-.033-.109-.141-.031-.038-.11-.13-.035-.039-.112-.122-.038-.039-.116-.116-.041-.038-.119-.109-.042-.036-.123-.104c-.442-.36-.941-.647-1.482-.852l-.195-.07-.046-.015-.152-.048-.059-.017-.142-.038-.063-.016-.14-.032-.066-.014-.138-.026-.07-.012-.135-.02-.073-.01-.134-.016-.075-.007-.032-.003-.16-.011c-.146-.008-.29-.01-.435-.007h-.002l-.217.01h-.005l-.217.018h-.003l-.163.021.004-.001-.007.001h.001l-.041.005-.014.002-.164.026.005-.001-.029.005h.001l-.016.003-.016.002-.174.036.003-.001-.026.005.023-.004-.03.006-.015.003-.217.053-.002.001c-.11.029-.217.061-.321.095l-.024.007c-.108.035-.211.071-.312.11l-.025.009c-.106.041-.209.083-.308.126l-.021.01c-.109.048-.215.098-.316.148l-.004.001-.005.003-.229.121-.031.017-.221.127-.031.02-.217.137-.025.017-.133.09-.002.002-.09.062-.004.003-.19.142-.008.007-.076.059c-.274.219-.451.393-.52.464l-.002.002-.006.007-.025.027.018-.02-.018.019v.001-.001.001l.087-.048.152-.082-.005.003.013-.007-.008.004.065-.033-.007.004.012-.006-.005.002.177-.089-.017.008.035-.017-.018.009.064-.031-.043.021.074-.034-.03.014.183-.085-.036.017.134-.059-.05.021.206-.089-.063.026zm2.052-.548-.146.019zm.226-.026-.145.016zm.265-.022-.184.014zm.287-.015-.239.011zm.264-.003-.188.002zm.317.007-.247-.007zm.255.015-.21-.013zm.215.02-.142-.014zm3.92 1.454-.039-.026zm.088.062-.06-.041zm.306.229c-.058-.046-.16-.126-.302-.227.143.101.244.181.302.227zm.018.015-.016-.013zm.013.011-.006-.005zm-2.585-1.386.055.018zm1.767.817.028.017zm-.141-.084.08.048zm-1.387-.65c.543.199 1.007.431 1.376.643-.354-.203-.822-.439-1.376-.643zm-.127-.045.101.035zm-.687-.209-.198-.049zm-.913-.181-.2-.025zm.219.033-.193-.029zm.212.039-.14-.026zm.223.047-.147-.032zm-4.731.39.163-.062zm1.6-.46.154-.025zm-.23.046.163-.032zm-.231.052.17-.039zm-.23.059.176-.046zm-.229.066.179-.052zm-.228.072.177-.057zm-.227.079.172-.061z"/><path d="m59.286 16.574-.026-.037z"/><path d="m56.48 15.452.094.026z"/><path d="m54.098 14.345h-.002z"/><path d="m53.877 14.378-.023.004z"/><path d="m51.239 15.81-.02.008z"/><path d="m50.966 15.928.048-.021z"/></g><path d="m59.958 34.732c1.1-.112 1.932-1.763 2.409-3.016-.403-.408-.862-.725-1.235-.946-.936 1.7-2.505 4.098-1.174 3.962z" fill="#006e81"/></svg>