<svg id="Capa_1" enable-background="new 0 0 512 512" height="512" viewBox="0 0 512 512" width="512" xmlns="http://www.w3.org/2000/svg"><g><path d="m352.001 304.251v121.592l-24.87 8.29c-3.93 1.31-6.053 5.557-4.744 9.487 1.31 3.93 5.559 6.054 9.487 4.744l29.998-10c3.063-1.021 5.128-3.887 5.128-7.115v-126.998z" fill="#ffd9d4"/><path d="m160.002 304.249v121.592l24.87 8.29c3.93 1.31 6.053 5.557 4.744 9.487-1.31 3.93-5.559 6.054-9.487 4.744l-29.998-10c-3.063-1.021-5.128-3.887-5.128-7.115v-126.998z" fill="#a45e43"/><path d="m483.6 411.893-10-30c-1.021-3.063-3.887-5.128-7.115-5.128h-31.983c-4.136 0-7.5-3.364-7.5-7.5v-65.98h-15v65.98c0 12.406 10.093 22.5 22.5 22.5h26.578l8.291 24.872c1.048 3.143 3.974 5.13 7.114 5.13.786 0 1.586-.125 2.373-.387 3.928-1.309 6.052-5.557 4.742-9.487z" fill="#ffb4a9"/><path d="m85 317.882v51.384c0 4.136-3.364 7.5-7.5 7.5h-31.984c-3.228 0-6.094 2.065-7.115 5.128l-10 30c-1.31 3.93.814 8.178 4.744 9.487.787.262 1.586.387 2.373.387 3.14 0 6.066-1.987 7.114-5.13l8.291-24.872h26.577c12.407 0 22.5-10.094 22.5-22.5v-51.384z" fill="#c27749"/><path d="m7.5 171.749c4.142 0 7.5 3.358 7.5 7.5 0 34.462 28.038 62.5 62.5 62.5h30v15s-25.858 0-30 0c-42.733 0-77.5-34.767-77.5-77.5 0-4.142 3.358-7.5 7.5-7.5z" fill="#ffe2a8"/><path d="m504.5 171.749c-4.142 0-7.5 3.358-7.5 7.5 0 34.462-28.038 62.5-62.5 62.5-4.142 0-30 0-30 0v15h30c42.733 0 77.5-34.767 77.5-77.5 0-4.142-3.358-7.5-7.5-7.5z" fill="#ff4996"/><path d="m256 351.249v90c24.853 0 45-20.147 45-45s-20.147-45-45-45z" fill="#ff6337"/><path d="m271 396.249c0-24.853-6.716-45-15-45-24.853 0-45 20.147-45 45s20.147 45 45 45c8.284 0 15-20.147 15-45z" fill="#ff8646"/><path d="m434.5 279.281v-30c0-11.046-8.954-20-20-20h-30v104.003h35.001c6.634 9.429 17.593 15.597 29.999 15.597v-29.935c0-15.21-5.671-29.089-15-39.665z" fill="#ff4996"/><path d="m419.5 318.947c0-15.211-5.671-29.09-15-39.665v-30c0-11.046-8.954-20-20-20h-20c-11.046 0-20 8.954-20 20v30c-9.329 10.575-15 24.454-15 39.665l.001 29.935c12.406 0 23.365-6.167 30-15.597 6.635 9.43 17.594 15.597 30 15.597s23.365-6.167 30-15.597z" fill="#ff6b8a"/><path d="m455.435 170.508c.033-.406.062-.813.062-1.227 0-3.624-1.285-6.948-3.425-9.542l-27.711-33.913h-34.864v73.454h60c8.284 0 15-6.716 15-15 0-6.173-3.732-11.471-9.062-13.772z" fill="#ff6337"/><path d="m323.559 170.508c-.033-.406-.062-.813-.062-1.227 0-3.624 1.285-6.948 3.425-9.542l27.711-33.913h34.864v73.454h-60c-8.284 0-15-6.716-15-15 0-6.173 3.733-11.471 9.062-13.772z" fill="#ff8646"/><path d="m425.054 126.717h-50.557l15 72.565c24.853 0 45-20.147 45-45 0-10.389-3.529-19.948-9.443-27.565z" fill="#ffb4a9"/><path d="m403.736 140.129-49.795-13.412c-5.913 7.617-9.443 17.176-9.443 27.565 0 24.853 20.147 45 45 45 8.284 0 15-20.147 15-45-.001-4.947-.27-9.702-.762-14.153z" fill="#ffd9d4"/><path d="m389.497 109.282 14.239 30.847c7.748-3.47 14.916-8.001 21.318-13.412-8.232-10.604-21.093-17.435-35.557-17.435z" fill="#ff6337"/><path d="m403.736 140.129c-1.978-17.916-7.603-30.847-14.239-30.847-14.464 0-27.324 6.831-35.557 17.435 10.169 8.594 22.268 14.975 35.557 18.396 4.923-1.268 9.681-2.943 14.239-4.984z" fill="#ff8646"/><path d="m147.493 228.249h-30.01v74.5h50.017v-54.5c0-11.046-8.957-20-20.007-20z" fill="#ffe2a8"/><path d="m117.483 228.249h-20.007c-11.049 0-20.007 8.954-20.007 20v54.5h60.021v-54.5c0-11.046-8.958-20-20.007-20z" fill="#fff0d3"/><path d="m167.5 287.749h-30.01l15.005 60.133h30.01v-20.468c0-15.211-5.673-29.09-15.005-39.665z" fill="#ffb4a9"/><path d="m137.49 287.749h-60.021c-9.332 10.575-15.005 24.454-15.005 39.665v20.468h90.031v-20.468c0-15.211-5.673-29.09-15.005-39.665z" fill="#ffd9d4"/><path d="m122.485 108.249v90c24.853 0 45-20.147 45-45s-20.148-45-45-45z" fill="#a45e43"/><path d="m137.485 153.249c0-24.853-6.716-45-15-45-24.853 0-45 20.147-45 45s20.147 45 45 45c8.284 0 15-20.147 15-45z" fill="#c27749"/><path d="m107.485 108.249h30c8.284 0 15-6.716 15-15 0-16.569-13.431-30-30-30s-30 13.431-30 30c0 8.284 6.715 15 15 15z" fill="#60312c"/><circle cx="152.5" cy="317.882" fill="#ff8d7e" r="7.5"/></g></svg>