<svg id="Capa_1" enable-background="new 0 0 512 512" height="512" viewBox="0 0 512 512" width="512" xmlns="http://www.w3.org/2000/svg"><g><g><path d="m130.619 185.826c-21.737 0-51.104-10.338-70.348-24.788-7.349-5.518-7.349-16.619 0-22.137 19.244-14.45 48.611-24.788 70.348-24.788z" fill="#4e5660"/><path d="m316.55 57.824c0 25.914-21.007 66.805-46.921 66.805s-46.921-40.891-46.921-66.805 21.007-46.921 46.921-46.921c25.914-.001 46.921 21.007 46.921 46.921z" fill="#7acdf9"/><path d="m78.776 149.969c0 7.952.811 15.779 2.38 23.415 16.285 7.636 34.646 12.442 49.464 12.442v-71.713c-14.817 0-33.178 4.807-49.464 12.442-1.57 7.636-2.38 15.463-2.38 23.414z" fill="#3a4351"/><ellipse cx="220.61" cy="149.97" fill="#f4e972" rx="110.929" ry="96.114"/><path d="m220.61 53.856c-1.102 0-2.199.018-3.294.046-28.892 21.087-47.818 56.247-47.818 96.069 0 39.821 18.926 74.981 47.818 96.068 1.095.028 2.192.046 3.294.046 61.264 0 110.929-43.032 110.929-96.114 0-53.084-49.664-96.115-110.929-96.115z" fill="#4e5660"/><path d="m220.61 53.855c-1.102 0-2.199.018-3.294.046-5.182 3.782-10.037 8.024-14.526 12.657 9.817 41.761 15.465 109.396-14.216 148.895 7.709 11.964 17.461 22.351 28.742 30.585 1.094.028 2.192.046 3.294.046 61.264 0 110.929-43.032 110.929-96.114 0-53.083-49.664-96.115-110.929-96.115z" fill="#3a4351"/><path d="m226.477 23.374c23.486 10.952 51.668 47.272 40.716 70.758s-56.889 25.244-80.376 14.292c-23.486-10.952-33.647-38.869-22.695-62.355s38.869-33.647 62.355-22.695z" fill="#a2ddfd"/><ellipse cx="346.312" cy="127.069" fill="#f4e972" rx="110.929" ry="106.504"/><path d="m394.677 222.941c-131.666-19.601-132.92-135.188-96.179-191.998-37.329 17.147-63.115 53.744-63.115 96.126 0 58.82 49.664 106.504 110.929 106.504 17.339 0 33.747-3.822 48.365-10.632z" fill="#edbf76"/><g><g fill="#eda1ab"><ellipse cx="274.929" cy="150.368" rx="26.339" ry="20.975"/><ellipse cx="417.695" cy="150.368" rx="26.339" ry="20.975"/></g><g fill="#4e5660"><path d="m290.279 137.676c-4.143 0-7.5-3.358-7.5-7.5v-10.767c0-4.142 3.357-7.5 7.5-7.5s7.5 3.358 7.5 7.5v10.767c0 4.142-3.357 7.5-7.5 7.5z"/><path d="m402.345 137.676c-4.143 0-7.5-3.358-7.5-7.5v-10.767c0-4.142 3.357-7.5 7.5-7.5s7.5 3.358 7.5 7.5v10.767c0 4.142-3.358 7.5-7.5 7.5z"/><path d="m346.312 144.086c-7.829 0-15.274-3.391-20.427-9.303-2.722-3.123-2.396-7.86.727-10.582 3.122-2.721 7.859-2.396 10.582.727 2.303 2.642 5.626 4.157 9.118 4.157s6.816-1.516 9.12-4.158c2.721-3.123 7.459-3.448 10.581-.725 3.123 2.722 3.447 7.459.726 10.582-5.153 5.912-12.598 9.302-20.427 9.302z"/></g></g></g><g><path d="m196.974 218.692c-27.676-27.676-73.377-26.847-102.076 1.853-28.699 28.699-29.529 74.4-1.853 102.076s98.075 51.545 126.775 22.846c28.699-28.7 4.83-99.099-22.846-126.775z" fill="#e16e7e"/><path d="m315.026 218.692c27.676-27.676 73.377-26.847 102.076 1.853 28.699 28.699 29.529 74.4 1.853 102.076s-98.075 51.545-126.775 22.846c-28.699-28.7-4.83-99.099 22.846-126.775z" fill="#e16e7e"/><path d="m342.009 255.776c0-37.992-38.508-68.79-86.009-68.79s-86.009 30.798-86.009 68.79 38.508 102.694 86.009 102.694 86.009-64.702 86.009-102.694z" fill="#eda1ab"/><path d="m291.606 388.369h-71.212v100.032c0 13.033 10.566 23.599 23.599 23.599h24.014c13.033 0 23.599-10.566 23.599-23.599z" fill="#6fcd90"/><path d="m256 401.651c39.684 0 88.319-24.045 100.697-46.655-28.531-11.706-68.247-16.778-100.697-16.778s-72.166 5.072-100.697 16.778c12.378 22.611 61.013 46.655 100.697 46.655z" fill="#8de1ce"/></g><g><path d="m306.672 72.402c-4.143 0-7.5-3.358-7.5-7.5 0-22.445 14.268-41.312 22.699-48.921 3.076-2.775 7.817-2.532 10.593.543 2.775 3.075 2.532 7.817-.542 10.593-7.135 6.439-17.75 21.816-17.75 37.785 0 4.142-3.357 7.5-7.5 7.5z" fill="#4e5660"/><circle cx="326.897" cy="21.549" fill="#edbf76" r="21.549"/><path d="m386.059 72.402c-4.143 0-7.5-3.358-7.5-7.5 0-22.443 14.268-41.31 22.699-48.92 3.073-2.775 7.817-2.535 10.593.542 2.775 3.075 2.533 7.817-.542 10.593-7.135 6.44-17.75 21.818-17.75 37.786 0 4.141-3.358 7.499-7.5 7.499z" fill="#4e5660"/><circle cx="406.284" cy="21.549" fill="#edbf76" r="21.549"/></g></g></svg>