<svg height="512" viewBox="0 0 56 59" width="512" xmlns="http://www.w3.org/2000/svg"><g id="Page-1" fill="none" fill-rule="evenodd"><g id="036---Bee-Hive" fill-rule="nonzero" transform="translate(-1 -1)"><path id="Shape" d="m24.83 11 3.13-3.13 16.88-2.82 8.53 2.85c.6788046.22507734 1.4261233.07091942 1.9604483-.40440397s.7744797-1.19959931.63-1.90000003c-.1444796-.70040071-.6516437-1.27051869-1.3304483-1.495596l-9-3c-.3091819-.10289257-.6391627-.12695367-.96-.07l-17.64 2.94-14.64-2.93c-.3393389-.07034104-.6912482-.04964049-1.02.06l-9 3c-1.04934102.34793939-1.61793939 1.48065898-1.27 2.53s1.48065898 1.61793939 2.53 1.27l8.5-2.83 10.81 2.16-3.76 3.77 2.82 2z" fill="#805333"/><path id="Shape" d="m39 35c2.209139 0 4-1.790861 4-4s-1.790861-4-4-4h-3c2.209139 0 4-1.790861 4-4s-1.790861-4-4-4h-3c2.209139 0 4-1.790861 4-4s-1.790861-4-4-4h-22c-2.209139 0-4 1.790861-4 4s1.790861 4 4 4h-3c-2.209139 0-4 1.790861-4 4s1.790861 4 4 4h-3c-2.209139 0-4 1.790861-4 4s1.790861 4 4 4c-2.209139 0-4 1.790861-4 4s1.790861 4 4 4h3c-2.209139 0-4 1.790861-4 4s1.790861 4 4 4h3c-2.209139 0-4 1.790861-4 4s1.790861 4 4 4h22c2.209139 0 4-1.790861 4-4s-1.790861-4-4-4h3c2.209139 0 4-1.790861 4-4s-1.790861-4-4-4h3c2.209139 0 4-1.790861 4-4s-1.790861-4-4-4z" fill="#f0c419"/><g fill="#f3d55b"><path id="Shape" d="m37 55c0 2.209139-1.790861 4-4 4h-22c-2.209139 0-4-1.790861-4-4s1.790861-4 4-4h22c1.0612728-.0013291 2.0794609.4196715 2.8298947 1.1701053s1.1714344 1.7686219 1.1701053 2.8298947z"/><path id="Shape" d="m17.1 35c-.0688868.3288153-.1024107.6640549-.1 1v7h-12c-2.209139 0-4-1.790861-4-4s1.790861-4 4-4z"/><path id="Shape" d="m43 39c0 2.209139-1.790861 4-4 4h-12v-7c.0024107-.3359451-.0311132-.6711847-.1-1.0000031l12.1.0000031c1.0612728-.0013291 2.0794609.4196715 2.8298947 1.1701053s1.1714344 1.7686219 1.1701053 2.8298947z"/><path id="Shape" d="m40 23c.0013291 1.0612728-.4196715 2.0794609-1.1701053 2.8298947s-1.7686219 1.1714344-2.8298947 1.1701053h-28c-2.209139 0-4-1.790861-4-4s1.790861-4 4-4h28c2.209139 0 4 1.790861 4 4z"/></g><path id="Shape" d="m27 36v7h-10v-7c-.0024107-.3359451.0311132-.6711847.1-1 .4731925-2.330324 2.5221184-4.0050126 4.9-4.0050126s4.4268075 1.6746886 4.9 4.0050126c.0688868.3288153.1024107.6640549.1 1z" fill="#a56a43"/><path id="Shape" d="m44 19c-.5522847 0-1-.4477153-1-1v-4c0-.5522847.4477153-1 1-1s1 .4477153 1 1v4c0 .5522847-.4477153 1-1 1z" fill="#f0c419"/><path id="Shape" d="m46 18c-.2651948-.0000566-.5195073-.1054506-.707-.293l-1.293-1.293-1.293 1.293c-.3923789.3789722-1.0160848.3735524-1.4018186-.0121814s-.3911536-1.0094397-.0121814-1.4018186l2-2c.3904999-.3903819 1.0235001-.3903819 1.414 0l2 2c.2859079.2859943.3714219.7160366.216678 1.0896546-.1547439.3736179-.5192821.6172591-.923678.6173454z" fill="#2fa8cc"/><path id="Shape" d="m45 60c-.5522847 0-1-.4477153-1-1v-4c0-.5522847.4477153-1 1-1s1 .4477153 1 1v4c0 .5522847-.4477153 1-1 1z" fill="#f0c419"/><path id="Shape" d="m47 59c-.2651948-.0000566-.5195073-.1054506-.707-.293l-1.293-1.293-1.293 1.293c-.3923789.3789722-1.0160848.3735524-1.4018186-.0121814s-.3911536-1.0094397-.0121814-1.4018186l2-2c.3904999-.3903819 1.0235001-.3903819 1.414 0l2 2c.2859079.2859943.3714219.7160366.216678 1.0896546-.1547439.3736179-.5192821.6172591-.923678.6173454z" fill="#2fa8cc"/><path id="Shape" d="m55 42c-.2651948-.0000566-.5195073-.1054506-.707-.293l-3-3c-.3789722-.3923789-.3735524-1.0160848.0121814-1.4018186s1.0094397-.3911536 1.4018186-.0121814l3 3c.2859079.2859943.3714219.7160366.216678 1.0896546-.1547439.3736179-.5192821.6172591-.923678.6173454z" fill="#f0c419"/><path id="Shape" d="m53 43c-.5522847 0-1-.4477153-1-1v-3c0-.5522847.4477153-1 1-1h3c.5522847 0 1 .4477153 1 1s-.4477153 1-1 1h-2v2c0 .5522847-.4477153 1-1 1z" fill="#2fa8cc"/></g></g></svg>