<svg id="Layer_1" enable-background="new 0 0 512.001 512.001" height="512" viewBox="0 0 512.001 512.001" width="512" xmlns="http://www.w3.org/2000/svg"><g><g><g><g><path d="m157.754 121.739c-3.092 0-5.986-1.926-7.073-5.007l-16.373-46.418c-4.19-11.579-17.057-17.632-28.659-13.432l-10.544 3.815c-3.894 1.408-8.194-.605-9.604-4.501-1.409-3.895.606-8.195 4.501-9.604l10.544-3.815c19.383-7.012 40.864 3.077 47.888 22.49l16.393 46.475c1.378 3.906-.672 8.19-4.578 9.568-.825.291-1.668.429-2.495.429z" fill="#6d788a"/></g><g><path d="m208.542 98.379c-2.954 0-5.753-1.756-6.942-4.657l-16.905-41.24c-.04-.097-.078-.194-.113-.293-3.401-9.401-2.945-19.563 1.285-28.613 4.232-9.056 11.735-15.913 21.126-19.312l10.544-3.815c3.894-1.407 8.195.605 9.604 4.501 1.409 3.895-.606 8.195-4.501 9.604l-10.544 3.815c-5.619 2.032-10.108 6.137-12.641 11.558-2.515 5.381-2.804 11.42-.817 17.021l16.841 41.085c1.571 3.833-.262 8.213-4.095 9.784-.931.382-1.895.562-2.842.562z" fill="#6d788a"/></g></g><g><g><path d="m267.689 344.533 16.152 44.975" fill="#6d788a"/><path d="m283.841 397.01c-3.076 0-5.959-1.906-7.059-4.967l-16.152-44.975c-1.4-3.898.625-8.193 4.523-9.594s8.193.625 9.594 4.523l16.152 44.975c1.4 3.898-.625 8.193-4.523 9.594-.837.302-1.693.444-2.535.444z" fill="#fed23a"/></g><g><path d="m274.837 364.437c-45.462 16.324-95.577-7.374-111.935-52.929l-45.403-126.818c-16.358-45.556 7.236-95.719 52.698-112.043 45.462-16.324 95.577 7.374 111.935 52.929l45.403 126.818c16.357 45.556-7.236 95.719-52.698 112.043z" fill="#fed23a"/><path d="m327.534 252.394-45.403-126.818c-15.223-42.396-59.681-65.853-102.418-55.748 27.884 6.587 52 26.731 62.419 55.748l45.403 126.818c16.358 45.556-7.235 95.719-52.698 112.043-3.154 1.132-6.33 2.065-9.516 2.819 15.894 3.755 33.011 3.108 49.516-2.819 45.462-16.324 69.055-66.488 52.697-112.043z" fill="#f7c000"/><g><path d="m282.131 125.576c-16.358-45.556-66.473-69.253-111.935-52.93-45.462 16.324-69.056 66.487-52.698 112.043l13.722 38.588 164.489-59.513z" fill="#fed23a"/><g><path d="m242.131 125.576 20.759 50.063 32.819-11.874-13.578-38.189c-15.223-42.396-59.681-65.853-102.418-55.748 27.884 6.587 51.999 26.731 62.418 55.748z" fill="#f7c000"/></g><path d="m274.836 364.437c36.24-13.013 58.557-47.531 57.845-84.075l-155.696 56.332c22.736 28.414 61.752 40.705 97.851 27.743z" fill="#6d788a"/><path d="m291.689 295.193c-4.677 30.751-25.57 58.011-56.852 69.243-3.143 1.129-6.31 2.054-9.484 2.806 15.884 3.753 32.986 3.118 49.484-2.806 36.24-13.012 58.557-47.531 57.845-84.074z" fill="#636d7d"/><path d="m295.71 163.765-164.489 59.513 20.652 57.515 164.489-59.514z" fill="#6d788a"/></g></g><path d="m215.05 192.881s69.278-106.426 109.092-120.721 83.701 6.457 98.027 46.353c14.325 39.895-6.336 83.826-46.15 98.121-39.814 14.296-160.969-23.753-160.969-23.753z" fill="#73e3f0"/><path d="m422.168 118.513c-13.626-37.949-53.998-58.553-92.17-48.173 23.355 6.352 43.359 23.632 52.171 48.172 14.325 39.896-6.336 83.826-46.15 98.121-2.079.746-4.391 1.342-6.884 1.816 18.956 2.083 35.976 2.101 46.884-1.816 39.813-14.294 60.475-58.225 46.149-98.12z" fill="#57d7e6"/><g><path d="m215.414 193.917s-69.278 106.426-109.092 120.721-83.701-6.457-98.027-46.353 6.336-83.826 46.15-98.121c39.814-14.296 160.969 23.753 160.969 23.753z" fill="#73e3f0"/></g><path d="m61.33 168.348c50.229 5.519 114.084 25.569 114.084 25.569s-69.278 106.425-109.091 120.721c-1.943.698-3.898 1.287-5.856 1.82 14.612 3.974 30.533 3.682 45.856-1.82 39.813-14.296 109.092-120.721 109.092-120.721s-108.823-34.171-154.085-25.569z" fill="#57d7e6"/></g><g><path d="m380.666 144.74c-3.069 0-5.949-1.897-7.053-4.95-2.742-7.578-8.256-13.634-15.528-17.051-7.266-3.415-15.427-3.79-22.982-1.057-3.893 1.407-8.195-.605-9.604-4.501-1.409-3.895.606-8.195 4.501-9.604 11.326-4.1 23.566-3.534 34.465 1.586 10.893 5.118 19.151 14.183 23.254 25.523 1.409 3.896-.606 8.195-4.501 9.604-.844.305-1.705.45-2.552.45z" fill="#4dc5d4"/></g></g><path d="m498.95 443.802c-9.194 2.466-19.461 3.873-29.821 3.9 5.121-16.733 6.271-34.816 3.644-51.763-4.145-26.738-19.947-53.282-47.069-61.439-18.948-5.698-41.981.124-51.315 18.833-12.794 25.644 2.096 57.838 19.401 77.449 10.437 11.828 23.874 21.268 38.928 26.126 4.793 1.547 9.742 2.732 14.77 3.595-9.225 16.257-24.154 28.753-42.561 33.967-23.774 6.734-55.182 1.18-72.476-17.434-6.083-6.548-9.407-15.157-9.982-23.883 5.202.807 10.559.634 15.756-.531 17.959-4.026 35.418-24.74 22.151-42.614-8.401-11.319-24.121-7.818-33.769-.192-7.217 5.705-12.532 13.263-15.767 21.685-1.249-1.137-2.415-2.371-3.484-3.701-3.306-4.115-5.658-9.03-7.415-13.975-3.209-9.033-17.707-5.141-14.464 3.988 4.205 11.836 10.96 23.01 21.834 29.747-.937 14.017 4.152 27.981 13.211 38.605 10.523 12.341 27.259 20.048 42.828 23.524 30.363 6.78 63.028-1.344 84.567-24.408 6.386-6.838 11.566-14.667 15.591-23.094 5.699.247 11.394.145 16.979-.272 7.564-.565 15.121-1.683 22.451-3.648 9.314-2.499 5.362-16.973-3.988-14.465zm-162.548-22.716c2.607-1.887 6.807-3.985 9.86-3.439 1.07.191 1.691.616 2.417 1.747.472.737.642 1.61.881 2.442.086.301.152.627.208.951.003.092.008.245.01.464.035 4.101-2.247 8.288-6.429 11.045-5.47 3.607-10.84 4.979-17.676 4.262-.42-.044-.923-.133-1.455-.242 2.163-6.801 6.221-12.914 12.184-17.23zm88.506 16.111c-20.796-12.17-38.796-35.928-40.13-60.663-.407-7.551 1.28-15.312 5.471-20.287 4.267-5.065 9.886-7.828 16.292-8.708 15.195-2.086 31.251 7.198 40.164 20.643 15.091 22.763 15.502 53.178 6.937 78.482-10.324-1.457-20.241-4.497-28.734-9.467z" fill="#fce2c5"/></g></svg>