<svg id="Capa_1" enable-background="new 0 0 453.54 453.54" height="512" viewBox="0 0 453.54 453.54" width="512" xmlns="http://www.w3.org/2000/svg"><g><g><g><g><g><g><g><g><g><g><g><g><g><path d="m382.132 159.291c0 85.805-69.556 155.36-155.363 155.36-85.802 0-155.359-69.555-155.359-155.36 0-85.804 69.557-155.36 155.359-155.36 85.807 0 155.363 69.555 155.363 155.36z" fill="#c47651"/></g></g></g></g></g></g></g></g></g></g></g></g><g><g><g><g><g><g><g><g><g><g><g><g><path d="m337.359 449.609c-3.229-66.778-51.501-119.793-110.588-119.793s-107.357 53.015-110.587 119.793z" fill="#f8bdaa"/></g></g></g></g></g></g></g></g></g></g></g></g><g><g><g><g><g><g><g><g><g><g><g><g><g><circle cx="88.595" cy="216.2" fill="#f5aa9c" r="28.349"/></g></g></g></g></g></g></g></g></g></g></g></g><g><g><g><g><g><g><g><g><g><g><g><g><circle cx="364.948" cy="216.2" fill="#f5aa9c" r="28.348"/></g></g></g></g></g></g></g></g></g></g></g></g></g><g><g><g><g><g><g><g><g><g><g><g><g><path d="m257.643 334.821c-2.458 14.902-15.651 26.569-31.164 26.569-15.45 0-28.596-11.573-31.129-26.389-43.962 14.877-76.533 60.166-79.166 114.608h221.175c-2.644-54.669-35.478-100.106-79.716-114.788z" fill="#87cedc"/></g></g></g></g></g></g></g></g></g></g></g></g><g><g><g><g><g><g><g><g><g><g><g><g><path d="m170.224 347.614c-8.818 6.018-16.855 13.387-23.874 21.877v80.118h23.874z" fill="#42a4c8"/></g></g></g></g></g></g></g></g></g></g></g></g><g><g><g><g><g><g><g><g><g><g><g><g><path d="m285.248 348.96v100.649h23.874v-77.71c-6.963-8.866-15.001-16.598-23.874-22.939z" fill="#42a4c8"/></g></g></g></g></g></g></g></g></g></g></g></g><g><g><g><g><g><g><g><g><g><g><g><g><circle cx="226.772" cy="194.882" fill="#f9c5b8" r="146.729"/></g></g></g></g></g></g></g></g></g></g></g></g><g><g><g><g><g><g><g><g><g><g><g><g><g><path d="m184.075 222.861c0 10.988-11.942 19.896-26.675 19.896-14.736 0-26.677-8.909-26.677-19.896s11.94-19.896 26.677-19.896c14.733 0 26.675 8.909 26.675 19.896z" fill="#f39e9c"/></g></g></g></g></g></g></g></g></g></g></g></g><g><g><g><g><g><g><g><g><g><g><g><g><ellipse cx="296.144" cy="222.861" fill="#f39e9c" rx="26.677" ry="19.896"/></g></g></g></g></g></g></g></g></g></g></g></g></g><g><g><g><g><g><g><g><g><g><g><g><g><g><circle cx="168.654" cy="190.542" fill="#121325" r="10.146"/></g></g></g></g></g></g></g></g></g></g></g></g><g><g><g><g><g><g><g><g><g><g><g><g><circle cx="284.888" cy="190.542" fill="#121325" r="10.145"/></g></g></g></g></g></g></g></g></g></g></g></g></g><g><g><g><g><g><g><g><g><g><g><g><g><path d="m226.771 226.792c-9.32 0-17.977-4.904-22.591-12.798-1.095-1.874-.465-4.281 1.41-5.376 1.876-1.097 4.281-.465 5.376 1.41 3.211 5.492 9.266 8.903 15.805 8.903s12.595-3.412 15.806-8.903c1.094-1.875 3.501-2.509 5.376-1.41 1.875 1.095 2.505 3.502 1.41 5.376-4.613 7.894-13.271 12.798-22.592 12.798z" fill="#121325"/></g></g></g></g></g></g></g></g></g></g></g></g><g><g><g><g><g><g><g><g><g><g><g><g><path d="m158.508 89.666s24.737 75.96 194.741 57.875l20.252 43.001s5.816-73.385-36.142-127.643c0 0-67.304-88.257-191.01-27.49.001 0-1.956 29.723 12.159 54.257z" fill="#c47651"/></g></g></g></g></g></g></g></g></g></g></g></g><g><g><g><g><g><g><g><g><g><g><g><g><path d="m146.35 35.409s-86.104 22.426-66.185 153.718c0 0 65.461-24.225 90.059-90.78 0 0 14.468-46.299-23.874-62.938z" fill="#c47651"/></g></g></g></g></g></g></g></g></g></g></g></g><g><g><g><g><g><g><g><g><g><g><g><g><path d="m337.396 453.542c-.012 0-.023 0-.035 0h-221.182c-1.076 0-2.104-.441-2.846-1.22-.742-.778-1.133-1.827-1.081-2.901 2.566-52.885 32.509-98.449 76.283-116.082.779-.313 1.636-.37 2.447-.161 23.269 5.981 48.352 5.977 71.572.001.814-.21 1.67-.153 2.449.16 43.627 17.574 73.516 62.892 76.256 115.55.043.233.066.475.066.722.002 2.171-1.758 3.931-3.929 3.931zm-217.031-7.862h212.811c-3.681-47.587-30.76-88.206-69.934-104.567-23.711 5.881-49.19 5.883-72.943-.001-39.174 16.362-66.254 56.981-69.934 104.568z" fill="#121325"/></g></g></g></g></g></g></g></g></g></g></g></g><g><g><g><g><g><g><g><g><g><g><g><g><g><path d="m88.7 248.485c-.012-.001-.023-.001-.035 0h-.07c-17.801 0-32.283-14.482-32.283-32.284 0-11.681 6.334-22.474 16.53-28.168 1.091-.61 2.407-.664 3.545-.146s1.961 1.546 2.219 2.77c1.549 7.379 3.669 14.687 6.298 21.722.106.282.179.574.217.872 1.308 10.095 3.687 20.019 7.073 29.503.279.539.436 1.152.436 1.801 0 2.17-1.759 3.93-3.93 3.93zm-16.456-50.416c-5.072 4.572-8.071 11.142-8.071 18.132 0 11.532 8.034 21.223 18.798 23.769-2.575-8.204-4.449-16.674-5.588-25.263-2.009-5.422-3.73-10.997-5.139-16.638z" fill="#121325"/></g></g></g></g></g></g></g></g></g></g></g></g><g><g><g><g><g><g><g><g><g><g><g><g><path d="m364.945 248.485h-.07c-1.28 0-2.481-.625-3.217-1.672-.736-1.048-.915-2.389-.48-3.595 3.474-9.617 5.91-19.701 7.24-29.968.038-.298.111-.59.216-.872 2.63-7.035 4.75-14.343 6.299-21.722.257-1.223 1.081-2.252 2.219-2.77 1.136-.518 2.453-.463 3.545.146 10.196 5.694 16.53 16.488 16.53 28.168.001 17.802-14.481 32.285-32.282 32.285zm11.211-33.777c-1.139 8.593-3.014 17.063-5.587 25.263 10.764-2.547 18.797-12.237 18.797-23.769 0-6.99-2.999-13.56-8.071-18.132-1.408 5.64-3.129 11.215-5.139 16.638z" fill="#121325"/></g></g></g></g></g></g></g></g></g></g></g></g></g><g><g><g><g><g><g><g><g><g><g><g><g><path d="m337.359 453.54h-221.175c-1.076 0-2.104-.441-2.846-1.219-.742-.779-1.133-1.827-1.081-2.902 2.525-52.223 32.005-97.59 75.104-115.578.813-.338 1.719-.395 2.566-.159l1.787.5c1.912.538 3.824 1.075 5.75 1.554 1.307.325 2.356 1.295 2.782 2.572 3.754 11.277 14.542 19.152 26.233 19.152 11.988 0 22.855-8.127 26.427-19.765.442-1.442 1.671-2.503 3.162-2.732 2.398-.367 4.345-.878 5.954-1.561.96-.409 2.042-.419 3.008-.027 43.768 17.659 73.699 63.21 76.256 116.045.052 1.075-.339 2.123-1.081 2.902-.742.777-1.77 1.218-2.846 1.218zm-216.99-7.861h212.805c-3.667-47.44-30.636-87.98-69.67-104.431-1.192.413-2.479.764-3.878 1.058-5.246 13.666-18.544 23.015-33.147 23.015-14.307 0-27.549-9.142-32.938-22.479-1.32-.352-2.636-.721-3.952-1.091l-.445-.125c-38.515 16.691-65.138 57.097-68.775 104.053z" fill="#121325"/></g></g></g></g></g></g></g></g></g></g></g></g><g><g><g><g><g><g><g><g><g><g><g><g><path d="m170.224 453.54h-23.874c-2.171 0-3.931-1.76-3.931-3.931v-80.118c0-.914.319-1.8.901-2.504 7.263-8.787 15.57-16.397 24.688-22.62 1.203-.822 2.765-.91 4.051-.229 1.289.68 2.095 2.018 2.095 3.475v101.995c0 2.172-1.759 3.932-3.93 3.932zm-19.944-7.861h16.013v-90.294c-5.768 4.569-11.131 9.771-16.013 15.534z" fill="#121325"/></g></g></g></g></g></g></g></g></g></g></g></g><g><g><g><g><g><g><g><g><g><g><g><g><path d="m309.122 453.54h-23.874c-2.171 0-3.931-1.76-3.931-3.931v-100.649c0-1.472.823-2.822 2.133-3.496 1.308-.67 2.885-.558 4.083.298 9.167 6.551 17.47 14.528 24.68 23.709.544.693.839 1.547.839 2.428v77.71c0 2.171-1.76 3.931-3.93 3.931zm-19.944-7.861h16.013v-72.409c-4.856-6.042-10.219-11.505-16.013-16.318z" fill="#121325"/></g></g></g></g></g></g></g></g></g></g></g></g><g><g><g><g><g><g><g><g><g><g><g><g><path d="m226.779 345.544c-12.781 0-25.483-1.599-37.753-4.752-48.287-12.484-87.187-47.963-104.061-94.908-3.668-10.157-6.239-20.799-7.641-31.625-.81-6.368-1.22-12.883-1.22-19.372 0-2.348.046-4.296.146-6.135.083-1.554 1.077-2.913 2.533-3.464 2.446-.926 60.215-23.361 85.314-82.208.54-1.264 1.7-2.155 3.061-2.349 1.353-.193 2.723.336 3.595 1.4 13.572 16.555 48.942 44.328 133.336 44.328 15.223 0 31.608-.915 48.705-2.719 1.656-.177 3.257.722 3.97 2.238l20.08 42.748c.308.533.494 1.146.519 1.802.055 1.448.073 2.894.073 4.359 0 6.489-.41 13.003-1.219 19.362-1.404 10.842-3.976 21.484-7.644 31.64-16.874 46.944-55.773 82.423-104.054 94.9-12.257 3.156-24.953 4.755-37.74 4.755zm-142.775-153.894c-.026.995-.038 2.062-.038 3.238 0 6.159.389 12.339 1.156 18.371 1.328 10.251 3.764 20.335 7.239 29.96 15.997 44.502 52.865 78.13 98.627 89.96 23.256 5.976 48.345 5.976 71.567-.002 45.757-11.824 82.625-45.452 98.622-89.953 3.476-9.624 5.912-19.707 7.242-29.975.766-6.022 1.155-12.203 1.155-18.362 0-1.086-.01-2.161-.04-3.233l-18.7-39.809c-16.366 1.642-32.077 2.475-46.744 2.475-80.298 0-118.363-24.833-135.291-42.554-24.701 51.751-73.222 74.956-84.795 79.884z" fill="#121325"/></g></g></g></g></g></g></g></g></g></g></g></g><g><g><g><g><g><g><g><g><g><g><g><g><path d="m74.935 196.164c-.526 0-1.053-.106-1.551-.319-1.187-.509-2.046-1.568-2.302-2.833l-.055-.236c-.042-.176-.084-.351-.121-.532-2.274-10.743-3.432-21.844-3.432-32.957 0-87.831 71.456-159.287 159.287-159.287 87.841 0 159.305 71.456 159.305 159.287 0 11.113-1.158 22.214-3.439 32.992-.027.139-.067.307-.108.476l-.054.233c-.212 1.089-.876 2.038-1.827 2.612-.95.572-2.1.717-3.162.398l-5.098-1.533c-1.091-.302-2.024-1.064-2.518-2.116l-19.025-40.502c-16.361 1.642-32.075 2.474-46.744 2.475-80.297.001-118.362-24.833-135.291-42.554-26.859 56.271-81.882 78.792-86.942 80.763l-4.833 3.033c-.637.397-1.362.6-2.09.6zm278.273-52.444c1.51 0 2.904.87 3.556 2.26l19 40.451c1.622-8.928 2.44-18.031 2.44-27.145 0-83.496-67.938-151.426-151.444-151.426-83.496 0-151.425 67.93-151.425 151.426 0 8.932.786 17.854 2.339 26.588l.323-.202c.13-.082.263-.155.401-.22s.368-.158.513-.207c2.318-.88 60.087-23.316 85.186-82.163.54-1.264 1.7-2.155 3.061-2.349 1.353-.193 2.723.336 3.595 1.4 13.572 16.556 48.944 44.33 133.336 44.328 15.225-.001 31.612-.916 48.705-2.719.139-.015.277-.022.414-.022z" fill="#121325"/></g></g></g></g></g></g></g></g></g></g></g></g></g></svg>