<svg id="Capa_1" enable-background="new 0 0 512 512" height="512" viewBox="0 0 512 512" width="512" xmlns="http://www.w3.org/2000/svg"><g><path d="m320.178 45.147c5.148-8.368 8.412-17.82 9.425-27.763 1.066-10.453-7.976-19.079-17.985-17.099-14.162 2.802-26.922 9.483-36.227 19.512-11.152 25.616-3.076 48.438 7.677 52.303 9.764 3.51 27.168-6.656 37.11-26.953z" fill="#fd5c6f"/><path d="m230.606 45.147c-5.148-8.368-8.412-17.82-9.425-27.763-1.066-10.453 7.976-19.079 17.985-17.099 21.909 4.334 40.464 17.954 48.06 38.891-1.383 14.88-13.487 26.363-27.685 26.942-12.909.527-24.963-8.062-28.935-20.971z" fill="#ff8a98"/><path d="m147.782 330.893c-59.367-10.538-108.601-51.769-126.195-111.676-14.115-48.067 43.895-84.705 80.97-51.013 13.311 12.096 24.976 28.492 33.277 47.505 29.899 31.875 34.018 78.886 11.948 115.184z" fill="#00a62c"/><path d="m81.473 201.645c-4.268 0-7.726-3.459-7.726-7.726v-7.757c0-4.268 3.459-7.726 7.726-7.726s7.726 3.459 7.726 7.726v7.757c0 4.268-3.458 7.726-7.726 7.726z" fill="#039025"/><path d="m58.203 224.915c-4.217 0-5.571-2.37-13.22-10.019-3.017-3.018-3.017-7.91 0-10.928 3.018-3.016 7.91-3.016 10.928 0l7.757 7.757c4.882 4.884 1.357 13.19-5.465 13.19z" fill="#039025"/><path d="m89.23 271.456c-4.217 0-5.571-2.37-13.22-10.019-3.017-3.018-3.017-7.91 0-10.928 3.018-3.016 7.91-3.016 10.928 0l7.757 7.757c4.881 4.884 1.356 13.19-5.465 13.19z" fill="#039025"/><path d="m104.743 240.43c-4.268 0-7.726-3.459-7.726-7.726v-7.757c0-4.268 3.459-7.726 7.726-7.726s7.726 3.459 7.726 7.726v7.757c0 4.267-3.458 7.726-7.726 7.726z" fill="#039025"/><path d="m389.905 383.651c43.43-2.637 81.081-27.595 99.211-67.148 15.208-33.178-22.781-65.665-53.038-45.255-10.152 6.848-19.66 16.554-27.37 28.275-1.3.569-28.853 13.192-32.323 42.554-2.708 22.909 11.251 39.039 13.52 41.574z" fill="#00c755"/><path d="m446.041 317.997c-6.824 0-10.344-8.308-5.464-13.19l7.757-7.757c3.018-3.016 7.91-3.016 10.928 0 3.017 3.018 3.017 7.91 0 10.928-7.962 7.961-9.153 10.019-13.221 10.019z" fill="#00a62c"/><path d="m197.048 72.641c-4.289 0-5.283-2.083-16.08-12.88-3.017-3.017-3.017-7.91.001-10.927 3.017-3.016 7.91-3.017 10.927.001l10.616 10.617c4.881 4.881 1.356 13.189-5.464 13.189z" fill="#00a62c"/><path d="m153.954 136.524c-1.665 0-.95.1-16.506-5.086-4.048-1.349-6.235-5.725-4.886-9.774 1.349-4.048 5.722-6.233 9.774-4.886l14.062 4.687c8.276 2.759 6.281 15.059-2.444 15.059z" fill="#00a62c"/><path d="m163.167 434.351c-2.834 0-5.563-1.565-6.917-4.273-1.908-3.817-.361-8.458 3.455-10.366l13.27-6.635c3.819-1.906 8.459-.361 10.366 3.455 1.908 3.817.361 8.458-3.455 10.366-14.398 7.199-14.304 7.453-16.719 7.453z" fill="#00a62c"/><path d="m147.647 380.053c-8.722 0-10.717-12.299-2.443-15.059l13.022-4.341c4.05-1.346 8.425.839 9.774 4.886 1.349 4.048-.838 8.424-4.886 9.774-14.284 4.762-13.803 4.74-15.467 4.74z" fill="#00a62c"/><path d="m353.736 72.641c-6.821 0-10.345-8.309-5.464-13.189l10.616-10.617c3.018-3.018 7.911-3.017 10.927-.001 3.018 3.017 3.018 7.91.001 10.927-10.646 10.646-11.831 12.88-16.08 12.88z" fill="#00c755"/><path d="m396.83 136.524c-8.723 0-10.718-12.301-2.443-15.059l14.062-4.687c4.05-1.348 8.424.838 9.774 4.886 1.349 4.048-.838 8.425-4.886 9.774-15.482 5.161-14.834 5.086-16.507 5.086z" fill="#00c755"/><path d="m426.406 232.673h-15.518c-4.268 0-7.726-3.459-7.726-7.726s3.459-7.726 7.726-7.726h15.518c4.268 0 7.726 3.459 7.726 7.726s-3.458 7.726-7.726 7.726z" fill="#00c755"/><path d="m387.617 434.351c-2.422 0-2.336-.261-16.72-7.453-3.816-1.908-5.363-6.549-3.455-10.366 1.907-3.817 6.548-5.365 10.366-3.455l13.27 6.635c7.267 3.634 4.664 14.639-3.461 14.639z" fill="#00c755"/><path d="m364.102 458.865h-100.444c-8.64-4.189-20.602-10.862-33.229-21.079-59.691-48.298-69.147-123.462-72.579-150.741-4.462-35.466-18.396-146.229 56.627-207.368 35.435-28.877 76.315-34.949 99.402-36.305 126.004 32.317 123.995 230.274 50.223 415.493z" fill="#55d47b"/><path d="m186.672 458.865c-80.623-202.413-75.524-420.077 88.72-420.077 13.959 0 26.775 1.576 38.488 4.584-125.993 32.327-123.984 230.295-50.222 415.493 178.178 0 98.555 0-76.986 0z" fill="#00c755"/><g><g fill="#ffa0ab"><ellipse cx="193.342" cy="250.578" rx="30.275" ry="24.109"/><ellipse cx="357.441" cy="250.578" rx="30.275" ry="24.109"/></g><g fill="#495560"><path d="m198.403 229.521c-4.268 0-7.726-3.459-7.726-7.726v-12.362c0-4.268 3.459-7.726 7.726-7.726 4.268 0 7.726 3.459 7.726 7.726v12.362c.001 4.267-3.458 7.726-7.726 7.726z"/><path d="m299.801 232.054c0-15.085-10.928-16.502-24.409-16.502s-24.409 1.417-24.409 16.502 10.928 27.313 24.409 27.313c13.481.001 24.409-12.228 24.409-27.313z"/><path d="m352.381 229.521c-4.268 0-7.726-3.459-7.726-7.726v-12.362c0-4.268 3.459-7.726 7.726-7.726 4.268 0 7.726 3.459 7.726 7.726v12.362c0 4.267-3.459 7.726-7.726 7.726z"/></g></g><path d="m228.851 108.565c-4.217 0-5.571-2.37-13.22-10.019-3.017-3.018-3.017-7.91 0-10.928 3.018-3.016 7.91-3.016 10.928 0l7.757 7.757c4.882 4.884 1.357 13.19-5.465 13.19z" fill="#00a62c"/><path d="m197.825 170.619h-7.757c-4.268 0-7.726-3.459-7.726-7.726 0-4.268 3.459-7.726 7.726-7.726h7.757c4.268 0 7.726 3.459 7.726 7.726s-3.459 7.726-7.726 7.726z" fill="#00a62c"/><path d="m244.365 341.267c-6.824 0-10.344-8.308-5.464-13.19l7.757-7.757c3.018-3.016 7.91-3.016 10.928 0 3.017 3.018 3.017 7.91 0 10.928-7.961 7.961-9.153 10.019-13.221 10.019z" fill="#00c755"/><path d="m197.825 325.754h-7.757c-4.268 0-7.726-3.459-7.726-7.726 0-4.268 3.459-7.726 7.726-7.726h7.757c4.268 0 7.726 3.459 7.726 7.726s-3.459 7.726-7.726 7.726z" fill="#00a62c"/><path d="m221.094 403.321c-6.824 0-10.344-8.308-5.464-13.19l7.757-7.757c3.018-3.016 7.91-3.016 10.928 0 3.017 3.018 3.017 7.91 0 10.928-7.961 7.961-9.153 10.019-13.221 10.019z" fill="#00a62c"/><g fill="#00c755"><path d="m321.933 108.565c-6.824 0-10.344-8.308-5.464-13.19l7.757-7.757c3.018-3.016 7.91-3.016 10.928 0 3.017 3.018 3.017 7.91 0 10.928-7.962 7.961-9.153 10.019-13.221 10.019z"/><path d="m360.716 170.619h-7.757c-4.268 0-7.726-3.459-7.726-7.726 0-4.268 3.459-7.726 7.726-7.726h7.757c4.268 0 7.726 3.459 7.726 7.726s-3.458 7.726-7.726 7.726z"/><path d="m306.418 341.267c-4.217 0-5.571-2.37-13.22-10.019-3.017-3.018-3.017-7.91 0-10.928 3.018-3.016 7.91-3.016 10.928 0l7.757 7.757c4.882 4.884 1.357 13.19-5.465 13.19z"/><path d="m360.716 325.754h-7.757c-4.268 0-7.726-3.459-7.726-7.726 0-4.268 3.459-7.726 7.726-7.726h7.757c4.268 0 7.726 3.459 7.726 7.726s-3.458 7.726-7.726 7.726z"/><path d="m329.689 403.321c-4.217 0-5.571-2.37-13.22-10.019-3.017-3.018-3.017-7.91 0-10.928 3.018-3.016 7.91-3.016 10.928 0l7.757 7.757c4.882 4.884 1.357 13.19-5.465 13.19z"/><path d="m252.122 155.105c-4.268 0-7.726-3.459-7.726-7.726v-7.757c0-4.268 3.459-7.726 7.726-7.726s7.726 3.459 7.726 7.726v7.757c0 4.267-3.458 7.726-7.726 7.726z"/><path d="m298.662 155.105c-4.268 0-7.726-3.459-7.726-7.726v-7.757c0-4.268 3.459-7.726 7.726-7.726 4.268 0 7.726 3.459 7.726 7.726v7.757c0 4.267-3.458 7.726-7.726 7.726z"/></g><path d="m387.384 511.945c-194.75 0-158.254.494-195.737-1.481-36.332-54.007 46.342-73.167 111.777-66.656 32.899 3.273 64.872 14.258 93.954 31.081 17.451 10.086 10.281 37.056-9.994 37.056z" fill="#df8a57"/><path d="m219.761 511.945h-56.361c-20.346 0-27.362-27.001-10.065-37.025 46.575-27.001 99.28-37.015 150.089-31.112-32.338 3.75-64.263 14.031-93.727 31.112-17.298 10.024-10.282 37.025 10.064 37.025z" fill="#c76d33"/></g></svg>