<svg id="Layer_1" enable-background="new 0 0 512 512" height="512" viewBox="0 0 512 512" width="512" xmlns="http://www.w3.org/2000/svg"><g><path d="m382.956 359.811h30.905v129.543h-30.905z" fill="#e69955"/><path d="m252.44 359.811h30.905v129.543h-30.905z" fill="#e69955"/><path d="m413.861 286.833v72.979h-33.811c-12.517 0-22.664 10.147-22.664 22.664v106.884h-30.905v-106.885c0-12.517-10.147-22.664-22.664-22.664h-59.865c-12.492 0-22.629 10.108-22.664 22.6l-.277 106.948h-30.751c.01-32.749.021-105.205.021-132.855 0-.396 0-.945 0-1.626.003-28.379-23.01-51.394-51.388-51.397-.072 0-.139 0-.203 0-32.389 0-58.638-26.342-58.638-58.844v-44.37h-43.7c-3.575 0-6.47-2.905-6.47-6.49v-9.653c0-8.911 7.201-16.143 16.081-16.143h35.572c1.205-3.225 3.08-6.13 5.46-8.509 4.389-4.409 10.487-7.098 17.225-6.964 12.98.258 23.22 11.229 23.22 24.261v49.964c0 16.122 13.021 29.195 29.092 29.195l40.064-.072v-5.995c0-30.439 24.676-55.115 55.115-55.115 19.225 0 36.634 11.361 44.376 28.958h27.539c7.93 0 15.564 3.007 21.364 8.414l16.059 14.971c5.815 5.421 13.473 8.429 21.423 8.414 17.326-.033 31.389 14.004 31.389 31.33z" fill="#f5b460"/><g><path d="m382.472 255.503c-7.95.015-15.608-2.993-21.423-8.414l-16.059-14.971c-5.8-5.407-13.434-8.414-21.364-8.414h-27.539c-7.742-17.598-25.15-28.958-44.376-28.958-10.52 0-20.349 2.95-28.712 8.064 18.347.827 34.736 11.978 42.182 28.903h27.539c7.93 0 15.564 3.007 21.364 8.414l16.059 14.972c5.815 5.421 13.473 8.429 21.423 8.414l7.405-.014c13.239-.025 23.984 10.7 23.984 23.939v72.374h30.905v-72.978c.001-17.327-14.062-31.364-31.388-31.331z" fill="#e69955"/></g><path d="m496.547 512h-481.094c-8.535 0-15.453-6.918-15.453-15.453 0-8.534 6.918-15.453 15.453-15.453h481.095c8.534 0 15.453 6.918 15.453 15.453-.001 8.535-6.919 15.453-15.454 15.453z" fill="#e69955"/><path d="m496.547 481.095h-30.905c8.534 0 15.453 6.918 15.453 15.453 0 8.534-6.918 15.453-15.453 15.453h30.905c8.534 0 15.453-6.918 15.453-15.453s-6.918-15.453-15.453-15.453z" fill="#d48a48"/><circle cx="429.194" cy="82.61" fill="#ffd54f" r="41.207"/><path d="m429.25 41.403c-5.466-.007-10.681 1.059-15.457 2.986 15.091 6.135 25.726 20.944 25.702 38.236s-10.699 32.072-25.807 38.165c4.771 1.939 9.982 3.02 15.449 3.028 22.758.031 41.232-18.393 41.264-41.151.031-22.758-18.393-41.233-41.151-41.264z" fill="#ffc328"/><g fill="#ffc328"><path d="m429.307 0h-.01c-4.137 0-7.494 3.352-7.5 7.489l-.011 7.674c-.006 4.143 3.347 7.505 7.49 7.511h.01c4.137 0 7.494-3.352 7.5-7.489l.011-7.674c.006-4.143-3.347-7.505-7.49-7.511z"/><path d="m429.112 142.732h-.01c-4.137 0-7.494 3.352-7.5 7.489l-.011 7.674c-.006 4.143 3.347 7.505 7.49 7.511h.01c4.137 0 7.494-3.352 7.5-7.489l.011-7.674c.005-4.142-3.348-7.505-7.49-7.511z"/><path d="m398.182 13.782c-2.066-3.591-6.652-4.826-10.242-2.759-3.59 2.065-4.825 6.651-2.759 10.241l3.828 6.651c1.388 2.411 3.912 3.76 6.507 3.76 1.269 0 2.556-.322 3.734-1.001 3.59-2.065 4.825-6.651 2.759-10.241z"/><path d="m469.379 137.49c-2.066-3.591-6.653-4.826-10.242-2.759-3.59 2.065-4.825 6.651-2.759 10.241l3.828 6.651c1.388 2.411 3.912 3.76 6.507 3.76 1.269 0 2.556-.322 3.734-1.001 3.59-2.065 4.825-6.651 2.759-10.241z"/><path d="m374.517 42.368-6.641-3.846c-3.584-2.077-8.173-.854-10.249 2.731s-.853 8.173 2.731 10.249l6.641 3.846c1.184.686 2.476 1.011 3.752 1.011 2.588 0 5.106-1.341 6.497-3.742 2.076-3.585.853-8.173-2.731-10.249z"/><path d="m498.029 113.903-6.64-3.846c-3.583-2.076-8.172-.854-10.249 2.731-2.076 3.584-.853 8.173 2.731 10.249l6.64 3.846c1.183.686 2.476 1.011 3.752 1.011 2.588 0 5.106-1.341 6.497-3.742 2.076-3.584.853-8.173-2.731-10.249z"/><path d="m361.665 90.11c4.138 0 7.495-3.352 7.5-7.49.005-4.143-3.348-7.505-7.49-7.51l-7.675-.009h-.01c-4.138 0-7.495 3.352-7.5 7.49-.005 4.143 3.348 7.505 7.49 7.51l7.674.01h.011z"/><path d="m504.407 75.306-7.674-.01h-.01c-4.138 0-7.495 3.352-7.5 7.49-.005 4.143 3.348 7.505 7.49 7.51l7.674.01h.01c4.138 0 7.495-3.352 7.5-7.49.005-4.143-3.348-7.505-7.49-7.51z"/><path d="m366.924 109.888-6.651 3.828c-3.59 2.066-4.825 6.651-2.759 10.241 1.388 2.411 3.911 3.76 6.507 3.76 1.269 0 2.556-.322 3.734-1.001l6.651-3.828c3.59-2.066 4.825-6.651 2.759-10.241s-6.651-4.827-10.241-2.759z"/><path d="m487.729 56.52c1.269 0 2.556-.322 3.734-1.001l6.651-3.828c3.59-2.066 4.825-6.651 2.759-10.241-2.067-3.591-6.652-4.826-10.241-2.759l-6.651 3.828c-3.59 2.066-4.825 6.651-2.759 10.241 1.388 2.411 3.911 3.76 6.507 3.76z"/><path d="m399.108 134.648c-3.584-2.074-8.172-.854-10.249 2.731l-3.846 6.641c-2.076 3.584-.853 8.173 2.731 10.249 1.184.686 2.476 1.011 3.752 1.011 2.588 0 5.106-1.341 6.497-3.742l3.846-6.641c2.076-3.584.853-8.172-2.731-10.249z"/><path d="m470.643 11.137c-3.584-2.076-8.173-.854-10.249 2.731l-3.846 6.641c-2.076 3.585-.853 8.173 2.731 10.249 1.184.686 2.476 1.011 3.752 1.011 2.588 0 5.106-1.341 6.497-3.742l3.846-6.641c2.076-3.585.854-8.173-2.731-10.249z"/></g><g fill="#a75224"><path d="m165.4 248.413c-4.188-.085-7.557 3.229-7.628 7.369l-1.146 66.371c-.431 24.976-21.104 45.294-46.082 45.294-25.413 0-46.088-20.676-46.088-46.089v-153.377c0-4.143-3.358-7.5-7.5-7.5s-7.5 3.357-7.5 7.5v153.377c0 33.685 27.404 61.089 61.088 61.089 16.119 0 31.326-6.223 42.822-17.521 11.495-11.299 17.979-26.396 18.258-42.513l1.146-66.371c.071-4.142-3.228-7.558-7.37-7.629z"/><path d="m415.222 289.079h-19.025c-4.142 0-7.5 3.357-7.5 7.5s3.358 7.5 7.5 7.5h19.025c13.699 0 24.844 11.145 24.844 24.844v79.794c0 4.143 3.358 7.5 7.5 7.5s7.5-3.357 7.5-7.5v-79.794c0-21.97-17.874-39.844-39.844-39.844z"/></g></g></svg>