<svg id="Capa_1" enable-background="new 0 0 512 512" height="512" viewBox="0 0 512 512" width="512" xmlns="http://www.w3.org/2000/svg"><g><g><path d="m495.802 237.449h-151.808v177.477h151.809c3.514 0 6.363-2.849 6.363-6.363v-164.75c0-3.515-2.849-6.364-6.364-6.364z" fill="#fdd1a7"/><path d="m502.166 265.846v-22.034c0-3.514-2.849-6.364-6.363-6.364h-151.809v28.397h158.172z" fill="#ffb07b"/><path d="m502.162 243.813v164.747c0 3.513-2.843 6.367-6.356 6.367h-34.357c3.523 0 6.366-2.854 6.366-6.367v-164.747c0-3.513-2.843-6.366-6.366-6.366h34.357c3.512-.001 6.356 2.853 6.356 6.366z" fill="#ffb07b"/><path d="m505.637 208.204h-161.643v34.46h161.643c3.514 0 6.363-2.849 6.363-6.363v-21.733c0-3.515-2.849-6.364-6.363-6.364z" fill="#fff2df"/><path d="m512 214.566v21.737c0 3.513-2.854 6.356-6.366 6.356h-34.346c3.513 0 6.366-2.843 6.366-6.356v-21.737c0-3.513-2.853-6.367-6.366-6.367h34.346c3.512.001 6.366 2.854 6.366 6.367z" fill="#ffe5c4"/><g><path d="m364.607 414.926h-338.299c-5.708 0-10.336-4.627-10.336-10.336v-267.586c0-5.708 4.627-10.336 10.336-10.336h327.964c5.708 0 10.336 4.627 10.336 10.336v277.922z" fill="#fdd1a7"/><path d="m364.612 137.004v277.922h-338.301c-5.707 0-10.343-4.625-10.343-10.333v-267.59c0-5.707 4.636-10.333 10.343-10.333h327.958c5.707.001 10.343 4.627 10.343 10.334z" fill="#fdd1a7"/><path d="m364.607 156.329v-19.325c0-5.708-4.627-10.336-10.336-10.336h-327.963c-5.708 0-10.336 4.627-10.336 10.336v19.325z" fill="#ffbc8a"/><path d="m364.612 137.004v277.922h-34.356v-277.922c0-5.707-4.625-10.333-10.333-10.333h34.346c5.707 0 10.343 4.626 10.343 10.333z" fill="#ffbc8a"/><g><path d="m370.245 135.138h-359.909c-5.709 0-10.336-4.627-10.336-10.335v-17.393c0-5.708 4.627-10.336 10.336-10.336h359.909c5.708 0 10.336 4.627 10.336 10.336v17.393c-.001 5.708-4.628 10.335-10.336 10.335z" fill="#fff2df"/><path d="m380.58 107.407v17.4c0 5.707-4.626 10.333-10.333 10.333h-34.346c5.707 0 10.333-4.626 10.333-10.333v-17.4c0-5.707-4.625-10.333-10.333-10.333h34.346c5.707 0 10.333 4.625 10.333 10.333z" fill="#ffe5c4"/></g></g><g><g><g><g><path d="m255.169 414.926h-129.758c-2.845 0-5.151-2.306-5.151-5.151v-110.638c0-38.677 31.354-70.03 70.03-70.03 38.677 0 70.03 31.354 70.03 70.03v110.638c0 2.845-2.306 5.151-5.151 5.151z" fill="#fff2df"/></g><g><path d="m260.316 299.134v110.641c0 2.845-2.306 5.151-5.151 5.151h-28.175v-115.792c0-19.337-7.84-36.85-20.511-49.521-8.911-8.911-20.212-15.422-32.852-18.512 5.336-1.308 10.92-1.998 16.668-1.998 19.337 0 36.839 7.84 49.511 20.511 12.671 12.67 20.51 30.183 20.51 49.52z" fill="#ffe5c4"/></g><g><path d="m227.366 301.267c0-21.872-18.938-39.32-41.311-36.841-17.136 1.898-30.847 15.716-32.634 32.864-1.098 10.538 2.228 20.291 8.34 27.648.517.623.078 1.563-.732 1.563-3.772 0-6.83 3.058-6.83 6.83v76.445c0 2.845 2.306 5.151 5.151 5.151h61.879c2.845 0 5.151-2.306 5.151-5.151v-76.445c0-3.772-3.058-6.83-6.83-6.83-.808 0-1.25-.938-.733-1.56 5.336-6.423 8.549-14.672 8.549-23.674z" fill="#a34f41"/><path d="m226.382 333.325v76.45c0 2.845-2.306 5.151-5.151 5.151h-19.934v-81.601c0-3.771-3.06-6.83-6.83-6.83-.577 0-.958-.464-.958-.958 0-.206.062-.412.216-.598 5.336-6.418 8.55-14.67 8.55-23.674 0-16.091-10.25-29.793-24.58-34.923 2.658-.948 5.47-1.597 8.386-1.916 22.355-2.472 41.29 14.979 41.29 36.839 0 9.004-3.214 17.256-8.551 23.674-.154.185-.227.402-.227.608 0 .484.392.948.958.948 3.772 0 6.831 3.06 6.831 6.83z" fill="#873f30"/></g></g></g></g><g><path d="m448.705 414.926h-78.946c-2.845 0-5.151-2.306-5.151-5.151v-80.388c0-24.645 19.979-44.624 44.624-44.624 24.645 0 44.624 19.979 44.624 44.624v80.388c-.001 2.845-2.307 5.151-5.151 5.151z" fill="#a34f41"/><path d="m453.857 329.39v80.385c0 2.845-2.306 5.151-5.151 5.151h-23.499v-85.536c0-12.321-4.996-23.488-13.073-31.554-4.79-4.79-10.662-8.499-17.225-10.714 4.491-1.535 9.313-2.359 14.319-2.359 12.321 0 23.488 4.996 31.555 13.073 8.077 8.066 13.074 19.233 13.074 31.554z" fill="#873f30"/><g><path d="m401.06 360.059v54.867h-15.453v-54.867c0-4.265 3.461-7.726 7.726-7.726 4.265-.001 7.727 3.461 7.727 7.726z" fill="#873f30"/></g><g><path d="m412.206 341.527c-4.268 0-7.726-3.459-7.726-7.726v-13.604c0-4.268 3.459-7.726 7.726-7.726s7.726 3.459 7.726 7.726v13.604c.001 4.267-3.458 7.726-7.726 7.726z" fill="#873f30"/></g></g><g><g fill="#a34f41"><path d="m57.05 195.061c0-13.562 4.838-25.452 12.095-32.074 1.944-1.774 4.946-1.773 6.889.001 7.256 6.625 12.091 18.51 12.091 32.073z"/><path d="m137.111 195.061c0-13.562 4.838-25.452 12.095-32.074 1.944-1.774 4.946-1.773 6.889.001 7.256 6.625 12.091 18.51 12.091 32.073z"/><path d="m217.172 195.061c0-13.562 4.838-25.452 12.095-32.074 1.944-1.774 4.946-1.773 6.889.001 7.256 6.625 12.091 18.51 12.091 32.073z"/><path d="m297.232 195.061c0-13.562 4.838-25.452 12.095-32.074 1.944-1.774 4.946-1.773 6.889.001 7.256 6.625 12.091 18.51 12.091 32.073z"/></g><g><path d="m15.968 187.338h348.644v15.453h-348.644z" fill="#fff2df"/></g></g></g><g><path d="m62.978 245.176h-12.694c-4.268 0-7.726-3.459-7.726-7.726 0-4.268 3.459-7.726 7.726-7.726h12.694c4.268 0 7.726 3.459 7.726 7.726s-3.459 7.726-7.726 7.726z" fill="#ffe5c4"/></g><g><path d="m85.282 308.164h-12.693c-4.268 0-7.726-3.459-7.726-7.726s3.459-7.726 7.726-7.726h12.693c4.268 0 7.726 3.459 7.726 7.726s-3.459 7.726-7.726 7.726z" fill="#ffb07b"/></g><g><path d="m306.426 255.9h-12.694c-4.268 0-7.726-3.459-7.726-7.726s3.459-7.726 7.726-7.726h12.694c4.268 0 7.726 3.459 7.726 7.726s-3.459 7.726-7.726 7.726z" fill="#ffe5c4"/></g><g id="XMLID_134_"><path d="m305.491 323.851h-.107c-4.268 0-7.726-3.459-7.726-7.726s3.459-7.726 7.726-7.726h.107c4.268 0 7.726 3.459 7.726 7.726s-3.458 7.726-7.726 7.726z" fill="#ffe5c4"/></g><g id="XMLID_1048_"><path d="m331.793 308.164h-.107c-4.268 0-7.726-3.459-7.726-7.726s3.459-7.726 7.726-7.726h.107c4.268 0 7.726 3.459 7.726 7.726s-3.459 7.726-7.726 7.726z" fill="#ffb07b"/></g><g id="XMLID_1049_"><path d="m57.547 345.828c-.025 0-.05 0-.074 0l-.107-.001c-4.268-.04-7.694-3.532-7.654-7.799.04-4.242 3.492-7.654 7.724-7.654h.074l.107.001c4.268.04 7.694 3.532 7.654 7.799-.04 4.243-3.491 7.654-7.724 7.654z" fill="#ffe5c4"/></g><g id="XMLID_1121_"><path d="m464.036 292.489h-.107c-4.268 0-7.726-3.459-7.726-7.726s3.459-7.726 7.726-7.726h.107c4.268 0 7.726 3.459 7.726 7.726s-3.458 7.726-7.726 7.726z" fill="#f7a76f"/></g></g></svg>