<svg id="Capa_1" enable-background="new 0 0 512 512" height="512" viewBox="0 0 512 512" width="512" xmlns="http://www.w3.org/2000/svg"><g><g><path d="m506.481 312.848h-32.014v154.516h32.014c3.048 0 5.519-2.471 5.519-5.518v-143.48c0-3.048-2.471-5.518-5.519-5.518z" fill="#fed2a4"/><g fill="#ffe5c2"><path d="m127.135 312.848h-121.617c-3.048 0-5.518 2.471-5.518 5.518v143.479c0 3.048 2.471 5.518 5.518 5.518h120.616l1-1.364v-153.151z"/><path d="m152.727 312.848v153.152l.999 1.364h31.479v-154.516z"/></g></g><g><path d="m41.722 461.845v-143.479c0-3.048 2.471-5.518 5.518-5.518h-41.722c-3.048 0-5.518 2.471-5.518 5.518v143.479c0 3.048 2.471 5.518 5.518 5.518h41.722c-3.047.001-5.518-2.47-5.518-5.518z" fill="#fed2a4"/></g><g><path d="m66.111 424.32h-25.385c-1.829 0-3.311-1.482-3.311-3.311v-66.221c0-1.829 1.482-3.311 3.311-3.311h25.385c1.829 0 3.311 1.482 3.311 3.311v66.221c0 1.828-1.482 3.311-3.311 3.311z" fill="#6354b1"/></g><g><path d="m54.085 421.009v-66.221c0-1.829 1.482-3.311 3.311-3.311h-16.67c-1.829 0-3.311 1.482-3.311 3.311v66.221c0 1.829 1.482 3.311 3.311 3.311h16.67c-1.829 0-3.311-1.483-3.311-3.311z" fill="#54469c"/></g><path d="m127.135 351.477h-23.499c-1.829 0-3.311 1.482-3.311 3.311v66.221c0 1.829 1.482 3.311 3.311 3.311h23.499z" fill="#54469c"/><g><path d="m442.359 206.894-62.803-64.379c-2.166-2.22-5.735-2.22-7.9 0l-62.803 64.379z" fill="#c57a44"/></g><g><path d="m375.606 140.85v66.044h66.753l-62.803-64.379c-1.083-1.11-2.517-1.665-3.95-1.665z" fill="#d88a55"/></g><g><path d="m456.787 235.59v-24.281c0-3.048-2.471-5.518-5.518-5.518h-151.326c-3.048 0-5.518 2.471-5.518 5.518v24.281z" fill="#fdb441"/></g><g><path d="m336.722 205.79h-36.778c-3.048 0-5.518 2.471-5.518 5.518v24.281h36.778v-24.281c-.001-3.047 2.47-5.518 5.518-5.518z" fill="#fe9901"/></g><path d="m469.95 234.486h-188.688c-3.048 0-5.518 2.471-5.518 5.518v39.629h89.356c2.491 0 4.519 2.027 4.519 4.519v183.212h105.85v-227.36c-.001-3.047-2.471-5.518-5.519-5.518z" fill="#ffe5c2"/><path d="m310.73 279.633v-39.629c0-3.048 2.471-5.518 5.519-5.518h-34.987c-3.048 0-5.518 2.471-5.518 5.518v39.629z" fill="#fed2a4"/><g><path d="m435.846 415.49h-25.385c-1.829 0-3.311-1.482-3.311-3.311v-66.221c0-1.829 1.482-3.311 3.311-3.311h25.385c1.829 0 3.311 1.482 3.311 3.311v66.221c0 1.829-1.483 3.311-3.311 3.311z" fill="#6354b1"/></g><g><path d="m423.92 412.179v-66.221c0-1.829 1.482-3.311 3.311-3.311h-16.77c-1.828 0-3.311 1.482-3.311 3.311v66.221c0 1.829 1.482 3.311 3.311 3.311h16.77c-1.829 0-3.311-1.482-3.311-3.311z" fill="#54469c"/></g><g><path d="m370.618 467.364h-186.413v-183.212c0-3.048 2.471-5.518 5.518-5.518h175.377c3.048 0 5.518 2.471 5.518 5.518z" fill="#e9b665"/></g><g><path d="m289 333.818h-23.177c-1.219 0-2.207-.988-2.207-2.207v-23.177c0-1.219.988-2.207 2.207-2.207h23.177c1.219 0 2.207.988 2.207 2.207v23.177c.001 1.218-.988 2.207-2.207 2.207z" fill="#6354b1"/></g><g><path d="m224.482 278.633h-34.758c-3.048 0-5.518 2.471-5.518 5.518v183.212h34.758v-183.211c0-3.048 2.47-5.519 5.518-5.519z" fill="#d8aa5e"/></g><g><path d="m277.412 362.513c-20.849 0-37.75 16.901-37.75 37.75v67.101h75.499v-67.101c0-20.848-16.901-37.75-37.749-37.75z" fill="#6354b1"/></g><g><path d="m294.852 366.786c-5.218-2.724-11.147-4.273-17.441-4.273-20.848 0-37.75 16.901-37.75 37.75v67.101h34.881v-67.101c.001-14.555 8.243-27.177 20.31-33.477z" fill="#54469c"/></g><g><path d="m140.887 166.246-.956-3.127-.956 3.127c-2.931 9.582-7.266 18.981-12.84 27.945v273.172h27.592v-273.171c-5.575-8.965-9.91-18.364-12.84-27.946z" fill="#d88a55"/><path d="m126.134 194.191v273.172h12.425v-299.838c-2.919 9.139-7.099 18.102-12.425 26.666z" fill="#c57a44"/><path d="m258.289 164.738c-16.314-7.922-36.09-12.562-57.408-12.562-14.598 0-28.466 2.184-41.001 6.099 11.632-6.095 22.983-14.357 33.305-24.679 15.074-15.074 25.776-32.339 31.711-49.476.544-1.572-.975-3.091-2.547-2.547-17.137 5.934-34.402 16.637-49.476 31.711-10.322 10.322-18.584 21.673-24.679 33.305 3.915-12.535 6.099-26.403 6.099-41.001 0-21.318-4.641-41.094-12.562-57.408-.727-1.497-2.875-1.497-3.602 0-7.922 16.314-12.562 36.09-12.562 57.408 0 14.597 2.184 28.466 6.099 41.001-6.095-11.632-14.357-22.983-24.679-33.305-15.073-15.075-32.339-25.777-49.476-31.711-1.572-.544-3.091.975-2.547 2.547 5.934 17.137 16.637 34.402 31.711 49.476 10.322 10.322 21.673 18.584 33.305 24.679-12.535-3.915-26.403-6.099-41.001-6.099-21.318 0-41.094 4.641-57.408 12.562-1.497.727-1.497 2.875 0 3.602 16.314 7.922 36.09 12.562 57.408 12.562 14.597 0 28.466-2.184 41.001-6.099-11.632 6.095-22.983 14.357-33.305 24.679-15.074 15.074-25.777 32.339-31.711 49.476-.544 1.572.975 3.091 2.547 2.547 17.137-5.934 34.402-16.637 49.476-31.711 16.183-16.183 27.327-34.891 32.943-53.255 5.615 18.364 16.76 37.072 32.943 53.255 15.074 15.074 32.339 25.776 49.476 31.711 1.572.544 3.091-.975 2.547-2.547-5.934-17.137-16.637-34.402-31.711-49.476-10.322-10.322-21.673-18.584-33.305-24.679 12.535 3.915 26.403 6.099 41.001 6.099 21.318 0 41.094-4.641 57.408-12.562 1.497-.727 1.497-2.876 0-3.602z" fill="#09a76d"/><g><g><g><path d="m78.979 180.902c22.886 0 43.995-5.348 60.951-14.363-16.956-9.015-38.065-14.363-60.951-14.363-21.318 0-41.094 4.641-57.408 12.562-1.497.727-1.497 2.875 0 3.602 16.314 7.921 36.09 12.562 57.408 12.562z" fill="#09a76d"/></g></g><g><path d="m200.881 180.902c21.318 0 41.094-4.641 57.408-12.562 1.497-.727 1.497-2.875 0-3.602-16.314-7.922-36.09-12.562-57.408-12.562-22.886 0-43.995 5.348-60.951 14.363 16.956 9.014 38.066 14.363 60.951 14.363z" fill="#09a76d"/></g></g><g><g><g><path d="m106.988 219.794c-15.074 15.074-32.339 25.777-49.476 31.711-1.572.544-3.091-.975-2.547-2.547 5.934-17.137 16.637-34.402 31.711-49.476 16.183-16.183 34.891-27.327 53.255-32.943-5.616 18.363-16.761 37.072-32.943 53.255z" fill="#02905d"/></g></g><g><path d="m172.873 219.794c15.074 15.074 32.339 25.777 49.476 31.711 1.572.544 3.091-.975 2.547-2.547-5.934-17.137-16.637-34.402-31.711-49.476-16.183-16.183-34.891-27.327-53.255-32.943 5.616 18.363 16.76 37.072 32.943 53.255z" fill="#02905d"/></g></g><g><g><g><path d="m172.873 113.283c15.074-15.074 32.339-25.777 49.476-31.711 1.572-.544 3.091.975 2.547 2.547-5.934 17.137-16.637 34.402-31.711 49.476-16.183 16.183-34.891 27.327-53.255 32.943 5.616-18.363 16.76-37.072 32.943-53.255z" fill="#02905d"/></g></g><g><path d="m106.988 113.283c-15.074-15.074-32.34-25.776-49.477-31.71-1.572-.544-3.091.975-2.547 2.547 5.934 17.137 16.637 34.402 31.711 49.476 16.183 16.183 34.891 27.327 53.255 32.943-5.615-18.364-16.76-37.073-32.942-53.256z" fill="#02905d"/></g></g><g><path d="m125.567 105.587c0 22.886 5.348 43.995 14.363 60.951 9.015-16.956 14.363-38.065 14.363-60.951 0-21.318-4.641-41.094-12.562-57.408-.727-1.497-2.875-1.497-3.602 0-7.921 16.314-12.562 36.091-12.562 57.408z" fill="#09a76d"/></g></g><g><g><path d="m238.783 333.818h-23.177c-1.219 0-2.207-.988-2.207-2.207v-23.177c0-1.219.988-2.207 2.207-2.207h23.177c1.219 0 2.207.988 2.207 2.207v23.177c0 1.218-.988 2.207-2.207 2.207z" fill="#6354b1"/></g><path d="m226.408 331.61v-23.177c0-1.219.988-2.207 2.207-2.207h-13.01c-1.219 0-2.207.988-2.207 2.207v23.177c0 1.219.988 2.207 2.207 2.207h13.01c-1.219.001-2.207-.988-2.207-2.207z" fill="#54469c"/><path d="m276.625 331.61v-23.177c0-1.219.988-2.207 2.207-2.207h-13.01c-1.219 0-2.207.988-2.207 2.207v23.177c0 1.219.988 2.207 2.207 2.207h13.01c-1.218.001-2.207-.988-2.207-2.207z" fill="#54469c"/><g><path d="m339.218 333.818h-23.177c-1.219 0-2.207-.988-2.207-2.207v-23.177c0-1.219.988-2.207 2.207-2.207h23.177c1.219 0 2.207.988 2.207 2.207v23.177c0 1.218-.988 2.207-2.207 2.207z" fill="#6354b1"/></g><path d="m326.843 331.61v-23.177c0-1.219.988-2.207 2.207-2.207h-13.01c-1.219 0-2.207.988-2.207 2.207v23.177c0 1.219.988 2.207 2.207 2.207h13.01c-1.219.001-2.207-.988-2.207-2.207z" fill="#54469c"/><g><path d="m436.596 310.64h-26.886c-1.414 0-2.561-1.146-2.561-2.561v-26.886c0-1.414 1.146-2.561 2.561-2.561h26.886c1.414 0 2.561 1.146 2.561 2.561v26.886c0 1.415-1.147 2.561-2.561 2.561z" fill="#6354b1"/></g><g><path d="m423.92 308.08v-26.886c0-1.414 1.146-2.561 2.561-2.561h-16.77c-1.414 0-2.56 1.146-2.56 2.561v26.886c0 1.414 1.146 2.561 2.56 2.561h16.77c-1.415-.001-2.561-1.147-2.561-2.561z" fill="#54469c"/></g></g><g><g><path d="m213.397 424.094c-4.143 0-7.5-3.358-7.5-7.5v-28.696c0-4.142 3.357-7.5 7.5-7.5s7.5 3.358 7.5 7.5v28.696c0 4.142-3.357 7.5-7.5 7.5z" fill="#fccd7f"/></g><g><path d="m341.426 424.094c-4.143 0-7.5-3.358-7.5-7.5v-28.696c0-4.142 3.357-7.5 7.5-7.5s7.5 3.358 7.5 7.5v28.696c0 4.142-3.358 7.5-7.5 7.5z" fill="#fccd7f"/></g></g><g><circle cx="452.973" cy="75.751" fill="#fed402" r="31.114"/></g><g><path d="m444.106 75.751c0-13.263 8.303-24.581 19.991-29.059-3.455-1.323-7.203-2.056-11.123-2.056-17.184 0-31.114 13.93-31.114 31.114s13.93 31.114 31.114 31.114c3.921 0 7.668-.732 11.123-2.056-11.689-4.476-19.991-15.794-19.991-29.057z" fill="#fac600"/></g></g></svg>