<svg height="512" viewBox="0 0 96 96" width="512" xmlns="http://www.w3.org/2000/svg"><g id="palm_tree_Coconut_tree_" data-name="palm tree (Coconut tree)"><path d="m40.92 85.22c-7.42 2.2-4.53 1.78-20.85 1.78a61 61 0 0 1 10.2-57.29 3.07 3.07 0 0 1 4.12-.6.07.07 0 0 0 0 0 3 3 0 0 1 1 3.83c-8.8 17.85-6.1 38.3 5.53 52.28z" fill="#d97e62"/><path d="m35.75 31.72a3 3 0 0 0 -1.31-2.57.07.07 0 0 1 0 0 3.07 3.07 0 0 0 -4.12.6 59.18 59.18 0 0 0 -8 13.06l8.11-3.28a7 7 0 0 0 3.83-3.82c1.14-2.86 1.47-2.97 1.49-3.99z" fill="#c04c3f"/><path d="m26 87h-5.93a61.72 61.72 0 0 1 .73-40.66 58.54 58.54 0 0 1 4.95-10.19 57 57 0 0 0 -3.86 11.34 61.76 61.76 0 0 0 4.11 39.51z" fill="#ffab71"/><path d="m24.21 72.69 8.31-2.81a48.29 48.29 0 0 1 -1.36-5.15l-7.16 1.8a52.09 52.09 0 0 0 .21 6.16z" fill="#c04c3f"/><path d="m24.21 62.83 6.45-1.06a50.2 50.2 0 0 1 -.46-5.48l-5.2.23a59.18 59.18 0 0 0 -.79 6.31z" fill="#c04c3f"/><path d="m25.7 53.33 4.53.16a46.91 46.91 0 0 1 .56-5.9l-3.24-.44a60.89 60.89 0 0 0 -1.85 6.18z" fill="#c04c3f"/><path d="m33.55 72.77-9 3.4a61.86 61.86 0 0 0 1.27 6.54l10-5a46 46 0 0 1 -2.27-4.94z" fill="#c04c3f"/><path d="m37.51 80.54c-.1-.16 1.09-.77-10.62 5.82.07.21.13.43.2.64 8.53 0 7 .25 13.83-1.78a47 47 0 0 1 -3.41-4.68z" fill="#c04c3f"/><g fill="#9d423f"><path d="m25.6 88a1 1 0 0 1 -.48-1.87l11.88-6.47a1 1 0 0 1 1.36.4 1 1 0 0 1 -.4 1.36c-12.96 7.03-11.96 6.58-12.36 6.58z"/><path d="m18 79.71a1 1 0 0 1 -.35-1.94l15.61-5.77a1 1 0 0 1 .74 1.85c-16.75 6.2-15.76 5.86-16 5.86z"/><path d="m17 68.73a1 1 0 0 1 -1-.8 1 1 0 0 1 .78-1.18l14.17-3a1 1 0 0 1 1.19.77 1 1 0 0 1 -.78 1.19c-15.12 3.2-14.21 3.02-14.36 3.02z"/><path d="m17.93 57.85a1 1 0 0 1 -.05-2l12.27-.64a1 1 0 0 1 .11 2c-16.26.84-11.4.64-12.33.64z"/><path d="m30.78 48.55c-.1 0 .77.1-10.1-1.22a1 1 0 0 1 -.88-1.11 1 1 0 0 1 1.12-.87l10 1.21a1 1 0 0 1 -.12 2z"/><path d="m32.92 40c-.23 0 .39.18-7.7-2.54a1 1 0 1 1 .63-1.89l7.39 2.43a1 1 0 0 1 -.32 2z"/></g><path d="m51.91 86.05c-3.62-.93-5-1.39-7.14-1.39-2.54 0-3.94.59-7.53 1.65-2.93.88-.68.69-36.24.69v4.75h94v-4.75c-39.35 0-38.32.26-43.09-.95z" fill="#fed9b7"/><path d="m29.13 87h-28.13v4.75h28.13a2.38 2.38 0 0 0 0-4.75z" fill="#feb67b"/><path d="m34.44 29.15-23.65-23.64c5.32-2.69 13.07-.88 18.8 4.85s7.54 13.49 4.85 18.79z" fill="#43d277"/><path d="m29.92 10.7v2.62a4.68 4.68 0 0 1 -4.68 4.68h-1.95l11.15 11.15c2.64-5.15.94-12.76-4.52-18.45z" fill="#2a7d6d"/><path d="m34.44 29.15-23.65 23.65c-2.68-5.31-.87-13.07 4.85-18.8s13.5-7.54 18.8-4.85z" fill="#43d277"/><path d="m31.87 31.72 2.57-2.57c-4.83-2.45-11.71-1.15-17.22 3.43h12.57a2.94 2.94 0 0 0 2.08-.86z" fill="#2a7d6d"/><path d="m34.44 29.15h-8.62l-3.21-3.21a2.44 2.44 0 0 0 -3.45 0l-3.22 3.21h-14.94c1.86-5.65 8.62-9.86 16.72-9.86s14.87 4.21 16.72 9.86z" fill="#4396a4"/><path d="m24.58 24.81c0 1.72-.11 3 1.24 4.34h8.62a13 13 0 0 0 -5.5-6.72 2.83 2.83 0 0 0 -4.36 2.38z" fill="#43698b"/><path d="m34.39 29.11 23.61-23.64c-5.28-2.69-13-.88-18.76 4.85s-7.54 13.49-4.85 18.79z" fill="#43aa8b"/><path d="m43.29 16 5.89-5.88a1.18 1.18 0 0 0 -1.25-1.94 19 19 0 0 0 -8.3 6.27 1.18 1.18 0 0 0 .94 1.89c2.08-.03 2.29.06 2.72-.34z" fill="#43d795"/><path d="m34.39 29.11 23.61 23.65c2.68-5.31.87-13.07-4.85-18.8s-13.46-7.54-18.76-4.85z" fill="#43aa8b"/><path d="m50.6 31.75c-5.32-3.93-11.67-4.94-16.21-2.64l1.93 1.89a2.37 2.37 0 0 0 1.71.71z" fill="#437868"/><path d="m34.39 29.11h8.61l3.21-3.21a2.44 2.44 0 0 1 3.45 0l3.22 3.21h14.95c-1.86-5.65-8.62-9.86-16.72-9.86s-14.87 4.21-16.72 9.86z" fill="#4396a4"/><circle cx="39.11" cy="83.43" fill="#b17e62" r="4.72"/><ellipse cx="9.58" cy="84.66" fill="#b17e62" rx="4.72" ry="4.16" transform="matrix(.763 -.647 .647 .763 -52.47 26.27)"/></g></svg>