<svg height="512pt" viewBox="-6 0 512 512.00008" width="512pt" xmlns="http://www.w3.org/2000/svg"><path d="m198.46875 260.234375c-25.320312-53.59375-81.308594-47.84375-81.308594-47.84375 33.421875 22 42.4375 50.386719 44.585938 59.859375.289062 1.28125 1.925781 1.671875 2.773437.664062l2.242188-2.660156c.746093-.882812 2.164062-.71875 2.660156.324219 8.90625 18.632813 2.734375 44.257813.292969 52.679687-.355469 1.230469.800781 2.355469 2.019531 1.960938 11.472656-3.714844 46.324219-23.511719 26.734375-64.984375zm0 0" fill="#8cc826"/><path d="m194.035156 310.257812c1.925782-11.492187 2.746094-27.160156-3.234375-39.679687-.5-1.039063-1.917969-1.207031-2.660156-.324219l-2.242187 2.660156c-.847657 1.007813-2.484376.617188-2.773438-.664062-2.082031-9.183594-10.621094-36.140625-41.589844-57.824219-13.917968-3.105469-24.375-2.035156-24.375-2.035156 33.425782 22 42.4375 50.386719 44.585938 59.859375.289062 1.28125 1.929687 1.671875 2.777344.664062l2.242187-2.660156c.742187-.882812 2.160156-.714844 2.65625.324219 8.90625 18.632813 2.734375 44.257813.296875 52.679687-.359375 1.230469.800781 2.355469 2.015625 1.960938 5.097656-1.652344 14.800781-6.476562 22.300781-14.960938zm0 0" fill="#82b922"/><path d="m80.433594 148.234375c41 21.039063 36.726562 64.15625 36.726562 64.15625-16.238281-26.527344-39.691406-34.019531-46.996094-35.929687-.988281-.257813-1.25-1.539063-.445312-2.171876l2.121094-1.675781c.707031-.554687.613281-1.660156-.183594-2.074219-14.253906-7.394531-34.316406-3.253906-40.925781-1.570312-.964844.246094-1.808594-.679688-1.472657-1.617188 3.179688-8.820312 19.453126-35.394531 51.175782-19.117187zm0 0" fill="#8cc826"/><path d="m70.164062 163.335938c-.988281-.257813-1.25-1.539063-.445312-2.175782l2.121094-1.671875c.707031-.554687.613281-1.664062-.183594-2.074219-10.953125-5.683593-25.335938-4.550781-34.410156-2.957031-4.265625 4.753907-6.898438 9.867188-7.988282 12.894531-.335937.9375.507813 1.863282 1.472657 1.617188 6.609375-1.679688 26.675781-5.824219 40.925781 1.570312.796875.414063.890625 1.519532.183594 2.074219l-2.121094 1.675781c-.804688.632813-.542969 1.914063.445312 2.171876 7.304688 1.910156 30.757813 9.402343 46.996094 35.929687 0 0 .578125-5.851563-.738281-14.289063-16.207031-25.574218-39.0625-32.882812-46.257813-34.765624zm0 0" fill="#82b922"/><path d="m51.261719 279.835938c10.414062-58.351563 65.898437-67.445313 65.898437-67.445313-26.5 29.976563-27.714844 59.726563-27.3125 69.429687.054688 1.316407-1.421875 2.121094-2.503906 1.371094l-2.859375-1.980468c-.949219-.65625-2.273437-.125-2.480469 1.011718-3.71875 20.3125 8.9375 43.429688 13.5 50.917969.664063 1.09375-.15625 2.484375-1.433594 2.421875-12.046874-.585938-50.863281-10.574219-42.808593-55.726562zm0 0" fill="#8cc826"/><path d="m92.980469 328.765625c-13.054688-7.316406-25.1875-21.75-20.339844-48.929687 4.886719-27.382813 19.695313-43.917969 34.042969-53.753907 2.957031-4.511719 6.417968-9.097656 10.476562-13.691406 0 0-55.484375 9.09375-65.898437 67.445313-8.054688 45.152343 30.761719 55.140624 42.808593 55.726562 1.277344.0625 2.097657-1.328125 1.433594-2.421875-.683594-1.125-1.554687-2.609375-2.523437-4.375zm0 0" fill="#82b922"/><path d="m20.957031 217.804688c48.539063-37.238282 96.203125-5.414063 96.203125-5.414063-41.058594 4.414063-61.726562 26.097656-68.171875 33.78125-.871093 1.039063-2.558593.621094-2.859375-.699219l-.804687-3.5c-.265625-1.164062-1.644531-1.679687-2.59375-.957031-16.96875 12.898437-23.402344 39.328125-25.140625 48.214844-.25 1.292969-1.847656 1.78125-2.777344.84375-8.777344-8.828125-31.417969-43.453125 6.144531-72.269531zm0 0" fill="#8cc826"/><path d="m42.332031 217.804688c13.921875-10.679688 27.769531-15.671876 40.441407-17.371094-17.394532-2.265625-39.511719.257812-61.816407 17.371094-37.5625 28.816406-14.921875 63.441406-6.144531 72.269531.929688.9375 2.527344.449219 2.777344-.84375.804687-4.113281 2.617187-11.988281 6.015625-20.539063-4.652344-14.59375-3.589844-33.765625 18.726562-50.886718zm0 0" fill="#82b922"/><path d="m151.917969 163.34375-2.488281-1.0625c-.824219-.351562-1.023438-1.441406-.363282-2.050781 4.453125-4.09375 12.195313-6.824219 17.910156-8.640625-.363281-6.644532.316407-13.632813 2.597657-20.632813-9.246094-2.4375-22.664063-1.027343-34.816407 10.042969-34.066406 31.03125-17.597656 71.390625-17.597656 71.390625 8.734375-29.855469 28.347656-43.078125 34.894532-46.835937.886718-.503907.804687-1.8125-.136719-2.210938zm0 0" fill="#8cc826"/><path d="m147.734375 143.835938c6.984375-6.359376 14.378906-9.519532 21.164063-10.605469.210937-.757813.429687-1.515625.675781-2.273438-9.246094-2.4375-22.664063-1.023437-34.816407 10.042969-34.066406 31.03125-17.597656 71.390625-17.597656 71.390625 2.363282-8.074219 5.523438-14.921875 9.003906-20.703125.035157-14.042969 4.328126-32.140625 21.570313-47.851562zm0 0" fill="#82b922"/><path d="m228.523438 199.019531c-3.855469-2.855469-10.542969-5.46875-16.078126-7.742187-9.890624-4.0625-19.226562-7.117188-27.914062-7.695313-.640625 1.722657-1.179688 3.253907-1.605469 4.507813-.574219 1.703125-2.816406 2.078125-3.90625.644531-1.050781-1.382813-2.246093-3.15625-3.492187-5.253906-35.820313 1.621093-58.367188 28.910156-58.367188 28.910156 40.785156-6.484375 67.421875 8.902344 75.648438 14.628906 1.113281.773438 2.632812-.070312 2.578125-1.425781l-.140625-3.585938c-.046875-1.191406 1.148437-2.050781 2.253906-1.605468 19.753906 8.011718 32.882812 31.835937 36.882812 39.957031.582032 1.1875 2.246094 1.238281 2.902344.089844 1.554688-2.726563 4.558594-8.300781 5.941406-13.855469-10.566406-10.425781-17.328124-25.757812-14.703124-47.574219zm0 0" fill="#8cc826"/><path d="m208.261719 208.089844c-1.105469-.445313-2.300781.414062-2.253907 1.605468l.140626 3.585938c.054687 1.355469-1.464844 2.199219-2.578126 1.425781-7.988281-5.558593-33.316406-20.214843-72.09375-15.140625-9.207031 6.648438-14.316406 12.824219-14.316406 12.824219 40.789063-6.484375 67.421875 8.902344 75.648438 14.628906 1.113281.773438 2.632812-.070312 2.582031-1.425781l-.144531-3.585938c-.046875-1.191406 1.152344-2.050781 2.253906-1.605468 19.757812 8.011718 32.882812 31.835937 36.882812 39.957031.582032 1.1875 2.25 1.238281 2.902344.089844 1.554688-2.726563 4.558594-8.300781 5.941406-13.855469-5.671874-5.597656-10.230468-12.628906-12.84375-21.300781-5.933593-7.011719-13.375-13.65625-22.121093-17.203125zm0 0" fill="#82b922"/><path d="m198.1875 457.371094c-40.230469-86.40625-67.632812-191.34375-77.007812-246.949219-.941407-5.582031-9.203126-4.707031-8.980469.949219 3.890625 98.175781 39.472656 207.457031 66.460937 274.09375 6.796875-9.21875 13.300782-18.597656 19.527344-28.09375zm0 0" fill="#855151"/><path d="m135.707031 277.351562c-6.601562-25.921874-11.503906-48.996093-14.53125-66.929687-.941406-5.582031-9.199219-4.707031-8.976562.949219 3.890625 98.175781 39.46875 207.453125 66.460937 274.09375 3.679688-4.988282 7.261719-10.027344 10.769532-15.101563-19.820313-51.292969-42.476563-121.960937-53.722657-193.011719zm0 0" fill="#704444"/><path d="m463.859375 94.175781c-72.339844-41.613281-132.457031 10.003907-132.457031 10.003907 56.320312-1.425782 89.5625 24.175781 99.65625 33.398437 1.367187 1.25 3.574218.382813 3.746094-1.460937l.453124-4.878907c.152344-1.613281 1.925782-2.5625 3.335938-1.757812 25.269531 14.386719 38.730469 48.96875 42.675781 60.667969.578125 1.707031 2.820313 2.078124 3.910157.644531 10.277343-13.515625 34.660156-64.414063-21.320313-96.617188zm0 0" fill="#98d829"/><path d="m452.386719 118.917969c-1.410157-.800781-3.183594.144531-3.335938 1.761719l-.453125 4.878906c-.171875 1.84375-2.378906 2.707031-3.746094 1.460937-9.964843-9.105469-42.5-34.152343-97.511718-33.425781-10.144532 5.613281-15.9375 10.585938-15.9375 10.585938 56.320312-1.425782 89.5625 24.175781 99.65625 33.398437 1.367187 1.25 3.574218.382813 3.746094-1.460937l.453124-4.878907c.152344-1.613281 1.925782-2.5625 3.335938-1.757812 25.269531 14.386719 38.726562 48.96875 42.675781 60.667969.574219 1.707031 2.816407 2.078124 3.90625.644531 2.445313-3.214844 5.6875-8.546875 8.457031-15.238281-5.253906-14.214844-18.4375-43.652344-41.246093-56.636719zm0 0" fill="#8cc826"/><path d="m432.726562 183.511719c-24.582031-77.03125-101.324218-79.332031-101.324218-79.332031 41.230468 35.761718 48.308594 75.769531 49.507812 88.964843.160156 1.785157 2.308594 2.605469 3.632813 1.398438l3.511719-3.191407c1.164062-1.058593 3.050781-.582031 3.535156.917969 8.6875 26.796875-4.269532 60.335938-9.085938 71.285157-.703125 1.597656.65625 3.328124 2.375 3.011718 16.183594-2.957031 66.875-23.453125 47.847656-83.054687zm0 0" fill="#98d829"/><path d="m416.203125 192.269531c-.484375-1.496093-2.371094-1.976562-3.535156-.917969l-3.511719 3.195313c-1.328125 1.207031-3.472656.382813-3.632812-1.402344-1.125-12.339843-7.390626-48.128906-41.925782-81.96875-18.070312-6.566406-32.195312-6.996093-32.195312-6.996093 41.230468 35.761718 48.308594 75.769531 49.507812 88.964843.160156 1.785157 2.304688 2.609375 3.632813 1.402344l3.511719-3.195313c1.164062-1.058593 3.050781-.578124 3.535156.917969 8.6875 26.796875-4.269532 60.335938-9.085938 71.285157-.703125 1.597656.65625 3.328124 2.375 3.015624 5.683594-1.039062 15.621094-4.246093 25.300782-10.542968 5.574218-14.785156 13.214843-41.574219 6.023437-63.757813zm0 0" fill="#8cc826"/><path d="m368.050781 10.8125c-51.652343 35.828125-36.648437 93.367188-36.648437 93.367188 17.1875-38.796876 46.082031-53.148438 55.617187-57.046876 1.289063-.527343 1.414063-2.308593.210938-3.019531l-3.171875-1.882812c-1.050782-.621094-1.125-2.136719-.125-2.835938 17.941406-12.5625 45.820312-10.578125 55.054687-9.492187 1.347657.15625 2.324219-1.25 1.699219-2.453125-5.886719-11.355469-32.671875-44.359375-72.636719-16.636719zm0 0" fill="#98d829"/><path d="m386.480469 20.945312c16.039062-11.125 29.957031-12.464843 41.25-9.351562-12.675781-10.925781-33.308594-19.074219-59.679688-.78125-51.652343 35.828125-36.648437 93.367188-36.648437 93.367188 5.359375-12.097657 11.859375-21.820313 18.554687-29.585938 3.796875-17.539062 13.582031-37.734375 36.523438-53.648438zm0 0" fill="#8cc826"/><path d="m293.292969 10.8125c51.648437 35.828125 38.109375 93.367188 38.109375 93.367188-17.183594-38.796876-47.546875-53.148438-57.082032-57.046876-1.289062-.527343-1.410156-2.308593-.210937-3.019531l3.171875-1.882812c1.054688-.621094 1.128906-2.136719.125-2.835938-17.9375-12.5625-45.816406-10.578125-55.054688-9.492187-1.347656.15625-2.324218-1.25-1.699218-2.453125 5.886718-11.355469 32.671875-44.359375 72.640625-16.636719zm0 0" fill="#98d829"/><path d="m278.375 31.335938c-1.292969-.527344-1.414062-2.308594-.214844-3.019532l3.175782-1.882812c1.050781-.621094 1.125-2.136719.125-2.835938-15.410157-10.792968-38.136719-10.847656-50.101563-9.960937-5.304687 5.070312-8.941406 10.414062-10.707031 13.8125-.625 1.203125.351562 2.609375 1.699218 2.453125 9.238282-1.085938 37.117188-3.070313 55.054688 9.492187 1.003906.699219.929688 2.214844-.121094 2.835938l-3.175781 1.882812c-1.199219.710938-1.078125 2.492188.214844 3.019531 9.53125 3.898438 39.894531 18.25 57.078125 57.046876 0 0 2.011718-8.554688 1.523437-21.117188-17.488281-34.792969-45.46875-48.011719-54.550781-51.726562zm0 0" fill="#8cc826"/><path d="m230.152344 183.511719c24.582031-77.03125 101.25-79.332031 101.25-79.332031-41.230469 35.761718-48.234375 75.769531-49.433594 88.964843-.160156 1.785157-2.308594 2.605469-3.632812 1.398438l-3.511719-3.191407c-1.164063-1.058593-3.050781-.582031-3.535157.917969-8.6875 26.796875 4.269532 60.335938 9.089844 71.285157.703125 1.597656-.660156 3.328124-2.378906 3.011718-16.183594-2.957031-66.871094-23.453125-47.847656-83.054687zm0 0" fill="#98d829"/><path d="m277.3125 256.027344c-17.886719-11.636719-34.894531-33.84375-22.550781-72.515625 14.03125-43.957031 45.015625-63.574219 69.042969-72.324219 2.394531-2.347656 4.921874-4.6875 7.597656-7.007812 0 0-76.667969 2.300781-101.25 79.332031-19.023438 59.601562 31.664062 80.097656 47.847656 83.058593 1.71875.3125 3.078125-1.417968 2.375-3.015624-.828125-1.882813-1.902344-4.453126-3.0625-7.527344zm0 0" fill="#8cc826"/><path d="m200.335938 94.175781c72.34375-41.613281 131.066406 10.003907 131.066406 10.003907-56.316406-1.425782-88.171875 24.175781-98.265625 33.398437-1.367188 1.25-3.570313.382813-3.742188-1.460937l-.457031-4.878907c-.148438-1.613281-1.921875-2.5625-3.335938-1.757812-25.269531 14.386719-38.726562 48.96875-42.671874 60.667969-.578126 1.707031-2.820313 2.078124-3.910157.644531-10.277343-13.515625-34.660156-64.414063 21.316407-96.617188zm0 0" fill="#98d829"/><path d="m224.949219 94.175781c16.050781-9.230469 31.425781-13.867187 45.640625-15.503906-20.308594-2.324219-44.410156.640625-70.25 15.503906-55.980469 32.203125-31.597656 83.101563-21.320313 96.617188 1.089844 1.433593 3.332031 1.0625 3.910157-.644531 1.582031-4.691407 4.699218-13.070313 9.492187-22.34375-6.429687-21.535157-5.324219-51.851563 32.527344-73.628907zm0 0" fill="#8cc826"/><path d="m326.789062 104.320312c-16.042968 95.140626-58.429687 268.191407-165.347656 400.960938-2.175781 2.703125-.25 6.71875 3.21875 6.71875h43.597656c3.789063 0 7.285157-2.019531 9.171876-5.308594 18.332031-31.929687 111.800781-203.792968 119.621093-401.285156.257813-6.464844-9.183593-7.464844-10.261719-1.085938zm0 0" fill="#9c5e5e"/><path d="m178.183594 505.28125c88.683594-110.128906 132.96875-247.96875 154.652344-346.074219 2.042968-17.65625 3.496093-35.617187 4.214843-53.800781.257813-6.464844-9.183593-7.464844-10.261719-1.085938-16.042968 95.140626-58.429687 268.191407-165.347656 400.960938-2.175781 2.703125-.25 6.71875 3.21875 6.71875h16.742188c-3.46875 0-5.394532-4.015625-3.21875-6.71875zm0 0" fill="#855151"/></svg>