<svg id="Capa_1" enable-background="new 0 0 512 512" height="512" viewBox="0 0 512 512" width="512" xmlns="http://www.w3.org/2000/svg"><path d="m283.639 123.873 126.154-77.121c3.256-1.99 2.297-6.997-1.474-7.583-24.946-3.873-51.337.716-74.563 14.914-26.484 16.191-43.724 41.741-50.117 69.79z" fill="#80e29e"/><path d="m303.874 343.341c-14.442 0-26.149 8.631-26.149 23.073s11.708 34.353 26.149 34.353c14.442 0 26.149-19.911 26.149-34.353s-11.707-23.073-26.149-23.073z" fill="#c27e4e"/><path d="m310.832 138.089-41.749-8.896c-81.188 45.83-158.553 219.578-140.43 355.674l76.189 10.361c-28.134-141.58 33.668-309.128 105.99-357.139z" fill="#cba59d"/><path d="m310.832 138.089-41.749-8.896c-1.56.881-3.117 1.824-4.673 2.798l24.36 5.484c-72.572 46.983-136.062 212.637-110.4 354.153l26.472 3.6c-28.134-141.581 33.668-309.128 105.99-357.139z" fill="#a3847e"/><path d="m197.956 428.649s-71.581.817-71.701.812c.196-5.133.499-10.285.905-15.451 0 0 70.806-.813 70.832-.813-.106 5.151-.119 10.304-.036 15.452zm4.979-73.603-64.984-8.517c-1.196 5.024-2.311 10.068-3.341 15.124.195.041.393.075.594.101 0 0 65.747 8.617 65.759 8.618.601-5.127 1.287-10.233 2.053-15.314-.027-.004-.054-.009-.081-.012zm12.363-57.32-57.324-15.406c-1.86 4.792-3.654 9.638-5.378 14.528.202.073.408.138.619.195 0 0 58.145 15.624 58.182 15.633 1.234-5.032 2.543-10.013 3.924-14.943zm8.242-129.334c-3.3 3.833-6.56 7.847-9.772 12.026.162.128.33.25.504.367 0 0 38.174 25.471 38.307 25.549 2.59-4.568 5.244-8.989 7.955-13.252zm-37.126 53.625c-2.518 4.444-4.982 8.986-7.388 13.617.192.102.389.196.592.283 0 0 49.161 20.992 49.224 21.017 1.875-4.859 3.819-9.633 5.826-14.312z" fill="#efcb83"/><g fill="#dbb56a"><path d="m244.383 182.302c-2.929 4.1-5.805 8.38-8.621 12.825 0 0 16.684 11.129 16.818 11.207 2.58-4.549 5.223-8.955 7.955-13.252z"/><path d="m192.73 291.661c-1.485 4.898-2.9 9.855-4.24 14.862l22.906 6.152c2.126-8.665 3.718-14.165 3.924-14.943.001.001-19.378-5.208-22.59-6.071z"/><path d="m214.621 234.061c-2.149 4.611-4.237 9.324-6.258 14.13 0 0 20.417 8.718 20.479 8.742 3.093-8.017 5.742-14.107 5.826-14.312z"/><path d="m197.992 413.197c-2.079-.02 7.156-.082-25.274.288-.138 5.152-.183 10.306-.131 15.456l25.37-.292c.001-1.497-.153-6.305.035-15.452z"/><path d="m178.691 351.868c-.839 5.07-1.598 10.168-2.273 15.287l24.545 3.216c.074-.63.233-1.948.236-1.979.515-4.239 1.12-8.717 1.817-13.335-.027-.004-.054-.008-.081-.012z"/></g><path d="m379.798 137.593 63.79 4.059c3.2.204 5.416-3.176 3.924-6.014-15.096-28.705-41.319-48.421-72.221-50.388-19.327-1.23-37.713 4.669-53.333 15.751-3.404-.385-6.845-.567-10.306-.526-1.687-3.404-3.519-6.623-5.489-9.661 1.621-18.729-2.444-37.245-12.936-53.127-17.063-25.827-47.193-38.78-79.593-37.617-3.216.115-5.069 3.714-3.295 6.399l33.83 51.207c-33.907-.046-69.888 19.588-98.65 51.078-2.277 2.493-.799 6.511 2.555 6.897l55.413 6.369 14.714-18.262c1.974-2.45 5.924-1.296 6.269 1.832l2.101 19.084 64.063 7.363 53.087 70.333 17.604-7.664c2.885-1.256 5.85 1.598 4.706 4.529l-8.531 21.846 21.109 30.569c1.952 2.827 6.285 2.163 7.329-1.111 13.261-41.557 11.996-83.482-6.14-112.946z" fill="#88f2a9"/><path d="m375.912 131.813c-15.293-20.769-39.314-31.633-64.259-31.337-11.902-24.017-30.76-39.146-57.924-42.268-36.594-4.206-76.726 16.076-108.209 50.548-2.275 2.491-.797 6.512 2.555 6.897l55.413 6.369 14.714-18.262c1.974-2.45 5.924-1.296 6.269 1.832l2.101 19.084 64.063 7.363 53.087 70.333 17.604-7.664c2.885-1.256 5.85 1.598 4.706 4.529l-8.531 21.846 21.109 30.569c1.95 2.824 6.286 2.159 7.329-1.111 14.156-44.359 11.766-89.131-10.027-118.728z" fill="#80e29e"/><path d="m375.912 131.813c-8.755-11.89-20.373-20.527-33.385-25.689 3.809 3.419 7.323 7.259 10.463 11.524 20.963 28.468 23.969 70.98 11.569 113.656l14.05 20.346c1.95 2.824 6.286 2.159 7.329-1.111 14.157-44.357 11.767-89.129-10.026-118.726z" fill="#6dc187"/><path d="m270.454 110.727c-14.442 0-26.149 8.631-26.149 23.073s11.708 34.353 26.149 34.353c14.442 0 26.149-19.911 26.149-34.353s-11.707-23.073-26.149-23.073z" fill="#c27e4e"/><path d="m310.167 134.303c-14.442 0-26.149 8.631-26.149 23.073s11.707 34.353 26.149 34.353 26.149-19.911 26.149-34.353-11.708-23.073-26.149-23.073z" fill="#b36d3c"/><path d="m257.497 477.183-1.541-1.697c-19.335-21.282-48.624-30.52-76.67-24.181l-60.654 13.708c-9.364 2.116-17.073 8.728-20.592 17.66-2.126 5.397-5.822 10.033-10.61 13.308l-23.418 16.019h306.957l-73.054-12.622c-15.569-2.689-29.794-10.501-40.418-22.195z" fill="#efcb83"/><path d="m222.722 480.57 1.541 1.697c10.624 11.694 24.849 19.506 40.418 22.195l43.63 7.538h62.657l-73.054-12.622c-15.569-2.69-29.793-10.501-40.418-22.195l-1.541-1.697c-19.335-21.282-48.624-30.52-76.67-24.181l-13.921 3.146c21.616.467 42.447 9.706 57.358 26.119z" fill="#dbb56a"/><path d="m286.342 313.582c-4.267 0-7.726-3.459-7.726-7.726v-30.627c0-4.267 3.459-7.726 7.726-7.726s7.726 3.459 7.726 7.726v30.627c.001 4.267-3.459 7.726-7.726 7.726z" fill="#efcb83"/><path d="m321.405 299.651c-4.267 0-7.726-3.459-7.726-7.726v-58.606c0-4.267 3.459-7.726 7.726-7.726s7.726 3.459 7.726 7.726v58.606c0 4.267-3.459 7.726-7.726 7.726z" fill="#efcb83"/></svg>