<svg id="Capa_1" enable-background="new 0 0 512 512" height="512" viewBox="0 0 512 512" width="512" xmlns="http://www.w3.org/2000/svg"><g><g><path d="m216.091 482.564c-2.835 0-5.563-1.565-6.917-4.273l-16.974-33.947c-1.908-3.817-.362-8.458 3.455-10.366 3.815-1.907 8.457-.361 10.366 3.455l16.974 33.947c1.908 3.817.362 8.458-3.455 10.366-1.108.555-2.288.818-3.449.818z" fill="#9d6b6b"/></g><g><path d="m204.783 496.954c-1.977 0-3.955-.755-5.463-2.263l-19.894-19.894c-3.018-3.018-3.018-7.909 0-10.928 3.017-3.016 7.909-3.016 10.927 0l19.894 19.894c3.018 3.018 3.018 7.909 0 10.928-1.51 1.508-3.487 2.263-5.464 2.263z" fill="#9d6b6b"/></g><g><path d="m296.01 482.362c-1.161 0-2.34-.263-3.45-.818-3.816-1.908-5.363-6.549-3.455-10.366l16.873-33.744c1.907-3.816 6.548-5.366 10.366-3.455 3.816 1.908 5.363 6.549 3.455 10.366l-16.873 33.744c-1.353 2.708-4.082 4.273-6.916 4.273z" fill="#9d6b6b"/></g><g><path d="m306.355 497.816c-1.977 0-3.955-.755-5.463-2.263-3.018-3.017-3.018-7.909-.001-10.927l20.756-20.757c3.018-3.018 7.91-3.017 10.927-.001 3.018 3.017 3.018 7.909.001 10.927l-20.756 20.757c-1.509 1.509-3.487 2.264-5.464 2.264z" fill="#9d6b6b"/></g><g><path d="m142.222 230.748c-4.267 0-7.726-3.459-7.726-7.726v-7.663c0-30.148 24.527-54.675 54.675-54.675s54.676 24.527 54.676 54.675c0 4.268-3.459 7.726-7.726 7.726s-7.726-3.459-7.726-7.726c0-21.627-17.595-39.222-39.223-39.222-21.627 0-39.222 17.596-39.222 39.222v7.663c-.001 4.268-3.461 7.726-7.728 7.726z" fill="#b3e59f"/></g><g><path d="m369.773 230.748c4.267 0 7.726-3.459 7.726-7.726v-7.663c0-30.148-24.527-54.675-54.675-54.675s-54.676 24.527-54.676 54.675c0 4.268 3.459 7.726 7.726 7.726s7.726-3.459 7.726-7.726c0-21.627 17.595-39.222 39.223-39.222 21.627 0 39.222 17.596 39.222 39.222v7.663c.002 4.268 3.461 7.726 7.728 7.726z" fill="#b3e59f"/></g><path d="m227.556 140.011c-37.922-31.138-92.654-37.273-137.657-11.29-50.662 29.249-72.24 89.527-54.591 142.97 1.517 4.594 8.264 3.509 8.282-1.329.167-44.162 23.156-87.052 64.158-110.725 38.143-22.022 82.895-22.228 119.808-4.489l4.944-5.716z" fill="#b3e59f"/><path d="m284.44 140.011c37.922-31.138 92.654-37.273 137.657-11.29 50.662 29.249 72.24 89.527 54.591 142.97-1.517 4.594-8.264 3.509-8.282-1.329-.167-44.162-23.156-87.052-64.158-110.725-38.143-22.022-82.895-22.228-119.808-4.489l-5.545-7.316z" fill="#b3e59f"/><path d="m284.444 440.992v-314.183c-9.428 9.809-17.311 13.557-23.256 25.967-1.049 2.189-9.329 2.189-10.378 0-5.945-12.41-13.828-16.157-23.255-25.966v314.183c0 9.04-3.591 17.71-9.984 24.102l-18.461 18.461h113.778l-18.461-18.461c-6.391-6.393-9.983-15.063-9.983-24.103z" fill="#b78e8e"/><path d="m294.428 465.095c-6.392-6.392-9.984-15.062-9.984-24.102v-314.184c-9.428 9.809-38.419 24.277-41.207 19.912v273.668c0 9.04 3.591 17.71 9.983 24.102 6.813 6.813 1.988 18.461-7.647 18.461h-26.035c-.623.739-1.278 1.454-1.967 2.143l-18.461 18.461h113.778z" fill="#aa8080"/><path d="m135.061 51.714c-58.497 0-107.322 41.409-118.761 96.514-.984 4.738 5.403 7.172 7.839 2.99 22.226-38.159 63.579-63.806 110.922-63.806 51.021 0 95.085 29.788 115.749 72.921 1.049 2.189 3.118 3.284 5.187 3.284-4.793-62.6-57.107-111.903-120.936-111.903z" fill="#b3e59f"/><path d="m495.7 148.233c-11.437-55.107-60.264-96.519-118.762-96.519-63.829 0-116.143 49.303-120.936 111.903 2.069-.001 4.138-1.096 5.187-3.284 20.665-43.133 64.728-72.921 115.75-72.921 47.345 0 88.699 25.649 110.925 63.811 2.433 4.181 8.819 1.747 7.836-2.99z" fill="#cbe7af"/><path d="m264.254 128.036c1.609-4.029 3.429-7.951 5.444-11.754 9.717-42.639 33.134-74.417 66.47-83.35 29.46-7.894 61.133 3.537 88.622 28.434 10.245 4.365 19.767 10.098 28.336 16.971-29.911-60.504-82.683-87.906-129.537-75.351-31.833 8.53-54.101 33.672-63.121 69.872 4.066 16.316 5.44 34.878 3.786 55.178z" fill="#b3e59f"/><path d="m256.006 163.562c.96-12.464 3.804-24.401 8.248-35.526 5.324-65.34-20.726-112.677-66.907-125.051-44.251-11.856-93.781 11.927-124.346 65.577l.165.111c9.236-5.491 19.263-9.79 29.869-12.686 25.2-19.425 53.148-27.688 79.347-20.668 39.67 10.629 65.294 53.609 70.499 108.744 1.547 6.319 2.6 12.833 3.113 19.498z" fill="#ccf49f"/><path d="m510.952 512h-509.904c-.579 0-1.048-.469-1.048-1.048v-26.348c0-.579.469-1.048 1.048-1.048h509.904c.579 0 1.048.469 1.048 1.048v26.348c0 .579-.469 1.048-1.048 1.048z" fill="#c3a2a2"/><path d="m170.667 272.517c0-4.891-2.469-9.205-6.228-11.764-1.709-1.163-1.709-3.752 0-4.916 3.759-2.56 6.228-6.874 6.228-11.764 0-7.073-5.164-12.941-11.928-14.038-1.273-.206-2.272-1.206-2.479-2.479-1.097-6.764-6.965-11.927-14.038-11.927-7.074 0-12.941 5.164-14.038 11.927-.206 1.273-1.206 2.272-2.479 2.479-6.764 1.097-11.928 6.965-11.928 14.038 0 4.891 2.469 9.205 6.228 11.764 1.709 1.163 1.709 3.752 0 4.916-3.759 2.559-6.228 6.874-6.228 11.764 0 4.891 2.469 9.205 6.228 11.764 1.709 1.163 1.709 3.752 0 4.916-3.759 2.56-6.228 6.874-6.228 11.764 0 7.073 5.164 12.941 11.928 14.038 1.273.206 2.272 1.206 2.479 2.479 1.097 6.764 6.965 11.927 14.038 11.927 7.074 0 12.941-5.164 14.038-11.927.206-1.273 1.206-2.272 2.479-2.479 6.764-1.097 11.928-6.965 11.928-14.038 0-4.891-2.469-9.205-6.228-11.764-1.709-1.164-1.709-3.752 0-4.916 3.759-2.559 6.228-6.873 6.228-11.764z" fill="#8b5e5e"/><path d="m170.667 272.517c0-4.891-2.469-9.205-6.228-11.764-1.709-1.163-1.709-3.752 0-4.916 3.759-2.56 6.228-6.874 6.228-11.764 0-7.073-5.164-12.941-11.928-14.038-1.273-.206-2.272-1.206-2.479-2.479-1.097-6.764-6.965-11.927-14.038-11.927-7.074 0-12.941 5.164-14.038 11.927-.206 1.273-1.206 2.272-2.479 2.479-6.764 1.097-11.928 6.965-11.928 14.038 0 4.891 2.469 9.205 6.228 11.764 1.709 1.163 1.709 3.752 0 4.916-3.759 2.559-6.228 6.874-6.228 11.764 0 4.891 2.469 9.205 6.228 11.764 1.709 1.163 1.709 3.752 0 4.916-3.759 2.56-6.228 6.874-6.228 11.764 0 7.073 5.164 12.941 11.928 14.038 1.273.206 2.272 1.206 2.479 2.479 1.097 6.764 6.965 11.927 14.038 11.927 7.074 0 12.941-5.164 14.038-11.927.206-1.273 1.206-2.272 2.479-2.479 6.764-1.097 11.928-6.965 11.928-14.038 0-4.891-2.469-9.205-6.228-11.764-1.709-1.164-1.709-3.752 0-4.916 3.759-2.559 6.228-6.873 6.228-11.764z" fill="#8b5e5e"/><g fill="#c3a2a2"><path d="m241.778 203.523c-4.201 0-8.15-1.636-11.121-4.606l-8.565-8.564c-3.017-3.017-3.018-7.909 0-10.927 3.017-3.018 7.909-3.017 10.927-.001l8.565 8.564c.052.052.336.053.388.001l2.908-2.908c2.97-2.97 6.92-4.607 11.121-4.607s8.151 1.637 11.122 4.607l2.907 2.908c.105.107.281.108.387-.001l8.564-8.564c3.018-3.016 7.909-3.016 10.928 0 3.017 3.018 3.017 7.909 0 10.928l-8.564 8.564c-6.133 6.131-16.111 6.131-22.243 0l-2.907-2.908c-.025-.025-.079-.08-.194-.08-.114 0-.168.054-.194.08l-2.908 2.908c-2.97 2.97-6.92 4.606-11.121 4.606z"/><path d="m241.778 231.96c-4.027 0-8.054-1.532-11.12-4.598l-8.566-8.566c-3.018-3.017-3.017-7.909 0-10.927 3.018-3.016 7.91-3.017 10.927.001l8.565 8.565c.107.105.281.106.389-.001l2.907-2.907c2.97-2.97 6.92-4.607 11.121-4.607s8.151 1.637 11.122 4.607l2.907 2.908c.106.108.281.105.388-.001l8.563-8.564c3.018-3.018 7.91-3.017 10.927-.001 3.018 3.017 3.018 7.909.001 10.927l-8.564 8.565c-6.134 6.131-16.111 6.131-22.242.001l-2.908-2.908c-.025-.025-.079-.08-.194-.08-.114 0-.168.054-.194.08l-2.908 2.908c-3.067 3.066-7.094 4.598-11.121 4.598z"/><path d="m241.778 260.411c-4.201 0-8.15-1.636-11.121-4.606l-8.565-8.564c-3.017-3.017-3.018-7.909 0-10.927 3.017-3.018 7.909-3.017 10.927-.001l8.565 8.564c.052.052.336.053.388.001l2.909-2.908c2.969-2.969 6.919-4.606 11.12-4.606s8.151 1.637 11.122 4.607l2.906 2.906c.107.109.282.109.388 0l8.564-8.564c3.018-3.016 7.909-3.016 10.928 0 3.017 3.018 3.017 7.909 0 10.928l-8.564 8.564c-6.133 6.131-16.111 6.131-22.243 0l-2.906-2.906c-.026-.026-.08-.081-.195-.081-.114 0-.168.054-.194.08l-2.909 2.908c-2.969 2.97-6.919 4.605-11.12 4.605z"/><path d="m241.778 288.856c-4.201 0-8.15-1.636-11.121-4.606l-8.565-8.564c-3.017-3.017-3.018-7.909 0-10.927 3.017-3.018 7.909-3.017 10.927-.001l8.565 8.564c.052.052.336.053.388.001l2.909-2.908c2.969-2.969 6.919-4.606 11.12-4.606s8.151 1.637 11.122 4.607l2.906 2.906c.107.109.282.109.388 0l8.564-8.564c3.018-3.016 7.909-3.016 10.928 0 3.017 3.018 3.017 7.909 0 10.928l-8.564 8.564c-6.133 6.131-16.111 6.131-22.243 0l-2.906-2.906c-.026-.026-.08-.081-.195-.081-.114 0-.168.054-.194.08l-2.909 2.908c-2.969 2.969-6.919 4.605-11.12 4.605z"/><path d="m241.778 317.301c-4.201 0-8.15-1.636-11.121-4.606l-8.565-8.564c-3.017-3.017-3.018-7.909 0-10.927 3.017-3.018 7.909-3.017 10.927-.001l8.565 8.564c.052.052.336.053.388.001l2.908-2.908c2.97-2.97 6.92-4.607 11.121-4.607s8.151 1.637 11.122 4.607l2.907 2.908c.105.107.281.108.387-.001l8.564-8.564c3.018-3.016 7.909-3.016 10.928 0 3.017 3.018 3.017 7.909 0 10.928l-8.564 8.564c-6.133 6.131-16.111 6.131-22.243 0l-2.907-2.908c-.025-.025-.079-.08-.194-.08-.114 0-.168.054-.194.08l-2.908 2.908c-2.97 2.97-6.92 4.606-11.121 4.606z"/><path d="m241.778 345.745c-4.201 0-8.15-1.636-11.121-4.606l-8.565-8.566c-3.018-3.017-3.017-7.909 0-10.927 3.018-3.017 7.91-3.016 10.927.001l8.565 8.565c.052.05.336.052.388 0l2.908-2.908c2.97-2.97 6.92-4.607 11.121-4.607s8.151 1.637 11.122 4.607l2.907 2.908c.105.107.281.108.387-.001l8.564-8.564c3.018-3.018 7.91-3.017 10.927-.001 3.018 3.017 3.018 7.909.001 10.927l-8.564 8.565c-6.134 6.133-16.112 6.131-22.243.001l-2.907-2.908c-.025-.025-.079-.08-.194-.08-.114 0-.168.054-.194.08l-2.908 2.908c-2.97 2.971-6.92 4.606-11.121 4.606z"/><path d="m241.778 374.189c-4.201 0-8.15-1.636-11.121-4.606l-8.565-8.564c-3.017-3.017-3.018-7.909 0-10.927 3.017-3.018 7.909-3.017 10.927-.001l8.565 8.564c.052.052.336.053.388.001l2.909-2.908c2.969-2.969 6.919-4.606 11.12-4.606s8.151 1.637 11.122 4.607l2.906 2.906c.107.109.282.109.388 0l8.564-8.564c3.018-3.016 7.909-3.016 10.928 0 3.017 3.018 3.017 7.909 0 10.928l-8.564 8.564c-6.133 6.131-16.111 6.131-22.243 0l-2.906-2.906c-.026-.026-.08-.081-.195-.081-.114 0-.168.054-.194.08l-2.909 2.908c-2.969 2.969-6.919 4.605-11.12 4.605z"/><path d="m241.778 402.634c-4.201 0-8.15-1.636-11.121-4.606l-8.565-8.564c-3.017-3.017-3.018-7.909 0-10.927 3.017-3.018 7.909-3.017 10.927-.001l8.565 8.564c.052.052.336.053.388.001l2.909-2.908c2.969-2.969 6.919-4.606 11.12-4.606s8.151 1.637 11.122 4.607l2.906 2.906c.107.109.282.109.388 0l8.564-8.564c3.018-3.016 7.909-3.016 10.928 0 3.017 3.018 3.017 7.909 0 10.928l-8.564 8.564c-6.133 6.131-16.111 6.131-22.243 0l-2.906-2.906c-.026-.026-.08-.081-.195-.081-.114 0-.168.054-.194.08l-2.909 2.908c-2.969 2.969-6.919 4.605-11.12 4.605z"/><path d="m241.778 431.078c-4.201 0-8.15-1.636-11.121-4.606l-8.565-8.564c-3.017-3.017-3.018-7.909 0-10.927 3.017-3.018 7.909-3.017 10.927-.001l8.565 8.564c.052.052.336.053.388.001l2.908-2.908c6.132-6.131 16.109-6.131 22.241 0l2.908 2.908c.105.107.281.108.387-.001l8.564-8.564c3.018-3.016 7.909-3.016 10.928 0 3.017 3.018 3.017 7.909 0 10.928l-8.564 8.564c-6.133 6.131-16.111 6.131-22.243 0l-2.907-2.908c-.106-.107-.281-.108-.388.001l-2.907 2.907c-2.97 2.971-6.92 4.606-11.121 4.606z"/><path d="m241.778 459.523c-4.201 0-8.15-1.636-11.121-4.606l-8.565-8.564c-3.017-3.017-3.018-7.909 0-10.927 3.017-3.018 7.909-3.017 10.927-.001l8.565 8.564c.052.052.336.053.388.001l2.908-2.908c2.97-2.97 6.92-4.607 11.121-4.607s8.151 1.637 11.122 4.607l2.907 2.908c.105.107.281.108.387-.001l8.564-8.564c3.018-3.016 7.909-3.016 10.928 0 3.017 3.018 3.017 7.909 0 10.928l-8.564 8.564c-6.133 6.131-16.111 6.131-22.243 0l-2.907-2.908c-.025-.025-.079-.081-.194-.081-.114 0-.168.054-.194.081l-2.908 2.908c-2.97 2.97-6.92 4.606-11.121 4.606z"/></g><path d="m141.075 219.764c-1.383-1.183-2.893-2.177-4.494-2.972-4.374 1.892-7.61 5.917-8.396 10.764-.206 1.273-1.206 2.272-2.479 2.479 2.652-.418 4.473.742 5.321 1.469 1.447 1.238 2.277 3.039 2.277 4.94 0 .985-.212 1.927-.63 2.8-1.845 3.848-.221 8.463 3.627 10.307 1.077.517 2.214.762 3.335.762 2.88 0 5.644-1.618 6.972-4.388 1.427-2.975 2.149-6.164 2.149-9.48-.001-6.424-2.801-12.503-7.682-16.681z" fill="#785252"/><path d="m169.497 306.618c-2.79-5.598-7.921-9.891-14.312-11.489-4.138-1.039-8.335 1.48-9.37 5.62s1.481 8.335 5.621 9.37c2.891.723 4.91 3.316 4.91 6.304 0 .354-.029.709-.085 1.055.206-1.273 1.206-2.272 2.479-2.479 4.84-.785 8.862-4.015 10.757-8.381z" fill="#785252"/><path d="m341.329 272.517c0 4.891 2.469 9.205 6.228 11.764 1.709 1.163 1.709 3.752 0 4.916-3.759 2.56-6.228 6.874-6.228 11.764 0 7.073 5.164 12.941 11.928 14.038 1.273.206 2.272 1.206 2.479 2.479 1.097 6.764 6.965 11.927 14.038 11.927s12.941-5.164 14.038-11.927c.207-1.273 1.206-2.272 2.479-2.479 6.764-1.097 11.928-6.965 11.928-14.038 0-4.891-2.469-9.205-6.228-11.764-1.709-1.163-1.709-3.752 0-4.916 3.759-2.559 6.228-6.874 6.228-11.764 0-4.891-2.469-9.205-6.228-11.764-1.709-1.163-1.709-3.752 0-4.916 3.759-2.56 6.228-6.874 6.228-11.764 0-7.073-5.164-12.941-11.928-14.038-1.273-.206-2.272-1.206-2.479-2.479-1.097-6.764-6.965-11.927-14.038-11.927s-12.941 5.164-14.038 11.927c-.207 1.273-1.206 2.272-2.479 2.479-6.764 1.097-11.928 6.965-11.928 14.038 0 4.891 2.469 9.205 6.228 11.764 1.709 1.163 1.709 3.752 0 4.916-3.76 2.559-6.228 6.873-6.228 11.764z" fill="#8b5e5e"/><path d="m370.921 325.27c1.383 1.183 2.893 2.177 4.494 2.972 4.374-1.892 7.61-5.917 8.396-10.764.206-1.273 1.206-2.272 2.479-2.479-2.652.418-4.473-.742-5.321-1.469-1.447-1.238-2.277-3.039-2.277-4.94 0-.985.212-1.927.63-2.8 1.845-3.848.221-8.463-3.627-10.307-1.077-.517-2.214-.762-3.335-.762-2.88 0-5.644 1.618-6.972 4.388-1.427 2.975-2.149 6.164-2.149 9.48 0 6.424 2.8 12.503 7.682 16.681z" fill="#785252"/><path d="m342.498 238.416c2.79 5.598 7.921 9.891 14.312 11.489 4.138 1.039 8.335-1.48 9.37-5.62s-1.481-8.335-5.621-9.37c-2.891-.723-4.91-3.316-4.91-6.304 0-.354.029-.709.085-1.055-.206 1.273-1.206 2.272-2.479 2.479-4.84.785-8.862 4.015-10.757 8.381z" fill="#785252"/></g></svg>