<svg id="Capa_1" enable-background="new 0 0 512 512" height="512" viewBox="0 0 512 512" width="512" xmlns="http://www.w3.org/2000/svg"><g><g><path d="m215.794 117.057c-12.465-5.787-27.394-9.157-43.443-9.157-11.394 0-22.218 1.705-32.002 4.761 9.079-4.758 17.939-11.206 25.995-19.263 11.348-11.348 19.522-24.288 24.244-37.194.661-1.808-1.097-3.566-2.904-2.904-12.906 4.722-25.846 12.896-37.194 24.244-8.057 8.056-14.505 16.916-19.263 25.995 3.056-9.784 4.761-20.608 4.761-32.002 0-16.049-3.37-30.978-9.157-43.443-.811-1.746-3.297-1.746-4.108 0-5.787 12.465-9.157 27.394-9.157 43.443 0 11.394 1.705 22.218 4.761 32.002-4.757-9.079-11.206-17.939-19.263-25.995-11.348-11.348-24.287-19.522-37.193-24.244-1.808-.662-3.566 1.097-2.904 2.904 4.721 12.907 12.895 25.846 24.243 37.195 8.057 8.056 16.916 14.505 25.995 19.262-9.784-3.056-20.609-4.761-32.002-4.761-16.049 0-30.978 3.37-43.443 9.157-1.746.811-1.746 3.297 0 4.108 12.465 5.787 27.394 9.157 43.443 9.157 11.394 0 22.218-1.705 32.002-4.761-9.079 4.757-17.939 11.206-25.995 19.263-11.348 11.348-19.522 24.288-24.244 37.194-.661 1.808 1.097 3.566 2.904 2.905 12.906-4.722 25.846-12.896 37.194-24.244 12.631-12.631 21.33-27.233 25.713-41.567 4.383 14.333 13.082 28.936 25.713 41.567 11.348 11.348 24.288 19.522 37.194 24.244 1.808.661 3.566-1.097 2.904-2.905-4.722-12.906-12.896-25.845-24.244-37.194-8.057-8.057-16.916-14.505-25.995-19.263 9.784 3.056 20.609 4.761 32.002 4.761 16.049 0 30.978-3.37 43.443-9.157 1.746-.811 1.746-3.297 0-4.108z" fill="#22b27f"/><path d="m132.277 230.73v-96.173c-2.708-5.126-4.91-10.395-6.544-15.739l-.956-3.128-.956 3.128c-1.634 5.343-3.835 10.612-6.544 15.739v96.173z" fill="#d78878"/><g><g><g><g><path d="m77.203 130.322c17.863 0 34.339-4.175 47.574-11.211-13.234-7.036-29.711-11.211-47.574-11.211-16.049 0-30.978 3.37-43.443 9.157-1.746.811-1.746 3.297 0 4.108 12.465 5.787 27.395 9.157 43.443 9.157z" fill="#017b4e"/></g></g><g><path d="m172.351 130.322c16.049 0 30.978-3.37 43.443-9.157 1.746-.811 1.746-3.297 0-4.108-12.465-5.787-27.394-9.157-43.443-9.157-17.863 0-34.339 4.175-47.574 11.211 13.235 7.036 29.711 11.211 47.574 11.211z" fill="#017b4e"/></g></g><g><g><g><path d="m99.065 160.678c-11.348 11.348-24.288 19.522-37.194 24.244-1.808.661-3.566-1.097-2.904-2.904 4.722-12.906 12.896-25.846 24.244-37.194 12.631-12.631 27.233-21.33 41.567-25.713-4.384 14.334-13.082 28.936-25.713 41.567z" fill="#22b27f"/></g></g><g><path d="m150.49 160.678c11.348 11.348 24.288 19.522 37.194 24.244 1.808.661 3.566-1.097 2.905-2.904-4.722-12.906-12.896-25.846-24.244-37.194-12.631-12.631-27.233-21.33-41.567-25.713 4.382 14.334 13.081 28.936 25.712 41.567z" fill="#22b27f"/></g></g><g><g><g><path d="m150.49 77.544c11.348-11.348 24.288-19.522 37.194-24.244 1.808-.661 3.566 1.097 2.905 2.904-4.722 12.906-12.896 25.846-24.244 37.194-12.631 12.631-27.233 21.33-41.567 25.713 4.382-14.333 13.081-28.936 25.712-41.567z" fill="#22b27f"/></g></g><g><path d="m99.065 77.544c-11.349-11.348-24.288-19.522-37.194-24.244-1.808-.661-3.566 1.097-2.904 2.904 4.721 12.907 12.895 25.846 24.243 37.195 12.631 12.631 27.233 21.33 41.567 25.713-4.383-14.334-13.081-28.937-25.712-41.568z" fill="#22b27f"/></g></g><g><path d="m113.567 71.537c0 17.863 4.175 34.339 11.211 47.574 7.036-13.234 11.211-29.711 11.211-47.574 0-16.049-3.37-30.978-9.157-43.443-.811-1.746-3.297-1.746-4.108 0-5.788 12.465-9.157 27.395-9.157 43.443z" fill="#017b4e"/></g></g></g><path d="m233.533 230.73c1.153 0 2.09.938 2.09 2.09v18.544c0 2.256 1.835 4.091 4.091 4.091h32.571c2.256 0 4.091-1.835 4.091-4.091v-18.544c0-1.152.938-2.09 2.09-2.09h41.799c1.153 0 2.09.938 2.09 2.09v18.544c0 2.256 1.835 4.091 4.09 4.091h32.572c2.255 0 4.09-1.835 4.09-4.091v-18.544c0-1.152.938-2.09 2.091-2.09h43.783c1.153 0 2.09.938 2.09 2.09v64.872h76.719v-188.493c0-1.707-1.384-3.091-3.091-3.091h-43.624c-1.283 0-2.432.792-2.888 1.99l-6.723 17.653c-.456 1.198-1.606 1.99-2.888 1.99h-156.43c-1.291 0-2.447-.803-2.897-2.013l-6.548-17.607c-.45-1.21-1.605-2.013-2.897-2.013h-42.953c-1.707 0-3.091 1.384-3.091 3.091v121.531z" fill="#fed2a4"/><path d="m233.533 230.73c1.153 0 2.09.938 2.09 2.09v18.544c0 2.256 1.835 4.091 4.091 4.091h5.984v-146.256c0-1.707 1.384-3.091 3.091-3.091h-31.936c-1.707 0-3.091 1.384-3.091 3.091v121.531z" fill="#ffbd86"/><g><path d="m15.962 484.215 43.859-31.778c8.275-5.996 18.051-9.165 28.271-9.165 4.389 0 8.695.588 12.836 1.73v-148.31h-95.777c-2.845 0-5.151 2.306-5.151 5.151v178.221c0 2.845 2.306 5.151 5.151 5.151h7.726z" fill="#ffe5c2"/><path d="m506.849 296.692h-95.777v149.661c5.38-2.029 11.105-3.081 16.979-3.081 10.219 0 19.995 3.169 28.271 9.165l43.859 31.778 3.084 1h3.584c2.845 0 5.151-2.306 5.151-5.151v-178.221c0-2.845-2.306-5.151-5.151-5.151z" fill="#ffbd86"/></g><path d="m33.481 301.843c0-2.845 2.306-5.151 5.151-5.151h-33.481c-2.845 0-5.151 2.306-5.151 5.151v178.221c0 2.845 2.306 5.151 5.151 5.151h7.726l20.604-14.929z" fill="#fed2a4"/><path d="m116.362 452.437 43.859 31.778 3.085 1h131.953l3.084-1 33.77-24.468c6.437-4.664 14.041-7.13 21.989-7.13s15.553 2.466 21.989 7.13l6.8 4.928 16.889-12.238c3.812-2.762 7.946-4.916 12.292-6.445v-213.17c0-1.707-1.384-3.09-3.091-3.09h-43.783c-1.707 0-3.091 1.384-3.091 3.09v18.543c0 1.707-1.384 3.09-3.091 3.09h-32.572c-1.707 0-3.091-1.384-3.091-3.09v-18.543c0-1.707-1.384-3.09-3.091-3.09h-41.798c-1.707 0-3.091 1.384-3.091 3.09v18.543c0 1.707-1.384 3.09-3.091 3.09h-32.572c-1.707 0-3.091-1.384-3.091-3.09v-18.543c0-1.707-1.384-3.09-3.091-3.09h-41.798c-1.707 0-3.091 1.384-3.091 3.09v18.543c0 1.707-1.384 3.09-3.091 3.09h-32.572c-1.707 0-3.091-1.384-3.091-3.09v-18.543c0-1.707-1.384-3.09-3.091-3.09h-43.783c-1.707 0-3.091 1.384-3.091 3.09v211.921c5.878 1.481 11.436 4.066 16.442 7.694z" fill="#ffe5c2"/><path d="m116.949 451.627 16.46 11.926v-230.732c0-1.707 1.384-3.09 3.091-3.09h-33.481c-1.707 0-3.091 1.384-3.091 3.09v210.901c6.006 1.487 11.794 4.117 17.021 7.905z" fill="#fed2a4"/><path d="m258.208 357.618c-1.401-.666-3.016-.666-4.417 0-23.664 11.244-40.029 35.355-40.029 63.297v64.3h25.755l1-1.215v-63.085c0-12.126 5.132-23.774 14.081-31.958.381-.349.879-.541 1.402-.541s1.021.192 1.402.541c8.949 8.184 14.081 19.832 14.081 31.958v63.085l1 1.215h25.755v-64.3c-.001-27.942-16.366-52.053-40.03-63.297z" fill="#fd5426"/><g><path d="m239.517 485.215v-64.3c0-12.662 5.384-24.446 14.406-32.697 1.17-1.07 2.983-1.07 4.153 0 9.023 8.251 14.406 20.035 14.406 32.697v64.3z" fill="#6354b1"/></g><g><g><path d="m160.193 322.447h-24.724c-1.707 0-3.091-1.384-3.091-3.091v-24.724c0-1.707 1.384-3.091 3.091-3.091h24.724c1.707 0 3.091 1.384 3.091 3.091v24.724c0 1.707-1.384 3.091-3.091 3.091z" fill="#54469c"/></g><g><path d="m232.306 322.447h-24.724c-1.707 0-3.091-1.384-3.091-3.091v-24.724c0-1.707 1.384-3.091 3.091-3.091h24.724c1.707 0 3.091 1.384 3.091 3.091v24.724c-.001 1.707-1.384 3.091-3.091 3.091z" fill="#54469c"/></g><g><path d="m304.419 322.447h-24.724c-1.707 0-3.091-1.384-3.091-3.091v-24.724c0-1.707 1.384-3.091 3.091-3.091h24.724c1.707 0 3.091 1.384 3.091 3.091v24.724c-.001 1.707-1.385 3.091-3.091 3.091z" fill="#54469c"/></g><g><path d="m376.531 322.447h-24.724c-1.707 0-3.091-1.384-3.091-3.091v-24.724c0-1.707 1.384-3.091 3.091-3.091h24.724c1.707 0 3.091 1.384 3.091 3.091v24.724c0 1.707-1.384 3.091-3.091 3.091z" fill="#54469c"/></g></g><g><g><path d="m331.526 458.938-36.267 26.278h117.687l-36.267-26.278c-13.469-9.76-31.684-9.76-45.153 0z" fill="#fccd7f"/></g><g><path d="m399.194 451.627-46.357 33.588h150.428l-46.357-33.588c-17.216-12.474-40.498-12.474-57.714 0z" fill="#fbc56d"/></g><g><path d="m449.17 447.043c-16.026-7.626-35.226-6.104-49.976 4.583l-46.357 33.589h42.237l46.357-33.589c2.466-1.786 5.06-3.308 7.739-4.583z" fill="#e9b665"/></g><g><path d="m59.234 451.627-46.357 33.588h150.429l-46.357-33.588c-17.216-12.474-40.499-12.474-57.715 0z" fill="#fbc56d"/></g><g><path d="m105.605 445.501c-15.237-5.807-32.712-3.771-46.37 6.126l-46.357 33.589h35.026l46.357-33.589c3.557-2.578 7.375-4.614 11.344-6.126z" fill="#e9b665"/></g></g><g><g><path d="m267.847 191.099h-19.573c-1.707 0-3.091-1.384-3.091-3.091v-19.573c0-1.707 1.384-3.091 3.091-3.091h19.573c1.707 0 3.091 1.384 3.091 3.091v19.573c0 1.707-1.384 3.091-3.091 3.091z" fill="#fff"/></g><g><path d="m329.658 191.099h-19.573c-1.707 0-3.091-1.384-3.091-3.091v-19.573c0-1.707 1.384-3.091 3.091-3.091h19.573c1.707 0 3.091 1.384 3.091 3.091v19.573c0 1.707-1.384 3.091-3.091 3.091z" fill="#fff"/></g><g><path d="m391.469 191.099h-19.573c-1.707 0-3.091-1.384-3.091-3.091v-19.573c0-1.707 1.384-3.091 3.091-3.091h19.573c1.707 0 3.091 1.384 3.091 3.091v19.573c-.001 1.707-1.384 3.091-3.091 3.091z" fill="#fff"/></g><g><path d="m453.28 191.099h-19.573c-1.707 0-3.091-1.384-3.091-3.091v-19.573c0-1.707 1.384-3.091 3.091-3.091h19.573c1.707 0 3.091 1.384 3.091 3.091v19.573c-.001 1.707-1.384 3.091-3.091 3.091z" fill="#fff"/></g></g><g><g><g><path d="m36.056 354.671c-4.142 0-7.5-3.357-7.5-7.5v-14.423c0-4.143 3.358-7.5 7.5-7.5s7.5 3.357 7.5 7.5v14.423c0 4.142-3.358 7.5-7.5 7.5z" fill="#ffbd86"/></g><g><path d="m67.992 354.671c-4.142 0-7.5-3.357-7.5-7.5v-14.423c0-4.143 3.358-7.5 7.5-7.5s7.5 3.357 7.5 7.5v14.423c0 4.142-3.358 7.5-7.5 7.5z" fill="#ffbd86"/></g></g><g><g><path d="m444.008 354.671c-4.142 0-7.5-3.357-7.5-7.5v-14.423c0-4.143 3.358-7.5 7.5-7.5s7.5 3.357 7.5 7.5v14.423c0 4.142-3.358 7.5-7.5 7.5z" fill="#ca6e59"/></g><g><path d="m475.944 354.671c-4.142 0-7.5-3.357-7.5-7.5v-14.423c0-4.143 3.358-7.5 7.5-7.5s7.5 3.357 7.5 7.5v14.423c0 4.142-3.358 7.5-7.5 7.5z" fill="#ca6e59"/></g></g></g><g><g><path d="m172.298 424.435h-21.634c-1.707 0-3.091-1.384-3.091-3.091v-49.449c0-1.707 1.384-3.091 3.091-3.091h21.634c1.707 0 3.091 1.384 3.091 3.091v49.449c-.001 1.707-1.384 3.091-3.091 3.091z" fill="#54469c"/></g><g><path d="m361.336 424.435h-21.634c-1.707 0-3.091-1.384-3.091-3.091v-49.449c0-1.707 1.384-3.091 3.091-3.091h21.634c1.707 0 3.091 1.384 3.091 3.091v49.449c0 1.707-1.384 3.091-3.091 3.091z" fill="#54469c"/></g></g></g></svg>