<svg viewBox="0 0 96 96" xmlns="http://www.w3.org/2000/svg"><g id="Layer_1"/><g id="Layer_2"/><g id="Layer_3"/><g id="Layer_4"><g><g><g><g><g><path d="m90.623 51.842v35.656h-8.433c-8.968-9.769-17.722-6.298-23.06-2.241-6.139-4.11-11.796-1.174-15.266 1.655v-35.07h5.124v-4.003h6.406v4.003h6.939v-4.003h6.406v4.003h9.32v-4.003h7.44v4.003z" fill="#ffd297"/></g></g><g><g><path d="m90.623 88.875h-8.435c-.385 0-.753-.161-1.014-.446-8.125-8.849-16.017-6.017-21.211-2.074-.465.355-1.105.377-1.6.046-4.258-2.851-8.849-2.324-13.628 1.579-.417.336-.982.409-1.463.175-.479-.226-.785-.71-.785-1.243v-35.07c0-.761.616-1.377 1.377-1.377h3.747v-2.625c0-.761.616-1.377 1.377-1.377h6.407c.761 0 1.377.616 1.377 1.377v2.625h4.185v-2.625c0-.761.616-1.377 1.377-1.377h6.404c.761 0 1.377.616 1.377 1.377v2.625h6.568v-2.625c0-.761.616-1.377 1.377-1.377h7.44c.761 0 1.377.616 1.377 1.377v2.625h3.747c.761 0 1.377.616 1.377 1.377v35.657c-.001.76-.617 1.376-1.378 1.376zm-7.838-2.755h6.461v-32.902h-3.747c-.761 0-1.377-.616-1.377-1.377v-2.625h-4.685v2.625c0 .761-.616 1.377-1.377 1.377h-9.322c-.761 0-1.377-.616-1.377-1.377v-2.625h-3.65v2.625c0 .761-.616 1.377-1.377 1.377h-6.939c-.761 0-1.377-.616-1.377-1.377v-2.625h-3.653v2.625c0 .761-.616 1.377-1.377 1.377h-3.748v31.012c4.685-2.908 9.494-3.139 13.827-.635 5.114-3.607 14.318-7.319 23.718 2.525z" fill="#252526"/></g></g></g><g><g><g><path d="m43.864 5.619v81.879h-38.486v-81.879h10.622v4.003h15.96v-4.003z" fill="#ffc466"/></g></g><g><g><path d="m43.863 88.875h-38.486c-.761 0-1.377-.616-1.377-1.377v-81.879c0-.761.616-1.377 1.377-1.377h10.624c.761 0 1.377.616 1.377 1.377v2.625h13.203v-2.625c0-.761.616-1.377 1.377-1.377h11.904c.761 0 1.377.616 1.377 1.377v81.878c.001.762-.615 1.378-1.376 1.378zm-37.109-2.755h35.732v-79.124h-9.15v2.625c0 .761-.616 1.377-1.377 1.377h-15.958c-.761 0-1.377-.616-1.377-1.377v-2.625h-7.87z" fill="#252526"/></g></g></g><g><g><g><path d="m88.168 51.842h-2.669v-4.004h-7.441v4.004h-9.32v-4.004h-6.406v4.004h-6.939v-4.004h-6.405v4.004h-.193v-29.346h6.985l2.076 4.003h21.024l2.802-4.003h6.486z" fill="#ffc466"/></g></g><g><g><path d="m88.167 53.218h-2.668c-.761 0-1.377-.616-1.377-1.377v-2.625h-4.685v2.625c0 .761-.616 1.377-1.377 1.377h-9.322c-.761 0-1.377-.616-1.377-1.377v-2.625h-3.65v2.625c0 .761-.616 1.377-1.377 1.377h-6.939c-.761 0-1.377-.616-1.377-1.377v-2.625h-3.653v2.625c0 .761-.616 1.377-1.377 1.377s-1.571-.616-1.571-1.377v-29.344c0-.761.616-1.377 1.377-1.377h6.988c.514 0 .987.288 1.224.742l1.686 3.26h19.47l2.394-3.416c.256-.368.678-.586 1.127-.586h6.485c.761 0 1.377.616 1.377 1.377v29.344c-.001.761-.617 1.377-1.378 1.377zm-18.053-2.754h6.568v-2.625c0-.761.616-1.377 1.377-1.377h7.44c.592 0 1.097.374 1.291.896v-23.484h-4.39l-2.394 3.416c-.256.368-.678.586-1.127.586h-21.024c-.514 0-.987-.288-1.224-.742l-1.686-3.26h-4.774v22.588h5.223c.761 0 1.377.616 1.377 1.377v2.625h4.185v-2.625c0-.761.616-1.377 1.377-1.377h6.404c.761 0 1.377.616 1.377 1.377z" fill="#252526"/></g></g></g><g><g><g><path d="m56.075 33.902h4.903v4.64h-4.903z" fill="#b27f47"/></g><g><path d="m60.978 39.92h-4.903c-.761 0-1.377-.616-1.377-1.377v-4.642c0-.761.616-1.377 1.377-1.377h4.903c.761 0 1.377.616 1.377 1.377v4.642c0 .761-.616 1.377-1.377 1.377zm-3.527-2.754h2.149v-1.888h-2.149z" fill="#252526"/></g></g><g><g><path d="m66.03 33.902h4.903v4.64h-4.903z" fill="#b27f47"/></g><g><path d="m70.932 39.92h-4.903c-.761 0-1.377-.616-1.377-1.377v-4.642c0-.761.616-1.377 1.377-1.377h4.903c.761 0 1.377.616 1.377 1.377v4.642c0 .761-.616 1.377-1.377 1.377zm-3.526-2.754h2.149v-1.888h-2.149z" fill="#252526"/></g></g><g><g><path d="m75.985 33.902h4.903v4.64h-4.903z" fill="#b27f47"/></g><g><path d="m80.886 39.92h-4.901c-.761 0-1.377-.616-1.377-1.377v-4.642c0-.761.616-1.377 1.377-1.377h4.901c.761 0 1.377.616 1.377 1.377v4.642c0 .761-.615 1.377-1.377 1.377zm-3.523-2.754h2.146v-1.888h-2.146z" fill="#252526"/></g></g></g><g><g><g><g><path d="m55.761 57.457h7.138v6.756h-7.138z" fill="#b27f47"/></g><g><path d="m62.898 65.59h-7.138c-.761 0-1.377-.616-1.377-1.377v-6.756c0-.761.616-1.377 1.377-1.377h7.138c.761 0 1.377.616 1.377 1.377v6.756c0 .761-.616 1.377-1.377 1.377zm-5.761-2.754h4.384v-4.002h-4.384z" fill="#252526"/></g></g><g><g><path d="m71.588 57.457h7.138v6.756h-7.138z" fill="#b27f47"/></g><g><path d="m78.727 65.59h-7.138c-.761 0-1.377-.616-1.377-1.377v-6.756c0-.761.616-1.377 1.377-1.377h7.138c.761 0 1.377.616 1.377 1.377v6.756c0 .761-.616 1.377-1.377 1.377zm-5.762-2.754h4.384v-4.002h-4.384z" fill="#252526"/></g></g></g><g><g><g><path d="m55.761 71.124h7.138v6.756h-7.138z" fill="#b27f47"/></g><g><path d="m62.898 79.256h-7.138c-.761 0-1.377-.616-1.377-1.377v-6.756c0-.761.616-1.377 1.377-1.377h7.138c.761 0 1.377.616 1.377 1.377v6.756c0 .762-.616 1.377-1.377 1.377zm-5.761-2.754h4.384v-4.002h-4.384z" fill="#252526"/></g></g><g><g><path d="m71.588 71.124h7.138v6.756h-7.138z" fill="#b27f47"/></g><g><path d="m78.727 79.256h-7.138c-.761 0-1.377-.616-1.377-1.377v-6.756c0-.761.616-1.377 1.377-1.377h7.138c.761 0 1.377.616 1.377 1.377v6.756c0 .762-.616 1.377-1.377 1.377zm-5.762-2.754h4.384v-4.002h-4.384z" fill="#252526"/></g></g></g></g><g><g><path d="m31.405 87.491h-13.593v-9.124c0-6.204 1.656-12.296 4.797-17.647.896-1.527 3.103-1.527 3.999 0 3.141 5.351 4.797 11.443 4.797 17.647z" fill="#b27f47"/></g><g><path d="m31.405 88.869h-13.594c-.761 0-1.377-.616-1.377-1.377v-9.126c0-6.444 1.724-12.787 4.987-18.343 1.348-2.286 5.035-2.284 6.377 0 3.26 5.557 4.984 11.902 4.984 18.343v9.126c0 .761-.616 1.377-1.377 1.377zm-12.217-2.754h10.839v-7.749c0-5.952-1.592-11.813-4.607-16.95-.245-.42-.648-.465-.812-.465-.161 0-.565.046-.81.465-3.015 5.135-4.61 10.995-4.61 16.95z" fill="#252526"/></g></g><g><g><g><path d="m14.051 41.615h6.563v7.614h-6.563z" fill="#b27f47"/></g><g><path d="m20.614 50.606h-6.563c-.761 0-1.377-.616-1.377-1.377v-7.614c0-.761.616-1.377 1.377-1.377h6.563c.761 0 1.377.616 1.377 1.377v7.614c0 .761-.616 1.377-1.377 1.377zm-5.186-2.754h3.809v-4.86h-3.809z" fill="#252526"/></g></g><g><g><path d="m28.603 41.615h6.563v7.614h-6.563z" fill="#b27f47"/></g><g><path d="m35.168 50.606h-6.565c-.761 0-1.377-.616-1.377-1.377v-7.614c0-.761.616-1.377 1.377-1.377h6.565c.761 0 1.377.616 1.377 1.377v7.614c0 .761-.616 1.377-1.377 1.377zm-5.189-2.754h3.811v-4.86h-3.811z" fill="#252526"/></g></g></g><g><g><g><path d="m14.051 22.496h6.563v7.614h-6.563z" fill="#b27f47"/></g><g><path d="m20.614 31.486h-6.563c-.761 0-1.377-.616-1.377-1.377v-7.612c0-.761.616-1.377 1.377-1.377h6.563c.761 0 1.377.616 1.377 1.377v7.612c0 .761-.616 1.377-1.377 1.377zm-5.186-2.755h3.809v-4.858h-3.809z" fill="#252526"/></g></g><g><g><path d="m28.603 22.496h6.563v7.614h-6.563z" fill="#b27f47"/></g><g><path d="m35.168 31.486h-6.565c-.761 0-1.377-.616-1.377-1.377v-7.612c0-.761.616-1.377 1.377-1.377h6.565c.761 0 1.377.616 1.377 1.377v7.612c0 .761-.616 1.377-1.377 1.377zm-5.189-2.755h3.811v-4.858h-3.811z" fill="#252526"/></g></g></g><g><g><path d="m14.175 61.935c-.761 0-1.377-.616-1.377-1.377v-2.214c0-.761.616-1.377 1.377-1.377s1.377.616 1.377 1.377v2.214c0 .761-.616 1.377-1.377 1.377z" fill="#252526"/></g></g><g><g><path d="m35.168 61.935c-.761 0-1.377-.616-1.377-1.377v-2.214c0-.761.616-1.377 1.377-1.377s1.377.616 1.377 1.377v2.214c0 .761-.616 1.377-1.377 1.377z" fill="#252526"/></g></g><g><g><path d="m84.538 90.38h-30.639s.96-1.281 2.669-2.883c.694-.747 1.602-1.495 2.562-2.241 5.338-4.057 14.092-7.527 23.06 2.241.746.856 1.547 1.816 2.348 2.883z" fill="#ffbc45"/></g><g><path d="m84.539 91.758h-30.641c-.522 0-.998-.296-1.232-.761s-.183-1.025.129-1.442c.043-.056 1.054-1.396 2.83-3.061.734-.799 1.762-1.627 2.66-2.327 5.005-3.8 14.879-8.54 24.917 2.399.791.904 1.614 1.891 2.437 2.988.315.417.366.974.132 1.442-.234.466-.71.762-1.232.762zm-27.553-2.754h24.683c-.175-.204-.347-.406-.516-.6-8.112-8.833-16.001-5.995-21.189-2.05-.802.619-1.719 1.361-2.388 2.079-.208.197-.404.388-.59.571z" fill="#252526"/></g></g><g><g><path d="m59.13 85.256c-.96.747-1.868 1.495-2.562 2.241-1.708 1.602-2.669 2.883-2.669 2.883h-13.505s1.014-1.334 2.722-2.883h.747v-.586c3.47-2.829 9.128-5.765 15.267-1.655z" fill="#c48e4e"/></g><g><path d="m53.898 91.758h-13.504c-.524 0-1.001-.296-1.235-.767-.231-.468-.178-1.027.137-1.444.046-.059 1.114-1.452 2.894-3.069.145-.132.317-.231.5-.29.081-.129.183-.245.301-.344 5.67-4.621 11.668-5.239 16.904-1.729.368.245.594.654.611 1.095.013.444-.183.866-.533 1.138-.812.627-1.729 1.369-2.399 2.087-1.654 1.557-2.566 2.762-2.577 2.776-.257.343-.666.547-1.099.547zm-10.379-2.754h9.72c.463-.551 1.272-1.466 2.386-2.509.315-.342.683-.689 1.07-1.03-3.634-1.654-7.472-.947-11.458 2.114-.043.724-.64 1.296-1.374 1.296h-.207c-.046.043-.091.086-.137.129z" fill="#252526"/></g></g><g><g><path d="m43.863 88.875h-.748c-.592 0-1.119-.379-1.307-.941-.186-.562.005-1.181.481-1.538l.715-.559c.412-.334.979-.393 1.455-.164s.78.71.78 1.24v.586c.001.76-.615 1.376-1.376 1.376z" fill="#252526"/></g></g></g></g></g></svg>