<svg id="Capa_1" enable-background="new 0 0 512 512" height="512" viewBox="0 0 512 512" width="512" xmlns="http://www.w3.org/2000/svg"><g><path d="m296.635 284.444c0-5.135-.068-10.001-.196-14.621l-5.983-10.754 5.151-6.701c-1.3-18.723-3.708-32.884-6.501-45.146l-5.871-5.873 1.899-9.896c-2.429-8.998-4.902-17.538-7.016-27.046l-5.906-9.185 2.817-7.545c-.315-2.153-.606-4.373-.876-6.671l-7.316-31.151-19.366 3.921c0 81.27 19.915 73.143 19.915 170.667 0 81.27-36.169 121.905-36.169 219.429h25.52l16.045-24.375c.08-1.823.169-3.625.266-5.407l-2.791-10.045 3.977-6.693c1.371-15.689 3.343-29.869 5.555-43.26l.12-12.745 2.819-4.04c1.702-9.295 3.435-18.339 5.092-27.402l-1.191-11.525 4.014-4.677c2.152-13.15 3.946-26.703 4.995-41.399l-4.312-6.756 5.097-9.637c.108-3.697.212-7.588.212-11.467z" fill="#d48c64"/><path d="m275.913 284.444c0-7.866-.133-15.078-.372-21.751l20.899 7.129c-.174-6.225-.457-12.053-.832-17.455l-21.016-7.173c-.964-12.939-2.379-23.455-3.999-32.529l18.513-5.443c-1.268-5.562-2.613-10.74-3.972-15.769l-17.84 5.246c-.831-3.584-1.67-6.995-2.492-10.335-1.898-7.719-3.751-15.27-5.264-24.142l18.581 2.185c-1.158-5.204-2.206-10.713-3.089-16.73l-17.679-2.079c-.269-2.829-.507-5.789-.701-8.941-.409-6.635 8.2-9.606 11.888-4.075l5.616 8.424c-1.178-10.024-1.899-21.489-1.899-35.357v-16.252h-32.508v24.381c0 81.27 19.915 73.143 19.915 170.667 0 81.27-36.169 121.905-36.169 219.429h48.762c0-8.592.183-16.606.528-24.381h-22.464c-5.191 0-9.35-4.468-8.844-9.635.198-2.017.411-4.008.639-5.976l30.935 10.209c.315-5.765.715-11.356 1.186-16.738l-29.821-9.837c1.714-10.39 3.805-20.148 6.085-29.535l29.291-3.888c.946-5.723 1.934-11.295 2.939-16.785l-27.848 3.696c1.186-4.375 2.388-8.703 3.588-13.004 2.347-8.421 4.71-16.929 6.914-25.674l22.437 7.58c.982-5.372 1.933-10.76 2.823-16.202l-21.536-7.275c2.173-10.188 3.99-20.818 5.202-32.109l21.329-2.015c.376-5.282.623-10.77.785-16.393l-20.847 1.969c.21-4.376.337-8.84.337-13.437z" fill="#c6805d"/><path d="m100.954 63.558 155.046 25.839c-54.049-68.053-125.881-48.269-156.195-35.491-4.679 1.973-3.859 8.817 1.149 9.652z" fill="#77cc7d"/><path d="m182.544 8.508 73.456 80.889c2.547-82.994-47.845-90.166-69.98-89.34-4.261.159-6.343 5.294-3.476 8.451z" fill="#98db7c"/><path d="m329.54 8.51-73.54 80.887c-2.548-82.998 47.907-90.167 70.065-89.34 4.262.159 6.344 5.297 3.475 8.453z" fill="#b8eb7c"/><path d="m321.016 121.905-65.016-32.508 64.556 88.381c2.648 3.625 8.399 2.286 9.078-2.152 2.019-13.204 2.973-35.561-8.618-53.721z" fill="#52bd7e"/><path d="m312.889 512h-130.032c-4.492 0-8.127-3.635-8.127-8.127s3.635-8.127 8.127-8.127h130.032c4.492 0 8.127 3.635 8.127 8.127s-3.635 8.127-8.127 8.127z" fill="#ffe077"/><path d="m411.046 63.558-155.046 25.839c54.049-68.052 125.881-48.269 156.195-35.491 4.679 1.973 3.859 8.817-1.149 9.652z" fill="#98db7c"/><path d="m190.984 121.905 65.016-32.508-64.556 88.381c-2.648 3.625-8.399 2.286-9.078-2.152-2.019-13.204-2.973-35.561 8.618-53.721z" fill="#2ca671"/><path d="m256 89.397-147.695 81.232c-4.53 2.492-9.451-2.58-6.795-7.016 18.026-30.113 67.065-92.95 154.49-74.216z" fill="#52bd7e"/><path d="m256 89.397 147.695 81.232c4.53 2.492 9.451-2.58 6.795-7.016-18.026-30.113-67.065-92.95-154.49-74.216z" fill="#77cc7d"/><g fill="#af6e4d"><path d="m228.748 442.352c-.912 5.257-1.709 10.716-2.416 16.328l15.83 5.217c.652-5.622 1.386-11.114 2.255-16.381z"/><path d="m237.442 403.317c-1.456 5.515-2.855 11.17-4.195 16.952l17.261-2.29c1.404-5.781 2.877-11.421 4.383-16.977z"/><path d="m253.594 341.188c-1.122 5.387-2.366 10.675-3.676 15.914l15.451 5.22c1.31-5.195 2.535-10.506 3.688-15.91z"/><path d="m259.239 299.424c-.318 5.678-.854 11.122-1.491 16.459l16.551-1.563c.57-5.315.985-10.8 1.256-16.437z"/><path d="m274.579 245.191-16.753-5.72c.5 5.339.905 11.202 1.213 17.589l16.489 5.629c-.227-6.299-.547-12.114-.949-17.498z"/><path d="m267.289 196.701-15.612 4.591c1.135 4.94 2.232 10.173 3.234 15.986l15.683-4.612c-1.041-5.831-2.165-11.051-3.305-15.965z"/><path d="m240.86 143.66c.498 6.092 1.137 11.57 1.889 16.589l16.82 1.978c-.858-5.016-1.602-10.485-2.187-16.624z"/></g></g></svg>