<svg xmlns="http://www.w3.org/2000/svg" version="1.1" xmlns:xlink="http://www.w3.org/1999/xlink" width="512" height="512" x="0" y="0" viewBox="0 0 300 300" style="enable-background:new 0 0 512 512" xml:space="preserve" class=""><g><path d="M285.8 31.6c3.3-4.5 6.7-9.2 5.9-13.6-.4-2.2-1.9-4.1-4.3-5.6-3.4-2.2-6.6-3.3-9.3-3.3-6.2 0-9.1 5.3-9.8 9.8-.2 1.3-1.8 2.5-3.6 3.8-3.5 2.6-8.4 6.1-5.7 13.8 3.4 9.7 3.2 14.5 3.1 15.1-5.6 15.3-6.9 25.5-7.2 29.1-.6-.1-1.1-.1-1.7-.1-.1 0-.2.1-.3.1-.1-1.9-1.1-4.2-4.2-6.1-2.3-1.4-4.4-1.9-6.2-1.4-.3.1-.4.2-.7.3-.1-.3-.1-.6-.2-.8 0-.2 0-.5-.1-.8v-.4c0-.2-.1-.4-.2-.6-.7-3.6-2.3-12.3-5.7-28.6 1.4-9.2 1.3-26.4-5-33.8-2.7-3.2-6.3-4.3-10.5-3.5-3.7.8-6.2 2.5-7.4 5.2-2.9 6.5 2.8 16.4 5.2 20.6.3.6.6 1 .7 1.3.8 1.6.4 7-.1 9.9-.1.6-1.8 11.5-2.4 21.1-1.1-.7-2.6-1.3-4.7-1.5-2.5-.2-4.5.3-5.9 1.6l-.5.5c-1.2-1.3-3.2-2.3-6.4-2.2-2.6.1-4.5.8-5.7 2.1-1.1-1.2-3.1-2.3-6.5-2.1-.2 0-.3 0-.4.1-.3-.4-.6-.9-1-1.2-15-16-26.4-17.6-43.3-14.9-9 1.4-38.6 8.5-41.3 39.4-1 11.2 1.5 23.8 3.9 31.1.2.6.5 1.8.8 3 .7 2.9 1.1 4.2 1.6 4.7.7 3.1 2 7.8 3.9 10.8.9 1.5 2 2.9 3.1 4.3-.8 2-2.9 7.9-3.4 13.8-.4 4.1-4.6 8.8-9.6 14.2-2.7 2.9-5.4 5.9-8 9.3l-2-3.5c-1.1-1.9-3.2-3.1-5.3-3.1-.4 0-.8 0-1.3.1-1 .2-2 .7-2.7 1.4h-1.8c-.3 0-.7.1-.9.4L8.5 244.2c-.3.3-.4.8-.3 1.2s.4.8.9.9L166 294.9c.1 0 .2.1.4.1.4 0 .7-.2 1-.5l66-81.2c.3-.3.4-.8.2-1.2-.1-.4-.5-.7-.9-.8l-15.6-4.1c.2-.3.3-.5.4-.7 2.4-1.7 23.7-17 22.4-37-.2-3.6-.9-7.2-2-10.7l2.5-2.2c4.8-4.4 10.3-9.3 15.1-12.8 6.4-4.6 15.8-11.8 24.2-19.6 2-1.2 4.8-4.5 2.3-9.8-.3-.5-.5-1-.8-1.5 0-.1.1-.1.1-.1l2.8-7.1c3.2-8.2-3.5-51.2-3.9-53.9v-9.3c0-3.2 2.8-7.1 5.6-10.9zm-24.5 4.2c-2.1-5.9 1.2-8.4 4.8-10.9 2.2-1.6 4.3-3.1 4.7-5.5.1-.8 1.3-7.7 7.3-7.7 2.3 0 4.9 1 8 2.9 1.9 1.2 2.9 2.5 3.2 4 .6 3.3-2.5 7.5-5.5 11.6s-6.1 8.4-6.1 12.4v8.7c-.7.3-2.2.8-4.9.8-2.3 0-5-.4-8.1-1.1-.1-2.1-.5-7-3.4-15.2zm-7.8 47.4c1.1-.2 2.5.4 4 1.7 2.4 2 2.5 4 2.2 5.2-2.2-2.2-4.5-4.4-7.1-6.6.2-.1.5-.2.9-.3zm20.8 26.9c-1.4-2.4-3-5.1-4.8-7.8.1-.1.3-.1.5-.1.5 0 1.6.4 3.2 2.6 1.9 2.6 1.6 4.3 1.1 5.3zm-6.5-10.2c-1.8-2.5-3.9-5.1-6.1-7.6.4-.2.8-.3 1.4-.3 1.2 0 2.4.7 3.6 2.1 2.3 2.6 1.8 4.7 1.1 5.8zm-24.7-24.1c1.1-.3 2.5.1 4.2 1.1 2.9 1.8 3.2 3.7 3 4.8-2.5-1.9-5.2-3.7-8.1-5.4.1-.2.5-.4.9-.5zm-22.4-31.4c2.3.9 4.5 1.4 6.7 1.4 2.6 0 4.6-.7 6-1.3 2.6 12.2 4.1 20 4.9 24.4-.4-.3-.9-.5-1.5-.8-2.3-1-4.4-1.1-6.1-.3-.2.1-.3.2-.5.3-.8-1.7-2.5-3.3-5.7-4-2.4-.5-4.4-.3-5.8.5.2-7.7 1.5-16.6 2-20.2zm-1.2 22.4c.9-.6 2.4-.8 4.4-.3 2.9.6 3.9 2.2 4.3 3.4 0 .1-.1.1-.1.2-2.9-.9-6-1.7-9.2-2.3 0-.3.2-.7.6-1zm11.3 4.3v-.5c.2-.2.5-.4.9-.6 1.1-.5 2.4-.3 4.1.4 2.9 1.2 3.5 3.1 3.6 4.4-2.8-1.4-5.6-2.6-8.6-3.7zm-15.9-59.6c.9-1.9 2.7-3.2 5.6-3.8 3.3-.7 6 .2 8.1 2.6 5.4 6.3 5.9 22 4.5 31.4-.8.5-2.8 1.4-5.7 1.4-2 0-4.2-.5-6.3-1.4.3-2.3.9-8.1-.2-10.5-.1-.3-.4-.8-.8-1.5-2.2-3.4-7.6-12.8-5.2-18.2zm-3.8 52.9c3.2.3 4.4 1.5 4.8 2.5v.4c-2.2-.3-4.4-.6-6.7-.8-1-.1-1.9-.1-2.8-.2.2-.3.4-.7.7-1 .9-.7 2.2-1 4-.9zm-12.5 0c2.9-.1 4.2.9 4.8 1.8-3.3-.1-6.2-.2-9 0 .1-.2.1-.4.3-.5.6-.8 2-1.2 3.9-1.3zm-7.1 2.1c-.8.1-1.6.2-2.5.3-.4-.8-.8-1.5-1.3-2.3 2.4.2 3.4 1.2 3.8 2zm-88.6 19.1c2.5-29.1 30.6-35.8 39.2-37.2 16.1-2.6 26.8-1.1 41.1 14.1 3.3 3.5 6.5 10.5 8.5 18.8v.2c1.4 3.5 6.5 12.5 11.8 16.9-2.2-.4-4.7-1.5-6.8-3.8-.2-.3-.4-.5-.6-.8-.4-.5-1.2-.7-1.8-.2-.6.4-.7 1.2-.3 1.8.2.3.5.6.7.9 1.8 2.2 6.6 7.6 11.3 9.4-1.2.7-2.9 1.4-4.8 1.4-2.8 0-5.5-1.4-8.2-4.1-.5-.5-1.3-.5-1.8 0-.4.4-.5 1-.2 1.5-1 .3-2 .7-2.8 1.3-1.9-2.3-7.8-8.5-20.1-16-.1-.1-.3-.1-.4-.2H167.1c-.2 0-.3.1-.4.2-7.4 5.4-25.7.1-25.9.1-.6-.2-1.1.1-1.4.6s-.2 1.1.2 1.5c2.3 2.4 8.5 4.9 12.6 6.3-8.3 1.2-17.9-5.4-18.1-5.5-.4-.3-1-.3-1.4 0s-.7.8-.6 1.3c.5 3.2 2.4 5.4 4.1 6.7-10.8 2.1-17.9-8.6-18.3-9.1l-.1-.1s0-.1-.1-.1l-.1-.1c-.1-.1-.1-.1-.2-.1s-.2-.1-.2-.1h-.7c-.1 0-.2.1-.2.1h-.1s0 .1-.1.1c0 0-.1 0-.1.1-7.5 7.1-9.3 16.7-9.7 23.8-2-7.4-4.3-19.2-3.4-29.7zm6.1 37.1v-1.9c0-5.9-.1-18.1 8-26.6 2.2 2.8 8.3 9.2 16.7 9.2 2 0 4.1-.4 6.3-1.2.5-.2.8-.6.8-1.2 0-.5-.3-1-.8-1.2 0 0-2.3-1-3.9-3.2 4.7 2.5 13.7 6.2 20.8 2.6.5-.2.7-.7.7-1.2s-.4-1-.9-1.1c-1.8-.5-5.1-1.7-8.3-3 6.1.9 14.1 1.3 19.1-1.8 14.3 8.9 19.4 15.8 19.5 15.9l.1.1s0 .1.1.1c.2.3.6.4.9.4s.6-.1.9-.3c1-.9 2.1-1.5 3.4-1.7.3 0 .5-.2.7-.4 1.7 1.4 3.5 2.4 5.3 2.8 1.3 1.1 2.4 3.6 2.4 4.6.1 6.4-4.3 10-8.7 10.7-.1 0-.1 0-.1.1-.1 0-.2.1-.3.1s-.1.1-.2.1l-.2.2c-.1.1-.1.2-.1.2 0 .1-.1.1-.1.2-3.5 11.2-13 19.5-27.5 24.1-20.8 6.5-40.7.4-50.7-15.6-2.1-3.2-3.4-8.6-3.9-11zm-14.6 55.9c2.6-3.5 5.5-6.6 8.2-9.7 5.2-5.7 9.8-10.7 10.2-15.7.4-4.6 1.9-9.3 2.8-11.9 1.7 1.8 3.5 3.4 5.5 4.8.1 2.6.9 5 2.5 7 2.3 2.8 6.5 7.3 12.7 11.8l-1.9 3.3c-1.8 3.2-16.8 17.4-23.8 23.9-1.7-3-6.4-9.5-14.6-10l-2-3.4c.2.1.3 0 .4-.1zm113.2-.9c-2.9 2.8-12.3 12.2-13.6 16.9v.4s0 2.4-4.2 4.8l-65.2-17.1c5.6-5.4 11-11 12.2-13.1l1.8-3.1c8.3 5.6 19.9 10.8 34.9 12.2 3.1.3 6.2.4 9.4.4 8.4 0 16.9-1 24.1-2.9.2.6.4 1.1.6 1.5zm6.4 29.5c-3.1 4.3-10.7 13.1-22.1 11.8-5.5-.7-8.7-2.8-9.2-6.1-.5-3.6 2.3-8.2 6.1-9.8 5.7-2.5 7.2-5.5 7.5-7.1 1.3-.3 2.6-.4 3.8-.4 9.4 0 13.9 7.8 14.9 10-.1.4-.5.9-1 1.6zm-112.1 6c2.2-.6 4.2-1.7 5.8-3l1.3 3s.7 1.3.3 2.4c-.2.6-.7 1-1.4 1.3-2.7 1.2-4.2-.5-4.3-.5zm6.6-8.1c-.4.7-.8 1.4-1.4 2 0 0 0 .1-.1.1-1.8 2-4.3 3.4-7.3 3.9H99.4c-3.1.5-9.3.2-15.5-6.4-5.1-5.4-1.9-11.8 1.3-15.8l4.9 9.5c.1.3.4.5.6.6.1 0 2 .8 4.3.8 3.5 0 6.2-1.8 7.5-5.2.1-.4.1-.8-.1-1.1l-5-8.7c7.8 1.5 11.5 9.7 11.5 9.8s.1.2.2.3c.3.3 2.8 3.5-.6 10.2zm-23.7-32.6c1.5-.3 3 .4 3.8 1.8l11.5 20c-1 2-2.6 3-4.9 3-1.2 0-2.3-.3-2.9-.5l-9.9-19.1c-.5-1-.6-2.3-.1-3.3.1-.3.3-.5.5-.8 0 0 .1 0 .1-.1.4-.4 1.1-.8 1.9-1zm145.3 40.8-64.2 79-154.1-47.8 67.8-69.9c-.3 1.4-.2 3 .5 4.3l4 7.7c-6.2 7.3-6.9 14.5-1.9 19.9 4.5 4.7 9.9 7.3 15.3 7.3.6 0 1.2-.1 1.7-.1l.4.7c-4.6 1-10.7 5.3-11.6 9.1-.3 1.3-.3 3.7 3 5.2 1.5.7 6.4 1.7 12.3 2.4-.6.7-1.1 1.4-1.4 2.2-1 2.6.2 5.3 3.5 7.9 8.2 6.4 21 9.8 38.1 9.9 1.2 3.1 4.1 6.1 7.9 8 .2.1.4.1.6.1.5 0 .9-.3 1.1-.7.3-.6 0-1.4-.6-1.7-2.9-1.4-5.2-3.5-6.3-5.8 7.1-.2 16.8-1.8 17.5-8.7.3-3-1.1-4.4-2.2-5.1-4-2.2-12.4 1.7-14.9 3.7-3.2 2.6-3.8 5.5-3.7 7.6-16.2-.2-28.3-3.3-35.9-9.3-2.4-1.9-3.3-3.6-2.7-5 .4-1 1.3-1.9 2.5-2.7 9.4.8 20.3.6 24.5-2.7 1.7-1.3 2.3-2.9 2-4.9-.1-.6-.6-1-1.2-1-3.9-.2-18.2 1.5-25.8 5.9-6.8-.6-12.8-1.7-14.2-2.4-2-1-1.8-2-1.7-2.4.7-3 6.8-6.8 10.4-7.3l.6 1c.7.9 2.3 2.1 4.5 2.1.9 0 1.8-.2 2.9-.7 1.8-.8 2.5-2 2.8-2.8.7-2.1-.4-4.2-.5-4.3l-1.7-3.9c.5-.6.9-1.3 1.3-2 3-6 2-9.9 1.1-11.7 1.8-1.7 6-5.5 10.4-9.8l64 16.8c-3.7 2.4-6.8 7.1-6.2 11.7.4 2.6 2.4 7.2 11.4 8.2.9.1 1.8.2 2.7.2 10.7 0 17.9-7.7 21.2-12.2zm-84.5 35.3c-.2-2.1.7-4 2.7-5.6 1.8-1.5 7-3.8 10.3-3.8.7 0 1.4.1 1.9.4.3.2 1.1.6.9 2.6-.6 5.4-10.9 6.3-15.8 6.4zm-34-19.3c6.2-2.3 14.6-3.7 19.3-3.8-.1.5-.5 1-1 1.4-3.1 2.3-10.7 2.7-18.3 2.4zM217 203.7c-1.7-3.2-6.9-10.7-16.8-10.7-.9 0-1.8.1-2.7.2 2.7-4.5 9.8-11.6 12.7-14.4.4-.4.5-1 .2-1.5-.2-.3-18.7-33.6-10.6-44.2 2.2-2.8 4.8-4.7 7.7-5.5 5.3-1.5 11.1.7 14.5 5.6 4 5.6 10.1 15.3 13.3 25.7 1.1 3.6 1.9 7.2 2.1 10.8 1 16.7-15.8 30.6-20.4 34zm37-61.9c-5 3.6-10.5 8.6-15.3 13l-1.6 1.4c-3.4-10-9.2-19.1-13-24.6-4-5.7-11-8.3-17.3-6.5-3.5 1-6.5 3.1-9.1 6.4-7.3 9.4 3 32.5 7.9 42.4-9.6 2.4-21.4 3.3-32.1 2.3-27.3-2.6-42.6-18-48-24.5-.8-1-1.4-2.2-1.7-3.5 6.8 4.1 14.8 6.3 23.4 6.3 5.5 0 11.2-.9 17-2.7 14.8-4.6 25.1-13.5 29-25.1 5-1.1 10.1-5.5 10-13 0-1.1-.6-2.7-1.4-4.2 4.8-.2 8.1-3.5 8.2-3.7.3-.4.4-.9.2-1.4s-.7-.8-1.2-.8c-1.8 0-3.9-1.2-6-2.8 3.6.7 6.5 0 6.7-.1.7-.2 1.1-.8.9-1.5-.1-.7-.8-1.1-1.5-1-4.2.7-12.9-11.6-15.3-17.7-.6-2.5-1.9-7-3.9-11.4 4.7-.6 8.5-.6 14.1-.3.1.1.3.1.5.1.1 0 .2 0 .3-.1 1.3.1 2.6.1 4.1.2 2.6.2 5.1.5 7.5.9.2.1.4.2.6.2h.2c42.3 7.4 58 46.8 60.1 52.8-8 7.5-17.1 14.4-23.3 18.9zm25.5-20.7c-.7-1.8-1.9-4.8-3.9-8.6l.1-.1c.4 0 .8 0 1.2.1 1.1.4 2 1.4 2.8 3 1.3 2.9.6 4.7-.2 5.6zm2.2-16.2-2.4 6.1c-.5-.4-1.1-.7-1.7-.9-.2-.1-.4-.1-.6-.1.4-1.6.3-3.9-1.8-6.7-1.5-2.1-3.1-3.2-4.6-3.5.6-2 .4-4.6-2.1-7.4-1.7-1.9-3.5-2.9-5.4-2.9-.3 0-.6 0-.9.1.2-2-.5-4.3-3.2-6.6-.6-.5-1.2-.9-1.8-1.3.2-2.3 1.2-12.5 6.8-28.2 3.2.8 6.1 1.2 8.6 1.2 2.4 0 4.1-.4 5.2-.8 2.2 13.6 6.3 44.9 3.9 51z" fill="#ffffff" opacity="1" data-original="#000000" class=""></path><path d="M72.2 225.2c1.2-2.4 2-4.8 2.6-6.5.1-.4.1-.8-.2-1.2-.2-.3-.6-.6-1.1-.5-2.2.1-4.4 1-6.5 2.1-1.3-1.6-2.8-3.5-4.1-5.4-.3-.4-.7-.6-1.2-.5s-.9.4-1 .9c-1 3.2-1.4 6.5-1.7 9.3l-1.1.5c-3.4 1.5-6.9 3-9.8 4.9-.4.3-.6.7-.5 1.2s.4.9.9 1c3 1 6.3 1.6 9.4 2.1-.1.5-.3 1.1-.4 1.6-.5 1.8-.9 3.7-.7 5.8.1.6.5 1.1 1.1 1.1h.1c.5 0 1-.3 1.2-.9.9-2.7 3.2-4.8 5.4-6.8 1.6.2 3.5.5 5.3.9 1 .2 2 .6 3.1 1 1.9.7 3.8 1.4 5.7 1.3.4 0 .8-.3 1-.7s.2-.8 0-1.2c-2.2-3.5-4.9-7-7.5-10zm-13.9 5.5c-2.1-.3-4.2-.7-6.3-1.2 2.1-1.2 4.5-2.2 6.8-3.2-.2 1.4-.3 2.9-.5 4.4zm13.4-10.8c-.4 1-.8 2.1-1.3 3.2l-.3-.4c-.4-.5-.9-1-1.3-1.6 1-.5 2-.9 2.9-1.2zm-9.2-2.5c.8 1.1 1.6 2.1 2.4 3-.2.1-.3.2-.5.3-1 .6-1.9 1.1-2.7 1.5.2-1.6.4-3.2.8-4.8zM60 235l.3-1.5 1 .1c-.4.5-.8 1-1.3 1.4zm3.8-3.5-3.1-.4c.2-1.6.4-3.3.5-4.8l.1-1.1.6-.3c1.2-.5 2.4-1.2 3.7-2 .3-.2.6-.3.8-.5.6.7 1.1 1.3 1.7 2l1 1.2c-.5.9-1.1 1.8-1.7 2.5-.9 1.1-2.2 2.2-3.6 3.4zm10.1 2.1c-1.1-.4-2.3-.9-3.4-1.1l-3.3-.6c.8-.8 1.6-1.6 2.3-2.4.5-.6 1-1.3 1.5-2 1.8 2.1 3.6 4.4 5.2 6.9-.8-.2-1.6-.5-2.3-.8z" fill="#ffffff" opacity="1" data-original="#000000" class=""></path></g></svg>