<svg id="Layer_1" height="512" viewBox="0 0 64 64" width="512" xmlns="http://www.w3.org/2000/svg" data-name="Layer 1"><path d="m33 63h-2c0-18.234-7.455-22.1-7.53-22.152l1.06-1.7c.346.22 8.47 4.52 8.47 23.852z" fill="#cad17c"/><path d="m33 63h-2c0-35.245 9.2-38.74 9.594-38.914l.812 1.828-.406-.914.427.9c-.085.046-8.427 3.61-8.427 37.1z" fill="#cad17c"/><g fill="#fdafab"><path d="m42 21c4-3 4-16 4-16a4 4 0 0 0 -8 0s0 13 4 16z"/><path d="m41.293 21.293c.707-4.95-8.485-14.142-8.485-14.142a4 4 0 0 0 -5.657 5.657s9.192 9.192 14.142 8.485z"/><path d="m41 22c-3-4-16-4-16-4a4 4 0 0 0 0 8s13 0 16-4z"/><path d="m41.293 22.707c-4.95-.707-14.142 8.485-14.142 8.485a4 4 0 0 0 5.657 5.657s9.192-9.192 8.485-14.142z"/><path d="m42 23c-4 3-4 16-4 16a4 4 0 0 0 8 0s0-13-4-16z"/><path d="m42.707 22.707c-.707 4.95 8.485 14.142 8.485 14.142a4 4 0 0 0 5.657-5.657s-9.192-9.192-14.142-8.485z"/><path d="m43 22c3 4 16 4 16 4a4 4 0 0 0 0-8s-13 0-16 4z"/><path d="m42.707 21.293c4.95.707 14.142-8.485 14.142-8.485a4 4 0 1 0 -5.657-5.657s-9.192 9.192-8.485 14.142z"/></g><path d="m39 6s0 10.78 3.03 14.97l-.03.03c-4-3-4-16-4-16a4 4 0 0 1 7.28-2.28 3.993 3.993 0 0 0 -6.28 3.28z" fill="#fdbfbc"/><path d="m33.51 7.88a4 4 0 0 0 -5.63 5.63c-.46-.43-.73-.7-.73-.7a4 4 0 0 1 5.66-5.66s.27.27.7.73z" fill="#fdbfbc"/><path d="m41 22-.03.03c-4.19-3.03-14.97-3.03-14.97-3.03a3.993 3.993 0 0 0 -3.28 6.28 4 4 0 0 1 2.28-7.28s13 0 16 4z" fill="#fdbfbc"/><path d="m41.31 23.69c-5.09.43-13.16 8.5-13.16 8.5a4 4 0 0 0 -.45 5.11 3.379 3.379 0 0 1 -.55-.45 4.008 4.008 0 0 1 0-5.66s9.19-9.19 14.14-8.48a4.548 4.548 0 0 1 .02.98z" fill="#fdbfbc"/><path d="m57.3 7.7a4 4 0 0 0 -5.11.45s-8.07 8.07-8.5 13.16a4.548 4.548 0 0 1 -.98-.02c-.71-4.95 8.48-14.14 8.48-14.14a4.008 4.008 0 0 1 5.66 0 3.379 3.379 0 0 1 .45.55z" fill="#fdbfbc"/><circle cx="42" cy="22" fill="#fad4af" r="4"/><path d="m45.28 19.72a3.993 3.993 0 0 0 -5.56 5.56 4 4 0 1 1 5.56-5.56z" fill="#fbddbf"/><path d="m16 32c2 2 11 3 11 3 2.209 0 4-.791 4-3s-1.791-3-4-3c0 0-9 1-11 3z" fill="#fbf1d6"/><path d="m16 32c2.828 0 9.9-5.657 9.9-5.657 1.563-1.562 2.27-3.388.708-4.95s-3.388-.855-4.95.708c-.001-.001-5.658 7.071-5.658 9.899z" fill="#fbf1d6"/><path d="m16 32c2-2 3-11 3-11 0-2.209-.791-4-3-4s-3 1.791-3 4c0 0 1 9 3 11z" fill="#fbf1d6"/><path d="m16 32c0-2.828-5.657-9.9-5.657-9.9-1.562-1.563-3.388-2.27-4.95-.708s-.855 3.388.708 4.95c-.001.001 7.071 5.658 9.899 5.658z" fill="#fbf1d6"/><path d="m16 32c-2-2-11-3-11-3-2.209 0-4 .791-4 3s1.791 3 4 3c0 0 9-1 11-3z" fill="#fbf1d6"/><path d="m16 32c-2.828 0-9.9 5.657-9.9 5.657-1.563 1.562-2.27 3.388-.708 4.95s3.388.855 4.95-.708c.001.001 5.658-7.071 5.658-9.899z" fill="#fbf1d6"/><path d="m16 32c-2 2-3 11-3 11 0 2.209.791 4 3 4s3-1.791 3-4c0 0-1-9-3-11z" fill="#fbf1d6"/><path d="m16 32c0 2.828 5.657 9.9 5.657 9.9 1.562 1.563 3.388 2.27 4.95.708s.855-3.388-.708-4.95c.001-.001-7.071-5.658-9.899-5.658z" fill="#fbf1d6"/><path d="m27.06 21.94c-1.43-.94-3.02-.22-4.4 1.16 0 0-4.33 5.41-5.42 8.66a4.146 4.146 0 0 1 -1.24.24c0-2.83 5.66-9.9 5.66-9.9 1.56-1.56 3.38-2.27 4.95-.71a3.2 3.2 0 0 1 .45.55z" fill="#fcf4de"/><path d="m14 22s.73 6.6 2.21 9.75a2.761 2.761 0 0 1 -.21.25c-2-2-3-11-3-11 0-2.21.79-4 3-4a2.577 2.577 0 0 1 2.42 1.33 2.95 2.95 0 0 0 -1.42-.33c-2.21 0-3 1.79-3 4z" fill="#fcf4de"/><path d="m6.39 22.39c-1.32 1.33-1.01 2.84.06 4.22-.23-.17-.35-.27-.35-.27-1.56-1.56-2.27-3.38-.71-4.95s3.39-.85 4.95.71c0 0 .1.12.27.35-1.38-1.07-2.89-1.38-4.22-.06z" fill="#fcf4de"/><path d="m16 32a2.761 2.761 0 0 1 -.25.21c-3.15-1.48-9.75-2.21-9.75-2.21-2.21 0-4 .79-4 3a2.95 2.95 0 0 0 .33 1.42 2.577 2.577 0 0 1 -1.33-2.42c0-2.21 1.79-3 4-3 0 0 9 1 11 3z" fill="#fcf4de"/><path d="m16 32a4.146 4.146 0 0 1 -.24 1.24c-3.25 1.09-8.66 5.42-8.66 5.42-1.38 1.38-2.1 2.97-1.16 4.4a3.2 3.2 0 0 1 -.55-.45c-1.56-1.57-.85-3.39.71-4.95 0 0 7.07-5.66 9.9-5.66z" fill="#fcf4de"/><path d="m49 47a15.38 15.38 0 0 1 -15 15 15.38 15.38 0 0 1 15-15z" fill="#cad17c"/><path d="m18 50a10.779 10.779 0 0 0 3 8 10.779 10.779 0 0 0 8 3 10.779 10.779 0 0 0 -3-8 10.774 10.774 0 0 0 -8-3z" fill="#cad17c"/><path d="m48.88 48.6a15.391 15.391 0 0 0 -14.19 13.37 5.881 5.881 0 0 1 -.69.03 15.38 15.38 0 0 1 15-15 10.261 10.261 0 0 1 -.12 1.6z" fill="#d5da96"/><path d="m28.61 57.55a9.74 9.74 0 0 0 -2.04-2.98 10.805 10.805 0 0 0 -8-3 10.821 10.821 0 0 0 .39 3.47 10.959 10.959 0 0 1 -.96-5.04 10.767 10.767 0 0 1 8 3 10.153 10.153 0 0 1 2.61 4.55z" fill="#d5da96"/><circle cx="16" cy="32" fill="#fad4af" r="3"/><path d="m18.56 30.44a2.955 2.955 0 0 0 -1.56-.44 3 3 0 0 0 -3 3 2.955 2.955 0 0 0 .44 1.56 2.965 2.965 0 0 1 -1.44-2.56 3 3 0 0 1 3-3 2.965 2.965 0 0 1 2.56 1.44z" fill="#fbddbf"/></svg>