<svg id="Layer_1" enable-background="new 0 0 53 53" height="512" viewBox="0 0 53 53" width="512" xmlns="http://www.w3.org/2000/svg"><g id="_x31_14"><path d="m24.9481258 33.8967552c-2.5012188-5.9761162-5.997385-11.3961563-9.9705524-14.9205666l-2.3391676 2.3423805c4.5336466 4.0767002 8.5487757 11.1756859 10.8219175 18.5571175z" fill="#89d4a7"/><path d="m36.0460243 16.7185478c-8.2392483 6.8601856-15.0146217 20.4370651-16.8749466 32.6285973-.0928249.6082306.3894844 1.1528549 1.0047436 1.1528549h.8845501c1.5551605-12.0078506 8.3087769-25.6865559 16.296978-32.3835297z" fill="#89d4a7"/><g><g><g><g><path d="m24.948164 33.8966026c-2.5012188-5.9761162-5.9974232-11.3960037-9.9705906-14.920414l-1.1695461 1.1711998c4.2442131 3.790432 7.9833717 9.9770107 10.4199352 16.6434326z" fill="#67c0a5"/></g></g></g><g><path d="m7.9337282 6.6444631c-.6577439-.1546392-1.336339.2581825-1.5012393.9131584-1.5110636 6.0028958 3.2837167 13.3304482 9.5043221 13.9513874 2.3256917-5.8134952-1.9691186-13.4462638-8.0030828-14.8645458z" fill="#ff66d4"/><g><path d="m7.9337077 6.6444302c-.491126-.1153331-.9934897.0858478-1.2853427.4677205.1600852-.0279083.3272505-.0254436.4932075.0135303 5.8359389 1.3718214 10.0260715 8.552104 8.1920357 14.2819176.200985.0345707.3990097.0810318.6031818.1013756 2.3256936-5.8134939-1.9691177-13.4462625-8.0030823-14.864544z" fill="#f44acc"/></g><g><path d="m14.6561794 6.3895755c-.8829594-.4333572-1.9013271.2453308-1.8453283 1.2273293.1644335 2.8806462.7019062 8.3869591 2.4580011 12.782505l2.0765724 3.4176388c1.8516083-.8289928 7.4450645-5.2817688 3.7262859-11.41152-2.0670337-3.406921-4.6731395-5.1606303-6.4155311-6.0159531z" fill="#f4b2dd"/><g><path d="m14.6561584 6.3895421c-.5864859-.2878275-1.2258034-.0793967-1.5772877.377048.2536201-.0454731.5240307-.0239091.7851524.1042032 1.7423916.8553228 4.3484993 2.6090317 6.4155331 6.015954 3.1850319 5.2499504-.4594574 9.2673702-2.7349586 10.8340187 2.0179653-1.0340862 7.121109-5.3911552 3.5270939-11.3152704-2.0670338-3.4069213-4.6731415-5.1606307-6.4155331-6.0159535z" fill="#ee97d4"/></g><path d="m5.055923 12.3283062c-.8457227-.5022125-1.9173381.0888405-1.939543 1.0721178-.0436816 1.9404278.3120446 5.0613241 2.3835671 8.4655199 3.7270846 6.1247025 10.256525 3.2123775 11.8454781 1.9511051l-2.0765724-3.4176388c-3.0922666-3.5837726-7.7317868-6.5979433-10.2129298-8.071104z" fill="#f4b2dd"/></g></g></g><g><g><g><g><path d="m36.0460243 16.7185478c-8.2391872 6.8604317-15.0144978 20.4373131-16.8748837 32.6285973-.0927638.6082306.3894826 1.1528549 1.0048047 1.1528549h2.0351868c.499136 0 .9141998-.3619308.9890881-.8555183 1.7180672-11.3157959 8.1525879-23.9543152 15.4685154-30.130085z" fill="#67c0a5"/></g></g></g><g><path d="m46.4599075 4.5393214c-.145134-.7689748-.9006577-1.2931604-1.6713028-1.159698-7.0628929 1.223464-12.5672646 9.7449055-10.3039513 16.6217155 7.2448922-.2720718 13.3070374-8.4078073 11.9752541-15.4620175z" fill="#ff66d4"/><g><path d="m46.4599342 4.5392842c-.1085129-.5741172-.5572968-1.0112832-1.0984917-1.1406388.1046944.156333.1805687.3344443.2172356.528446 1.2879829 6.8227415-4.3443947 14.6348782-11.2698898 15.3880405.0577698.2290096.1015663.4604759.1758919.6861706 7.2448883-.2720716 13.3070335-8.4078081 11.975254-15.4620183z" fill="#f44acc"/></g><g><path d="m49.8858109 11.5354815c.0441246-1.1384497-1.1523132-1.8972712-2.1653709-1.3761864-2.9716759 1.5287476-8.5472145 4.6871548-12.3749886 8.6131659l-2.6422958 3.8053684c1.7467194 1.5701599 9.0856094 5.3970757 13.827404-1.4220734 2.6354293-3.7902317 3.2680129-7.3736382 3.3552513-9.6202745z" fill="#f4b2dd"/><g><path d="m49.8858337 11.5354443c.0292892-.7561808-.4914703-1.3349085-1.1395874-1.4923172.167202.2470837.2713318.5434666.2583313.8801241-.0872345 2.2466364-.7198181 5.8300428-3.3552475 9.6202745-4.061203 5.8404102-10.0242958 3.87183-12.7507591 2.1998577 2.041893 1.6498089 9.0492897 5.0027142 13.6320152-1.5876656 2.6354294-3.7902317 3.268013-7.3736371 3.3552475-9.6202735z" fill="#ee97d4"/></g><path d="m39.093029 4.1659851c.1344833-1.1314132-.9942017-1.987812-2.0453262-1.5489092-2.0742569.8662903-5.2104034 2.7105145-7.8408394 6.5042152-4.7325535 6.8255711 1.4153633 12.3676996 3.4962921 13.4565382l2.6422958-3.8053684c2.3412705-4.9586563 3.3532601-11.2872848 3.7475777-14.6064758z" fill="#f4b2dd"/></g></g></g></g></svg>