<svg id="Capa_1" enable-background="new 0 0 512 512" height="512" viewBox="0 0 512 512" width="512" xmlns="http://www.w3.org/2000/svg"><g><g><path d="m344.469 426.423c18.867-5.296 55.31-26.101 83.604-98.049 12.408-31.551 23.241-65.5 29.911-90.428 2.414-13.38 2.705-20.218 2.705-20.218s-104.194 82.656-116.239 208.708c.006-.004.012-.009.019-.013z" fill="#b7e546"/><path d="m280.147 277.332c3.217 23.17 6.957 45.618 12.725 61.465 27.36 75.167 51.839 87.452 51.839 87.452 2.092-46.026.529-165.197-63.066-245.565 0 0-5.058 46.425-1.516 96.66.006-.004.012-.008.018-.012z" fill="#b7e546"/><path d="m428.073 319.374c-22.673 57.653-57.717 88.695-74.733 101.117.773-8.288 1.615-16.978 2.527-25.977 5.817-57.368 15.77-139.281 30.15-203.727.918-4.111-1.671-8.188-5.783-9.105-4.11-.913-8.188 1.672-9.104 5.783-14.547 65.195-24.585 147.78-30.445 205.578-.88 8.683-1.695 17.081-2.446 25.11-10.094-13.474-29.997-43.505-45.367-88.356-5.467-15.953-9.599-34.121-12.725-52.465 1.713 24.306 5.438 49.504 12.725 70.769 15.081 44.007 33.855 74.117 43.721 88.179-3.532 40.089-5.21 67.271-5.231 67.629-.257 4.204 2.943 7.82 7.147 8.078.158.009.316.014.473.014 3.999 0 7.358-3.116 7.605-7.161.022-.349 1.622-26.263 4.986-64.774 16.246-11.495 53.014-42.664 76.5-102.388 18.367-46.704 26.429-80.292 29.948-99.841-7.518 22.047-17.52 49.935-29.948 81.537z" fill="#abd641"/><path d="m53.997 237.837c6.377 24.21 17.52 58.935 29.948 90.537 28.294 71.948 63.901 93.821 83.604 98.049-12.052-126.045-116.238-208.696-116.238-208.696s.29 6.802 2.686 20.11z" fill="#b7e546"/><path d="m167.289 426.267c.01-.011 22.007-6.075 51.856-87.471 5.806-15.833 10.021-40.462 12.725-61.465 3.541-50.231-1.516-96.649-1.516-96.649-63.603 80.381-65.159 199.573-63.065 245.585 0 .001 0 .001 0 0z" fill="#b7e546"/><path d="m231.871 277.332c-3.127 18.344-7.258 36.512-12.725 52.465-15.378 44.873-35.294 74.913-45.383 88.377-.751-8.035-1.567-16.44-2.448-25.131-5.859-57.798-15.898-140.383-30.445-205.578-.917-4.11-4.99-6.696-9.104-5.783-4.111.918-6.7 4.994-5.783 9.105 14.38 64.446 24.333 146.359 30.15 203.727.912 8.994 1.753 17.679 2.526 25.963-17.023-12.432-52.049-43.472-74.714-101.103-12.428-31.602-22.43-59.49-29.948-81.537 3.519 19.548 11.582 53.137 29.948 99.841 23.478 59.701 60.226 90.868 76.481 102.374 3.366 38.518 4.966 64.438 4.988 64.787.247 4.046 3.606 7.161 7.605 7.161.157 0 .314-.005.473-.014 4.204-.257 7.404-3.874 7.147-8.078-.022-.359-1.699-27.53-5.229-67.607 9.862-14.052 28.648-44.17 43.737-88.201 7.286-21.264 11.011-46.462 12.724-70.768z" fill="#abd641"/><path d="m140.715 177.143c34.518 4.356 47.175-34.011 47.175-61.686-.511-5.41-1.448-10.741-2.809-15.866-10.198-38.42-53.711-102.921-89.316-99.457z" fill="#f4c762"/><path d="m140.715 177.143-11.709 10.001 5.432 10.038c42.029-9.596 56.7-47.309 53.452-81.725-2.592 26.724-16.882 52.094-47.175 61.686z" fill="#ddb25b"/><path d="m47.504 126.136c5.081 26.328 24.874 73.278 78.48 64.651l14.732-13.645c20.052-86.394-44.951-177.008-44.951-177.008-36.88 3.588-48.595 58.218-50.044 100.606 0 9.664.711 19.843 1.783 25.396z" fill="#ffe07d"/><path d="m371.285 177.143 44.95-177.009c-35.605-3.464-79.117 61.037-89.316 99.458-1.36 5.125-2.298 10.456-2.809 15.866 0 29.702 11.69 66.041 47.175 61.685z" fill="#f4c762"/><path d="m324.11 115.457c-3.248 34.416 11.423 72.129 53.452 81.725l5.449-9.984-11.726-10.056c-30.293-9.591-44.583-34.961-47.175-61.685z" fill="#ddb25b"/><path d="m134.438 178.879c-54.048 12.34-81.429-29.313-86.51-55.641-1.072-5.553-1.88-13.369-2.207-22.498-.577 16.868.47 31.8 2.207 40.802 5.081 26.328 32.462 67.982 86.51 55.641 2.66-6.624 4.717-13.32 6.277-20.039-2.028.641-4.103 1.238-6.277 1.735z" fill="#ffd064"/><path d="m393.084 192.972c43.654-1.889 66.107-37.693 71.188-64.021 1.072-5.553 2.007-17.262 2.007-28.212-1.449-42.387-13.164-97.017-50.044-100.605 0 0-65.003 90.614-44.95 177.009z" fill="#ffe07d"/><path d="m464.072 123.238c-5.081 26.328-32.462 67.982-86.51 55.641-2.174-.496-4.248-1.093-6.277-1.736 1.56 6.72 3.617 13.415 6.277 20.039 54.048 12.341 81.429-29.313 86.51-55.641 1.737-9.001 2.784-23.933 2.208-40.802-.329 9.13-1.137 16.945-2.208 22.499z" fill="#ffd064"/></g></g></svg>