<svg id="Capa_1" enable-background="new 0 0 512 512" height="512" viewBox="0 0 512 512" width="512" xmlns="http://www.w3.org/2000/svg"><g><path d="m186.399 32.88c-10.248 0-20.268 1.827-29.781 5.431-7.748 2.934-11.649 11.592-8.715 19.339s11.592 11.65 19.339 8.715c6.107-2.312 12.552-3.485 19.157-3.485 29.827 0 54.094 24.267 54.094 54.094v230.885c-14.634-12.328-33.507-19.776-54.094-19.776-9.782 0-19.372 1.668-28.504 4.958-7.794 2.808-11.836 11.402-9.028 19.196 2.808 7.793 11.399 11.836 19.196 9.028 5.861-2.112 12.031-3.183 18.336-3.183 29.827 0 54.094 24.267 54.094 54.094v97.023h15l10.507-277.585-10.508-162.494c-15.199-21.878-40.495-36.24-69.093-36.24z" fill="#bee75e"/><path d="m354.9 163.277c-9.67-3.738-19.87-5.634-30.315-5.634-20.587 0-39.459 7.448-54.093 19.775v-60.446c0-17.77-5.556-34.259-15-47.853v440.079h15v-267.462c0-29.827 24.266-54.093 54.093-54.093 6.732 0 13.293 1.217 19.497 3.616 7.727 2.987 16.412-.855 19.4-8.582 2.987-7.726-.855-16.411-8.582-19.4z" fill="#5bc980"/><g><path d="m143.083 508.129c-4.8 0-8.723-1.057-11.556-2.193-7.744-3.107-20.987-12.295-22.657-38.91-.992-15.81 2.486-34.546 9.794-52.757.136-.339.284-.672.443-.999l33.139-67.818c1.819-3.724 5.098-6.528 9.058-7.749 3.961-1.223 8.249-.749 11.848 1.304 17.72 10.103 30.313 27.913 35.455 50.149 4.515 19.519 2.905 41.181-4.419 59.432-7.307 18.211-17.746 34.155-29.392 44.894-12.434 11.465-23.389 14.647-31.713 14.647z" fill="#8cbcff"/></g><g><path d="m47.516 400.426c-1.837 0-3.642-.055-5.411-.166-26.615-1.67-35.803-14.913-38.911-22.657-3.107-7.746-5.622-23.665 12.456-43.269 10.739-11.646 26.682-22.084 44.893-29.392 18.25-7.325 39.913-8.936 59.433-4.42 22.236 5.143 40.046 17.735 50.149 35.456 2.053 3.6 2.524 7.888 1.304 11.848-1.221 3.96-4.025 7.239-7.749 9.058l-67.818 33.138c-.327.16-.66.308-.999.443-16.174 6.491-32.762 9.961-47.347 9.961z" fill="#d8f1fb"/></g><g><path d="m46.515 105.222c-1.837 0-3.642-.055-5.411-.166-26.615-1.67-35.803-14.913-38.911-22.657-3.107-7.746-5.622-23.665 12.456-43.269 10.739-11.646 26.682-22.085 44.893-29.392 18.251-7.324 39.913-8.935 59.433-4.42 22.236 5.143 40.046 17.735 50.149 35.456 2.053 3.6 2.524 7.888 1.304 11.848-1.221 3.96-4.025 7.239-7.749 9.058l-67.819 33.139c-.327.16-.66.308-.999.443-16.173 6.49-32.761 9.96-47.346 9.96z" fill="#d8f1fb"/></g><g><path d="m74.397 466.677c-11.947 0-19.243-4.947-23.131-8.835-5.924-5.925-14.309-19.768-3.894-45.916 6.099-15.313 17.566-31.854 32.286-46.575 30.035-30.034 71.449-49.432 92.49-28.391 21.041 21.04 1.644 62.455-28.391 92.49-14.721 14.72-31.262 26.187-46.575 32.286-8.989 3.582-16.526 4.941-22.785 4.941z" fill="#9ee2f8"/></g><g><path d="m142.083 212.925c-4.8 0-8.723-1.057-11.556-2.193-7.744-3.107-20.986-12.295-22.657-38.91-.992-15.81 2.486-34.547 9.795-52.758.136-.338.284-.671.443-.998l33.138-67.818c1.819-3.724 5.098-6.528 9.058-7.749 3.961-1.223 8.249-.748 11.848 1.304 17.721 10.103 30.313 27.913 35.456 50.149 4.515 19.519 2.904 41.181-4.42 59.432-7.307 18.211-17.746 34.155-29.392 44.894-12.435 11.465-23.39 14.647-31.713 14.647z" fill="#8cbcff"/></g><g><path d="m369.918 339.318c-8.325 0-19.277-3.181-31.714-14.649-11.646-10.738-22.084-26.682-29.392-44.893-7.324-18.25-8.934-39.913-4.42-59.433 5.143-22.236 17.735-40.046 35.456-50.149 3.6-2.053 7.888-2.526 11.848-1.304 3.96 1.221 7.239 4.025 9.058 7.749l33.138 67.818c.159.327.308.66.443.998 7.308 18.211 10.787 36.948 9.795 52.758-1.671 26.614-14.913 35.803-22.657 38.911-2.831 1.137-6.758 2.194-11.555 2.194z" fill="#6aa9ff"/></g><g><path d="m465.485 231.614c-14.585 0-31.171-3.469-47.346-9.96-.339-.136-.672-.284-.999-.443l-67.818-33.139c-3.724-1.819-6.528-5.098-7.749-9.058s-.749-8.249 1.304-11.848c10.103-17.72 27.913-30.313 50.149-35.455 19.518-4.516 41.181-2.905 59.433 4.419 18.211 7.307 34.154 17.746 44.893 29.392 18.078 19.604 15.563 35.524 12.456 43.269-3.108 7.745-12.296 20.988-38.911 22.658-1.769.111-3.576.165-5.412.165z" fill="#9ee2f8"/></g><g><path d="m73.396 171.473c-11.947 0-19.243-4.947-23.131-8.835-5.924-5.925-14.309-19.768-3.894-45.916 6.099-15.314 17.566-31.855 32.286-46.575s31.261-26.187 46.575-32.286c26.151-10.417 39.991-2.029 45.917 3.895 5.924 5.925 14.309 19.768 3.894 45.916-6.099 15.314-17.566 31.855-32.286 46.575s-31.261 26.187-46.575 32.286c-8.99 3.581-16.527 4.94-22.786 4.94z" fill="#9ee2f8"/></g><g><path d="m438.909 297.883c-21.412 0-48.405-15.94-69.686-37.222-30.035-30.034-49.433-71.448-28.393-92.49 21.042-21.038 62.457-1.644 92.491 28.391 30.035 30.036 49.432 71.451 28.392 92.49-6.132 6.133-13.998 8.831-22.804 8.831z" fill="#8cbcff"/></g></g></svg>