<svg id="Capa_1" enable-background="new 0 0 512 512" height="512" viewBox="0 0 512 512" width="512" xmlns="http://www.w3.org/2000/svg"><g><g><path d="m219.648 389.554c-3.234 0-6.249-2.047-7.329-5.285-2.6-7.797-9.831-11.712-19.854-10.763l-4.802.458c-.067.007-.134.012-.201.017l-25.925 1.791c-2.234.149-4.415-.664-5.995-2.244-1.581-1.581-2.399-3.767-2.245-5.996l1.79-25.927c.005-.067.01-.136.017-.203l.459-4.8c.956-10.018-2.967-17.254-10.764-19.853-4.048-1.349-6.236-5.724-4.887-9.773s5.726-6.24 9.773-4.887c14.763 4.92 22.909 18.708 21.26 35.983l-.449 4.699-1.172 16.974 16.974-1.173 4.7-.448c17.278-1.649 31.06 6.495 35.982 21.259 1.349 4.048-.838 8.423-4.886 9.774-.812.269-1.636.397-2.446.397z" fill="#685e68"/></g><path d="m444.017 353.5c2.134.842 3.839 2.547 4.681 4.681 7.254 18.394 3.454 40.138-11.419 55.011-15.762 15.762-39.241 19.089-58.272 10-9.089-19.031-5.762-42.509 10-58.272 14.872-14.873 36.615-18.674 55.01-11.42z" fill="#6ecf61"/><path d="m426.708 375.489c-3.018-3.016-7.909-3.016-10.927 0l-88.843 88.844c-3.017 3.018-3.017 7.909 0 10.928 1.509 1.508 3.487 2.262 5.464 2.262s3.955-.755 5.464-2.262l88.843-88.844c3.016-3.019 3.016-7.91-.001-10.928z" fill="#3ac257"/><path d="m307.2 333.542v169.924c0 4.713 3.82 8.533 8.533 8.533h17.067c4.713 0 8.533-3.82 8.533-8.533v-169.924z" fill="#a0d977"/><path d="m447.827 88.107c17.204 1.118 29.833 6.911 34.115 17.248 4.282 10.338-.552 23.364-11.927 36.32v57.982c11.375 12.956 16.21 25.983 11.928 36.321-4.282 10.339-16.913 16.131-34.119 17.248l-40.989 40.999c-1.119 17.203-6.915 29.833-17.256 34.116-10.339 4.283-23.365-.547-36.318-11.915h-57.986c-12.953 11.368-25.979 16.198-36.318 11.915-10.342-4.284-16.137-16.914-17.257-34.118l-40.996-40.99c-17.201-1.12-29.829-6.916-34.112-17.256-4.283-10.339.547-23.365 11.915-36.318v-57.986c-11.367-12.953-16.197-25.979-11.914-36.317 4.283-10.34 16.909-16.135 34.108-17.256l41.008-40.998c1.119-17.202 6.911-29.829 17.248-34.111 10.338-4.282 23.364.552 36.32 11.927l57.982.001c12.956-11.375 25.982-16.21 36.32-11.928 10.336 4.281 16.129 16.908 17.248 34.109z" fill="#d88a55"/><path d="m365.682 270.641c32.052 25.409 65.155 34.815 79.264 20.705 14.11-14.11 4.702-47.216-20.709-79.27l.002-82.82c25.413-32.044 34.819-65.154 20.703-79.27-14.115-14.115-47.224-4.711-79.266 20.7l-82.818.003c-32.044-25.413-65.154-34.819-79.27-20.703-14.115 14.115-4.711 47.222 20.699 79.265l.003 82.83c-25.409 32.052-34.815 65.155-20.705 79.265s47.215 4.703 79.268-20.708z" fill="#ffd15b"/><path d="m365.733 224.883c.82 7.255 1.257 14.841 1.257 22.652 0 51.803-19.128 93.798-42.723 93.798s-42.723-41.995-42.723-93.798c0-7.811.438-15.397 1.257-22.652l-.009-108.427c-.814-7.236-1.249-14.801-1.249-22.59.001-51.84 19.128-93.866 42.724-93.866 23.595 0 42.723 42.026 42.723 93.866 0 7.789-.435 15.353-1.248 22.59z" fill="#ffe880"/><path d="m456.035 203.291 29.941-32.624-31.076-33.611-21.841-6.566c-9.985-1.647-20.758-2.547-31.992-2.547-7.789 0-15.354.435-22.59 1.249l-108.427.009c-7.255-.819-14.84-1.257-22.651-1.257-51.803 0-93.798 19.128-93.798 42.723s41.995 42.723 93.798 42.723c7.811 0 15.397-.438 22.652-1.257l108.426.009c7.237.814 14.801 1.248 22.59 1.248 11.235 0 22.008-.9 31.993-2.547z" fill="#ffe880"/><path d="m312.42 237.887 8.879-.515 27.033-5.954 35.912-50.866-18.568-57.501-41.409-19.605h-11.847c-32.053 5.611-56.42 33.561-56.42 67.22 0 33.66 24.367 61.609 56.42 67.221z" fill="#918291"/><path d="m166.287 394.944 9.991-4.558c5.011-2.286 8.846-6.552 10.588-11.776 1.607-4.821 1.303-10.075-.85-14.678-4.298-9.191-11.688-16.581-20.88-20.88-4.603-2.153-9.857-2.457-14.678-.85-5.225 1.742-9.491 5.577-11.777 10.588l-4.558 9.991z" fill="#918291"/><path d="m141.207 387.86 22.168 39.315-47.511 47.511c-12.06 4.985-25.519 6.053-38.414 2.829l-15.751-3.938c-3.057-.764-5.444-3.151-6.209-6.209l-3.938-15.751c-3.224-12.895-2.156-26.355 2.829-38.415l43.342-43.342z" fill="#ffd15b"/><path d="m115.688 471.59c-26.978-11.737-46.475-31.234-58.212-58.213l32.93-7.538c8.496 13.324 19.427 24.264 32.741 32.77z" fill="#685e68"/><path d="m117.071 363.724-10.496-6.88c-17.348-11.956-39.608-15.672-61.493-10.265-14.154 3.496-25.315 15.573-27.593 29.858-2.575 16.147 6.859 30.608 22.236 34.088l6.021 1.363c18.75 4.243 39.266-.472 55.79-12.823l17.153-12.822z" fill="#e3f9ff"/><path d="m147.604 508.886 22.966-17.863v-44.746l-19.224-34.281h-9.698l-.009-.032-11.636 15.567c-12.351 16.524-17.067 37.04-12.823 55.79l1.362 6.021c2.18 9.634 8.672 16.934 17.187 20.41z" fill="#e3f9ff"/><path d="m324.267 102.399c-4.043 0-7.997.372-11.847 1.046 32.052 5.612 56.42 33.561 56.42 67.221s-24.367 61.609-56.42 67.221c3.85.674 7.804 1.046 11.847 1.046 37.703 0 68.267-30.564 68.267-68.267-.001-37.702-30.565-68.267-68.267-68.267z" fill="#7b6e7a"/><g><path d="m341.333 212.526h-8.533c-4.268 0-7.726-3.459-7.726-7.726 0-4.268 3.459-7.726 7.726-7.726h8.533c4.268 0 7.726 3.459 7.726 7.726.001 4.267-3.458 7.726-7.726 7.726z" fill="#685e68"/></g><g><path d="m366.934 178.393h-8.533c-4.268 0-7.726-3.459-7.726-7.726 0-4.268 3.459-7.726 7.726-7.726h8.533c4.268 0 7.726 3.459 7.726 7.726 0 4.268-3.459 7.726-7.726 7.726z" fill="#685e68"/></g><g><path d="m298.667 161.326h-8.533c-4.268 0-7.726-3.459-7.726-7.726 0-4.268 3.459-7.726 7.726-7.726h8.533c4.268 0 7.726 3.459 7.726 7.726s-3.458 7.726-7.726 7.726z" fill="#685e68"/></g><path d="m433.059 130.49c23.383 9.042 38.579 23.668 38.579 40.176s-15.196 31.134-38.579 40.175c36.089-5.955 61.874-21.694 61.874-40.175s-25.785-34.221-61.874-40.176z" fill="#ffd15b"/><path d="m172.223 422.492-6.88-10.496-22.518-1.618-1.207 1.615.031.003 6.88 10.496c11.956 17.348 15.672 39.608 10.266 61.493-2.925 11.84-11.863 21.564-23.065 25.767 5.076 2.072 10.871 2.787 16.902 1.826 14.285-2.278 26.361-13.438 29.858-27.593 5.404-21.885 1.689-44.145-10.267-61.493z" fill="#cde3ea"/><path d="m165.343 411.996c-6.665 6.665-22.874 1.262-36.204-12.068s-18.733-29.539-12.068-36.204 22.874-1.262 36.204 12.068 18.733 29.539 12.068 36.204z" fill="#ffe880"/></g></svg>