<svg id="Capa_1" enable-background="new 0 0 512 512" height="512" viewBox="0 0 512 512" width="512" xmlns="http://www.w3.org/2000/svg"><path d="m156.991 84.511c-19.974-32.762-5.51-68.464 21.14-78.488 31.25-11.754 62.9 4.672 77.869 43.571 14.969-38.898 46.62-55.325 77.869-43.571 26.65 10.024 41.114 45.726 21.14 78.488l-99.009 171.489z" fill="#b39bdb"/><path d="m57.982 256c-38.36.917-62.047-29.46-57.403-57.552 5.446-32.94 35.496-52.137 76.668-45.651-26.202-32.413-24.603-68.036 1.201-89.222 22.006-18.068 60.157-12.743 78.543 20.936l99.009 171.489z" fill="#8f8bd5"/><path d="m454.018 256c38.36.917 62.047-29.46 57.403-57.552-5.446-32.94-35.496-52.137-76.668-45.651 26.202-32.413 24.603-68.036-1.201-89.222-22.006-18.068-60.157-12.743-78.543 20.936l-99.009 171.489z" fill="#8f8bd5"/><path d="m156.991 427.489c-19.974 32.762-5.51 68.464 21.14 78.488 31.25 11.754 62.9-4.672 77.869-43.571 14.969 38.898 46.62 55.324 77.869 43.571 26.65-10.024 41.114-45.726 21.14-78.488l-99.009-171.489z" fill="#8f8bd5"/><path d="m57.982 256c-38.36-.917-62.047 29.46-57.403 57.552 5.446 32.94 35.496 52.137 76.668 45.651-26.202 32.413-24.603 68.036 1.201 89.222 22.006 18.068 60.157 12.743 78.543-20.936l99.009-171.489z" fill="#b39bdb"/><path d="m454.018 256c38.36-.917 62.047 29.46 57.403 57.552-5.446 32.94-35.496 52.137-76.668 45.651 26.202 32.413 24.603 68.036-1.201 89.222-22.006 18.068-60.157 12.743-78.543-20.936l-99.009-171.489z" fill="#b39bdb"/><path d="m256 152.162c-4.143 0-7.5-3.357-7.5-7.5v-47.826c0-4.143 3.357-7.5 7.5-7.5s7.5 3.357 7.5 7.5v47.826c0 4.143-3.357 7.5-7.5 7.5z" fill="#8f8bd5"/><g fill="#b39bdb"><path d="m159.571 207.832c-1.272 0-2.561-.324-3.743-1.006l-41.419-23.913c-3.587-2.071-4.816-6.658-2.745-10.245 2.069-3.588 6.656-4.816 10.245-2.745l41.419 23.913c3.587 2.071 4.816 6.658 2.745 10.245-1.388 2.406-3.91 3.751-6.502 3.751z"/><path d="m352.429 207.832c-2.592 0-5.113-1.345-6.502-3.751-2.071-3.587-.842-8.174 2.745-10.245l41.419-23.913c3.586-2.069 8.175-.843 10.245 2.745 2.071 3.587.842 8.174-2.745 10.245l-41.419 23.913c-1.181.682-2.471 1.006-3.743 1.006z"/><path d="m256 422.664c-4.143 0-7.5-3.357-7.5-7.5v-47.826c0-4.143 3.357-7.5 7.5-7.5s7.5 3.357 7.5 7.5v47.826c0 4.143-3.357 7.5-7.5 7.5z"/></g><path d="m118.166 343.083c-2.592 0-5.113-1.345-6.502-3.751-2.071-3.587-.842-8.174 2.745-10.245l41.419-23.913c3.585-2.07 8.175-.843 10.245 2.745 2.071 3.587.842 8.174-2.745 10.245l-41.419 23.913c-1.18.682-2.47 1.006-3.743 1.006z" fill="#8f8bd5"/><path d="m393.834 343.083c-1.273 0-2.561-.324-3.743-1.006l-41.419-23.913c-3.587-2.071-4.816-6.658-2.745-10.245 2.07-3.588 6.655-4.816 10.245-2.745l41.419 23.913c3.587 2.071 4.816 6.658 2.745 10.245-1.389 2.406-3.91 3.751-6.502 3.751z" fill="#8f8bd5"/><circle cx="256" cy="256" fill="#f6ee86" r="119.749"/><path d="m349.504 330.805c-184.742 45.028-178.294-139.43-148.599-181.148-38.411 19.94-64.655 60.075-64.655 106.343 0 66.135 53.613 119.749 119.749 119.749 37.833 0 71.56-17.548 93.505-44.944z" fill="#eed076"/><ellipse cx="174.042" cy="277.589" fill="#e7889d" rx="30.241" ry="24.082"/><ellipse cx="337.958" cy="277.589" fill="#e7889d" rx="30.241" ry="24.082"/><path d="m191.666 261.906c-4.143 0-7.5-3.358-7.5-7.5v-12.362c0-4.143 3.357-7.5 7.5-7.5s7.5 3.357 7.5 7.5v12.362c0 4.143-3.357 7.5-7.5 7.5z" fill="#4e5660"/><path d="m320.333 261.906c-4.143 0-7.5-3.358-7.5-7.5v-12.362c0-4.143 3.357-7.5 7.5-7.5s7.5 3.357 7.5 7.5v12.362c0 4.143-3.357 7.5-7.5 7.5z" fill="#4e5660"/><path d="m256 269.266c-8.668 0-16.911-3.754-22.615-10.3-2.722-3.123-2.396-7.86.727-10.582 3.122-2.722 7.859-2.395 10.582.727 2.855 3.276 6.976 5.155 11.307 5.155s8.452-1.879 11.307-5.155c2.722-3.122 7.458-3.448 10.582-.727 3.122 2.722 3.448 7.459.727 10.582-5.706 6.546-13.949 10.3-22.617 10.3z" fill="#4e5660"/></svg>