<svg id="Capa_1" enable-background="new 0 0 497 497" height="512" viewBox="0 0 497 497" width="512" xmlns="http://www.w3.org/2000/svg"><g><g><g><path d="m139.25 124.122c0-4.282-1.52-8.419-4.289-11.685-2.187-2.58-5.071-4.446-8.278-5.52-4.266-1.428-7.521-4.998-8.512-9.458l-5.427-24.421c0-.001-.001-.002-.001-.004l-.129-.582c-2.578-11.602-11.978-20.24-23.412-22.083-.031-.005-.061-.011-.092-.016-.704-.111-1.416-.191-2.134-.25-.067-.005-.132-.019-.2-.023-.049-.003-.106-.004-.156-.007-1.363-.094-2.747-.096-4.148.007-12.738.941-23.197 10.49-25.967 22.958l-5.427 24.421c-1.052 4.735-4.623 8.378-9.114 9.645-2.613.738-5.051 1.995-6.987 3.899l-.001.001c-3.184 3.13-4.977 7.408-4.977 11.873v19.763 258.949h2.853 50.658 43.574c6.719 0 12.166-5.447 12.166-12.166v-16.584c0-.514 0-208.655 0-248.717z" fill="#b9f0ff"/><path d="m50 307c0-20.011 9.857-37.753 24.961-48.66 0-52.416 0-101.833 0-104.156 0-8.366 3.009-16.405 8.299-22.885.168-.206.736-.917.818-1.022 5.269-6.759 9.028-14.659 10.897-23.093 1.585-7.149 7.944-12.222 15.266-12.222h7.375l-5.002-22.509c-3.07-13.814-15.809-23.432-30.142-22.373-12.738.941-23.197 10.49-25.967 22.958l-5.427 24.421c-1.052 4.735-4.623 8.378-9.114 9.645-2.613.738-5.051 1.995-6.987 3.899l-.001.001c-3.184 3.13-4.977 7.408-4.977 11.873v19.763 258.949h53.51c-2.342-2.341-8.55-7.603-8.55-17.595 0-.646 0-11.571 0-28.334-15.102-10.907-24.959-28.649-24.959-48.66z" fill="#7ce3ff"/></g><g><path d="m76.792 164.44c-10.994-5.653-23.905-6.325-35.422-1.832l-11.37 4.43c0-14.493 0-27.486 0-36.749 20.383-7.597 43.079-6.278 62.458 3.685 10.991 5.656 23.902 6.322 35.42 1.835l11.373-4.431v36.747c-20.387 7.601-43.084 6.281-62.459-3.685z" fill="#676fb2"/><path d="m74.961 163.553c-10.579-4.824-22.707-5.19-33.591-.944l-11.37 4.429v-36.749c17.507-6.525 36.726-6.471 54.078-.013-.267.342-.544.686-.818 1.022-5.29 6.481-8.299 14.52-8.299 22.885z" fill="#4c5699"/></g></g><g><g><path d="m248.5 74.122c0-4.282-1.52-8.419-4.289-11.685-2.187-2.58-5.071-4.446-8.278-5.52-4.266-1.428-7.521-4.998-8.512-9.458l-5.427-24.421c0-.001-.001-.002-.001-.004l-.129-.582c-2.578-11.602-11.978-20.24-23.412-22.083-.031-.005-.061-.011-.092-.016-.704-.111-1.416-.191-2.134-.25-.067-.005-.132-.019-.2-.023-.049-.003-.106-.004-.156-.007-1.363-.094-2.747-.096-4.148.007-12.738.941-23.197 10.49-25.967 22.958l-5.427 24.421c-1.052 4.735-4.623 8.378-9.114 9.645-2.613.738-5.051 1.995-6.987 3.899l-.001.001c-3.184 3.13-4.977 7.408-4.977 11.873v19.763 308.949h2.853 50.658 43.574c6.719 0 12.166-5.447 12.166-12.166v-16.584c0-.514 0-258.655 0-298.717z" fill="#ffb5c0"/><path d="m221.864 22.452c-3.07-13.814-15.809-23.432-30.142-22.373-12.738.941-23.197 10.49-25.967 22.958l-5.427 24.421c-1.052 4.735-4.623 8.378-9.114 9.645-2.613.738-5.051 1.995-6.987 3.899l-.001.001c-3.184 3.13-4.977 7.408-4.977 11.873v19.764 308.949h53.51c-2.342-2.341-8.55-7.603-8.55-17.595 0-2.98 0-274.824 0-279.811 0-8.366 3.009-16.405 8.299-22.885.168-.206.736-.917.818-1.022 5.269-6.759 9.028-14.659 10.897-23.093 1.585-7.149 7.944-12.222 15.266-12.222h7.375z" fill="#ff8e9e"/></g><g><path d="m186.042 114.44c-10.994-5.653-23.905-6.325-35.422-1.832l-11.369 4.43c0-14.493 0-27.486 0-36.749 20.383-7.597 43.079-6.278 62.458 3.685 10.991 5.656 23.902 6.322 35.419 1.835l11.373-4.431v36.747c-20.387 7.601-43.084 6.281-62.459-3.685z" fill="#676fb2"/><path d="m184.211 113.553c-10.579-4.824-22.707-5.19-33.591-.944l-11.369 4.43v-36.749c17.507-6.525 36.726-6.471 54.078-.013-.267.342-.544.686-.818 1.022-5.29 6.481-8.299 14.52-8.299 22.885-.001 2.531-.001 5.607-.001 9.369z" fill="#4c5699"/></g></g><g><g><path d="m357.75 162.122c0-4.282-1.52-8.419-4.289-11.685-2.187-2.58-5.071-4.446-8.278-5.52-4.266-1.428-7.521-4.998-8.512-9.458l-5.427-24.421c0-.001-.001-.002-.001-.004l-.129-.582c-2.578-11.602-11.978-20.24-23.412-22.083-.031-.005-.061-.011-.092-.016-.704-.111-1.416-.191-2.134-.25-.067-.005-.132-.019-.2-.023-.049-.003-.106-.004-.156-.007-1.363-.094-2.747-.096-4.148.007-12.738.941-23.197 10.49-25.967 22.958l-5.427 24.421c-1.052 4.735-4.623 8.378-9.114 9.645-2.613.738-5.051 1.995-6.987 3.899l-.001.001c-3.184 3.13-4.977 7.408-4.977 11.873v19.763 220.949h2.853 50.658 43.574c6.719 0 12.166-5.447 12.166-12.166v-16.584c0-.514 0-170.655 0-210.717z" fill="#fce3a0"/><path d="m331.114 110.452c-3.07-13.814-15.809-23.432-30.142-22.373-12.738.941-23.197 10.49-25.967 22.958l-5.427 24.421c-1.052 4.735-4.623 8.378-9.114 9.645-2.613.738-5.051 1.995-6.987 3.899l-.001.001c-3.184 3.13-4.977 7.408-4.977 11.873v19.763 220.949h53.51c-2.342-2.341-8.55-7.603-8.55-17.595 0-2.98 0-186.824 0-191.811 0-8.366 3.009-16.405 8.299-22.885.168-.206.736-.917.818-1.022 5.269-6.759 9.028-14.659 10.897-23.093 1.585-7.149 7.944-12.222 15.266-12.222h7.375z" fill="#ffce71"/></g><g><path d="m295.292 202.44c-10.994-5.653-23.905-6.325-35.422-1.832l-11.369 4.43c0-14.493 0-27.486 0-36.749 20.383-7.597 43.079-6.278 62.458 3.685 10.991 5.656 23.902 6.322 35.419 1.835l11.373-4.431v36.747c-20.387 7.601-43.084 6.281-62.459-3.685z" fill="#676fb2"/><path d="m293.461 201.553c-10.579-4.824-22.707-5.19-33.591-.944l-11.369 4.43v-36.749c17.507-6.525 36.726-6.471 54.078-.013-.267.342-.544.686-.818 1.022-5.29 6.481-8.299 14.52-8.299 22.885-.001 2.532-.001 5.607-.001 9.369z" fill="#4c5699"/></g></g><g><g><path d="m467 126.463c0-4.282-1.52-8.419-4.289-11.685-2.187-2.58-5.071-4.446-8.278-5.52-4.266-1.428-7.521-4.998-8.512-9.458l-5.427-24.421c0-.001-.001-.002-.001-.004l-.129-.582c-2.578-11.602-11.978-20.24-23.412-22.083-.031-.005-.061-.011-.092-.016-.704-.111-1.416-.191-2.134-.25-.067-.005-.132-.019-.2-.023-.049-.003-.106-.004-.156-.007-1.363-.094-2.747-.096-4.148.007-12.738.941-23.197 10.49-25.967 22.958l-5.426 24.421c-1.052 4.735-4.623 8.378-9.114 9.645-2.613.738-5.051 1.995-6.987 3.899l-.001.001c-3.184 3.13-4.977 7.408-4.977 11.873v19.763 256.608h2.853 50.658 43.574c6.719 0 12.166-5.447 12.166-12.166v-16.243c-.001-.514-.001-206.655-.001-246.717z" fill="#5fd9b3"/><path d="m440.364 74.793c-3.07-13.814-15.809-23.432-30.142-22.373-12.738.941-23.197 10.49-25.967 22.958l-5.426 24.422c-1.052 4.735-4.623 8.378-9.114 9.645-2.613.738-5.051 1.995-6.987 3.899l-.001.001c-3.184 3.13-4.977 7.408-4.977 11.873v19.763 256.608h53.51c-2.342-2.341-8.55-7.262-8.55-17.254 0-2.98 0-222.824 0-227.811 0-8.366 3.009-16.405 8.299-22.885.168-.206.736-.917.818-1.022 5.269-6.759 9.028-14.659 10.897-23.093 1.585-7.149 7.944-12.222 15.266-12.222h7.375z" fill="#00ce8e"/></g><g><path d="m404.542 166.781c-10.994-5.653-23.905-6.325-35.422-1.832l-11.369 4.43c0-14.493 0-27.486 0-36.749 20.383-7.597 43.079-6.278 62.458 3.685 10.991 5.656 23.902 6.322 35.42 1.835l11.371-4.431v36.747c-20.386 7.601-43.083 6.281-62.458-3.685z" fill="#676fb2"/><path d="m402.711 165.894c-10.579-4.824-22.707-5.19-33.591-.944l-11.369 4.43v-36.75c17.507-6.525 36.726-6.471 54.078-.013-.267.342-.544.686-.818 1.022-5.29 6.481-8.299 14.52-8.299 22.885-.001 2.532-.001 5.608-.001 9.37z" fill="#4c5699"/></g></g><g><path d="m467 197h-437c-16.569 0-30 13.432-30 30v240c0 16.568 13.431 30 30 30h437c16.569 0 30-13.432 30-30v-240c0-16.568-13.431-30-30-30zm-30 110c0 27.614-22.386 50-50 50h-277c-27.614 0-50-22.386-50-50 0-27.614 22.386-50 50-50h277c27.614 0 50 22.386 50 50z" fill="#64b3fb"/><path d="m139.25 407v-50h-29.25c-27.614 0-50-22.386-50-50s22.386-50 50-50h34.429c12.426-34.866 45.828-60 84.821-60h-199.25c-16.569 0-30 13.432-30 30v240c0 16.568 13.431 30 30 30h199.25c-49.5 0-90-40.5-90-90z" fill="#53a3ec"/></g><g fill="#ffb5c0"><path d="m168.945 428.774c-16.212 0-29.355 10.466-29.355 23.376s13.143 23.377 29.355 23.377 29.355-10.466 29.355-23.377-13.143-23.376-29.355-23.376z"/><path d="m328.058 428.774c-16.212 0-29.355 10.466-29.355 23.376s13.143 23.377 29.355 23.377 29.355-10.466 29.355-23.377-13.142-23.376-29.355-23.376z"/></g><g fill="#313d40"><path d="m186.053 410.147c-4.142 0-7.5 3.358-7.5 7.5v12c0 4.142 3.358 7.5 7.5 7.5s7.5-3.357 7.5-7.5v-12c0-4.142-3.358-7.5-7.5-7.5z"/><path d="m310.95 410.147c-4.142 0-7.5 3.358-7.5 7.5v12c0 4.142 3.358 7.5 7.5 7.5s7.5-3.357 7.5-7.5v-12c.001-4.142-3.357-7.5-7.5-7.5z"/><path d="m269.894 423.636c-3.123-2.721-7.859-2.382-10.582.727-2.722 3.132-6.67 4.928-10.811 4.928s-8.081-1.796-10.81-4.928c-2.722-3.123-7.459-3.448-10.582-.727-3.118 2.712-3.447 7.459-.726 10.582 5.579 6.401 13.641 10.073 22.118 10.073 8.49 0 16.551-3.682 22.119-10.073 2.722-3.123 2.396-7.861-.726-10.582z"/></g></g></svg>