<svg id="Capa_1" enable-background="new 0 0 512 512" height="512" viewBox="0 0 512 512" width="512" xmlns="http://www.w3.org/2000/svg"><g><path d="m480.967 54.122v403.755c0 25.603-20.75 46.364-46.364 46.364h-62.055v-496.482h62.055c25.613 0 46.364 20.76 46.364 46.363z" fill="#f1e12b"/><path d="m509.774 248.376-4.458 7.431c-2.937 4.894-2.937 11.008 0 15.903l4.458 7.431c6.18 10.301-1.239 23.406-13.252 23.406h-81.371c-8.535 0-15.455-6.919-15.455-15.455v-46.667c0-8.535 6.919-15.455 15.455-15.455h81.371c12.012 0 19.432 13.105 13.252 23.406z" fill="#ff8a98"/><path d="m434.939 473.212h-109.121v-434.424h109.121c8.284 0 15 6.716 15 15v404.424c0 8.284-6.715 15-15 15z" fill="#ededef"/><path d="m494.259 108.739-4.458 7.431c-2.936 4.894-2.936 11.008 0 15.903l4.458 7.431c6.18 10.301-1.239 23.406-13.252 23.406h-81.371c-8.535 0-15.455-6.919-15.455-15.455v-46.667c0-8.535 6.919-15.455 15.455-15.455h81.371c12.012 0 19.432 13.105 13.252 23.406z" fill="#60daa8"/><path d="m418.912 54.122v403.755c0 25.603-20.761 46.364-46.364 46.364h-23.46l-93.088-14.496-4.595.711-88.493 13.785h-131.879v-496.482h341.515c25.603 0 46.364 20.76 46.364 46.363z" fill="#f9ee80"/><path d="m251.405 490.456-88.493 13.785h-131.879v-496.482h176.326c-21.348 46.405-121.792 291.833 44.046 482.697z" fill="#f1e12b"/><path d="m349.088 318.065v186.176h-85.134l-59.18-12.92-41.862 12.92v-186.176z" fill="#d97c41"/><path d="m263.954 504.241h-101.042v-186.176h3.235c12.828 62.839 41.934 127.47 97.807 186.176z" fill="#c76d33"/><path d="m147.394 325.818 108.606-155.151 108.606 155.151z" fill="#ff8a98"/><path d="m372.362 325.813c0 6.429-2.606 12.25-6.821 16.464-4.203 4.204-10.025 6.81-16.454 6.81h-186.175c-12.858 0-23.274-10.416-23.274-23.275 0-6.429 2.606-12.24 6.821-16.454 4.203-4.204 10.025-6.81 16.454-6.81h186.176c12.857.001 23.273 10.417 23.273 23.265z" fill="#fd5c6f"/><path d="m173.823 349.088h-10.911c-12.858 0-23.274-10.416-23.274-23.275 0-6.429 2.606-12.24 6.821-16.454 4.203-4.204 10.025-6.81 16.454-6.81h.381c2.513 15.403 5.975 30.95 10.529 46.539z" fill="#f6334c"/><circle cx="256" cy="170.667" fill="#fd5c6f" r="15.515"/><path d="m271.773 442.182h-31.545c-4.142 0-7.5-3.358-7.5-7.5v-31.972c0-12.475 10.113-22.588 22.588-22.588h1.369c12.475 0 22.588 10.113 22.588 22.588v31.972c0 4.142-3.358 7.5-7.5 7.5z" fill="#d6c4ea"/><path d="m78.091 512h-33.091c-24.853 0-45-20.147-45-45v-422c0-24.853 20.147-45 45-45h33.091c8.284 0 15 6.716 15 15v482c0 8.284-6.716 15-15 15z" fill="#00ce8e"/><path d="m31.03 450.396v-388.792c0-8.317 6.742-15.059 15.059-15.059h.913c8.317 0 15.059 6.742 15.059 15.059v388.791c0 8.317-6.742 15.059-15.059 15.059h-.913c-8.317.001-15.059-6.742-15.059-15.058z" fill="#f1e12b"/><g><g fill="#ffa1ac"><ellipse cx="174.002" cy="89.852" rx="30.244" ry="24.085"/><ellipse cx="337.937" cy="89.852" rx="30.244" ry="24.085"/></g><g><path d="m191.628 74.394c-4.268 0-7.727-3.46-7.727-7.727v-12.364c0-4.268 3.459-7.727 7.727-7.727s7.727 3.46 7.727 7.727v12.364c0 4.267-3.459 7.727-7.727 7.727z" fill="#495560"/></g><g><path d="m320.31 74.394c-4.268 0-7.727-3.46-7.727-7.727v-12.364c0-4.268 3.459-7.727 7.727-7.727s7.727 3.46 7.727 7.727v12.364c.001 4.267-3.458 7.727-7.727 7.727z" fill="#495560"/></g><g><path d="m255.969 81.754c-8.734 0-17.041-3.783-22.788-10.379-2.804-3.218-2.468-8.099.75-10.902 3.217-2.803 8.099-2.469 10.902.749 2.812 3.227 6.871 5.078 11.137 5.078s8.326-1.851 11.138-5.078c2.803-3.218 7.684-3.553 10.902-.749s3.554 7.685.75 10.902c-5.749 6.596-14.056 10.379-22.791 10.379z" fill="#495560"/></g></g></g></svg>