<svg id="Capa_1" enable-background="new 0 0 512 512" viewBox="0 0 512 512" xmlns="http://www.w3.org/2000/svg"><g><path d="m424.062 427.619c28.858-33.372 44.478-95.189 44.478-95.192-7.861-13.561-16.435-25.42-25.495-34.479l-220.848-220.848-145.097 145.097 220.848 220.848c9.059 9.059 20.918 17.634 34.479 25.495.004 0 62.776-7.549 91.635-40.921z" fill="#f7e969"/><path d="m297.948 443.045c3.027 3.027 6.37 6 9.98 8.911-30.634-89.626-7.721-201.804 25.723-263.403l-111.454-111.453-145.097 145.097z" fill="#f5c956"/><path d="m449.154 341.297c-10.641 4.869-19.176 13.403-24.045 24.045l-11.214 24.509c-4.869 10.641-13.403 19.176-24.045 24.045l-24.51 11.214c-10.641 4.869-19.176 13.403-24.045 24.045l-8.87 19.386c22.738 13.181 50.279 24.34 77.557 32.379l62.645-30.903 28.289-60.031c-8.039-27.278-19.198-54.819-32.379-77.557z" fill="#e9a982"/><path d="m83.396 16.03-67.366 67.366c-21.373 21.373-21.373 56.026 0 77.399l43.528 43.528 144.765-144.765-43.528-43.528c-21.373-21.373-56.026-21.373-77.399 0z" fill="#ff6e80"/><path d="m12.155 89.882h204.729v49.275h-204.729z" fill="#f8475e" transform="matrix(.707 -.707 .707 .707 -47.436 114.52)"/><path d="m262.871 72.176-12.208-8.032c-2.405-1.582-4.462-3.639-6.044-6.044l-8.032-12.208c-9.13-13.878-28.7-15.876-40.446-4.129l-27.976 27.975c-35.259 53.258-35.259 134.585-4.61 146.329l103.445-103.445c11.747-11.746 9.749-31.316-4.129-40.446z" fill="#eeecff"/><path d="m168.165 69.738-126.402 126.403c-11.746 11.746-9.748 31.316 4.129 40.446l12.208 8.032c2.405 1.582 4.462 3.639 6.044 6.044l8.032 12.208c9.13 13.878 28.7 15.876 40.446 4.129l50.933-50.933c-12.617-38.763-7.791-108.631 4.61-146.329z" fill="#d3d3ff"/><path d="m448.456 448.456c-17.629 17.629-30.298 35.788-38.471 52.463 15.354 4.525 30.623 8.069 44.898 10.414 33.147 5.447 61.898-23.304 56.451-56.451-2.346-14.275-5.89-29.544-10.415-44.898-16.675 8.174-34.834 20.843-52.463 38.472z" fill="#5972a4"/><path d="m99.722 216.541c-1.92 0-3.839-.732-5.303-2.196-2.929-2.93-2.929-7.678 0-10.607l109.32-109.319c2.929-2.928 7.678-2.928 10.606 0 2.929 2.93 2.929 7.678 0 10.607l-109.32 109.319c-1.464 1.464-3.384 2.196-5.303 2.196z" fill="#bc9bdd"/><g><g fill="#ffa1ac"><path d="m246.284 264.534c-9.265 9.265-26.208 7.345-37.842-4.29-11.635-11.635-13.555-28.577-4.29-37.843 9.265-9.265 26.208-7.344 37.842 4.29 11.634 11.635 13.555 28.577 4.29 37.843z"/><ellipse cx="339.405" cy="357.654" rx="23.725" ry="29.792" transform="matrix(.707 -.707 .707 .707 -153.49 344.748)"/></g><g fill="#425460"><path d="m265.778 255.017c-1.919 0-3.839-.732-5.303-2.196-2.929-2.93-2.929-7.678 0-10.607 1.262-1.262 1.957-2.939 1.957-4.724 0-1.784-.695-3.462-1.957-4.724-2.605-2.605-6.844-2.605-9.448 0-2.929 2.929-7.678 2.928-10.607-.001s-2.928-7.678 0-10.606c8.453-8.451 22.208-8.451 30.661 0 4.095 4.096 6.351 9.54 6.351 15.331s-2.255 11.235-6.351 15.331c-1.464 1.463-3.384 2.196-5.303 2.196z"/><path d="m355.41 344.648c-1.919 0-3.838-.732-5.303-2.196-2.929-2.929-2.929-7.678 0-10.606 2.605-2.605 2.605-6.844 0-9.449-2.604-2.604-6.843-2.605-9.447.001-2.929 2.929-7.678 2.928-10.607-.001s-2.928-7.678 0-10.607c8.453-8.451 22.208-8.451 30.661 0 8.453 8.454 8.453 22.208.001 30.661-1.466 1.465-3.386 2.197-5.305 2.197z"/><path d="m298.107 312.208c-7.26.001-14.247-2.871-19.409-8.033-5.609-5.61-8.515-13.374-7.97-21.3.284-4.132 3.867-7.251 7.996-6.969 4.132.284 7.253 3.864 6.969 7.996-.247 3.6 1.069 7.123 3.612 9.666 2.542 2.542 6.064 3.854 9.664 3.61 4.134-.272 7.713 2.836 7.997 6.968.284 4.133-2.835 7.713-6.968 7.997-.632.043-1.263.065-1.891.065z"/></g></g></g><g/><g/><g/><g/><g/><g/><g/><g/><g/><g/><g/><g/><g/><g/><g/></svg>