<svg id="Layer_1" enable-background="new 0 0 512 512" viewBox="0 0 512 512" xmlns="http://www.w3.org/2000/svg"><g><g><path d="m339.96 20.604h-63.356c-33.284 0-60.266 26.982-60.266 60.266 0 33.284 26.982 60.266 60.266 60.266h63.356z" fill="#e1f1fa"/></g><g><g><path d="m491.396 20.604h-151.436v20.604c-21.905 0-39.662 17.757-39.662 39.662s17.757 39.662 39.662 39.662v20.604h151.437v-120.532z" fill="#f5fafc"/></g></g><g><path d="m276.604 41.207h63.356v-41.207h-55.856l-7.5 8.935-7.5-8.935h-33.707c-44.663 0-80.869 36.206-80.869 80.869 0 44.663 36.206 80.869 80.869 80.869l104.563 10.302v-51.509h-63.356c-21.905 0-39.662-17.757-39.662-39.662 0-21.905 17.757-39.662 39.662-39.662z" fill="#06ccab"/></g><g><g><path d="m284.104 120.531h-7.5c-2.565 0-5.07-.252-7.5-.718v45.246l15 1.478z" fill="#00bd9d"/></g><g><path d="m269.104 0v41.925c2.43-.465 4.935-.718 7.5-.718h7.5v-41.207z" fill="#00bd9d"/></g></g><g><path d="m512 20.604c0 11.379-9.225 20.604-20.604 20.604h-151.436c-11.379 0-20.604-9.225-20.604-20.604 0-11.379 9.225-20.604 20.604-20.604h151.437c11.378 0 20.603 9.225 20.603 20.604z" fill="#82d9b6"/></g><g><path d="m339.96 120.531h151.437c11.379 0 20.604 9.225 20.604 20.604 0 11.379-9.225 20.604-20.604 20.604h-61.811l-89.626 10.301v-10.302c-11.379 0-20.604-9.225-20.604-20.604 0-11.378 9.225-20.603 20.604-20.603z" fill="#82d9b6"/></g><g><g><path d="m226.64 182.342h-82.41c-28.448 0-51.509 23.061-51.509 51.509 0 28.448 23.061 51.509 51.509 51.509h82.41z" fill="#e1f1fa"/></g><g><path d="m419.288 182.342h-192.648v20.604c-17.069 0-30.905 13.837-30.905 30.905s13.837 30.905 30.905 30.905v20.604h192.648z" fill="#f5fafc"/></g></g><g><path d="m144.225 202.946h82.414v-41.208h-74.914l-7.5 8.37-7.5-8.37h-33.708c-39.827 0-72.113 32.286-72.113 72.113 0 39.827 32.286 72.113 72.113 72.113l123.622 10.302v-51.509h-82.414c-17.069 0-30.905-13.837-30.905-30.906 0-17.069 13.837-30.905 30.905-30.905z" fill="#19cffc"/></g><g><g><path d="m151.726 264.757h-7.5c-2.587 0-5.098-.323-7.5-.921v44.938l15 1.25z" fill="#02b5d3"/></g><g><path d="m136.726 161.738v42.129c2.402-.599 4.913-.921 7.5-.921h7.5v-41.208z" fill="#02b5d3"/></g></g><g><path d="m450.189 182.342c0 11.379-9.225 20.604-20.604 20.604h-202.945c-11.379 0-20.604-9.225-20.604-20.604 0-11.379 9.225-20.604 20.604-20.604h202.946c11.379 0 20.603 9.225 20.603 20.604z" fill="#80dbff"/></g><g><path d="m226.64 264.757h202.946c11.379 0 20.604 9.225 20.604 20.604 0 11.379-9.225 20.604-20.604 20.604l-98.897 10.302-104.049-10.303c-11.379 0-20.604-9.225-20.604-20.604 0-11.379 9.225-20.603 20.604-20.603z" fill="#80dbff"/></g><g><path d="m231.791 326.567h-97.867c-45.516 0-82.414 36.898-82.414 82.414 0 45.516 36.898 82.414 82.414 82.414h97.867z" fill="#e1f1fa"/></g><g><path d="m491.396 326.567h-259.605v20.604c-34.137 0-61.811 27.674-61.811 61.811s27.674 61.811 61.811 61.811v20.604h259.606v-164.83z" fill="#f5fafc"/></g><g><path d="m144.225 347.171h87.565v-41.207h-80.065l-7.5 7.154-7.5-7.154h-33.708c-56.894 0-103.017 46.122-103.017 103.018 0 56.895 46.123 103.018 103.018 103.018h33.708l7.5-7.323 7.5 7.323h80.065v-41.207h-87.565c-34.137 0-61.811-27.674-61.811-61.811-.001-34.137 27.673-61.811 61.81-61.811z" fill="#f1ca3f"/></g><g><g><path d="m136.726 305.964v41.676c2.46-.298 4.959-.469 7.5-.469h7.5v-41.207z" fill="#dbb026"/></g><g><path d="m136.726 470.324v41.676h15v-41.207h-7.5c-2.541 0-5.04-.171-7.5-.469z" fill="#dbb026"/></g></g><g><path d="m512 326.567c0 11.379-9.225 20.604-20.604 20.604h-259.605c-11.379 0-20.604-9.225-20.604-20.604 0-11.379 9.225-20.604 20.604-20.604h259.606c11.378.001 20.603 9.225 20.603 20.604z" fill="#ffe45c"/></g><g><path d="m231.791 470.793h259.606c11.379 0 20.604 9.225 20.604 20.604 0 11.379-9.225 20.604-20.604 20.604h-259.606c-11.379 0-20.604-9.225-20.604-20.604 0-11.38 9.225-20.604 20.604-20.604z" fill="#ffe45c"/></g><g><g><g><path d="m311.314 406.636c0-15.085-10.928-16.502-24.409-16.502-13.48 0-24.409 1.417-24.409 16.502s10.928 27.313 24.409 27.313 24.409-12.228 24.409-27.313z" fill="#495560"/></g></g><g><path d="m209.918 403.877c-4.142 0-7.5-3.358-7.5-7.5v-12.362c0-4.142 3.358-7.5 7.5-7.5s7.5 3.358 7.5 7.5v12.362c0 4.142-3.358 7.5-7.5 7.5z" fill="#495560"/></g><g><path d="m363.893 403.877c-4.143 0-7.5-3.358-7.5-7.5v-12.362c0-4.142 3.357-7.5 7.5-7.5s7.5 3.358 7.5 7.5v12.362c0 4.142-3.358 7.5-7.5 7.5z" fill="#495560"/></g></g></g><g/><g/><g/><g/><g/><g/><g/><g/><g/><g/><g/><g/><g/><g/><g/></svg>