<svg id="Capa_1" enable-background="new 0 0 453.54 453.54" height="512" viewBox="0 0 453.54 453.54" width="512" xmlns="http://www.w3.org/2000/svg"><g><g><g><g><g><g><g><g><g><g><g><g><g><path d="m130.313 21.627c-15.313 7.442-29.151 17.665-40.415 31.452-11.055 13.53-20.469 32.255-24.666 49.255-5.373 21.763-4.563 44.145-8.855 65.889-2.24 11.35-24.686 31.69-30.096 42.035-14.053 26.871-3.49 38.355 11.121 58.805 7.018 9.822 14.652 20.932 14.242 33.577-.555 17.004-18.043 26.553-21.043 42.778-2.396 12.956 2.1 25.172 9.664 35.62 22.928 31.664 63.186 26.142 97.313 23.676 26.703-1.93 53.746-2.316 80.176 2.563 21.873 4.037 44.994 13.362 67.537 8.869 20.234-4.032 32.467-20.24 47.986-32.201 22.963-17.689 57.676-13.573 80.463-31.583 38.836-30.7-28.809-68.602-2.004-100.738 21.439-25.705 33.967-54.406 5.785-79.932-27.785-25.167-33.336-67.945-50.256-99.463-16.166-30.115-46.305-49.767-78.441-59.598-18.496-5.657-38.309-7.905-57.598-8.541-33.675-1.111-70.251 2.639-100.913 17.537z" fill="#eca074"/></g></g></g></g></g></g></g></g></g></g></g></g><g><g><g><g><g><g><g><g><g><g><g><g><g><path d="m340.842 449.634c-3.211-66.369-51.186-119.061-109.914-119.061-58.725 0-106.699 52.691-109.912 119.061z" fill="#f6c6b1"/></g></g></g></g></g></g></g></g></g></g></g></g><g><g><g><g><g><g><g><g><g><g><g><g><path d="m261.613 335.548c15.955 5.293 30.404 14.629 42.484 26.953-7.959 11.683-12.615 25.793-12.615 40.995 0 17.506 6.176 33.569 16.457 46.138h-154.019c10.285-12.568 16.457-28.632 16.457-46.138 0-15.202-4.656-29.313-12.611-40.995 11.939-12.185 26.195-21.449 41.934-26.773l27.059 26.38z" fill="#afa6d2"/></g></g></g></g></g></g></g></g></g></g></g></g><g><g><g><g><g><g><g><g><g><g><g><g><path d="m385.342 161.089c0 85.281-69.133 154.41-154.414 154.41-85.277 0-154.41-69.129-154.41-154.41s69.132-154.411 154.41-154.411c85.281 0 154.414 69.13 154.414 154.411z" fill="#eca074"/></g></g></g></g></g></g></g></g></g></g></g></g><g><g><g><g><g><g><g><g><g><g><g><g><g><circle cx="93.598" cy="217.65" fill="#f7bbac" r="28.176"/></g></g></g></g></g></g></g></g></g></g></g></g><g><g><g><g><g><g><g><g><g><g><g><g><circle cx="368.262" cy="217.65" fill="#f7bbac" r="28.176"/></g></g></g></g></g></g></g></g></g></g></g></g></g><g><g><g><g><g><g><g><g><g><g><g><g><circle cx="230.93" cy="196.462" fill="#fbd3c2" r="145.832"/></g></g></g></g></g></g></g></g></g></g></g></g><g><g><g><g><g><g><g><g><g><g><g><g><g><path d="m188.494 224.27c0 10.922-11.869 19.777-26.512 19.777-14.646 0-26.516-8.855-26.516-19.777 0-10.919 11.869-19.773 26.516-19.773 14.643-.001 26.512 8.854 26.512 19.773z" fill="#f39e9c"/></g></g></g></g></g></g></g></g></g></g></g></g><g><g><g><g><g><g><g><g><g><g><g><g><path d="m326.393 224.27c0 10.922-11.869 19.777-26.512 19.777-14.646 0-26.516-8.855-26.516-19.777 0-10.919 11.869-19.773 26.516-19.773 14.642-.001 26.512 8.854 26.512 19.773z" fill="#f39e9c"/></g></g></g></g></g></g></g></g></g></g></g></g></g><g><g><g><g><g><g><g><g><g><g><g><g><g><path d="m183.252 192.148c0 5.568-4.514 10.084-10.086 10.084-5.568 0-10.082-4.516-10.082-10.084s4.514-10.082 10.082-10.082c5.572 0 10.086 4.514 10.086 10.082z" fill="#121325"/></g></g></g></g></g></g></g></g></g></g></g></g><g><g><g><g><g><g><g><g><g><g><g><g><path d="m298.775 192.148c0 5.568-4.514 10.084-10.086 10.084-5.568 0-10.082-4.516-10.082-10.084s4.514-10.082 10.082-10.082c5.573 0 10.086 4.514 10.086 10.082z" fill="#121325"/></g></g></g></g></g></g></g></g></g></g></g></g></g><g><g><g><g><g><g><g><g><g><g><g><g><path d="m230.928 228.177c-9.262 0-17.865-4.873-22.451-12.719-1.088-1.863-.461-4.256 1.4-5.345 1.867-1.09 4.258-.461 5.344 1.4 3.191 5.458 9.209 8.85 15.707 8.85 6.5 0 12.518-3.392 15.709-8.85 1.088-1.861 3.482-2.49 5.346-1.4 1.861 1.089 2.488 3.481 1.4 5.345-4.588 7.846-13.19 12.719-22.455 12.719z" fill="#121325"/></g></g></g></g></g></g></g></g></g></g></g></g><g><g><g><g><g><g><g><g><g><g><g><g><path d="m278.697 25.981c-105.439-38.838-165.933 41.817-165.933 41.817-31.775 52.858-27.576 122.986-27.576 122.986l27.625-68.212s212.021 8.024 165.884-96.591z" fill="#eca074"/></g></g></g></g></g></g></g></g></g></g></g></g><g><g><g><g><g><g><g><g><g><g><g><g><path d="m257.922 19.692c50.105-.519 91.17 48.105 91.17 48.105 31.775 52.858 27.576 122.986 27.576 122.986l-15.545-40.528c0 .001-103.223-47.16-103.201-130.563z" fill="#eca074"/></g></g></g></g></g></g></g></g></g></g></g></g><g><g><g><g><g><g><g><g><g><g><g><g><path d="m226.758 362.107-27.059-26.38s-21.045 10.752 0 30.431c0 0 16.289 20.835 27.059-4.051z" fill="#fff"/></g></g></g></g></g></g></g></g></g></g></g></g><g><g><g><g><g><g><g><g><g><g><g><g><path d="m226.758 362.107 34.855-26.56s19.539 9.196-.645 27.428c.001.001-16.493 21.704-34.21-.868z" fill="#fff"/></g></g></g></g></g></g></g></g></g></g></g></g></g><g><g><g><g><g><g><g><g><g><g><g><g><path d="m102.109 410.613c-21.064 0-47.492-3.102-65.01-27.289-9.117-12.567-12.695-25.922-10.35-38.613 1.561-8.421 6.41-14.971 11.1-21.306 4.949-6.686 9.625-13 9.883-20.893.387-11.71-7.32-22.507-13.514-31.182-.932-1.308-1.85-2.577-2.744-3.817-13.313-18.451-22.93-31.781-8.648-59.072 2.389-4.576 7.518-10.577 12.949-16.931 6.965-8.148 15.635-18.292 16.77-24.05 1.9-9.641 2.807-19.686 3.682-29.399 1.086-12.028 2.205-24.468 5.213-36.671 4.297-17.388 14.045-36.845 25.439-50.779 10.967-13.433 25.004-24.369 41.721-32.501 24.738-12.019 55.605-18.112 91.74-18.112 3.605 0 7.311.062 11.01.184 22.758.758 41.934 3.608 58.623 8.712 36.82 11.259 65.49 33.098 80.727 61.495 6.07 11.3 10.762 24.153 15.297 36.586 8.273 22.682 16.832 46.135 34.15 61.819 25.193 22.82 23.426 50.733-5.404 85.335-10.979 13.161-3.822 27.275 4.465 43.617 9.379 18.497 20.01 39.463-3.047 57.686-12.146 9.603-27.318 13.219-41.988 16.717-14.285 3.406-27.777 6.623-38.508 14.896-2.516 1.94-5.189 4.177-8.172 6.837-.893.797-2.098 1.145-3.285.929-1.178-.208-2.197-.947-2.76-2.006-12.574-23.546-31.809-41.619-54.264-51.021-23.494 5.858-48.893 5.872-72.498.017-26.844 11.233-48.906 34.809-60.652 64.875-.545 1.397-1.842 2.358-3.336 2.474-8.852.685-18.887 1.463-28.589 1.463zm118.231-402.801c-34.943 0-64.66 5.829-88.324 17.325-15.689 7.632-28.84 17.865-39.084 30.417-10.711 13.096-19.871 31.377-23.907 47.709-2.865 11.623-3.959 23.762-5.016 35.499-.895 9.916-1.818 20.167-3.801 30.212-1.531 7.766-10.156 17.856-18.496 27.614-5.133 6.006-9.982 11.679-11.961 15.472-12.045 23.018-4.904 32.915 8.059 50.882.902 1.251 1.826 2.531 2.768 3.849 6.514 9.127 15.438 21.627 14.963 35.979-.336 10.328-5.967 17.933-11.412 25.286-4.354 5.879-8.465 11.434-9.693 18.077-1.979 10.687 1.047 21.657 8.99 32.607 12.053 16.641 30.15 24.061 58.684 24.061 8.572 0 17.184-.608 25.564-1.255 12.916-31.404 36.59-55.917 65.262-67.473.771-.312 1.625-.368 2.432-.159 23.117 5.95 48.127 5.937 71.127-.017.813-.214 1.664-.154 2.441.157 23.264 9.384 43.359 27.328 57.023 50.804 1.719-1.457 3.354-2.781 4.934-4 12.061-9.297 27.01-12.861 41.467-16.309 14.482-3.454 28.162-6.716 38.955-15.248 18.043-14.259 10.109-29.905.924-48.021-8.328-16.427-17.77-35.045-3.496-52.155 25.953-31.15 27.91-54.837 6.158-74.539-18.752-16.983-27.645-41.358-36.244-64.935-4.646-12.731-9.033-24.759-14.84-35.567-14.258-26.568-41.293-47.066-76.129-57.72-16.023-4.898-34.535-7.639-56.598-8.373-3.613-.12-7.231-.179-10.75-.179z" fill="#121325"/></g></g></g></g></g></g></g></g></g></g></g></g><g><g><g><g><g><g><g><g><g><g><g><g><path d="m340.883 453.54c-.008.002-.021.002-.033 0h-219.832c-1.068 0-2.09-.438-2.828-1.212-.736-.773-1.125-1.816-1.072-2.885 2.549-52.562 32.311-97.847 75.818-115.371.771-.312 1.631-.368 2.432-.159 23.117 5.95 48.127 5.937 71.127-.017.813-.214 1.664-.154 2.441.157 43.359 17.485 73.064 62.533 75.789 114.86.043.234.064.474.064.72 0 2.157-1.748 3.907-3.906 3.907zm-215.705-7.813h211.512c-3.662-47.284-30.576-87.667-69.506-103.944-23.494 5.858-48.896 5.868-72.498.017-38.934 16.259-65.85 56.629-69.508 103.927z" fill="#121325"/></g></g></g></g></g></g></g></g></g></g></g></g><g><g><g><g><g><g><g><g><g><g><g><g><path d="m340.85 453.54h-219.832c-1.068 0-2.09-.438-2.828-1.212-.736-.773-1.125-1.816-1.072-2.885.768-15.821 4.012-31.166 9.637-45.607 12.656-32.393 36.686-57.779 65.93-69.655.469-.189.967-.286 1.471-.286h.676c.324 0 .648.041.961.12 22.85 5.808 47.445 5.804 70.209 0 .314-.079.639-.12.965-.12h.797c.504 0 1.004.099 1.471.288 24.527 9.98 45.518 29.493 59.105 54.942 9.701 18.156 15.377 39.016 16.412 60.318.053 1.068-.336 2.111-1.072 2.885-.741.775-1.762 1.212-2.83 1.212zm-215.67-7.813h211.506c-1.465-18.723-6.699-36.939-15.238-52.921-12.568-23.538-31.82-41.625-54.285-51.025-23.523 5.863-48.846 5.87-72.453.018-26.852 11.228-48.934 34.818-60.676 64.876-4.833 12.404-7.805 25.522-8.854 39.052z" fill="#121325"/></g></g></g></g></g></g></g></g></g></g></g></g><g><g><g><g><g><g><g><g><g><g><g><g><path d="m307.939 453.54h-154.019c-1.51 0-2.885-.87-3.531-2.233-.645-1.364-.449-2.979.508-4.147 10.043-12.272 15.574-27.778 15.574-43.663 0-13.915-4.127-27.332-11.934-38.796-1.049-1.54-.865-3.604.438-4.935 9.539-9.732 20.441-17.532 32.406-23.182.523-.248 1.094-.375 1.67-.375h15.15c1.018 0 1.996.398 2.725 1.108l20.146 19.639 26.18-19.948c.68-.518 1.51-.799 2.367-.799h17.189c.576 0 1.146.127 1.668.373 11.959 5.646 22.863 13.446 32.41 23.184 1.303 1.329 1.488 3.395.439 4.935-7.811 11.464-11.938 24.879-11.938 38.796 0 15.881 5.531 31.388 15.574 43.663.957 1.169 1.152 2.783.506 4.147-.643 1.363-2.018 2.233-3.528 2.233zm-146.308-7.813h138.598c-8.201-12.475-12.652-27.202-12.652-42.23 0-14.4 3.971-28.319 11.512-40.461-8.139-7.85-17.26-14.233-27.164-19.013h-14.986l-27.813 21.192c-1.541 1.17-3.711 1.038-5.094-.31l-21.42-20.883h-12.676c-9.91 4.781-19.031 11.169-27.164 19.013 7.541 12.144 11.512 26.063 11.512 40.461-.001 15.031-4.45 29.76-12.653 42.231z" fill="#121325"/></g></g></g></g></g></g></g></g></g></g></g></g><g><g><g><g><g><g><g><g><g><g><g><g><g><path d="m93.705 249.736c-.008.001-.021.001-.033 0h-.07c-17.691 0-32.084-14.395-32.084-32.088 0-14.126 9.055-26.439 22.535-30.643 1.217-.38 2.541-.141 3.549.638 1.01.778 1.576 1.999 1.518 3.271-.08 1.713-.117 3.528-.117 5.552 0 16.34 2.752 32.345 8.18 47.576.277.536.432 1.143.432 1.787-.002 2.157-1.75 3.907-3.91 3.907zm-12.516-52.968c-7.264 4.297-11.859 12.129-11.859 20.881 0 11.462 7.986 21.095 18.686 23.625-4.502-14.349-6.797-29.291-6.827-44.506z" fill="#121325"/></g></g></g></g></g></g></g></g></g></g></g></g><g><g><g><g><g><g><g><g><g><g><g><g><path d="m368.266 249.736h-.088c-1.271 0-2.465-.619-3.195-1.662-.732-1.041-.91-2.372-.48-3.569 5.539-15.365 8.346-31.527 8.346-48.039 0-2.023-.037-3.839-.117-5.552-.057-1.271.508-2.49 1.516-3.269 1.01-.78 2.338-1.015 3.545-.642 13.494 4.186 22.559 16.5 22.559 30.645-.002 17.694-14.395 32.088-32.086 32.088zm12.396-52.978c-.029 15.226-2.324 30.173-6.828 44.521 10.709-2.524 18.703-12.161 18.703-23.63 0-8.766-4.601-16.603-11.875-20.891z" fill="#121325"/></g></g></g></g></g></g></g></g></g></g></g></g></g><g><g><g><g><g><g><g><g><g><g><g><g><path d="m230.926 346.203c-12.709 0-25.326-1.589-37.504-4.725-47.984-12.381-86.646-47.644-103.426-94.328-5.844-16.219-8.807-33.272-8.807-50.685 0-2.137.041-4.064.123-5.893.02-.452.113-.921.281-1.338l27.592-68.132c.617-1.524 2.127-2.479 3.768-2.437.039 0 3.77.14 10 .14 28.318 0 122.879-2.983 150.717-41.364.754-1.039 1.977-1.633 3.258-1.61 1.285.03 2.471.691 3.176 1.769 28.844 44.154 82.115 68.866 82.648 69.111.932.424 1.658 1.197 2.023 2.153l15.506 40.42c.172.445.26.921.26 1.398.08 1.706.121 3.639.121 5.782 0 17.417-2.965 34.471-8.807 50.688-16.777 46.671-55.434 81.928-103.404 94.307-12.152 3.148-24.779 4.744-37.525 4.744zm-141.834-154.665c-.061 1.529-.09 3.149-.09 4.928 0 16.507 2.809 32.67 8.346 48.039 15.904 44.251 52.551 77.673 98.023 89.408 23.109 5.95 48.123 5.937 71.123-.017 45.471-11.735 82.107-45.15 98.008-89.388 5.539-15.369 8.346-31.531 8.346-48.043 0-1.801-.029-3.438-.092-4.985l-14.713-38.354c-8.807-4.253-53.477-27.16-81.48-66.835-32.275 36.296-117.482 40.327-153.609 40.327-3.232 0-5.785-.035-7.543-.071z" fill="#121325"/></g></g></g></g></g></g></g></g></g></g></g></g><g><g><g><g><g><g><g><g><g><g><g><g><path d="m213.506 378.232c-.002 0-.002 0-.004 0-8.527-.002-15.27-7.688-16.678-9.417-16.385-15.475-9.34-27.036-5.533-31.301.74-.831 1.799-1.306 2.914-1.306h9.996c1.018 0 1.996.398 2.725 1.108l22.559 21.992c1.162 1.131 1.502 2.862.857 4.35-4.184 9.671-9.85 14.574-16.836 14.574zm-17.463-34.21c-2.145 2.946-4.547 9.115 6.326 19.282.146.139.283.288.408.447 1.461 1.849 6.25 6.665 10.727 6.667 3.684 0 6.549-3.655 8.531-7.462l-19.424-18.935h-6.568z" fill="#121325"/></g></g></g></g></g></g></g></g></g></g></g></g><g><g><g><g><g><g><g><g><g><g><g><g><path d="m243.9 376.275c-.002 0 0 0-.002 0-7.289 0-14.09-3.956-20.213-11.755-.646-.824-.936-1.87-.801-2.908.131-1.038.674-1.979 1.506-2.613l28.861-21.991c.68-.518 1.51-.799 2.367-.799h11.697c1.174 0 2.285.527 3.025 1.435 3.863 4.73 8.131 14.638-6.514 28.011-1.478 1.825-9.183 10.62-19.926 10.62zm-11.461-13.587c3.75 3.836 7.594 5.773 11.461 5.773 7.773 0 13.896-7.772 13.959-7.851.145-.192.311-.373.49-.535 6.947-6.273 9.264-11.666 6.906-16.054h-8.318z" fill="#121325"/></g></g></g></g></g></g></g></g></g></g></g></g></g></svg>