<svg enable-background="new 0 0 520 520" height="512" viewBox="0 0 520 520" width="512" xmlns="http://www.w3.org/2000/svg"><g id="_x31_97_x2C__Flowers_x2C__Garden_x2C__Grass_x2C__Garden"><g><g><path d="m481.735 342.5s-25.181 19.76-40.9 73.02c-.34-64.97 18.65-118.02 18.65-118.02s-19.841 15.56-38.75 54.93c2.51-113.42 34.47-203.51 34.97-204.91-1.21.94-97.94 78.02-127.641 295.75-12.21-104.21 21.591-199.5 22.03-200.76-.71.56-29.46 23.57-55.27 81.311l-.28-.13c3.15-142.911 43.72-256.19 43.72-256.19s-96.39 75.59-144.13 284.37l-.8.33c-23-55.69-50.37-77.46-51.061-78.05.381 1.08 29.421 82.97 18.931 172.51-25.521-186.98-108.54-253.24-109.69-254.15.42 1.21 27.91 78.641 30.05 176.12-16.25-33.85-33.3-47.22-33.3-47.22s25.84 72.149 11.931 146.09h47.699 55.86 39.51 17.931 37.069 66.84 8.16 56.84 55.511 25.92c-11.91-63.271 10.2-125.001 10.2-125.001z" fill="#aeef66"/><path d="m193.335 352.2c11.89 28.78 22.6 66.63 27.86 115.3h-17.931-39.51c-.77-7.11-1.62-14.05-2.55-20.84 10.49-89.54-18.55-171.43-18.931-172.51.692.59 28.062 22.36 51.062 78.05z" fill="#aeef66"/><path d="m221.195 467.5c-5.261-48.67-15.971-86.52-27.86-115.3l.8-.33c47.74-208.78 144.13-284.37 144.13-284.37s-40.569 113.28-43.72 256.19l.28.13c-15.45 34.569-29.851 81.58-36.561 143.68z" fill="#86bc31"/><path d="m430.765 72.5c9.67 0 17.5 7.83 17.5 17.5s-7.83 17.5-17.5 17.5-17.5-7.83-17.5-17.5 7.83-17.5 17.5-17.5z" fill="#feccc1"/><circle cx="138.265" cy="147.5" fill="#feccc1" r="30"/><path d="m440.835 415.52c.08 16.771 1.46 34.33 4.78 51.98h-55.511c5.5-50.94 17.851-88.45 30.631-115.07 18.909-39.37 38.75-54.93 38.75-54.93s-18.99 53.05-18.65 118.02z" fill="#aeef66"/><path d="m350.095 242.51c-.439 1.26-34.24 96.55-22.03 200.76v.011c-1.079 7.89-2.069 15.96-2.96 24.22h-66.84c6.71-62.1 21.11-109.11 36.561-143.68 25.809-57.741 54.559-80.751 55.269-81.311z" fill="#aeef66"/><path d="m161.205 446.66c.93 6.79 1.78 13.729 2.55 20.84h-55.86c-4.729-43.77-15.35-76-26.33-98.87-2.14-97.479-29.63-174.91-30.05-176.12 1.15.91 84.17 67.17 109.69 254.15z" fill="#86bc31"/><path d="m471.535 467.5h-25.92c-3.32-17.65-4.7-35.21-4.78-51.98 15.72-53.26 40.9-73.02 40.9-73.02s-22.11 61.73-10.2 125z" fill="#86bc31"/><path d="m455.705 147.52c-.5 1.4-32.46 91.49-34.97 204.91-12.78 26.62-25.131 64.13-30.631 115.07h-56.84-8.16c.891-8.26 1.881-16.33 2.96-24.22v-.011c29.701-217.729 126.431-294.809 127.641-295.749z" fill="#86bc31"/><path d="m107.895 467.5h-47.7c13.909-73.94-11.931-146.09-11.931-146.09s17.05 13.37 33.3 47.22c10.981 22.87 21.601 55.1 26.331 98.87z" fill="#aeef66"/><g fill="#f95948"><circle cx="470.765" cy="225" r="7.5"/><circle cx="370.765" cy="140" r="7.5"/><circle cx="255.765" cy="60" r="7.5"/><circle cx="200.765" cy="190" r="7.5"/><circle cx="85.765" cy="100" r="7.5"/><circle cx="45.765" cy="285" r="7.5"/></g></g></g></g></svg>