<svg xmlns="http://www.w3.org/2000/svg" version="1.1" xmlns:xlink="http://www.w3.org/1999/xlink" width="512" height="512" x="0" y="0" viewBox="0 0 512 512" style="enable-background:new 0 0 512 512" xml:space="preserve" class=""><g><path fill="#ff8870" d="M117.658 260.393a72.422 72.422 0 0 1-11.516-28.787c-1.047-6.3 3.842-12.028 10.228-12.028 6.567 0 11.462-6.029 10.137-12.461a72.418 72.418 0 0 1 .377-31.003c1.443-6.221 8.152-9.642 14.052-7.198 6.067 2.513 12.896-1.184 14.134-7.633a72.403 72.403 0 0 1 12.212-28.498c3.714-5.195 11.221-5.789 15.737-1.273 4.643 4.643 12.368 3.841 15.979-1.643a72.42 72.42 0 0 1 22.189-21.656c5.42-3.378 12.583-1.054 15.027 4.847 2.513 6.067 9.956 8.282 15.392 4.597a72.422 72.422 0 0 1 28.787-11.516c6.3-1.047 12.028 3.842 12.028 10.228 0 6.567 6.029 11.462 12.461 10.137a72.418 72.418 0 0 1 31.003.377c6.221 1.443 9.642 8.152 7.198 14.052-2.513 6.067 1.184 12.896 7.633 14.134a72.403 72.403 0 0 1 28.498 12.212c5.195 3.714 5.789 11.221 1.273 15.737-4.643 4.643-3.841 12.368 1.643 15.979a72.42 72.42 0 0 1 21.656 22.189c3.378 5.42 1.054 12.583-4.847 15.027-6.067 2.513-8.282 9.956-4.597 15.392a72.422 72.422 0 0 1 11.516 28.787c1.047 6.3-3.842 12.028-10.228 12.028-6.567 0-11.462 6.029-10.137 12.461a72.418 72.418 0 0 1-.377 31.003c-1.443 6.221-8.152 9.642-14.052 7.198-6.067-2.513-12.896 1.184-14.134 7.633a72.403 72.403 0 0 1-12.212 28.498c-3.714 5.195-11.221 5.789-15.737 1.273-4.643-4.643-12.368-3.841-15.979 1.643a72.42 72.42 0 0 1-22.189 21.656c-5.42 3.378-12.583 1.054-15.027-4.847-2.513-6.067-9.956-8.282-15.392-4.597a72.422 72.422 0 0 1-28.787 11.516c-6.3 1.047-12.028-3.842-12.028-10.228 0-6.567-6.029-11.462-12.461-10.137a72.418 72.418 0 0 1-31.003-.377c-6.221-1.443-9.642-8.152-7.198-14.052 2.513-6.067-1.184-12.896-7.633-14.134a72.403 72.403 0 0 1-28.498-12.212c-5.195-3.714-5.789-11.221-1.273-15.737 4.643-4.643 3.841-12.368-1.643-15.979a72.42 72.42 0 0 1-21.656-22.189c-3.378-5.42-1.054-12.583 4.847-15.027 6.066-2.513 8.282-9.956 4.597-15.392z" opacity="1" data-original="#ff8870" class=""></path><circle cx="256" cy="256" r="105.634" fill="#ffe45c" opacity="1" data-original="#ffe45c" class=""></circle><path fill="#ffda45" d="M296 321.634c-58.34 0-105.634-47.294-105.634-105.634 0-18.896 4.966-36.63 13.658-51.976-32.035 18.142-53.658 52.532-53.658 91.976 0 58.34 47.294 105.634 105.634 105.634 39.444 0 73.834-21.622 91.976-53.658-15.346 8.691-33.08 13.658-51.976 13.658z" opacity="1" data-original="#ffda45" class=""></path><ellipse cx="188.845" cy="258.37" fill="#ffffff" rx="19.733" ry="24.779" transform="rotate(-89.89 188.802 258.364)" opacity="1" data-original="#f2f6fc" class=""></ellipse><ellipse cx="323.155" cy="258.664" fill="#ffffff" rx="19.733" ry="24.779" transform="rotate(-89.89 323.1 258.67)" opacity="1" data-original="#f2f6fc" class=""></ellipse><g fill="#555a66"><path d="M203.524 251.173a7.5 7.5 0 0 1-7.5-7.5v-10.07a7.5 7.5 0 0 1 15 0v10.07a7.5 7.5 0 0 1-7.5 7.5zM308.331 251.173a7.5 7.5 0 0 1-7.5-7.5v-10.07a7.5 7.5 0 0 1 15 0v10.07a7.5 7.5 0 0 1-7.5 7.5zM280.341 242.177a7.5 7.5 0 0 0-7.5 7.5c0 2.553-2.077 4.63-4.63 4.63s-4.63-2.077-4.63-4.63a7.5 7.5 0 0 0-15 0c0 2.553-2.077 4.63-4.63 4.63s-4.63-2.077-4.63-4.63a7.5 7.5 0 0 0-15 0c0 10.824 8.806 19.63 19.63 19.63 4.579 0 8.787-1.589 12.13-4.227 3.343 2.638 7.551 4.227 12.13 4.227 10.824 0 19.63-8.806 19.63-19.63a7.5 7.5 0 0 0-7.5-7.5z" fill="#555a66" opacity="1" data-original="#555a66" class=""></path></g><circle cx="431.716" cy="80.284" r="20" fill="#87c7ff" opacity="1" data-original="#87c7ff" class=""></circle><circle cx="256" cy="456" r="20" fill="#cdc3b4" opacity="1" data-original="#cdc3b4"></circle><path fill="#ffffff" d="M305.623 457.296a7.501 7.501 0 0 1-1.85-14.769 191.998 191.998 0 0 0 144.244-172.784c.292-4.131 3.884-7.238 8.009-6.954a7.5 7.5 0 0 1 6.954 8.009c-3.1 43.971-19.777 85.061-48.228 118.828-28.125 33.38-65.218 56.699-107.268 67.436a7.563 7.563 0 0 1-1.861.234zM206.005 457.201a7.487 7.487 0 0 1-1.875-.239C112.498 433.378 48.5 350.739 48.5 256c0-114.416 93.084-207.5 207.5-207.5 52.894 0 103.271 19.907 141.849 56.055 38.395 35.977 61.533 84.604 65.151 136.927a7.5 7.5 0 0 1-14.964 1.036C441.094 142.134 356.742 63.5 256 63.5 149.855 63.5 63.5 149.855 63.5 256c0 87.893 59.367 164.558 144.37 186.436a7.5 7.5 0 0 1-1.865 14.765z" opacity="1" data-original="#e9edf5" class=""></path><path fill="#ffffff" d="M68.786 426.913a7.48 7.48 0 0 1-5.651-2.566C22.422 377.742 0 317.955 0 256c0-68.38 26.628-132.667 74.981-181.02C123.333 26.629 187.62 0 256 0c50.443 0 99.246 14.657 141.134 42.385a7.5 7.5 0 0 1-8.28 12.508C349.429 28.795 303.489 15 256 15 123.112 15 15 123.112 15 256c0 58.325 21.106 114.607 59.432 158.479a7.501 7.501 0 0 1-5.646 12.434zM256 512c-63.814 0-124.944-23.619-172.13-66.505a7.5 7.5 0 0 1 10.089-11.101C138.378 474.766 195.925 497 256 497c132.888 0 241-108.112 241-241 0-47.491-13.795-93.433-39.896-132.857a7.5 7.5 0 1 1 12.508-8.28C497.343 156.75 512 205.555 512 256c0 68.38-26.629 132.667-74.98 181.02C388.667 485.371 324.38 512 256 512z" opacity="1" data-original="#f2f6fc" class=""></path></g></svg>