<svg xmlns="http://www.w3.org/2000/svg" version="1.1" xmlns:xlink="http://www.w3.org/1999/xlink" width="512" height="512" x="0" y="0" viewBox="0 0 512 512" style="enable-background:new 0 0 512 512" xml:space="preserve" class=""><g><path d="M327.586 239.684c8.82-17.394 12.25-19.207 10.388-23.176-.686-1.421-2.058-2.401-3.626-2.695l-20.971-3.577 1.176-21.216a4.781 4.781 0 0 0-1.862-4.116c-1.225-.98-2.891-1.323-4.361-.882l-20.481 5.83-8.183-19.648c-.588-1.421-1.862-2.548-3.43-2.891s-3.185.098-4.361 1.127L256 182.601l-15.875-14.161a5.008 5.008 0 0 0-4.361-1.127c-1.519.343-2.793 1.421-3.43 2.891l-8.183 19.648-20.432-5.83a4.918 4.918 0 0 0-4.41.882 4.781 4.781 0 0 0-1.862 4.116l1.176 21.216-20.971 3.577c-1.568.294-2.891 1.274-3.577 2.695-.686 1.47-.637 3.136.098 4.508l10.29 18.668-17.346 12.347c-1.274.931-2.058 2.401-2.058 3.969s.784 3.087 2.058 4.018l17.346 12.348-10.29 18.619c-.784 1.372-.784 3.087-.098 4.508s2.009 2.401 3.577 2.695l20.971 3.577-1.176 21.265a4.749 4.749 0 0 0 1.862 4.067c1.225.98 2.891 1.323 4.361.882l20.481-5.831 8.183 19.648c.637 1.47 1.911 2.548 3.43 2.891 1.568.343 3.185-.049 4.361-1.127L256 329.399l15.875 14.161c1.225 1.127 2.891 1.47 4.361 1.127a4.772 4.772 0 0 0 3.43-2.891l8.183-19.648 20.481 5.831c1.47.441 3.136.098 4.361-.882a4.749 4.749 0 0 0 1.862-4.067l-1.176-21.265 20.971-3.577c1.568-.294 2.891-1.274 3.577-2.695s.686-3.136-.098-4.508l-10.241-18.619 17.296-12.348c1.274-.931 2.058-2.45 2.058-4.018 0-4.361-3.821-4.508-19.354-16.316zM292.602 256c0 20.188-16.415 36.602-36.602 36.602S219.399 276.188 219.399 256c0-20.187 16.414-36.601 36.601-36.601s36.602 16.414 36.602 36.601z" fill="#ffffff" opacity="1" data-original="#000000" class=""></path><path d="M256 6.11C118.217 6.11 6.11 118.217 6.11 256c0 68.646 27.929 130.825 72.86 176.001-10.583 16.071-8.771 37.924 5.292 52.036 17.296 17.247 46.303 16.12 61.885-3.822 33.221 16.316 70.41 25.675 109.854 25.675 137.783 0 249.89-112.107 249.89-249.89C505.89 118.217 393.783 6.11 256 6.11zm0 489.981c-37.581 0-73.105-8.82-104.807-24.303 6.909-15.238 4.116-33.809-8.378-46.303-15.778-15.777-41.257-16.071-57.475-.931C42.515 381.141 15.909 321.658 15.909 256 15.909 123.607 123.607 15.909 256 15.909S496.091 123.607 496.091 256 388.393 496.091 256 496.091z" fill="#ffffff" opacity="1" data-original="#000000" class=""></path><path d="M385.943 150.458a41.198 41.198 0 0 0-6.762-49.586c-16.169-16.218-42.334-16.218-58.553 0-.147.147-.245.294-.392.49-19.795-8.281-41.452-12.935-64.236-12.935-92.41 0-167.574 75.163-167.574 167.573 0 92.411 75.163 167.574 167.574 167.574S423.574 348.411 423.574 256c0-39.982-14.161-76.682-37.631-105.542zM256 413.774c-86.972 0-157.774-70.753-157.774-157.774 0-86.972 70.802-157.774 157.774-157.774 20.53 0 40.129 4.018 58.161 11.171-9.163 15.827-7.056 36.455 6.468 50.027 16.169 16.12 42.432 16.12 58.553 0 .245-.294.49-.588.735-.833 21.167 26.851 33.858 60.659 33.858 97.408-.001 87.022-70.754 157.775-157.775 157.775z" fill="#ffffff" opacity="1" data-original="#000000" class=""></path></g></svg>