<svg xmlns="http://www.w3.org/2000/svg" version="1.1" xmlns:xlink="http://www.w3.org/1999/xlink" width="512" height="512" x="0" y="0" viewBox="0 0 512 512" style="enable-background:new 0 0 512 512" xml:space="preserve" class=""><g><path d="M256 16C123.664 16 16 123.664 16 256a239.337 239.337 0 0 0 31.934 119.509 22.741 22.741 0 0 0 25.99 36.651A239.337 239.337 0 0 0 256 496c132.337 0 240-107.664 240-240S388.337 16 256 16ZM51.067 391.778a12.756 12.756 0 1 1 12.755 12.755 12.77 12.77 0 0 1-12.755-12.755ZM256 486a229.371 229.371 0 0 1-174.316-80.149 22.739 22.739 0 0 0-25.234-35.6A229.344 229.344 0 0 1 26 256C26 129.178 129.178 26 256 26s230 103.178 230 230-103.178 230-230 230Zm139.317-355.778a187.5 187.5 0 0 0-114.71-60.393 24.839 24.839 0 0 0-49.214 0A188.06 188.06 0 0 0 68.22 256c0 103.542 84.238 187.78 187.78 187.78S443.78 359.542 443.78 256a187.294 187.294 0 0 0-48.463-125.778ZM256 58.378a14.845 14.845 0 1 1-14.844 14.844A14.861 14.861 0 0 1 256 58.378Zm0 375.4c-98.028 0-177.78-79.752-177.78-177.78A177.41 177.41 0 0 1 232.056 79.833a24.839 24.839 0 0 0 47.889 0A177.411 177.411 0 0 1 433.78 256c0 98.028-79.752 177.78-177.78 177.78Zm0-207.847A30.067 30.067 0 1 0 286.066 256 30.1 30.1 0 0 0 256 225.933Zm0 50.134A20.067 20.067 0 1 1 276.066 256 20.09 20.09 0 0 1 256 276.067Zm48.328-87.9a17.512 17.512 0 0 0-31.663-13.809 83.486 83.486 0 1 0 31.663 13.809ZM287.333 176.4a7.534 7.534 0 1 1-7.533 7.533 7.541 7.541 0 0 1 7.533-7.533ZM256 329.33a73.33 73.33 0 1 1 13.8-145.356 17.5 17.5 0 0 0 29.407 12.82A73.3 73.3 0 0 1 256 329.33Zm133.854-94.791A135.815 135.815 0 0 0 256 120.44c-74.748 0-135.56 60.812-135.56 135.56S181.252 391.56 256 391.56a135.815 135.815 0 0 0 133.854-114.1 21.713 21.713 0 0 0 0-42.922ZM256 381.56a125.56 125.56 0 1 1 123.854-146.208 21.707 21.707 0 0 0 0 41.3A125.793 125.793 0 0 1 256 381.56Zm130.556-113.849A11.711 11.711 0 1 1 398.267 256a11.724 11.724 0 0 1-11.711 11.711Zm-84-52.144a5 5 0 0 0-6.124-6.124l-23.789 6.374-12.313-21.328a5 5 0 0 0-8.66 0l-12.314 21.328-23.789-6.374a5 5 0 0 0-6.124 6.124l6.374 23.789-21.328 12.314a5 5 0 0 0 0 8.66l21.328 12.314-6.374 23.789a5 5 0 0 0 6.124 6.124l23.789-6.374 12.314 21.328a5 5 0 0 0 8.66 0l12.315-21.328 23.789 6.374a5 5 0 0 0 6.124-6.124l-6.375-23.789 21.328-12.314a5 5 0 0 0 0-8.66l-21.328-12.314ZM305.011 256l-17.151 9.9a5 5 0 0 0-2.33 5.624l5.126 19.13-19.13-5.126a5 5 0 0 0-5.624 2.33L256 305.011l-9.9-17.151a5 5 0 0 0-5.624-2.33l-19.13 5.126 5.126-19.13a5 5 0 0 0-2.33-5.624L206.989 256l17.151-9.9a5 5 0 0 0 2.33-5.624l-5.126-19.13 19.13 5.126a5 5 0 0 0 5.624-2.33l9.9-17.151 9.9 17.151a5 5 0 0 0 5.624 2.33l19.13-5.126-5.126 19.13a5 5 0 0 0 2.33 5.624Z" fill="#ffffff" opacity="1" data-original="#000000" class=""></path></g></svg>