<svg id="Layer_1" enable-background="new 0 0 512 512" height="512" viewBox="0 0 512 512" width="512" xmlns="http://www.w3.org/2000/svg"><g id="XMLID_1_"><g id="XMLID_3561_"><circle id="XMLID_2344_" cx="382" cy="130" fill="#e36415" r="100"/><path id="XMLID_2343_" d="m482 130c0 55.2-44.8 100-100 100 22 0 39.8-44.8 39.8-100s-17.8-100-39.8-100c55.2 0 100 44.8 100 100z" fill="#b24e10"/><circle id="XMLID_2346_" cx="105" cy="175" fill="#e36415" r="100"/><path id="XMLID_2345_" d="m205 175c0 55.2-44.8 100-100 100 22 0 39.8-44.8 39.8-100s-17.8-100-39.8-100c55.2 0 100 44.8 100 100z" fill="#b24e10"/><path id="XMLID_1992_" d="m500.5 248.6c-14.2 14.2-49.2 4.2-90-22.7-21.8-14.4-45.3-33.5-68.1-56.3s-42-46.3-56.3-68.1c-26.9-40.8-36.9-75.8-22.7-90s49.2-4.2 90 22.7c-6 1.8-11.7 4.1-17.1 6.9-21.9-10.6-39.5-13-47.9-4.6s-6.1 26 4.6 47.9c11.1 22.9 31.4 50.4 57.8 76.9 26.4 26.4 54 46.7 76.9 57.8 21.9 10.6 39.5 13 47.9 4.6s6.1-26-4.6-47.9c2.8-5.4 5.1-11.1 6.9-17.1 26.8 40.7 36.9 75.7 22.6 89.9z" fill="#ffc96f"/><path id="XMLID_2111_" d="m205 175c0 19.3-5.5 37.3-14.9 52.6-24.1-7-38.8 26.8-61.2 26.8-22.3 0-35.5-25.2-50.7-26-15.1-.7-56.1 1.4-56.9 1.4-10.3-15.7-16.3-34.5-16.3-54.8 0-19.3 5.5-37.3 14.9-52.6 46.1 0 55.8-11.9 84.5-11.9s52.6 11.9 85.6 11.9c9.5 15.3 15 33.3 15 52.6z" fill="#cde9fe"/><path id="XMLID_2108_" d="m202.4 198c-2.5 11-6.7 20.6-12.3 29.7-24.1-7-38.8 26.7-61.2 26.7-22.3 0-35.5-25.2-50.7-26-15.1-.7-56.1 1.4-56.9 1.4-7.4-11.3-12.6-24.2-14.9-38 0 0 50.7 3.6 72.5-.1 21.8-3.6 23.1-23.8 50-23.8s31 38.1 73.5 30.1z" fill="#ffc96f"/><path id="XMLID_2107_" d="m204.1 161.6c-37 0-56.5-14.5-99.1-14.5s-66.5 14.5-99.1 14.5c1.9-14.2 6.8-27.5 14-39.2 46.1 0 55.8-11.9 84.5-11.9s52.6 11.9 85.6 11.9c7.3 11.7 12.2 25 14.1 39.2z" fill="#ffc96f"/><path id="XMLID_2347_" d="m136.7 114.5c5.1 16.8 8.1 37.8 8.1 60.5 0 32.3-6.1 61.1-15.6 79.4 22.1-.3 36.8-33.8 60.8-26.8 9.5-15.3 14.9-33.3 14.9-52.6s-5.5-37.3-14.9-52.6c-20.1 0-36.8-4.4-53.3-7.9z" fill="#9cd3fc"/><path id="XMLID_2348_" d="m144.8 173.1v1.9c0 32.3-6.1 61.1-15.6 79.4 22.1-.3 36.9-33.7 60.8-26.7 5.6-9 9.8-18.7 12.3-29.7-32.5 6-42.5-14.8-57.5-24.9z" fill="#ffb234"/><path id="XMLID_2352_" d="m136.7 114.5c3.3 10.8 5.7 23.2 7 36.8 20.1 4.3 36.6 10.3 60.4 10.3-1.9-14.2-6.8-27.5-14-39.2-20.2 0-36.9-4.4-53.4-7.9z" fill="#ffb234"/><ellipse id="XMLID_1311_" cx="128.9" cy="212.5" fill="#e36415" rx="23.9" ry="15.9"/><circle id="XMLID_1305_" cx="227.7" cy="359.3" fill="#3279af" r="75"/><path id="XMLID_252_" d="m227.7 284.3c13.8 0 25 33.6 25 75s-11.2 75-25 75c41.4 0 75-33.6 75-75s-33.6-75-75-75z" fill="#275e87"/><g fill="#b3d34c"><path id="XMLID_2135_" d="m240.7 295c14.2 20.4-18.2 8.2-19.6 24.1-.8 9.8-5.1 17.6-15.3 21.4-10.2 3.7-11.6-16-19.7-16.9-8.1-1-7.5 21-14.3 19.3s-3.3-15.5-10.5-18.6c12.6-23.8 37.6-40 66.3-40 6.4 0 12.5.8 18.4 2.3.1 0-11.5-.5-5.3 8.4z"/><path id="XMLID_1303_" d="m225.3 360.4c-1.8-.6-10.5 7.5-10.4 11 .1 2.7 3 4.7 4.4 5.2 1.5.6 7.3.8 8.5-.5s1.9-5 1.9-7.4c0-2.3-1.8-7.5-4.4-8.3z"/><path id="XMLID_1302_" d="m252 390.6c-3.2-.5-2.3 5-5.2 6.2-1.9.8-6-3.9-8.8-3.1s-5.8 6.5-8.1 7.6-11.2 2.3-12.5 4.5-4.3 11.7-.7 14.5 13.4-3.7 21.1-2.2 6.5 6.9 10.5 7.2 11.4-9.2 12.6-15.7-4.8-18.3-8.9-19z"/></g><path id="XMLID_288_" d="m252 390.6c-.7-.1-1.2.1-1.6.5-1.8 11.5-4.6 21.5-7.9 28.9 2.8 2.2 3 5.1 5.9 5.3 4 .3 11.4-9.2 12.6-15.7 1-6.6-4.9-18.3-9-19z" fill="#9abd2d"/><g id="XMLID_1301_"><path id="XMLID_2186_" d="m186.9 372.8h26.3v10h-26.3z" fill="#b3d34c" transform="matrix(.667 .745 -.745 .667 348.251 -23.219)"/></g><g id="XMLID_1300_"><path id="XMLID_2185_" d="m185.8 344.3h27.6v10h-27.6z" fill="#b3d34c" transform="matrix(.228 .974 -.974 .228 494.082 75.171)"/></g><g id="XMLID_1299_"><path id="XMLID_2184_" d="m242.4 333.2-2.5-9.7c18-4.6 16.4-16 16.2-17.3l9.8-2.1c1.6 7.6-1.2 23.4-23.5 29.1z" fill="#9abd2d"/></g><g id="XMLID_1298_"><path id="XMLID_2183_" d="m263 386.1c-7.8-15.5-18.4-12.6-18.5-12.6l-2.8-9.6c6.5-1.9 21.1-.6 30.3 17.7z" fill="#9abd2d"/></g><circle id="XMLID_1296_" cx="382" cy="457" fill="#db3529" r="50"/><path id="XMLID_1032_" d="m382 407c11 0 20 22.4 20 50s-9 50-20 50c27.6 0 50-22.4 50-50s-22.4-50-50-50z" fill="#b4271e"/><path id="XMLID_2193_" d="m430.2 470.3c-1.5 5.4-3.9 10.5-7 15-27.2 13.8-72.2 3.4-86.9-8-1.6-3.5-2.7-7.1-3.4-10.9 7.6 6.3 17.7-9 32.6-7.2 19.8 2.4 32.1 28 64.7 11.1z" fill="#e25d56"/><path id="XMLID_2196_" d="m431.5 450.1c-29.9 19.5-80.1-21.3-93.7-16.5 2.2-4.2 5-8 8.2-11.3 21.9-8 40.9 19 75.2 3.6 5.4 6.9 9.1 15.2 10.3 24.2z" fill="#e25d56"/><path id="XMLID_1121_" d="m400.7 474.9c-1 6.4-2.5 12.1-4.3 16.9 9.7-.5 19-2.5 26.8-6.4 3.1-4.5 5.5-9.6 7-15-12.2 6.2-21.6 6.6-29.5 4.5z" fill="#db3529"/><path id="XMLID_2400_" d="m399 430.8c1.7 7 2.8 15 3 23.7 10.6 1.9 20.9 1.3 29.5-4.4-1.3-9.1-4.9-17.3-10.4-24.2-8.1 3.7-15.4 5-22.1 4.9z" fill="#db3529"/><g id="XMLID_1288_"><g id="XMLID_1290_"><path id="XMLID_2246_" d="m251 215h10v30h-10z" fill="#ffb234"/></g><g id="XMLID_1289_"><path id="XMLID_2245_" d="m241 225h30v10h-30z" fill="#ffb234"/></g></g><g id="XMLID_1285_"><g id="XMLID_1287_"><path id="XMLID_2244_" d="m75 392h10v30h-10z" fill="#ffb234"/></g><g id="XMLID_1286_"><path id="XMLID_2243_" d="m65 402h30v10h-30z" fill="#ffb234"/></g></g><g id="XMLID_1282_"><g id="XMLID_1284_"><path id="XMLID_2242_" d="m389 309h10v30h-10z" fill="#ffb234"/></g><g id="XMLID_1283_"><path id="XMLID_2241_" d="m379 319h30v10h-30z" fill="#ffb234"/></g></g><g id="XMLID_1279_"><g id="XMLID_1281_"><path id="XMLID_2239_" d="m200 30h10v30h-10z" fill="#ffb234"/></g><g id="XMLID_1280_"><path id="XMLID_2238_" d="m190 40h30v10h-30z" fill="#ffb234"/></g></g></g></g></svg>