<svg id="Layer_1" height="512" viewBox="0 0 128 128" width="512" xmlns="http://www.w3.org/2000/svg" data-name="Layer 1"><path d="m63.181 55.848h-38.681a1.751 1.751 0 0 1 -1.682-1.265l-12-41.6a1.751 1.751 0 0 1 3.364-.97l11.634 40.335h37.365a1.75 1.75 0 0 1 0 3.5z" fill="#e8e8e8"/><path d="m115.5 117.25a1.746 1.746 0 0 1 -1.411-.714l-24.433-33.269-27.718-27.936a1.765 1.765 0 0 1 -.405-.642l-11.579-32.299-37.824-8.18a1.75 1.75 0 1 1 .74-3.42l38.774 8.384a1.753 1.753 0 0 1 1.277 1.12l11.779 32.848 27.532 27.752a1.575 1.575 0 0 1 .168.2l24.51 33.373a1.749 1.749 0 0 1 -1.409 2.786z" fill="#e8e8e8"/><circle cx="37.841" cy="76.127" fill="#67537e" r="4.03"/><circle cx="28.53" cy="110.167" fill="#67537e" r="4.03"/><circle cx="95.342" cy="44.068" fill="#67537e" r="4.03"/><g fill="#7d6599"><circle cx="12.5" cy="12.5" r="6"/><circle cx="51.273" cy="20.885" r="6"/><circle cx="63.181" cy="54.098" r="6"/><circle cx="90.99" cy="82.127" r="6"/><circle cx="115.5" cy="115.5" r="6"/><circle cx="24.5" cy="54.098" r="6"/></g><path d="m67 101.387h-1.25v-1.25a1.75 1.75 0 0 0 -3.5 0v1.25h-1.25a1.75 1.75 0 0 0 0 3.5h1.25v1.25a1.75 1.75 0 0 0 3.5 0v-1.25h1.25a1.75 1.75 0 0 0 0-3.5z" fill="#67537e"/><path d="m98.343 13.75h-1.25v-1.25a1.75 1.75 0 0 0 -3.5 0v1.25h-1.25a1.75 1.75 0 0 0 0 3.5h1.25v1.25a1.75 1.75 0 0 0 3.5 0v-1.25h1.25a1.75 1.75 0 0 0 0-3.5z" fill="#67537e"/><path d="m114.47 71.665h-1.25v-1.25a1.75 1.75 0 1 0 -3.5 0v1.25h-1.25a1.75 1.75 0 0 0 0 3.5h1.25v1.25a1.75 1.75 0 0 0 3.5 0v-1.25h1.25a1.75 1.75 0 0 0 0-3.5z" fill="#67537e"/></svg>