<svg id="Capa_1" enable-background="new 0 0 512 512" height="512" viewBox="0 0 512 512" width="512" xmlns="http://www.w3.org/2000/svg"><g><ellipse cx="411.15" cy="240.487" fill="#ffbd86" rx="46.545" ry="46.545" transform="matrix(.083 -.997 .997 .083 137.571 630.401)"/><ellipse cx="100.85" cy="240.487" fill="#fed2a4" rx="46.545" ry="46.545" transform="matrix(.997 -.083 .083 .997 -19.492 9.138)"/><path d="m399.561 291.722c-23.192 56.46-78.735 96.219-143.561 96.219-13.085 0-25.799-1.617-37.936-4.678 0 0-.01 0-.021-.01-2.214-1.153-211.354-111.333-9.055-298.363 14.826-4.708 30.62-7.253 47.012-7.253 110.94 0 185.179 112.825 143.561 214.085z" fill="#fed2a4"/><path d="m218.064 383.264c-48.001-12.055-87.111-46.476-105.626-91.542-34.351-83.58 10.049-179.358 96.549-206.832-39.882 51.67-107.14 172.595 9.077 298.374z" fill="#ffbd86"/><ellipse cx="177.19" cy="257.217" fill="#ffa1ac" rx="29.796" ry="23.728"/><ellipse cx="338.693" cy="257.217" fill="#ffa1ac" rx="29.796" ry="23.728"/><g fill="#333941"><path d="m208.737 239.124c-4.268 0-7.727-3.46-7.727-7.727 0-3.559-2.896-6.454-6.455-6.454-3.56 0-6.455 2.895-6.455 6.454 0 4.268-3.459 7.727-7.727 7.727s-7.727-3.46-7.727-7.727c0-12.081 9.829-21.909 21.91-21.909s21.909 9.828 21.909 21.909c-.001 4.267-3.46 7.727-7.728 7.727z"/><path d="m335.51 239.124c-4.268 0-7.727-3.46-7.727-7.727 0-3.559-2.896-6.454-6.454-6.454-3.56 0-6.455 2.895-6.455 6.454 0 4.268-3.459 7.727-7.727 7.727s-7.727-3.46-7.727-7.727c0-12.081 9.829-21.909 21.91-21.909s21.909 9.828 21.909 21.909c-.002 4.267-3.461 7.727-7.729 7.727z"/><path d="m257.942 262.553c-8 0-15.606-3.464-20.87-9.504-2.804-3.218-2.468-8.099.75-10.902 3.217-2.804 8.098-2.468 10.902.749 2.327 2.671 5.688 4.203 9.218 4.203s6.89-1.532 9.217-4.203c2.802-3.218 7.685-3.553 10.902-.749 3.218 2.804 3.554 7.685.75 10.902-5.264 6.04-12.87 9.504-20.869 9.504z"/></g><path d="m419.013 162.884c-.066 8.684-.829 17.213-2.227 25.517-.99 5.88-6.318 10.166-12.334 9.263-33.898-5.087-59.968-42.897-71.19-62.104-3.534-6.048-10.766-8.654-17.144-6.068-22.79 9.211-45.137 11.457-64.713 10.406-105.1-78.138-7.13-139.481-7.13-139.481 4.338-.309 8.727-.443 13.146-.413 64.879.526 120.607 38.596 146.354 93.263 9.963 21.121 15.444 44.735 15.238 69.617z" fill="#6b7d8e"/><path d="m251.405 139.898c-23.707-1.278-43.355-7.387-54.842-11.828-6.306-2.432-13.404.021-16.959 5.924-11.622 19.253-39.173 58.047-74.226 61.473-6.297.616-9.736-5.267-10.613-11.533-1.082-7.733-1.612-15.65-1.551-23.699.206-24.882 6.068-48.393 16.371-69.359 24.82-50.536 75.428-86.257 134.69-90.46-11.972 34.825-24.171 93.654 7.13 139.482z" fill="#546370"/><path d="m384.117 343.556v83.98c0 8.603-7.717 15.959-18.298 17.433l-93.87 20.708c-10.025 2.216-20.616 2.216-30.641 0l-45.941-10.138c-58.15-70.565-2.225-120.761-2.225-120.761l47.775 10.828c10.272 2.329 21.152 2.329 31.424 0l85.906-19.482c13.507-1.886 25.87 6.449 25.87 17.432z" fill="#efedfe"/><path d="m195.367 455.539-47.929-10.57c-10.581-1.474-18.308-8.83-18.308-17.433v-83.98c0-10.983 12.364-19.318 25.871-17.432l38.141 8.654c-4.668 30.229-8.315 76.51 2.225 120.761z" fill="#dedef9"/><path d="m419.539 370.303v111.622c0 11.436-9.87 21.203-23.388 23.161 0 0-11.539 6.913-30.476 6.913h-101.319l-7.727-5.821-7.727 5.821h-29.755c-107.686-49.887-29.271-149.98-29.271-149.98l46.672 11.004c4.059.958 8.191 1.617 12.353 1.978l7.099 10.014 8.356-10.014c4.162-.361 8.294-1.02 12.353-1.978l109.768-25.881c17.267-2.504 33.062 8.572 33.062 23.161z" fill="#68a2df"/><path d="m219.146 511.999h-71.564c-18.947 0-9.685-2.143-28.148-6.378 0 0-25.716-12.26-25.716-23.697v-111.621c0-14.589 15.795-25.665 33.062-23.161l63.095 14.877c-3.76 44.252-1.215 104.153 29.271 149.98z" fill="#358cd9"/><path d="m264.356 375.001v136.998h-15.454v-136.998c5.14.453 10.313.453 15.454 0z" fill="#358cd9"/><path d="m413.417 397.221c-14.935-5.6-28.968-9.342-47.747-9.342-8.355 0-15.543 6.421-15.935 14.767-.418 8.91 6.681 16.263 15.497 16.263-8.569 0-15.515 6.947-15.515 15.516 0 8.568 6.946 15.515 15.514 15.515-8.569 0-15.514 6.946-15.514 15.515s6.946 15.515 15.515 15.515c-8.817 0-15.916 7.355-15.497 16.265.393 8.345 7.581 14.766 15.935 14.766h18.473c2.884 0 5.745-.519 8.445-1.531l21.659-8.122c22.131-8.299 36.695-29.624 36.31-53.323-.375-23.206-15.408-43.655-37.14-51.804z" fill="#fed2a4"/><path d="m99.838 397.221c14.935-5.6 28.968-9.342 47.747-9.342 8.355 0 15.543 6.421 15.935 14.767.418 8.91-6.681 16.263-15.497 16.263 8.569 0 15.515 6.947 15.515 15.516 0 8.568-6.946 15.515-15.514 15.515 8.569 0 15.514 6.946 15.514 15.515s-6.946 15.515-15.515 15.515c8.817 0 15.916 7.355 15.497 16.265-.393 8.345-7.581 14.766-15.935 14.766h-15.769c-4.672 0-9.307-.84-13.682-2.481l-19.126-7.172c-22.131-8.299-36.695-29.624-36.311-53.323.376-23.207 15.409-43.655 37.141-51.804z" fill="#ffbd86"/></g></svg>