<svg xmlns="http://www.w3.org/2000/svg" version="1.1" xmlns:xlink="http://www.w3.org/1999/xlink" width="512" height="512" x="0" y="0" viewBox="0 0 300 300" style="enable-background:new 0 0 512 512" xml:space="preserve" class=""><g><g fill="#ffdf7b"><path d="M177.2 243.5c0 8.6-7 15.6-15.6 15.6-.8 0-1.5.7-1.5 1.5s.7 1.5 1.5 1.5c8.6 0 15.6 7 15.6 15.6 0 .8.7 1.5 1.5 1.5s1.5-.7 1.5-1.5c0-8.6 7-15.6 15.6-15.6.8 0 1.5-.7 1.5-1.5s-.7-1.5-1.5-1.5c-8.6 0-15.6-7-15.6-15.6 0-.8-.7-1.5-1.5-1.5s-1.5.7-1.5 1.5zM208.1 219.5c0 5.4-4.4 9.8-9.8 9.8-.5 0-.9.4-.9.9s.4.9.9.9c5.4 0 9.8 4.4 9.8 9.8 0 .5.4.9.9.9s.9-.4.9-.9c0-5.4 4.4-9.8 9.8-9.8.5 0 .9-.4.9-.9s-.4-.9-.9-.9c-5.4 0-9.8-4.4-9.8-9.8 0-.5-.4-.9-.9-.9s-.9.4-.9.9zM273.3 156.4c0 5.4-4.4 9.8-9.8 9.8-.5 0-.9.4-.9.9s.4.9.9.9c5.4 0 9.8 4.4 9.8 9.8 0 .5.4.9.9.9s.9-.4.9-.9c0-5.4 4.4-9.8 9.8-9.8.5 0 .9-.4.9-.9s-.4-.9-.9-.9c-5.4 0-9.8-4.4-9.8-9.8 0-.5-.4-.9-.9-.9-.4-.1-.9.4-.9.9zM165.6 15c0 5.4-4.4 9.8-9.8 9.8-.5 0-.9.4-.9.9s.4.9.9.9c5.4 0 9.8 4.4 9.8 9.8 0 .5.4.9.9.9s.9-.4.9-.9c0-5.4 4.4-9.8 9.8-9.8.5 0 .9-.4.9-.9s-.4-.9-.9-.9c-5.4 0-9.8-4.4-9.8-9.8 0-.5-.4-.9-.9-.9s-.9.3-.9.9zM77.3 97.7c0-8.6 7-15.6 15.6-15.6.8 0 1.5-.7 1.5-1.5s-.7-1.5-1.5-1.5c-8.6 0-15.6-7-15.6-15.6 0-.8-.7-1.5-1.5-1.5s-1.5.7-1.5 1.5c0 8.6-7 15.6-15.6 15.6-.8 0-1.5.7-1.5 1.5s.7 1.5 1.5 1.5c8.6 0 15.6 7 15.6 15.6 0 .8.7 1.5 1.5 1.5s1.5-.6 1.5-1.5zM46.4 121.7c0-5.4 4.4-9.8 9.8-9.8.5 0 .9-.4.9-.9s-.4-.9-.9-.9c-5.4 0-9.8-4.4-9.8-9.8 0-.5-.4-.9-.9-.9s-.9.4-.9.9c0 5.4-4.4 9.8-9.8 9.8-.5 0-.9.4-.9.9s.4.9.9.9c5.4 0 9.8 4.4 9.8 9.8 0 .5.4.9.9.9s.9-.4.9-.9z" fill="#ffffff" opacity="1" data-original="#ffdf7b" class=""></path></g><path fill="#f5c003" d="M55.7 211.5c-.8.9.4 2.2 1.3 1.5 8.7-6.2 22.8-15.9 23.8-14.9C84 201.3 35.5 259 14.3 284c-.9 1.1.6 2.6 1.7 1.7 25-21.2 82.8-69.6 85.9-66.5 1 1-8.7 15.1-14.9 23.8-.7 1 .6 2.1 1.5 1.3 13.3-11.4 43.3-37 46.3-40.1 5-5 8.1-11.9 8.1-19.5s-3.1-14.5-8.1-19.5-11.9-8.1-19.5-8.1-14.5 3.1-19.5 8.1c-3.1 3-28.7 33-40.1 46.3z" opacity="1" data-original="#f5c003" class=""></path><path fill="#f18e0a" d="M102.8 185.7c-.3.3.1.8.5.5 3.1-2.2 8-5.6 8.4-5.2 1.1 1.1-15.9 21.5-23.4 30.3-.3.4.2.9.6.6 8.8-7.5 29.2-24.5 30.3-23.4.4.4-3.1 5.3-5.2 8.4-.2.3.2.7.5.5 4.7-4 15.2-13 16.3-14.1 1.8-1.8 2.8-4.2 2.8-6.9s-1.1-5.1-2.8-6.9c-1.8-1.8-4.2-2.9-6.9-2.9s-5.1 1.1-6.9 2.9c-1.2.9-10.2 11.5-14.2 16.2z" opacity="1" data-original="#f18e0a" class=""></path><path fill="#b3d7e5" d="M225.5 149.1v-28.6l-23-23-23-23h-28.6c-3 0-5.9 1.2-8.1 3.4l-41.6 41.6c-.8.8-1.2 2-.8 3.1.4 1.2 1.5 1.9 2.7 1.9h72.4v72.4c0 1.2.7 2.3 1.9 2.7 1.1.4 2.3 0 3.1-.8l41.6-41.6c2.2-2.2 3.4-5.1 3.4-8.1z" opacity="1" data-original="#b3d7e5"></path><path fill="#79bccc" d="m225.5 120.4-23-23-23-23h-9.6l-6.6 6.6c-12.2 12.2-21.2 27.1-26.4 43.4h38.6V163c16.3-5.2 31.1-14.2 43.4-26.4l6.6-6.6zM142.7 140.7l-9.3 12.1c-.8 1-.7 2.4.2 3.2l10.3 10.3c.9.9 2.3 1 3.2.2l12.1-9.3z" opacity="1" data-original="#79bccc"></path><path fill="#5088e2" d="M286 25.2c.5-6.4-4.8-11.7-11.2-11.2-23.3 1.7-46.2 11.4-64 29.2l-42.6 42.6c-14.4 14.4-23.5 32-27.3 50.5-.3 1.3.1 2.6 1.1 3.5l18.2 18.2c.9.9 2.2 1.3 3.5 1.1 18.5-3.9 36.1-13 50.5-27.3l42.6-42.6c17.8-17.8 27.5-40.6 29.2-64z" opacity="1" data-original="#5088e2"></path><circle cx="228.6" cy="71.4" r="23.2" fill="#b3d7e5" opacity="1" data-original="#b3d7e5"></circle><path fill="#3167b5" d="M172.4 127.6c-8.6-8.6-11.8-21.3-10-35.4-11.1 13.1-18.3 28.3-21.6 44.2-.3 1.3.1 2.6 1.1 3.5l18.2 18.2c.9.9 2.2 1.3 3.5 1.1 15.9-3.3 31.1-10.5 44.2-21.6-14.1 1.8-26.8-1.4-35.4-10z" opacity="1" data-original="#3167b5" class=""></path><path fill="#f5c003" d="M265.4 34.6c5 5 10.8 8.9 16.9 11.5 2-6.9 3.2-13.9 3.7-20.9.5-6.4-4.8-11.7-11.2-11.2-7.1.5-14.1 1.8-20.9 3.7 2.6 6.1 6.4 11.9 11.5 16.9zM163.6 136.4c-6.2-6.2-11.7-12.9-16.4-20-2.9 6.5-5 13.2-6.4 20-.3 1.3.1 2.6 1.1 3.5l18.2 18.2c.9.9 2.2 1.3 3.5 1.1 6.8-1.4 13.5-3.6 20-6.4-7-4.7-13.7-10.2-20-16.4z" opacity="1" data-original="#f5c003" class=""></path><circle cx="228.6" cy="71.4" r="16.5" fill="#414042" opacity="1" data-original="#414042" class=""></circle><path fill="#b3d7e5" d="M138.8 161.2c-1-1-1-2.7 0-3.7l43-43 18.7-17.2c.6-.6 1.5-.5 2.1 0 .6.6.6 1.5 0 2.1l-17.2 18.7-43 43c-1 1.2-2.6 1.2-3.6.1z" opacity="1" data-original="#b3d7e5"></path><g fill="#6d6e71"><path d="M244.5 66.8h-31.7c-.6 2.2-.8 4.5-.5 6.7H245c.3-2.3.1-4.6-.5-6.7zM216.7 59.9c-1 1-1.8 2.2-2.5 3.4H243c-.7-1.2-1.5-2.3-2.5-3.4z" fill="#6d6e71" opacity="1" data-original="#6d6e71" class=""></path></g></g></svg>