<svg id="Startup_Rocket" viewBox="0 0 64 64" xmlns="http://www.w3.org/2000/svg" data-name="Startup Rocket"><path d="m21.07 49.5-6.58-6.58c-.26-.26-.63-.36-.99-.25-1.64.47-4.02 1.47-6.09 3.54-4.42 4.42-3.31 12.44-3.27 12.78.06.44.41.78.85.85.12.02 1.14.16 2.6.16 2.81 0 7.27-.52 10.18-3.42 2.07-2.07 3.07-4.45 3.54-6.09.1-.35 0-.73-.25-.98z" fill="#f2cb04"/><path d="m41.82 37.44c-.33-.39-.9-.47-1.32-.18l-9.81 6.6c-.41.28-.56.82-.34 1.26 3.77 7.79-2.04 12.4-2.29 12.6-.32.25-.46.66-.36 1.05.11.39.44.68.84.73.12.01 1.07.13 2.46.13 3.02 0 8.13-.54 11.39-3.8 8.01-8.01-.49-18.29-.57-18.39z" fill="#333659"/><path d="m8.17 21.6c-4.77 4.77-3.72 13.49-3.67 13.86.05.4.34.73.73.84.09.02.17.03.26.03.31 0 .6-.14.79-.39s4.8-6.06 12.6-2.29c.45.22.99.07 1.26-.34l6.6-9.81c.28-.42.21-.99-.18-1.32-.1-.09-10.37-8.59-18.39-.57z" fill="#333659"/><path d="m59.83 5.03c-.06-.45-.41-.81-.86-.86-.3-.04-7.57-.93-16.53 1.83-.34.1-.59.37-.68.71-.08.34.02.7.26.95l14.32 14.32c.19.19.45.29.71.29.08 0 .16 0 .24-.03.34-.08.61-.34.71-.68 2.75-8.96 1.86-16.22 1.83-16.53z" fill="#ff7b8b"/><path d="m15.16 33.15c-.24-.24-.58-.34-.91-.27s-.6.3-.73.61c-1.28 3.21-1.93 6.23-1.92 8.96 0 .26.11.52.29.7l8.95 8.95c.2.2.48.29.75.29 2.72 0 5.72-.65 8.91-1.92.31-.12.54-.4.61-.73s-.03-.67-.27-.91l-15.69-15.69z" fill="#ff7b8b"/><path d="m43.01 5.82-.58.18c-6.44 1.98-12.07 5.34-16.72 10-5.69 5.69-9.91 11.74-12.19 17.5l-.24.61 16.62 16.62.61-.24c5.76-2.29 11.81-6.5 17.5-12.19 4.66-4.66 8.02-10.28 10-16.72l.18-.58-15.17-15.17z" fill="#f25864"/><path d="m44.65 19.35c-1.51-1.51-3.52-2.34-5.66-2.34s-4.15.83-5.66 2.34-2.34 3.52-2.34 5.66.83 4.15 2.34 5.66 3.52 2.34 5.66 2.34 4.15-.83 5.66-2.34 2.34-3.52 2.34-5.66-.83-4.15-2.34-5.66z" fill="#fff"/></svg>