<svg id="圖層_1" enable-background="new 0 0 512 512" height="512" viewBox="0 0 512 512" width="512" xmlns="http://www.w3.org/2000/svg"><g><g><g><path d="m312.783 285.13h5.853v171.114h-5.853z" fill="#003f91" transform="matrix(.707 -.707 .707 .707 -169.646 331.812)"/></g><g><path d="m273.587 324.326h5.853v171.114h-5.853z" fill="#003f91" transform="matrix(.707 -.707 .707 .707 -208.842 315.577)"/></g></g><g><g><path d="m139.17 111.517h5.853v171.114h-5.853z" fill="#003f91" transform="matrix(.707 -.707 .707 .707 -97.733 158.199)"/></g><g><path d="m99.974 150.713h5.853v171.114h-5.853z" fill="#003f91" transform="matrix(.707 -.707 .707 .707 -136.929 141.964)"/></g></g><g fill="#55a0ff"><path d="m234.753 338.532h92.673v73.461h-92.673z" transform="matrix(-.707 .707 -.707 -.707 745.2 441.853)"/><path d="m291.753 395.532h92.673v73.461h-92.673z" transform="matrix(-.707 .707 -.707 -.707 882.811 498.853)"/><path d="m91.185 194.964h92.673v73.461h-92.673z" transform="matrix(-.707 .707 -.707 -.707 398.596 298.285)"/><path d="m34.185 137.964h92.673v73.461h-92.673z" transform="matrix(-.707 .707 -.707 -.707 260.985 241.285)"/></g><g fill="#3d72ff"><g><path d="m303.648 351.756h23.737v29.415h-23.737z" transform="matrix(.707 -.707 .707 .707 -166.716 330.439)"/><path d="m278.02 326.128h23.737v29.415h-23.737z" transform="matrix(.707 -.707 .707 .707 -156.101 304.811)"/><path d="m282.035 373.369h23.737v29.415h-23.737z" transform="matrix(.707 -.707 .707 .707 -188.329 321.486)"/><path d="m256.407 347.742h23.737v29.415h-23.737z" transform="matrix(.707 -.707 .707 .707 -177.714 295.858)"/><path d="m260.422 394.983h23.737v29.415h-23.737z" transform="matrix(.707 -.707 .707 .707 -209.943 312.534)"/><path d="m234.794 369.355h23.737v29.415h-23.737z" transform="matrix(.707 -.707 .707 .707 -199.327 286.906)"/></g><g><path d="m360.648 408.756h23.737v29.415h-23.737z" transform="matrix(.707 -.707 .707 .707 -190.326 387.439)"/><path d="m335.02 383.128h23.737v29.415h-23.737z" transform="matrix(.707 -.707 .707 .707 -179.711 361.811)"/><path d="m339.035 430.369h23.737v29.415h-23.737z" transform="matrix(.707 -.707 .707 .707 -211.94 378.486)"/><path d="m313.407 404.742h23.737v29.415h-23.737z" transform="matrix(.707 -.707 .707 .707 -201.324 352.858)"/><path d="m317.422 451.982h23.737v29.415h-23.737z" transform="matrix(.707 -.707 .707 .707 -233.553 369.534)"/><path d="m291.794 426.355h23.737v29.415h-23.737z" transform="matrix(.707 -.707 .707 .707 -222.937 343.906)"/></g><g><path d="m134.452 182.56h23.737v29.415h-23.737z" transform="matrix(.707 -.707 .707 .707 -96.633 161.242)"/><path d="m160.079 208.188h23.737v29.415h-23.737z" transform="matrix(.707 -.707 .707 .707 -107.248 186.87)"/><path d="m112.838 204.173h23.737v29.415h-23.737z" transform="matrix(.707 -.707 .707 .707 -118.246 152.29)"/><path d="m138.466 229.801h23.737v29.415h-23.737z" transform="matrix(.707 -.707 .707 .707 -128.861 177.917)"/><path d="m91.225 225.786h23.737v29.415h-23.737z" transform="matrix(.707 -.707 .707 .707 -139.859 143.337)"/><path d="m116.853 251.414h23.737v29.415h-23.737z" transform="matrix(.707 -.707 .707 .707 -150.474 168.965)"/></g><g><path d="m77.452 125.56h23.737v29.415h-23.737z" transform="matrix(.707 -.707 .707 .707 -73.023 104.242)"/><path d="m103.079 151.188h23.737v29.415h-23.737z" transform="matrix(.707 -.707 .707 .707 -83.638 129.87)"/><path d="m55.838 147.173h23.737v29.415h-23.737z" transform="matrix(.707 -.707 .707 .707 -94.636 95.29)"/><path d="m81.466 172.801h23.737v29.415h-23.737z" transform="matrix(.707 -.707 .707 .707 -105.251 120.918)"/><path d="m34.225 168.786h23.737v29.415h-23.737z" transform="matrix(.707 -.707 .707 .707 -116.249 86.337)"/><path d="m59.853 194.414h23.737v29.415h-23.737z" transform="matrix(.707 -.707 .707 .707 -126.864 111.965)"/></g></g><path d="m157.023 368.306-12.546-12.546c-1.929-1.929-1.929-5.057 0-6.987l129.174-129.173 19.533 19.533-129.174 129.173c-1.929 1.93-5.057 1.93-6.987 0z" fill="#003f91"/><path d="m257.814 286.699-31.73-31.73c-3.048-3.048-3.048-7.989 0-11.037l16.041-16.041c3.048-3.048 7.989-3.048 11.037 0l31.73 31.73c3.048 3.048 3.048 7.989 0 11.037l-16.041 16.041c-3.048 3.048-7.989 3.048-11.037 0z" fill="#afd2e1"/><g fill="#69b4ff"><circle cx="376.884" cy="135.899" r="20.048"/><path d="m339.505 192.301-19.023-19.023 45.134-34.834 8.724 8.723z"/></g><path d="m422.427 241.319c-37.9 37.9-102.418 34.821-144.103-6.865-41.685-41.685-44.759-106.198-6.859-144.098z" fill="#6ee6ff"/><path d="m405.127 248.364c-67.582-3.944-133.158-53.866-156.886-117.604-9.263 34.494 1.027 74.638 30.082 103.694 38.892 38.892 97.654 44.172 136.135 13.928-3.059.209-6.169.218-9.331-.018z" fill="#5ad2f5"/><path d="m395.568 143.147c-.673.37-1.36.725-2.071 1.057-6.208 2.069-13.106-.69-19.314-4.139-5.745-3.591-11.298-8.492-14.626-14.213-4.453 7.671-3.418 17.655 3.151 24.223 7.829 7.829 20.523 7.829 28.353 0 2.036-2.036 3.53-4.405 4.507-6.928z" fill="#55a0ff"/><g><g><path d="m277.965 234.814c-41.837-41.837-44.93-106.817-6.895-144.851l.79.79c-37.639 37.639-34.578 101.942 6.824 143.343 41.404 41.404 105.71 44.468 143.349 6.829l.79.79c-38.036 38.034-103.019 34.938-144.858-6.901z" fill="#55a0ff"/></g><g><path d="m277.965 234.814c-35.063-35.063-32.645-94.532 5.39-132.566l.79.79c-37.639 37.639-40.089 96.431-5.462 131.058 34.63 34.63 93.424 32.182 131.063-5.457l.79.79c-38.034 38.035-97.505 40.451-132.571 5.385z" fill="#55a0ff"/></g><g><path d="m277.965 234.814c-24.827-24.827-14.081-75.968 23.953-114.003l.79.79c-37.639 37.639-48.416 88.103-24.025 112.495 24.393 24.393 74.86 13.618 112.499-24.021l.79.79c-38.034 38.035-89.177 48.779-114.007 23.949z" fill="#55a0ff"/></g><g><path d="m277.967 234.816c-5.472-5.472-3.334-17.799 6.019-34.711 9.251-16.727 24.457-36.05 42.816-54.41l.79.79c-37.639 37.639-59.578 76.942-48.907 87.613 10.672 10.672 49.976-11.267 87.614-48.905l.79.79c-18.359 18.359-37.682 33.564-54.41 42.816-16.913 9.352-29.24 11.489-34.712 6.017z" fill="#55a0ff"/></g><g><path d="m264.115 199.589h97.042v1.117h-97.042z" fill="#55a0ff" transform="matrix(.707 -.707 .707 .707 -49.957 279.689)"/></g></g><path d="m188.727 375.223-51.167-51.167c-3.81-3.81-3.81-9.986 0-13.796l78.527-78.527c3.81-3.81 9.986-3.81 13.796 0l51.167 51.167c3.81 3.81 3.81 9.986 0 13.796l-78.527 78.527c-3.81 3.81-9.986 3.81-13.796 0z" fill="#9bc8d7"/><path d="m217.363 334.459c-26.598-5.737-48.06-22.913-58.145-45.855l-21.657 21.657c-3.809 3.809-3.81 9.986 0 13.796l51.167 51.167c3.81 3.81 9.986 3.809 13.796 0l46.888-46.888c-9.73 5.719-20.649 8.566-32.049 6.123z" fill="#91becd"/><g><path d="m448.067 142.102c-1.323-1.323-2.059-3.21-1.849-5.216 3.748-35.651-22.208-67.707-57.863-71.454-3.751-.394-7.564-.461-11.332-.198-3.538.249-6.607-2.417-6.854-5.959-.247-3.538 2.421-6.607 5.959-6.854 4.511-.315 9.077-.235 13.57.236 20.556 2.161 39.117 12.29 52.261 28.524 13.145 16.232 19.195 36.492 17.034 57.049-.371 3.527-3.531 6.087-7.059 5.716-1.522-.161-2.863-.84-3.867-1.844z" fill="#9eb9ff"/></g><g><path d="m476.18 143.866c-1.629-1.629-2.535-3.95-2.275-6.419 2.525-24.029-4.563-47.732-19.957-66.743-15.391-19.005-37.106-30.871-61.135-33.398-5.262-.553-10.604-.645-15.879-.276-4.356.305-8.132-2.98-8.437-7.333-.305-4.355 2.978-8.132 7.333-8.437 6.191-.433 12.461-.324 18.636.325 28.227 2.966 53.711 16.88 71.769 39.171 18.052 22.293 26.36 50.116 23.393 78.344-.456 4.342-4.346 7.491-8.687 7.035-1.874-.196-3.525-1.033-4.761-2.269z" fill="#c7d7ff"/></g><g><path d="m417.567 136.438c-1.018-1.018-1.584-2.469-1.422-4.012 1.909-18.157-11.311-34.482-29.469-36.391-1.912-.201-3.854-.235-5.769-.1-2.723.19-5.084-1.862-5.274-4.582-.191-2.722 1.861-5.083 4.582-5.274 2.488-.174 5.009-.131 7.493.13 23.578 2.479 40.741 23.677 38.263 47.251-.285 2.714-2.716 4.682-5.43 4.397-1.17-.124-2.202-.647-2.974-1.419z" fill="#6b94ff"/></g></g></svg>