<svg xmlns="http://www.w3.org/2000/svg" version="1.1" xmlns:xlink="http://www.w3.org/1999/xlink" width="512" height="512" x="0" y="0" viewBox="0 0 256 256" style="enable-background:new 0 0 512 512" xml:space="preserve" class=""><g><path fill="#ffffff" d="M203.81 104.009c3.894 4.285 6.153 17.475 7.78 24.74 1.627-7.265 3.886-20.455 7.78-24.74 4.119-4.53 9.695-6.33 16.657-8.97-9.884-.549-14.46-4.576-14.46-4.576-8.238-4.941-9.976-23.888-9.976-23.888s-1.74 18.947-9.976 23.888c0 0-4.577 4.027-14.461 4.577 6.961 2.639 12.538 4.439 16.656 8.969zM54.62 195.086c4.697 5.168 7.421 21.076 9.384 29.839 1.961-8.763 4.685-24.67 9.381-29.839 4.968-5.463 11.693-7.633 20.09-10.816-11.92-.663-17.44-5.52-17.44-5.52-9.935-5.96-12.031-28.81-12.031-28.81s-2.098 22.85-12.032 28.81c0 0-5.519 4.857-17.44 5.52 8.397 3.183 15.123 5.353 20.088 10.816z" opacity="1" data-original="#62c5fe" class=""></path><path fill="#ffffff" d="M81.25 92.99c3.166 3.483 5.002 14.205 6.325 20.111 1.322-5.906 3.158-16.628 6.323-20.111 3.349-3.682 7.881-5.145 13.54-7.29-8.034-.447-11.754-3.72-11.754-3.72-6.696-4.018-8.11-19.42-8.11-19.42s-1.413 15.403-8.108 19.42c0 0-3.72 3.273-11.756 3.72 5.66 2.145 10.193 3.608 13.54 7.29zM103.211 171.302c2.566 2.823 4.054 11.513 5.126 16.3 1.072-4.787 2.56-13.476 5.125-16.3 2.714-2.984 6.387-4.17 10.974-5.909-6.511-.362-9.526-3.015-9.526-3.015-5.427-3.255-6.573-15.738-6.573-15.738s-1.146 12.483-6.572 15.738c0 0-3.015 2.654-9.527 3.015 4.586 1.74 8.26 2.925 10.973 5.91z" opacity="1" data-original="#9dd7ff" class=""></path><g fill="#ceebff"><path d="M29.976 138.2c2.359 2.595 3.727 10.585 4.713 14.987.985-4.402 2.354-12.392 4.712-14.988 2.496-2.744 5.873-3.834 10.09-5.433-5.987-.332-8.76-2.772-8.76-2.772-4.99-2.993-6.042-14.47-6.042-14.47s-1.054 11.476-6.044 14.47c0 0-2.772 2.44-8.76 2.772 4.218 1.6 7.596 2.69 10.09 5.433zM167.174 134.07c1.881 2.07 2.972 8.44 3.758 11.95.786-3.51 1.877-9.88 3.758-11.95 1.99-2.188 4.682-3.057 8.045-4.332-4.774-.265-6.984-2.21-6.984-2.21-3.979-2.387-4.819-11.538-4.819-11.538s-.84 9.151-4.818 11.538c0 0-2.21 1.945-6.985 2.21 3.363 1.275 6.057 2.144 8.045 4.332zM96.586 224.02c1.84 2.026 2.908 8.26 3.677 11.694.769-3.434 1.836-9.668 3.677-11.693 1.947-2.141 4.582-2.992 7.872-4.24-4.671-.26-6.834-2.162-6.834-2.162-3.893-2.336-4.715-11.29-4.715-11.29s-.822 8.955-4.715 11.29c0 0-2.163 1.903-6.835 2.163 3.29 1.247 5.927 2.098 7.873 4.239z" fill="#ffffff" opacity="1" data-original="#ceebff" class=""></path></g><path fill="#ffffff" d="M192.126 163.742c2.488 2.739 3.932 11.167 4.971 15.81 1.04-4.643 2.483-13.071 4.971-15.81 2.632-2.894 6.195-4.044 10.644-5.73-6.316-.352-9.24-2.925-9.24-2.925-5.264-3.158-6.375-15.265-6.375-15.265s-1.111 12.107-6.374 15.265c0 0-2.925 2.573-9.24 2.924 4.448 1.687 8.012 2.837 10.643 5.731zM135.811 82.684c5.986 7.137 9.458 29.106 11.96 41.208 2.5-12.102 5.971-34.07 11.956-41.208 6.332-7.545 14.902-10.543 25.603-14.939-15.192-.915-22.226-7.622-22.226-7.622-12.662-8.231-15.334-39.788-15.334-39.788s-2.673 31.557-15.333 39.788c0 0-7.034 6.707-22.227 7.622 10.7 4.396 19.273 7.394 25.601 14.939z" opacity="1" data-original="#9dd7ff" class=""></path></g></svg>