<svg id="Layer_1" enable-background="new 0 0 491.5 491.5" height="512" viewBox="0 0 491.5 491.5" width="512" xmlns="http://www.w3.org/2000/svg"><g id="Layer_x0020_1"><g id="_388851168" clip-rule="evenodd" fill-rule="evenodd"><path id="_388851864" d="m245.8 219.2c-14.7 0-26.6 11.9-26.6 26.6s11.9 26.6 26.6 26.6 26.6-11.9 26.6-26.6-12-26.6-26.6-26.6zm0 62.6c-19.9 0-36.1-16.2-36.1-36.1s16.2-36.1 36.1-36.1 36.1 16.2 36.1 36.1c-.1 19.9-16.2 36.1-36.1 36.1z" fill="#f9a12a"/><path id="_388851024" d="m245.8 340.6c-35.7 0-68.1-19.7-84.4-51.5-1.2-2.3-.3-5.2 2.1-6.4 2.3-1.2 5.2-.3 6.4 2 14.7 28.6 43.8 46.4 76 46.4 47.1 0 85.4-38.3 85.4-85.4s-38.3-85.4-85.4-85.4-85.4 38.3-85.4 85.4c0 3.5.2 7.1.7 10.6.3 2.6-1.5 5-4.1 5.3s-5-1.5-5.3-4.1c-.5-3.9-.7-7.8-.7-11.8 0-52.3 42.5-94.8 94.8-94.8s94.8 42.5 94.8 94.8c-.1 52.4-42.6 94.9-94.9 94.9z" fill="#4d81c2"/><path id="_388850904" d="m245.8 381.3c-74.7 0-135.5-60.8-135.5-135.5s60.8-135.5 135.5-135.5c29.4 0 57.4 9.3 80.9 26.8 2.1 1.6 2.5 4.5 1 6.6-1.6 2.1-4.5 2.5-6.6 1-21.9-16.3-47.9-24.9-75.3-24.9-69.5 0-126.1 56.6-126.1 126.1s56.6 126.1 126.1 126.1 126.1-56.6 126.1-126.1c0-27.4-8.6-53.4-24.9-75.3-1.6-2.1-1.1-5.1 1-6.6 2.1-1.6 5.1-1.1 6.6 1 17.5 23.5 26.8 51.5 26.8 80.9-.1 74.6-60.9 135.4-135.6 135.4z" fill="#4d81c2"/><path id="_388850688" d="m266.3 420.8c-2.4 0-4.4-1.8-4.7-4.2-.3-2.6 1.5-5 4.1-5.3 83.7-10 146.8-81.2 146.8-165.6 0-92-74.8-166.8-166.8-166.8-91.9.1-166.7 74.9-166.7 166.9 0 84.4 63.1 155.6 146.8 165.6 2.6.3 4.5 2.7 4.1 5.3-.3 2.6-2.7 4.4-5.3 4.1-88.4-10.6-155.2-85.8-155.2-175 0-97.2 79.1-176.3 176.3-176.3s176.3 79.1 176.3 176.3c0 89.2-66.7 164.4-155.2 175-.1 0-.3 0-.5 0z" fill="#4d81c2"/><path id="_388850808" d="m245.8 462.7c-57.9 0-112.4-22.6-153.4-63.5-41-41-63.5-95.5-63.5-153.4 0-49.6 17.2-98.1 48.3-136.5 1.7-2 4.6-2.3 6.7-.7 2 1.6 2.3 4.6.7 6.7-29.9 36.7-46.3 83-46.3 130.5 0 114.4 93.1 207.5 207.5 207.5s207.5-93.1 207.5-207.5-93.1-207.5-207.5-207.5c-47.4 0-93.8 16.4-130.6 46.2-2 1.6-5 1.3-6.7-.7-1.6-2-1.3-5 .7-6.7 38.4-31.2 86.9-48.3 136.5-48.3 58 0 112.4 22.6 153.4 63.5 41 41 63.5 95.5 63.5 153.4 0 58-22.6 112.4-63.5 153.4-40.9 41.1-95.4 63.6-153.3 63.6z" fill="#4d81c2"/><g fill="#f9a12a"><path id="_388850784" d="m202.4 277.4c11.4 2.1 21.3 9.4 26.8 19.6 10.4-5 22.7-5 33.1 0 5.4-10.2 15.4-17.5 26.8-19.6-1.6-11.5 2.1-23.2 10.1-31.7-8-8.4-11.7-20.2-10.1-31.7-11.4-2.1-21.3-9.4-26.8-19.6-10.4 5-22.7 5-33.1 0-5.4 10.2-15.4 17.5-26.8 19.6 1.6 11.5-2.1 23.2-10.1 31.7 8 8.5 11.8 20.2 10.1 31.7zm24.6 31c-.5 0-1-.1-1.5-.2-1.4-.5-2.5-1.5-3-2.9-3.9-11-14.3-18.6-26-19-1.5 0-2.8-.8-3.7-2s-1.1-2.7-.7-4.1c3.4-11.2-.5-23.5-9.7-30.7-1.2-.9-1.8-2.3-1.8-3.7 0-1.5.7-2.8 1.8-3.7 9.2-7.2 13.1-19.5 9.7-30.7-.4-1.4-.2-2.9.7-4.1s2.2-1.9 3.7-2c11.7-.4 22.1-8 26-19 .5-1.4 1.6-2.5 3-2.9 1.4-.5 2.9-.2 4.1.6 9.6 6.6 22.6 6.6 32.2 0 1.2-.8 2.7-1.1 4.1-.6s2.5 1.5 3 2.9c3.9 11 14.3 18.6 26 19 1.5 0 2.8.8 3.7 2s1.1 2.7.7 4.1c-3.4 11.2.5 23.5 9.7 30.7 1.1.9 1.8 2.3 1.8 3.7 0 1.5-.7 2.8-1.8 3.7-9.2 7.2-13.1 19.5-9.7 30.7.4 1.4.2 2.9-.7 4.1s-2.2 1.9-3.7 2c-11.7.4-22.1 8-26 19-.5 1.4-1.6 2.5-3 2.9-1.4.5-2.9.2-4.1-.6-9.6-6.6-22.6-6.6-32.2 0-.7.6-1.7.8-2.6.8z"/><path id="_388851048" d="m95.7 78.2c-4.7 0-9.1 1.8-12.4 5.1-3.3 3.3-5.1 7.7-5.1 12.4s1.8 9.1 5.1 12.4 7.7 5.1 12.4 5.1 9.1-1.8 12.4-5.1 5.1-7.7 5.1-12.4-1.8-9.1-5.1-12.4-7.7-5.1-12.4-5.1zm0 44.5c-7.2 0-14-2.8-19.1-7.9s-7.9-11.9-7.9-19.1 2.8-14 7.9-19.1c5.1-5.1 11.9-7.9 19.1-7.9s14 2.8 19.1 7.9 7.9 11.9 7.9 19.1-2.8 14-7.9 19.1c-5.1 5-11.9 7.9-19.1 7.9z"/><path id="_388851072" d="m245.8 401.5c-4.1 0-8.1 1.5-11.2 4.6-6.2 6.2-6.2 16.2 0 22.4s16.2 6.2 22.4 0 6.2-16.2 0-22.4c-3.1-3.1-7.2-4.6-11.2-4.6zm0 41.1c-6.5 0-13-2.5-17.9-7.4-9.9-9.9-9.9-25.9 0-35.8s25.9-9.9 35.8 0 9.9 25.9 0 35.8c-5 4.9-11.5 7.4-17.9 7.4z"/><path id="_388851240" d="m338.3 139c-7.9 0-14.3 6.4-14.3 14.3s6.4 14.3 14.3 14.3 14.3-6.4 14.3-14.3-6.5-14.3-14.3-14.3zm0 38c-13.1 0-23.8-10.7-23.8-23.8s10.7-23.8 23.8-23.8 23.8 10.7 23.8 23.8c-.1 13.2-10.7 23.8-23.8 23.8z"/><path id="_388851216" d="m160 261.2c-.9 0-1.9.1-2.9.4-2.8.8-5.2 2.6-6.7 5.1s-1.9 5.5-1.1 8.3c1.6 5.8 7.6 9.3 13.4 7.8 2.8-.8 5.2-2.6 6.7-5.1s1.8-5.5 1.1-8.3c-.8-2.8-2.6-5.2-5.1-6.7-1.6-1-3.5-1.5-5.4-1.5zm0 31.4c-3.5 0-7-.9-10.2-2.7-4.7-2.7-8.1-7.1-9.5-12.4-1.4-5.3-.7-10.8 2-15.5s7.1-8.1 12.4-9.5 10.8-.7 15.5 2 8.1 7.1 9.5 12.4.7 10.8-2 15.5-7.1 8.1-12.4 9.5c-1.7.5-3.5.7-5.3.7z"/></g></g></g></svg>