<svg id="Icon" enable-background="new 100 -100 300 300" height="512" viewBox="100 -100 300 300" width="512" xmlns="http://www.w3.org/2000/svg"><g id="XMLID_115_"><path id="XMLID_173_" d="m226.5 132-26.2-3.8-11.7-23.8c-2.3-4.7-9-4.7-11.4 0l-11.7 23.8-26.3 3.8c-5.2.8-7.3 7.1-3.5 10.8l19 18.5-4.5 26.1c-.9 5.2 4.5 9.1 9.2 6.7l23.5-12.3 23.5 12.3c4.6 2.4 10.1-1.5 9.2-6.7l-4.5-26.1 19-18.5c3.7-3.6 1.6-10-3.6-10.8z" fill="#f5c003"/><path id="XMLID_169_" d="m227 132.1c-10 24.4-33.9 41.5-61.8 41.5-4.2 0-8.4-.4-12.4-1.2l-2.6 14.9c-.9 5.2 4.5 9.1 9.2 6.7l23.5-12.3 23.5 12.3c4.6 2.4 10.1-1.5 9.2-6.7l-4.5-26.1 19-18.5c3.5-3.4 1.7-9.5-3.1-10.6z" fill="#f3b007"/><g id="XMLID_165_" fill="#f5c003"><path id="XMLID_168_" d="m361.2-95.9-157.4 205.1c-1 1.3-1.2 3-.5 4.4l2.1 4.3c.6 1.2 1.8 2.1 3.1 2.3l4.7.7c1.6.2 3.2-.5 4.1-1.9l146.4-213.2c1-1.6-1.3-3.2-2.5-1.7z"/><path id="XMLID_167_" d="m274.2 67.7-36.7 50.6c-1.8 2.5-.3 6.1 2.7 6.5 1.7.2 3.3-.5 4.1-2l31.9-53.8c.8-1.3-1.1-2.5-2-1.3z"/><path id="XMLID_166_" d="m233.1 37.7-41.3 46.9c-1.1 1.3-1.3 3.1-.6 4.6 1.4 2.8 5.2 3.1 7 .6l36.7-50.6c.9-1.3-.8-2.7-1.8-1.5z"/></g><path id="XMLID_205_" d="m190 35.3-15.9-2.3-7.1-14.4c-1.4-2.9-5.5-2.9-6.9 0l-7.1 14.4-15.9 2.3c-3.1.5-4.4 4.3-2.1 6.5l11.4 11.2-2.7 15.8c-.5 3.1 2.8 5.5 5.6 4l14.2-7.5 14.2 7.5c2.8 1.5 6.1-.9 5.6-4l-2.7-15.8 11.5-11.2c2.3-2.2 1-6.1-2.1-6.5z" fill="#f5c003"/><path id="XMLID_204_" d="m190.2 35.3c-6 14.8-20.5 25.2-37.5 25.2-2.6 0-5.1-.2-7.5-.7l-1.6 9.1c-.5 3.1 2.8 5.5 5.6 4l14.2-7.5 14.2 7.5c2.8 1.5 6.1-.9 5.6-4l-2.6-15.9 11.5-11.2c2.2-2.1 1.1-5.8-1.9-6.5z" fill="#f3b007"/><g id="XMLID_147_"><path id="XMLID_196_" d="m240.1-59.4-63.9 80.9c-.6.8-.7 1.8-.3 2.7l1.3 2.6c.4.7 1.1 1.2 1.9 1.4l2.9.4c1 .1 1.9-.3 2.5-1.1l57.2-85.8c.5-1-.9-2-1.6-1.1z" fill="#f5c003"/></g><path id="XMLID_199_" d="m338.7 64.3-9.5-1.4-4.2-8.6c-.8-1.7-3.3-1.7-4.1 0l-4.2 8.6-9.5 1.4c-1.9.3-2.6 2.6-1.3 3.9l6.9 6.7-1.6 9.5c-.3 1.9 1.6 3.3 3.3 2.4l8.5-4.5 8.5 4.5c1.7.9 3.6-.5 3.3-2.4l-1.6-9.5 6.9-6.7c1.2-1.3.5-3.6-1.4-3.9z" fill="#f5c003"/><path id="XMLID_198_" d="m338.9 64.4c-3.6 8.8-12.3 15-22.4 15-1.5 0-3-.1-4.5-.4l-.9 5.4c-.3 1.9 1.6 3.3 3.3 2.4l8.5-4.5 8.5 4.5c1.7.9 3.6-.5 3.3-2.4l-1.6-9.5 6.9-6.7c1.3-1.2.6-3.5-1.1-3.8z" fill="#f3b007"/><g id="XMLID_117_"><path id="XMLID_197_" d="m365.3 12.4-34.8 43.7c-.4.5-.4 1.1-.2 1.6l.8 1.5c.2.4.6.7 1.1.8l1.7.2c.6.1 1.2-.2 1.5-.7l30.8-46.6c.3-.4-.5-1-.9-.5z" fill="#f5c003"/></g><path id="XMLID_203_" d="m285 164.6-13.3-1.9-5.9-12.1c-1.2-2.4-4.6-2.4-5.8 0l-5.9 12.1-13.3 1.9c-2.6.4-3.7 3.6-1.8 5.5l9.6 9.4-2.3 13.2c-.5 2.6 2.3 4.6 4.7 3.4l11.9-6.3 11.9 6.3c2.4 1.2 5.1-.8 4.7-3.4l-2.3-13.2 9.6-9.4c1.8-1.9.8-5.1-1.8-5.5z" fill="#f5c003"/><path id="XMLID_202_" d="m285.2 164.7c-5.1 12.4-17.2 21.1-31.4 21.1-2.1 0-4.2-.2-6.3-.6l-1.3 7.6c-.5 2.6 2.3 4.6 4.7 3.4l11.9-6.3 11.9 6.3c2.4 1.2 5.1-.8 4.7-3.4l-2.3-13.2 9.6-9.4c1.9-1.9 1-5-1.5-5.5z" fill="#f3b007"/><g id="XMLID_149_"><path id="XMLID_201_" d="m322.2 91.9-48.8 61.1c-.5.6-.6 1.5-.3 2.3l1.1 2.2c.3.6.9 1 1.6 1.1l2.4.3c.8.1 1.6-.2 2.1-.9l43.1-65.2c.5-.8-.6-1.6-1.2-.9z" fill="#f5c003"/></g></g></svg>