<svg id="Capa_1" enable-background="new 0 0 512 512" height="512" viewBox="0 0 512 512" width="512" xmlns="http://www.w3.org/2000/svg"><g><path d="m311.738 295.226h120.725c49.364 0 86.8-44.51 78.339-93.144l-16.852-96.864c-10.305-59.238-61.721-102.481-121.849-102.481-60.128 0-111.544 43.243-121.849 102.481l-16.852 96.864c-8.461 48.634 28.974 93.144 78.338 93.144z" fill="#cb97e7"/><path d="m352.656 295.224h79.801c49.367 0 86.801-44.506 78.338-93.135l-16.844-96.871c-10.306-59.232-61.729-102.479-121.851-102.479-13.897 0-27.334 2.313-39.901 6.601 41.804 14.245 74.029 50.339 81.95 95.878l16.855 96.871c8.453 48.629-28.981 93.135-78.348 93.135z" fill="#bd80e1"/><path d="m60.877 387.558c-4.259-5.177-6.816-11.806-6.816-19.033 0-16.559 13.424-29.982 29.982-29.982h108.433c16.559 0 29.982 13.424 29.982 29.982 0 7.227-2.558 13.856-6.816 19.033 15.984.65 28.745 13.807 28.745 29.951 0 16.559-13.424 29.982-29.982 29.982h-4.861c7.802 5.413 12.915 14.43 12.915 24.646 0 16.559-13.424 29.982-29.982 29.982h-108.434c-16.559 0-29.982-13.424-29.982-29.982 0-10.216 5.113-19.232 12.915-24.646h-4.861c-16.559 0-29.982-13.424-29.982-29.982-.001-16.144 12.759-29.302 28.744-29.951z" fill="#fe76a8"/><path d="m162.59 493.339c-5.434 5.424-12.925 8.78-21.204 8.78h51.086c8.279 0 15.77-3.357 21.204-8.78 5.424-5.424 8.78-12.925 8.78-21.204 0-10.213-5.117-19.239-12.915-24.642h4.861c8.279 0 15.78-3.357 21.204-8.78 5.424-5.424 8.78-12.925 8.78-21.204 0-16.149-12.761-29.309-28.746-29.954 2.129-2.589 3.838-5.536 5.004-8.75 1.167-3.213 1.811-6.672 1.811-10.285 0-16.558-13.426-29.984-29.984-29.984h-51.086c16.558 0 29.984 13.426 29.984 29.984 0 3.612-.645 7.071-1.811 10.285-1.167 3.213-2.876 6.161-5.004 8.75 15.985.645 7.041 59.938-1.238 59.938h-4.861c7.798 5.403 12.915 14.429 12.915 24.642 0 8.279-3.356 15.781-8.78 21.204z" fill="#fe5694"/><path d="m462.016 384.207c0 3.77-1.607 7.489-4.636 10.086l-52.591 45.019v52.251h-65.376v-89.369l-52.591-45.029c-4.811-4.121-6.037-11.074-2.926-16.596 2.452-4.327 6.954-6.758 11.579-6.758 2.328 0 4.708.618 6.851 1.916l21.366 12.908c6.913 4.172 15.721-.803 15.721-8.88v-58.535c.804.288 1.617.577 2.431.845 19.553 6.5 40.95 6.15 60.276-.958.896-.33 1.793-.67 2.668-1.03v98.074c0 7.52 8.211 12.146 14.629 8.262l22.458-13.568c6.408-3.874 14.742-1.679 18.43 4.842 1.155 2.038 1.711 4.284 1.711 6.52z" fill="#6f3f8a"/><path d="m404.789 280.075v21.613c-11.044 3.75-22.613 5.615-34.192 5.615-10.518 0-21.047-1.545-31.184-4.656v-21.428c.804.288 1.617.577 2.431.845 19.553 6.5 40.95 6.15 60.276-.958.897-.33 1.794-.67 2.669-1.031z" fill="#5b3374"/><path d="m378.17 281.908v209.654h26.617v-52.252l52.59-45.017c3.029-2.599 4.636-6.314 4.636-10.09 0-2.231-.553-4.472-1.709-6.519-3.684-6.519-12.024-8.709-18.431-4.84l-22.452 13.57c-6.427 3.878-14.634-.747-14.634-8.258v-102.03c-8.616 3.172-17.57 5.096-26.617 5.782z" fill="#5b3374"/><g><path d="m307.906 429.275h38.53v72.521h-38.53z" fill="#f9f3f1" transform="matrix(-1 0 0 -1 654.341 931.07)"/><path d="m327.17 429.275h19.265v72.521h-19.265z" fill="#f3eae6" transform="matrix(-1 0 0 -1 673.606 931.07)"/><path d="m304.567 386.048h45.206c18.891 0 34.204 15.314 34.204 34.204 0 10.635-8.621 19.256-19.256 19.256h-75.102c-10.635 0-19.256-8.621-19.256-19.256 0-18.891 15.314-34.204 34.204-34.204z" fill="#ffe177"/><path d="m338.162 433.863c-3.479 3.479-8.289 5.639-13.611 5.639h40.167c5.321 0 10.141-2.159 13.621-5.639 3.479-3.479 5.639-8.289 5.639-13.611 0-18.891-15.309-34.211-34.2-34.211h-40.177c18.891 0 34.2 15.32 34.2 34.211 0 5.321-2.159 10.131-5.639 13.611z" fill="#fece85"/></g><path d="m267.476 223.549-21.16 32.451-38.189 58.576c-17.647 27.084-27.053 58.721-27.053 91.048v81.148h-61.399v-81.148c0-32.327-9.406-63.964-27.063-91.048l-38.189-58.576-21.15-32.451c-4.512-6.923-3.08-16.349 3.616-21.191 7.16-5.151 17.091-3.245 21.861 4.059l32.327 49.583 18.543 28.454c7.51 11.517 25.404 6.202 25.404-7.551v-61.667c0-8.272 6.346-15.381 14.598-15.772 8.829-.402 16.102 6.614 16.102 15.329v62.11c0 7.129 4.821 12.002 10.508 13.413 5.275 1.329 11.281-.319 14.886-5.862l18.544-28.454 32.327-49.583c4.77-7.304 14.701-9.21 21.861-4.059 6.706 4.832 8.138 14.268 3.626 21.191z" fill="#6f3f8a"/><g fill="#5b3374"><path d="m58.749 206.417 32.328 49.583h-36.654l-21.15-32.451c-4.512-6.923-3.08-16.349 3.616-21.191 7.16-5.151 17.091-3.245 21.86 4.059z"/><path d="m165.724 214.793v41.207h-30.7v-40.764c0-8.272 6.346-15.381 14.598-15.772 8.829-.402 16.102 6.613 16.102 15.329z"/><path d="m155.396 411.71v75.063h25.676v-81.152c0-32.328 9.405-63.96 27.057-91.048l59.344-91.027c4.513-6.918 3.08-16.353-3.623-21.183-7.163-5.158-17.09-3.254-21.859 4.053l-50.871 78.041c-3.612 5.536-9.62 7.184-14.89 5.864l-12.62 52.308c-5.456 22.621-8.214 45.81-8.214 69.081z"/></g><path d="m134.068 83.332h32.603c74.044 0 134.068 60.024 134.068 134.068 0 10.287-8.34 18.627-18.627 18.627h-263.485c-10.287 0-18.627-8.339-18.627-18.627 0-74.044 60.024-134.068 134.068-134.068z" fill="#01d0fb"/><path d="m221.245 217.4c0 5.137-2.088 9.804-5.454 13.171-3.377 3.367-8.033 5.454-13.181 5.454h79.494c5.147 0 9.804-2.088 13.181-5.454 3.367-3.367 5.454-8.033 5.454-13.171 0-74.05-60.03-134.07-134.07-134.07h-32.604c-8.003 0-15.831.696-23.445 2.047 62.865 11.083 110.625 65.976 110.625 132.023z" fill="#01c0fa"/><path d="m14.327 481.329h479.953c7.913 0 14.327 6.414 14.327 14.327 0 7.913-6.414 14.327-14.327 14.327h-479.953c-7.913-.001-14.327-6.415-14.327-14.328 0-7.912 6.414-14.326 14.327-14.326z" fill="#5de1c4"/><path d="m433.042 505.787c-2.599 2.589-6.181 4.196-10.131 4.196h71.369c3.95 0 7.532-1.607 10.131-4.196 2.589-2.599 4.196-6.181 4.196-10.131 0-7.911-6.416-14.327-14.327-14.327h-71.369c7.911 0 14.327 6.416 14.327 14.327 0 3.95-1.607 7.531-4.196 10.131z" fill="#0ed2b3"/><circle cx="423.239" cy="133.74" fill="#ffe177" r="24.849"/><path d="m414.277 156.919c2.784 1.075 5.802 1.668 8.965 1.668 13.723 0 24.847-11.124 24.847-24.847 0-13.733-11.124-24.857-24.847-24.857-3.162 0-6.181.593-8.965 1.668 9.302 3.592 15.893 12.618 15.893 23.189 0 10.561-6.59 19.587-15.893 23.179z" fill="#fece85"/><g><circle cx="327.17" cy="110.507" fill="#ffe177" r="20.198"/><path d="m319.339 129.132c2.405 1.013 5.055 1.576 7.829 1.576 11.155 0 20.201-9.046 20.201-20.201s-9.046-20.191-20.201-20.191c-2.773 0-5.424.563-7.829 1.576 7.256 3.05 12.362 10.234 12.362 18.615s-5.107 15.565-12.362 18.625z" fill="#fece85"/></g><g><circle cx="351.903" cy="207.562" fill="#ffe177" r="20.198"/><path d="m344.071 226.188c2.405 1.013 5.055 1.576 7.829 1.576 11.155 0 20.201-9.046 20.201-20.201s-9.046-20.191-20.201-20.191c-2.773 0-5.424.563-7.829 1.576 7.256 3.05 12.362 10.234 12.362 18.615s-5.106 15.565-12.362 18.625z" fill="#fece85"/></g><g><circle cx="458.263" cy="209.523" fill="#ffe177" r="20.198"/><path d="m450.431 228.148c2.405 1.013 5.055 1.576 7.829 1.576 11.155 0 20.201-9.046 20.201-20.201s-9.046-20.191-20.201-20.191c-2.773 0-5.424.563-7.829 1.576 7.256 3.05 12.362 10.234 12.362 18.615s-5.107 15.565-12.362 18.625z" fill="#fece85"/></g><g><circle cx="370.608" cy="47.723" fill="#ffe177" r="20.198"/><path d="m362.776 66.348c2.405 1.013 5.055 1.576 7.829 1.576 11.155 0 20.201-9.046 20.201-20.201s-9.046-20.191-20.201-20.191c-2.773 0-5.424.563-7.829 1.576 7.256 3.05 12.362 10.234 12.362 18.615s-5.107 15.565-12.362 18.625z" fill="#fece85"/></g><path d="m111.888 461.915c12.475 0 22.596-10.121 22.596-22.606 0-7.962-4.114-14.961-10.326-18.973 6.212-4.022 10.326-11.022 10.326-18.983 0-12.485-10.121-22.606-22.596-22.606h-24.688v83.168" fill="#fe76a8"/><path d="m234.193 213.723c-4.267 0-7.726-3.459-7.726-7.726 0-12.309-10.015-22.324-22.324-22.324-6.33 0-12.388 2.707-16.622 7.428-1.611 1.797-3.972 2.737-6.376 2.542-2.405-.195-4.582-1.503-5.883-3.536-5.47-8.546-14.776-13.648-24.893-13.648s-19.422 5.102-24.892 13.647c-1.301 2.033-3.477 3.341-5.883 3.536-2.411.192-4.765-.745-6.376-2.542-4.234-4.721-10.293-7.428-16.622-7.428-12.309 0-22.324 10.015-22.324 22.324 0 4.267-3.459 7.726-7.726 7.726s-7.726-3.459-7.726-7.726c0-20.83 16.947-37.777 37.777-37.777 7.667 0 15.098 2.346 21.329 6.606 8.398-8.772 20.018-13.82 32.444-13.82s24.046 5.047 32.445 13.82c6.23-4.26 13.662-6.606 21.329-6.606 20.83 0 37.777 16.947 37.777 37.777-.001 4.268-3.461 7.727-7.728 7.727z" fill="#01c0fa"/><path d="m219.489 160.763c-4.267 0-7.726-3.459-7.726-7.726 0-9.403-7.649-17.053-17.052-17.053-4.835 0-9.462 2.068-12.697 5.675-1.612 1.797-3.973 2.736-6.376 2.542-2.406-.195-4.582-1.503-5.883-3.536-4.26-6.655-11.507-10.629-19.384-10.629-7.878 0-15.124 3.973-19.384 10.629-1.301 2.033-3.477 3.341-5.883 3.536-2.404.197-4.764-.745-6.376-2.542-3.235-3.606-7.863-5.675-12.698-5.675-9.403 0-17.052 7.65-17.052 17.053 0 4.267-3.459 7.726-7.726 7.726s-7.726-3.459-7.726-7.726c0-17.924 14.582-32.505 32.505-32.505 6.213 0 12.244 1.789 17.404 5.059 7.107-7.001 16.702-11.007 26.937-11.007s19.83 4.007 26.938 11.007c5.159-3.27 11.191-5.059 17.403-5.059 17.924 0 32.505 14.582 32.505 32.505-.003 4.267-3.462 7.726-7.729 7.726z" fill="#01c0fa"/><g><path d="m5.071 98.908 25.387-9.848 9.848-25.387c2.201-5.674 10.229-5.674 12.43 0l9.848 25.387 25.387 9.848c5.674 2.201 5.674 10.229 0 12.43l-25.387 9.848-9.848 25.387c-2.201 5.674-10.229 5.674-12.43 0l-9.848-25.387-25.387-9.848c-5.673-2.201-5.673-10.229 0-12.43z" fill="#ffe177"/></g><g><path d="m418.517 41.508 25.387-9.848 9.848-25.387c2.201-5.674 10.229-5.674 12.43 0l9.848 25.387 25.387 9.848c5.674 2.201 5.674 10.229 0 12.43l-25.387 9.848-9.848 25.387c-2.201 5.674-10.229 5.674-12.43 0l-9.848-25.387-25.387-9.848c-5.674-2.201-5.674-10.229 0-12.43z" fill="#fe76a8"/></g><path d="m370.601 289.922c-11.369 0-22.742-1.804-33.623-5.421-15.818-5.242-29.851-13.915-41.701-25.776-3.016-3.019-3.014-7.911.005-10.927 3.018-3.016 7.91-3.014 10.927.005 10.131 10.14 22.122 17.553 35.638 22.032 19.551 6.499 40.953 6.156 60.27-.96 12.406-4.565 23.471-11.655 32.892-21.075 3.017-3.017 7.909-3.017 10.927 0s3.018 7.91 0 10.927c-11.015 11.014-23.961 19.307-38.48 24.649-11.837 4.361-24.343 6.546-36.855 6.546z" fill="#bd80e1"/></g></svg>