<svg id="Layer_1" enable-background="new 0 0 102 102" viewBox="0 0 102 102" xmlns="http://www.w3.org/2000/svg"><g><g><path d="m66.9672775 85.6616592-2.6350174-33.6600723-1.7664871-5.2314453-23.1855621 2.3197365-3.7881622 36.5717812c-.0001336 13.90065 31.3750915 13.90065 31.3752288-.0000001z" fill="#b9e9f7"/></g><g><path d="m66.9663086 85.660553c0 9.9030762-15.8995056 12.7491074-25.0566521 8.5509186 5.0370598-1.661293 8.7182083-6.8510284 8.7182083-13.0066833 0-7.4820328-5.4507713-13.5603485-12.1798859-13.5603485-.3358269 0-.6587219.0128937-.9945488.0385971l1.9244537-18.5956306 23.1839104-2.317997 1.7696266 5.228405z" fill="#a9deea"/></g><g><path d="m51.2793121 96.587616c-7.7958984 0-16.1875-3.4189453-16.1875-10.9257812l3.7910156-36.6240234c.0244141-.2353516.2109375-.421875.4472656-.4453125l23.1855469-2.3193359c.2285156-.0283203.4482422.1171875.5234375.3369141l1.7666016 5.2314453c.0136719.0390625.0214844.0800781.0244141.1210938l2.6347656 33.6601562c.0009766.0126953.0019531.0263672.0019531.0390625 0 7.5068358-8.3916015 10.9257811-16.1875 10.9257811zm-11.4443359-47.0410157-3.7460938 36.1669922c.0029297 6.7675781 7.8759766 9.8740234 15.1904297 9.8740234 7.3076172 0 15.1728516-3.1005859 15.1875-9.90625l-2.6279297-33.5791016-1.6201172-4.7949219z"/></g><g><path d="m44.1965256 7.5172796c-6.6059265 2.8235416-13.1885891 8.4053221-19.7550602 15.8982973-1.9299393 2.2022457-4.1229897 4.1706333-6.4893169 5.8986568-7.5362015 5.5033513-12.2381998 11.2419759-14.0224822 17.2228337-1.3645804 4.574028.5749118 9.4016266 4.7140293 11.797718 9.3399715 5.4068069 25.2170944 6.7264557 44.355011 6.00737 14.7146034-.8312416 30.2585945-2.3275108 39.3756828-6.3874664 5.2139816-2.3218498 7.5735245-8.4622574 5.1938477-13.6379013-2.546814-5.5391655-7.4486923-10.3721275-13.2076492-14.9480991-2.3432236-1.8618851-4.4783401-3.968359-6.4428482-6.2241135-6.6139601-7.5944986-13.1994627-13.4456005-19.7318266-16.0321116-4.4991264-1.7814436-9.5400734-1.4969344-13.9893875.4048161z" fill="#f6977f"/></g><g><path d="m92.378479 57.9533844c-9.1261673 4.0560417-24.6672974 5.5608482-39.3828163 6.3838272-19.137249.7288971-35.0082855-.5996017-44.3471909-6.0076065-4.1387563-2.3866234-6.0842047-7.2185707-4.7165184-11.7919044 1.4148982-4.7614059 4.6811104-9.369976 9.7514248-13.814003 2.2756395 5.4550781 8.2893152 9.3700447 15.3640928 9.3700447 9.0320301 0 16.342577-6.3603592 16.342577-14.2019901 0-6.454361-4.9404869-11.90944-11.7322845-13.6376257 3.5137863-2.9509182 7.0278549-5.2317009 10.5416374-6.7365799 4.445343-1.9045634 9.4917641-2.1867104 13.9843178-.3996844 6.5324211 2.5863948 13.1235771 8.4294605 19.7383308 16.02425 1.9575348 2.257246 4.091835 4.3616524 6.4385757 6.2309818 5.7540131 4.5733356 10.6587982 9.4052792 13.2059097 14.9425907 2.3818599 5.172936.0236064 11.3216138-5.1880559 13.6376996z" fill="#f28772"/></g><g><path d="m43.8037262 65.025116c-16.7333965 0-28.1044903-2.0273438-35.4111328-6.2578125-4.3339844-2.5087891-6.3662109-7.5966797-4.9423828-12.3730469 1.7998047-6.0322266 6.5800781-11.9140625 14.2070312-17.4833984 2.4033203-1.7548828 4.5585938-3.7138672 6.4082031-5.8242188 7.0791016-8.078124 13.5996075-13.3212881 19.9345684-16.0292969 4.7753906-2.0410156 9.8789062-2.1884766 14.3691406-.4101562 6.0019531 2.3769536 12.5195312 7.6650395 19.9257812 16.1689453 2.0498047 2.3544922 4.1953125 4.4277344 6.3769531 6.1611328 6.9677734 5.5371094 11.0849609 10.2041016 13.3505859 15.1308594 1.1992188 2.6074219 1.2988281 5.5302734.2802734 8.2304688-1.0283203 2.7294922-3.0615234 4.8867188-5.7255859 6.0732422-9.5615234 4.2578125-26.1591797 5.6728516-39.5498047 6.4296875-3.2412088.1220702-6.314451.1835937-9.2236307.1835937zm.5888672-57.0478511c-6.1943359 2.6474614-12.5966778 7.804688-19.5751934 15.7675781-1.8974609 2.1660156-4.1083984 4.1757812-6.5703125 5.9736328-7.4472656 5.4375-12.1025391 11.1435547-13.8378906 16.9609375-1.2919922 4.3320312.5517578 8.9462891 4.484375 11.2226562 8.2929688 4.7998047 22.7128906 6.7431641 44.0869141 5.9404297 13.2958984-.7519531 29.7763672-2.1523438 39.1904297-6.3447266 2.4169922-1.0761719 4.2626953-3.0341797 5.1962891-5.5117188.9228516-2.4482422.8330078-5.0976562-.2529297-7.4599609-2.1972656-4.7773438-6.2265625-9.3310547-13.0654297-14.765625-2.2285156-1.7724609-4.4179688-3.8876953-6.5078125-6.2880859-7.2988301-8.3798823-13.6904317-13.579101-19.5400411-15.8955077-4.243164-1.6796875-9.0761719-1.5390625-13.6083984.4003906z"/></g><g><g><g><path d="m59.700901 42.0147362c-.5212708 2.6338882-3.666481 4.2361984-7.0259666 3.5752373-3.3538818-.6598625-5.6528854-3.3332977-5.1316185-5.967186.5212746-2.633934 3.6664886-4.2362442 7.0203667-3.5763855 3.3594856.6609649 5.658493 3.3344002 5.1372184 5.9683342z" fill="#fff"/></g></g><g><g><path d="m59.7048416 42.0114403c-.5305519 2.6334648-3.6672211 4.2441139-7.027565 3.5739784-2.6766472-.5290604-4.6811104-2.33955-5.117527-4.3734207.672184.3409157 1.4621086.5289917 2.3110466.5289917 2.4762878 0 4.4925537-1.6458817 4.4925537-3.6680527 0-.8112106-.3183861-1.5518799-.8607407-2.1514091.3419952.0116997.6957893.0587692 1.0611.1293068 3.3606339.6583671 5.6598817 3.3271369 5.1411324 5.9606056z" fill="#f0f5f7"/></g></g><g><g><path d="m71.8658524 27.9749775c-.9750519 1.4820309-3.7403946 1.3939285-6.176506-.1994038-2.4320488-1.5906715-3.6145401-4.0846443-2.639492-5.5666771.9750633-1.4820557 3.7404137-1.3939514 6.1724586.1967201 2.4361114 1.5933324 3.6186065 4.0873051 2.6435394 5.5693608z" fill="#fff"/></g></g><g><g><path d="m71.8617401 27.9740582c-.9672546 1.4813423-3.7380371 1.3990364-6.1668243-.1998425.8607407-.8817463 1.3912888-2.1632462 1.3912888-3.5740528 0-1.1285877-.3419952-2.1631737-.9079514-2.9861507.9669647.1293068 2.0280685.5290623 3.041954 1.1874294 2.4411698 1.5988788 3.6203003 4.0912723 2.6415329 5.5726166z" fill="#f0f5f7"/></g></g><g><g><path d="m35.4506607 51.5614471c.301609 2.1236992-1.2582092 4.1022491-3.4853897 4.4166908-2.2234612.3139191-4.2728977-1.1550598-4.5745049-3.278759-.3016109-2.1237335 1.2582092-4.1022835 3.4816704-4.4161987 2.2271767-.3144455 4.2766152 1.1545334 4.5782242 3.2782669z" fill="#fff"/></g></g><g><g><path d="m31.9598885 55.9782829c-2.2169132.317379-4.2682991-1.152195-4.5751724-3.2801361-.0233173-.1763039-.03512-.3409157-.03512-.5055237.3299026.0940704.6955013.1410713 1.0611.1410713 2.2523232 0 4.0797443-1.7047195 4.0797443-3.7973557 0-.0587692 0-.1175385-.0118027-.1646118 1.521122.3762207 2.7356606 1.5988808 2.9714279 3.1860657.3065872 2.1279412-1.2617493 4.1030389-3.4901771 4.4204903z" fill="#f0f5f7"/></g></g><g><g><path d="m14.674943 45.5502396c-1.3106136-1.0797386-.4100828-4.3264961 2.0141916-7.2518616 2.4202251-2.9204826 5.4483528-4.4144325 6.7589664-3.3346939 1.3106346 1.0797577.4101048 4.3265114-2.0101223 7.246994-2.4242744 2.9253693-5.4524002 4.4193192-6.7630357 3.3395615z" fill="#fff"/></g></g><g><g><path d="m21.4421444 42.2112808c-2.4290752 2.9273834-5.4595194 4.4204941-6.7681923 3.3389053-.601368-.4938278-.7430019-1.4578781-.460022-2.621769.0944223.0117683.1888447.0117683.28298.0117683 3.0894566 0 5.612669-2.0926399 5.612669-4.6791039 0-.8817444-.2947826-1.7047234-.8017292-2.4100876 1.6742725-1.1874275 3.2780151-1.5871849 4.1387577-.8817444 1.3086719 1.0698168.4128094 4.3264201-2.0044632 7.2420313z" fill="#f0f5f7"/></g></g><g><g><path d="m85.021904 49.9589615c1.3106155-1.0797386.4100876-4.3264923-2.014183-7.2518578-2.4202271-2.9204865-5.4483566-4.4144363-6.7589722-3.3346939-1.3106308 1.0797539-.4101028 4.3265114 2.0101242 7.246994 2.4242706 2.9253655 5.4524002 4.4193154 6.763031 3.3395577z" fill="#fff"/></g></g><g><g><path d="m85.0210114 49.9589119c-.8728333.7171364-2.5119858.2939148-4.2213821-.9288177.7778397-.705368 1.2493744-1.6224174 1.2493744-2.6452332 0-2.174942-2.1337204-3.9384346-4.7516403-3.9384346-.460022 0-.9194641.0587692-1.344368.1646118-.4715347-1.4461098-.4122391-2.6570053.2947845-3.2330666 1.3092422-1.0816574 4.3394012.4114532 6.7569656 3.3270683 2.4284973 2.9273797 3.3249359 6.1722146 2.0162659 7.253872z" fill="#f0f5f7"/></g></g><g><ellipse cx="43.816" cy="21.608" fill="#fff" rx="8.35" ry="5.037" transform="matrix(.827 -.563 .563 .827 -4.562 28.411)"/></g><g><path d="m46.6636009 25.7638111c-3.7967644 2.5982342-8.1594849 2.8450775-9.739624.5525246-.9315567-1.351965-.6836967-3.3036003.4718246-5.1963959.8017273 1.2815018 2.1340065 2.1161728 3.6551285 2.1161728 2.4526825 0 4.445343-2.1867085 4.445343-4.8789444 0-.9993534-.2711754-1.9163322-.7309113-2.6923075 2.5586205-.7053671 4.8814697-.3056831 5.9428596 1.2344999 1.5798494 2.2924805-.2360571 6.254448-4.0446204 8.8644505z" fill="#f0f5f7"/></g></g><g><g><g><path d="m54.1767731 46.23703c-.5224609 0-1.0576172-.0507812-1.5986328-.1572266-2.0048828-.3935547-3.7314453-1.4794922-4.7363281-2.9785156-.7451172-1.1103516-1.0253906-2.3808594-.7890625-3.5751953.5732422-2.9023438 3.9804688-4.6855469 7.6074219-3.9697266 1.7333984.3408203 3.2626953 1.1962891 4.3056641 2.4082031 1.0732422 1.2460938 1.5078125 2.71875 1.2255859 4.1464844-.4882813 2.4687501-3.0341798 4.1259766-6.0146485 4.1259766zm-1.125-9.8388672c-2.5039062 0-4.6230469 1.328125-5.0185547 3.3212891-.1865234.9462891.0341797 1.9228516.6386719 2.8251953.8583984 1.2802734 2.3525391 2.2109375 4.0996094 2.5546875 3.0732422.5996094 5.9726562-.8203125 6.4394531-3.1816406.2207031-1.1201172-.1347656-2.2929688-1.0029297-3.3007812-.8974609-1.0429688-2.2255859-1.78125-3.7412109-2.0800781-.4794923-.0937501-.9531251-.138672-1.4150391-.138672zm6.649414 5.616211h.0097656z"/></g></g><g><g><path d="m69.4785309 29.5378113c-1.2460938 0-2.6943359-.4482422-4.0625-1.3447266-1.65625-1.0820312-2.8271484-2.6015625-3.1318359-4.0644531-.171875-.828125-.0517578-1.5869141.3476562-2.1943359 1.1464844-1.7382812 4.1591797-1.7148438 6.8642578.0527344 1.6591797 1.0849609 2.8310547 2.6064453 3.1357422 4.0693359.171875.828125.0517578 1.5859375-.3476562 2.1933594v.0009766c-.5664063.8593749-1.5898438 1.2871093-2.8056641 1.2871093zm-4.0546875-7.8837891c-.8740234 0-1.5898438.2724609-1.9560547.8291016-.3164062.4814453-.2861328 1.0498047-.2041016 1.4423828.2480469 1.1894531 1.2822266 2.5048828 2.6992188 3.4306641 2.1640625 1.4160156 4.6757812 1.5732422 5.4853516.34375.3164062-.4804688.2851562-1.0478516.2041016-1.4394531-.2480469-1.1914062-1.2832031-2.5078125-2.703125-3.4365234-1.1826173-.772461-2.4697267-1.169922-3.5253907-1.169922zm6.4423828 6.3212891h.0097656z"/></g></g><g><g><path d="m31.3681812 56.5202332c-2.2255859 0-4.1630859-1.5722656-4.4726562-3.7509766-.1650391-1.1630859.1533203-2.3232422.8964844-3.2666016.7382812-.9355469 1.8066406-1.5449219 3.0097656-1.7148438 2.5039043-.34375 4.8046856 1.3085938 5.1435528 3.703125.1650391 1.1640625-.1533203 2.3242188-.8964844 3.2666016-.7382812.9365234-1.8085938 1.5458984-3.0136719 1.7158203-.2246075.0312501-.4472637.0468751-.6669903.0468751zm.1025391-7.7792969c-.1738281 0-.3505859.0117188-.5283203.0371094-.9472656.1337891-1.7871094.6113281-2.3652344 1.3447266-.5722656.7255859-.8183594 1.6162109-.6914062 2.5058594.2626953 1.8486328 2.0673828 3.1347656 4.0087891 2.8544922.9492168-.1337891 1.7910137-.6113281 2.3691387-1.3447266.5722656-.7255859.8183594-1.6162109.6914062-2.5068359-.2382813-1.6806642-1.7460938-2.8906251-3.4843731-2.8906251z"/></g></g><g><g><path d="m15.7470875 46.3903503c-.5419922 0-1.0166016-.1464844-1.3896484-.4541016-.0009766 0-.0009766 0-.0009766 0-.4365234-.3603516-.7021484-.9121094-.7675781-1.5957031-.1621094-1.7080078.8789062-4.1455078 2.7158203-6.3613281 2.6357422-3.1835938 5.9140625-4.6767578 7.4619141-3.4013672.4365234.3603516.7021484.9121094.7675781 1.5957031.1621094 1.7070312-.8769531 4.1425781-2.7119141 6.3564453-2.0009766 2.4160157-4.3720703 3.8603516-6.0751953 3.8603516zm-.7539063-1.2255859c.9365234.7734375 3.6611328-.3779297 6.0595703-3.2734375 1.6201172-1.9550781 2.6191406-4.2148438 2.4853516-5.6230469-.0390625-.4189453-.1767578-.7285156-.4082031-.9189453-.9365234-.7744141-3.6601562.3759766-6.0556641 3.2685547-1.6484375 1.9882812-2.625 4.1972656-2.4892578 5.6279297.0400391.4189453.1767578.7285156.4082031.9189453z"/></g></g><g><g><path d="m83.9502106 50.7985535c-1.703125 0-4.0732422-1.4443359-6.0761719-3.859375-1.8349609-2.2148438-2.8730469-4.6503906-2.7109375-6.3574219.0654297-.6835938.3310547-1.2353516.7685547-1.5947266 1.5439453-1.2763672 4.8242188.21875 7.4609375 3.4003906 1.8369141 2.2177734 2.8769531 4.6552734 2.7148438 6.3632812-.0654297.6826172-.3310547 1.234375-.7675781 1.59375-.0009766 0-.0009766 0-.0009766 0-.3730469.3076173-.8476563.4541017-1.3886719.4541017zm-6.6064453-11.2753907c-.3212891 0-.5849609.078125-.7763672.2353516-.2314453.1904297-.3681641.4990234-.4082031.9179688-.1347656 1.4082031.8642578 3.6679688 2.484375 5.6240234 2.3984375 2.8925781 5.1171875 4.0478516 6.0595703 3.2724609h.0009766c.2304688-.1904297.3671875-.4990234.4072266-.9179688.1347656-1.4082031-.8652344-3.6699219-2.4882812-5.6289062-1.9091799-2.3037109-4.0234377-3.5029297-5.279297-3.5029297z"/></g></g><g><path d="m40.5312653 28.4030457c-1.7373047 0-3.1933594-.5957031-4.0214844-1.8007812-.5966797-.8681641-.7919922-1.9716797-.5644531-3.1904297.4189453-2.2480469 2.1894531-4.6289062 4.7353516-6.3681641 4.0986328-2.8007803 8.6835938-2.9863272 10.4414062-.4296875.5966797.8681641.7919922 1.9716797.5654297 3.1904297-.4199219 2.2470703-2.1904297 4.6279297-4.7363281 6.3681641-2.1669923 1.4794921-4.4707032 2.2304687-6.4199219 2.2304687zm6.5820312-12.5888663c-1.7490234 0-3.8837891.6992178-5.8681641 2.0556631-2.296875 1.5683594-3.9511719 3.7626953-4.3173828 5.7255859-.1777344.9511719-.0371094 1.7958984.40625 2.4404297 1.4160156 2.0615234 5.4765625 1.7539062 9.0527344-.6894531 2.296875-1.5693359 3.9511719-3.7636719 4.3173828-5.7255859.1777344-.9521484.0371094-1.7958984-.40625-2.4404297-.6308594-.9179687-1.7841797-1.36621-3.1845703-1.36621z"/></g></g></g></svg>