<svg id="Layer_1" viewBox="0 0 68 68" xmlns="http://www.w3.org/2000/svg" data-name="Layer 1"><path d="m38.5 65h-9s-7-23.94-2.5-30c2.08-2.82 11.63-2.58 14 0 5.1 5.54-2.5 30-2.5 30z" fill="#f9dcb2"/><path d="m3 35c0-17.67 13.88-32 31-32s31 14.33 31 32z" fill="#f76346"/><path d="m9.67 29c2.61-11.45 12.53-20 24.33-20" fill="#f76346"/><path d="m9.67 30h-.22a1 1 0 0 1 -.75-1.2c2.79-12.26 13.19-20.8 25.3-20.8a1 1 0 0 1 0 2c-11.17 0-20.77 7.9-23.35 19.22a1 1 0 0 1 -.98.78z" fill="#fff"/><g fill="#ddbb8e"><path d="m36 54a1 1 0 0 1 -1-1v-4a1 1 0 0 1 2 0v4a1 1 0 0 1 -1 1z"/><path d="m32 57a1 1 0 0 1 -1-1v-3a1 1 0 0 1 2 0v3a1 1 0 0 1 -1 1z"/><path d="m33 45a1 1 0 0 1 -1-1v-4a1 1 0 0 1 2 0v4a1 1 0 0 1 -1 1z"/><path d="m34 62a1 1 0 0 1 -1-1v-2a1 1 0 0 1 2 0v2a1 1 0 0 1 -1 1z"/></g></svg>