<svg id="Layer_2" height="512" viewBox="0 0 512 512" width="512" xmlns="http://www.w3.org/2000/svg" data-name="Layer 2"><path d="m165 373h22v83h-22z" fill="#7e5c3d"/><path d="m262.5428 240.861-43.6642-122.7125c-15.2523-42.8647-70.5049-42.8647-85.7572 0l-43.6642 122.7125c-23.7994 66.8851 21.1328 139.1097 86.5428 139.1097 65.41 0 110.3422-72.2246 86.5428-139.1097z" fill="#498949"/><path d="m325 373h22v83h-22z" fill="#7e5c3d"/><path d="m422.5428 240.861-43.6642-122.7125c-15.2523-42.8647-70.5049-42.8647-85.7572 0l-43.6642 122.7125c-23.7994 66.8851 21.1328 139.1097 86.5428 139.1097 65.41 0 110.3422-72.2246 86.5428-139.1097z" fill="#549a54"/><path d="m245 373h22v83h-22z" fill="#7e5c3d"/><path d="m351.3832 226.68-48.1245-135.2476c-16.81-47.2432-77.707-47.2432-94.5174 0l-48.1245 135.2476c-26.2305 73.7176 23.2916 153.32 95.3832 153.32 72.0916 0 121.6137-79.6024 95.3832-153.32z" fill="#66ad66"/></svg>