<svg id="Layer_2" height="512" viewBox="0 0 512 512" width="512" xmlns="http://www.w3.org/2000/svg" data-name="Layer 2"><path d="m244 404h24v52h-24z" fill="#7e5c3d"/><path d="m431.84 412h-351.68c-7.25 0-10.88-11.61-5.77-18.42l4.19-5.58 60.83-81 15.02-20 63.82-85 12.02-16 19.96-26.58c3.18-4.23 8.36-4.23 11.54 0l19.96 26.58 12.02 16 63.82 85 15.02 20 60.83 81 4.19 5.58c5.11 6.81 1.48 18.42-5.77 18.42z" fill="#397739"/><path d="m385.97 307h-259.94c-5.36 0-8.04-8.59-4.26-13.63l4.78-6.37 63.77-85 12.01-16 49.41-65.86c2.35-3.13 6.17-3.13 8.52 0l49.41 65.86 12.01 16 63.77 85 4.78 6.37c3.78 5.04 1.1 13.63-4.26 13.63z" fill="#498949"/><path d="m340.1 202h-168.2c-3.46 0-5.2-5.54-2.76-8.79l5.42-7.21 55.67-74 9.03-12 13.98-18.58a3.2629 3.2629 0 0 1 5.52 0l13.98 18.58 9.03 12 55.67 74 5.42 7.21c2.44 3.25.7 8.79-2.76 8.79z" fill="#549a54"/><path d="m293.23 112h-76.46c-1.57 0-2.36-2.54-1.25-4.03l5.94-7.97 32.29-43.3a1.4688 1.4688 0 0 1 2.5 0l32.29 43.3 5.94 7.97c1.11 1.49.32 4.03-1.25 4.03z" fill="#66ad66"/></svg>