<svg id="Flat" height="512" viewBox="0 0 340 340" width="512" xmlns="http://www.w3.org/2000/svg"><path d="m259.433 59.859s12.51 10.752 26.585 0l-10.077-22a48.645 48.645 0 0 0 -16.508 22z" fill="#5b4977"/><path d="m295.538 27.05s7.823 19.115-4.193 35.055c-5.963 1.486-13.369-11.67-20.379-20.816 0 0 13.371-16.945 24.572-14.239z" fill="#ffe4ff"/><path d="m282.716 49.537c-2.63-10.812 7.013-20.893 7.013-20.893l-.638-1.279c-9.31 2.754-18.125 13.924-18.125 13.924l15.254 23.891a1.471 1.471 0 0 0 2.3.222 34.757 34.757 0 0 0 2.825-3.3 19.951 19.951 0 0 1 -8.629-12.565z" fill="#5b4977"/><path d="m168.085 202.6s0 7.506.865 15.83a37.495 37.495 0 0 0 10.329 22.125c8.5 8.818 22.8 23.272 37.279 36.152a29.675 29.675 0 0 0 20.153 7.41c19.267-.257 57.915 4.546 58.827 47.085h31.193s6.178-26.222-10.694-48.831a50.573 50.573 0 0 0 -25.168-17.751 148.1 148.1 0 0 0 -45.585-7.209 29.754 29.754 0 0 1 -18.888-6.477 246.788 246.788 0 0 1 -20.761-18.409 37.407 37.407 0 0 1 -10.44-21.636c-.647-5.166-1-11.038-.239-15.684l-23.164-37.338-47.492 9.091s-11.452 25.6 0 58.273a110.811 110.811 0 0 1 3.26 11.841 35.259 35.259 0 0 1 -1.844 20.785l-4.867 11.855a34.986 34.986 0 0 1 -14.959 17.105c-12.509 7.16-32.616 21.992-35.145 44.384h34.693s4.181-19.9 22.188-32.761a30.02 30.02 0 0 0 10.531-13.9l8.21-21.771a30.643 30.643 0 0 0 .584-19.981c-2.237-7.138-4.977-17.045-6.041-25.637a23.542 23.542 0 0 1 3.389-15.584c3.074-4.8 8.463-9.347 17.726-8.336z" fill="#ce6581"/><path d="m327.466 326.428a10.494 10.494 0 0 1 -2.926-4.945c-1.1-12.68-5.253-21.053-9.048-26.206a2.087 2.087 0 0 0 -3.674 1.845 64.3 64.3 0 0 1 2.754 15.665 3.381 3.381 0 0 1 -4.654 3.274 4.423 4.423 0 0 1 -2.764-2.438c-10.241-33.343-42.632-41.2-60.256-38.106s-21.911-1.906-21.911-1.906l-36.022-33.581c-11.015-9.527-13.993-24.381-13.993-24.381-.607-20.3 14.888-17.225 19.583-15.835a35.239 35.239 0 0 1 .4-4.61l-23.164-37.338-47.491 9.092s-11.452 25.6 0 58.273a110.832 110.832 0 0 1 3.26 11.84 35.262 35.262 0 0 1 -1.844 20.786l-4.867 11.855a34.986 34.986 0 0 1 -14.959 17.105c-12.509 7.16-32.616 21.992-35.145 44.384h34.693s4.181-19.9 22.188-32.761a30.02 30.02 0 0 0 10.531-13.9l8.21-21.771a30.638 30.638 0 0 0 .586-19.975c-2.241-7.15-4.988-17.081-6.048-25.685a23.491 23.491 0 0 1 3.395-15.539c3.073-4.8 8.463-9.348 17.726-8.337l6.061 9.366s0 7.506.865 15.83a37.495 37.495 0 0 0 10.329 22.125c8.5 8.818 22.8 23.272 37.279 36.152a29.675 29.675 0 0 0 20.153 7.41c19.267-.257 57.915 4.546 58.827 47.085h31.193a43.5 43.5 0 0 0 .733-4.773z" fill="#824561"/><path d="m172.5 171.2-12.217 12.32c-1.927 5.08-2.443 11.707.467 20.1a3.656 3.656 0 0 0 3.458 2.438h.08a3.817 3.817 0 0 0 3.8-3.464c.523-5.263 3.046-14.669 14.4-14.669a12.918 12.918 0 0 1 12.469 7.274 5.888 5.888 0 0 0 8.416 2.344 5.839 5.839 0 0 0 2.69-4.9 24.559 24.559 0 0 0 -10.934-20.93s-7.014-1.953-11.57-3.12z" fill="#5b4977"/><path d="m142.089 163.247-17.06 21.7c-17.89 20.685-43.7 53.727-60 88.713a66.739 66.739 0 0 1 -7.5 12.435 174.3 174.3 0 0 1 -19.625 21.9 28.627 28.627 0 0 0 -6.534 8.793l-5.436 11.365c-3.375 7.058-14.1 4.478-13.759-3.338.036-.844.121-1.756.261-2.741.027-.193.063-.388.105-.578.968-4.38 13.216-57.833 45.1-107.429 0 0 10.758-15.843 16.932-23.4l23.527-25.767z" fill="#ff4992"/><path d="m74.572 190.67a254.113 254.113 0 0 0 -16.93 23.4c31.023-7.2 55.554-21.346 67.388-29.116 11.73-13.562 20.057-21.817 20.057-21.817l-46.987 1.763z" fill="#a81856"/><path d="m70.383 166.553-17.811 6.719a96.409 96.409 0 0 1 -17.136 6.075 8.163 8.163 0 0 0 -5.964 5.865l1.428 6.974a94.352 94.352 0 0 1 -11.566 1.177c-7.661.295-9.516 10.9-2.412 13.778 6.393 2.6 16.3 3.262 31.662-1.061a464.445 464.445 0 0 0 69.721-26.149s18.917-12.134 30.01-18.363z" fill="#6ba5fe"/><path d="m184.064 166.958-11.353 2.842a26.676 26.676 0 0 0 -12.426 13.724 61.28 61.28 0 0 0 34.838-11.8 35.334 35.334 0 0 0 -11.059-4.766z" fill="#3a2556"/><path d="m149.912 160.868-81.876 3.532a92.518 92.518 0 0 1 -15.465 8.874c4.39 1.7 11.8 3.174 22 .374 0 0 11.843 12.778 37.294 4.667a31.367 31.367 0 0 0 6.438 1.618c11.134-5.183 21.469-10.465 30.845-15.565z" fill="#593b91"/><path d="m80.4 133.2-9.567 7.788c-4.509 4.493-10.061 10.344-15.274 16.708a7.28 7.28 0 0 0 4.53 11.822c4.4.617 10.445.59 18.609-1.007l5.912 4.328c5.108 2.364 13.822 3.972 27.259-.642l6.757 2.371c5.972 1.373 15.021 1.724 23.467-4.829l6.854 2.349c11.777 3.057 36.68 5.266 58.359-20.925 0 0 4.105-6.943 6.626-11.037l-118.038-13.145z" fill="#ffca6e"/><path d="m295.538 27.05s-2.582-13.033-20.78-17.87a43.6 43.6 0 0 0 -8.4-1.369c-6.031-.243-9.868-.09-15.971 1.832a47.092 47.092 0 0 0 -4.963 1.788 62.746 62.746 0 0 0 -28.536 24.137 43.947 43.947 0 0 1 -12.039 12.385l-24.677 17.087 54.191 52.235 11.964-14.592a117.047 117.047 0 0 0 9.539-22.845 98.346 98.346 0 0 1 7.345-17.585c2.521-9.492 9.462-17 17.954-23.815a76.021 76.021 0 0 1 14.373-11.388z" fill="#ff4992"/><path d="m224.6 73-2.354 32.6 12.122 11.684s5.472-3.123 11.96-14.595a40.035 40.035 0 0 0 -21.728-29.689z" fill="#a81856"/><path d="m215.067 140.25-119.173-13.269-15.726 5.161s-3.917 3.441-9.338 8.843c2.9 4.917 10.957 12.044 32.186 3.21 0 0 7.767 10.615 33.957 2.98a43.54 43.54 0 0 0 30.288.744 33.561 33.561 0 0 0 27.747.559 32.474 32.474 0 0 0 12.289 2.678 95.912 95.912 0 0 0 7.77-10.906z" fill="#e56443"/><path d="m268.058 54.32a112.764 112.764 0 0 1 13.11-15.879 58.243 58.243 0 0 0 -2.823-12.8 18.1 18.1 0 0 0 -19.586-11.893l-.287.041a18.031 18.031 0 0 0 -15.587 18.652 29.5 29.5 0 0 0 2.351 9.9c5.427 12.859 10.322 15.359 17.975 19.912 1.138-1.972 3.553-6.053 4.847-7.933z" fill="#ffe4ff"/><path d="m218.021 69s-65.439-32.962-141.534 58.76a8.231 8.231 0 0 0 4.14 13.223c5.387 1.426 13.905.986 27.246-4.824 0 0 6.614 12.21 32.306 3.561 0 0 5.342 10.176 29 1.272 0 0 4.833 9.158 26.71.763 0 0 26.241 16.482 41.479-23.24 4.74-12.356 3.4-26.4-4.387-37.1a40.12 40.12 0 0 0 -14.96-12.415z" fill="#ff4992"/><g fill="#a81856"><path d="m37.9 307.994a140.5 140.5 0 0 0 10.217-10.461c7.153-22.081 18.681-51.439 27.225-72.489a2.366 2.366 0 0 0 -4.262-2.035c-25.536 45.568-39.714 93.778-39.714 93.778a28.627 28.627 0 0 1 6.534-8.793z"/><path d="m218.9 118.522c-5.11 1.787-12.321 3.058-19.3 0 6.835-3.44 10.467-9.674 12.361-14.673a1.9 1.9 0 0 0 -3.1-2.038c-5.885 5.516-16.739 13.144-31.724 13.083a35.246 35.246 0 0 0 10.982-12.831 2.673 2.673 0 0 0 -4.119-3.256c-7.463 6.382-20.106 14.472-36.34 14.6 6.307-3.127 10.83-8.614 13.743-14.039a2.231 2.231 0 0 0 -3.509-2.671 74.518 74.518 0 0 1 -20.255 14.343c-3.677 1.718-13.391 3.171-19.967 2.815a26.605 26.605 0 0 1 -4.027-.561 2.133 2.133 0 0 0 -1.556 3.9c.336.21 5.188 2.627 13.269 2.707a40.592 40.592 0 0 0 11.282-1.524 49.056 49.056 0 0 0 18.039 3.569 39.744 39.744 0 0 0 11.663-1.7 45.358 45.358 0 0 0 15.684 2.912 36.893 36.893 0 0 0 7.759-.809c3.867 2.706 9.794 5.843 16.3 5.342 7.146-.549 11.855-3.049 14.885-5.67a2.068 2.068 0 0 0 -2.07-3.499z"/><path d="m112.468 140.262c7.682-4.161 11.806-9.524 14.017-14.168a1.848 1.848 0 0 0 -3.027-2.04 71.709 71.709 0 0 1 -15.585 12.1l.345.522a13.156 13.156 0 0 0 4.25 3.586z"/><path d="m144.485 143.178a14.579 14.579 0 0 0 7.02-9.926 1.188 1.188 0 0 0 -2.112-.95c-3.374 4.6-9.214 7.418-9.214 7.418l.226.35a9.887 9.887 0 0 0 4.08 3.108z"/><path d="m177.134 145.121a30.028 30.028 0 0 0 9.438-15.444 1.778 1.778 0 0 0 -3.244-1.339 35.8 35.8 0 0 1 -14.149 12.654s1.765 3.325 7.955 4.129z"/><path d="m210 133.9a1.433 1.433 0 0 0 -2.5-1.331 33.9 33.9 0 0 1 -11.609 9.186 24.553 24.553 0 0 0 6.131 2.5 19.45 19.45 0 0 0 7.978-10.355z"/></g><path d="m84.608 172.832a18.81 18.81 0 0 0 9.319-9.6 2.074 2.074 0 0 0 -3.315-2.366 38.239 38.239 0 0 1 -11.918 7.64 16.07 16.07 0 0 0 5.914 4.326z" fill="#e56443"/><path d="m126.607 162.451a1.526 1.526 0 0 0 -2.848-1c-3.838 7.559-11.893 10.743-11.893 10.743a29.615 29.615 0 0 0 6.756 2.37c5.111-3.804 7.251-8.213 7.985-12.113z" fill="#e56443"/><path d="m148.943 172.083a32.813 32.813 0 0 0 6.563-14.965 1.894 1.894 0 0 0 -3.581-1.125 46.225 46.225 0 0 1 -9.836 13.743l.058.028a42.079 42.079 0 0 0 6.796 2.319z" fill="#e56443"/><path d="m57.62 183.552c-7.875 1.233-19.662 2.629-28.136 1.664a7.881 7.881 0 0 0 .79 5.96q.285.5.626 1.01s15.054-2.015 27.252-6.536a1.087 1.087 0 0 0 -.532-2.098z" fill="#593b91"/><circle cx="262.866" cy="30.385" fill="#3b3b59" r="4.988"/></svg>