<svg id="Capa_2" enable-background="new 0 0 453.5 453.5" viewBox="0 0 453.5 453.5" xmlns="http://www.w3.org/2000/svg"><g><path d="m337.6 200.4c0-21.2-10.6-40-26.7-51.3 12-11.4 19.4-27.5 19.4-45.3 0-28-18.3-51.7-43.6-59.7-8-25.5-31.7-44-59.8-44s-51.9 18.5-59.8 44c-25.3 8.1-43.6 31.8-43.6 59.7 0 17.8 7.5 33.9 19.4 45.3-16.1 11.3-26.7 30.1-26.7 51.3 0 31 22.4 56.6 51.9 61.7 8.8 24 31.8 41.1 58.9 41.1 27 0 50-17.1 58.9-41.1 29.2-5.1 51.7-30.8 51.7-61.7z" fill="#85ad59"/><path d="m297.5 165.8-62.8 51.8-2.8-51.9 43.8-55.1-44.8 37-4.1-74-4.1 74-44.9-37 43.9 55.1-2.9 51.9-62.8-51.8 61.4 77.1-11.6 210.6h42l-11.7-210.6z" fill="#7d4e24"/><path d="m271.5 49.3c19.8 10.3 38.6 21.7 55.9 35.7-6.1-19.4-21.4-34.8-40.7-41-8-25.5-31.7-44-59.8-44-16.2 0-31 6.2-42.1 16.3 30 7.5 59.2 18.6 86.7 33z" fill="#a7d36e"/><path d="m190.4 259c-27.2-10.4-53.2-26.4-73.4-47.4 4.7 25.8 25.1 46 50.9 50.5 8.8 24 31.8 41.1 58.8 41.1 21.9 0 41.1-11.2 52.3-28.1-30-.8-59.8-5.1-88.6-16.1z" fill="#70963e"/><path d="m216.1 267.1-10.3 186.5h42l-10.1-182.1c-7.2-1.2-14.5-2.6-21.6-4.4z" fill="#5b3311"/></g></svg>