<?xml version="1.0" standalone="no"?><svg xmlns="http://www.w3.org/2000/svg" viewBox="0 0 1440 320"><path fill="#ffffff" fill-opacity="1" d="M0,224L14.1,192C28.2,160,56,96,85,106.7C112.9,117,141,203,169,245.3C197.6,288,226,288,254,256C282.4,224,311,160,339,117.3C367.1,75,395,53,424,80C451.8,107,480,181,508,224C536.5,267,565,277,593,272C621.2,267,649,245,678,208C705.9,171,734,117,762,128C790.6,139,819,213,847,202.7C875.3,192,904,96,932,80C960,64,988,128,1016,144C1044.7,160,1073,128,1101,96C1129.4,64,1158,32,1186,48C1214.1,64,1242,128,1271,138.7C1298.8,149,1327,107,1355,90.7C1383.5,75,1412,85,1426,90.7L1440,96L1440,320L1425.9,320C1411.8,320,1384,320,1355,320C1327.1,320,1299,320,1271,320C1242.4,320,1214,320,1186,320C1157.6,320,1129,320,1101,320C1072.9,320,1045,320,1016,320C988.2,320,960,320,932,320C903.5,320,875,320,847,320C818.8,320,791,320,762,320C734.1,320,706,320,678,320C649.4,320,621,320,593,320C564.7,320,536,320,508,320C480,320,452,320,424,320C395.3,320,367,320,339,320C310.6,320,282,320,254,320C225.9,320,198,320,169,320C141.2,320,113,320,85,320C56.5,320,28,320,14,320L0,320Z"></path></svg>