<?xml version="1.0" standalone="no"?><svg xmlns="http://www.w3.org/2000/svg" viewBox="0 0 1440 320"><path fill="#ffffff" fill-opacity="1" d="M0,256L30,234.7C60,213,120,171,180,154.7C240,139,300,149,360,170.7C420,192,480,224,540,224C600,224,660,192,720,160C780,128,840,96,900,96C960,96,1020,128,1080,149.3C1140,171,1200,181,1260,186.7C1320,192,1380,192,1410,192L1440,192L1440,320L1410,320C1380,320,1320,320,1260,320C1200,320,1140,320,1080,320C1020,320,960,320,900,320C840,320,780,320,720,320C660,320,600,320,540,320C480,320,420,320,360,320C300,320,240,320,180,320C120,320,60,320,30,320L0,320Z"></path></svg>