<?xml version="1.0" standalone="no"?><svg xmlns="http://www.w3.org/2000/svg" viewBox="0 0 1440 320"><path fill="#ffffff" fill-opacity="1" d="M0,64L24,90.7C48,117,96,171,144,208C192,245,240,267,288,266.7C336,267,384,245,432,224C480,203,528,181,576,176C624,171,672,181,720,197.3C768,213,816,235,864,218.7C912,203,960,149,1008,122.7C1056,96,1104,96,1152,117.3C1200,139,1248,181,1296,192C1344,203,1392,181,1416,170.7L1440,160L1440,0L1416,0C1392,0,1344,0,1296,0C1248,0,1200,0,1152,0C1104,0,1056,0,1008,0C960,0,912,0,864,0C816,0,768,0,720,0C672,0,624,0,576,0C528,0,480,0,432,0C384,0,336,0,288,0C240,0,192,0,144,0C96,0,48,0,24,0L0,0Z"></path></svg>