<?xml version="1.0" standalone="no"?><svg xmlns="http://www.w3.org/2000/svg" viewBox="0 0 1440 320"><path fill="#f3f4f5" fill-opacity="1" d="M0,160L14.1,160C28.2,160,56,160,85,144C112.9,128,141,96,169,96C197.6,96,226,128,254,128C282.4,128,311,96,339,74.7C367.1,53,395,43,424,80C451.8,117,480,203,508,245.3C536.5,288,565,288,593,250.7C621.2,213,649,139,678,106.7C705.9,75,734,85,762,122.7C790.6,160,819,224,847,256C875.3,288,904,288,932,266.7C960,245,988,203,1016,154.7C1044.7,107,1073,53,1101,69.3C1129.4,85,1158,171,1186,170.7C1214.1,171,1242,85,1271,42.7C1298.8,0,1327,0,1355,16C1383.5,32,1412,64,1426,80L1440,96L1440,0L1425.9,0C1411.8,0,1384,0,1355,0C1327.1,0,1299,0,1271,0C1242.4,0,1214,0,1186,0C1157.6,0,1129,0,1101,0C1072.9,0,1045,0,1016,0C988.2,0,960,0,932,0C903.5,0,875,0,847,0C818.8,0,791,0,762,0C734.1,0,706,0,678,0C649.4,0,621,0,593,0C564.7,0,536,0,508,0C480,0,452,0,424,0C395.3,0,367,0,339,0C310.6,0,282,0,254,0C225.9,0,198,0,169,0C141.2,0,113,0,85,0C56.5,0,28,0,14,0L0,0Z"></path></svg>